<?xml version="1.0" standalone="no"?>
<!DOCTYPE svg PUBLIC "-//W3C//DTD SVG 20010904//EN"
 "http://www.w3.org/TR/2001/REC-SVG-20010904/DTD/svg10.dtd">
<svg version="1.0" xmlns="http://www.w3.org/2000/svg"
 width="700.000000pt" height="700.000000pt" viewBox="0 0 700.000000 700.000000"
 preserveAspectRatio="xMidYMid meet">
<metadata>
Created by potrace 1.11, written by Peter Selinger 2001-2013
</metadata>
<g transform="translate(0.000000,700.000000) scale(0.100000,-0.100000)"
fill="#000000" stroke="none">
<path d="M3335 6993 c-1155 -57 -2181 -660 -2808 -1651 -88 -138 -243 -452
-302 -612 -304 -819 -294 -1703 28 -2530 54 -140 196 -419 282 -555 533 -845
1396 -1424 2369 -1589 225 -39 356 -49 596 -49 240 0 371 10 596 49 1363 232
2468 1262 2799 2609 70 286 98 522 98 835 0 314 -28 549 -98 837 -339 1379
-1486 2420 -2890 2622 -224 33 -460 45 -670 34z m911 -2795 l1446 -3 -1443
-1537 -1444 -1536 -3 1539 -2 1539 -745 2 -744 3 742 788 742 789 3 -791 2
-791 1446 -2z"/>
</g>
</svg>
