<svg xmlns="http://www.w3.org/2000/svg" xmlns:xlink="http://www.w3.org/1999/xlink" viewBox="0 0 960 800">
  <defs>
    <mask id="a" x="0" y="91.96" width="960" height="748.04" maskUnits="userSpaceOnUse">
      <path d="M558.23,755.13C661.09,812,888.71,723.6,888.71,505.4,888.71,152.24,566.56,92,377.71,92c-338.66,0-463,382.31-61.1,413.44C674.87,533.15,338.62,633.75,558.23,755.13Z" fill="#f6a182"/>
    </mask>
    <linearGradient id="b" x1="468.38" y1="426.44" x2="468.38" y2="87.46" gradientTransform="matrix(1, 0, 0, -1, 0, 802)" gradientUnits="userSpaceOnUse">
      <stop offset="0" stop-color="#f37753"/>
      <stop offset="1" stop-color="#fff" stop-opacity="0"/>
    </linearGradient>
    <linearGradient id="c" x1="565.93" y1="8.49" x2="565.93" y2="-39.21" gradientTransform="matrix(1, 0, 0, -1, 0, 802)" gradientUnits="userSpaceOnUse">
      <stop offset="0" stop-color="#f4a984"/>
      <stop offset="1" stop-color="#ee4d47"/>
    </linearGradient>
    <linearGradient id="d" x1="725.86" y1="25.67" x2="725.86" y2="-39.45" xlink:href="#c"/>
    <linearGradient id="e" x1="672.45" y1="524.75" x2="672.45" y2="-4.89" gradientTransform="matrix(1, 0, 0, -1, 0, 802)" gradientUnits="userSpaceOnUse">
      <stop offset="0" stop-color="#822626"/>
      <stop offset="0.94" stop-color="#402b2b"/>
    </linearGradient>
    <linearGradient id="f" x1="308.73" y1="632.86" x2="400.01" y2="414.13" gradientTransform="matrix(1, 0, 0, -1, 0, 802)" gradientUnits="userSpaceOnUse">
      <stop offset="0" stop-color="#f7a58d"/>
      <stop offset="0.93" stop-color="#fff"/>
    </linearGradient>
    <linearGradient id="g" x1="553.49" y1="532.77" x2="553.49" y2="450.18" gradientTransform="matrix(1, 0, 0, -1, 0, 802)" gradientUnits="userSpaceOnUse">
      <stop offset="0" stop-color="#ffb3b6"/>
      <stop offset="1" stop-color="#ffc8c1"/>
    </linearGradient>
    <linearGradient id="h" x1="532.44" y1="454.24" x2="579.61" y2="601.3" xlink:href="#c"/>
    <linearGradient id="i" x1="644.46" y1="722.5" x2="644.46" y2="403.41" xlink:href="#c"/>
    <linearGradient id="j" x1="657.18" y1="641.86" x2="625.39" y2="628.15" xlink:href="#g"/>
    <linearGradient id="k" x1="658.49" y1="656.24" x2="626.52" y2="642.7" gradientTransform="matrix(1, 0, 0, -1, 0, 802)" gradientUnits="userSpaceOnUse">
      <stop offset="0" stop-color="#ffb3b6" stop-opacity="0.31"/>
      <stop offset="1" stop-color="#ffc8c1"/>
    </linearGradient>
    <linearGradient id="l" x1="641.17" y1="649.04" x2="647.97" y2="709.76" xlink:href="#g"/>
    <linearGradient id="m" x1="649.56" y1="809.64" x2="649.56" y2="718.33" xlink:href="#c"/>
    <linearGradient id="n" x1="624.77" y1="761.73" x2="624.77" y2="666.79" xlink:href="#c"/>
    <linearGradient id="o" x1="600.75" y1="474.49" x2="568.4" y2="461.68" xlink:href="#c"/>
    <linearGradient id="p" x1="579.5" y1="471.12" x2="272.74" y2="412.52" gradientTransform="matrix(1, 0, 0, -1, 0, 802)" gradientUnits="userSpaceOnUse">
      <stop offset="0" stop-color="#f58a6b"/>
      <stop offset="1" stop-color="#f7a58d"/>
    </linearGradient>
    <linearGradient id="q" x1="691.1" y1="530.42" x2="528.25" y2="476.14" xlink:href="#g"/>
    <linearGradient id="r" x1="642.27" y1="545.31" x2="737.17" y2="481.29" xlink:href="#c"/>
  </defs>
  <title>about</title>
  <path d="M558.32,755.13C661.18,812,888.81,723.6,888.8,505.4,888.8,152.24,566.65,92,377.8,92c-338.65,0-463,382.31-61.09,413.44C675,533.15,338.71,633.75,558.32,755.13Z" fill="#fcddd4"/>
  <g mask="url(#a)">
    <g>
      <path d="M84.53,535.8c36.45-47.32,133-139.59,227.59-130.13,118.23,11.83-106.41,233.63,0,233.63s156.65-272.07,233.5-272.07-85.71,201.1,0,212.93S702.28,296.25,796.86,293.29,699.32,535.8,853,535.8" fill="none" stroke-width="2" opacity="0.7" stroke="url(#b)" style="isolation: isolate"/>
      <g>
        <path d="M614.47,826.18,577.4,823l1.88-45.85,37.39,3.45Z" fill="#d88d6c"/>
        <path d="M545.35,819.9s24.51-11.31,28.59-19.47c0,0,7.23-26.39,18.23-12.57,0,0,11.31,9.11,27.33,1.89l1.89,49.93-110.92-.31C513.3,831.83,515.81,823.35,545.35,819.9Z" fill="url(#c)"/>
        <path d="M776.92,819.9l-37.08,6.28-9.74-44.6,36.76-6.28Z" fill="#d88d6c"/>
        <path d="M705.59,819.9s24.51-11.31,28.6-19.47c0,0-5.66-20.73,7.54-10.37,0,0,22.62,8.48,32-1.88L781.32,840l-110.92-.31C673.86,831.83,676.37,823.35,705.59,819.9Z" fill="url(#d)"/>
        <path d="M571.11,394s-6.59,188.76-.63,403.27c0,0,17.91,17,51.85,5.65,0,0-.32-238.69,8.8-333.54,0,0,42.73,180.27,96.77,336.37,0,0,36.14,6.91,49-13.51,0,0-72.9-252.82-83.58-398.24Z" fill="url(#e)"/>
        <path d="M571.11,394H693.34c.94,11,1.88,22.61,3.46,34.55-72.9.31-111.55-18.22-126-26.7A72.37,72.37,0,0,1,571.11,394Z" fill="#402b2b" fill-opacity="0.45"/>
      </g>
      <g>
        <path d="M57.16,474.19c0,35-20.06,63.67-45,63.67H0V410.53H11.89C36.86,410.53,57.16,439,57.16,474.19Z" fill="#402b2b"/>
        <path d="M276.21,473.49c0,35.21,20.3,63.66,45.26,63.66h45.26c25,0,45-28.68,45-63.66,0-35.21-20.29-63.66-45.25-63.66h-45C296.28,409.83,276.21,438.28,276.21,473.49Z" fill="#f48767"/>
        <polygon points="100.78 467.67 100.63 467.67 0 467.92 0 455.44 79.78 455.31 100.78 467.67" fill="#402b2b"/>
        <path d="M432.05,470.92a8.86,8.86,0,0,1-8.86,8.87l-300.94.7-21.63-12.82L79.78,455.31,0,455.44v-91.6L431.82,363Z" fill="#f36f49"/>
        <path d="M69.06,390.94l236.09-.46-.47-213.84A15.68,15.68,0,0,0,288.82,161l-220.46.46Z" fill="#f48767"/>
        <polygon points="68.82 391.17 0 391.3 0 161.86 68.35 161.72 68.82 391.17" fill="#f06a5b"/>
        <path d="M246.35,473.49c0,35.21-20.06,63.66-45,63.66h-45V515.7c-16.56,0-30.09-18.89-30.09-42.21s13.3-42.21,29.86-42.21V409.83h45C226.06,410.06,246.12,438.51,246.35,473.49Z" fill="#f48767"/>
        <path d="M119,474c0,28.91,16.56,52.23,37.09,52,20.53,0,36.86-23.32,36.86-52.24s-16.56-52.23-37.09-52C135.54,421.72,119,445,119,474Z" fill="#f48767"/>
        <path d="M156.07,508.24c13.53,0,24.26-15.39,24.26-34.52s-11-34.28-24.49-34.28-24.27,15.4-24.27,34.52S142.54,508.24,156.07,508.24Zm0-54.8c7.93,0,14.46,9.09,14.46,20.28s-6.53,20.52-14.46,20.52-14.46-9.09-14.46-20.28C141.61,462.53,147.9,453.44,156.07,453.44Z" fill="#f7a58d"/>
        <path d="M156.07,537.39c25,0,45-28.69,45-63.67s-20.3-63.66-45.26-63.66-45,28.69-45,63.66S131.34,537.62,156.07,537.39Zm-.23-115.67c20.53,0,37.09,23.32,37.09,52,0,28.92-16.33,52.24-36.86,52.24S119,502.64,119,474C119,445,135.54,421.72,155.84,421.72Z" fill="#f7a58d"/>
        <path d="M149.77,473.72c0-4.89,2.8-8.62,6.07-8.62s6.06,4,6.3,8.62c0,4.9-2.8,8.63-6.07,8.63C152.57,482.59,149.77,478.62,149.77,473.72Z" fill="#5b2929"/>
        <path d="M461.45,299.3a2,2,0,0,0,1.4,1.87c1.86.46,8.86.46,11-.24a2.24,2.24,0,0,0,1.87-2.1c.7-18.65.7-36.84,0-54.1a2.26,2.26,0,0,0-1.87-2.1c-2.33-.7-10.5-1.16-13.06-.23a2.24,2.24,0,0,0-1.64,2.1A400.24,400.24,0,0,0,461.45,299.3Z" fill="#f69276"/>
        <path d="M450,315.86a1.73,1.73,0,0,0,.93-.24l15.87-7.93a10.86,10.86,0,0,0,6.06-9.79l-.23-58.53a4.19,4.19,0,0,0-4.2-4.2H424.82a1.87,1.87,0,0,0,0,3.73h43.63a.23.23,0,0,1,.23.23l.23,58.54a7,7,0,0,1-4,6.29l-15.87,7.93a2,2,0,0,0-.93,2.57A1.87,1.87,0,0,0,450,315.86Z" fill="#f69276"/>
        <path d="M100.78,390.48h52.49c27.76,0,34.3,13.75,51.33,47.57l53.89-.24V427.09l205.76-.47c.93-17,2.8-51.54,2.8-84.18v-3.27a115.64,115.64,0,0,0-4.43-29.84c-11-40.11-38.73-82.79-50.16-98.41-3.73-5.13-7-9.56-9.8-13.53-7.93-10.49-13.3-15.85-23.33-15.85l-249.39.7a11.76,11.76,0,0,0-11.2,8.39C97.28,269.45,100.55,329.38,100.78,390.48ZM311,210a1.78,1.78,0,0,1,1.86-2.09l75.82-.24a14.52,14.52,0,0,1,11.67,6.3c29.63,40.34,41.52,77.19,45.95,98.41L451,334.74a4.58,4.58,0,0,1-4.67,5.83H427.86a12.66,12.66,0,0,1-8.64-3.73L381.43,300.7a22.61,22.61,0,0,0-15.16-6.3H321Z" fill="#f36f49"/>
        <path d="M271.78,310c1.64,7.46,3.5,15.15,5.13,23.31a12.44,12.44,0,0,0,11.67,9.8c73.72,2.56,134.84,2.8,178.47-.47v-3.26a115.68,115.68,0,0,0-4.44-29.85Z" fill="#f6977c"/>
        <path d="M135.54,208.12l75.82-.23a11.73,11.73,0,0,1,10.5,6.29c21.23,40.35,25.66,77.19,25.66,98.41V335a5.78,5.78,0,0,1-5.83,5.83H223.26a10.29,10.29,0,0,1-7.93-3.73L185,300.93a17.48,17.48,0,0,0-13.77-6.29H126l7.24-84.42A2.15,2.15,0,0,1,135.54,208.12Z" fill="#f36f49"/>
        <path d="M100.78,390.48h52.49c27.76,0,34.3,13.75,51.33,47.57l53.89-.24V427.09l205.76-.47c.93-17,2.8-51.54,2.8-84.18-43.63,3.26-105,3.26-178.47.46a12.4,12.4,0,0,1-11.66-9.79c-1.64-8.16-3.5-16.09-5.14-23.32a578.56,578.56,0,0,0-35.46-106.33,4,4,0,0,1,3.5-5.6l162.84-.47c-7.93-10.49-13.3-15.85-23.33-15.85l-249.39.7a11.76,11.76,0,0,0-11.2,8.39C97.28,269.45,100.55,329.38,100.78,390.48Zm25-95.85L133,210.22a2.29,2.29,0,0,1,2.33-2.1l75.82-.23a11.73,11.73,0,0,1,10.5,6.29c21.23,40.35,25.66,77.19,25.66,98.41V335a5.78,5.78,0,0,1-5.83,5.83H223a10.31,10.31,0,0,1-7.94-3.74l-30.32-36.14a17.52,17.52,0,0,0-13.77-6.3Z" fill="#f7a58d"/>
        <path d="M109.88,384.41a6.08,6.08,0,0,0,6.3,6.07h37.09c27.76,0,34.29,13.75,51.32,47.57l53.89-.24V427.09l-.23-94.45c0-46.87-8.4-76.48-30.56-123.35a20.14,20.14,0,0,0-18.2-11.43l-80.25.23a3.79,3.79,0,0,0-3.73,2.8C109.65,261.06,109.65,359,109.88,384.41Zm15.86-89.77L133,210.22a2.3,2.3,0,0,1,2.34-2.1l75.82-.23a11.7,11.7,0,0,1,10.49,6.29c21.23,40.35,25.67,77.19,25.67,98.41V335a5.78,5.78,0,0,1-5.84,5.83H223a10.33,10.33,0,0,1-7.93-3.73l-30.33-36.15A17.46,17.46,0,0,0,171,294.64Z" fill="#f58a6b"/>
        <path d="M136,210.92l75.35-.23a9.3,9.3,0,0,1,7.93,4.66c21.93,41.74,25.43,78.82,25.43,97v22.38a3.09,3.09,0,0,1-3,3H223.26a7.59,7.59,0,0,1-5.84-2.56L187.1,299.06A21.13,21.13,0,0,0,171,291.6H129Zm-.47-2.8a2.29,2.29,0,0,0-2.33,2.1L126,294.64h45.26A18.27,18.27,0,0,1,185,300.93l30.33,36.15a10.29,10.29,0,0,0,7.93,3.73h18.43a5.78,5.78,0,0,0,5.83-5.83V312.59c0-21.22-4.43-58.06-25.66-98.41a11.73,11.73,0,0,0-10.5-6.29Z" fill="#f7a58d"/>
        <path d="M258.25,382.55v44.54l81.42-.24a140.54,140.54,0,0,0-6.53-33.34,11.66,11.66,0,0,0-9.33-7.93C305.85,383.48,283,382.55,258.25,382.55ZM423,426.85h40.36c.7-9.79,1.4-25.65,2.1-43.6-9.8.46-18.9,1.39-27.06,2.56a11.66,11.66,0,0,0-9.34,7.93A148.86,148.86,0,0,0,423,426.85Z" fill="#f6977c"/>
        <path d="M258.49,471.86l188.73-.47a23.39,23.39,0,0,0,23.33-23.32v-4a6.52,6.52,0,0,0-6.53-6.53l-205.3.47Z" fill="#f6977c"/>
        <path d="M223.73,471.86h34.76V438.05H205.06l5.84,23.55A13.19,13.19,0,0,0,223.73,471.86Z" fill="#f7a58d"/>
        <path d="M140.67,348.5c7.94.24,23.33,1.87,23.33,7.46s-13.53,7.47-24.49,7.47-12.13-6.07-13.07-8.63C125.74,352.23,125,348.27,140.67,348.5Z" fill="#f6977c"/>
        <path d="M141.37,354.57c-3.73,0-7.7-1.17-9.56-3a14.66,14.66,0,0,1,6.76-1.4c6.07,0,15.87.7,21,3a10.35,10.35,0,0,1-5.6,1.4Z" fill="#f47b58"/>
        <path d="M157,359a3.8,3.8,0,0,1,2.34.47c-4.2,1.87-11.9,2.57-15.63,2.57-5.37,0-9.1,0-10.27-1.17a9.5,9.5,0,0,1,5.13-1.87C141.37,359.23,155.14,359,157,359Z" fill="#f47b58"/>
        <path d="M258.49,427.32v10.73l205.06-.47s.23-4,.7-10.73Z" fill="#f58a6b"/>
        <g opacity="0.2">
          <path d="M346.9,380.22v44.53l68.83-.23V380c0-5.36-4.9-9.56-11-9.56H357.64C351.8,370.65,346.9,375.08,346.9,380.22Z" fill="#f16036"/>
        </g>
        <path d="M438.82,423.12h14.47a7,7,0,0,0,7-7V408.9a7,7,0,0,0-7-7H438.82a7,7,0,0,0-7,7v7.23A7,7,0,0,0,438.82,423.12Z" fill="#fff"/>
        <path d="M301.88,423.59h14.46a7,7,0,0,0,7-7v-7.23a7,7,0,0,0-7-7H301.88a7,7,0,0,0-7,7v7.23A7,7,0,0,0,301.88,423.59Z" fill="#fff"/>
        <path d="M208.56,299.77a2,2,0,0,0,1.4,1.86,129.89,129.89,0,0,0,28.46-.23,2,2,0,0,0,1.87-2.1c.7-18.66.7-36.84,0-54.1a2.23,2.23,0,0,0-1.87-2.1,133.46,133.46,0,0,0-30.56,0,2.24,2.24,0,0,0-1.63,2.1A363.59,363.59,0,0,0,208.56,299.77Z" fill="#f7a58d"/>
        <path d="M244.72,316.32a1.74,1.74,0,0,0,1.63-1.16,2,2,0,0,0-.93-2.57l-15.87-7.69a7.3,7.3,0,0,1-4-6.3l-.23-58.53a.23.23,0,0,1,.23-.23h9.8a1.87,1.87,0,0,0,0-3.74h-9.8a4.19,4.19,0,0,0-4.2,4.2l.23,58.53a10.9,10.9,0,0,0,6.07,9.8l15.86,7.69Z" fill="#f69276"/>
        <path d="M351.72,474.62l66-.14-.05-19.82-66,.14Z" fill="#f8b4a0"/>
        <path d="M235.87,204.16c14.47,33.12,25.2,63.66,35.46,106.34L462.17,310c-11-40.11-38.73-82.78-50.16-98.41-3.73-5.13-7-9.56-9.8-13.52l-162.84.47A4,4,0,0,0,235.87,204.16Z" opacity="0.6" fill="url(#f)" style="isolation: isolate"/>
      </g>
      <g>
        <path d="M959.7,657.26H772.87V801.4H959.7Z" fill="#8c5e5e"/>
        <path d="M960,657.26H892V801.4h68Z" fill="#694646"/>
        <path d="M936.72,657.26H919.19V677.2h17.53Z" fill="#a3774a"/>
        <path d="M836.35,657.26H818.82V677.2h17.53Z" fill="#a3774a"/>
        <path d="M837.18,657.26H650.35V801.4H837.18Z" fill="#f7a58d"/>
        <path d="M837.48,657.26h-68V801.4h68Z" fill="#f58a6b"/>
        <path d="M814.2,657.26H796.67V677.2H814.2Z" fill="#fff"/>
        <path d="M713.83,657.26H696.29V677.2h17.54Z" fill="#fff"/>
        <path d="M884.82,517.34H698V661.48H884.82Z" fill="#f7a58d"/>
        <path d="M885.13,517.34h-68V661.48h68Z" fill="#f58a6b"/>
        <path d="M861.85,517.34H844.31v19.94h17.54Z" fill="#fff"/>
        <path d="M761.48,517.34H743.94v19.94h17.54Z" fill="#fff"/>
      </g>
    </g>
  </g>
  <g>
    <path d="M583.37,77.75h30.16l4.09-18.21s-11.94,6.91-14.77,2.2-2.2-2.83-5-2.2-2.83-3.14-6.28-.95C587.77,61.11,582.11,73,583.37,77.75Z" fill="#6b1912"/>
    <path d="M517,314.32l29.85-45.09,43.05,12.49c-1.67,13.32-29.39,53.18-43.05,71.45Z" fill="url(#g)"/>
    <path d="M521.21,298c14.65-66.62,43.47-112.27,43.47-112.27C580.9,189.3,586.84,246,586.84,246c-3.44,19.79-13.87,71.22-22.16,90.2Z" fill="url(#h)"/>
    <path d="M564.51,185s1.58,36.12,6.29,209.8c0,0,42.73,21.67,127.88,6.6,0,0,.31-52.14,11.94-98.31,0,0,21.68-87,10.68-112.43C721.3,190.66,651.86,147.63,564.51,185Z" fill="url(#i)"/>
    <path d="M630.5,150.58l-.63,22.49s5.34,7.85,18.22,8.79c12.88.63,19.17-6.59,19.17-6.59l1.26-33.48C652.49,148.7,636.78,151.52,630.5,150.58Z" fill="url(#j)"/>
    <path d="M631.75,141.35l-1.25,24.81c6.28.94,22-1.89,37.7-8.8l.94-16Z" fill="url(#k)"/>
    <path d="M716.9,239.65s-18.53,41.77-25.13,60.62c-6.6,18.53-6.6,92.33-41.16,106.46,0,0,36.76-2.19,48.38-5.33,0,0,.63-55.59,11.94-98.31,0,0,7.86-44.91,11-65.32Z" fill="#ee4d47" fill-opacity="0.29"/>
    <path d="M692.39,86.7c-.62.31-1.25,10.36-1.25,10.36l-2.52,21L677,127.21,670.4,130s-9.74-4.08-8.48-7.85c1.25-3.46,7.54-53.08,8.79-53.08S682,76.33,682,76.33Z" fill="#402b2b"/>
    <path d="M600.33,67.85c-2.83,0,1.57,34.55,1.57,34.55l5-13.82,3.46-16.64Z" fill="#402b2b"/>
    <path d="M605.05,74.76l-5.34,44.29s-1.89,37.37,28.9,39.57c30.8,1.88,51.85-28.58,51.85-28.58s3.77,4.4,7.85-3.14c3.77-7.54,1.26-17.59-4.08-18.53-5.66-.63-8.17,2.51-8.8,7.22s-1.26,8.17-1.26,8.17l-4.71-.63,3.46-36.43s-7.23-14.13-15.4-17-15.4,8.48-15.4,8.48a40.41,40.41,0,0,1-14.76,0,82,82,0,0,1-11.94-3.46A23.49,23.49,0,0,1,605.05,74.76Z" fill="url(#l)"/>
    <path d="M627.36,141.66c10.36.63,11.94-11.31,11.94-11.31s-23.88-2.82-24.51-3.14C614.79,127.21,612.9,140.72,627.36,141.66Z" fill="#893d43"/>
    <path d="M638.35,134.12a20.67,20.67,0,0,0,1.26-3.77s-23.88-2.82-24.51-3.14a14.24,14.24,0,0,0,0,4.09Z" fill="#fffeff"/>
    <path d="M637.41,63.46v-32c19.16.94,39,4.71,48.7,16.65,11.63,14.13,5,46.79,5,46.79S677,93.29,674.48,88.58s-26.39-11.3-44.61-10.36-27-.94-36.14-8.8A19.44,19.44,0,0,1,589,63.14h48.39Z" fill="#402b2b"/>
    <path d="M693.34,82.93s-13.51-4.4-36.13-6.28c-38-16-54.36-13.19-54.36-13.19s.31-12.25,3.77-20.73,26.71-20.42,46.19-18.53,39.59,16.33,42.73,30.15C698.05,65,693.34,82.93,693.34,82.93Z" fill="url(#m)"/>
    <path d="M670.4,78.22c-4.08-19.47-33.3-29.21-54-28.9-20.42.32-34.88,17.28-37.08,28.9-.94,4.71,2.83,5.34,4.09,1.25.94-2.82,2.83-16.33,21.68-14.76S623,83.24,632.38,84.81C641.18,86.38,651.24,80.1,670.4,78.22Z" fill="url(#n)"/>
    <path d="M607.25,82.62v-2.2a58.41,58.41,0,0,1,17,.94l-.31,3.45C616.67,82.62,607.25,82.62,607.25,82.62Z" fill="#402b2b"/>
    <path d="M660.35,90.47c-5.66-3.14-16.34-4.71-16.34-5l1.25-3.14c.32,0,10.06,1.89,16.34,6Z" fill="#402b2b"/>
    <path d="M628.93,101.15s-.94,6.59-3.46,8.48-6.91,3.45-7.54,5c-.63,1.26.63,3.77,3.46,4.71s3.14,1.89,3.14,1.89-5.66.62-8.48-2.83.31-6.28,3.14-7.85a49.6,49.6,0,0,0,5.34-3.14C626.1,106.48,628.93,101.15,628.93,101.15Z" fill="#d87c60"/>
    <path d="M642.44,104.6c0,3.14,2.2,6,5,6s5-2.52,5-6c0-3.14-2.2-6-5-6S642.44,101.15,642.44,104.6Z" fill="#402b2b"/>
    <path d="M607.88,100.52c0,3.14,2.2,6,5,6s5-2.51,5-6c0-3.14-2.2-6-5-6A5.84,5.84,0,0,0,607.88,100.52Z" fill="#402b2b"/>
    <path d="M455.53,238.48a5,5,0,0,1,8.84-4.73l16.57,30.89-8.84,4.73Z" fill="#fff"/>
    <path d="M458.73,244.29l8.76-4.69,18.94,35.31-8.76,4.69Z" fill="#822626"/>
    <path d="M587.16,334.08c-3.88-7.77-3-13.87-2.08-16,3.94,2.32,12.08,8.19,13.19,13.18s-1.39,11.33-2.78,13.88C594.34,344.72,591.05,341.85,587.16,334.08Z" fill="url(#o)"/>
    <path d="M420.37,279.89a8.6,8.6,0,0,1,8.26-11H534.25a8.62,8.62,0,0,1,8.27,6.17l39.33,133.39a8.6,8.6,0,0,1-8.26,11H468a8.62,8.62,0,0,1-8.27-6.17Z" fill="#fff"/>
    <path d="M418.22,273.09a8.61,8.61,0,0,1,8.33-10.81H532.31a8.61,8.61,0,0,1,8.33,6.41l39.85,150.6a8.61,8.61,0,0,1-8.33,10.81H466.4a8.61,8.61,0,0,1-8.33-6.41Z" fill="url(#p)"/>
    <path d="M700.25,331c22.94-33.29,26.08-134.1,26.08-134.1-21.1,2.74-31.18,23.61-37.66,37-3.16,6.56-5.47,11.33-7.78,11.33L671.17,307,574,324.37l-.24.33c-4.78.12-21.4,1.06-32.25,8,0,0-5.62,4.21-2.39,7.16,1.54,1.68,1,3.51.56,5.34s-1,3.65.56,5.33a7.23,7.23,0,0,1,1.71,4.35c.27,2,.54,3.92,3.63,5.63,0,0-.57,4.49,3.51,6.32l.58.26c4.31,1.94,12.7,5.72,14.31,4.24.61-.55,2.12-1.65,3.81-2.88,3-2.19,6.64-4.82,6.73-5.54.15-1.12-.14-3.09-3.79-3.37a21.4,21.4,0,0,0,7.17-3.23c3.79-2.24,7.87-8.14,7.87-8.14l3.7-8.44C679.49,347.37,700.25,331,700.25,331Z" fill-rule="evenodd" fill="url(#q)"/>
    <path d="M673.86,243.1l-8.8,46.17-2.22,11.62-77.76,17.23c3.7,3.24,11,13.05,10.41,26.36,24.07,3.47,78.18,7.08,102.07-6.24,4.35-3.39,14.13-15.61,18.4-37.35,28-96.1,5.34-110.23,5.34-110.23C689.88,194.74,673.86,243.1,673.86,243.1Z" fill="url(#r)"/>
  </g>
  <g>
    <path d="M400.83,553a111.74,111.74,0,0,0-11.25-30.07c-.7-1.27-1.51-2.67-2.32-3.94a116,116,0,0,0-21.69-26.35,42.5,42.5,0,0,0-3.37-2.9,112.26,112.26,0,0,0-30.5-18.1c-1.39-.59-2.78-1.05-4.18-1.51a113.16,113.16,0,0,0-35.6-6.39h-4.41a112.66,112.66,0,0,0-35.61,6.39c-1.39.46-2.78,1-4.17,1.51a112.32,112.32,0,0,0-30.51,18.1c-1.16.93-2.32,2-3.36,2.9A112.67,112.67,0,0,0,192.17,519c-.81,1.27-1.51,2.67-2.32,3.94A111.74,111.74,0,0,0,178.6,553c-.35,1.5-.58,3-.93,4.52a112.79,112.79,0,0,0-1.74,19.85H403.38a111.79,111.79,0,0,0-1.74-19.85C401.41,556,401.17,554.46,400.83,553Z" fill="#fcddd4"/>
    <path d="M541.41,610.75a137.93,137.93,0,0,0-14.07-37.35c-.87-1.59-1.88-3.32-2.9-4.91a143.94,143.94,0,0,0-27.11-32.73,48.26,48.26,0,0,0-4.2-3.6A140.33,140.33,0,0,0,455,509.66c-1.74-.72-3.48-1.3-5.22-1.87a142,142,0,0,0-44.51-7.93h-5.51a141.26,141.26,0,0,0-44.51,7.93c-1.74.57-3.48,1.3-5.22,1.87a140.33,140.33,0,0,0-38.13,22.5c-1.45,1.15-2.9,2.45-4.2,3.6a140.38,140.38,0,0,0-27.11,32.73c-1,1.59-1.89,3.32-2.9,4.91a137.93,137.93,0,0,0-14.07,37.35c-.43,1.87-.72,3.74-1.16,5.62A139.17,139.17,0,0,0,260.29,641H544.6a138,138,0,0,0-2.18-24.66C542.13,614.49,541.84,612.62,541.41,610.75Z" fill="#fff"/>
  </g>
  <g>
    <g>
      <path d="M576.34,582.54c-18.9,0-26-16.53-26-39.55s-6.5-41.92-31.9-43.1c-33.07-1.18-30.12,30.7-30.12,69.66,0,49.6-17.72,17.72-42.53,45.46C424.54,638.63,451.71,680.55,460,693H566.89c3.54-6.5,12.4-22.44,22.44-41.92C611.78,609.7,595.24,582.54,576.34,582.54Z" fill="#f37753"/>
      <path d="M525.54,590.22h-5.31v74L497.9,634.5l-4.26,3.19,26.59,35.42V693h5.31V637l22.53-27.92-4.14-3.34-18.39,22.8Z" fill="#fff" fill-rule="evenodd" opacity="0.2" style="isolation: isolate"/>
    </g>
    <rect x="437.85" y="692.67" width="155.08" height="86.08" fill="#fcddd4"/>
  </g>
</svg>
