<svg xmlns="http://www.w3.org/2000/svg" xmlns:xlink="http://www.w3.org/1999/xlink" viewBox="0 0 709.52 454.58"><defs><mask id="A" x="0" y="37.86" width="709.52" height="416.72" maskUnits="userSpaceOnUse"><path d="M483.2 407.3c57.95 31.7 186.17-17.57 186.17-139.13 0-196.74-181.47-230.32-287.85-230.32-190.77 0-260.83 213-34.42 230.32 201.8 15.46 12.4 71.5 136.1 139.13z" fill="#f6a182"/></mask><linearGradient id="B" x1="432.41" y1="195.62" x2="432.41" y2="385.32" xlink:href="#S"><stop offset="0" stop-color="#f37753"/><stop offset="1" stop-color="#fff" stop-opacity="0"/></linearGradient><linearGradient id="C" x1="487.53" y1="428.68" x2="487.53" y2="455.26" xlink:href="#S"><stop offset="0" stop-color="#f4a984"/><stop offset="1" stop-color="#ee4d47"/></linearGradient><linearGradient id="D" x1="577.62" y1="419.11" x2="577.62" y2="455.39" xlink:href="#C"/><linearGradient id="E" x1="547.54" y1="141.08" x2="547.54" y2="436.14" xlink:href="#S"><stop offset="0" stop-color="#822626"/><stop offset=".94" stop-color="#402b2b"/></linearGradient><linearGradient id="F" x1="342.87" y1="80.58" x2="393.98" y2="203.05" xlink:href="#S"><stop offset="0" stop-color="#f7a58d"/><stop offset=".93" stop-color="#fff"/></linearGradient><linearGradient id="G" x1="480.52" y1="136.61" x2="480.52" y2="182.62" xlink:href="#S"><stop offset="0" stop-color="#ffb3b6"/><stop offset="1" stop-color="#ffc8c1"/></linearGradient><linearGradient id="H" x1="468.78" y1="180.33" x2="495.06" y2="98.4" xlink:href="#C"/><linearGradient id="I" x1="531.77" y1="30.91" x2="531.77" y2="208.68" xlink:href="#C"/><linearGradient id="J" x1="538.91" y1="75.82" x2="521.05" y2="83.52" xlink:href="#G"/><linearGradient id="K" x1="539.67" y1="67.8" x2="521.7" y2="75.41" xlink:href="#S"><stop offset="0" stop-color="#ffb3b6" stop-opacity=".3"/><stop offset="1" stop-color="#ffc8c1"/></linearGradient><linearGradient id="L" x1="529.94" y1="71.85" x2="533.73" y2="38.01" xlink:href="#G"/><linearGradient id="M" x1="534.64" y1="-17.63" x2="534.64" y2="33.24" xlink:href="#C"/><linearGradient id="N" x1="520.68" y1="9.06" x2="520.68" y2="61.95" xlink:href="#C"/><linearGradient id="O" x1="507.14" y1="169.05" x2="488.93" y2="176.27" xlink:href="#C"/><linearGradient id="P" x1="495.28" y1="170.84" x2="322.08" y2="203.93" xlink:href="#S"><stop offset="0" stop-color="#f58a6b"/><stop offset="1" stop-color="#f7a58d"/></linearGradient><linearGradient id="Q" x1="557.98" y1="137.97" x2="466.46" y2="168.48" xlink:href="#G"/><linearGradient id="R" x1="530.39" y1="129.46" x2="583.8" y2="165.5" xlink:href="#C"/><linearGradient id="S" gradientUnits="userSpaceOnUse"/></defs><path d="M483.24 407.3c58 31.67 186.17-17.57 186.17-139.13 0-196.74-181.47-230.32-287.85-230.32-190.77 0-260.83 213-34.42 230.32 201.86 15.46 12.4 71.5 136.1 139.13z" fill="#fcddd4"/><g mask="url(#A)"><path d="M216.35 285.12c20.54-26.36 74.93-77.77 128.2-72.5 66.6 6.6-59.94 130.15 0 130.15S432.8 191.2 476.1 191.2s-48.28 112 0 118.62S564.34 151.67 617.62 150s-55 135.1 31.63 135.1" fill="none" stroke-width="2" opacity=".7" stroke="url(#B)"/><path d="M514.88 446.9L494 445.14l1.06-25.55 21.07 1.93z" fill="#d88d6c"/><path d="M475.94 443.4s13.8-6.3 16.1-10.85c0 0 4.07-14.7 10.26-7 0 0 6.37 5.07 15.4 1l1.06 27.82-62.48-.18c1.6-4.18 3-8.87 19.65-10.8z" fill="url(#C)"/><path d="M606.38 443.4l-20.88 3.5L580 422l20.7-3.5z" fill="#d88d6c"/><path d="M566.2 443.4s13.8-6.3 16.1-10.85c0 0-3.18-11.55 4.25-5.77 0 0 12.74 4.72 18.05-1l4.25 28.86-62.48-.17c1.95-4.46 3.37-9.15 19.83-11.07z" fill="url(#D)"/><path d="M490.45 206.13s-3.72 105.16-.35 224.66c0 0 10.1 9.45 29.2 3.15 0 0-.18-133 5-185.8 0 0 24.07 100.43 54.5 187.38 0 0 20.36 3.85 27.6-7.52 0 0-41.06-140.85-47.08-221.86z" fill="url(#E)"/><g fill="#402b2b"><path d="M490.45 206.13h68.85c.53 6.13 1.06 12.6 2 19.25-41.06.18-62.83-10.15-71-14.87a38.8 38.8 0 0 1 .15-4.38z" fill-opacity=".45"/><path d="M124.58 250.8c0 19.6 11.43 35.46 25.5 35.46h25.5c14.06 0 25.36-16 25.36-35.46s-11.43-35.47-25.5-35.47h-25.36c-14.2 0-25.5 15.98-25.5 35.47z"/></g><path d="M324.33 250.4c0 19.6 11.43 35.46 25.5 35.46h25.5c14.06 0 25.36-16 25.36-35.46s-11.43-35.47-25.5-35.47h-25.36c-14.2 0-25.5 15.85-25.5 35.47z" fill="#f48767"/><path d="M122.87 247.42l102.64-.26-11.83-6.9-77.68.13z" fill="#402b2b"/><path d="M26 189.6l.13 65.08 83.32-.13L136 240.4l77.67-.13 23.92 14 169.52-.4a5 5 0 0 0 5-4.93l-.1-60.1z" fill="#f36f49"/><path d="M207.64 204.42l133-.26L340.37 85a8.79 8.79 0 0 0-8.94-8.7l-124.2.26z" fill="#f48767"/><path d="M.26 204.94l207.24-.4-.26-127.83-198.44.4A8.78 8.78 0 0 0 0 85.94z" fill="#f06a5b"/><g fill="#f48767"><path d="M307.5 250.4c0 19.6-11.3 35.46-25.36 35.46h-25.37v-11.95c-9.33 0-16.95-10.52-16.95-23.5s7.5-23.52 16.82-23.52v-11.95H282c14.08.13 25.38 15.98 25.5 35.47z"/><path d="M235.76 250.67c0 16.1 9.33 29.1 20.9 29s20.77-13 20.77-29.1-9.33-29.1-20.9-29-20.76 13-20.76 29.1z"/></g><g fill="#f7a58d"><path d="M256.65 269.76c7.62 0 13.67-8.57 13.67-19.22s-6.18-19.1-13.8-19.1-13.67 8.57-13.67 19.23 6.15 19.1 13.8 19.1zm0-30.53c4.47 0 8.15 5.07 8.15 11.3S261.12 262 256.65 262s-8.15-5.07-8.15-11.3 3.55-11.47 8.15-11.47zm0 46.77c14.06 0 25.37-16 25.37-35.46s-11.44-35.47-25.5-35.47-25.36 16-25.36 35.47 11.56 35.6 25.5 35.46zm-.13-64.43c11.57 0 20.9 13 20.9 29s-9.2 29.1-20.77 29.1-20.9-13-20.9-29 9.33-29.1 20.76-29.1z"/></g><path d="M253.1 250.54c0-2.73 1.58-4.8 3.42-4.8s3.42 2.2 3.55 4.8-1.58 4.8-3.42 4.8-3.55-2.08-3.55-4.8z" fill="#5b2929"/><g fill="#f69276"><path d="M428.68 153.37a1.13 1.13 0 0 0 .78 1 20.41 20.41 0 0 0 6.18-.13 1.25 1.25 0 0 0 1.05-1.17c.4-10.4.4-20.53 0-30.14a1.25 1.25 0 0 0-1.05-1.17c-1.3-.4-5.9-.65-7.36-.13a1.26 1.26 0 0 0-.92 1.17 219.38 219.38 0 0 0 1.32 30.57z"/><path d="M422.24 162.6a1 1 0 0 0 .52-.13l8.94-4.46a6.06 6.06 0 0 0 3.42-5.45L435 120a2.34 2.34 0 0 0-2.36-2.34H408a1 1 0 1 0 0 2.08h24.58a.13.13 0 0 1 .13.13l.13 32.6a3.9 3.9 0 0 1-2.23 3.5l-8.94 4.42a1.08 1.08 0 0 0-.52 1.43 1 1 0 0 0 1.09.76z"/></g><path d="M225.5 204.16h29.57c15.64 0 19.32 7.66 28.9 26.5l30.36-.13v-6l115.9-.26c.53-9.5 1.58-28.7 1.58-46.9v-1.82a63.68 63.68 0 0 0-2.5-16.63c-6.17-22.34-21.8-46.12-28.25-54.82l-5.52-7.53c-4.47-5.85-7.5-8.84-13.14-8.84l-140.48.4a6.61 6.61 0 0 0-6.31 4.68c-12.1 43.94-10.25 77.32-10.12 111.36zM343.9 103.6a1 1 0 0 1 1.06-1.17l42.7-.13a8.22 8.22 0 0 1 6.57 3.51c16.7 22.47 23.4 43 25.9 54.82l2.62 12.47a2.56 2.56 0 0 1-2.62 3.25h-10.4a7.14 7.14 0 0 1-4.86-2.08l-21.3-20.14a12.85 12.85 0 0 0-8.54-3.5h-25.5z" fill="#f36f49"/><path d="M321.83 159.34l2.9 13a7 7 0 0 0 6.57 5.46c41.52 1.43 75.95 1.56 100.53-.26v-1.82a63.68 63.68 0 0 0-2.5-16.63z" fill="#f6977c"/><path d="M245.1 102.57l42.7-.13a6.61 6.61 0 0 1 5.91 3.51c12 22.47 14.46 43 14.46 54.82v12.47a3.24 3.24 0 0 1-3.29 3.25H294.5a5.83 5.83 0 0 1-4.47-2.08L273 154.28a9.89 9.89 0 0 0-7.76-3.51H239.7l4.07-47a1.21 1.21 0 0 1 1.32-1.2z" fill="#f36f49"/><path d="M225.5 204.16h29.57c15.64 0 19.32 7.66 28.9 26.5l30.36-.13v-6l115.9-.26c.53-9.5 1.58-28.7 1.58-46.9-24.57 1.82-59.14 1.82-100.53.26a7 7 0 0 1-6.57-5.46c-.92-4.54-2-9-2.9-13a320.12 320.12 0 0 0-20-59.24 2.2 2.2 0 0 1 2-3.11l91.73-.26c-4.47-5.85-7.5-8.84-13.14-8.84l-140.48.4a6.61 6.61 0 0 0-6.31 4.68c-12.1 43.95-10.26 77.33-10.13 111.37zm14.06-53.4l4.07-47a1.29 1.29 0 0 1 1.32-1.17l42.7-.13a6.61 6.61 0 0 1 5.91 3.51c12 22.47 14.46 43 14.46 54.82v12.47a3.24 3.24 0 0 1-3.29 3.25h-10.38a5.83 5.83 0 0 1-4.47-2.08l-17.08-20.14a9.92 9.92 0 0 0-7.76-3.5z" fill="#f7a58d"/><path d="M230.63 200.78a3.41 3.41 0 0 0 3.55 3.38h20.9c15.63 0 19.3 7.66 28.9 26.5l30.35-.13v-6l-.13-52.62c0-26.1-4.73-42.6-17.2-68.72a11.35 11.35 0 0 0-10.25-6.36l-45.2.17a2.13 2.13 0 0 0-2.1 1.55c-8.94 33.5-8.94 88.07-8.8 102.23zm8.94-50l4.07-47a1.29 1.29 0 0 1 1.32-1.17l42.7-.13a6.61 6.61 0 0 1 5.91 3.51c12 22.47 14.46 43 14.46 54.82v12.47a3.24 3.24 0 0 1-3.29 3.25h-10.38a5.83 5.83 0 0 1-4.47-2.08l-17.08-20.13a9.89 9.89 0 0 0-7.76-3.51z" fill="#f58a6b"/><path d="M245.35 104.13l42.45-.13a5.26 5.26 0 0 1 4.47 2.6c12.35 23.25 14.32 43.9 14.32 54v12.47a1.73 1.73 0 0 1-1.71 1.69H294.5a4.27 4.27 0 0 1-3.28-1.43l-17.1-20.13a11.94 11.94 0 0 0-9.07-4.16H241.4zm-.26-1.56a1.29 1.29 0 0 0-1.32 1.17l-4.07 47h25.5a10.33 10.33 0 0 1 7.76 3.51L290 174.4a5.83 5.83 0 0 0 4.47 2.08h10.38a3.24 3.24 0 0 0 3.29-3.25v-12.47c0-11.82-2.5-32.35-14.46-54.82a6.61 6.61 0 0 0-5.91-3.51z" fill="#f7a58d"/><g fill="#f6977c"><path d="M314.2 199.74v24.82l45.87-.13a77.89 77.89 0 0 0-3.68-18.58 6.55 6.55 0 0 0-5.26-4.42 337.51 337.51 0 0 0-36.93-1.69zm92.8 24.7h22.74c.4-5.46.8-14.3 1.18-24.3a164.47 164.47 0 0 0-15.24 1.43 6.55 6.55 0 0 0-5.26 4.42 82.19 82.19 0 0 0-3.42 18.45zm-92.65 25.06l106.3-.26a13.11 13.11 0 0 0 13.14-13V234a3.65 3.65 0 0 0-3.68-3.64l-115.64.26z"/></g><path d="M294.76 249.5h19.6v-18.84h-30.1l3.3 13.12a7.41 7.41 0 0 0 7.22 5.72z" fill="#f7a58d"/><path d="M248 180.78c4.47.13 13.14 1 13.14 4.15s-7.62 4.16-13.8 4.16-6.83-3.38-7.36-4.8-.8-3.63 8.02-3.5z" fill="#f6977c"/><g fill="#f47b58"><path d="M248.37 184.15c-2.1 0-4.33-.65-5.38-1.68a8.31 8.31 0 0 1 3.81-.78c3.4 0 8.93.4 11.83 1.68a5.87 5.87 0 0 1-3.16.78zm8.8 2.47a2.1 2.1 0 0 1 1.31.26c-2.36 1-6.7 1.43-8.8 1.43-3 0-5.13 0-5.78-.65a5.33 5.33 0 0 1 2.89-1c1.57.1 9.33-.04 10.38-.04z"/></g><path d="M314.35 224.68v6l115.5-.26.4-6z" fill="#f58a6b"/><g opacity=".2"><path d="M364.15 198.44v24.82l38.77-.13V198.3c0-3-2.76-5.32-6.18-5.32H370.2c-3.3.13-6.05 2.6-6.05 5.45z" fill="#f16036"/></g><g fill="#fff"><path d="M415.93 222.35h8.15a3.93 3.93 0 0 0 3.94-3.9v-4a3.92 3.92 0 0 0-3.94-3.89h-8.15a3.92 3.92 0 0 0-3.94 3.89v4a3.93 3.93 0 0 0 3.94 3.9zm-77.13.25h8.14a3.93 3.93 0 0 0 3.95-3.9v-4a3.93 3.93 0 0 0-3.95-3.89h-8.14a3.93 3.93 0 0 0-4 3.89v4a3.94 3.94 0 0 0 4 3.9z"/></g><path d="M286.22 153.63a1.14 1.14 0 0 0 .79 1 74.89 74.89 0 0 0 16-.13 1.14 1.14 0 0 0 1-1.17c.4-10.4.4-20.53 0-30.14a1.25 1.25 0 0 0-1-1.17 76.18 76.18 0 0 0-17.21 0 1.25 1.25 0 0 0-.92 1.17 200 200 0 0 0 1.34 30.44z" fill="#f7a58d"/><path d="M306.6 162.85a1 1 0 0 0 .92-.65 1.09 1.09 0 0 0-.53-1.43l-8.93-4.3a4 4 0 0 1-2.24-3.5l-.13-32.6a.13.13 0 0 1 .13-.13h5.52a1 1 0 1 0 0-2.08h-5.52a2.34 2.34 0 0 0-2.36 2.34l.13 32.6a6 6 0 0 0 3.42 5.45l8.93 4.3z" fill="#f69276"/><path d="M366.86 251l37.2-.08v-11.05l-37.2.08z" fill="#f8b4a0"/><path d="M301.6 100.37a329.68 329.68 0 0 1 20 59.23l107.5-.26c-6.18-22.34-21.8-46.1-28.25-54.82L395.34 97l-91.73.26a2.24 2.24 0 0 0-2 3.12z" opacity=".6" fill="url(#F)"/><path d="M709.35,352.78H604.1v80.3H709.35Z" fill="#8c5e5e"/><path d="M709.52,352.78H671.2v80.3h38.32Z" fill="#694646"/><g fill="#a3774a"><path d="M696.4 352.78h-9.87v11.1h9.87zm-56.54 0H630v11.1h9.87z"/></g><path d="M640.33,352.78H535.08v80.3H640.33Z" fill="#f7a58d"/><path d="M640.5,352.78H602.18v80.3H640.5Z" fill="#f58a6b"/><g fill="#fff"><path d="M627.38 352.78h-9.87v11.1h9.87zm-56.54 0H561v11.1h9.87z"/></g><path d="M667.17,274.83H561.92v80.3H667.17Z" fill="#f7a58d"/><path d="M667.34,274.83H629v80.3h38.32Z" fill="#f58a6b"/><g fill="#fff"><path d="M654.23 274.83h-9.88v11.1h9.88zm-56.55 0h-9.87v11.1h9.87z"/></g></g><path d="M460 161.74l16.82-25.12 24.25 6.95c-.94 7.42-16.56 29.63-24.25 39.8z" fill="url(#G)"/><path d="M462.34 152.65c8.25-37.1 24.5-62.55 24.5-62.55 9.13 2 12.48 33.55 12.48 33.55-1.94 11-7.82 39.68-12.48 50.25z" fill="url(#H)"/><path d="M486.73 89.7l3.54 116.88s24.08 12.07 72 3.67c0 0 .18-29 6.73-54.76 0 0 12.2-48.47 6-62.64.05 0-39.06-23.97-88.27-3.15z" fill="url(#I)"/><path d="M523.9 70.52L523.55 83s3 4.38 10.27 4.9c7.25.35 10.8-3.67 10.8-3.67l.7-18.65c-9.03 3.9-17.88 5.42-21.42 4.94z" fill="url(#J)"/><path d="M524.6 65.37l-.7 13.82c3.54.53 12.4-1 21.24-4.9l.53-8.93z" fill="url(#K)"/><path d="M572.58 120.14s-10.45 23.27-14.16 33.77c-3.72 10.32-3.72 51.43-23.2 59.3 0 0 20.7-1.23 27.26-3 0 0 .35-31 6.72-54.76l6.2-36.4z" fill="#ee4d47" fill-opacity=".3"/><path d="M558.77 34.93c-.35.17-.7 5.77-.7 5.77l-1.4 11.73-6.55 5.07-3.72 1.57s-5.5-2.27-4.78-4.37c.7-1.92 4.25-29.57 5-29.57s6.37 4 6.37 4zm-51.87-10.5c-1.6 0 .9 19.25.9 19.25l2.83-7.7 1.94-9.27z" fill="#402b2b"/><path d="M509.57 28.28l-3 24.67s-1.06 20.82 16.28 22c17.35 1 29.2-15.93 29.2-15.93s2.12 2.45 4.42-1.75c2.12-4.2.7-9.8-2.3-10.32-3.2-.35-4.6 1.4-5 4l-.7 4.54-2.66-.35 1.95-20.3s-4.07-7.87-8.67-9.45-8.68 4.72-8.68 4.72a22.91 22.91 0 0 1-8.32 0 46.42 46.42 0 0 1-6.72-1.92 13.41 13.41 0 0 1-5.81.08z" fill="url(#L)"/><path d="M522.13 65.55c5.84.35 6.73-6.3 6.73-6.3l-13.8-1.75s-1.05 7.5 7.08 8.05z" fill="#893d43"/><path d="M528.33 61.35a12.09 12.09 0 0 0 .71-2.1l-13.8-1.75a7.55 7.55 0 0 0 0 2.27z" fill="#fffeff"/><path d="M497.35 30h17l2.3-10.15s-6.73 3.85-8.32 1.22-1.24-1.57-2.83-1.22-1.6-1.75-3.54-.53c-2.13 1.35-5.3 8-4.6 10.68z" fill="#6b1912"/><path d="M527.8 22V4.13c10.8.53 21.94 2.63 27.43 9.28 6.55 7.87 2.83 26.07 2.83 26.07s-8-.88-9.38-3.5-14.87-6.3-25.13-5.78-15.22-.52-20.36-4.9a10.93 10.93 0 0 1-2.65-3.5h27.26z" fill="#402b2b"/><path d="M559.3 32.83s-7.6-2.45-20.35-3.5C517.53 20.4 508.33 22 508.33 22s.17-6.82 2.12-11.55S525.5-.94 536.47.1s22.3 9.1 24.07 16.8c1.46 5.95-1.24 15.92-1.24 15.92z" fill="url(#M)"/><path d="M546.38 30.2c-2.3-10.84-18.76-16.27-30.44-16.1-11.5.17-19.65 9.62-20.9 16.1-.53 2.63 1.6 3 2.3.7.54-1.57 1.6-9.1 12.22-8.22S519.66 33 525 33.88c4.92.87 10.6-2.63 21.38-3.68z" fill="url(#N)"/><path d="M510.8 32.65v-1.22a33.29 33.29 0 0 1 9.55.52l-.17 1.93a38.59 38.59 0 0 0-9.38-1.23zM540.72 37c-3.2-1.75-9.2-2.63-9.2-2.8l.7-1.75a29.37 29.37 0 0 1 9.2 3.32z" fill="#402b2b"/><path d="M523 43s-.53 3.67-1.95 4.72-3.9 1.93-4.25 2.8c-.35.7.36 2.1 1.95 2.62s1.77 1.05 1.77 1.05-3.18.35-4.78-1.57.18-3.5 1.77-4.37a29.58 29.58 0 0 0 3-1.75c.92-.5 2.5-3.5 2.5-3.5z" fill="#d87c60"/><path d="M530.63 44.9a3.15 3.15 0 0 0 2.83 3.33c1.6 0 2.83-1.4 2.83-3.33a3.14 3.14 0 0 0-2.83-3.32 3 3 0 0 0-2.83 3.32zm-19.47-2.27A3.14 3.14 0 0 0 514 46a3 3 0 0 0 2.83-3.32A3.15 3.15 0 0 0 514 39.3a3.27 3.27 0 0 0-2.84 3.33z" fill="#402b2b"/><path d="M425.34 119.48a2.77 2.77 0 0 1 1.16-3.77 2.84 2.84 0 0 1 3.82 1.14l9.33 17.2-5 2.63z" fill="#fff"/><path d="M427.14 122.72l4.94-2.6 10.67 19.67-4.94 2.6z" fill="#822626"/><path d="M499.5 172.74c-2.2-4.33-1.7-7.73-1.17-8.9 2.22 1.3 6.8 4.56 7.43 7.35s-.78 6.3-1.56 7.72c-.66-.25-2.5-1.85-4.7-6.18z" fill="url(#O)"/><path d="M405.54 142.55a4.8 4.8 0 0 1 4.65-6.15h59.5a4.83 4.83 0 0 1 4.65 3.44l22.16 74.3a4.8 4.8 0 0 1-4.65 6.15h-59.5a4.85 4.85 0 0 1-4.66-3.44z" fill="#fff"/><path d="M404.32,138.76a4.81,4.81,0,0,1,4.7-6h59.57a4.85,4.85,0,0,1,4.69,3.57l22.45,83.9a4.8,4.8,0,0,1-4.69,6H431.47a4.85,4.85,0,0,1-4.7-3.57Z" fill="url(#P)"/><path d="M563.2 171.05c12.92-18.55 14.7-74.7 14.7-74.7-11.9 1.53-17.57 13.16-21.22 20.66-1.78 3.65-3.08 6.3-4.38 6.3l-5.47 34.4-54.76 9.66-.13.2c-2.7.07-12.06.6-18.17 4.43 0 0-3.17 2.35-1.35 4 .87.94.6 2 .32 3s-.56 2 .3 3a3.91 3.91 0 0 1 1 2.42 3.53 3.53 0 0 0 2.05 3.14 3.47 3.47 0 0 0 2 3.52l.33.15c2.42 1.08 7.15 3.18 8.06 2.36.34-.3 1.2-.92 2.14-1.6 1.7-1.22 3.74-2.68 3.8-3.08.08-.63-.07-1.72-2.13-1.88a12.11 12.11 0 0 0 4-1.8c2.13-1.25 4.43-4.53 4.43-4.53l2.08-4.7c50.7 4.18 62.4-4.92 62.4-4.92z" fill-rule="evenodd" fill="url(#Q)"/><path d="M548.33 122.06l-6.25 32.2-43.8 9.6a19.42 19.42 0 0 1 5.87 14.69c13.55 1.93 44 3.94 57.5-3.48 2.45-1.9 8-8.7 10.37-20.8 15.75-53.53 3-61.4 3-61.4-17.65 2.28-26.68 29.22-26.68 29.22z" fill="url(#R)"/><path d="M394.53 294.68a61.94 61.94 0 0 0-6.34-16.75l-1.3-2.2a64.79 64.79 0 0 0-12.22-14.68 20.84 20.84 0 0 0-1.89-1.61 63.36 63.36 0 0 0-17.18-10.09l-2.36-.84a64.27 64.27 0 0 0-20.05-3.51h-2.5a64 64 0 0 0-20.05 3.56l-2.36.84a63.36 63.36 0 0 0-17.18 10.09l-1.9 1.6A63 63 0 0 0 277 275.73l-1.3 2.2a61.94 61.94 0 0 0-6.34 16.75l-.52 2.52a62.37 62.37 0 0 0-1 11.05H396a60.88 60.88 0 0 0-1-11.05l-.47-2.52z" fill="#fcddd4"/><path d="M473.72 326.87a76.77 76.77 0 0 0-7.92-20.81l-1.64-2.73a80.24 80.24 0 0 0-15.27-18.23 25.4 25.4 0 0 0-2.37-2A79.31 79.31 0 0 0 425 270.56l-2.94-1.05a81.17 81.17 0 0 0-25.06-4.42h-3.1a80.81 80.81 0 0 0-25.08 4.42l-2.94 1.05a79.31 79.31 0 0 0-21.48 12.53l-2.36 2a78.27 78.27 0 0 0-15.28 18.23l-1.63 2.73a76.45 76.45 0 0 0-7.92 20.81l-.65 3.13a76.49 76.49 0 0 0-1.23 13.74H475.5a75.84 75.84 0 0 0-1.22-13.73l-.57-3.13z" fill="#fff"/><path d="M493.4 311.16c-10.64 0-14.64-9.2-14.64-22s-3.66-23.35-18-24c-18.63-.66-17 17.1-17 38.8 0 27.63-10 9.87-24 25.33-12 13.15 3.33 36.5 8 43.4h60.22l12.64-23.35c12.75-23.07 3.4-38.2-7.22-38.2z" fill="#f37753"/><path d="M464.78 315.43h-3v41.25L449.2 340.1l-2.4 1.78 15 19.74v11h3V341.5l12.7-15.56-2.33-1.86-10.36 12.7z" fill="#fff" fill-rule="evenodd" opacity=".2"/><path fill="#fcddd4" d="M415.38 372.5h87.36v47.95h-87.36z"/></svg>