<?xml version="1.0" encoding="utf-8"?>
<!-- Generator: Adobe Illustrator 24.0.1, SVG Export Plug-In . SVG Version: 6.00 Build 0)  -->
<svg version="1.1" id="Layer_1" xmlns="http://www.w3.org/2000/svg" xmlns:xlink="http://www.w3.org/1999/xlink" x="0px" y="0px"
	 viewBox="0 0 720 720" style="enable-background:new 0 0 720 720;" xml:space="preserve">
<style type="text/css">
	.st0{fill:#FCDDD4;}
	.st1{fill:#F6A182;filter:url(#Adobe_OpacityMaskFilter);}
	.st2{mask:url(#A_1_);}
	.st3{opacity:0.7;fill:none;stroke:url(#SVGID_1_);stroke-width:2;enable-background:new    ;}
	.st4{fill:#D88D6C;}
	.st5{fill:url(#SVGID_2_);}
	.st6{fill:url(#SVGID_3_);}
	.st7{fill:url(#SVGID_4_);}
	.st8{fill:#402B2B;fill-opacity:0.45;}
	.st9{fill:#402B2B;}
	.st10{fill:#F48767;}
	.st11{fill:#F36F49;}
	.st12{fill:#F06A5B;}
	.st13{fill:#F7A58D;}
	.st14{fill:#5B2929;}
	.st15{fill:#F69276;}
	.st16{fill:#F6977C;}
	.st17{fill:#F58A6B;}
	.st18{fill:#F47B58;}
	.st19{opacity:0.2;}
	.st20{fill:#F16036;}
	.st21{fill:#FFFFFF;}
	.st22{fill:#F8B4A0;}
	.st23{opacity:0.6;fill:url(#SVGID_5_);enable-background:new    ;}
	.st24{fill:#8C5E5E;}
	.st25{fill:#694646;}
	.st26{fill:#A3774A;}
	.st27{fill:url(#SVGID_6_);}
	.st28{fill:url(#SVGID_7_);}
	.st29{fill:url(#SVGID_8_);}
	.st30{fill:url(#SVGID_9_);}
	.st31{fill:url(#SVGID_10_);}
	.st32{fill:#EE4D47;fill-opacity:0.3;}
	.st33{fill:url(#SVGID_11_);}
	.st34{fill:#893D43;}
	.st35{fill:#FFFEFF;}
	.st36{fill:#6B1912;}
	.st37{fill:url(#SVGID_12_);}
	.st38{fill:url(#SVGID_13_);}
	.st39{fill:#D87C60;}
	.st40{fill:#822626;}
	.st41{fill:url(#SVGID_14_);}
	.st42{fill:url(#SVGID_15_);}
	.st43{fill-rule:evenodd;clip-rule:evenodd;fill:url(#SVGID_16_);}
	.st44{fill:url(#SVGID_17_);}
	.st45{fill:#F37753;}
	.st46{opacity:0.2;fill-rule:evenodd;clip-rule:evenodd;fill:#FFFFFF;enable-background:new    ;}
</style>
<g>
	<path class="st0" d="M425,648.9c85.7,47,275.2-26.1,275.2-206.3c0-291.7-268.2-341.5-425.4-341.5c-282,0-385.5,315.8-50.9,341.5
		C522.2,465.5,242.2,548.6,425,648.9L425,648.9z"/>
	<defs>
		<filter id="Adobe_OpacityMaskFilter" filterUnits="userSpaceOnUse" x="-289.2" y="158.1" width="1048.7" height="561">
			<feColorMatrix  type="matrix" values="1 0 0 0 0  0 1 0 0 0  0 0 1 0 0  0 0 0 1 0"/>
		</filter>
	</defs>
	<mask maskUnits="userSpaceOnUse" x="-289.2" y="158.1" width="1048.7" height="561" id="A_1_">
		<path class="st1" d="M424.9,648.9c85.7,47,275.2-26.1,275.2-206.3c0-291.7-268.2-341.5-425.4-341.5c-282,0-385.5,315.8-50.9,341.5
			C522,465.5,242.1,548.6,424.9,648.9L424.9,648.9z"/>
	</mask>
	<g class="st2">
		
			<linearGradient id="SVGID_1_" gradientUnits="userSpaceOnUse" x1="350.0446" y1="386.1665" x2="350.0446" y2="105.822" gradientTransform="matrix(1 0 0 -1 0 721.42)">
			<stop  offset="0" style="stop-color:#F37753"/>
			<stop  offset="1" style="stop-color:#FFFFFF;stop-opacity:0"/>
		</linearGradient>
		<path class="st3" d="M30.5,467.7C60.9,428.6,141.3,352.4,220,360.2c98.4,9.8-88.6,193,0,193s130.4-224.7,194.4-224.7
			s-71.4,166.1,0,175.9c71.4,9.8,130.4-234.5,209.2-237s-81.3,200.3,46.7,200.3"/>
		<path class="st4" d="M471.8,707.6l-30.9-2.6l1.6-37.9l31.1,2.9L471.8,707.6z"/>
		
			<linearGradient id="SVGID_2_" gradientUnits="userSpaceOnUse" x1="431.3158" y1="40.8396" x2="431.3158" y2="1.4271" gradientTransform="matrix(1 0 0 -1 0 721.42)">
			<stop  offset="0" style="stop-color:#F4A984"/>
			<stop  offset="1" style="stop-color:#EE4D47"/>
		</linearGradient>
		<path class="st5" d="M414.2,702.4c0,0,20.4-9.3,23.8-16.1c0,0,6-21.8,15.2-10.4c0,0,9.4,7.5,22.8,1.5l1.6,41.3l-92.3-0.3
			C387.5,712.2,389.6,705.3,414.2,702.4L414.2,702.4z"/>
		<path class="st4" d="M607,702.4l-30.9,5.2l-8.1-36.9l30.6-5.2L607,702.4z"/>
		
			<linearGradient id="SVGID_3_" gradientUnits="userSpaceOnUse" x1="564.4691" y1="55.0299" x2="564.4691" y2="1.2344" gradientTransform="matrix(1 0 0 -1 0 721.42)">
			<stop  offset="0" style="stop-color:#F4A984"/>
			<stop  offset="1" style="stop-color:#EE4D47"/>
		</linearGradient>
		<path class="st6" d="M547.6,702.4c0,0,20.4-9.3,23.8-16.1c0,0-4.7-17.1,6.3-8.6c0,0,18.8,7,26.7-1.5l6.3,42.8l-92.3-0.3
			C521.2,712.2,523.3,705.3,547.6,702.4z"/>
		
			<linearGradient id="SVGID_4_" gradientUnits="userSpaceOnUse" x1="520.0314" y1="467.2893" x2="520.0314" y2="29.778" gradientTransform="matrix(1 0 0 -1 0 721.42)">
			<stop  offset="0" style="stop-color:#822626"/>
			<stop  offset="0.94" style="stop-color:#402B2B"/>
		</linearGradient>
		<path class="st7" d="M435.6,350.6c0,0-5.5,155.9-0.5,333.1c0,0,14.9,14,43.2,4.7c0,0-0.3-197.2,7.4-275.5
			c0,0,35.6,148.9,80.6,277.8c0,0,30.1,5.7,40.8-11.2c0,0-60.7-208.9-69.6-329L435.6,350.6z"/>
		<g>
			<path class="st8" d="M435.6,350.6h101.8c0.8,9.1,1.6,18.7,3,28.5c-60.7,0.3-92.9-15.1-104.9-22
				C435.4,354.9,435.5,352.7,435.6,350.6L435.6,350.6z"/>
			<path class="st9" d="M-105.1,416.8c0,29.1,16.9,52.6,37.7,52.6h37.7c20.8,0,37.5-23.7,37.5-52.6c0-28.9-16.9-52.6-37.7-52.6
				h-37.5C-88.4,364.2-105.1,387.9-105.1,416.8L-105.1,416.8z"/>
		</g>
		<path class="st10" d="M190.1,416.2c0,29.1,16.9,52.6,37.7,52.6h37.7c20.8,0,37.5-23.7,37.5-52.6s-16.9-52.6-37.7-52.6h-37.5
			C206.8,363.6,190.1,387.1,190.1,416.2L190.1,416.2z"/>
		<path class="st9" d="M-107.6,411.8l151.7-0.4l-17.5-10.2l-114.8,0.2L-107.6,411.8z"/>
		<path class="st11" d="M-250.8,326.1l0.2,96.5l123.1-0.2l39.2-21l114.8-0.2L61.9,422l250.6-0.6c4,0,7.3-3.3,7.4-7.3l-0.1-89.1
			L-250.8,326.1z"/>
		<path class="st10" d="M17.7,348.1l196.6-0.4L213.8,171c-0.1-7.2-5.9-13-13.1-12.9c0,0-0.1,0-0.1,0L17,158.5L17.7,348.1z"/>
		<path class="st12" d="M-288.9,348.8l306.3-0.6l-0.4-189.5l-293.3,0.6c-7.2,0-13,5.8-13,13c0,0,0,0.1,0,0.1L-288.9,348.8z"/>
		<g>
			<path class="st10" d="M165.2,416.2c0,29.1-16.7,52.6-37.5,52.6H90.3v-17.7c-13.8,0-25.1-15.6-25.1-34.8
				c0-19.2,11.1-34.9,24.9-34.9v-17.7h37.5C148.4,363.8,165.1,387.3,165.2,416.2L165.2,416.2z"/>
			<path class="st10" d="M59.2,416.6c0,23.9,13.8,43.1,30.9,43c17.1-0.1,30.7-19.3,30.7-43.1s-13.8-43.1-30.9-43
				S59.2,392.8,59.2,416.6L59.2,416.6z"/>
		</g>
		<g>
			<path class="st13" d="M90.1,444.9c11.3,0,20.2-12.7,20.2-28.5s-9.1-28.3-20.4-28.3s-20.2,12.7-20.2,28.5S78.8,445,90.1,444.9
				L90.1,444.9z M90.1,399.7c6.6,0,12,7.5,12,16.8s-5.4,17-12,17c-6.6,0-12-7.5-12-16.8C78,407.4,83.3,399.7,90.1,399.7L90.1,399.7z
				 M90.1,469c20.8,0,37.5-23.7,37.5-52.6s-16.9-52.6-37.7-52.6s-37.5,23.7-37.5,52.6S69.5,469.2,90.1,469L90.1,469z M89.9,373.5
				c17.1,0,30.9,19.3,30.9,43c0,23.7-13.6,43.1-30.7,43.1s-30.9-19.3-30.9-43C59.2,392.9,73,373.5,89.9,373.5L89.9,373.5z"/>
		</g>
		<path class="st14" d="M84.8,416.4c0-4,2.3-7.1,5.1-7.1c2.7,0,5.1,3.3,5.2,7.1c0.2,3.9-2.3,7.1-5.1,7.1S84.8,420.5,84.8,416.4
			L84.8,416.4z"/>
		<g>
			<path class="st15" d="M344.4,272.4c0,0.7,0.5,1.3,1.2,1.5c3,0.4,6.1,0.3,9.1-0.2c0.9-0.1,1.5-0.9,1.6-1.7
				c0.6-15.4,0.6-30.4,0-44.7c0-0.9-0.7-1.6-1.6-1.7c-1.9-0.6-8.7-1-10.9-0.2c-0.8,0.2-1.3,0.9-1.4,1.7
				C342,242.2,342.6,257.3,344.4,272.4z"/>
			<path class="st15" d="M334.8,286c0.3,0,0.5-0.1,0.8-0.2l13.2-6.6c3.1-1.5,5.1-4.6,5.1-8.1l-0.2-48.3c0-1.9-1.5-3.5-3.5-3.5
				c0,0,0,0,0,0h-36.4c-0.8,0-1.5,0.7-1.5,1.5c0,0.9,0.7,1.5,1.5,1.5h36.3c0.1,0,0.2,0.1,0.2,0.2l0,0l0.2,48.3
				c0,2.2-1.3,4.2-3.3,5.2l-13.2,6.6c-0.8,0.4-1.1,1.3-0.8,2.1C333.4,285.6,334.1,286.1,334.8,286L334.8,286z"/>
		</g>
		<path class="st11" d="M44,347.7h43.7c23.1,0,28.6,11.4,42.7,39.3l44.9-0.2v-8.9l171.3-0.4c0.8-14.1,2.3-42.6,2.3-69.5v-2.7
			c-0.1-8.3-1.4-16.6-3.7-24.7c-9.1-33.1-32.2-68.4-41.8-81.3l-8.2-11.2c-6.6-8.7-11.1-13.1-19.4-13.1l-207.6,0.6
			c-4.3,0-8.1,2.8-9.3,6.9C41.1,247.7,43.8,297.2,44,347.7L44,347.7z M219,198.6c-0.1-0.8,0.4-1.6,1.2-1.7c0.1,0,0.2,0,0.4,0
			l63.1-0.2c3.9,0.1,7.5,2,9.7,5.2c24.7,33.3,34.6,63.8,38.3,81.3l3.9,18.5c0.6,2-0.6,4.1-2.6,4.7c-0.4,0.1-0.8,0.2-1.3,0.1h-15.4
			c-2.7-0.1-5.3-1.2-7.2-3.1l-31.5-29.9c-3.4-3.2-7.9-5.1-12.6-5.2h-37.7L219,198.6z"/>
		<path class="st16" d="M186.4,281.2l4.3,19.3c1,4.6,5,7.9,9.7,8.1c61.4,2.1,112.3,2.3,148.6-0.4v-2.7c-0.1-8.3-1.4-16.6-3.7-24.7
			L186.4,281.2z"/>
		<path class="st11" d="M73,197l63.1-0.2c3.7,0,7,2,8.7,5.2c17.7,33.3,21.4,63.8,21.4,81.3v18.5c0,2.7-2.1,4.8-4.8,4.8
			c0,0-0.1,0-0.1,0H146c-2.5,0-5-1.1-6.6-3.1l-25.2-29.8c-2.8-3.4-7.1-5.3-11.5-5.2H65l6-69.7c0-1,0.8-1.8,1.8-1.8
			C72.9,197,73,197,73,197L73,197z"/>
		<path class="st13" d="M44,347.7h43.7c23.1,0,28.6,11.4,42.7,39.3l44.9-0.2v-8.9l171.3-0.4c0.8-14.1,2.3-42.6,2.3-69.5
			c-36.3,2.7-87.4,2.7-148.6,0.4c-4.7-0.2-8.7-3.5-9.7-8.1c-1.4-6.7-3-13.3-4.3-19.3c-7-30.2-16.9-59.6-29.6-87.8
			c-0.7-1.6,0-3.6,1.6-4.3c0.4-0.2,0.9-0.3,1.3-0.3l135.6-0.4c-6.6-8.7-11.1-13.1-19.4-13.1l-207.6,0.6c-4.3,0-8.1,2.8-9.3,6.9
			C41.1,247.7,43.8,297.2,44,347.7L44,347.7z M64.8,268.5l6-69.7c0.1-1,0.9-1.8,2-1.7l63.1-0.2c3.7,0,7,2,8.7,5.2
			c17.7,33.3,21.4,63.8,21.4,81.3v18.5c0,2.7-2.1,4.8-4.8,4.8c0,0-0.1,0-0.1,0h-15.3c-2.5,0-5-1.1-6.6-3.1L114,273.7
			c-2.9-3.4-7.1-5.3-11.5-5.2L64.8,268.5z"/>
		<path class="st17" d="M51.6,342.7c0,2.8,2.3,5,5.1,5c0.1,0,0.1,0,0.2,0h30.9c23.1,0,28.5,11.4,42.7,39.3l44.9-0.2v-8.9l-0.2-78
			c0-38.7-7-63.2-25.4-101.9c-2.8-5.8-8.7-9.5-15.1-9.4l-66.8,0.3c-1.4,0-2.7,0.9-3.1,2.3C51.5,240.7,51.5,321.7,51.6,342.7
			L51.6,342.7z M64.8,268.5l6-69.7c0.1-1,0.9-1.8,2-1.7l63.1-0.2c3.7,0,7,2,8.7,5.2c17.7,33.3,21.4,63.8,21.4,81.3v18.5
			c0,2.7-2.1,4.8-4.8,4.8c0,0-0.1,0-0.1,0h-15.3c-2.5,0-5-1.1-6.6-3.1L114,273.8c-2.8-3.4-7.1-5.3-11.5-5.2L64.8,268.5z"/>
		<path class="st13" d="M73.4,199.3l62.7-0.2c2.7,0,5.2,1.5,6.6,3.9c18.3,34.5,21.2,65.1,21.2,80.1v18.5c0,1.4-1.1,2.5-2.5,2.5H146
			c-1.8,0-3.6-0.7-4.8-2.1l-25.3-29.8c-3.4-3.9-8.3-6.2-13.4-6.2h-35L73.4,199.3z M73,197c-1,0-1.9,0.7-2,1.7l-6,69.7h37.7
			c4.4,0,8.6,1.9,11.5,5.2l25.2,29.9c1.6,2,4.1,3.1,6.6,3.1h15.3c2.6,0,4.8-2.1,4.9-4.7c0,0,0-0.1,0-0.1v-18.5
			c0-17.5-3.7-48-21.4-81.3c-1.7-3.2-5.1-5.2-8.7-5.2L73,197z"/>
		<g>
			<path class="st16" d="M175.1,341.1v36.8l67.8-0.2c-0.7-9.4-2.5-18.6-5.4-27.6c-1.1-3.5-4.2-6-7.8-6.6
				C211.6,341.8,193.4,340.9,175.1,341.1L175.1,341.1z M312.3,377.7h33.6c0.6-8.1,1.2-21.2,1.7-36c-7.5,0.4-15.1,1.1-22.5,2.1
				c-3.6,0.5-6.6,3.1-7.8,6.6C314.6,359.3,312.9,368.5,312.3,377.7L312.3,377.7z M175.4,414.9l157.1-0.4c10.7,0,19.3-8.6,19.4-19.3
				v-3.3c0-3-2.4-5.4-5.4-5.4c0,0,0,0,0,0l-170.9,0.4L175.4,414.9z"/>
		</g>
		<path class="st13" d="M146.4,414.9h29V387h-44.5l4.9,19.5C136.9,411.4,141.4,414.9,146.4,414.9L146.4,414.9z"/>
		<path class="st16" d="M77.3,313c6.6,0.2,19.4,1.5,19.4,6.2s-11.3,6.2-20.4,6.2s-10.1-5-10.9-7.1C64.7,316.1,64.3,312.8,77.3,313
			L77.3,313z"/>
		<g>
			<path class="st18" d="M77.9,318c-3.1,0-6.4-1-8-2.5c1.8-0.8,3.7-1.2,5.6-1.2c5,0,13.2,0.6,17.5,2.5c-1.4,0.8-3,1.2-4.7,1.2H77.9z
				 M90.9,321.7c0.7-0.1,1.3,0,1.9,0.4c-3.5,1.5-9.9,2.1-13,2.1c-4.4,0-7.6,0-8.5-1c1.2-0.9,2.7-1.4,4.3-1.5
				C77.8,321.9,89.3,321.7,90.9,321.7z"/>
		</g>
		<path class="st17" d="M175.4,378.1v8.9l170.7-0.4l0.6-8.9L175.4,378.1z"/>
		<g class="st19">
			<path class="st20" d="M249,339.2V376l57.3-0.2V339c0-4.4-4.1-7.9-9.1-7.9h-39.2C253,331.3,249,334.9,249,339.2L249,339.2z"/>
		</g>
		<g>
			<path class="st21" d="M325.5,374.6h12c3.2,0,5.8-2.6,5.8-5.8v-5.9c0-3.2-2.6-5.8-5.8-5.8h-12c-3.2,0-5.8,2.6-5.8,5.8v5.9
				C319.7,372.1,322.3,374.6,325.5,374.6z M211.5,375h12c3.2,0,5.8-2.6,5.8-5.8v-5.9c0-3.2-2.6-5.8-5.8-5.8h-12
				c-3.2-0.1-5.9,2.5-5.9,5.7c0,0,0,0,0,0v5.9C205.6,372.5,208.3,375,211.5,375C211.5,375,211.5,375,211.5,375z"/>
		</g>
		<path class="st13" d="M133.8,272.7c0.1,0.7,0.5,1.3,1.2,1.5c7.9,0.8,15.8,0.7,23.6-0.2c0.9-0.1,1.5-0.9,1.5-1.7
			c0.6-15.4,0.6-30.4,0-44.7c0-0.9-0.6-1.6-1.5-1.7c-8.5-1-17-1-25.4,0c-0.8,0.2-1.3,0.9-1.4,1.7C131.3,242.7,132,257.8,133.8,272.7
			z"/>
		<path class="st15" d="M163.9,286.4c0.6,0,1.1-0.4,1.4-1c0.4-0.8,0-1.7-0.8-2.1l-13.2-6.4c-2-1-3.3-3-3.3-5.2l-0.2-48.3
			c0-0.1,0.1-0.2,0.2-0.2l0,0h8.2c0.8,0,1.5-0.7,1.5-1.5s-0.7-1.5-1.5-1.5H148c-1.9,0-3.5,1.5-3.5,3.4c0,0,0,0,0,0l0.2,48.3
			c0,3.4,2,6.6,5.1,8.1l13.2,6.4H163.9z"/>
		<path class="st22" d="M253,417.1l55-0.1v-16.4l-55,0.1V417.1z"/>
		
			<linearGradient id="SVGID_5_" gradientUnits="userSpaceOnUse" x1="217.4495" y1="556.8871" x2="293.1224" y2="375.5596" gradientTransform="matrix(1 0 0 -1 0 721.42)">
			<stop  offset="0" style="stop-color:#F7A58D"/>
			<stop  offset="0.93" style="stop-color:#FFFFFF"/>
		</linearGradient>
		<path class="st23" d="M156.5,193.8c12.6,28.3,22.5,57.7,29.6,87.8l158.9-0.4c-9.1-33.1-32.2-68.4-41.8-81.3l-8.1-11.2l-135.6,0.4
			c-1.8,0-3.3,1.6-3.2,3.4C156.3,193,156.4,193.4,156.5,193.8L156.5,193.8z"/>
		<path class="st24" d="M759.2,568H603.6v119.1h155.6V568z"/>
		<path class="st25" d="M759.4,568h-56.6v119.1h56.6V568z"/>
		<g>
			<path class="st26" d="M740,568h-14.6v16.5H740V568z M656.5,568h-14.6v16.5h14.6L656.5,568z"/>
		</g>
		<path class="st13" d="M657.2,568H501.6v119.1h155.6V568z"/>
		<path class="st17" d="M657.4,568h-56.6v119.1h56.6V568z"/>
		<g>
			<path class="st21" d="M638,568h-14.6v16.5H638V568z M554.5,568h-14.5v16.5h14.6L554.5,568z"/>
		</g>
		<path class="st13" d="M696.8,452.5H541.3v119.1h155.6V452.5z"/>
		<path class="st17" d="M697.1,452.5h-56.7v119.1h56.6L697.1,452.5z"/>
		<g>
			<path class="st21" d="M677.7,452.5h-14.6v16.5h14.6V452.5z M594.1,452.5h-14.6v16.5h14.6V452.5z"/>
		</g>
	</g>
	<g id="upper-body">
		
			<linearGradient id="SVGID_6_" gradientUnits="userSpaceOnUse" x1="420.992" y1="473.9025" x2="420.992" y2="405.6795" gradientTransform="matrix(1 0 0 -1 0 721.42)">
			<stop  offset="0" style="stop-color:#FFB3B6"/>
			<stop  offset="1" style="stop-color:#FFC8C1"/>
		</linearGradient>
		<path class="st27" d="M390.6,284.8l24.9-37.2l35.8,10.3c-1.4,11-24.5,43.9-35.8,59L390.6,284.8z"/>
		
			<linearGradient id="SVGID_7_" gradientUnits="userSpaceOnUse" x1="403.5791" y1="409.0748" x2="442.5465" y2="530.5589" gradientTransform="matrix(1 0 0 -1 0 721.42)">
			<stop  offset="0" style="stop-color:#F4A984"/>
			<stop  offset="1" style="stop-color:#EE4D47"/>
		</linearGradient>
		<path class="st28" d="M394.1,271.3c12.2-55,36.2-92.7,36.2-92.7c13.5,3,18.4,49.7,18.4,49.7c-2.9,16.3-11.6,58.8-18.4,74.5
			L394.1,271.3z"/>
		
			<linearGradient id="SVGID_8_" gradientUnits="userSpaceOnUse" x1="496.6784" y1="630.648" x2="496.6784" y2="367.0529" gradientTransform="matrix(1 0 0 -1 0 721.42)">
			<stop  offset="0" style="stop-color:#F4A984"/>
			<stop  offset="1" style="stop-color:#EE4D47"/>
		</linearGradient>
		<path class="st29" d="M430.1,177.9l5.2,173.3c0,0,35.6,17.9,106.4,5.4c0,0,0.3-43,9.9-81.2c0,0,18-71.9,8.9-92.9
			C560.7,182.6,502.9,147.1,430.1,177.9z"/>
		
			<linearGradient id="SVGID_9_" gradientUnits="userSpaceOnUse" x1="507.2722" y1="564.0701" x2="480.8531" y2="552.6801" gradientTransform="matrix(1 0 0 -1 0 721.42)">
			<stop  offset="0" style="stop-color:#FFB3B6"/>
			<stop  offset="1" style="stop-color:#FFC8C1"/>
		</linearGradient>
		<path class="st30" d="M485.1,149.5l-0.5,18.5c0,0,4.4,6.5,15.2,7.3c10.7,0.5,16-5.4,16-5.4l1-27.7
			C503.4,148,490.3,150.2,485.1,149.5z"/>
		
			<linearGradient id="SVGID_10_" gradientUnits="userSpaceOnUse" x1="508.3963" y1="575.9366" x2="481.8184" y2="564.6813" gradientTransform="matrix(1 0 0 -1 0 721.42)">
			<stop  offset="0" style="stop-color:#FFB3B6;stop-opacity:0.3"/>
			<stop  offset="1" style="stop-color:#FFC8C1"/>
		</linearGradient>
		<path class="st31" d="M486.1,141.9l-1,20.5c5.2,0.8,18.3-1.5,31.4-7.3l0.8-13.2L486.1,141.9z"/>
		<path class="st32" d="M557,223.1c0,0-15.4,34.5-20.9,50.1c-5.5,15.3-5.5,76.3-34.3,87.9c0,0,30.6-1.8,40.3-4.4
			c0,0,0.5-46,9.9-81.2l9.2-54L557,223.1z"/>
		<path class="st9" d="M536.6,96.7c-0.5,0.3-1,8.6-1,8.6l-2.1,17.4l-9.7,7.5l-5.5,2.3c0,0-8.1-3.4-7.1-6.5c1-2.8,6.3-43.8,7.4-43.8
			s9.4,5.9,9.4,5.9L536.6,96.7z M460,81.2c-2.4,0,1.3,28.5,1.3,28.5l4.2-11.4l2.9-13.7L460,81.2z"/>
		
			<linearGradient id="SVGID_11_" gradientUnits="userSpaceOnUse" x1="494.001" y1="569.9476" x2="499.6201" y2="620.1194" gradientTransform="matrix(1 0 0 -1 0 721.42)">
			<stop  offset="0" style="stop-color:#FFB3B6"/>
			<stop  offset="1" style="stop-color:#FFC8C1"/>
		</linearGradient>
		<path class="st33" d="M463.9,86.9l-4.4,36.6c0,0-1.6,30.9,24.1,32.6c25.6,1.5,43.2-23.6,43.2-23.6s3.1,3.6,6.5-2.6
			c3.1-6.2,1-14.5-3.4-15.3c-4.7-0.5-6.8,2.1-7.4,5.9l-1,6.7l-3.9-0.5l2.9-30.1c0,0-6-11.7-12.8-14c-6.8-2.3-12.8,7-12.8,7
			c-4.1,0.8-8.2,0.8-12.3,0c-3.4-0.7-6.7-1.6-9.9-2.8C469.7,87.4,466.7,87.4,463.9,86.9L463.9,86.9z"/>
		<path class="st34" d="M482.5,142.1c8.6,0.5,9.9-9.3,9.9-9.3l-20.4-2.6C472,130.2,470.5,141.3,482.5,142.1L482.5,142.1z"/>
		<path class="st35" d="M491.6,135.9c0.4-1,0.8-2,1-3.1l-20.4-2.6c-0.2,1.1-0.2,2.3,0,3.4L491.6,135.9z"/>
		<path class="st36" d="M445.8,89.4H471l3.4-15.1c0,0-9.9,5.7-12.3,1.8c-2.4-3.9-1.8-2.3-4.2-1.8c-2.4,0.5-2.4-2.6-5.2-0.8
			C449.5,75.6,444.8,85.4,445.8,89.4L445.8,89.4z"/>
		<path class="st9" d="M490.8,77.6V51.1c16,0.8,32.4,3.9,40.5,13.8c9.7,11.7,4.2,38.7,4.2,38.7s-11.8-1.3-13.9-5.2
			c-2-3.9-22-9.3-37.1-8.6s-22.5-0.8-30.1-7.3c-1.6-1.4-3-3.2-3.9-5.2h40.3V77.6z"/>
		
			<linearGradient id="SVGID_12_" gradientUnits="userSpaceOnUse" x1="500.9763" y1="702.6225" x2="500.9763" y2="627.1931" gradientTransform="matrix(1 0 0 -1 0 721.42)">
			<stop  offset="0" style="stop-color:#F4A984"/>
			<stop  offset="1" style="stop-color:#EE4D47"/>
		</linearGradient>
		<path class="st37" d="M537.4,93.6c0,0-11.2-3.6-30.1-5.2c-31.7-13.2-45.3-10.9-45.3-10.9s0.3-10.1,3.1-17.1s22.2-16.9,38.5-15.3
			c16.2,1.5,33,13.5,35.6,24.9C541.4,78.8,537.4,93.6,537.4,93.6L537.4,93.6z"/>
		
			<linearGradient id="SVGID_13_" gradientUnits="userSpaceOnUse" x1="480.3088" y1="663.0469" x2="480.3088" y2="584.6223" gradientTransform="matrix(1 0 0 -1 0 721.42)">
			<stop  offset="0" style="stop-color:#F4A984"/>
			<stop  offset="1" style="stop-color:#EE4D47"/>
		</linearGradient>
		<path class="st38" d="M518.3,89.7c-3.4-16.1-27.7-24.1-45-23.9c-17,0.3-29,14.3-30.9,23.9c-0.8,3.9,2.4,4.4,3.4,1
			c0.8-2.3,2.4-13.5,18.1-12.2c15.7,1.3,14.9,15.3,22.8,16.6C494,96.5,502.4,91.3,518.3,89.7z"/>
		<path class="st9" d="M465.7,93.4v-1.8c4.7-0.4,9.5-0.2,14.1,0.8l-0.3,2.9C475.1,94,470.4,93.4,465.7,93.4z M509.9,99.8
			c-4.7-2.6-13.6-3.9-13.6-4.2l1-2.6c4.8,0.9,9.4,2.5,13.6,4.9L509.9,99.8z"/>
		<path class="st39" d="M483.8,108.7c0,0-0.8,5.4-2.9,7c-2.1,1.6-5.8,2.9-6.3,4.2c-0.5,1,0.5,3.1,2.9,3.9s2.6,1.6,2.6,1.6
			s-4.7,0.5-7.1-2.3c-2.4-2.8,0.3-5.2,2.6-6.5c1.5-0.8,3-1.6,4.4-2.6C481.4,113.1,483.8,108.7,483.8,108.7L483.8,108.7z"/>
		<path class="st9" d="M495,111.5c-0.2,2.5,1.7,4.7,4.2,4.9c2.4,0,4.2-2.1,4.2-4.9c0.2-2.5-1.7-4.7-4.2-4.9
			c-2.4,0.1-4.3,2.2-4.2,4.7C495,111.3,495,111.4,495,111.5z M466.3,108.2c-0.2,2.5,1.7,4.8,4.2,5c2.4-0.1,4.3-2.2,4.2-4.7
			c0-0.1,0-0.2,0-0.3c0.2-2.5-1.7-4.8-4.2-5C468,103.5,466.2,105.7,466.3,108.2z"/>
		<path class="st21" d="M339.4,222.1c-1.1-2-0.3-4.5,1.7-5.6c0,0,0,0,0.1,0c2-1.1,4.5-0.3,5.6,1.7l13.8,25.5l-7.4,3.9L339.4,222.1z"
			/>
		<path class="st40" d="M342.1,226.9l7.3-3.9l15.8,29.2l-7.3,3.9L342.1,226.9z"/>
		
			<linearGradient id="SVGID_14_" gradientUnits="userSpaceOnUse" x1="460.3137" y1="425.8108" x2="433.3957" y2="415.1382" gradientTransform="matrix(1 0 0 -1 0 721.42)">
			<stop  offset="0" style="stop-color:#F4A984"/>
			<stop  offset="1" style="stop-color:#EE4D47"/>
		</linearGradient>
		<path class="st41" d="M449,301.1c-3.3-6.4-2.5-11.5-1.7-13.2c3.3,1.9,10.1,6.8,11,10.9s-1.2,9.3-2.3,11.4
			C455,309.9,452.3,307.5,449,301.1L449,301.1z"/>
		<path class="st21" d="M310.1,256.3c-1.1-3.8,1.1-7.7,4.8-8.8c0.7-0.2,1.4-0.3,2.1-0.3H405c3.2,0,6,2.1,6.9,5.1l32.8,110.2
			c1.1,3.8-1.1,7.7-4.8,8.8c-0.7,0.2-1.4,0.3-2.1,0.3h-87.9c-3.2,0-6-2.1-6.9-5.1L310.1,256.3z"/>
		
			<linearGradient id="SVGID_15_" gradientUnits="userSpaceOnUse" x1="442.7431" y1="423.0971" x2="186.9242" y2="374.2227" gradientTransform="matrix(1 0 0 -1 0 721.42)">
			<stop  offset="0" style="stop-color:#F58A6B"/>
			<stop  offset="1" style="stop-color:#F7A58D"/>
		</linearGradient>
		<path class="st42" d="M308.3,250.7c-1-3.8,1.3-7.7,5.1-8.7c0.6-0.2,1.2-0.2,1.8-0.2h88c3.2,0,6.1,2.2,6.9,5.3l33.2,124.4
			c1,3.8-1.3,7.7-5.1,8.7c-0.6,0.2-1.2,0.2-1.8,0.2h-88c-3.2,0-6.1-2.2-6.9-5.3L308.3,250.7z"/>
		
			<linearGradient id="SVGID_16_" gradientUnits="userSpaceOnUse" x1="535.4931" y1="471.8856" x2="400.1336" y2="426.7608" gradientTransform="matrix(1 0 0 -1 0 721.42)">
			<stop  offset="0" style="stop-color:#FFB3B6"/>
			<stop  offset="1" style="stop-color:#FFC8C1"/>
		</linearGradient>
		<path class="st43" d="M543.2,298.6c19.1-27.5,21.7-110.8,21.7-110.8c-17.6,2.3-26,19.5-31.4,30.6c-2.6,5.4-4.6,9.3-6.5,9.3
			l-8.1,51L438,293.1l-0.2,0.3c-4,0.1-17.8,0.9-26.9,6.6c0,0-4.7,3.5-2,5.9c1.3,1.4,0.9,3,0.5,4.4s-0.8,3,0.4,4.4
			c0.9,1,1.4,2.3,1.5,3.6c0,2,1.2,3.8,3,4.7c-0.2,2.2,1,4.3,3,5.2l0.5,0.2c3.6,1.6,10.6,4.7,11.9,3.5c0.5-0.4,1.8-1.4,3.2-2.4
			c2.5-1.8,5.5-4,5.6-4.6c0.1-0.9-0.1-2.6-3.1-2.8c2.1-0.5,4.1-1.4,5.9-2.7c3.1-1.9,6.5-6.7,6.5-6.7l3.1-7
			C525.9,312.1,543.2,298.6,543.2,298.6L543.2,298.6z"/>
		
			<linearGradient id="SVGID_17_" gradientUnits="userSpaceOnUse" x1="494.7112" y1="484.4001" x2="573.6674" y2="431.1219" gradientTransform="matrix(1 0 0 -1 0 721.42)">
			<stop  offset="0" style="stop-color:#F4A984"/>
			<stop  offset="1" style="stop-color:#EE4D47"/>
		</linearGradient>
		<path class="st44" d="M521.2,225.9l-9.2,47.7l-64.7,14.2c5.8,5.7,9,13.6,8.7,21.8c20,2.9,65,5.8,85-5.2
			c3.6-2.8,11.8-12.9,15.3-30.8c23.3-79.4,4.4-91,4.4-91C534.6,186,521.2,226,521.2,225.9L521.2,225.9z"/>
	</g>
	<g>
		<path class="st0" d="M293.9,481.9c-1.9-8.7-5.1-17.1-9.4-24.8l-1.9-3.3c-4.9-8.1-11-15.4-18.1-21.8c-0.9-0.9-1.8-1.6-2.8-2.4
			c-7.6-6.3-16.2-11.3-25.4-15l-3.5-1.2c-9.5-3.3-19.5-5.1-29.6-5.2h-3.7c-10.1,0.2-20.1,1.9-29.6,5.3l-3.5,1.2
			c-9.2,3.6-17.8,8.7-25.4,15l-2.8,2.4c-7.1,6.3-13.2,13.6-18,21.7l-1.9,3.3c-4.3,7.8-7.5,16.1-9.4,24.8l-0.8,3.7
			c-1,5.4-1.5,10.9-1.5,16.4H296c0-5.5-0.5-11-1.5-16.4L293.9,481.9L293.9,481.9z"/>
		<path class="st21" d="M410.9,529.6c-2.4-10.8-6.3-21.2-11.7-30.9l-2.4-4c-6.1-10.1-13.7-19.2-22.6-27c-1.1-1.1-2.3-2-3.5-3
			c-9.6-7.8-20.3-14.1-31.8-18.6l-4.3-1.6c-11.9-4.1-24.4-6.3-37-6.6h-4.6c-12.6,0.2-25.1,2.4-37.1,6.6l-4.3,1.6
			c-11.5,4.5-22.2,10.7-31.7,18.6l-3.5,3c-8.9,7.8-16.5,16.9-22.6,27l-2.4,4c-5.4,9.7-9.3,20.1-11.7,30.9l-1,4.6
			c-1.2,6.7-1.8,13.5-1.8,20.4h236.7c0-6.8-0.6-13.6-1.8-20.4L410.9,529.6L410.9,529.6z"/>
	</g>
	<g>
		<g>
			<path class="st45" d="M440,506.3c-15.7,0-21.6-13.6-21.6-32.6c0-19-5.4-34.6-26.6-35.6c-27.5-1-25.1,25.4-25.1,57.5
				c0,41-14.8,14.6-35.5,37.6c-17.7,19.5,4.9,54.1,11.8,64.4h89l18.7-34.6C469.5,528.7,455.7,506.3,440,506.3L440,506.3z"/>
			<path class="st46" d="M397.7,512.7h-4.4v61.2l-18.6-24.6l-3.5,2.6l22.2,29.3v16.3h4.4v-46.1l18.8-23.1l-3.4-2.8l-15.3,18.8
				L397.7,512.7z"/>
		</g>
		<path class="st0" d="M324.7,597.3h129.1v71.1H324.7V597.3z"/>
	</g>
</g>
</svg>
