<svg id="faq" xmlns="http://www.w3.org/2000/svg" xmlns:xlink="http://www.w3.org/1999/xlink" viewBox="0 0 708 498">
  <defs>
    <linearGradient id="linear-gradient" x1="287.08" y1="330.64" x2="287.08" y2="274" gradientTransform="matrix(1, 0, 0, -1, 0, 500)" gradientUnits="userSpaceOnUse">
      <stop offset="0" stop-color="#ffb3b6"/>
      <stop offset="1" stop-color="#ffc8c1"/>
    </linearGradient>
    <linearGradient id="linear-gradient-2" x1="284.44" y1="384.08" x2="284.44" y2="272.5" gradientTransform="matrix(1, 0, 0, -1, 0, 500)" gradientUnits="userSpaceOnUse">
      <stop offset="0" stop-color="#f4a984"/>
      <stop offset="1" stop-color="#ee4d47"/>
    </linearGradient>
    <linearGradient id="linear-gradient-3" x1="346.89" y1="461.94" x2="346.89" y2="243.11" xlink:href="#linear-gradient-2"/>
    <linearGradient id="linear-gradient-4" x1="355.6" y1="406.64" x2="333.81" y2="397.24" xlink:href="#linear-gradient"/>
    <linearGradient id="linear-gradient-5" x1="356.5" y1="416.5" x2="334.59" y2="407.22" gradientTransform="matrix(1, 0, 0, -1, 0, 500)" gradientUnits="userSpaceOnUse">
      <stop offset="0" stop-color="#ffb3b6" stop-opacity="0.31"/>
      <stop offset="1" stop-color="#ffc8c1"/>
    </linearGradient>
    <linearGradient id="linear-gradient-6" x1="344.63" y1="411.56" x2="349.29" y2="453.2" xlink:href="#linear-gradient"/>
    <linearGradient id="linear-gradient-7" x1="294.96" y1="409.5" x2="294.96" y2="282.63" xlink:href="#linear-gradient"/>
    <linearGradient id="linear-gradient-8" x1="277.59" y1="353.66" x2="324.04" y2="285.44" gradientTransform="matrix(1, 0, 0, -1, 0, 500)" gradientUnits="userSpaceOnUse">
      <stop offset="0" stop-color="#f4a984"/>
      <stop offset="0.92" stop-color="#ee4d47"/>
    </linearGradient>
    <linearGradient id="linear-gradient-9" x1="325.76" y1="388.18" x2="343.26" y2="418.18" xlink:href="#linear-gradient"/>
    <linearGradient id="linear-gradient-10" x1="350.38" y1="521.7" x2="350.38" y2="459.08" xlink:href="#linear-gradient-2"/>
    <linearGradient id="linear-gradient-11" x1="333.39" y1="488.84" x2="333.39" y2="423.73" xlink:href="#linear-gradient-2"/>
    <linearGradient id="linear-gradient-12" x1="378.84" y1="330.22" x2="267.23" y2="293.01" xlink:href="#linear-gradient"/>
    <linearGradient id="linear-gradient-13" x1="346.54" y1="345.27" x2="393.65" y2="273.98" xlink:href="#linear-gradient-2"/>
    <linearGradient id="linear-gradient-14" x1="6.77" y1="584.05" x2="235.43" y2="250.65" xlink:href="#linear-gradient-2"/>
    <mask id="mask" x="58.72" y="131.66" width="650.24" height="406.44" maskUnits="userSpaceOnUse">
      <g id="mask0">
        <path d="M649.64,381.85c65.46-71.41,89.26-215.72,0-235.56-132.36-29.41-66.95,74.39-391.77,19.84-201.24-33.8-186,166.13-74.38,277.71S567.81,471.11,649.64,381.85Z" fill="#fcddd4"/>
      </g>
    </mask>
    <linearGradient id="linear-gradient-15" x1="698.27" y1="310.14" x2="698.27" y2="180.18" gradientUnits="userSpaceOnUse">
      <stop offset="0" stop-color="#f37753"/>
      <stop offset="1" stop-color="#fff" stop-opacity="0"/>
    </linearGradient>
    <linearGradient id="linear-gradient-16" x1="383.59" y1="368.28" x2="383.59" y2="64.61" xlink:href="#linear-gradient-15"/>
    <linearGradient id="linear-gradient-17" x1="480.81" y1="291.6" x2="409.44" y2="120.68" gradientTransform="matrix(1, 0, 0, -1, 0, 500)" gradientUnits="userSpaceOnUse">
      <stop offset="0" stop-color="#f7a58d"/>
      <stop offset="0.93" stop-color="#fff"/>
    </linearGradient>
    <linearGradient id="linear-gradient-18" x1="366.02" y1="325.14" x2="366.02" y2="-38.09" gradientTransform="matrix(1, 0, 0, -1, 0, 500)" gradientUnits="userSpaceOnUse">
      <stop offset="0" stop-color="#822626"/>
      <stop offset="0.94" stop-color="#402b2b"/>
    </linearGradient>
  </defs>
  <title>faq</title>
  <path d="M649.64,381.85c65.46-71.41,89.26-215.72,0-235.56-132.36-29.41-66.95,74.39-391.77,19.84-201.24-33.8-186,166.13-74.38,277.71S567.81,471.11,649.64,381.85Z" fill="#fcddd4"/>
  <g id="upper-body">
    <path d="M305,38h20.67l2.8-12.49s-8.18,4.74-10.12,1.51-1.51-1.94-3.45-1.51-1.93-2.15-4.3-.64C308,26.63,304.16,34.81,305,38Z" fill="#6b1912"/>
    <path d="M264.63,194l11.78-28.51,33.12,12.41c-1.14,9.14-21.34,26.64-33.12,39Z" fill="url(#linear-gradient)"/>
    <path d="M292.21,110.92s-18.13,32.89-28.76,81.24c-3.27,14.88-2.48,22.57,2.48,26,6.2,4.34,17.36.62,22.94-11.16,5.68-13,16.18-41.25,18.53-54.82C307.4,152.22,303.33,113.36,292.21,110.92Z" fill="url(#linear-gradient-2)"/>
    <path d="M292.1,110.42s1.08,24.76,4.31,143.87c0,0,29.28,14.87,87.63,4.53,0,0,.21-35.76,8.18-67.42,0,0,14.85-59.66,7.32-77.11C399.54,114.29,352,84.78,292.1,110.42Z" fill="url(#linear-gradient-3)"/>
    <path d="M337.32,86.81l-.44,15.42s3.66,5.38,12.49,6c8.83.43,13.13-4.52,13.13-4.52l.86-23C352.39,85.52,341.62,87.45,337.32,86.81Z" fill="url(#linear-gradient-4)"/>
    <path d="M338.18,80.48l-.86,17c4.3.65,15.07-1.29,25.83-6l.65-11Z" fill="url(#linear-gradient-5)"/>
    <path d="M396.52,147.89s-12.7,28.65-17.22,41.57c-4.52,12.71-4.52,63.33-28.21,73,0,0,25.19-1.51,33.16-3.66,0,0,.43-38.13,8.18-67.42,0,0,5.38-30.8,7.54-44.8Z" fill="#ee4d47" fill-opacity="0.29"/>
    <path d="M379.73,43c-.43.21-.86,7.11-.86,7.11l-1.72,14.43-8,6.24-4.52,1.94s-6.68-2.8-5.81-5.38c.86-2.37,5.16-36.4,6-36.4s7.76,4.95,7.76,4.95Z" fill="#402b2b"/>
    <path d="M316.65,30.08c-1.94,0,1.08,23.69,1.08,23.69l3.44-9.48,2.37-11.41Z" fill="#402b2b"/>
    <path d="M319.88,34.81l-3.66,30.37s-1.3,25.63,19.8,27.14c21.1,1.29,35.53-19.6,35.53-19.6s2.58,3,5.38-2.15c2.58-5.17.86-12.06-2.8-12.71-3.87-.43-5.6,1.72-6,5s-.86,5.6-.86,5.6L364,68l2.37-25s-4.95-9.7-10.55-11.63-10.55,5.81-10.55,5.81a27.62,27.62,0,0,1-10.12,0A57.08,57.08,0,0,1,327,34.81,16.13,16.13,0,0,1,319.88,34.81Z" fill="url(#linear-gradient-6)"/>
    <path d="M336,210.76s-32.86-5-32.86-9.92,6.82-16.74,11.78-30.37,9.3-35.34,11.16-39.68-5.58,8.06-5.58,8.06c-12.19,15.91-37.07,48.85-39.05,53.31s-2.9,15.09-3.1,19.84l8.68,5,25.41-3.1Z" fill="#ee4d47" fill-opacity="0.29"/>
    <path d="M325.38,79.35a5.29,5.29,0,0,1,6.82-5c4.34,1.24,5.37,5,5.58,7.43" fill="none" stroke="#893d43"/>
    <path d="M319.18,115.3S265.25,184.74,264,195.88s-2.14,22.13,9.13,23.49,22-16.39,25.92-25.44l9-22.84,18.6-45.25Z" fill="url(#linear-gradient-7)"/>
    <path d="M326.68,130.18c0-6.2-7.44-8.68-13.64-8.68l-38.43,53.31c-7.85,10.95-21.32,36.2-7.44,44.63s29.34-13,34.71-24.18C304.86,188.32,319.65,149,326.68,130.18Z" fill="url(#linear-gradient-8)"/>
    <path d="M319.24,116.54s-3.79-14.72.24-24.3c0,0,2.19-4.29,4.56-2.45,2.64,1.7,4.71-2.17,7.35-.47s4.74-.82,7.36,2.45a4.29,4.29,0,0,1,4.67,1.64c1.71,2.54,5.62,8.22,4.77,9.54s-3.73,7.87-4.48,8.09-2.1.27-2.71-2.17a14.63,14.63,0,0,1-1.36,5.21c-1.07,2.83-4.59,6.26-4.59,6.26l-9,6.12Z" fill="url(#linear-gradient-9)"/>
    <path d="M342.05,27.06v-22c13.13.65,26.7,3.23,33.37,11.42,8,9.69,3.45,32.09,3.45,32.09s-9.69-1.08-11.41-4.31-18.09-7.75-30.58-7.11-18.51-.64-24.75-6a13.21,13.21,0,0,1-3.24-4.31h33.16Z" fill="#402b2b"/>
    <path d="M380.37,40.41s-9.25-3-24.76-4.3c-26.05-11-37.24-9-37.24-9s.21-8.4,2.58-14.22,18.3-14,31.65-12.7,27.13,11.2,29.28,20.67C383.6,28.14,380.37,40.41,380.37,40.41Z" fill="url(#linear-gradient-10)"/>
    <path d="M364.66,37.19c-2.8-13.36-22.82-20-37-19.82-14,.22-23.9,11.85-25.41,19.82-.64,3.23,1.94,3.66,2.8.86.65-1.94,1.94-11.2,14.86-10.13s12.27,12.71,18.73,13.79C344.64,42.79,351.52,38.48,364.66,37.19Z" fill="url(#linear-gradient-11)"/>
    <path d="M320.54,45.1l-.67-1.35a40.1,40.1,0,0,1,10.7-4.59l.86,2.21A47,47,0,0,0,320.54,45.1Z" fill="#402b2b"/>
    <path d="M357.19,50.77c-2.58-3.61-8.73-7.72-8.64-7.91l1.7-1.58c.2.09,5.67,4.12,8.37,8.49Z" fill="#402b2b"/>
    <path d="M336.24,52.91s-.65,4.52-2.37,5.81-4.73,2.37-5.17,3.45c-.43.86.44,2.58,2.37,3.23s2.16,1.29,2.16,1.29-3.88.43-5.82-1.94.22-4.3,2.16-5.38a34.35,34.35,0,0,0,3.66-2.16C334.3,56.57,336.24,52.91,336.24,52.91Z" fill="#d87c60"/>
    <path d="M345.5,55.27c0,2.16,1.5,4.1,3.44,4.1s3.45-1.73,3.45-4.1c0-2.15-1.51-4.09-3.45-4.09S345.5,52.9,345.5,55.27Z" fill="#402b2b"/>
    <path d="M321.81,52.47c0,2.16,1.51,4.1,3.45,4.1s3.44-1.73,3.44-4.1c0-2.15-1.5-4.09-3.44-4.09A4,4,0,0,0,321.81,52.47Z" fill="#402b2b"/>
    <path d="M310.14,220.68a31.57,31.57,0,0,1-3.72-18.6C308.48,205,312.12,212.74,310.14,220.68Z" fill="#644545"/>
    <path d="M385.11,210.57c15.72-22.83,17.87-92,17.87-92-14.46,1.88-21.37,16.19-25.81,25.39-2.16,4.5-3.74,7.77-5.32,7.77l-6.67,42.34L298.58,206l-.16.23c-3.28.09-14.67.73-22.1,5.46,0,0-3.86,2.89-1.64,4.92,1.06,1.15.72,2.4.38,3.66s-.67,2.5.39,3.66a4.93,4.93,0,0,1,1.17,3,4.32,4.32,0,0,0,2.48,3.87,4.3,4.3,0,0,0,2.41,4.33l.4.18c2.95,1.33,8.7,3.92,9.81,2.91.41-.38,1.45-1.13,2.61-2,2.07-1.51,4.55-3.31,4.61-3.8.1-.78-.1-2.12-2.6-2.32a14.63,14.63,0,0,0,4.91-2.21c2.6-1.54,5.39-5.58,5.39-5.58l2.54-5.79C370.89,221.77,385.11,210.57,385.11,210.57Z" fill-rule="evenodd" fill="url(#linear-gradient-12)"/>
    <path d="M367,150.26l-6,31.67-2.71,8-52.07,12.19a38.4,38.4,0,0,1,3.72,18.6c11.57,1.24,43.77,1.36,65.09-3.1,5.73-1.1,12.4-6.82,20.85-27.69,19.16-65.9,3.66-75.6,3.66-75.6C378,117.09,367,150.26,367,150.26Z" fill="url(#linear-gradient-13)"/>
  </g>
  <g id="thinking-box">
    <path d="M230,178.53s24.7,25.41,4.34,31-39.63-10.83-65.67-6.39C124,210.76,50.74,220.68,11.06,146.29c-49.59-93,79.83-130.17,145.06-130.17,78.24,0,109.1,33.47,116.53,79.34C278.61,132.16,246.09,167.37,230,178.53Z" fill="url(#linear-gradient-14)"/>
    <path d="M135.91,127.24l1.2-25.58a25,25,0,0,0,12-6.83,20.46,20.46,0,0,0,5.56-12.6q.88-9-1.85-14.39-2.72-5.57-7.58-6a8,8,0,0,0-6.92,2.34A24,24,0,0,0,134,71.87l-2.62,7q-1.83,4.95-5.29,6.88a9.44,9.44,0,0,1-6.79,1A9.59,9.59,0,0,1,113.68,83a11.16,11.16,0,0,1-1.74-7.88,14.27,14.27,0,0,1,5.29-9.9,29.94,29.94,0,0,1,11.85-5.63,42.41,42.41,0,0,1,14.37-1q14.87,1.47,22.62,8.74,7.91,7.27,6.63,20.15A25.68,25.68,0,0,1,167,102a33.86,33.86,0,0,1-12,8.94,65.05,65.05,0,0,1-14.42,4.47l-1.94,12Zm-3.4,35.94A12.75,12.75,0,0,1,121,149a13,13,0,0,1,14.08-11.61,11.64,11.64,0,0,1,8.6,4.78,12.38,12.38,0,0,1,2.79,9.35,12.55,12.55,0,0,1-4.58,8.76A11.85,11.85,0,0,1,132.51,163.18Z" fill="#fff"/>
  </g>
  <g mask="url(#mask)">
    <g>
      <g id="truck">
        <g id="line">
          <path d="M708,341c-35.29-21.39-14.49-81.61,0-131.84" fill="none" stroke-width="2" opacity="0.7" stroke="url(#linear-gradient-15)" style="isolation: isolate"/>
          <path d="M708,135.25c-3.59-1.85-8.24-2.76-14.15-2.57-84.23,2.64-147.4,266.47-223.73,255.91s68.44-189.95,0-189.95S356.94,441.36,262.18,441.36c-13.37,0-20.87-3.94-24.18-10.74-3-6.13-2.59-14.6,0-24.6,14.84-57.41,101.2-165.37,24.18-173.09a126,126,0,0,0-24.18,0c-76,7-149.14,78-178.49,116.13" fill="none" stroke-width="2" opacity="0.7" stroke="url(#linear-gradient-16)" style="isolation: isolate"/>
        </g>
        <path d="M506.14,446.31c0,27.54-15.85,49.78-35.34,49.78H435.47c-19.49,0-35.15-22.43-35.15-49.78,0-27.53,15.84-49.77,35.33-49.77H470.8C490.47,396.54,506.14,418.78,506.14,446.31Z" fill="#f48767"/>
        <path d="M667.86,381.77l-184.31-.36.36-167.19A12.25,12.25,0,0,1,496.3,202l172.11.37Z" fill="#f48767"/>
        <polygon points="708 202.63 708 382.03 668.05 381.95 668.41 202.55 708 202.63" fill="#f06a5b"/>
        <path d="M708,397.49v98.78c-17.44-3-30.84-24.11-30.84-49.41,0-1.69.06-3.37.18-5a67.25,67.25,0,0,1,1.39-9.73C682.77,413.75,694.14,400,708,397.49Z" fill="#402b2b"/>
        <polygon points="678.73 432.12 708 432.17 708 441.92 677.34 441.85 643.21 441.76 643.09 441.76 659.49 432.09 678.73 432.12" fill="#402b2b"/>
        <path d="M708,360.55v71.63l-29.27-.06-19.24,0-16.28,9.67-16.87,10-235-.54a6.92,6.92,0,0,1-6.92-6.93l.18-84.42Z" fill="#f36f49"/>
        <path d="M529.45,446.31c0,27.54,15.66,49.78,35.15,49.78h35.15V479.31c12.93,0,23.49-14.76,23.49-33s-10.38-33-23.31-33V396.54H564.78C545.29,396.72,529.63,419,529.45,446.31Z" fill="#f48767"/>
        <path d="M628.89,446.68c0,22.61-12.93,40.84-29,40.66-16,0-28.78-18.23-28.78-40.84s12.93-40.84,29-40.66C616,405.84,628.89,424.07,628.89,446.68Z" fill="#f48767"/>
        <path d="M599.93,473.48c-10.56,0-18.94-12-18.94-27s8.56-26.81,19.12-26.81,18.95,12,18.95,27S610.49,473.48,599.93,473.48Zm0-42.85c-6.19,0-11.29,7.11-11.29,15.87s5.1,16,11.29,16,11.29-7.11,11.29-15.86C611.22,437.74,606.31,430.63,599.93,430.63Z" fill="#f7a58d"/>
        <path d="M599.93,496.27c-19.49,0-35.15-22.42-35.15-49.77s15.85-49.78,35.33-49.78,35.16,22.43,35.16,49.78S619.24,496.45,599.93,496.27Zm.18-90.43c-16,0-29,18.23-29,40.66,0,22.6,12.75,40.84,28.78,40.84s29-18.24,29-40.66C628.89,424.07,616,405.84,600.11,405.84Z" fill="#f7a58d"/>
        <path d="M604.85,446.5c0-3.83-2.19-6.75-4.74-6.75s-4.73,3.1-4.91,6.75c0,3.83,2.18,6.74,4.73,6.74C602.66,453.42,604.85,450.33,604.85,446.5Z" fill="#5b2929"/>
        <path d="M361.52,310.12a1.6,1.6,0,0,1-1.09,1.46,27.14,27.14,0,0,1-8.56-.19,1.74,1.74,0,0,1-1.46-1.64c-.55-14.58-.55-28.8,0-42.3a1.76,1.76,0,0,1,1.46-1.64c1.82-.54,8.19-.91,10.2-.18a1.74,1.74,0,0,1,1.27,1.64A311.58,311.58,0,0,1,361.52,310.12Z" fill="#f69276"/>
        <path d="M370.44,323.06a1.41,1.41,0,0,1-.73-.18l-12.38-6.2a8.51,8.51,0,0,1-4.74-7.66l.19-45.76a3.26,3.26,0,0,1,3.27-3.28h34.06a1.46,1.46,0,1,1,0,2.92H356.05a.18.18,0,0,0-.18.18l-.18,45.76a5.5,5.5,0,0,0,3.1,4.93L371.17,320a1.54,1.54,0,0,1,.73,2A1.44,1.44,0,0,1,370.44,323.06Z" fill="#f69276"/>
        <path d="M643.09,381.41h-41c-21.68,0-26.78,10.75-40.07,37.19L520,418.42V410l-160.64-.36c-.73-13.31-2.18-40.3-2.18-65.82V341.3A90.34,90.34,0,0,1,360.61,318c8.56-31.36,30.23-64.73,39.16-76.94,2.91-4,5.46-7.48,7.65-10.58,6.19-8.2,10.38-12.4,18.21-12.4l194.7.55a9.18,9.18,0,0,1,8.74,6.56C645.83,286.78,643.28,333.64,643.09,381.41ZM479,240.29a1.39,1.39,0,0,0-1.45-1.64l-59.2-.19a11.32,11.32,0,0,0-9.1,4.93c-23.13,31.54-32.42,60.35-35.88,76.94l-3.65,17.5a3.59,3.59,0,0,0,3.65,4.56h14.38a9.83,9.83,0,0,0,6.74-2.92L424,311.21a17.66,17.66,0,0,1,11.84-4.92h35.33Z" fill="#f36f49"/>
        <path d="M509.59,318.51c-1.27,5.83-2.73,11.85-4,18.23a9.72,9.72,0,0,1-9.11,7.66c-57.55,2-105.27,2.18-139.33-.37v-2.55a90.34,90.34,0,0,1,3.46-23.34Z" fill="#f6977c"/>
        <path d="M616,238.83l-59.19-.18a9.15,9.15,0,0,0-8.2,4.92c-16.57,31.54-20,60.35-20,76.94V338a4.51,4.51,0,0,0,4.55,4.56h14.39a8,8,0,0,0,6.19-2.92l23.68-28.26a13.66,13.66,0,0,1,10.74-4.92h35.34l-5.65-66A1.68,1.68,0,0,0,616,238.83Z" fill="#f36f49"/>
        <path d="M643.09,381.41h-41c-21.68,0-26.78,10.75-40.07,37.19L520,418.42V410l-160.64-.36c-.73-13.31-2.18-40.3-2.18-65.82,34.06,2.55,82,2.55,139.33.36a9.69,9.69,0,0,0,9.1-7.66c1.28-6.38,2.74-12.58,4-18.23a452.7,452.7,0,0,1,27.69-83.14,3.1,3.1,0,0,0-2.74-4.37l-127.12-.37c6.19-8.2,10.38-12.4,18.21-12.4l194.7.55a9.18,9.18,0,0,1,8.74,6.56C645.83,286.78,643.28,333.64,643.09,381.41Zm-19.48-74.94-5.65-66a1.8,1.8,0,0,0-1.82-1.64L557,238.65a9.15,9.15,0,0,0-8.2,4.92c-16.57,31.54-20,60.35-20,76.94V338a4.51,4.51,0,0,0,4.55,4.56h14.39a8,8,0,0,0,6.19-2.92l23.68-28.26a13.63,13.63,0,0,1,10.74-4.92Z" fill="#f7a58d"/>
        <path d="M636,376.67a4.75,4.75,0,0,1-4.91,4.74h-29c-21.68,0-26.78,10.75-40.07,37.19L520,418.42V410l.19-73.84c0-36.65,6.55-59.8,23.86-96.45a15.71,15.71,0,0,1,14.2-8.93l62.66.18a3,3,0,0,1,2.91,2.19C636.18,280.22,636.18,356.79,636,376.67Zm-12.38-70.2-5.65-66a1.8,1.8,0,0,0-1.82-1.64L557,238.65a9.15,9.15,0,0,0-8.2,4.92c-16.57,31.54-20,60.35-20,76.94V338a4.51,4.51,0,0,0,4.55,4.56h14.39a8,8,0,0,0,6.19-2.92l23.68-28.26a13.68,13.68,0,0,1,10.75-4.92Z" fill="#f58a6b"/>
        <path d="M615.59,241l-58.82-.18a7.28,7.28,0,0,0-6.2,3.64c-17.12,32.64-19.85,61.63-19.85,75.85v17.5a2.41,2.41,0,0,0,2.37,2.37h14.39a5.92,5.92,0,0,0,4.55-2l23.68-28.26a16.46,16.46,0,0,1,12.57-5.84h32.78Zm.37-2.19a1.8,1.8,0,0,1,1.82,1.64l5.65,66H588.09a14.25,14.25,0,0,0-10.74,4.92l-23.68,28.26a8,8,0,0,1-6.19,2.92H533.09a4.51,4.51,0,0,1-4.55-4.56v-17.5c0-16.59,3.46-45.4,20-76.94a9.15,9.15,0,0,1,8.2-4.92Z" fill="#f7a58d"/>
        <path d="M520.16,375.21V410l-63.57-.18a110.32,110.32,0,0,1,5.1-26.07,9.11,9.11,0,0,1,7.29-6.2C483,375.94,500.85,375.21,520.16,375.21ZM391.57,409.85H360.06c-.55-7.66-1.09-20.06-1.64-34.09,7.65.36,14.75,1.09,21.13,2a9.11,9.11,0,0,1,7.28,6.2A116.46,116.46,0,0,1,391.57,409.85Z" fill="#f6977c"/>
        <path d="M520,445l-147.34-.37a18.27,18.27,0,0,1-18.21-18.23v-3.1a5.08,5.08,0,0,1,5.1-5.1l160.27.36Z" fill="#f6977c"/>
        <path d="M547.11,445H520V418.6h41.71L557.13,437A10.3,10.3,0,0,1,547.11,445Z" fill="#f7a58d"/>
        <path d="M612,348.59c-6.19.18-18.21,1.46-18.21,5.83s10.56,5.84,19.12,5.84,9.47-4.74,10.2-6.75C623.61,351.51,624.16,348.41,612,348.59Z" fill="#f6977c"/>
        <path d="M611.41,353.33c2.91,0,6-.91,7.46-2.37a11.37,11.37,0,0,0-5.28-1.1c-4.74,0-12.38.55-16.39,2.37a7.92,7.92,0,0,0,4.37,1.1Z" fill="#f47b58"/>
        <path d="M599.2,356.79a2.92,2.92,0,0,0-1.82.37c3.28,1.46,9.29,2,12.2,2,4.19,0,7.11,0,8-.91a7.39,7.39,0,0,0-4-1.46C611.41,357,600.66,356.79,599.2,356.79Z" fill="#f47b58"/>
        <path d="M520,410.21v8.39l-160.09-.36s-.18-3.1-.55-8.39Z" fill="#f58a6b"/>
        <g opacity="0.2">
          <path d="M450.94,373.38v34.83L397.21,408V373.2c0-4.19,3.83-7.47,8.56-7.47h36.8C447.12,365.91,450.94,369.37,450.94,373.38Z" fill="#f16036"/>
        </g>
        <path d="M379.18,406.93H367.89a5.48,5.48,0,0,1-5.46-5.47v-5.65a5.48,5.48,0,0,1,5.46-5.47h11.29a5.48,5.48,0,0,1,5.47,5.47v5.65A5.48,5.48,0,0,1,379.18,406.93Z" fill="#fff"/>
        <path d="M486.1,407.3H474.81a5.48,5.48,0,0,1-5.47-5.47v-5.66a5.48,5.48,0,0,1,5.47-5.46H486.1a5.48,5.48,0,0,1,5.46,5.46v5.66A5.48,5.48,0,0,1,486.1,407.3Z" fill="#fff"/>
        <path d="M559,310.48a1.58,1.58,0,0,1-1.09,1.46,100.91,100.91,0,0,1-22.22-.18,1.6,1.6,0,0,1-1.46-1.64c-.54-14.59-.54-28.81,0-42.3a1.75,1.75,0,0,1,1.46-1.64,104.59,104.59,0,0,1,23.86,0,1.74,1.74,0,0,1,1.27,1.64A284.11,284.11,0,0,1,559,310.48Z" fill="#f7a58d"/>
        <path d="M530.72,323.43a1.38,1.38,0,0,1-1.27-.91,1.53,1.53,0,0,1,.73-2l12.38-6a5.7,5.7,0,0,0,3.1-4.92l.18-45.76a.18.18,0,0,0-.18-.18H538a1.46,1.46,0,0,1,0-2.92h7.65a3.27,3.27,0,0,1,3.28,3.28l-.19,45.76a8.5,8.5,0,0,1-4.73,7.66l-12.39,6Z" fill="#f69276"/>
        <path d="M447.19,447.2l-51.54-.12,0-15.49,51.54.11Z" fill="#f8b4a0"/>
        <path d="M537.63,235.73c-11.29,25.89-19.67,49.78-27.69,83.14l-149-.36c8.56-31.36,30.23-64.73,39.16-76.94,2.91-4,5.46-7.48,7.65-10.58l127.13.37A3.14,3.14,0,0,1,537.63,235.73Z" opacity="0.6" fill="url(#linear-gradient-17)" style="isolation: isolate"/>
      </g>
      <g id="lower-body">
        <path d="M296.62,254.94h83.75c.65,7.54,1.29,15.51,2.37,23.7-49.95.21-76.43-12.5-86.34-18.31A48.24,48.24,0,0,1,296.62,254.94Z" fill="#402b2b" fill-opacity="0.45"/>
        <path d="M296.3,253.54s-4.2,130.85-.11,278c0,0,12.27,11.63,35.52,3.88,0,0-.21-163.7,6-228.74,0,0,29.28,123.63,66.31,230.68,0,0,24.76,4.74,33.59-9.26,0,0-49.95-173.39-57.27-273.12Z" fill="url(#linear-gradient-18)"/>
      </g>
    </g>
  </g>
</svg>
