<svg xmlns="http://www.w3.org/2000/svg" xmlns:xlink="http://www.w3.org/1999/xlink" viewBox="0 0 750 1374"><defs><linearGradient id="g" x1="-151.83" y1="-278.43" x2="-150.16" y2="-278.43" gradientTransform="rotate(-140.49 -32375.164 -211421.782) scale(1273.21)" gradientUnits="userSpaceOnUse"><stop offset="0" stop-color="#ffedba"/><stop offset="1" stop-color="#ee4d47"/></linearGradient><linearGradient id="h" x1="-152.98" y1="-277.73" x2="-151.31" y2="-277.73" gradientTransform="rotate(90 -237223.41 -69277.58) scale(1100.16)" gradientUnits="userSpaceOnUse"><stop offset="0" stop-color="#f4a984"/><stop offset="1" stop-color="#f4a984" stop-opacity="0"/></linearGradient><linearGradient id="i" x1="-151.1" y1="-279.79" x2="-149.43" y2="-279.79" gradientTransform="rotate(-90 44724.165 -148148.145) scale(689.59)" gradientUnits="userSpaceOnUse"><stop offset="0" stop-color="#ffedba" stop-opacity="0"/><stop offset=".1" stop-color="#fee0b0" stop-opacity=".07"/><stop offset=".3" stop-color="#fabf96" stop-opacity=".24"/><stop offset=".57" stop-color="#f5896d" stop-opacity=".52"/><stop offset=".91" stop-color="#ed3f34" stop-opacity=".89"/><stop offset="1" stop-color="#eb2a24"/></linearGradient><linearGradient id="j" x1="-154.71" y1="-279.77" x2="-153.04" y2="-279.77" gradientTransform="matrix(.16 312.76 -312.76 .16 -86672.34 48652.73)" gradientUnits="userSpaceOnUse"><stop offset="0" stop-color="#fff" stop-opacity=".56"/><stop offset="1" stop-color="#fff" stop-opacity="0"/></linearGradient><linearGradient id="a" x1="-154.84" y1="-279.06" x2="-153.17" y2="-279.06" gradientTransform="matrix(.1 228.74 -228.74 .1 -63446.59 36157.45)" gradientUnits="userSpaceOnUse"><stop offset="0" stop-color="#fff" stop-opacity=".2"/><stop offset="1" stop-color="#fff" stop-opacity="0"/></linearGradient><linearGradient id="k" x1="548.68" y1="313.5" x2="866.28" y2="313.5" gradientTransform="matrix(1 0 0 -1 0 1374)" gradientUnits="userSpaceOnUse"><stop offset="0" stop-color="#2ca77f"/><stop offset=".24" stop-color="#2ca77f"/><stop offset="1" stop-color="#1b8877"/></linearGradient><linearGradient id="l" x1="671.4" y1="284.41" x2="757.44" y2="284.41" gradientTransform="matrix(1 0 0 -1 0 1374)" xlink:href="#a"/><linearGradient id="m" x1="757.09" y1="250.02" x2="804.1" y2="250.02" gradientTransform="matrix(1 0 0 -1 0 1374)" xlink:href="#a"/><linearGradient id="n" x1="658.14" y1="390.11" x2="709.94" y2="390.11" gradientTransform="matrix(1 0 0 -1 0 1374)" xlink:href="#a"/><linearGradient id="e" x1="-154.72" y1="-278.72" x2="-153.05" y2="-278.72" gradientTransform="rotate(90 -45831.05 -12350.17) scale(210.56)" gradientUnits="userSpaceOnUse"><stop offset="0" stop-color="#2ca77f"/><stop offset=".42" stop-color="#2ca77f"/><stop offset="1" stop-color="#1b8877"/></linearGradient><linearGradient id="o" x1="508.87" y1="335.04" x2="590.57" y2="335.04" gradientTransform="matrix(1 0 0 -1 0 1374)" xlink:href="#a"/><linearGradient id="b" x1="-164.88" y1="-279.49" x2="-163.21" y2="-279.49" gradientTransform="matrix(0 42.51 -42.51 0 -11167.34 7975.87)" gradientUnits="userSpaceOnUse"><stop offset="0" stop-color="#d3d86c"/><stop offset="1" stop-color="#82a637"/></linearGradient><linearGradient id="p" x1="-159.82" y1="-278.66" x2="-158.15" y2="-278.66" gradientTransform="rotate(90 -17167.43 -3916.56) scale(77.82)" xlink:href="#b"/><linearGradient id="q" x1="-156.95" y1="-277.95" x2="-155.28" y2="-277.95" gradientTransform="rotate(90 -23517.11 -5756.37) scale(106.71)" xlink:href="#b"/><linearGradient id="c" x1="-158.35" y1="-277.61" x2="-156.68" y2="-277.61" gradientTransform="matrix(0 80.51 -80.51 0 -21963.32 13804.47)" gradientUnits="userSpaceOnUse"><stop offset="0" stop-color="#084f15" stop-opacity="0"/><stop offset="1" stop-color="#084f15" stop-opacity=".3"/></linearGradient><linearGradient id="r" x1="-158.69" y1="-277.39" x2="-157.02" y2="-277.39" gradientTransform="rotate(90 -16922.34 -3799.86) scale(75.99)" xlink:href="#c"/><linearGradient id="s" x1="-160.04" y1="-276.92" x2="-158.38" y2="-276.92" gradientTransform="matrix(0 62.02 -62.02 0 -16845.91 11014.12)" xlink:href="#c"/><linearGradient id="t" x1="-163.73" y1="-275.66" x2="-162.06" y2="-275.66" gradientTransform="matrix(0 41.4 -41.4 0 -11107.69 7900.62)" xlink:href="#c"/><linearGradient id="u" x1="-179.08" y1="-270.5" x2="-177.41" y2="-270.5" gradientTransform="rotate(90 -4337.02 -70.83) scale(17.33)" xlink:href="#c"/><linearGradient id="v" x1="-158.69" y1="-277.71" x2="-157.03" y2="-277.71" gradientTransform="matrix(0 75.99 -75.99 0 -20686.07 13122.48)" xlink:href="#c"/><linearGradient id="w" x1="-160.04" y1="-277.67" x2="-158.38" y2="-277.67" gradientTransform="rotate(90 -13895.47 -2881.26) scale(62.02)" xlink:href="#c"/><linearGradient id="d" x1="-163.73" y1="-277.25" x2="-162.06" y2="-277.25" gradientTransform="rotate(90 -9454.97 -1554.35) scale(41.4)" gradientUnits="userSpaceOnUse"><stop offset="0" stop-color="#084f15" stop-opacity="0"/><stop offset="1" stop-color="#084f15"/></linearGradient><linearGradient id="x" x1="-159.41" y1="-278.34" x2="-157.74" y2="-278.34" gradientTransform="matrix(0 67.9 -67.9 0 -18364.51 11902.46)" xlink:href="#b"/><linearGradient id="y" x1="-161.6" y1="-278.01" x2="-159.94" y2="-278.01" gradientTransform="matrix(0 51.18 -51.18 0 -13693.7 9376.31)" xlink:href="#c"/><linearGradient id="z" x1="-162.14" y1="-277.91" x2="-160.47" y2="-277.91" gradientTransform="rotate(90 -10924.73 -1982.1) scale(48.3)" xlink:href="#c"/><linearGradient id="A" x1="-164.28" y1="-277.43" x2="-162.61" y2="-277.43" gradientTransform="rotate(90 -9021.68 -1418.85) scale(39.43)" xlink:href="#c"/><linearGradient id="B" x1="-170.08" y1="-276.25" x2="-168.41" y2="-276.25" gradientTransform="rotate(90 -6198.63 -581.04) scale(26.29)" xlink:href="#c"/><linearGradient id="C" x1="-194.22" y1="-271.87" x2="-192.55" y2="-271.87" gradientTransform="matrix(0 11.01 -11.01 0 -2525.91 3310.4)" xlink:href="#c"/><linearGradient id="D" x1="-162.16" y1="-278.18" x2="-160.5" y2="-278.18" gradientTransform="matrix(0 48.22 -48.22 0 -12859.44 8930.1)" xlink:href="#c"/><linearGradient id="E" x1="-164.28" y1="-278.17" x2="-162.61" y2="-278.17" gradientTransform="matrix(0 39.43 -39.43 0 -10396.6 7602.83)" xlink:href="#c"/><linearGradient id="F" x1="-170.08" y1="-277.84" x2="-168.41" y2="-277.84" gradientTransform="rotate(90 -6167.39 -549.71) scale(26.29)" xlink:href="#c"/><linearGradient id="G" x1="-194.22" y1="-276.8" x2="-192.55" y2="-276.8" gradientTransform="rotate(90 -2877.51 432.89) scale(11.01)" xlink:href="#c"/><linearGradient id="H" x1="-160.69" y1="-275.46" x2="-159.02" y2="-275.46" gradientTransform="rotate(90 -15146.73 -3413.84) scale(67.63)" xlink:href="#b"/><linearGradient id="I" x1="-159.79" y1="-275.4" x2="-158.12" y2="-275.4" gradientTransform="matrix(0 63.87 -63.87 0 -17500.02 11296.75)" xlink:href="#b"/><linearGradient id="J" x1="-156.36" y1="-276.64" x2="-154.69" y2="-276.64" gradientTransform="rotate(90 -24722.865 -6121.095) scale(111.82)" xlink:href="#d"/><linearGradient id="K" x1="-160.74" y1="-274.58" x2="-159.07" y2="-274.58" gradientTransform="matrix(0 55.58 -55.58 0 -15219.51 10055.08)" xlink:href="#e"/><linearGradient id="L" x1="-2195.33" y1="105.5" x2="1462.31" y2="105.5" gradientTransform="matrix(1 0 0 -1 0 1374)" gradientUnits="userSpaceOnUse"><stop offset="0" stop-color="#eeef99"/><stop offset=".28" stop-color="#eeef99"/><stop offset=".77" stop-color="#b9d079"/><stop offset="1" stop-color="#b9d079"/></linearGradient><linearGradient id="M" x1="-154.01" y1="-279.51" x2="-153.27" y2="-279.51" gradientTransform="matrix(0 211.58 -211.58 0 -58730.98 33811.61)" gradientUnits="userSpaceOnUse"><stop offset="0" stop-color="#fff" stop-opacity=".7"/><stop offset="1" stop-color="#fff" stop-opacity="0"/></linearGradient><linearGradient id="N" x1="-281.7" y1="99.5" x2="775.9" y2="99.5" gradientTransform="matrix(1 0 0 -1 0 1374)" gradientUnits="userSpaceOnUse"><stop offset="0" stop-color="#82a637" stop-opacity=".1"/><stop offset=".16" stop-color="#82a637" stop-opacity=".1"/><stop offset=".89" stop-color="#1b8877" stop-opacity=".1"/><stop offset="1" stop-color="#1b8877" stop-opacity=".1"/></linearGradient><clipPath id="f"><path fill="none" d="M.1-.1h750v1335H.1z"/></clipPath></defs><g clip-path="url(#f)"><path d="M1001.5-.4h-2135.9v1330.8H835.3c91.8 0 166.2-74.5 166.2-166.3z" fill="url(#g)"/><path d="M1099.6 568.7H1051a6.82 6.82 0 00-6.8 6.8v406.3a9.3 9.3 0 11-18.6 0V722.2a16.55 16.55 0 00-16.52-16.6H991.5a16.55 16.55 0 00-16.6 16.52v16.38a16.55 16.55 0 01-16.52 16.6H848.7a12.62 12.62 0 00-12.6 12.66v7a5.59 5.59 0 01-5.58 5.6 5.59 5.59 0 00-5.6 5.58v90.46a13.76 13.76 0 01-13.72 13.8h-.08A13.84 13.84 0 00797.3 904v60.3a16.62 16.62 0 01-16.6 16.6h-1.6a16.62 16.62 0 00-16.6 16.6v88.1a6.2 6.2 0 01-12.4 0V574.9a5.12 5.12 0 00-5.1-5.1 5.12 5.12 0 01-5.1-5.1V520a8.72 8.72 0 00-8.7-8.7 8.72 8.72 0 01-8.7-8.7v-43.3a5.85 5.85 0 00-5.8-5.9h-.1a5.85 5.85 0 01-5.9-5.8V412a16.55 16.55 0 00-16.52-16.6H651.8a16.62 16.62 0 00-16.6 16.6v35.5a5.85 5.85 0 01-5.8 5.9h-.1a5.85 5.85 0 00-5.9 5.8v43.5a8.72 8.72 0 01-8.7 8.7 8.72 8.72 0 00-8.7 8.7v45a4.24 4.24 0 01-4.2 4.2 4.24 4.24 0 00-4.2 4.2v348a9.85 9.85 0 01-9.88 9.8 9.85 9.85 0 00-9.8 9.88v138.5a12.08 12.08 0 01-12.06 12.1h-11a1.11 1.11 0 01-1.1-1.1 1.11 1.11 0 00-1.1-1.1h-3.7a2 2 0 01-1.6-2.3 1.91 1.91 0 011.6-1.6h2a2.8 2.8 0 000-5.6h-1.8a2.34 2.34 0 01-2.3-2.3 2.26 2.26 0 012.22-2.3h1.78a2.81 2.81 0 10.65-5.58h-2.55a2 2 0 01-1.6-2.3 1.91 1.91 0 011.6-1.6h2a2.8 2.8 0 100-5.6h-2a2 2 0 01-1.6-2.3 1.91 1.91 0 011.6-1.6h2a2.81 2.81 0 00.4-5.6H549a2 2 0 01-1.6-2.3 1.91 1.91 0 011.6-1.6h2a2.81 2.81 0 00.4-5.6h-2.3a2 2 0 110-4h2a2.81 2.81 0 00.4-5.6h-2.3a2 2 0 01-1.6-2.3 1.91 1.91 0 011.6-1.6h2a2.81 2.81 0 00.4-5.6h-2.3a2 2 0 010-4h2a2.81 2.81 0 002.5-3.09 2.87 2.87 0 00-2.2-2.5h-2.3a2 2 0 01-1.6-2.3 1.91 1.91 0 011.6-1.6h2a2.81 2.81 0 10.65-5.58h-2.55a2 2 0 01-1.6-2.3 1.91 1.91 0 011.6-1.6h2a2.8 2.8 0 002.8-2.8 2.86 2.86 0 00-2.8-2.8h-.5a3.37 3.37 0 01-3.4-3.34v-1.19a3.37 3.37 0 013.34-3.4h.66a2.81 2.81 0 10.65-5.58h-2.55a2 2 0 01-1.6-2.3 1.91 1.91 0 011.6-1.6h2a2.8 2.8 0 002.8-2.8 2.86 2.86 0 00-2.8-2.8h-2a2 2 0 01-1.6-2.3 1.91 1.91 0 011.6-1.6h2a2.81 2.81 0 00.4-5.6h-2.3a2 2 0 01-1.6-2.3 1.91 1.91 0 011.6-1.6h2a2.8 2.8 0 002.8-2.8 2.86 2.86 0 00-2.8-2.8h-2a2 2 0 01-1.6-2.3 1.91 1.91 0 011.6-1.6h2a2.85 2.85 0 00.3-5.7h-2.3a2 2 0 01-1.6-2.3 1.91 1.91 0 011.6-1.6h2a2.81 2.81 0 00.4-5.6h-2.3a2 2 0 010-4h2a2.81 2.81 0 10.65-5.58h-2.55a2 2 0 01-1.6-2.3 1.91 1.91 0 011.6-1.6h2a2.81 2.81 0 10.65-5.58H550a2 2 0 01-1.6-2.3 1.91 1.91 0 011.6-1.6h2a2.8 2.8 0 002.8-2.8A2.86 2.86 0 00552 904h-2a2 2 0 01-1.6-2.3 1.91 1.91 0 011.6-1.6h2a2.81 2.81 0 00.4-5.6h-2.3a2 2 0 01-1.6-2.3 1.91 1.91 0 011.6-1.6h2a2.81 2.81 0 00.4-5.6h-2.3a2 2 0 010-4h2a2.81 2.81 0 00.4-5.6h-2.3a2 2 0 01-1.6-2.3 1.91 1.91 0 011.6-1.6h2a2.81 2.81 0 10.65-5.58h-1.15a3.37 3.37 0 01-3.4-3.34V859a3.37 3.37 0 013.34-3.4h.66a2.8 2.8 0 002.8-2.8 2.86 2.86 0 00-2.8-2.8h-2a2 2 0 01-1.6-2.3 1.91 1.91 0 011.6-1.6h2a2.81 2.81 0 10.65-5.58h-2.55a2 2 0 01-1.6-2.3 1.91 1.91 0 011.6-1.6h2a2.81 2.81 0 00.4-5.6h-2.3a2.11 2.11 0 01-1.7-2.3 2 2 0 011.7-1.7h2a2.8 2.8 0 002.6-3 2.88 2.88 0 00-2.3-2.6h-.9a3.37 3.37 0 01-3.4-3.34v-3.78a2.48 2.48 0 00-2.46-2.5 2.48 2.48 0 01-2.5-2.46v-3.74a6.23 6.23 0 00-6.2-6.2h-.5a6.82 6.82 0 01-6.8-6.8v-18a5.12 5.12 0 00-5.1-5.1 5.12 5.12 0 01-5.1-5.1v-19.1a16.67 16.67 0 00-13.1-16.2l-17.9-3.9a9.43 9.43 0 01-7.3-9.2v-52.5a2 2 0 00-3.8-1.24 2.05 2.05 0 00-.1.54v53.8a5 5 0 01-4.9 5.1h-.1a4.83 4.83 0 01-1.2-.1 5.19 5.19 0 00-6.1 3.8 4.07 4.07 0 00-.1 1.1v39a4.24 4.24 0 01-4.2 4.2 4.24 4.24 0 00-4.2 4.2v18.9a6.82 6.82 0 01-6.8 6.8H447a5.5 5.5 0 00-5.4 5.3v2.8a2.48 2.48 0 01-2.46 2.5 2.48 2.48 0 00-2.5 2.46V815a4.8 4.8 0 01-4.8 4.8H382.3a16.62 16.62 0 00-16.6 16.6v29.2a16.62 16.62 0 01-16.6 16.6h-41a17.32 17.32 0 00-6 1.1L251.6 903a4.48 4.48 0 00-2.8 4.2v19.5a4.49 4.49 0 004.46 4.5h1.14a3.4 3.4 0 110 6.8h-2.3a3.4 3.4 0 000 6.8h2.3a3.4 3.4 0 010 6.8h-2.3a3.4 3.4 0 000 6.8h2.3a3.41 3.41 0 01.4 6.8h-2.6a3.4 3.4 0 100 6.8h2.31a3.4 3.4 0 110 6.8h-2.31a3.4 3.4 0 100 6.8h3.11a2.55 2.55 0 010 5.1H204a16.51 16.51 0 01-15.6-10.9l-13.3-36.1a7.24 7.24 0 00-13.6 0c-2.8 7.7-14.7 5.5-14.6-2.7v-40.4c0-22.5 0-45.1-.6-67.6 0-9.6-.6-19.7-.6-29.3-.6-20.8-1.1-41.7-2.3-63.1-.6-10.1-.6-20.3-1.1-30.4-1.1-19.7-1.7-38.9-2.8-58.6 0-2.3-.6-4.5-.6-6.8-1.1-17.5-2.3-34.3-3.4-51.8-2.3-31.5-5.1-63.1-7.9-94.6-.2-2.9-.5-5.8-.8-8.8a17.13 17.13 0 00-17-15.4H4.6c-8.1 0-15.3 6-15.3 14.1-.6 6.8-1.1 13.5-1.7 20.3-.6 5.6-1.1 11.8-1.7 17.5-1.1 10.7-1.7 21.4-2.8 32.1-.6 5.1-.6 9.6-1.1 14.7-.6 9-1.1 18-2.3 27a71.1 71.1 0 00-.6 11.3c-.6 11.8-1.7 23.7-2.3 34.9 0 3.9-.6 7.9-.6 11.8-.6 12.4-1.1 24.2-1.7 36.6 0 2.8-.6 5.1-.6 7.9-.6 11.3-1.1 23.1-1.7 34.3v6.8c-.6 13-1.1 25.9-1.1 38.9v7.9c-.6 13.5-.6 27-1.1 40v1.7c0 13.5-.6 27-.6 40v63a12.08 12.08 0 01-12.06 12.1 12.08 12.08 0 00-12.1 12.06v135.2a14.45 14.45 0 01-14.3 14.4h-13a1.37 1.37 0 01-1.4-1.34v-.06a1.37 1.37 0 011.34-1.4H-81a2.48 2.48 0 002.5-2.46v-1.1a2.48 2.48 0 00-2.46-2.5 2.48 2.48 0 01-2.5-2.46v-2.34a2.48 2.48 0 012.46-2.5 2.48 2.48 0 002.5-2.46V1089a2.48 2.48 0 00-2.46-2.5 2.48 2.48 0 01-2.5-2.46v-2.8a2.48 2.48 0 012.46-2.5 2.48 2.48 0 002.5-2.46v-1.1a2.48 2.48 0 00-2.46-2.5 2.48 2.48 0 01-2.5-2.46v-2.8a2.48 2.48 0 012.46-2.5 2.48 2.48 0 002.5-2.46v-1.14a2.48 2.48 0 00-2.46-2.5 2.48 2.48 0 01-2.5-2.46v-2.8a2.48 2.48 0 012.46-2.5 2.48 2.48 0 002.5-2.46v-1.14a2.48 2.48 0 00-2.46-2.5 2.48 2.48 0 01-2.5-2.46v-2.8A2.48 2.48 0 01-81 1037a2.48 2.48 0 002.5-2.46v-1.14a2.48 2.48 0 00-2.46-2.5 2.48 2.48 0 01-2.5-2.46v-2.8a2.48 2.48 0 012.46-2.5 2.48 2.48 0 002.5-2.46v-1.24a2.48 2.48 0 00-2.46-2.5 2.54 2.54 0 01-2.5-2.5v-2.8a2.48 2.48 0 012.46-2.5 2.48 2.48 0 002.5-2.46v-1.14A2.48 2.48 0 00-81 1003a2.48 2.48 0 01-2.5-2.46v-2.8a2.48 2.48 0 012.5-2.54 2.48 2.48 0 002.5-2.46v-1.2A2.48 2.48 0 00-81 989a2.48 2.48 0 01-2.5-2.46v-2.8a2.48 2.48 0 012.5-2.54 2.48 2.48 0 002.5-2.46v-1.14a2.48 2.48 0 00-2.5-2.5 2.48 2.48 0 01-2.5-2.46v-2.8a2.48 2.48 0 012.5-2.54 2.48 2.48 0 002.5-2.46v-3.4a2.48 2.48 0 00-2.5-2.54 2.48 2.48 0 01-2.5-2.46V952a2.48 2.48 0 012.5-2.5 2.48 2.48 0 002.5-2.5v-1.1a2.48 2.48 0 00-2.5-2.5 2.48 2.48 0 01-2.5-2.46v-3.4A2.48 2.48 0 01-81 935a2.48 2.48 0 002.5-2.46v-1.1a2.48 2.48 0 00-2.5-2.54 2.48 2.48 0 01-2.5-2.46v-2.8a2.48 2.48 0 012.5-2.54 2.48 2.48 0 002.5-2.46v-1.1A2.48 2.48 0 00-81 915a2.48 2.48 0 01-2.5-2.46v-2.8a2.48 2.48 0 012.5-2.54 2.48 2.48 0 002.5-2.46V903a2.48 2.48 0 00-2.5-2.5 2.48 2.48 0 01-2.5-2.5v-2.8a2.48 2.48 0 012.5-2.5 2.48 2.48 0 002.5-2.46v-1.1a2.48 2.48 0 00-2.5-2.54 2.48 2.48 0 01-2.5-2.46V881a2.48 2.48 0 012.5-2.5 2.48 2.48 0 002.5-2.5v-1.1a2.48 2.48 0 00-2.5-2.5 2.48 2.48 0 01-2.5-2.46V867a2.63 2.63 0 012.5-2.6 2.48 2.48 0 002.5-2.46v-1.1a2.48 2.48 0 00-2.5-2.54 2.48 2.48 0 01-2.5-2.46V853a2.48 2.48 0 012.5-2.5 2.48 2.48 0 002.5-2.5v-1.1a2.48 2.48 0 00-2.5-2.5 2.48 2.48 0 01-2.5-2.46v-2.8a2.48 2.48 0 012.5-2.54 2.48 2.48 0 002.5-2.46v-3.44a2.48 2.48 0 00-2.5-2.5 2.48 2.48 0 01-2.5-2.46v-2.8a2.48 2.48 0 012.5-2.54 2.63 2.63 0 002.6-2.5v-1.1a2.48 2.48 0 00-2.46-2.5 2.48 2.48 0 01-2.5-2.46V809a2.48 2.48 0 012.46-2.5 2.48 2.48 0 002.5-2.5v-1.2a2.48 2.48 0 00-2.46-2.5 2.48 2.48 0 01-2.5-2.46V795a2.48 2.48 0 012.46-2.5 2.48 2.48 0 002.5-2.5v-1.1a2.48 2.48 0 00-2.46-2.5 2.48 2.48 0 01-2.5-2.46v-9a2.48 2.48 0 012.46-2.5 2.48 2.48 0 002.5-2.46v-1.7a4.24 4.24 0 00-4.2-4.2h-8.2a3.91 3.91 0 01-3.9-3.9v-.9a3 3 0 013-3 3 3 0 003-3 2.79 2.79 0 00-.6-1.8l-20.2-27.2a12.87 12.87 0 00-10.2-5.2h-.3a12.46 12.46 0 01-12.4-12.4c0-1.3-1.1-2.7-1.1-4V670.3a2 2 0 00-2-2 2 2 0 00-2 2v32.5c0 1.2-1.1 2.7-1.1 3.9a12.4 12.4 0 01-12.4 12.4h-.3a12.79 12.79 0 00-10.2 5.1l-21.3 28.7a2.07 2.07 0 00.4 2.9 1.87 1.87 0 001.2.4 2.11 2.11 0 012.1 2.1v1.9a3.84 3.84 0 01-3.78 3.9H-191a4.24 4.24 0 00-4.2 4.2v1.2a3.12 3.12 0 003.1 3.1 3.12 3.12 0 013.1 3.1v7.9a3.12 3.12 0 01-3.1 3.1 3.12 3.12 0 00-3.1 3.1 3.12 3.12 0 003.1 3.1 3.12 3.12 0 013.1 3.1v1.7a3.12 3.12 0 01-3.1 3.1 3.12 3.12 0 00-3.1 3.1 3.12 3.12 0 003.1 3.1 3.12 3.12 0 013.1 3.1v1.7a3.12 3.12 0 01-3.1 3.1 3.12 3.12 0 00-3.1 3.1 3.12 3.12 0 003.1 3.1 3.12 3.12 0 013.1 3.1v1.7a3.12 3.12 0 01-3.1 3.1 3.12 3.12 0 00-3.1 3.1 3.12 3.12 0 003.1 3.1 3 3 0 013.1 2.9v1.9a3.12 3.12 0 01-3.1 3.1 3.12 3.12 0 00-3.1 3.1 3.12 3.12 0 003.1 3.1 3.12 3.12 0 013.1 3.1v1.7a3.18 3.18 0 01-3 3.2h-.1a3.12 3.12 0 00-3.1 3.1 3.12 3.12 0 003.1 3.1 3.12 3.12 0 013.1 3.1v1.7a3 3 0 01-3 3h-.1a3.12 3.12 0 00-3.1 3.1 3.12 3.12 0 003.1 3.1 3.12 3.12 0 013.1 3.1v1.7a3.12 3.12 0 01-3.1 3.1 3.12 3.12 0 00-3.1 3.1 3.12 3.12 0 003.1 3.1 3 3 0 013 3v1.8a3.12 3.12 0 01-3.1 3.1 3.12 3.12 0 00-3.1 3.1 3.12 3.12 0 003.1 3.1 3.12 3.12 0 013.1 3.1v1.7a3.12 3.12 0 01-3.1 3.1 3.12 3.12 0 00-3.1 3.1 3.12 3.12 0 003.1 3.1 3.12 3.12 0 013.1 3.1v1.7a3.12 3.12 0 01-3.1 3.1 3.12 3.12 0 00-3.1 3.1 3.12 3.12 0 003.1 3.1 3.12 3.12 0 013.1 3.1v1.8a3.12 3.12 0 01-3.1 3.1 3.12 3.12 0 00-3.1 3.1 3.12 3.12 0 003.1 3.1 3.12 3.12 0 013.1 3.1v1.6a3.12 3.12 0 01-3.1 3.1 3.12 3.12 0 00-3.1 3.1 3.12 3.12 0 003.1 3.1 3.12 3.12 0 013.1 3.1v1.7a3.12 3.12 0 01-3.1 3.1 3.12 3.12 0 00-3.1 3.1 3.12 3.12 0 003.1 3.1h2.3a.79.79 0 01.8.78.79.79 0 01-.78.8h-29.52a7.34 7.34 0 01-7.3-7.3V576l-.3-12.1a16.74 16.74 0 00-11.1-15.3l-16.8-5.8a8.44 8.44 0 00-10.7 5.1 9.22 9.22 0 00-.5 2.8v2.6a5.83 5.83 0 01-5.86 5.8 5.8 5.8 0 01-5.8-5.8v-.2l.7-36.5a16.63 16.63 0 00-12.6-16.5l-35.5-8.9a16.67 16.67 0 00-20.2 12 24.14 24.14 0 00-.5 2.8l-5.2 68.8-.6 7.9-.6 6.2-.6 7.9-.6 6.2-.6 7.9-.6 6.2-.6 7.9-.6 6.2-.6 7.9-.6 6.2-.6 7.9-.6 6.2-.6 7.9-.6 6.2-.6 7.9-.6 6.2-.6 7.9-.6 6.2-.6 7.9-.6 6.2-.6 7.9-.6 6.2v.4a16.75 16.75 0 01-6.4 12l-2.9 2.2a16.68 16.68 0 00-6.4 11.8l-.6 6.2-.6 7.9-.6 6.2-.6 7.9-.6 6.2-.6 7.9-.6 6.2-.6 7.3a2.8 2.8 0 01-2.8 2.8H-434a16.62 16.62 0 00-16.6 16.6v64.2a8.71 8.71 0 01-8.7 8.7 8.72 8.72 0 00-8.7 8.7v173.2a11.82 11.82 0 01-11.8 11.8 11.82 11.82 0 01-11.8-11.8V394.1a4.49 4.49 0 00-4.46-4.5 4.49 4.49 0 01-4.5-4.46V323.4a16.55 16.55 0 00-16.52-16.6h-95.72a16.62 16.62 0 00-16.6 16.6v62.2a4.49 4.49 0 01-4.46 4.5 4.49 4.49 0 00-4.5 4.46V694.5a8.24 8.24 0 01-8.2 8.2h-6.5a1.75 1.75 0 00-1.7 1.7v.5a1.11 1.11 0 01-1.1 1.1 1.11 1.11 0 00-1.1 1.1v6.2a1.11 1.11 0 001.1 1.1 1.11 1.11 0 011.1 1.1v.6a1.11 1.11 0 01-1.1 1.1 1.11 1.11 0 00-1.1 1.1v6.2a1.11 1.11 0 001.1 1.1 1.11 1.11 0 011.1 1.1v.6a1.11 1.11 0 01-1.1 1.1 1.11 1.11 0 00-1.1 1.1v6.2a1.12 1.12 0 001.1 1.1 1.11 1.11 0 011.1 1.1v.6a1.12 1.12 0 01-1.1 1.1 1.11 1.11 0 00-1.1 1.1v6.2a1.12 1.12 0 001.1 1.1 1.11 1.11 0 011.1 1.1v.6a1.12 1.12 0 01-1.1 1.1 1.1 1.1 0 00-1.1 1.1v6.2a1.12 1.12 0 001.1 1.1 1.1 1.1 0 011.1 1.1v.6a1.12 1.12 0 01-1.1 1.1 1.1 1.1 0 00-1.1 1.1v6.2a1.12 1.12 0 001.1 1.1 1.1 1.1 0 011.1 1.1v.6a1.12 1.12 0 01-1.1 1.1 1.1 1.1 0 00-1.1 1.1v6.2a1.12 1.12 0 001.1 1.1 1.1 1.1 0 011.1 1.1v.6a1.12 1.12 0 01-1.1 1.1 1.1 1.1 0 00-1.1 1.1v6.2a1.12 1.12 0 001.1 1.1 1.1 1.1 0 011.1 1.1v.6a1.12 1.12 0 01-1.1 1.1 1.1 1.1 0 00-1.1 1.1v6.2a1.12 1.12 0 001.1 1.1 1.1 1.1 0 011.1 1.1v.6a1.12 1.12 0 01-1.1 1.1 1.1 1.1 0 00-1.1 1.1v6.2a1.12 1.12 0 001.1 1.1 1.1 1.1 0 011.1 1.1v.6a1.12 1.12 0 01-1.1 1.1 1.1 1.1 0 00-1.1 1.1v6.2a1.12 1.12 0 001.1 1.1 1.1 1.1 0 011.1 1.1v.6a1.12 1.12 0 01-1.1 1.1 1.1 1.1 0 00-1.1 1.1v6.2a1.12 1.12 0 001.1 1.1 1.1 1.1 0 011.1 1.1v.6a1.12 1.12 0 01-1.1 1.1 1 1 0 00-1.09.89.41.41 0 000 .11v6.2a1.12 1.12 0 001.1 1.1 1.1 1.1 0 011.1 1.1v.6a1.12 1.12 0 01-1.1 1.1 1.1 1.1 0 00-1.1 1.1v6.2a1.12 1.12 0 001.1 1.1 1.1 1.1 0 011.1 1.1v.6a1.12 1.12 0 01-1.1 1.1 1.13 1.13 0 00-1.2 1.06v6.34a1.12 1.12 0 001.1 1.1 1.1 1.1 0 011.1 1.1v11.8a1.12 1.12 0 01-1.1 1.1 1.1 1.1 0 00-1.1 1.1v6.2a1.12 1.12 0 001.1 1.1 1.1 1.1 0 011.1 1.1v.6a1.12 1.12 0 01-1.1 1.1 1.1 1.1 0 00-1.1 1.1v1.4a2.48 2.48 0 01-2.46 2.5H-677a16.56 16.56 0 01-16.6-16.52V732.8a16.64 16.64 0 00-16.58-16.7H-776a16.55 16.55 0 00-16.6 16.52v88.48a14.4 14.4 0 01-14.4 14.4h-11a3.23 3.23 0 01-3.3-3.15 2.08 2.08 0 010-.25 3.37 3.37 0 00-3.34-3.4h-2.56a5.91 5.91 0 01-5.9-5.9V373.3a4.49 4.49 0 00-4.46-4.5 4.49 4.49 0 01-4.5-4.46V241.8a16.55 16.55 0 00-16.52-16.6H-981.3a16.62 16.62 0 00-16.6 16.6v122.5a4.49 4.49 0 01-4.46 4.5 4.49 4.49 0 00-4.5 4.46V969.2a10.71 10.71 0 01-10.7 10.7 10.71 10.71 0 01-10.7-10.7V755.5a16.55 16.55 0 00-16.52-16.6h-4.48a16.72 16.72 0 01-16.7-16.6V638a6.23 6.23 0 00-6.2-6.2 6.23 6.23 0 01-6.2-6.2V600a16.55 16.55 0 00-16.52-16.6h-142.42a16.55 16.55 0 00-16.6 16.52v25.68a6.23 6.23 0 01-6.2 6.2 6.23 6.23 0 00-6.2 6.2v366.3a16.55 16.55 0 01-16.52 16.6h-7.38a16.62 16.62 0 01-16.6-16.6V785.9a16.55 16.55 0 00-16.52-16.6h-115.88a16.72 16.72 0 00-16.7 16.6v125.9a16.3 16.3 0 01-16.3 16.3 16.3 16.3 0 00-16.3 16.3v128.5a9.57 9.57 0 01-9.5 9.6 9.6 9.6 0 01-9.6-9.6V630.1a3.84 3.84 0 00-3.78-3.9h-2.42a1.75 1.75 0 01-1.7-1.7 1.75 1.75 0 011.7-1.7h2.2a3.84 3.84 0 003.9-3.78v-3.52a3.84 3.84 0 00-3.78-3.9h-2.42a1.75 1.75 0 01-1.7-1.7 1.69 1.69 0 011.68-1.7h2.32a3.84 3.84 0 003.9-3.78v-3.62a3.84 3.84 0 00-3.78-3.9h-2.42a1.69 1.69 0 01-1.7-1.68 1.75 1.75 0 011.7-1.7h2.2a3.84 3.84 0 003.9-3.78v-3.54a3.84 3.84 0 00-3.78-3.9h-2.92a1.12 1.12 0 01-1.1-1.1 1.11 1.11 0 011.1-1.1h3.1a4.24 4.24 0 004.2-4.2v-2.8a4.24 4.24 0 00-4.2-4.2h-2.5a1.69 1.69 0 01-1.7-1.68 1.75 1.75 0 011.7-1.7h2.5a4.24 4.24 0 004.2-4.2v-2.8a4.24 4.24 0 00-4.2-4.2h-2.5a1.75 1.75 0 01-1.7-1.7 1.75 1.75 0 011.7-1.7h2.5a4.24 4.24 0 004.2-4.2v-2.8a4.24 4.24 0 00-4.2-4.2h-2.5a1.75 1.75 0 01-1.7-1.7 1.75 1.75 0 011.7-1.7h2.5a4.24 4.24 0 004.2-4.2V502a19.08 19.08 0 00-6.8-14.1c-16.8-14.9-40.5-46.6-41-90.3V395a4.8 4.8 0 00-4.8-4.8h-1.7a3.12 3.12 0 00-3.1 3.1 3.12 3.12 0 01-3.1 3.1h-3.7a6.82 6.82 0 01-6.8-6.8V301a2.48 2.48 0 00-2.46-2.5 2.48 2.48 0 00-2.5 2.46v94.64a1.37 1.37 0 01-1.34 1.4h-.06a1.37 1.37 0 01-1.4-1.34v-1.76a3.12 3.12 0 00-3.1-3.1h-3.9a3.12 3.12 0 00-3.1 3.1 3.12 3.12 0 01-3.1 3.1H-1611a3.12 3.12 0 01-3.1-3.1 3.12 3.12 0 00-3.1-3.1h-2a5.19 5.19 0 00-5.1 5.1v1.1c0 44.4-12.2 76.5-26.5 91.6-3.8 4-6.7 9.1-6.7 14.7v22.4a.32.32 0 00.3.3.27.27 0 01.3.24v5.96a5.19 5.19 0 005.1 5.1h3.4a1.75 1.75 0 011.7 1.7 1.75 1.75 0 01-1.7 1.7h-3.4a5.12 5.12 0 00-5.1 5.1v1.1a5.12 5.12 0 005.1 5.1h3.4a1.75 1.75 0 011.7 1.7 1.75 1.75 0 01-1.7 1.7h-3.6a5.34 5.34 0 00-5.3 5.3v.6a5.34 5.34 0 005.3 5.3h4.2a1.11 1.11 0 011.1 1.1 1.11 1.11 0 01-1.1 1.1h-4.2a5.27 5.27 0 00-5.3 5.24v.66a5.27 5.27 0 005.24 5.3h3.76a1.75 1.75 0 011.7 1.7 1.75 1.75 0 01-1.7 1.7h-3.7a5.34 5.34 0 00-5.3 5.3v.6a5.27 5.27 0 005.24 5.3h3.76a1.75 1.75 0 011.7 1.7 1.75 1.75 0 01-1.7 1.7h-3.7a5.34 5.34 0 00-5.3 5.3v.6a5.34 5.34 0 005.3 5.3h3.7a1.75 1.75 0 011.7 1.7 1.75 1.75 0 01-1.7 1.7h-3.7a5.27 5.27 0 00-5.3 5.24v.66a5.34 5.34 0 005.3 5.3h3.7a1.75 1.75 0 011.7 1.7 1.75 1.75 0 01-1.7 1.7h-3.9a5.59 5.59 0 00-5.6 5.58V854.7a15.77 15.77 0 01-15.74 15.8h-.06a15.75 15.75 0 00-15.8 15.7v95.5a8.72 8.72 0 01-8.7 8.7 8.72 8.72 0 00-8.7 8.7v87.9c0 3.6-4 5.4-7.6 5.3h-.6l-.6-.1a13.16 13.16 0 01-11.4-13.1V875.8a16.51 16.51 0 00-10-15.2l-3.6-1.6a2 2 0 00-1.1-.2h-.8a4.24 4.24 0 01-4.2-4.2v-2.3a2 2 0 00-2-2 2 2 0 00-2 2 2 2 0 01-2 2h-.2a1.75 1.75 0 00-1.7 1.7 1.67 1.67 0 01-1.6 1.7l-6.4.3a3 3 0 01-3.2-2.79V855a2.84 2.84 0 00-1.7-2.7l-1.5-.8a6.74 6.74 0 00-2.8-.6l-32.9 1a3.49 3.49 0 00-3.3 3.4 3.37 3.37 0 01-3.34 3.4h-.56a3.84 3.84 0 00-3.9 3.78v37.62a16.55 16.55 0 01-16.52 16.6h-29.28a16.55 16.55 0 01-16.6-16.52V636.9a7.34 7.34 0 00-7.3-7.3 7.34 7.34 0 01-7.3-7.3v-48.7a16.55 16.55 0 00-16.52-16.6h-25.08a9.6 9.6 0 01-9.6-9.6 9.57 9.57 0 00-9.5-9.6h-6.5a15.45 15.45 0 01-15.5-15.4v-.1a15.45 15.45 0 00-15.4-15.5h-95.8a16.67 16.67 0 00-16.5 16.6v16.8a16.55 16.55 0 01-16.52 16.6h-31a16.55 16.55 0 00-16.6 16.52V1058.8a16.55 16.55 0 01-16.52 16.6h-1.68a16.55 16.55 0 00-16.6 16.52V1108a16.3 16.3 0 01-16.3 16.3 16.3 16.3 0 01-16.3-16.3V985a16.55 16.55 0 00-16.52-16.6h-17.48a16.55 16.55 0 01-16.6-16.52V917.8a1 1 0 00-.6-.9 1 1 0 01-.6-.9v-5.9a11.13 11.13 0 00-2.2-6.5l-7.8-10.1a16.34 16.34 0 01-3.5-10.2v-10a5.83 5.83 0 00-1.7-4.1 5.65 5.65 0 01-1.7-4.1V841a.82.82 0 00-.84-.8h-.06a.79.79 0 00-.8.78v24.82a4.75 4.75 0 01-1.4 3.4 4.75 4.75 0 00-1.4 3.4V885a16.24 16.24 0 01-3 9.5l-7 10a9.94 9.94 0 00-1.8 5.7v3.3a3.74 3.74 0 01-1.7 3.2 3.74 3.74 0 00-1.7 3.2v1.5a5.91 5.91 0 01-2.8 5l-.7.4a4.39 4.39 0 00-2.1 3.8 4.25 4.25 0 01-2.3 3.8l-.8.5a5.86 5.86 0 00-3.1 5.2v51.6a10.76 10.76 0 01-10.72 10.8h-1.08a10.07 10.07 0 01-10.1-10v-103a16.55 16.55 0 00-16.52-16.6h-36.08a16.62 16.62 0 00-16.6 16.6v46.1a16.55 16.55 0 01-16.52 16.6h-10.68a16.62 16.62 0 00-16.6 16.6v33.8a5.27 5.27 0 01-5.24 5.3h-.06a5.36 5.36 0 00-5.4 5.3v63.1a4.24 4.24 0 01-4.2 4.2 4.24 4.24 0 01-4.2-4.2v-26.8a5.59 5.59 0 00-5.58-5.6 5.58 5.58 0 01-5.6-5.58V752.6a16.64 16.64 0 00-16.68-16.6h-79.62c-70.3 0-127.1 49.6-127.1 120v39.7a16.56 16.56 0 01-16.5 16.6h-6.58c-20.3 0-36.6 34.9-36.6 54.1v66.2a16.56 16.56 0 01-16.52 16.6h-26.48a16.55 16.55 0 01-16.6-16.52V970a16.62 16.62 0 00-16.6-16.6h-6.7a16.55 16.55 0 00-16.6 16.52v144.78a8.72 8.72 0 01-8.7 8.7 8.71 8.71 0 01-8.7-8.7v-81.1a4.8 4.8 0 00-4.8-4.8 4.8 4.8 0 01-4.8-4.8v-54a16.64 16.64 0 00-16.58-16.7h-2.32a16.62 16.62 0 01-16.6-16.6v-59.1a16.72 16.72 0 00-16.6-16.7h-43.8a16.62 16.62 0 00-16.6 16.6v335.6a16.55 16.55 0 0016.52 16.6H1100a16.55 16.55 0 0016.6-16.52V585.4a17.33 17.33 0 00-17-16.7zm-663 319a2 2 0 01-2 2h-3.7a.65.65 0 01-.6-.6v-1.4a2 2 0 012-2h2.3a2.15 2.15 0 012 2zm0-9.6a2 2 0 01-2 2h-2.2a2 2 0 01-1.6-2.3 1.91 1.91 0 011.6-1.6h2.3a1.9 1.9 0 011.9 1.9zm0-10.1a2 2 0 01-2 2h-2.2a2 2 0 01-1.6-2.3 1.91 1.91 0 011.6-1.6h2.3a1.9 1.9 0 011.9 1.9zm0-10.1a2 2 0 01-2 2h-2.2a2 2 0 01-.7-3.9h3a1.78 1.78 0 011.9 1.65 1 1 0 010 .25zm0-10.2a2 2 0 01-2 2h-2.2a2 2 0 01-1.6-2.3 1.91 1.91 0 011.6-1.6h2.3a1.9 1.9 0 011.9 1.9zm0-10.1a2 2 0 01-2 2h-2.2a2 2 0 01-.7-3.9h3a1.9 1.9 0 011.9 1.9zm0-9.6a2 2 0 01-2 2h-2.2a2 2 0 01-1.6-2.3 1.91 1.91 0 011.6-1.6h2.3a1.9 1.9 0 011.9 1.9z" fill="url(#h)"/><path d="M1001.5-4.4h-2135.9v1330.8H835.3c91.8 0 166.2-74.5 166.2-166.3z" fill="url(#i)"/><g data-name="bg circles"><path d="M1107.2 975.9c167.3-167.5 167.3-439 0-606.4s-438.5-167.4-605.7 0-167.3 439 0 606.4 438.4 167.4 605.7 0z" fill="url(#j)"/><path d="M591.6 1261c122.3-122.5 122.3-321 0-443.5s-320.7-122.5-443 0-122.3 321 0 443.5 320.6 122.4 443 0z" fill="url(#a)"/></g><path d="M859.5 1195.9H603.9c0-47 5.64-91.17 15.56-129.68q3.56-13.85 7.84-26.67c23.13-69.24 61.2-114.45 104.3-114.45a63 63 0 0117.68 2.56c38.19 11.18 71 58.06 90.67 124.26 12.39 41.69 19.55 91.08 19.55 143.98z" fill="url(#k)"/><path d="M619.46 1066.22h0C690.7 1031 749.91 962.93 766.1 990.1c17.7 29.7-156 152.3-97.8 146.3s130.3-142.3 153-120.6c20.86 19.94-122.54 149.33-115.94 180.1" fill="none" stroke-miterlimit="1.15" stroke-width="1.44" stroke="url(#l)"/><path d="M729.13 1195.9c29.2-21.25 73-92.38 110.82-144" fill="none" stroke-miterlimit="1.15" stroke-width="1.44" stroke="url(#m)"/><path d="M749.28 927.66v.14c2.27 19-71.85 73.6-122 111.75" fill="none" stroke-miterlimit="1.15" stroke-width="1.44" stroke="url(#n)"/><path d="M842.9 1195.9h16.6c0-149.7-57.3-270.8-127.9-270.8a57.62 57.62 0 00-8.3.6c66.7 8.9 119.6 126.4 119.6 270.2z" fill="#c9d983" fill-opacity=".3"/><path d="M505.2 902.2c-81.9 0-148.3 130.8-148.3 292.1h296.6c-.1-161.3-66.4-292.1-148.3-292.1z" fill="url(#e)"/><path d="M439.43 932.43c8.64 25.58-23.23 84 1.17 91.67 26.8 8.4 64.5-123.4 97.1-110.8s-140.7 216.5-80.4 224.1 87.9-174.5 113.9-162-58.6 110.8-29.4 139.3 44.4-105.7 67.8-90.6 6.7 90.6-15.9 141.8" fill="none" stroke-miterlimit="1.15" stroke-width="1.44" stroke="url(#o)"/><path d="M620.4 1194.3h33.2c-.2-161.3-66.4-292.1-148.3-292.1a77.22 77.22 0 00-16.6 1.8c74 16.2 131.6 140 131.7 290.3z" fill="#c9d983" fill-opacity=".2"/><path fill="#0c5e59" d="M713.8 1015.3h2.8v177.6h-2.8z"/><path d="M735.2 1004c-5.9 0-11.4 4.3-15.2 8.1 2.6-3.7 6.2-8.2 8.9-9a19.29 19.29 0 018.6-.8s-4.4-6.2-11-3.3c-2.9 1.2-5.3 5.3-7.1 9.3 1-3.7 1.8-8.1 1.1-12.1-1.7-10.2-12.9-11-12.9-11s6.3 8.8 7.4 19.1l.4 4c-1-5.9-3.3-13-9-16.9-14.2-9.5-23.2 7.1-23.2 7.1s8.1-5.1 18.8.3c8.5 4.3 12 13.3 13.2 17-1.4-2.7-7.3-13.2-16.6-14.7-14.1-2.3-17.7 15.5-17.7 15.5s8.1-6.4 18.1-6a26.53 26.53 0 0116 6 40.6 40.6 0 00-8.5-1.2c-12.5-.1-15.1 16.6-15.1 16.6l23.7-14.5a89.45 89.45 0 00-4.3 8.8c-1.6 3.8-.5 12.5-.5 12.5s3.8-6.6 4.9-10.8a33.06 33.06 0 00.7-10.4l16 17.4s4-10.6-8.2-15.6l-4.1-1.7a26.06 26.06 0 0110.1 4 49.42 49.42 0 0111.6 10.8s4.4-12.8-6.3-18a16.7 16.7 0 00-11-.7 15.16 15.16 0 0110-2c9.7 1.2 12.5 8.1 12.5 8.1s2.8-15.9-11.3-15.9z" fill="url(#b)"/><g><path fill="#0c5e59" d="M607.7 906.1h4.4v290h-4.4z"/><path d="M640.4 881.1c-10.7 0-20.8 7.7-27.8 14.7 4.7-6.8 11.3-14.9 16.3-16.6a35.26 35.26 0 0115.8-1.4s-8.1-11.3-20-6c-5.3 2.3-9.8 9.8-13 17 1.8-6.8 3.1-14.7 2-22.1-2.9-18.4-23.5-20-23.5-20s11.5 16 13.6 34.8q.45 3.75.6 7.2c-1.8-10.9-6.1-23.9-16.5-30.8-25.8-17.2-42 13.2-42 13.2s14.8-9.2 34.2.6c15.3 7.7 21.8 24.4 24 31-2.6-5.1-13.1-23.9-30.3-26.8-25.7-4.3-32.3 28.4-32.3 28.4s14.7-11.8 32.9-11c14.1.6 24.3 6.4 29.3 11a61.65 61.65 0 00-15.4-2.2c-22.8-.3-27.5 30.2-27.5 30.2l43.3-26.5c-1.8 3.5-5.7 10.9-7.8 16.1-2.9 7.1-1.1 22.7-1.1 22.7s7-12 9-19.8c2-7.5 1.5-15.3 1.2-19l29.3 31.8s7.2-19.3-14.8-28.7c-2.9-1.2-5.5-2.3-7.5-3.1a46.11 46.11 0 0118.3 7.2 86.56 86.56 0 0120.9 19.6s7.9-23.4-11.7-32.6c-6.4-3.1-13.8-2.6-20-1.2a28.66 28.66 0 0118.3-3.8c17.7 2.1 22.6 14.9 22.6 14.9s5.3-28.9-20.4-28.8z" fill="url(#p)"/></g><g><path d="M517.9 1162a132.54 132.54 0 00-13.3-35.5c-.8-1.5-1.8-3.2-2.7-4.7a136.92 136.92 0 00-25.6-31.1 43.25 43.25 0 00-4-3.4 132.41 132.41 0 00-36-21.4c-1.6-.7-3.3-1.2-4.9-1.8a133.61 133.61 0 00-42-7.5h-5.3a133.61 133.61 0 00-42 7.5c-1.6.6-3.3 1.2-4.9 1.8a132.41 132.41 0 00-36 21.4c-1.4 1.1-2.7 2.3-4 3.4a132 132 0 00-25.6 31.1c-1 1.5-1.8 3.2-2.7 4.7a132.54 132.54 0 00-13.3 35.5c-.4 1.8-.7 3.6-1.1 5.3a131.12 131.12 0 00-2.1 23.4H521a140.1 140.1 0 00-2-23.4c-.4-1.7-.7-3.5-1.1-5.3z" fill="url(#q)"/><path d="M384.1 1056.4v134.4h5.2v-134.4z" fill="url(#c)"/><path d="M337.1 1065.9l33.4 125.1h5.4l-34-126.8c-1.5.5-3.2 1.1-4.8 1.7z" fill="url(#r)"/><path d="M297.1 1090.7l57.8 100.1h5.9l-59.7-103.5c-1.4 1.1-2.7 2.3-4 3.4z" fill="url(#s)"/><path d="M268.8 1126.5l64.4 64.5h7.3l-69-69.1c-.9 1.5-1.8 3.1-2.7 4.6z" fill="url(#t)"/><path d="M254.4 1167.4l40.7 23.4h10.4l-50-28.9c-.4 1.9-.7 3.7-1.1 5.5z" fill="url(#u)"/><path d="M397.4 1191h5.3l33.4-125.1c-1.6-.7-3.3-1.2-4.9-1.8z" fill="url(#v)"/><path d="M412.5 1191h6l57.8-100.1a43.25 43.25 0 00-4-3.4z" fill="url(#w)"/><path d="M432.9 1191h7.2l64.4-64.4c-.8-1.5-1.8-3.2-2.7-4.7z" fill="url(#d)" opacity=".3"/><path d="M468 1191h10.4l40.6-23.5c-.3-1.8-.7-3.6-1.1-5.3z" fill="#084f15"/></g><g><path d="M618.5 1172.6a87 87 0 00-8.5-22.6c-.5-1-1.1-1.9-1.6-3a86 86 0 00-16.3-19.8c-.8-.7-1.7-1.5-2.6-2.2a85.58 85.58 0 00-22.9-13.6 30.2 30.2 0 00-3.2-1.1 81 81 0 00-26.7-4.8h-3.3a86.73 86.73 0 00-26.7 4.8c-1.1.4-2.1.7-3.1 1.1a85.58 85.58 0 00-22.9 13.6 28.78 28.78 0 01-2.6 2.2 84.14 84.14 0 00-16.3 19.8c-.5 1-1.1 1.9-1.6 3a87 87 0 00-8.5 22.6c-.3 1.1-.4 2.3-.7 3.4a95.54 95.54 0 00-1.4 15h170.7a75.54 75.54 0 00-1.4-15 9.54 9.54 0 00-.4-3.4z" fill="url(#x)"/><path d="M533.4 1105.6v85.4h3.3v-85.4z" fill="url(#y)"/><path d="M503.7 1111.4l21.2 79.4h3.4l-21.5-80.6a24.23 24.23 0 01-3.1 1.2z" fill="url(#z)"/><path d="M478.2 1127.4l36.7 63.6h3.8l-37.9-65.8a27.24 27.24 0 00-2.6 2.2z" fill="url(#A)"/><path d="M460.1 1150l41 40.9h4.7L462 1147c-.6 1.1-1.3 2.1-1.9 3z" fill="url(#B)"/><path d="M451.1 1176l25.9 15h6.6l-31.8-18.4c-.3 1.1-.5 2.3-.7 3.4z" fill="url(#C)"/><path d="M541.9 1191h3.4l21.2-79.4a30.2 30.2 0 00-3.2-1.1z" fill="url(#D)"/><path d="M551.5 1191h3.8l36.7-63.6c-.8-.7-1.7-1.5-2.6-2.2z" fill="url(#E)"/><path d="M564.5 1191h4.7l41-40.9c-.5-1-1.1-1.9-1.6-3z" fill="url(#F)"/><path d="M586.7 1191h6.6l25.9-15c-.18-1.14-.41-2.28-.7-3.4z" fill="url(#G)"/></g><g><path fill="#0c5e59" d="M59.8 945.6h3.8v252.1h-3.8z"/><path d="M35.2 923.9c9.3 0 18.1 6.7 24.2 12.8-4.1-5.9-9.8-12.9-14.2-14.4a30.16 30.16 0 00-13.7-1.2s7-9.9 17.4-5.2c4.7 2 8.5 8.5 11.3 14.8-1.6-5.9-2.7-12.8-1.7-19.2 2.5-16 20.5-17.3 20.5-17.3S69 908 67.1 924.4c-.3 2.1-.4 4.3-.5 6.3 1.6-9.5 5.3-20.8 14.3-26.8 22.5-14.9 36.5 11.5 36.5 11.5s-12.9-8-29.8.5c-13.3 6.7-19 21.2-20.8 26.9 2.2-4.5 11.4-20.9 26.2-23.4 22.3-3.7 28 24.7 28 24.7s-12.8-10.3-28.6-9.6c-12.2.5-21.1 5.6-25.5 9.6a51 51 0 0113.4-1.9c19.8-.3 23.9 26.3 23.9 26.3l-37.5-23.1c1.6 3.1 4.9 9.5 6.8 14 2.5 6.1.9 19.7.9 19.7s-6.1-10.4-7.8-17.2a50.87 50.87 0 01-1.1-16.5L40 973s-6.2-16.8 12.9-24.9c2.5-1.1 4.8-2 6.5-2.7a40 40 0 00-15.9 6.3 74 74 0 00-18.2 17.1s-6.9-20.4 10.1-28.4c5.6-2.7 12-2.3 17.4-1.1a25.26 25.26 0 00-15.9-3.3c-15.4 1.9-19.7 12.9-19.7 12.9s-4.2-25.2 18-25z" fill="url(#H)"/></g><g><path d="M168.4 1181.3a81.92 81.92 0 00-7.9-21.3c-.5-.9-1.1-1.9-1.6-2.8a82.91 82.91 0 00-15.3-18.6c-.8-.7-1.6-1.4-2.4-2a78.5 78.5 0 00-21.6-12.8c-1-.4-2-.7-3-1.1a80.11 80.11 0 00-25.2-4.5h-3.1a77.33 77.33 0 00-25.2 4.5c-1 .3-2 .7-3 1.1a79.8 79.8 0 00-21.6 12.8c-.8.7-1.6 1.4-2.4 2a80.48 80.48 0 00-15.3 18.6c-.6.9-1.1 1.9-1.6 2.8a77.33 77.33 0 00-8 21.3c-.2 1.1-.4 2.1-.6 3.2a82.1 82.1 0 00-1.2 14h160.8a82.1 82.1 0 00-1.2-14c-.2-1.1-.4-2.1-.6-3.2z" fill="url(#I)"/><path d="M88.3 1118.1v80.4h3.1v-80.4zm-28.2 5.7l20 74.8h3.2L63 1122.7l-.7.3a14.47 14.47 0 00-2.2.8zm10.7 74.8l-34.6-59.9.2-.2a19 19 0 012.2-1.8l35.7 62zm-51.6-38.5l38.5 38.6h4.4l-41.3-41.4c-.2.4-.5.9-.8 1.4s-.5 1-.8 1.4zm15.7 38.5l-24.3-14a12.31 12.31 0 01.4-1.8l.3-1.5 29.9 17.3zm61.3 0h3.2l20-74.8c-1-.4-2-.7-3-1.1zm12.6 0h-3.6l35.8-62c.8.6 1.6 1.3 2.4 2zm8.6 0h4.3l38.5-38.6c-.5-.9-1.1-1.9-1.6-2.8zm27.2 0h-6.2l30-17.2c.3 1.1.5 2.1.7 3.2z" fill-rule="evenodd" fill="url(#J)"/></g><g><path d="M64.6 1154.2c-7.5 0-10.4-6.6-10.4-15.8s-2.6-16.7-12.7-17.2c-13.2-.5-12 12.3-12 27.8 0 19.8-7.1 7.1-17 18.2-8.5 9.4 2.4 26.2 5.6 31.1h42.7c1.4-2.6 4.9-9 8.9-16.7 9-16.5 2.5-27.4-5.1-27.4z" fill="url(#K)"/><path d="M44.4 1157.3h-2.1v29.6l-8.9-11.8-1.7 1.3 10.6 14.2v7.9h2.1V1176l9-11.2-1.7-1.3-7.3 9.1v-15.3z" fill="#fff" fill-opacity=".2" fill-rule="evenodd"/></g><g><path fill="url(#L)" d="M0 1189h749.71v159H0z"/><path d="M636.7 1306.9c-36.7-14-72.8-24.6-102-25.3-11.7-.3-20.4.9-26.5 3.3s-9.9 6.3-11 11.4.1 10.6 3 16.7 7.5 12.8 13.3 19.7c4.13 4.94 8.87 10.08 14.08 15.3h4.59c-6-6-11.51-11.8-16.17-17.4a101.26 101.26 0 01-12.9-19c-2.8-5.7-3.7-10.6-2.8-14.5s3.6-6.8 9.1-9 13.8-3.4 25.2-3.1c28.6.7 64.3 11 100.9 25 29.83 11.39 60.17 25.16 87.82 38h7.77c-29.28-13.67-62.09-28.73-94.39-41.1zm47.9-83.5c.9-.6 2.5-1.1 5.2-1.2 5.5-.3 14.3.8 27.4 3.5a177.29 177.29 0 0132.51 10.3v-3.66a178.86 178.86 0 00-31.81-9.95c-13.1-2.7-22.4-3.8-28.3-3.5-2.9.2-5.3.7-6.9 1.8a5 5 0 00-2.3 5 14.78 14.78 0 002.7 6 58.13 58.13 0 006.1 7.1c5 5.2 12 11.3 20.2 18.2 4.8 4.1 10.1 8.4 15.6 13 6.6 5.5 13.6 11.3 20.76 17.36l4 3.36v-4.43c-7.76-6.6-15.37-12.88-22.51-18.79-5.5-4.6-10.8-8.9-15.6-13-8.2-6.9-15-13-19.9-18a52 52 0 01-5.7-6.7 10.6 10.6 0 01-2.2-4.5 4.07 4.07 0 01.1-1.1 2.59 2.59 0 01.65-.79zm-503.2 5.5c-3.3-5.8-9.2-8.8-18.4-8.8s-18 4.1-26.3 11-16.3 16.7-24.2 28.4c-5.93 8.83-11.85 18.79-17.77 29.44l-1.85 3.35c-6.56 11.91-13.13 24.61-19.78 37.51l-7.8 15-1.67 3.2h3.43l.94-1.8c2.6-5.1 5.2-10.1 7.8-15.1 7.53-14.62 14.94-28.91 22.31-42.09 5.63-10.08 11.25-19.5 16.89-27.91 7.8-11.5 15.7-21 23.6-27.7s15.9-10.3 24.2-10.3 13 2.7 15.4 7c2.5 4.5 2.9 11.2 1.5 19.8-1.3 7.9-4 17-7.44 26.89q-2.2 6.3-4.75 13c-2.26 6-4.67 12.11-7.11 18.34v.1l-2.2 5.6c-4.49 11.48-9 23.1-12.62 34.2h3.83c3.49-10.53 7.74-21.57 12.09-32.6.8-2 1.5-3.9 2.3-5.8 2.65-6.69 5.27-13.35 7.71-19.83 5.41-14.33 9.9-27.78 11.69-38.87 1.5-8.83 1.3-16.53-1.8-22zm154.08-39.9c-1.26 1.52-2.52 3.09-3.77 4.69-.81 1-1.61 2.06-2.41 3.11-19.27 25.3-37.76 58.5-55.85 91.32l-.65 1.18-.1.3-9.06 16.34c-8.17 14.66-16.31 28.94-24.45 42.06h3.64c8.3-13.46 16.57-28 24.84-42.94q3.91-7 7.83-14.16l.3-.5 1.35-2.44c17.77-32.22 35.74-64.44 54.56-89.17l.29-.39q3.76-4.92 7.54-9.4zm78.93 0c-1.2 9.84-3.9 21.17-7.31 33.5-1.8 6.5-3.8 13.2-5.8 20l-.1.3c-2 6.7-4 13.6-5.9 20.4-1.41 5-2.76 10.06-4 15.07-2.21 8.88-4.08 17.66-5.29 26a.76.76 0 01-.05.33c-1.86 13-2.23 25.25.15 36a52.85 52.85 0 002.2 7.4h3.59a46.81 46.81 0 01-2.49-8.1c-2.08-9.66-1.92-20.83-.29-33 .09-.68.19-1.38.29-2.07a269.78 269.78 0 015.55-27c1.13-4.53 2.37-9.09 3.65-13.67 1.9-6.8 3.9-13.7 5.9-20.4l.1-.3c2-6.8 4-13.5 5.8-20 3.46-12.51 6.28-24.27 7.46-34.4z" fill-rule="evenodd" fill="url(#M)"/><path d="M749.71 1201v147H0v-61.94c29.24 1.25 60.7 2.24 94.73 2.88l3.38.07q33 .6 69.4.75h21.19c30.77 0 58.88-.59 84.75-1.68l3.7-.16c19.39-.85 37.51-2 54.56-3.38 21.45-1.74 41.18-3.87 59.58-6.31l3.66-.5q11.88-1.62 23.05-3.4c124.26-19.78 187.91-53.92 331.71-73.33z" fill="url(#N)"/></g></g><path d="M331 1348a55.81 55.81 0 00-5.4-14.8 19.94 19.94 0 00-1.1-1.9 56.75 56.75 0 00-10.5-13c-.51-.49-1-1-1.6-1.4a55.6 55.6 0 00-14.8-8.9c-.7-.3-1.4-.5-2-.7a52.8 52.8 0 00-17.2-3.1h-2.1a55.69 55.69 0 00-17.2 3.1c-.7.2-1.3.5-2 .7a57 57 0 00-14.8 8.9c-.6.5-1.1 1-1.6 1.4a56.75 56.75 0 00-10.5 13c-.4.6-.7 1.3-1.1 1.9a54.66 54.66 0 00-5.4 14.8 16.36 16.36 0 00-.4 2.2 52.77 52.77 0 00-.8 9.8h110a65.64 65.64 0 00-.8-9.8 11.27 11.27 0 01-.7-2.2z" fill="#f4f6d5"/><path d="M421.2 1356.3a83.53 83.53 0 00-8.3-22.2c-.5-.9-1.1-2-1.7-2.9a82.67 82.67 0 00-16-19.4 16.76 16.76 0 00-2.5-2.1 83.67 83.67 0 00-22.5-13.4 28.54 28.54 0 00-3.1-1.1 81 81 0 00-26.3-4.7h-3.3a81.58 81.58 0 00-26.3 4.7c-1 .3-2.1.8-3.1 1.1a81.46 81.46 0 00-22.5 13.4c-.9.7-1.7 1.5-2.5 2.1a82.67 82.67 0 00-16 19.4c-.6.9-1.1 2-1.7 2.9a83.53 83.53 0 00-8.3 22.2c-.3 1.1-.4 2.2-.7 3.3a79.64 79.64 0 00-1.3 14.7h167.8a81.41 81.41 0 00-1.3-14.7 9.44 9.44 0 00-.4-3.3z" fill="#fff"/></svg>