<svg id="Layer_1" data-name="Layer 1" xmlns="http://www.w3.org/2000/svg" xmlns:xlink="http://www.w3.org/1999/xlink" viewBox="0 0 750 1374"><defs><style>.cls-1,.cls-10,.cls-11,.cls-14,.cls-9{fill:none;}.cls-2{clip-path:url(#clip-path);}.cls-3{fill:url(#linear-gradient);}.cls-4{fill:url(#linear-gradient-2);}.cls-5{fill:url(#linear-gradient-3);}.cls-6{fill:url(#linear-gradient-4);}.cls-7{fill:url(#linear-gradient-5);}.cls-8{fill:url(#linear-gradient-6);}.cls-10,.cls-11,.cls-14,.cls-9{stroke-miterlimit:1.15;stroke-width:1.44px;}.cls-9{stroke:url(#linear-gradient-7);}.cls-10{stroke:url(#linear-gradient-8);}.cls-11{stroke:url(#linear-gradient-9);}.cls-12,.cls-15{fill:#c9d983;}.cls-12{fill-opacity:0.3;}.cls-13{fill:url(#linear-gradient-10);}.cls-14{stroke:url(#linear-gradient-11);}.cls-15,.cls-44{fill-opacity:0.2;}.cls-16{fill:#0c5e59;}.cls-17{fill:url(#linear-gradient-12);}.cls-18{fill:url(#linear-gradient-13);}.cls-19{fill:url(#linear-gradient-14);}.cls-20{fill:url(#linear-gradient-15);}.cls-21{fill:url(#linear-gradient-16);}.cls-22{fill:url(#linear-gradient-17);}.cls-23{fill:url(#linear-gradient-18);}.cls-24{fill:url(#linear-gradient-19);}.cls-25{fill:url(#linear-gradient-20);}.cls-26{fill:url(#linear-gradient-21);}.cls-27{opacity:0.3;}.cls-28{fill:url(#linear-gradient-22);}.cls-29{fill:#084f15;}.cls-30{fill:url(#linear-gradient-23);}.cls-31{fill:url(#linear-gradient-24);}.cls-32{fill:url(#linear-gradient-25);}.cls-33{fill:url(#linear-gradient-26);}.cls-34{fill:url(#linear-gradient-27);}.cls-35{fill:url(#linear-gradient-28);}.cls-36{fill:url(#linear-gradient-29);}.cls-37{fill:url(#linear-gradient-30);}.cls-38{fill:url(#linear-gradient-31);}.cls-39{fill:url(#linear-gradient-32);}.cls-40{fill:url(#linear-gradient-33);}.cls-41{fill:url(#linear-gradient-34);}.cls-42,.cls-44,.cls-46{fill-rule:evenodd;}.cls-42{fill:url(#linear-gradient-35);}.cls-43{fill:url(#linear-gradient-36);}.cls-44,.cls-49{fill:#fff;}.cls-45{fill:url(#linear-gradient-37);}.cls-46{fill:url(#linear-gradient-38);}.cls-47{fill:url(#linear-gradient-39);}.cls-48{fill:#f4f6d5;}</style><clipPath id="clip-path"><rect class="cls-1" x="0.1" y="-0.1" width="750" height="1335"/></clipPath><linearGradient id="linear-gradient" x1="-143.91" y1="1477.54" x2="-142.24" y2="1477.54" gradientTransform="matrix(-982.3, -810.03, -810.03, 982.3, 1056248.62, -1566606.5)" gradientUnits="userSpaceOnUse"><stop offset="0" stop-color="#ffedba"/><stop offset="1" stop-color="#ee4d47"/></linearGradient><linearGradient id="linear-gradient-2" x1="-144.82" y1="1476.72" x2="-143.15" y2="1476.72" gradientTransform="matrix(0, 1100.16, 1100.16, 0, -1625584.87, 158969.55)" gradientUnits="userSpaceOnUse"><stop offset="0" stop-color="#f4a984"/><stop offset="1" stop-color="#f4a984" stop-opacity="0"/></linearGradient><linearGradient id="linear-gradient-3" x1="-143.35" y1="1478.8" x2="-141.68" y2="1478.8" gradientTransform="matrix(0, -689.59, -689.59, 0, 1019698.75, -98082.26)" gradientUnits="userSpaceOnUse"><stop offset="0" stop-color="#ffedba" stop-opacity="0"/><stop offset="0.1" stop-color="#fee0b0" stop-opacity="0.07"/><stop offset="0.3" stop-color="#fabf96" stop-opacity="0.24"/><stop offset="0.57" stop-color="#f5896d" stop-opacity="0.52"/><stop offset="0.91" stop-color="#ed3f34" stop-opacity="0.89"/><stop offset="1" stop-color="#eb2a24"/></linearGradient><linearGradient id="linear-gradient-4" x1="-146.15" y1="1478.75" x2="-144.48" y2="1478.75" gradientTransform="matrix(0.16, 312.76, 312.76, -0.16, -461664.87, 46167.49)" gradientUnits="userSpaceOnUse"><stop offset="0" stop-color="#fff" stop-opacity="0.56"/><stop offset="1" stop-color="#fff" stop-opacity="0"/></linearGradient><linearGradient id="linear-gradient-5" x1="-146.07" y1="1478.02" x2="-144.4" y2="1478.02" gradientTransform="matrix(0.1, 228.74, 228.74, -0.1, -337698.66, 34272.43)" gradientUnits="userSpaceOnUse"><stop offset="0" stop-color="#fff" stop-opacity="0.2"/><stop offset="1" stop-color="#fff" stop-opacity="0"/></linearGradient><linearGradient id="linear-gradient-6" x1="548.68" y1="1060.5" x2="866.28" y2="1060.5" gradientUnits="userSpaceOnUse"><stop offset="0" stop-color="#2ca77f"/><stop offset="0.24" stop-color="#2ca77f"/><stop offset="1" stop-color="#1b8877"/></linearGradient><linearGradient id="linear-gradient-7" x1="671.4" y1="1089.59" x2="757.44" y2="1089.59" gradientTransform="matrix(1, 0, 0, 1, 0, 0)" xlink:href="#linear-gradient-5"/><linearGradient id="linear-gradient-8" x1="757.09" y1="1123.99" x2="804.1" y2="1123.99" gradientTransform="matrix(1, 0, 0, 1, 0, 0)" xlink:href="#linear-gradient-5"/><linearGradient id="linear-gradient-9" x1="658.14" y1="983.82" x2="709.94" y2="983.82" gradientTransform="matrix(1, 0, 0, 1, 0, 0)" xlink:href="#linear-gradient-5"/><linearGradient id="linear-gradient-10" x1="-145.89" y1="1477.68" x2="-144.22" y2="1477.68" gradientTransform="matrix(0, 210.56, 210.56, 0, -310634.66, 31621.4)" gradientUnits="userSpaceOnUse"><stop offset="0" stop-color="#2ca77f"/><stop offset="0.42" stop-color="#2ca77f"/><stop offset="1" stop-color="#1b8877"/></linearGradient><linearGradient id="linear-gradient-11" x1="508.87" y1="1038.96" x2="590.57" y2="1038.96" gradientTransform="matrix(1, 0, 0, 1, 0, 0)" xlink:href="#linear-gradient-5"/><linearGradient id="linear-gradient-12" x1="-152.76" y1="1478.3" x2="-151.09" y2="1478.3" gradientTransform="matrix(0, 42.51, 42.51, 0, -62128.83, 7460.79)" gradientUnits="userSpaceOnUse"><stop offset="0" stop-color="#d3d86c"/><stop offset="1" stop-color="#82a637"/></linearGradient><linearGradient id="linear-gradient-13" x1="-149.57" y1="1477.56" x2="-147.9" y2="1477.56" gradientTransform="matrix(0, 77.82, 77.82, 0, -114382.17, 12453.31)" xlink:href="#linear-gradient-12"/><linearGradient id="linear-gradient-14" x1="-147.31" y1="1476.88" x2="-145.64" y2="1476.88" gradientTransform="matrix(0, 106.71, 106.71, 0, -157210.77, 16732.06)" xlink:href="#linear-gradient-12"/><linearGradient id="linear-gradient-15" x1="-148.18" y1="1476.51" x2="-146.51" y2="1476.51" gradientTransform="matrix(0, 80.51, 80.51, 0, -118486.81, 12985.39)" gradientUnits="userSpaceOnUse"><stop offset="0" stop-color="#084f15" stop-opacity="0"/><stop offset="1" stop-color="#084f15" stop-opacity="0.3"/></linearGradient><linearGradient id="linear-gradient-16" x1="-148.39" y1="1476.28" x2="-146.72" y2="1476.28" gradientTransform="matrix(0, 75.99, 75.99, 0, -111826.21, 12339.56)" xlink:href="#linear-gradient-15"/><linearGradient id="linear-gradient-17" x1="-149.22" y1="1475.8" x2="-147.56" y2="1475.8" gradientTransform="matrix(0, 62.02, 62.02, 0, -91199.89, 10342.96)" xlink:href="#linear-gradient-15"/><linearGradient id="linear-gradient-18" x1="-151.5" y1="1474.47" x2="-149.83" y2="1474.47" gradientTransform="matrix(0, 41.4, 41.4, 0, -60738.29, 7394.42)" xlink:href="#linear-gradient-15"/><linearGradient id="linear-gradient-19" x1="-160.98" y1="1469.04" x2="-159.31" y2="1469.04" gradientTransform="matrix(0, 17.33, 17.33, 0, -25178.52, 3952.55)" xlink:href="#linear-gradient-15"/><linearGradient id="linear-gradient-20" x1="-148.39" y1="1476.6" x2="-146.73" y2="1476.6" gradientTransform="matrix(0, 75.99, 75.99, 0, -111790.08, 12339.56)" xlink:href="#linear-gradient-15"/><linearGradient id="linear-gradient-21" x1="-149.22" y1="1476.54" x2="-147.56" y2="1476.54" gradientTransform="matrix(0, 62.02, 62.02, 0, -91130.71, 10343.05)" xlink:href="#linear-gradient-15"/><linearGradient id="linear-gradient-22" x1="-151.5" y1="1476.05" x2="-149.83" y2="1476.05" gradientTransform="matrix(0, 41.4, 41.4, 0, -60639.92, 7394.42)" gradientUnits="userSpaceOnUse"><stop offset="0" stop-color="#084f15" stop-opacity="0"/><stop offset="1" stop-color="#084f15"/></linearGradient><linearGradient id="linear-gradient-23" x1="-148.83" y1="1477.22" x2="-147.16" y2="1477.22" gradientTransform="matrix(0, 67.9, 67.9, 0, -99768.61, 11184.26)" xlink:href="#linear-gradient-12"/><linearGradient id="linear-gradient-24" x1="-150.18" y1="1476.86" x2="-148.52" y2="1476.86" gradientTransform="matrix(0, 51.18, 51.18, 0, -75050.52, 8791.87)" xlink:href="#linear-gradient-15"/><linearGradient id="linear-gradient-25" x1="-150.52" y1="1476.74" x2="-148.85" y2="1476.74" gradientTransform="matrix(0, 48.3, 48.3, 0, -70810.53, 8381.23)" xlink:href="#linear-gradient-15"/><linearGradient id="linear-gradient-26" x1="-151.84" y1="1476.22" x2="-150.17" y2="1476.22" gradientTransform="matrix(0, 39.43, 39.43, 0, -57709.1, 7112.39)" xlink:href="#linear-gradient-15"/><linearGradient id="linear-gradient-27" x1="-155.42" y1="1474.95" x2="-153.75" y2="1474.95" gradientTransform="matrix(0, 26.29, 26.29, 0, -38293.38, 5232.27)" xlink:href="#linear-gradient-15"/><linearGradient id="linear-gradient-28" x1="-170.33" y1="1470.14" x2="-168.66" y2="1470.14" gradientTransform="matrix(0, 11.01, 11.01, 0, -15718.9, 3047.32)" xlink:href="#linear-gradient-15"/><linearGradient id="linear-gradient-29" x1="-150.53" y1="1477.01" x2="-148.87" y2="1477.01" gradientTransform="matrix(0, 48.22, 48.22, 0, -70667.22, 8369.34)" xlink:href="#linear-gradient-15"/><linearGradient id="linear-gradient-30" x1="-151.84" y1="1476.97" x2="-150.17" y2="1476.97" gradientTransform="matrix(0, 39.43, 39.43, 0, -57665.17, 7112.39)" xlink:href="#linear-gradient-15"/><linearGradient id="linear-gradient-31" x1="-155.42" y1="1476.54" x2="-153.75" y2="1476.54" gradientTransform="matrix(0, 26.29, 26.29, 0, -38230.81, 5232.36)" xlink:href="#linear-gradient-15"/><linearGradient id="linear-gradient-32" x1="-170.33" y1="1475.07" x2="-168.66" y2="1475.07" gradientTransform="matrix(0, 11.01, 11.01, 0, -15637.61, 3047.32)" xlink:href="#linear-gradient-15"/><linearGradient id="linear-gradient-33" x1="-150.1" y1="1474.34" x2="-148.43" y2="1474.34" gradientTransform="matrix(0, 67.63, 67.63, 0, -99640.94, 11016.85)" xlink:href="#linear-gradient-12"/><linearGradient id="linear-gradient-34" x1="-149.05" y1="1474.28" x2="-147.38" y2="1474.28" gradientTransform="matrix(0, 63.87, 63.87, 0, -94072.15, 10610.79)" xlink:href="#linear-gradient-12"/><linearGradient id="linear-gradient-35" x1="-146.79" y1="1475.57" x2="-145.12" y2="1475.57" gradientTransform="matrix(0, 111.82, 111.82, 0, -164908.14, 17532.21)" xlink:href="#linear-gradient-22"/><linearGradient id="linear-gradient-36" x1="-149.59" y1="1473.44" x2="-147.92" y2="1473.44" gradientTransform="matrix(0, 55.58, 55.58, 0, -81851.93, 9435.44)" xlink:href="#linear-gradient-10"/><linearGradient id="linear-gradient-37" x1="-2195.33" y1="1268.5" x2="1462.31" y2="1268.5" gradientUnits="userSpaceOnUse"><stop offset="0" stop-color="#eeef99"/><stop offset="0.28" stop-color="#eeef99"/><stop offset="0.77" stop-color="#b9d079"/><stop offset="1" stop-color="#b9d079"/></linearGradient><linearGradient id="linear-gradient-38" x1="-145.18" y1="1478.47" x2="-144.44" y2="1478.47" gradientTransform="matrix(0, 211.58, 211.58, 0, -312407.41, 31943.97)" gradientUnits="userSpaceOnUse"><stop offset="0" stop-color="#fff" stop-opacity="0.7"/><stop offset="1" stop-color="#fff" stop-opacity="0"/></linearGradient><linearGradient id="linear-gradient-39" x1="-281.7" y1="1274.48" x2="775.9" y2="1274.48" gradientUnits="userSpaceOnUse"><stop offset="0" stop-color="#82a637" stop-opacity="0.1"/><stop offset="0.16" stop-color="#82a637" stop-opacity="0.1"/><stop offset="0.89" stop-color="#1b8877" stop-opacity="0.1"/><stop offset="1" stop-color="#1b8877" stop-opacity="0.1"/></linearGradient></defs><title>bg-mobile</title><g class="cls-2"><path class="cls-3" d="M1001.5-.4H-1134.4V1330.4H835.3c91.8,0,166.2-74.5,166.2-166.3Z"/><path class="cls-4" d="M1099.6,568.7H1051a6.81,6.81,0,0,0-6.8,6.8V981.8a9.3,9.3,0,1,1-18.6,0h0V722.2a16.56,16.56,0,0,0-16.6-16.6H991.5a16.56,16.56,0,0,0-16.6,16.6h0v16.3a16.56,16.56,0,0,1-16.6,16.6H848.7a12.63,12.63,0,0,0-12.6,12.7v7a5.59,5.59,0,0,1-5.6,5.6h0a5.59,5.59,0,0,0-5.6,5.6v90.4a13.76,13.76,0,0,1-13.8,13.8h0A13.83,13.83,0,0,0,797.3,904v60.3a16.62,16.62,0,0,1-16.6,16.6h-1.6a16.62,16.62,0,0,0-16.6,16.6v88.1a6.2,6.2,0,0,1-12.4,0h0V574.9a5.12,5.12,0,0,0-5.1-5.1,5.12,5.12,0,0,1-5.1-5.1V520a8.71,8.71,0,0,0-8.7-8.7h0a8.71,8.71,0,0,1-8.7-8.7V459.3a5.85,5.85,0,0,0-5.9-5.9,5.85,5.85,0,0,1-5.9-5.9V412a16.56,16.56,0,0,0-16.6-16.6H651.8A16.62,16.62,0,0,0,635.2,412v35.5a5.85,5.85,0,0,1-5.9,5.9,5.85,5.85,0,0,0-5.9,5.9v43.4a8.71,8.71,0,0,1-8.7,8.7h0a8.71,8.71,0,0,0-8.7,8.7h0v45a4.23,4.23,0,0,1-4.2,4.2h0a4.23,4.23,0,0,0-4.2,4.2h0v348a9.84,9.84,0,0,1-9.9,9.8,9.84,9.84,0,0,0-9.8,9.9h0v138.5a12.08,12.08,0,0,1-12.1,12.1h-11a1.11,1.11,0,0,1-1.1-1.1h0a1.11,1.11,0,0,0-1.1-1.1h-3.7a2,2,0,0,1-1.6-2.3,1.91,1.91,0,0,1,1.6-1.6h2a2.8,2.8,0,0,0,0-5.6h-1.8a2.33,2.33,0,0,1-2.3-2.3,2.26,2.26,0,0,1,2.3-2.3h1.7a2.81,2.81,0,1,0,.4-5.6h-2.3a2,2,0,0,1-1.6-2.3,1.91,1.91,0,0,1,1.6-1.6h2a2.8,2.8,0,1,0,0-5.6h-2a2,2,0,0,1-1.6-2.3,1.91,1.91,0,0,1,1.6-1.6h2a2.81,2.81,0,0,0,.4-5.6H549a2,2,0,0,1-1.6-2.3,1.91,1.91,0,0,1,1.6-1.6h2a2.81,2.81,0,0,0,.4-5.6h-2.3a2,2,0,1,1,0-4h2a2.81,2.81,0,0,0,.4-5.6h-2.3a2,2,0,0,1-1.6-2.3,1.91,1.91,0,0,1,1.6-1.6h2a2.81,2.81,0,0,0,.4-5.6h-2.3a2,2,0,0,1,0-4h2a2.81,2.81,0,0,0,2.5-3.1,2.87,2.87,0,0,0-2.2-2.5h-2.3a2,2,0,0,1-1.6-2.3,1.91,1.91,0,0,1,1.6-1.6h2a2.81,2.81,0,1,0,.4-5.6h-2.3a2,2,0,0,1-1.6-2.3,1.91,1.91,0,0,1,1.6-1.6h2a2.8,2.8,0,0,0,2.8-2.8,2.86,2.86,0,0,0-2.8-2.8h-.5a3.37,3.37,0,0,1-3.4-3.4v-1.1a3.37,3.37,0,0,1,3.4-3.4h.6a2.81,2.81,0,1,0,.4-5.6h-2.3a2,2,0,0,1-1.6-2.3,1.91,1.91,0,0,1,1.6-1.6h2a2.8,2.8,0,0,0,2.8-2.8,2.86,2.86,0,0,0-2.8-2.8h-2a2,2,0,0,1-1.6-2.3,1.91,1.91,0,0,1,1.6-1.6h2a2.81,2.81,0,0,0,.4-5.6h-2.3a2,2,0,0,1-1.6-2.3,1.91,1.91,0,0,1,1.6-1.6h2a2.8,2.8,0,0,0,2.8-2.8,2.86,2.86,0,0,0-2.8-2.8h-2a2,2,0,0,1-1.6-2.3,1.91,1.91,0,0,1,1.6-1.6h2a2.85,2.85,0,0,0,.3-5.7h-2.3a2,2,0,0,1-1.6-2.3,1.91,1.91,0,0,1,1.6-1.6h2a2.81,2.81,0,0,0,.4-5.6h-2.3a2,2,0,0,1,0-4h2a2.81,2.81,0,1,0,.4-5.6h-2.3a2,2,0,0,1-1.6-2.3,1.91,1.91,0,0,1,1.6-1.6h2a2.81,2.81,0,1,0,.4-5.6H550a2,2,0,0,1-1.6-2.3,1.91,1.91,0,0,1,1.6-1.6h2a2.8,2.8,0,0,0,2.8-2.8A2.86,2.86,0,0,0,552,904h-2a2,2,0,0,1-1.6-2.3,1.91,1.91,0,0,1,1.6-1.6h2a2.81,2.81,0,0,0,.4-5.6h-2.3a2,2,0,0,1-1.6-2.3,1.91,1.91,0,0,1,1.6-1.6h2a2.81,2.81,0,0,0,.4-5.6h-2.3a2,2,0,0,1,0-4h2a2.81,2.81,0,0,0,.4-5.6h-2.3a2,2,0,0,1-1.6-2.3,1.91,1.91,0,0,1,1.6-1.6h2a2.81,2.81,0,1,0,.4-5.6h-.9a3.37,3.37,0,0,1-3.4-3.4h0V859a3.37,3.37,0,0,1,3.4-3.4h.6a2.8,2.8,0,0,0,2.8-2.8,2.86,2.86,0,0,0-2.8-2.8h-2a2,2,0,0,1-1.6-2.3,1.91,1.91,0,0,1,1.6-1.6h2a2.81,2.81,0,1,0,.4-5.6h-2.3a2,2,0,0,1-1.6-2.3,1.91,1.91,0,0,1,1.6-1.6h2a2.81,2.81,0,0,0,.4-5.6h-2.3a2.1,2.1,0,0,1-1.7-2.3,2,2,0,0,1,1.7-1.7h2a2.8,2.8,0,0,0,2.6-3,2.87,2.87,0,0,0-2.3-2.6H552a3.37,3.37,0,0,1-3.4-3.4v-3.7a2.48,2.48,0,0,0-2.5-2.5,2.48,2.48,0,0,1-2.5-2.5v-3.7a6.23,6.23,0,0,0-6.2-6.2h-.5a6.81,6.81,0,0,1-6.8-6.8h0v-18a5.12,5.12,0,0,0-5.1-5.1h0a5.12,5.12,0,0,1-5.1-5.1V745.3a16.67,16.67,0,0,0-13.1-16.2l-17.9-3.9a9.42,9.42,0,0,1-7.3-9.2V663.5a2,2,0,1,0-3.9-.7v53.8a5,5,0,0,1-5,5.1h0a4.87,4.87,0,0,1-1.2-.1,5.19,5.19,0,0,0-6.1,3.8h0a4.1,4.1,0,0,0-.1,1.1v39a4.23,4.23,0,0,1-4.2,4.2,4.23,4.23,0,0,0-4.2,4.2v18.9a6.81,6.81,0,0,1-6.8,6.8H447a5.49,5.49,0,0,0-5.4,5.3h0v2.8a2.48,2.48,0,0,1-2.5,2.5h0a2.48,2.48,0,0,0-2.5,2.5h0V815a4.8,4.8,0,0,1-4.8,4.8H382.3a16.62,16.62,0,0,0-16.6,16.6v29.2a16.62,16.62,0,0,1-16.6,16.6h-41a17.25,17.25,0,0,0-6,1.1L251.6,903a4.47,4.47,0,0,0-2.8,4.2v19.5a4.48,4.48,0,0,0,4.5,4.5h1.1a3.4,3.4,0,1,1,0,6.8h-2.3a3.4,3.4,0,0,0,0,6.8h2.3a3.4,3.4,0,0,1,0,6.8h-2.3a3.4,3.4,0,0,0,0,6.8h2.3a3.41,3.41,0,0,1,.4,6.8h-2.6a3.4,3.4,0,1,0,0,6.8h2.3a3.4,3.4,0,1,1,0,6.8h-2.3a3.4,3.4,0,1,0,0,6.8h3.1a2.55,2.55,0,0,1,0,5.1H204a16.51,16.51,0,0,1-15.6-10.9l-13.3-36.1a7.24,7.24,0,0,0-13.6,0c-2.8,7.7-14.7,5.5-14.6-2.7V900.6c0-22.5,0-45.1-.6-67.6,0-9.6-.6-19.7-.6-29.3-.6-20.8-1.1-41.7-2.3-63.1-.6-10.1-.6-20.3-1.1-30.4-1.1-19.7-1.7-38.9-2.8-58.6,0-2.3-.6-4.5-.6-6.8-1.1-17.5-2.3-34.3-3.4-51.8-2.3-31.5-5.1-63.1-7.9-94.6-.2-2.9-.5-5.8-.8-8.8a17.13,17.13,0,0,0-17-15.4H4.6c-8.1,0-15.3,6-15.3,14.1-.6,6.8-1.1,13.5-1.7,20.3-.6,5.6-1.1,11.8-1.7,17.5-1.1,10.7-1.7,21.4-2.8,32.1-.6,5.1-.6,9.6-1.1,14.7-.6,9-1.1,18-2.3,27a70.73,70.73,0,0,0-.6,11.3c-.6,11.8-1.7,23.7-2.3,34.9,0,3.9-.6,7.9-.6,11.8-.6,12.4-1.1,24.2-1.7,36.6,0,2.8-.6,5.1-.6,7.9-.6,11.3-1.1,23.1-1.7,34.3v6.8c-.6,13-1.1,25.9-1.1,38.9v7.9c-.6,13.5-.6,27-1.1,40V832c0,13.5-.6,27-.6,40v63a12.08,12.08,0,0,1-12.1,12.1,12.08,12.08,0,0,0-12.1,12.1h0v135.2a14.45,14.45,0,0,1-14.3,14.4h-13a1.37,1.37,0,0,1-1.4-1.4,1.37,1.37,0,0,1,1.4-1.4H-81a2.48,2.48,0,0,0,2.5-2.5h0v-1.1a2.48,2.48,0,0,0-2.5-2.5h0a2.48,2.48,0,0,1-2.5-2.5v-2.3a2.48,2.48,0,0,1,2.5-2.5,2.48,2.48,0,0,0,2.5-2.5h0V1089a2.48,2.48,0,0,0-2.5-2.5h0a2.48,2.48,0,0,1-2.5-2.5h0v-2.8a2.48,2.48,0,0,1,2.5-2.5,2.48,2.48,0,0,0,2.5-2.5h0v-1.1a2.48,2.48,0,0,0-2.5-2.5h0a2.48,2.48,0,0,1-2.5-2.5h0v-2.8a2.48,2.48,0,0,1,2.5-2.5h0a2.48,2.48,0,0,0,2.5-2.5v-1.1a2.48,2.48,0,0,0-2.5-2.5h0a2.48,2.48,0,0,1-2.5-2.5h0v-2.8a2.48,2.48,0,0,1,2.5-2.5h0a2.48,2.48,0,0,0,2.5-2.5v-1.1a2.48,2.48,0,0,0-2.5-2.5h0a2.48,2.48,0,0,1-2.5-2.5h0v-2.8A2.48,2.48,0,0,1-81,1037h0a2.48,2.48,0,0,0,2.5-2.5v-1.1a2.48,2.48,0,0,0-2.5-2.5h0a2.48,2.48,0,0,1-2.5-2.5h0v-2.8a2.48,2.48,0,0,1,2.5-2.5h0a2.48,2.48,0,0,0,2.5-2.5v-1.2a2.48,2.48,0,0,0-2.5-2.5h0a2.54,2.54,0,0,1-2.5-2.5v-2.8a2.48,2.48,0,0,1,2.5-2.5h0a2.48,2.48,0,0,0,2.5-2.5v-1.1A2.48,2.48,0,0,0-81,1003a2.48,2.48,0,0,1-2.5-2.5h0v-2.8a2.48,2.48,0,0,1,2.5-2.5h0a2.48,2.48,0,0,0,2.5-2.5h0v-1.2A2.48,2.48,0,0,0-81,989a2.48,2.48,0,0,1-2.5-2.5h0v-2.8a2.48,2.48,0,0,1,2.5-2.5h0a2.48,2.48,0,0,0,2.5-2.5v-1.1a2.48,2.48,0,0,0-2.5-2.5,2.48,2.48,0,0,1-2.5-2.5h0v-2.8a2.48,2.48,0,0,1,2.5-2.5h0a2.48,2.48,0,0,0,2.5-2.5h0v-3.4a2.48,2.48,0,0,0-2.5-2.5h0a2.48,2.48,0,0,1-2.5-2.5h0V952a2.48,2.48,0,0,1,2.5-2.5h0a2.48,2.48,0,0,0,2.5-2.5v-1.1a2.48,2.48,0,0,0-2.5-2.5h0a2.48,2.48,0,0,1-2.5-2.5h0v-3.4A2.48,2.48,0,0,1-81,935a2.48,2.48,0,0,0,2.5-2.5h0v-1.1a2.48,2.48,0,0,0-2.5-2.5h0a2.48,2.48,0,0,1-2.5-2.5h0v-2.8a2.48,2.48,0,0,1,2.5-2.5,2.48,2.48,0,0,0,2.5-2.5h0v-1.1A2.48,2.48,0,0,0-81,915h0a2.48,2.48,0,0,1-2.5-2.5h0v-2.8a2.48,2.48,0,0,1,2.5-2.5,2.48,2.48,0,0,0,2.5-2.5h0V903a2.48,2.48,0,0,0-2.5-2.5h0a2.48,2.48,0,0,1-2.5-2.5h0v-2.8a2.48,2.48,0,0,1,2.5-2.5h0a2.48,2.48,0,0,0,2.5-2.5h0v-1.1a2.48,2.48,0,0,0-2.5-2.5,2.48,2.48,0,0,1-2.5-2.5h0V881a2.48,2.48,0,0,1,2.5-2.5,2.48,2.48,0,0,0,2.5-2.5h0v-1.1a2.48,2.48,0,0,0-2.5-2.5h0a2.48,2.48,0,0,1-2.5-2.5h0V867a2.63,2.63,0,0,1,2.5-2.6h0a2.48,2.48,0,0,0,2.5-2.5h0v-1.1a2.48,2.48,0,0,0-2.5-2.5h0a2.48,2.48,0,0,1-2.5-2.5h0V853a2.48,2.48,0,0,1,2.5-2.5,2.48,2.48,0,0,0,2.5-2.5h0v-1.1a2.48,2.48,0,0,0-2.5-2.5h0a2.48,2.48,0,0,1-2.5-2.5h0v-2.8a2.48,2.48,0,0,1,2.5-2.5h0a2.48,2.48,0,0,0,2.5-2.5v-3.4a2.48,2.48,0,0,0-2.5-2.5h0a2.48,2.48,0,0,1-2.5-2.5h0v-2.8a2.48,2.48,0,0,1,2.5-2.5,2.63,2.63,0,0,0,2.6-2.5h0v-1.1a2.48,2.48,0,0,0-2.5-2.5h0a2.48,2.48,0,0,1-2.5-2.5V809a2.48,2.48,0,0,1,2.5-2.5,2.48,2.48,0,0,0,2.5-2.5h0v-1.2a2.48,2.48,0,0,0-2.5-2.5h0a2.48,2.48,0,0,1-2.5-2.5V795a2.48,2.48,0,0,1,2.5-2.5,2.48,2.48,0,0,0,2.5-2.5h0v-1.1a2.48,2.48,0,0,0-2.5-2.5h0a2.48,2.48,0,0,1-2.5-2.5h0v-9a2.48,2.48,0,0,1,2.5-2.5h0a2.48,2.48,0,0,0,2.5-2.5h0v-1.7a4.23,4.23,0,0,0-4.2-4.2h-8.2a3.9,3.9,0,0,1-3.9-3.9h0v-.9a3,3,0,0,1,3-3,3,3,0,0,0,3-3,2.79,2.79,0,0,0-.6-1.8l-20.2-27.2a12.88,12.88,0,0,0-10.2-5.2h-.3a12.46,12.46,0,0,1-12.4-12.4c0-1.3-1.1-2.7-1.1-4V670.3a2,2,0,0,0-2-2,2,2,0,0,0-2,2v32.5c0,1.2-1.1,2.7-1.1,3.9A12.4,12.4,0,0,1-151,719.1h-.3a12.79,12.79,0,0,0-10.2,5.1l-21.3,28.7a2.07,2.07,0,0,0,.4,2.9h0a1.92,1.92,0,0,0,1.2.4,2.11,2.11,0,0,1,2.1,2.1h0v1.9a3.84,3.84,0,0,1-3.9,3.9h-8a4.23,4.23,0,0,0-4.2,4.2h0v1.2a3.12,3.12,0,0,0,3.1,3.1,3.12,3.12,0,0,1,3.1,3.1h0v7.9a3.12,3.12,0,0,1-3.1,3.1h0a3.12,3.12,0,0,0-3.1,3.1,3.12,3.12,0,0,0,3.1,3.1h0A3.12,3.12,0,0,1-189,796h0v1.7a3.12,3.12,0,0,1-3.1,3.1h0a3.12,3.12,0,0,0-3.1,3.1,3.12,3.12,0,0,0,3.1,3.1h0a3.12,3.12,0,0,1,3.1,3.1h0v1.7a3.12,3.12,0,0,1-3.1,3.1h0a3.12,3.12,0,0,0-3.1,3.1,3.12,3.12,0,0,0,3.1,3.1h0a3.12,3.12,0,0,1,3.1,3.1h0v1.7a3.12,3.12,0,0,1-3.1,3.1h0a3.12,3.12,0,0,0-3.1,3.1,3.12,3.12,0,0,0,3.1,3.1h0a3,3,0,0,1,3.1,3v.1h0V840a3.12,3.12,0,0,1-3.1,3.1h0a3.12,3.12,0,0,0-3.1,3.1h0a3.12,3.12,0,0,0,3.1,3.1,3.12,3.12,0,0,1,3.1,3.1h0v1.7a3.18,3.18,0,0,1-3,3.2h-.1a3.12,3.12,0,0,0-3.1,3.1h0a3.12,3.12,0,0,0,3.1,3.1,3.12,3.12,0,0,1,3.1,3.1h0v1.7a3,3,0,0,1-3.1,3h0a3.12,3.12,0,0,0-3.1,3.1h0a3.12,3.12,0,0,0,3.1,3.1,3.12,3.12,0,0,1,3.1,3.1h0v1.7a3.12,3.12,0,0,1-3.1,3.1h0a3.12,3.12,0,0,0-3.1,3.1h0a3.12,3.12,0,0,0,3.1,3.1,3,3,0,0,1,3,3.1h0v1.7a3.12,3.12,0,0,1-3.1,3.1h0a3.12,3.12,0,0,0-3.1,3.1,3.12,3.12,0,0,0,3.1,3.1,3.12,3.12,0,0,1,3.1,3.1h0v1.7a3.12,3.12,0,0,1-3.1,3.1h0a3.12,3.12,0,0,0-3.1,3.1,3.12,3.12,0,0,0,3.1,3.1,3.12,3.12,0,0,1,3.1,3.1h0v1.7a3.12,3.12,0,0,1-3.1,3.1h0a3.12,3.12,0,0,0-3.1,3.1,3.12,3.12,0,0,0,3.1,3.1,3.12,3.12,0,0,1,3.1,3.1h0v1.8a3.12,3.12,0,0,1-3.1,3.1h0a3.12,3.12,0,0,0-3.1,3.1,3.12,3.12,0,0,0,3.1,3.1,3.12,3.12,0,0,1,3.1,3.1h0v1.6a3.12,3.12,0,0,1-3.1,3.1h0a3.12,3.12,0,0,0-3.1,3.1,3.12,3.12,0,0,0,3.1,3.1,3.12,3.12,0,0,1,3.1,3.1h0v1.7a3.12,3.12,0,0,1-3.1,3.1h0a3.12,3.12,0,0,0-3.1,3.1,3.12,3.12,0,0,0,3.1,3.1h2.3a.79.79,0,0,1,.8.8.79.79,0,0,1-.8.8h-29.5a7.34,7.34,0,0,1-7.3-7.3h0V576l-.3-12.1a16.73,16.73,0,0,0-11.1-15.3l-16.8-5.8a8.44,8.44,0,0,0-10.7,5.1h0a9.18,9.18,0,0,0-.5,2.8v2.6a5.83,5.83,0,0,1-5.9,5.8,5.8,5.8,0,0,1-5.8-5.8h0v-.2l.7-36.5a16.63,16.63,0,0,0-12.6-16.5l-35.5-8.9a16.67,16.67,0,0,0-20.2,12,23.25,23.25,0,0,0-.5,2.8l-5.2,68.8-.6,7.9-.6,6.2-.6,7.9-.6,6.2-.6,7.9-.6,6.2-.6,7.9-.6,6.2-.6,7.9-.6,6.2-.6,7.9-.6,6.2-.6,7.9-.6,6.2-.6,7.9-.6,6.2-.6,7.9-.6,6.2-.6,7.9-.6,6.2-.6,7.9-.6,6.2v.4a16.75,16.75,0,0,1-6.4,12l-2.9,2.2a16.68,16.68,0,0,0-6.4,11.8l-.6,6.2-.6,7.9-.6,6.2-.6,7.9-.6,6.2-.6,7.9-.6,6.2-.6,7.3a2.8,2.8,0,0,1-2.8,2.8H-434a16.62,16.62,0,0,0-16.6,16.6h0v64.2a8.71,8.71,0,0,1-8.7,8.7h0a8.71,8.71,0,0,0-8.7,8.7h0v173.2a11.82,11.82,0,0,1-11.8,11.8,11.82,11.82,0,0,1-11.8-11.8V394.1a4.48,4.48,0,0,0-4.5-4.5h0a4.48,4.48,0,0,1-4.5-4.5h0V323.4a16.56,16.56,0,0,0-16.6-16.6h-95.6a16.62,16.62,0,0,0-16.6,16.6h0v62.2a4.48,4.48,0,0,1-4.5,4.5h0a4.48,4.48,0,0,0-4.5,4.5h0V694.5a8.24,8.24,0,0,1-8.2,8.2h-6.5a1.75,1.75,0,0,0-1.7,1.7h0v.5a1.11,1.11,0,0,1-1.1,1.1,1.11,1.11,0,0,0-1.1,1.1v6.2a1.11,1.11,0,0,0,1.1,1.1h0a1.11,1.11,0,0,1,1.1,1.1h0v.6a1.11,1.11,0,0,1-1.1,1.1,1.11,1.11,0,0,0-1.1,1.1v6.2a1.11,1.11,0,0,0,1.1,1.1,1.11,1.11,0,0,1,1.1,1.1v.6a1.11,1.11,0,0,1-1.1,1.1,1.11,1.11,0,0,0-1.1,1.1v6.2a1.11,1.11,0,0,0,1.1,1.1,1.11,1.11,0,0,1,1.1,1.1v.6a1.11,1.11,0,0,1-1.1,1.1,1.11,1.11,0,0,0-1.1,1.1v6.2a1.11,1.11,0,0,0,1.1,1.1h0a1.11,1.11,0,0,1,1.1,1.1h0v.6a1.11,1.11,0,0,1-1.1,1.1,1.11,1.11,0,0,0-1.1,1.1v6.2a1.11,1.11,0,0,0,1.1,1.1,1.11,1.11,0,0,1,1.1,1.1v.6a1.11,1.11,0,0,1-1.1,1.1h0a1.11,1.11,0,0,0-1.1,1.1h0v6.2a1.11,1.11,0,0,0,1.1,1.1,1.11,1.11,0,0,1,1.1,1.1v.6a1.11,1.11,0,0,1-1.1,1.1,1.11,1.11,0,0,0-1.1,1.1v6.2a1.11,1.11,0,0,0,1.1,1.1,1.11,1.11,0,0,1,1.1,1.1v.6a1.11,1.11,0,0,1-1.1,1.1,1.11,1.11,0,0,0-1.1,1.1v6.2a1.11,1.11,0,0,0,1.1,1.1,1.11,1.11,0,0,1,1.1,1.1v.6a1.11,1.11,0,0,1-1.1,1.1h0a1.11,1.11,0,0,0-1.1,1.1h0v6.2a1.11,1.11,0,0,0,1.1,1.1,1.11,1.11,0,0,1,1.1,1.1v.6a1.11,1.11,0,0,1-1.1,1.1,1.11,1.11,0,0,0-1.1,1.1v6.2a1.11,1.11,0,0,0,1.1,1.1,1.11,1.11,0,0,1,1.1,1.1v.6a1.11,1.11,0,0,1-1.1,1.1,1.11,1.11,0,0,0-1.1,1.1v6.2a1.11,1.11,0,0,0,1.1,1.1,1.11,1.11,0,0,1,1.1,1.1v.6a1.11,1.11,0,0,1-1.1,1.1,1.11,1.11,0,0,0-1.1,1.1v6.2a1.11,1.11,0,0,0,1.1,1.1,1.11,1.11,0,0,1,1.1,1.1h0v.6a1.11,1.11,0,0,1-1.1,1.1,1,1,0,0,0-1.1,1v6.2a1.11,1.11,0,0,0,1.1,1.1,1.11,1.11,0,0,1,1.1,1.1v.6a1.11,1.11,0,0,1-1.1,1.1,1.11,1.11,0,0,0-1.1,1.1v6.2a1.11,1.11,0,0,0,1.1,1.1,1.11,1.11,0,0,1,1.1,1.1v.6a1.11,1.11,0,0,1-1.1,1.1,1.13,1.13,0,0,0-1.2,1.1v6.3a1.11,1.11,0,0,0,1.1,1.1h0a1.11,1.11,0,0,1,1.1,1.1h0v11.8a1.11,1.11,0,0,1-1.1,1.1h0a1.11,1.11,0,0,0-1.1,1.1h0v6.2a1.11,1.11,0,0,0,1.1,1.1,1.11,1.11,0,0,1,1.1,1.1v.6a1.11,1.11,0,0,1-1.1,1.1,1.11,1.11,0,0,0-1.1,1.1v1.4a2.48,2.48,0,0,1-2.5,2.5H-677a16.56,16.56,0,0,1-16.6-16.6h0v-152a16.64,16.64,0,0,0-16.6-16.7H-776a16.56,16.56,0,0,0-16.6,16.6h0v88.4A14.4,14.4,0,0,1-807,835.5h-11a3.23,3.23,0,0,1-3.3-3.4h0a3.37,3.37,0,0,0-3.4-3.4h-2.5a5.91,5.91,0,0,1-5.9-5.9V373.3a4.48,4.48,0,0,0-4.5-4.5h0a4.48,4.48,0,0,1-4.5-4.5h0V241.8a16.56,16.56,0,0,0-16.6-16.6H-981.3a16.62,16.62,0,0,0-16.6,16.6V364.3a4.48,4.48,0,0,1-4.5,4.5h0a4.48,4.48,0,0,0-4.5,4.5h0V969.2a10.71,10.71,0,0,1-10.7,10.7,10.71,10.71,0,0,1-10.7-10.7h0V755.5a16.56,16.56,0,0,0-16.6-16.6h-4.4a16.71,16.71,0,0,1-16.7-16.6h0V638a6.23,6.23,0,0,0-6.2-6.2,6.23,6.23,0,0,1-6.2-6.2V600a16.56,16.56,0,0,0-16.6-16.6h-142.3a16.56,16.56,0,0,0-16.6,16.6v25.6a6.23,6.23,0,0,1-6.2,6.2,6.23,6.23,0,0,0-6.2,6.2v366.3a16.56,16.56,0,0,1-16.6,16.6h-7.3a16.62,16.62,0,0,1-16.6-16.6h0V785.9a16.56,16.56,0,0,0-16.6-16.6h-115.8a16.71,16.71,0,0,0-16.7,16.6h0V911.8a16.3,16.3,0,0,1-16.3,16.3,16.3,16.3,0,0,0-16.3,16.3h0v128.5a9.58,9.58,0,0,1-9.5,9.6h0a9.6,9.6,0,0,1-9.6-9.6h0V630.1a3.84,3.84,0,0,0-3.9-3.9h-2.3a1.75,1.75,0,0,1-1.7-1.7,1.75,1.75,0,0,1,1.7-1.7h2.2a3.84,3.84,0,0,0,3.9-3.9v-3.4a3.84,3.84,0,0,0-3.9-3.9h-2.3a1.75,1.75,0,0,1-1.7-1.7,1.69,1.69,0,0,1,1.7-1.7h2.3a3.84,3.84,0,0,0,3.9-3.9v-3.5a3.84,3.84,0,0,0-3.9-3.9h-2.3a1.69,1.69,0,0,1-1.7-1.7h0a1.75,1.75,0,0,1,1.7-1.7h2.2a3.84,3.84,0,0,0,3.9-3.9v-3.4a3.84,3.84,0,0,0-3.9-3.9h-2.8a1.11,1.11,0,0,1-1.1-1.1,1.11,1.11,0,0,1,1.1-1.1h3.1a4.23,4.23,0,0,0,4.2-4.2h0v-2.8a4.23,4.23,0,0,0-4.2-4.2h-2.5a1.69,1.69,0,0,1-1.7-1.7h0a1.75,1.75,0,0,1,1.7-1.7h2.5a4.23,4.23,0,0,0,4.2-4.2v-2.8a4.23,4.23,0,0,0-4.2-4.2h-2.5a1.75,1.75,0,0,1-1.7-1.7,1.75,1.75,0,0,1,1.7-1.7h2.5a4.23,4.23,0,0,0,4.2-4.2v-2.8a4.23,4.23,0,0,0-4.2-4.2h-2.5a1.75,1.75,0,0,1-1.7-1.7,1.75,1.75,0,0,1,1.7-1.7h2.5a4.23,4.23,0,0,0,4.2-4.2V502a19.11,19.11,0,0,0-6.8-14.1c-16.8-14.9-40.5-46.6-41-90.3V395a4.8,4.8,0,0,0-4.8-4.8h-1.7a3.12,3.12,0,0,0-3.1,3.1,3.12,3.12,0,0,1-3.1,3.1h-3.7a6.81,6.81,0,0,1-6.8-6.8V301a2.48,2.48,0,0,0-2.5-2.5,2.48,2.48,0,0,0-2.5,2.5v94.6a1.37,1.37,0,0,1-1.4,1.4h0a1.37,1.37,0,0,1-1.4-1.4h0v-1.7a3.12,3.12,0,0,0-3.1-3.1h-3.9a3.12,3.12,0,0,0-3.1,3.1,3.12,3.12,0,0,1-3.1,3.1H-1611a3.12,3.12,0,0,1-3.1-3.1h0a3.12,3.12,0,0,0-3.1-3.1h-2a5.19,5.19,0,0,0-5.1,5.1V397c0,44.4-12.2,76.5-26.5,91.6-3.8,4-6.7,9.1-6.7,14.7v22.4a.32.32,0,0,0,.3.3h0a.27.27,0,0,1,.3.3h0v5.9a5.19,5.19,0,0,0,5.1,5.1h3.4a1.75,1.75,0,0,1,1.7,1.7,1.75,1.75,0,0,1-1.7,1.7h-3.4a5.12,5.12,0,0,0-5.1,5.1v1.1a5.12,5.12,0,0,0,5.1,5.1h3.4a1.75,1.75,0,0,1,1.7,1.7,1.75,1.75,0,0,1-1.7,1.7h-3.6a5.34,5.34,0,0,0-5.3,5.3v.6a5.34,5.34,0,0,0,5.3,5.3h4.2a1.11,1.11,0,0,1,1.1,1.1,1.11,1.11,0,0,1-1.1,1.1h-4.2a5.27,5.27,0,0,0-5.3,5.3v.6a5.27,5.27,0,0,0,5.3,5.3h3.7a1.75,1.75,0,0,1,1.7,1.7,1.75,1.75,0,0,1-1.7,1.7h-3.7a5.34,5.34,0,0,0-5.3,5.3h0v.6a5.27,5.27,0,0,0,5.3,5.3h3.7a1.75,1.75,0,0,1,1.7,1.7,1.75,1.75,0,0,1-1.7,1.7h-3.7a5.34,5.34,0,0,0-5.3,5.3h0v.6a5.34,5.34,0,0,0,5.3,5.3h3.7a1.75,1.75,0,0,1,1.7,1.7,1.75,1.75,0,0,1-1.7,1.7h-3.7a5.27,5.27,0,0,0-5.3,5.3v.6a5.34,5.34,0,0,0,5.3,5.3h3.7a1.75,1.75,0,0,1,1.7,1.7,1.75,1.75,0,0,1-1.7,1.7h-3.9a5.59,5.59,0,0,0-5.6,5.6V854.7a15.77,15.77,0,0,1-15.8,15.8,15.75,15.75,0,0,0-15.8,15.7v95.5a8.71,8.71,0,0,1-8.7,8.7h0a8.71,8.71,0,0,0-8.7,8.7V1087c0,3.6-4,5.4-7.6,5.3h-.6l-.6-.1a13.16,13.16,0,0,1-11.4-13.1V875.8a16.5,16.5,0,0,0-10-15.2l-3.6-1.6a2,2,0,0,0-1.1-.2h-.8a4.23,4.23,0,0,1-4.2-4.2v-2.3a2,2,0,0,0-2-2,2,2,0,0,0-2,2,2,2,0,0,1-2,2h-.2a1.75,1.75,0,0,0-1.7,1.7h0a1.67,1.67,0,0,1-1.6,1.7l-6.4.3a3,3,0,0,1-3.2-2.8V855a2.85,2.85,0,0,0-1.7-2.7l-1.5-.8a6.71,6.71,0,0,0-2.8-.6l-32.9,1a3.49,3.49,0,0,0-3.3,3.4,3.37,3.37,0,0,1-3.4,3.4h-.5a3.84,3.84,0,0,0-3.9,3.9v37.5a16.56,16.56,0,0,1-16.6,16.6h-29.2a16.56,16.56,0,0,1-16.6-16.6V636.9a7.34,7.34,0,0,0-7.3-7.3,7.34,7.34,0,0,1-7.3-7.3h0V573.6a16.56,16.56,0,0,0-16.6-16.6h-25a9.6,9.6,0,0,1-9.6-9.6,9.58,9.58,0,0,0-9.5-9.6h-6.5a15.45,15.45,0,0,1-15.5-15.5,15.45,15.45,0,0,0-15.5-15.5h-95.7a16.67,16.67,0,0,0-16.5,16.6v16.8a16.56,16.56,0,0,1-16.6,16.6h-30.9a16.56,16.56,0,0,0-16.6,16.6h0v485.4a16.56,16.56,0,0,1-16.6,16.6h-1.6a16.56,16.56,0,0,0-16.6,16.6v16a16.3,16.3,0,0,1-16.3,16.3h0a16.3,16.3,0,0,1-16.3-16.3h0V985a16.56,16.56,0,0,0-16.6-16.6h-17.4a16.56,16.56,0,0,1-16.6-16.6h0v-34a1,1,0,0,0-.6-.9,1,1,0,0,1-.6-.9v-5.9a11.07,11.07,0,0,0-2.2-6.5l-7.8-10.1a16.37,16.37,0,0,1-3.5-10.2v-10a5.83,5.83,0,0,0-1.7-4.1,5.66,5.66,0,0,1-1.7-4.1V841a.82.82,0,0,0-.9-.8.79.79,0,0,0-.8.8v24.8a4.76,4.76,0,0,1-1.4,3.4,4.76,4.76,0,0,0-1.4,3.4V885a16.24,16.24,0,0,1-3,9.5l-7,10a9.88,9.88,0,0,0-1.8,5.7v3.3a3.73,3.73,0,0,1-1.7,3.2,3.73,3.73,0,0,0-1.7,3.2v1.5a5.92,5.92,0,0,1-2.8,5l-.7.4a4.41,4.41,0,0,0-2.1,3.8,4.26,4.26,0,0,1-2.3,3.8l-.8.5a5.86,5.86,0,0,0-3.1,5.2v51.6a10.76,10.76,0,0,1-10.8,10.8h-1a10.07,10.07,0,0,1-10.1-10.1V889.5a16.56,16.56,0,0,0-16.6-16.6h-36a16.62,16.62,0,0,0-16.6,16.6v46.1a16.56,16.56,0,0,1-16.6,16.6h-10.6a16.62,16.62,0,0,0-16.6,16.6v33.8a5.27,5.27,0,0,1-5.3,5.3,5.36,5.36,0,0,0-5.4,5.3h0v63.1a4.23,4.23,0,0,1-4.2,4.2h0a4.23,4.23,0,0,1-4.2-4.2h0v-26.8a5.59,5.59,0,0,0-5.6-5.6,5.59,5.59,0,0,1-5.6-5.6h0V752.6a16.64,16.64,0,0,0-16.7-16.6h-79.6c-70.3,0-127.1,49.6-127.1,120v39.7a16.56,16.56,0,0,1-16.6,16.6h-6.5c-20.3,0-36.6,34.9-36.6,54.1v66.2a16.56,16.56,0,0,1-16.6,16.6h-26.4a16.56,16.56,0,0,1-16.6-16.6h0V970a16.62,16.62,0,0,0-16.6-16.6h-6.7a16.56,16.56,0,0,0-16.6,16.6h0v144.7a8.71,8.71,0,0,1-8.7,8.7,8.71,8.71,0,0,1-8.7-8.7h0v-81.1a4.8,4.8,0,0,0-4.8-4.8h0a4.8,4.8,0,0,1-4.8-4.8h0V970a16.64,16.64,0,0,0-16.6-16.7h-2.3a16.62,16.62,0,0,1-16.6-16.6V877.6a16.71,16.71,0,0,0-16.6-16.7h-43.8a16.62,16.62,0,0,0-16.6,16.6v335.6a16.56,16.56,0,0,0,16.6,16.6H1100a16.56,16.56,0,0,0,16.6-16.6V585.4a17.33,17.33,0,0,0-17-16.7Zm-663,319a2,2,0,0,1-2,2h-3.7a.65.65,0,0,1-.6-.6v-1.4a2,2,0,0,1,2-2h2.3a2.15,2.15,0,0,1,2,2Zm0-9.6a2,2,0,0,1-2,2h-2.2a2,2,0,0,1-1.6-2.3,1.91,1.91,0,0,1,1.6-1.6h2.3a1.9,1.9,0,0,1,1.9,1.9Zm0-10.1a2,2,0,0,1-2,2h-2.2a2,2,0,0,1-1.6-2.3,1.91,1.91,0,0,1,1.6-1.6h2.3a1.9,1.9,0,0,1,1.9,1.9Zm0-10.1a2,2,0,0,1-2,2h-2.2a2,2,0,0,1-.7-3.9h3a1.78,1.78,0,0,1,1.9,1.9Zm0-10.2a2,2,0,0,1-2,2h-2.2a2,2,0,0,1-1.6-2.3,1.91,1.91,0,0,1,1.6-1.6h2.3a1.9,1.9,0,0,1,1.9,1.9Zm0-10.1a2,2,0,0,1-2,2h-2.2a2,2,0,0,1-.7-3.9h3a1.9,1.9,0,0,1,1.9,1.9Zm0-9.6a2,2,0,0,1-2,2h-2.2a2,2,0,0,1-1.6-2.3,1.91,1.91,0,0,1,1.6-1.6h2.3a1.9,1.9,0,0,1,1.9,1.9Z"/><path class="cls-5" d="M1001.5-4.4H-1134.4V1326.4H835.3c91.8,0,166.2-74.5,166.2-166.3Z"/><g id="bg_circles" data-name="bg circles"><path class="cls-6" d="M1107.2,975.9c167.3-167.5,167.3-439,0-606.4s-438.5-167.4-605.7,0-167.3,439,0,606.4,438.4,167.4,605.7,0Z"/><path class="cls-7" d="M591.6,1261c122.3-122.5,122.3-321,0-443.5s-320.7-122.5-443,0-122.3,321,0,443.5S469.2,1383.4,591.6,1261Z"/></g><g id="mountain2"><path class="cls-8" d="M859.5,1195.9H603.9c0-47,5.64-91.17,15.56-129.68h0q3.56-13.85,7.84-26.67C650.43,970.31,688.5,925.1,731.6,925.1a62.75,62.75,0,0,1,17.68,2.56c38.19,11.18,71,58.06,90.67,124.26C852.34,1093.61,859.5,1143,859.5,1195.9Z"/><path class="cls-9" d="M619.46,1066.22h0C690.7,1031,749.91,962.93,766.1,990.1c17.7,29.7-156,152.3-97.8,146.3s130.3-142.3,153-120.6c20.86,19.94-122.54,149.33-115.94,180.1"/><path class="cls-10" d="M729.13,1195.9c29.2-21.25,73-92.38,110.82-144"/><path class="cls-11" d="M749.28,927.66c0,.05,0,.09,0,.14,2.27,19-71.85,73.6-122,111.75"/><path class="cls-12" d="M842.9,1195.9h16.6c0-149.7-57.3-270.8-127.9-270.8a57.93,57.93,0,0,0-8.3.6C790,934.6,842.9,1052.1,842.9,1195.9Z"/></g><g id="mountain1"><path class="cls-13" d="M505.2,902.2c-81.9,0-148.3,130.8-148.3,292.1H653.5c-.1-161.3-66.4-292.1-148.3-292.1Z"/><path class="cls-14" d="M439.43,932.43c8.64,25.58-23.23,84,1.17,91.67,26.8,8.4,64.5-123.4,97.1-110.8S397,1129.8,457.3,1137.4s87.9-174.5,113.9-162-58.6,110.8-29.4,139.3,44.4-105.7,67.8-90.6,6.7,90.6-15.9,141.8"/><path class="cls-15" d="M620.4,1194.3h33.2c-.2-161.3-66.4-292.1-148.3-292.1a77.43,77.43,0,0,0-16.6,1.8C562.7,920.2,620.3,1044,620.4,1194.3Z"/></g><g id="palm"><rect class="cls-16" x="713.8" y="1015.3" width="2.8" height="177.6"/><path class="cls-17" d="M735.2,1004c-5.9,0-11.4,4.3-15.2,8.1,2.6-3.7,6.2-8.2,8.9-9a19.32,19.32,0,0,1,8.6-.8s-4.4-6.2-11-3.3c-2.9,1.2-5.3,5.3-7.1,9.3,1-3.7,1.8-8.1,1.1-12.1-1.7-10.2-12.9-11-12.9-11s6.3,8.8,7.4,19.1l.4,4c-1-5.9-3.3-13-9-16.9-14.2-9.5-23.2,7.1-23.2,7.1s8.1-5.1,18.8.3c8.5,4.3,12,13.3,13.2,17-1.4-2.7-7.3-13.2-16.6-14.7-14.1-2.3-17.7,15.5-17.7,15.5s8.1-6.4,18.1-6a26.53,26.53,0,0,1,16,6,40.51,40.51,0,0,0-8.5-1.2c-12.5-.1-15.1,16.6-15.1,16.6l23.7-14.5a89.55,89.55,0,0,0-4.3,8.8c-1.6,3.8-.5,12.5-.5,12.5s3.8-6.6,4.9-10.8a33,33,0,0,0,.7-10.4l16,17.4s4-10.6-8.2-15.6l-4.1-1.7a26.12,26.12,0,0,1,10.1,4,49.54,49.54,0,0,1,11.6,10.8s4.4-12.8-6.3-18a16.66,16.66,0,0,0-11-.7,15.17,15.17,0,0,1,10-2c9.7,1.2,12.5,8.1,12.5,8.1s2.8-15.9-11.3-15.9Z"/></g><g id="palm1"><rect class="cls-16" x="607.7" y="906.1" width="4.4" height="290"/><path class="cls-18" d="M640.4,881.1c-10.7,0-20.8,7.7-27.8,14.7,4.7-6.8,11.3-14.9,16.3-16.6a35.28,35.28,0,0,1,15.8-1.4s-8.1-11.3-20-6c-5.3,2.3-9.8,9.8-13,17,1.8-6.8,3.1-14.7,2-22.1-2.9-18.4-23.5-20-23.5-20s11.5,16,13.6,34.8q.45,3.75.6,7.2c-1.8-10.9-6.1-23.9-16.5-30.8-25.8-17.2-42,13.2-42,13.2s14.8-9.2,34.2.6c15.3,7.7,21.8,24.4,24,31-2.6-5.1-13.1-23.9-30.3-26.8-25.7-4.3-32.3,28.4-32.3,28.4s14.7-11.8,32.9-11c14.1.6,24.3,6.4,29.3,11a61.58,61.58,0,0,0-15.4-2.2c-22.8-.3-27.5,30.2-27.5,30.2l43.3-26.5c-1.8,3.5-5.7,10.9-7.8,16.1-2.9,7.1-1.1,22.7-1.1,22.7s7-12,9-19.8c2-7.5,1.5-15.3,1.2-19l29.3,31.8s7.2-19.3-14.8-28.7c-2.9-1.2-5.5-2.3-7.5-3.1a46.21,46.21,0,0,1,18.3,7.2,86.58,86.58,0,0,1,20.9,19.6s7.9-23.4-11.7-32.6c-6.4-3.1-13.8-2.6-20-1.2a28.66,28.66,0,0,1,18.3-3.8c17.7,2.1,22.6,14.9,22.6,14.9s5.3-28.9-20.4-28.8Z"/></g><g id="bush-1"><path class="cls-19" d="M517.9,1162a132.29,132.29,0,0,0-13.3-35.5c-.8-1.5-1.8-3.2-2.7-4.7a137,137,0,0,0-25.6-31.1,42.34,42.34,0,0,0-4-3.4,132.46,132.46,0,0,0-36-21.4c-1.6-.7-3.3-1.2-4.9-1.8a133.61,133.61,0,0,0-42-7.5h-5.3a133.61,133.61,0,0,0-42,7.5c-1.6.6-3.3,1.2-4.9,1.8a132.46,132.46,0,0,0-36,21.4c-1.4,1.1-2.7,2.3-4,3.4a132,132,0,0,0-25.6,31.1c-1,1.5-1.8,3.2-2.7,4.7a132.29,132.29,0,0,0-13.3,35.5c-.4,1.8-.7,3.6-1.1,5.3a131.37,131.37,0,0,0-2.1,23.4H521a140.34,140.34,0,0,0-2-23.4C518.6,1165.6,518.3,1163.8,517.9,1162Z"/><path class="cls-20" d="M384.1,1056.4v134.4h5.2V1056.4Z"/><path class="cls-21" d="M337.1,1065.9,370.5,1191h5.4l-34-126.8c-1.5.5-3.2,1.1-4.8,1.7Z"/><path class="cls-22" d="M297.1,1090.7l57.8,100.1h5.9l-59.7-103.5c-1.4,1.1-2.7,2.3-4,3.4Z"/><path class="cls-23" d="M268.8,1126.5l64.4,64.5h7.3l-69-69.1c-.9,1.5-1.8,3.1-2.7,4.6Z"/><path class="cls-24" d="M254.4,1167.4l40.7,23.4h10.4l-50-28.9c-.4,1.9-.7,3.7-1.1,5.5Z"/><path class="cls-25" d="M397.4,1191h5.3l33.4-125.1c-1.6-.7-3.3-1.2-4.9-1.8Z"/><path class="cls-26" d="M412.5,1191h6l57.8-100.1a42.34,42.34,0,0,0-4-3.4L412.5,1191Z"/><g class="cls-27"><path class="cls-28" d="M432.9,1191h7.2l64.4-64.4c-.8-1.5-1.8-3.2-2.7-4.7L432.9,1191Z"/></g><path class="cls-29" d="M468,1191h10.4l40.6-23.5c-.3-1.8-.7-3.6-1.1-5.3Z"/></g><g id="bush-2"><path class="cls-30" d="M618.5,1172.6A86.9,86.9,0,0,0,610,1150c-.5-1-1.1-1.9-1.6-3a86.09,86.09,0,0,0-16.3-19.8c-.8-.7-1.7-1.5-2.6-2.2a85.63,85.63,0,0,0-22.9-13.6,30.05,30.05,0,0,0-3.2-1.1,81.23,81.23,0,0,0-26.7-4.8h-3.3a86.78,86.78,0,0,0-26.7,4.8c-1.1.4-2.1.7-3.1,1.1a85.63,85.63,0,0,0-22.9,13.6,29.92,29.92,0,0,1-2.6,2.2,84,84,0,0,0-16.3,19.8c-.5,1-1.1,1.9-1.6,3a86.9,86.9,0,0,0-8.5,22.6c-.3,1.1-.4,2.3-.7,3.4a95.13,95.13,0,0,0-1.4,15H620.3a75.47,75.47,0,0,0-1.4-15,9.63,9.63,0,0,0-.4-3.4Z"/><path class="cls-31" d="M533.4,1105.6V1191h3.3v-85.4Z"/><path class="cls-32" d="M503.7,1111.4l21.2,79.4h3.4l-21.5-80.6A24.48,24.48,0,0,1,503.7,1111.4Z"/><path class="cls-33" d="M478.2,1127.4l36.7,63.6h3.8l-37.9-65.8A27.46,27.46,0,0,0,478.2,1127.4Z"/><path class="cls-34" d="M460.1,1150l41,40.9h4.7L462,1147c-.6,1.1-1.3,2.1-1.9,3Z"/><path class="cls-35" d="M451.1,1176l25.9,15h6.6l-31.8-18.4C451.5,1173.7,451.3,1174.9,451.1,1176Z"/><path class="cls-36" d="M541.9,1191h3.4l21.2-79.4a30.05,30.05,0,0,0-3.2-1.1Z"/><path class="cls-37" d="M551.5,1191h3.8l36.7-63.6c-.8-.7-1.7-1.5-2.6-2.2Z"/><path class="cls-38" d="M564.5,1191h4.7l41-40.9c-.5-1-1.1-1.9-1.6-3Z"/><path class="cls-39" d="M586.7,1191h6.6l25.9-15a34,34,0,0,0-.7-3.4Z"/></g><g id="palm2"><rect class="cls-16" x="59.8" y="945.6" width="3.8" height="252.1"/><path class="cls-40" d="M35.2,923.9c9.3,0,18.1,6.7,24.2,12.8-4.1-5.9-9.8-12.9-14.2-14.4a30.28,30.28,0,0,0-13.7-1.2s7-9.9,17.4-5.2c4.7,2,8.5,8.5,11.3,14.8-1.6-5.9-2.7-12.8-1.7-19.2C61,895.5,79,894.2,79,894.2S69,908,67.1,924.4c-.3,2.1-.4,4.3-.5,6.3,1.6-9.5,5.3-20.8,14.3-26.8,22.5-14.9,36.5,11.5,36.5,11.5s-12.9-8-29.8.5c-13.3,6.7-19,21.2-20.8,26.9,2.2-4.5,11.4-20.9,26.2-23.4,22.3-3.7,28,24.7,28,24.7s-12.8-10.3-28.6-9.6c-12.2.5-21.1,5.6-25.5,9.6a51,51,0,0,1,13.4-1.9c19.8-.3,23.9,26.3,23.9,26.3L66.7,945.4c1.6,3.1,4.9,9.5,6.8,14,2.5,6.1.9,19.7.9,19.7s-6.1-10.4-7.8-17.2a50.9,50.9,0,0,1-1.1-16.5L40,973s-6.2-16.8,12.9-24.9c2.5-1.1,4.8-2,6.5-2.7a39.94,39.94,0,0,0-15.9,6.3,74,74,0,0,0-18.2,17.1s-6.9-20.4,10.1-28.4c5.6-2.7,12-2.3,17.4-1.1A25.3,25.3,0,0,0,36.9,936c-15.4,1.9-19.7,12.9-19.7,12.9s-4.2-25.2,18-25Z"/></g><g id="bush-3"><path class="cls-41" d="M168.4,1181.3a81.6,81.6,0,0,0-7.9-21.3c-.5-.9-1.1-1.9-1.6-2.8a83,83,0,0,0-15.3-18.6c-.8-.7-1.6-1.4-2.4-2a78.55,78.55,0,0,0-21.6-12.8c-1-.4-2-.7-3-1.1a80.06,80.06,0,0,0-25.2-4.5H88.3a77.33,77.33,0,0,0-25.2,4.5c-1,.3-2,.7-3,1.1a80,80,0,0,0-21.6,12.8c-.8.7-1.6,1.4-2.4,2a80.34,80.34,0,0,0-15.3,18.6c-.6.9-1.1,1.9-1.6,2.8a77.21,77.21,0,0,0-8,21.3c-.2,1.1-.4,2.1-.6,3.2a81.84,81.84,0,0,0-1.2,14H170.2a81.84,81.84,0,0,0-1.2-14C168.8,1183.4,168.6,1182.4,168.4,1181.3Z"/><path class="cls-42" d="M88.3,1118.1v80.4h3.1v-80.4Zm-28.2,5.7,20,74.8h3.2L63,1122.7l-.7.3h0A14.27,14.27,0,0,0,60.1,1123.8Zm10.7,74.8-34.6-59.9.2-.2h0a19.17,19.17,0,0,1,2.2-1.8l35.7,62Zm-51.6-38.5,38.5,38.6h4.4l-41.3-41.4c-.2.4-.5.9-.8,1.4s-.5,1-.8,1.4Zm15.7,38.5-24.3-14a11.63,11.63,0,0,1,.4-1.8h0l.3-1.5,29.9,17.3Zm61.3,0h3.2l20-74.8c-1-.4-2-.7-3-1.1l-20.2,75.9Zm12.6,0h-3.6l35.8-62c.8.6,1.6,1.3,2.4,2Zm8.6,0h4.3l38.5-38.6c-.5-.9-1.1-1.9-1.6-2.8Zm27.2,0h-6.2l30-17.2c.3,1.1.5,2.1.7,3.2Z"/></g><g id="bush-4"><path class="cls-43" d="M64.6,1154.2c-7.5,0-10.4-6.6-10.4-15.8s-2.6-16.7-12.7-17.2c-13.2-.5-12,12.3-12,27.8,0,19.8-7.1,7.1-17,18.2-8.5,9.4,2.4,26.2,5.6,31.1H60.8c1.4-2.6,4.9-9,8.9-16.7C78.7,1165.1,72.2,1154.2,64.6,1154.2Z"/><path class="cls-44" d="M44.4,1157.3H42.3v29.6l-8.9-11.8-1.7,1.3,10.6,14.2v7.9h2.1V1176l9-11.2-1.7-1.3-7.3,9.1v-15.3Z"/></g><g id="grass"><rect class="cls-45" y="1189" width="749.71" height="159"/><path class="cls-46" d="M636.7,1306.9c-36.7-14-72.8-24.6-102-25.3-11.7-.3-20.4.9-26.5,3.3s-9.9,6.3-11,11.4.1,10.6,3,16.7,7.5,12.8,13.3,19.7c4.13,4.94,8.87,10.08,14.08,15.3h4.59c-6-6-11.51-11.8-16.17-17.4a101.48,101.48,0,0,1-12.9-19c-2.8-5.7-3.7-10.6-2.8-14.5s3.6-6.8,9.1-9,13.8-3.4,25.2-3.1c28.6.7,64.3,11,100.9,25,29.83,11.39,60.17,25.16,87.82,38h7.77C701.81,1334.33,669,1319.27,636.7,1306.9Zm47.9-83.5c.9-.6,2.5-1.1,5.2-1.2,5.5-.3,14.3.8,27.4,3.5A177.44,177.44,0,0,1,749.71,1236v-3.66a178.34,178.34,0,0,0-31.81-9.95c-13.1-2.7-22.4-3.8-28.3-3.5-2.9.2-5.3.7-6.9,1.8a5,5,0,0,0-2.3,5,14.84,14.84,0,0,0,2.7,6,58.64,58.64,0,0,0,6.1,7.1c5,5.2,12,11.3,20.2,18.2,4.8,4.1,10.1,8.4,15.6,13,6.6,5.5,13.6,11.3,20.76,17.36l4,3.36v-4.43c-7.76-6.6-15.37-12.88-22.51-18.79-5.5-4.6-10.8-8.9-15.6-13-8.2-6.9-15-13-19.9-18a51.78,51.78,0,0,1-5.7-6.7,10.55,10.55,0,0,1-2.2-4.5,4.1,4.1,0,0,1,.1-1.1A2.7,2.7,0,0,1,684.6,1223.4Zm-503.2,5.5c-3.3-5.8-9.2-8.8-18.4-8.8s-18,4.1-26.3,11-16.3,16.7-24.2,28.4c-5.93,8.83-11.85,18.79-17.77,29.44l-1.85,3.35c-6.56,11.91-13.13,24.61-19.78,37.51l-7.8,15-1.67,3.2h3.43l.94-1.8c2.6-5.1,5.2-10.1,7.8-15.1,7.53-14.62,14.94-28.91,22.31-42.09,5.63-10.08,11.25-19.5,16.89-27.91,7.8-11.5,15.7-21,23.6-27.7s15.9-10.3,24.2-10.3,13,2.7,15.4,7c2.5,4.5,2.9,11.2,1.5,19.8-1.3,7.9-4,17-7.44,26.89-1.47,4.2-3.06,8.54-4.75,13-2.26,6-4.67,12.11-7.11,18.34v.1l-2.2,5.6c-4.49,11.48-9,23.1-12.62,34.2h3.83c3.49-10.53,7.74-21.57,12.09-32.6.8-2,1.5-3.9,2.3-5.8,2.65-6.69,5.27-13.35,7.71-19.83,5.41-14.33,9.9-27.78,11.69-38.87C184.7,1242.1,184.5,1234.4,181.4,1228.9ZM335.48,1189c-1.26,1.52-2.52,3.09-3.77,4.69-.81,1-1.61,2.06-2.41,3.11-19.27,25.3-37.76,58.5-55.85,91.32l-.65,1.18-.1.3q-4.54,8.2-9.06,16.34c-8.17,14.66-16.31,28.94-24.45,42.06h3.64c8.3-13.46,16.57-28,24.84-42.94q3.91-7,7.83-14.16l.3-.5,1.35-2.44c17.77-32.22,35.74-64.44,54.56-89.17l.29-.39q3.76-4.92,7.54-9.4Zm78.93,0c-1.2,9.84-3.9,21.17-7.31,33.5-1.8,6.5-3.8,13.2-5.8,20l-.1.3c-2,6.7-4,13.6-5.9,20.4-1.41,5-2.76,10.06-4,15.07-2.21,8.88-4.08,17.66-5.29,26,0,.11,0,.22-.05.33h0c-1.86,13-2.23,25.25.15,36a52.88,52.88,0,0,0,2.2,7.4h3.59a46.87,46.87,0,0,1-2.49-8.1c-2.08-9.66-1.92-20.83-.29-33,.09-.68.19-1.38.29-2.07a271.31,271.31,0,0,1,5.55-27c1.13-4.53,2.37-9.09,3.65-13.67,1.9-6.8,3.9-13.7,5.9-20.4l.1-.3c2-6.8,4-13.5,5.8-20,3.46-12.51,6.28-24.27,7.46-34.4Z"/><path class="cls-47" d="M749.71,1201v147H0v-61.94c29.24,1.25,60.7,2.24,94.73,2.88l3.38.07q33,.6,69.4.75h4q8.51,0,17.19,0c30.77,0,58.88-.59,84.75-1.68l3.7-.16c19.39-.85,37.51-2,54.56-3.38,21.45-1.74,41.18-3.87,59.58-6.31l3.66-.5q11.88-1.62,23.05-3.4C542.26,1254.55,605.91,1220.41,749.71,1201Z"/></g></g><path class="cls-48" d="M331,1348a55.93,55.93,0,0,0-5.4-14.8,18.58,18.58,0,0,0-1.1-1.9,57.08,57.08,0,0,0-10.5-13,20,20,0,0,0-1.6-1.4,55.54,55.54,0,0,0-14.8-8.9c-.7-.3-1.4-.5-2-.7a52.82,52.82,0,0,0-17.2-3.1h-2.1a55.61,55.61,0,0,0-17.2,3.1c-.7.2-1.3.5-2,.7a57.16,57.16,0,0,0-14.8,8.9c-.6.5-1.1,1-1.6,1.4a57.08,57.08,0,0,0-10.5,13c-.4.6-.7,1.3-1.1,1.9a54.68,54.68,0,0,0-5.4,14.8,17,17,0,0,0-.4,2.2,53.28,53.28,0,0,0-.8,9.8h110a64.76,64.76,0,0,0-.8-9.8A11.09,11.09,0,0,1,331,1348Z"/><path class="cls-49" d="M421.2,1356.3a83.75,83.75,0,0,0-8.3-22.2c-.5-.9-1.1-2-1.7-2.9a82.79,82.79,0,0,0-16-19.4,16.38,16.38,0,0,0-2.5-2.1,83.84,83.84,0,0,0-22.5-13.4,28.27,28.27,0,0,0-3.1-1.1,80.93,80.93,0,0,0-26.3-4.7h-3.3a81.4,81.4,0,0,0-26.3,4.7c-1,.3-2.1.8-3.1,1.1a81.32,81.32,0,0,0-22.5,13.4c-.9.7-1.7,1.5-2.5,2.1a82.79,82.79,0,0,0-16,19.4c-.6.9-1.1,2-1.7,2.9a83.75,83.75,0,0,0-8.3,22.2c-.3,1.1-.4,2.2-.7,3.3a79.58,79.58,0,0,0-1.3,14.7H422.9a81.14,81.14,0,0,0-1.3-14.7A9.35,9.35,0,0,0,421.2,1356.3Z"/></svg>