<svg id="hero-large" xmlns="http://www.w3.org/2000/svg" xmlns:xlink="http://www.w3.org/1999/xlink" viewBox="0 0 1588 902">
  <defs>
    <linearGradient id="linear-gradient" x1="1023.77" y1="179.86" x2="167.25" y2="911.02" gradientTransform="matrix(1, 0, 0, -1, 0, 904)" gradientUnits="userSpaceOnUse">
      <stop offset="0" stop-color="#ffedba"/>
      <stop offset="1" stop-color="#ee4d47"/>
    </linearGradient>
    <linearGradient id="linear-gradient-2" x1="1096.91" y1="460.73" x2="1096.91" y2="180.98" gradientTransform="matrix(1, 0, 0, -1, 0, 904)" gradientUnits="userSpaceOnUse">
      <stop offset="0.24" stop-color="#2ca77f"/>
      <stop offset="1" stop-color="#1b8877"/>
    </linearGradient>
    <linearGradient id="linear-gradient-3" x1="1214.79" y1="380.61" x2="1214.79" y2="186.89" gradientTransform="matrix(1, 0, 0, -1, 0, 904)" gradientUnits="userSpaceOnUse">
      <stop offset="0.42" stop-color="#2ca77f"/>
      <stop offset="1" stop-color="#1b8877"/>
    </linearGradient>
    <linearGradient id="linear-gradient-4" x1="908.45" y1="431.84" x2="908.45" y2="139.49" xlink:href="#linear-gradient-3"/>
    <linearGradient id="linear-gradient-5" x1="639.97" y1="479.51" x2="639.97" y2="10.58" gradientTransform="matrix(1, 0, 0, -1, 0, 904)" gradientUnits="userSpaceOnUse">
      <stop offset="0.28" stop-color="#eeef99"/>
      <stop offset="0.77" stop-color="#b9d079"/>
    </linearGradient>
    <linearGradient id="linear-gradient-6" x1="1144.14" y1="90.37" x2="158.37" y2="903.19" xlink:href="#linear-gradient"/>
    <mask id="mask" x="-1133.13" y="-82.85" width="2490" height="883.97" maskUnits="userSpaceOnUse">
      <g id="mask0">
        <path d="M1287.87,1.12H2.87v800h1185a100,100,0,0,0,100-100Z" fill="url(#linear-gradient)"/>
      </g>
    </mask>
    <linearGradient id="linear-gradient-7" x1="111.87" y1="1114.88" x2="111.87" y2="10.88" gradientTransform="matrix(1, 0, 0, -1, 0, 904)" gradientUnits="userSpaceOnUse">
      <stop offset="0" stop-color="#f4a984"/>
      <stop offset="1" stop-color="#f4a984" stop-opacity="0"/>
    </linearGradient>
    <linearGradient id="linear-gradient-8" x1="265.84" y1="999.39" x2="265.91" y2="643.66" gradientTransform="matrix(1, 0, 0, -1, 0, 904)" gradientUnits="userSpaceOnUse">
      <stop offset="0" stop-color="#fff"/>
      <stop offset="1" stop-color="#fff" stop-opacity="0"/>
    </linearGradient>
    <linearGradient id="linear-gradient-9" x1="645.37" y1="438.88" x2="645.37" y2="1130.88" gradientTransform="matrix(1, 0, 0, -1, 0, 904)" gradientUnits="userSpaceOnUse">
      <stop offset="0" stop-color="#ffedba" stop-opacity="0"/>
      <stop offset="1" stop-color="#eb2a24"/>
    </linearGradient>
    <linearGradient id="linear-gradient-10" x1="1181.64" y1="849.53" x2="1181.8" y2="497.53" xlink:href="#linear-gradient-8"/>
    <linearGradient id="linear-gradient-11" x1="888.68" y1="521.37" x2="888.79" y2="263.93" xlink:href="#linear-gradient-8"/>
    <mask id="mask-2" x="971.8" y="483.64" width="263.13" height="239.07" maskUnits="userSpaceOnUse">
      <g id="mask0-2" data-name="mask0">
        <path d="M1096.86,491.21c-58.78,0-106.33,100.89-106.33,225.24H1203.3C1203.3,592,1155.63,491.21,1096.86,491.21Z" fill="url(#linear-gradient-2)"/>
      </g>
    </mask>
    <linearGradient id="linear-gradient-14" x1="1103.37" y1="449.57" x2="1103.37" y2="195.43" xlink:href="#linear-gradient-8"/>
    <mask id="mask-3" x="1136.98" y="514.33" width="155.63" height="202.78" maskUnits="userSpaceOnUse">
      <g id="mask1">
        <path d="M1214.79,552.28c-43,0-77.81,73.83-77.81,164.83h155.63C1292.49,626.11,1257.68,552.28,1214.79,552.28Z" fill="url(#linear-gradient-3)"/>
      </g>
    </mask>
    <linearGradient id="linear-gradient-16" x1="1213.58" y1="351.06" x2="1213.58" y2="192.8" xlink:href="#linear-gradient-8"/>
    <mask id="mask-4" x="784.99" y="472.16" width="246.92" height="242.98" maskUnits="userSpaceOnUse">
      <g id="mask2">
        <path d="M908.44,472.16C840.28,472.16,785,581,785,715.14h246.92C1031.78,581,976.61,472.16,908.44,472.16Z" fill="url(#linear-gradient-4)"/>
      </g>
    </mask>
    <linearGradient id="linear-gradient-18" x1="900.35" y1="373.4" x2="900.35" y2="166.04" xlink:href="#linear-gradient-8"/>
    <linearGradient id="linear-gradient-19" x1="1082.12" y1="377.28" x2="1082.12" y2="318.26" gradientTransform="matrix(1, 0, 0, -1, 0, 904)" gradientUnits="userSpaceOnUse">
      <stop offset="0" stop-color="#d3d86c"/>
      <stop offset="1" stop-color="#82a637"/>
    </linearGradient>
    <linearGradient id="linear-gradient-20" x1="988.56" y1="504.42" x2="988.56" y2="396.38" xlink:href="#linear-gradient-19"/>
    <clipPath id="clip-path">
      <rect x="1186.89" y="609.41" width="126.08" height="112.29" fill="none"/>
    </clipPath>
    <linearGradient id="linear-gradient-21" x1="1249.77" y1="254.69" x2="1249.77" y2="236.58" xlink:href="#linear-gradient-19"/>
    <linearGradient id="linear-gradient-22" x1="809.75" y1="339.9" x2="809.75" y2="191.75" xlink:href="#linear-gradient-19"/>
    <linearGradient id="linear-gradient-23" x1="809.81" y1="303.52" x2="809.81" y2="191.75" gradientTransform="matrix(1, 0, 0, -1, 0, 904)" gradientUnits="userSpaceOnUse">
      <stop offset="0" stop-color="#084f15" stop-opacity="0"/>
      <stop offset="1" stop-color="#084f15"/>
    </linearGradient>
    <linearGradient id="linear-gradient-24" x1="784.67" y1="297.14" x2="784.67" y2="191.63" xlink:href="#linear-gradient-23"/>
    <linearGradient id="linear-gradient-25" x1="761.75" y1="277.86" x2="761.75" y2="191.75" xlink:href="#linear-gradient-23"/>
    <linearGradient id="linear-gradient-26" x1="741.46" y1="249.12" x2="741.46" y2="191.63" xlink:href="#linear-gradient-23"/>
    <linearGradient id="linear-gradient-27" x1="720.94" y1="215.81" x2="720.94" y2="191.75" xlink:href="#linear-gradient-23"/>
    <linearGradient id="linear-gradient-28" x1="834.83" y1="297.14" x2="834.83" y2="191.63" xlink:href="#linear-gradient-23"/>
    <linearGradient id="linear-gradient-29" x1="857.8" y1="277.75" x2="857.8" y2="191.63" xlink:href="#linear-gradient-23"/>
    <linearGradient id="linear-gradient-30" x1="878.04" y1="249.12" x2="878.04" y2="191.63" xlink:href="#linear-gradient-23"/>
    <linearGradient id="linear-gradient-31" x1="933.16" y1="285.91" x2="933.16" y2="191.63" xlink:href="#linear-gradient-19"/>
    <linearGradient id="linear-gradient-32" x1="933.28" y1="262.69" x2="933.28" y2="191.63" xlink:href="#linear-gradient-23"/>
    <linearGradient id="linear-gradient-33" x1="917.43" y1="258.81" x2="917.43" y2="191.75" xlink:href="#linear-gradient-23"/>
    <linearGradient id="linear-gradient-34" x1="902.84" y1="246.38" x2="902.84" y2="191.63" xlink:href="#linear-gradient-23"/>
    <linearGradient id="linear-gradient-35" x1="889.9" y1="228.24" x2="889.9" y2="191.75" xlink:href="#linear-gradient-23"/>
    <linearGradient id="linear-gradient-36" x1="876.9" y1="206.92" x2="876.9" y2="191.63" xlink:href="#linear-gradient-23"/>
    <linearGradient id="linear-gradient-37" x1="949.24" y1="258.58" x2="949.24" y2="191.63" xlink:href="#linear-gradient-23"/>
    <linearGradient id="linear-gradient-38" x1="963.83" y1="246.38" x2="963.83" y2="191.63" xlink:href="#linear-gradient-23"/>
    <linearGradient id="linear-gradient-39" x1="976.77" y1="228.13" x2="976.77" y2="191.63" xlink:href="#linear-gradient-23"/>
    <linearGradient id="linear-gradient-40" x1="989.77" y1="206.92" x2="989.77" y2="191.63" xlink:href="#linear-gradient-23"/>
    <linearGradient id="linear-gradient-41" x1="642.45" y1="1080.5" x2="642.45" y2="611.57" gradientTransform="matrix(1, 0, 0, 1, 0, 0)" xlink:href="#linear-gradient-5"/>
    <mask id="mask-5" x="-8.03" y="658.35" width="1296" height="215.84" maskUnits="userSpaceOnUse">
      <g id="mask3">
        <path d="M1288,704.71H-8v95.58H1288Z" fill="url(#linear-gradient-5)"/>
      </g>
    </mask>
    <linearGradient id="linear-gradient-42" x1="713.69" y1="194.55" x2="713.69" y2="-17.76" xlink:href="#linear-gradient-8"/>
    <linearGradient id="linear-gradient-43" x1="642.45" y1="836.59" x2="642.45" y2="701.78" gradientUnits="userSpaceOnUse">
      <stop offset="0.16" stop-color="#82a637"/>
      <stop offset="0.89" stop-color="#1b8877"/>
    </linearGradient>
    <linearGradient id="linear-gradient-44" x1="80.81" y1="589.85" x2="80.81" y2="425.66" xlink:href="#linear-gradient-19"/>
    <linearGradient id="linear-gradient-45" x1="114.97" y1="837.66" x2="114.97" y2="686.01" gradientTransform="matrix(1, 0, 0, 1, 0, 0)" xlink:href="#linear-gradient-19"/>
    <linearGradient id="linear-gradient-46" x1="115.03" y1="218.37" x2="115.03" y2="-46.88" xlink:href="#linear-gradient-23"/>
    <linearGradient id="linear-gradient-47" x1="30" y1="268.5" x2="30" y2="132.4" xlink:href="#linear-gradient-3"/>
  </defs>
  <title>hero-large</title>
  <path d="M1285,0H0V800H1185a100,100,0,0,0,100-100Z" fill="url(#linear-gradient-6)"/>
  <g mask="url(#mask)">
    <g>
      <path d="M1328.44,345.65h-10.83a4.06,4.06,0,0,0-4.06,4.06V594a5.58,5.58,0,0,1-5.59,5.58h0a5.58,5.58,0,0,1-5.58-5.58V437.92a10,10,0,0,0-10-10h-10.46a10,10,0,0,0-10,10v9.79a10,10,0,0,1-10,10h-66a7.62,7.62,0,0,0-7.62,7.62v4.23a3.38,3.38,0,0,1-3.38,3.39h0a3.38,3.38,0,0,0-3.39,3.38v54.35a8.29,8.29,0,0,1-8.29,8.29h0a8.29,8.29,0,0,0-8.29,8.29v36.22a10,10,0,0,1-10,10h-1a10,10,0,0,0-10,10v53a3.72,3.72,0,0,1-3.72,3.73h0a3.72,3.72,0,0,1-3.72-3.73V349.37a3,3,0,0,0-3-3h0a3.06,3.06,0,0,1-3-3.05V316.36a5.24,5.24,0,0,0-5.24-5.25h0a5.24,5.24,0,0,1-5.25-5.24V279.8a3.55,3.55,0,0,0-3.55-3.56h0a3.55,3.55,0,0,1-3.55-3.55V251.37a10,10,0,0,0-10-10h-25.36a10,10,0,0,0-10,10v21.32a3.55,3.55,0,0,1-3.55,3.55h0a3.56,3.56,0,0,0-3.56,3.56v26.07a5.23,5.23,0,0,1-5.24,5.24h0a5.25,5.25,0,0,0-5.25,5.25v27.09a2.54,2.54,0,0,1-2.54,2.54h0a2.53,2.53,0,0,0-2.53,2.54V557.76a5.93,5.93,0,0,1-5.93,5.92h0a5.93,5.93,0,0,0-5.92,5.93V652.9a7.28,7.28,0,0,1-7.28,7.28h-6.6a.68.68,0,0,1-.67-.68h0a.68.68,0,0,0-.68-.68h-2.2a1.18,1.18,0,0,1-1.18-1.18h0a1.18,1.18,0,0,1,1.18-1.19h1.18a1.7,1.7,0,0,0,1.7-1.69h0a1.69,1.69,0,0,0-1.7-1.69h-1a1.35,1.35,0,0,1-1.35-1.36h0a1.34,1.34,0,0,1,1.35-1.35h1a1.7,1.7,0,0,0,1.7-1.7h0a1.7,1.7,0,0,0-1.7-1.69h-1.18a1.18,1.18,0,0,1-1.18-1.18h0a1.18,1.18,0,0,1,1.18-1.19h1.18a1.7,1.7,0,0,0,1.7-1.69h0a1.69,1.69,0,0,0-1.7-1.69h-1.18a1.19,1.19,0,0,1-1.18-1.19h0a1.18,1.18,0,0,1,1.18-1.18h1.18a1.7,1.7,0,0,0,1.7-1.7h0a1.7,1.7,0,0,0-1.7-1.69h-1.18a1.18,1.18,0,0,1-1.18-1.19h0a1.18,1.18,0,0,1,1.18-1.18h1.18a1.7,1.7,0,0,0,1.7-1.69h0a1.7,1.7,0,0,0-1.7-1.7h-1.18a1.18,1.18,0,0,1-1.18-1.18h0a1.18,1.18,0,0,1,1.18-1.19h1.18a1.69,1.69,0,0,0,1.7-1.69h0a1.7,1.7,0,0,0-1.7-1.69h-1.18a1.18,1.18,0,0,1-1.18-1.19h0a1.18,1.18,0,0,1,1.18-1.18h1.18a1.7,1.7,0,0,0,1.7-1.69h0a1.7,1.7,0,0,0-1.7-1.7h-1.18a1.18,1.18,0,0,1-1.18-1.18h0a1.18,1.18,0,0,1,1.18-1.19h1.18a1.69,1.69,0,0,0,1.7-1.69h0a1.7,1.7,0,0,0-1.7-1.69h-1.18a1.18,1.18,0,0,1-1.18-1.19h0a1.18,1.18,0,0,1,1.18-1.18h1.18a1.7,1.7,0,0,0,1.7-1.7h0a1.7,1.7,0,0,0-1.7-1.69h-1.18a1.18,1.18,0,0,1-1.18-1.18h0a1.18,1.18,0,0,1,1.18-1.19h1.18a1.7,1.7,0,0,0,1.7-1.69h0a1.69,1.69,0,0,0-1.7-1.69h-.33a2,2,0,0,1-2-2v-.68a2,2,0,0,1,2-2h.33a1.7,1.7,0,0,0,1.7-1.7h0a1.7,1.7,0,0,0-1.7-1.69h-1.18a1.18,1.18,0,0,1-1.18-1.18h0a1.18,1.18,0,0,1,1.18-1.19h1.18a1.7,1.7,0,0,0,1.7-1.69h0a1.69,1.69,0,0,0-1.7-1.69h-1.18a1.19,1.19,0,0,1-1.18-1.19h0a1.18,1.18,0,0,1,1.18-1.18h1.18a1.7,1.7,0,0,0,1.7-1.7h0a1.7,1.7,0,0,0-1.7-1.69h-1.18a1.18,1.18,0,0,1-1.18-1.19h0a1.18,1.18,0,0,1,1.18-1.18h1.18a1.7,1.7,0,0,0,1.7-1.69h0a1.7,1.7,0,0,0-1.7-1.7h-1.18a1.18,1.18,0,0,1-1.18-1.18h0a1.18,1.18,0,0,1,1.18-1.19h1.18a1.69,1.69,0,0,0,1.7-1.69h0a1.7,1.7,0,0,0-1.7-1.69h-1.18a1.18,1.18,0,0,1-1.18-1.19h0a1.18,1.18,0,0,1,1.18-1.18h1.18a1.7,1.7,0,0,0,1.7-1.69h0a1.7,1.7,0,0,0-1.7-1.7h-1.18a1.18,1.18,0,0,1-1.18-1.18h0a1.18,1.18,0,0,1,1.18-1.19h1.18a1.7,1.7,0,0,0,1.7-1.69h0a1.69,1.69,0,0,0-1.7-1.69h-1.18a1.18,1.18,0,0,1-1.18-1.19h0a1.18,1.18,0,0,1,1.18-1.18h1.18a1.7,1.7,0,0,0,1.7-1.7h0a1.7,1.7,0,0,0-1.7-1.69h-1.18a1.18,1.18,0,0,1-1.18-1.18h0a1.18,1.18,0,0,1,1.18-1.19h1.18a1.7,1.7,0,0,0,1.7-1.69h0a1.69,1.69,0,0,0-1.7-1.69h-1.18a1.18,1.18,0,0,1-1.18-1.19h0a1.18,1.18,0,0,1,1.18-1.18h1.18a1.7,1.7,0,0,0,1.7-1.7h0a1.7,1.7,0,0,0-1.7-1.69h-1.18a1.18,1.18,0,0,1-1.18-1.18h0a1.18,1.18,0,0,1,1.18-1.19h1.18a1.7,1.7,0,0,0,1.7-1.69h0a1.7,1.7,0,0,0-1.7-1.7h-1.18a1.18,1.18,0,0,1-1.18-1.18h0a1.19,1.19,0,0,1,1.18-1.19h1.18a1.69,1.69,0,0,0,1.7-1.69h0a1.7,1.7,0,0,0-1.7-1.69h-1.18a1.18,1.18,0,0,1-1.18-1.19h0a1.18,1.18,0,0,1,1.18-1.18h1.18a1.7,1.7,0,0,0,1.7-1.69h0a1.7,1.7,0,0,0-1.7-1.7h-.33a2,2,0,0,1-2-2v-1.35a2,2,0,0,1,2-2h.33a1.7,1.7,0,0,0,1.7-1.7h0a1.7,1.7,0,0,0-1.7-1.69h-1.18a1.18,1.18,0,0,1-1.18-1.18h0a1.18,1.18,0,0,1,1.18-1.19h1.18a1.7,1.7,0,0,0,1.7-1.69h0a1.69,1.69,0,0,0-1.7-1.69h-1.18a1.19,1.19,0,0,1-1.18-1.19h0a1.18,1.18,0,0,1,1.18-1.18h1.18a1.7,1.7,0,0,0,1.7-1.7h0a1.7,1.7,0,0,0-1.7-1.69h-1.18a1.18,1.18,0,0,1-1.18-1.19h0a1.18,1.18,0,0,1,1.18-1.18h1.18a1.7,1.7,0,0,0,1.7-1.69h0a1.7,1.7,0,0,0-1.7-1.7h-.33a2,2,0,0,1-2-2v-2.2a1.53,1.53,0,0,0-1.53-1.52h0a1.52,1.52,0,0,1-1.52-1.52v-2.21a3.73,3.73,0,0,0-3.73-3.72h-.33a4.06,4.06,0,0,1-4.06-4.06V469.56a3,3,0,0,0-3.05-3h0a3.06,3.06,0,0,1-3-3V451.88a10,10,0,0,0-7.86-9.77l-10.75-2.34h0a5.68,5.68,0,0,1-4.4-5.53V402.7a1.19,1.19,0,0,0-1.19-1.19h0a1.18,1.18,0,0,0-1.18,1.19v31.9a3.05,3.05,0,0,1-3.72,3h0a3.05,3.05,0,0,0-3.73,3V464a2.54,2.54,0,0,1-2.54,2.54h0a2.53,2.53,0,0,0-2.53,2.53V480.4a4.07,4.07,0,0,1-4.07,4.06h-.84a3.22,3.22,0,0,0-3.22,3.22v1.69a1.52,1.52,0,0,1-1.52,1.52h0a1.52,1.52,0,0,0-1.52,1.53v1.35a2.88,2.88,0,0,1-2.88,2.88H915.37a10,10,0,0,0-10,10v17.58a10,10,0,0,1-10,10H870.7a10,10,0,0,0-3.63.68l-30.4,11.85h0a2.67,2.67,0,0,0-1.7,2.5V561a2.71,2.71,0,0,0,2.71,2.7h.68a2,2,0,0,1,2,2h0a2,2,0,0,1-2,2H837a2,2,0,0,0-2,2h0a2,2,0,0,0,2,2h1.35a2,2,0,0,1,2,2h0a2,2,0,0,1-2,2H837a2,2,0,0,0-2,2h0a2,2,0,0,0,2,2h1.35a2,2,0,0,1,2,2h0a2,2,0,0,1-2,2H837a2,2,0,0,0-2,2h0a2,2,0,0,0,2,2h1.35a2,2,0,0,1,2,2h0a2,2,0,0,1-2,2H837a2,2,0,0,0-2,2h0a2,2,0,0,0,2,2h1.86a1.52,1.52,0,0,1,1.52,1.52h0a1.52,1.52,0,0,1-1.52,1.52H808.09a10,10,0,0,1-9.38-6.52L790.66,571a4.34,4.34,0,0,0-8.14,0h0c-1.7,4.61-8.82,3.29-8.81-1.63v-24.3c0-13.54,0-27.08-.33-40.62,0-5.76-.34-11.85-.34-17.61-.34-12.53-.68-25.05-1.36-37.92-.34-6.09-.34-12.19-.67-18.28-.68-11.85-1-23.36-1.7-35.21,0-1.36-.33-2.71-.33-4.07-.68-10.49-1.36-20.65-2-31.14-1.35-19-3-37.92-4.73-56.88-.13-1.73-.3-3.51-.48-5.29a10.3,10.3,0,0,0-10.19-9.27H688.12c-4.85,0-9.17,3.61-9.17,8.46h0l-1,12.19c-.34,3.39-.68,7.11-1,10.5-.68,6.43-1,12.86-1.7,19.3-.33,3-.33,5.75-.67,8.8-.34,5.42-.68,10.83-1.36,16.25a47.48,47.48,0,0,0-.34,6.77c-.33,7.11-1,14.22-1.35,21,0,2.37-.34,4.74-.34,7.11-.34,7.45-.67,14.56-1,22,0,1.69-.34,3.05-.34,4.74-.34,6.77-.68,13.88-1,20.65v4.06c-.34,7.79-.67,15.58-.67,23.36v4.74c-.34,8.13-.34,16.26-.68,24v1c0,8.12-.34,16.25-.34,24v38.09a7.27,7.27,0,0,1-7.28,7.27h0a7.28,7.28,0,0,0-7.27,7.28V661.7a8.63,8.63,0,0,1-8.63,8.63h-7.79a.85.85,0,0,1-.84-.84h0a.85.85,0,0,1,.84-.85h.68a1.52,1.52,0,0,0,1.52-1.52v-.68a1.52,1.52,0,0,0-1.52-1.52h0a1.53,1.53,0,0,1-1.52-1.53V662a1.53,1.53,0,0,1,1.52-1.53h0a1.52,1.52,0,0,0,1.52-1.52v-.68a1.52,1.52,0,0,0-1.52-1.52h0a1.52,1.52,0,0,1-1.52-1.52v-1.7a1.52,1.52,0,0,1,1.52-1.52h0a1.52,1.52,0,0,0,1.52-1.52v-.68a1.52,1.52,0,0,0-1.52-1.52h0a1.53,1.53,0,0,1-1.52-1.53v-1.69a1.52,1.52,0,0,1,1.52-1.52h0a1.53,1.53,0,0,0,1.52-1.53v-.68a1.52,1.52,0,0,0-1.52-1.52h0a1.52,1.52,0,0,1-1.52-1.52v-1.7a1.52,1.52,0,0,1,1.52-1.52h0a1.52,1.52,0,0,0,1.52-1.52v-.68a1.52,1.52,0,0,0-1.52-1.52h0a1.52,1.52,0,0,1-1.52-1.53v-1.69a1.52,1.52,0,0,1,1.52-1.52h0a1.52,1.52,0,0,0,1.52-1.53v-.67a1.52,1.52,0,0,0-1.52-1.53h0a1.52,1.52,0,0,1-1.52-1.52v-1.69a1.52,1.52,0,0,1,1.52-1.53h0a1.52,1.52,0,0,0,1.52-1.52V616a1.52,1.52,0,0,0-1.52-1.52h0a1.52,1.52,0,0,1-1.52-1.52v-1.7a1.52,1.52,0,0,1,1.52-1.52h0a1.52,1.52,0,0,0,1.52-1.52v-.68a1.53,1.53,0,0,0-1.52-1.53h0a1.52,1.52,0,0,1-1.52-1.52v-1.69a1.53,1.53,0,0,1,1.52-1.53h0a1.52,1.52,0,0,0,1.52-1.52v-.68a1.52,1.52,0,0,0-1.52-1.52h0a1.52,1.52,0,0,1-1.52-1.52v-1.7a1.52,1.52,0,0,1,1.52-1.52h0a1.52,1.52,0,0,0,1.52-1.52v-.68a1.52,1.52,0,0,0-1.52-1.52h0a1.53,1.53,0,0,1-1.52-1.53v-1.69a1.52,1.52,0,0,1,1.52-1.52h0a1.53,1.53,0,0,0,1.52-1.53v-2a1.52,1.52,0,0,0-1.52-1.52h0a1.52,1.52,0,0,1-1.52-1.53V576a1.52,1.52,0,0,1,1.52-1.52h0a1.52,1.52,0,0,0,1.52-1.52v-.68a1.53,1.53,0,0,0-1.52-1.53h0a1.52,1.52,0,0,1-1.52-1.52v-2a1.52,1.52,0,0,1,1.52-1.52h0a1.53,1.53,0,0,0,1.52-1.53v-.68a1.52,1.52,0,0,0-1.52-1.52h0a1.52,1.52,0,0,1-1.52-1.52v-1.7a1.52,1.52,0,0,1,1.52-1.52h0a1.52,1.52,0,0,0,1.52-1.52v-.68a1.52,1.52,0,0,0-1.52-1.52h0a1.52,1.52,0,0,1-1.52-1.53v-1.69a1.52,1.52,0,0,1,1.52-1.52h0a1.52,1.52,0,0,0,1.52-1.53v-.67a1.52,1.52,0,0,0-1.52-1.53h0a1.52,1.52,0,0,1-1.52-1.52v-1.69a1.52,1.52,0,0,1,1.52-1.53h0a1.52,1.52,0,0,0,1.52-1.52v-.68a1.52,1.52,0,0,0-1.52-1.52h0a1.52,1.52,0,0,1-1.52-1.52v-1.7a1.52,1.52,0,0,1,1.52-1.52h0a1.52,1.52,0,0,0,1.52-1.52v-.68a1.53,1.53,0,0,0-1.52-1.53h0a1.52,1.52,0,0,1-1.52-1.52v-1.69a1.53,1.53,0,0,1,1.52-1.53h0a1.52,1.52,0,0,0,1.52-1.52v-.68a1.52,1.52,0,0,0-1.52-1.52h0a1.52,1.52,0,0,1-1.52-1.52v-1.7a1.52,1.52,0,0,1,1.52-1.52h0a1.52,1.52,0,0,0,1.52-1.52v-.68a1.52,1.52,0,0,0-1.52-1.52h0a1.53,1.53,0,0,1-1.52-1.53V508a1.52,1.52,0,0,1,1.52-1.52h0a1.53,1.53,0,0,0,1.52-1.53v-2a1.52,1.52,0,0,0-1.52-1.52h0a1.52,1.52,0,0,1-1.52-1.52v-1.7a1.52,1.52,0,0,1,1.52-1.52h0a1.52,1.52,0,0,0,1.52-1.52v-.68a1.53,1.53,0,0,0-1.52-1.53h0a1.52,1.52,0,0,1-1.52-1.52v-1.69a1.53,1.53,0,0,1,1.52-1.53h0a1.52,1.52,0,0,0,1.52-1.52V486a1.52,1.52,0,0,0-1.52-1.52h0a1.52,1.52,0,0,1-1.52-1.52v-1.7a1.52,1.52,0,0,1,1.52-1.52h0a1.52,1.52,0,0,0,1.52-1.52v-.68a1.52,1.52,0,0,0-1.52-1.52h0a1.53,1.53,0,0,1-1.52-1.53v-5.42a1.52,1.52,0,0,1,1.52-1.52h0a1.52,1.52,0,0,0,1.52-1.52v-1a2.54,2.54,0,0,0-2.54-2.54h-4.9a2.37,2.37,0,0,1-2.37-2.37v-.55a1.81,1.81,0,0,1,1.81-1.82h0a1.81,1.81,0,0,0,1.46-2.89l-12.15-16.36a7.65,7.65,0,0,0-6.14-3.09h-.21a7.46,7.46,0,0,1-7.45-7.45h0c0-.75-.68-1.62-.68-2.37V406.08A1.18,1.18,0,0,0,604,404.9h0a1.19,1.19,0,0,0-1.19,1.18V425.6c0,.72-.67,1.6-.67,2.32h0a7.46,7.46,0,0,1-7.45,7.45h-.21a7.69,7.69,0,0,0-6.15,3.09L575.5,455.72a1.25,1.25,0,0,0,1,2h0a1.25,1.25,0,0,1,1.25,1.25v1.12a2.37,2.37,0,0,1-2.37,2.37h-4.91a2.54,2.54,0,0,0-2.54,2.54v.68a1.87,1.87,0,0,0,1.87,1.86h0a1.87,1.87,0,0,1,1.86,1.86v4.74A1.87,1.87,0,0,1,569.8,476h0a1.87,1.87,0,0,0-1.87,1.86h0a1.87,1.87,0,0,0,1.87,1.86h0a1.86,1.86,0,0,1,1.86,1.86v1a1.86,1.86,0,0,1-1.86,1.86h0a1.87,1.87,0,0,0-1.87,1.86h0a1.87,1.87,0,0,0,1.87,1.86h0a1.87,1.87,0,0,1,1.86,1.87v1a1.86,1.86,0,0,1-1.86,1.86h0a1.87,1.87,0,0,0-1.87,1.87h0a1.87,1.87,0,0,0,1.87,1.86h0a1.86,1.86,0,0,1,1.86,1.86v1a1.87,1.87,0,0,1-1.86,1.86h0a1.87,1.87,0,0,0-1.87,1.86h0a1.87,1.87,0,0,0,1.87,1.86h0a1.87,1.87,0,0,1,1.86,1.86v1a1.86,1.86,0,0,1-1.86,1.86h0a1.87,1.87,0,0,0-1.87,1.86h0a1.87,1.87,0,0,0,1.87,1.87h0a1.86,1.86,0,0,1,1.86,1.86v1a1.87,1.87,0,0,1-1.86,1.87h0a1.87,1.87,0,0,0-1.87,1.86h0A1.87,1.87,0,0,0,569.8,522h0a1.86,1.86,0,0,1,1.86,1.86v1a1.86,1.86,0,0,1-1.86,1.86h0a1.87,1.87,0,0,0-1.87,1.86h0a1.87,1.87,0,0,0,1.87,1.86h0a1.87,1.87,0,0,1,1.86,1.87v1a1.86,1.86,0,0,1-1.86,1.86h0a1.87,1.87,0,0,0-1.87,1.87h0A1.87,1.87,0,0,0,569.8,539h0a1.86,1.86,0,0,1,1.86,1.86v1a1.86,1.86,0,0,1-1.86,1.86h0a1.87,1.87,0,0,0-1.87,1.86h0a1.87,1.87,0,0,0,1.87,1.86h0a1.87,1.87,0,0,1,1.86,1.86v1a1.86,1.86,0,0,1-1.86,1.86h0a1.87,1.87,0,0,0-1.87,1.86h0a1.87,1.87,0,0,0,1.87,1.87h0a1.86,1.86,0,0,1,1.86,1.86v1a1.87,1.87,0,0,1-1.86,1.86h0a1.87,1.87,0,0,0-1.87,1.86h0a1.87,1.87,0,0,0,1.87,1.86h0a1.86,1.86,0,0,1,1.86,1.86v1a1.86,1.86,0,0,1-1.86,1.86h0a1.87,1.87,0,0,0-1.87,1.86h0a1.87,1.87,0,0,0,1.87,1.87h0a1.86,1.86,0,0,1,1.86,1.86v1a1.87,1.87,0,0,1-1.86,1.87h0a1.87,1.87,0,0,0-1.87,1.86h0a1.87,1.87,0,0,0,1.87,1.86h0a1.86,1.86,0,0,1,1.86,1.86v1A1.86,1.86,0,0,1,569.8,586h0a1.87,1.87,0,0,0-1.87,1.86h0a1.87,1.87,0,0,0,1.87,1.86h1.35a.51.51,0,0,1,.51.51h0a.51.51,0,0,1-.51.51H553.38a4.4,4.4,0,0,1-4.4-4.4h0V350.05l-.17-7.29a10,10,0,0,0-6.71-9.21L532,330.05a5.06,5.06,0,0,0-6.73,4.78v1.54a3.52,3.52,0,0,1-3.52,3.52h0a3.52,3.52,0,0,1-3.52-3.59l.45-22a10,10,0,0,0-7.57-9.9l-21.39-5.35a10,10,0,0,0-12.4,8.94l-3.16,41.34-.34,4.74-.33,3.73-.34,4.74-.34,3.72-.34,4.74-.34,3.72-.34,4.74-.33,3.73-.34,4.74-.34,3.72-.34,4.74-.34,3.73-.34,4.74-.34,3.72-.33,4.74-.34,3.73-.34,4.74-.34,3.72-.34,4.74-.34,3.72-.33,4.74-.34,3.73,0,.26a10,10,0,0,1-3.88,7.21l-1.74,1.35a9.91,9.91,0,0,0-3.84,7.09h0l-.34,3.72-.34,4.74-.34,3.73-.33,4.74-.34,3.72-.34,4.74-.34,3.73-.34,4.4h0a1.69,1.69,0,0,1-1.69,1.69H425a10,10,0,0,0-10,10v38.59a5.25,5.25,0,0,1-5.24,5.24h0a5.25,5.25,0,0,0-5.25,5.25V656.79a7.11,7.11,0,0,1-7.11,7.11h0a7.1,7.1,0,0,1-7.1-7.11V240.69a2.72,2.72,0,0,0-2.71-2.71h0a2.7,2.7,0,0,1-2.71-2.7V198.22a10,10,0,0,0-10-10h-57.5a10,10,0,0,0-10,10v37.4a2.71,2.71,0,0,1-2.71,2.7h0a2.71,2.71,0,0,0-2.71,2.71V421.32a4.91,4.91,0,0,1-4.91,4.91h-3.89a1,1,0,0,0-1,1v.34a.67.67,0,0,1-.67.68h0a.67.67,0,0,0-.68.67v3.73a.68.68,0,0,0,.68.68h0a.67.67,0,0,1,.67.67v.34a.67.67,0,0,1-.67.68h0a.67.67,0,0,0-.68.68v3.72a.68.68,0,0,0,.68.68h0a.67.67,0,0,1,.67.67v.34a.67.67,0,0,1-.67.68h0a.67.67,0,0,0-.68.68v3.72a.67.67,0,0,0,.68.68h0a.67.67,0,0,1,.67.68v.34a.67.67,0,0,1-.67.67h0a.68.68,0,0,0-.68.68V453a.67.67,0,0,0,.68.68h0a.67.67,0,0,1,.67.68v.34a.67.67,0,0,1-.67.67h0a.68.68,0,0,0-.68.68v3.72a.67.67,0,0,0,.68.68h0a.67.67,0,0,1,.67.68v.34a.67.67,0,0,1-.67.67h0a.68.68,0,0,0-.68.68v3.73a.67.67,0,0,0,.68.67h0a.68.68,0,0,1,.67.68v.34a.68.68,0,0,1-.67.68h0a.67.67,0,0,0-.68.67v3.73a.67.67,0,0,0,.68.67h0a.68.68,0,0,1,.67.68V475a.68.68,0,0,1-.67.68h0a.67.67,0,0,0-.68.67v3.73a.68.68,0,0,0,.68.68h0a.67.67,0,0,1,.67.67v.34a.67.67,0,0,1-.67.68h0a.67.67,0,0,0-.68.68v3.72a.68.68,0,0,0,.68.68h0a.67.67,0,0,1,.67.67v.34a.67.67,0,0,1-.67.68h0a.67.67,0,0,0-.68.68v3.72a.67.67,0,0,0,.68.68h0a.67.67,0,0,1,.67.68v.33a.67.67,0,0,1-.67.68h0a.67.67,0,0,0-.68.68v3.72a.67.67,0,0,0,.68.68h0a.67.67,0,0,1,.67.68v.34a.67.67,0,0,1-.67.67h0a.68.68,0,0,0-.68.68v3.72a.67.67,0,0,0,.68.68h0a.67.67,0,0,1,.67.68v.34a.67.67,0,0,1-.67.67h0a.68.68,0,0,0-.68.68v3.73a.67.67,0,0,0,.68.67h0a.68.68,0,0,1,.67.68v.34a.67.67,0,0,1-.67.67h0a.68.68,0,0,0-.68.68v3.73a.67.67,0,0,0,.68.67h0a.68.68,0,0,1,.67.68v.34a.68.68,0,0,1-.67.68h0a.67.67,0,0,0-.68.67v3.73a.67.67,0,0,0,.68.67h0a.68.68,0,0,1,.67.68v7.11a.67.67,0,0,1-.67.68h0a.67.67,0,0,0-.68.68V541a.68.68,0,0,0,.68.68h0a.67.67,0,0,1,.67.67v.34a.67.67,0,0,1-.67.68h0a.67.67,0,0,0-.68.68v.84a1.52,1.52,0,0,1-1.52,1.53H278.06a10,10,0,0,1-10-10V445a10,10,0,0,0-10-10H218.5a10,10,0,0,0-10,10v53.14a8.64,8.64,0,0,1-8.63,8.64h-6.6a2,2,0,0,1-2-2h0a2,2,0,0,0-2-2h-1.52a3.55,3.55,0,0,1-3.55-3.55v-271a2.71,2.71,0,0,0-2.71-2.71h0a2.71,2.71,0,0,1-2.71-2.71V149.12a10,10,0,0,0-10-10H95a10,10,0,0,0-10,10v73.63a2.71,2.71,0,0,1-2.71,2.71h0a2.7,2.7,0,0,0-2.7,2.71v358.2a6.43,6.43,0,0,1-6.43,6.43h0a6.43,6.43,0,0,1-6.43-6.43V457.89a10,10,0,0,0-10-10H54a10,10,0,0,1-10-10v-50.6a3.72,3.72,0,0,0-3.72-3.72h0a3.73,3.73,0,0,1-3.73-3.73V364.45a10,10,0,0,0-10-10H-59a10,10,0,0,0-10,10v15.39a3.73,3.73,0,0,1-3.73,3.73h0a3.72,3.72,0,0,0-3.72,3.72V607.52a10,10,0,0,1-10,10h-4.37a10,10,0,0,1-10-10V476.18a10,10,0,0,0-10-10h-69.69a10,10,0,0,0-10,10v75.66a9.81,9.81,0,0,1-9.81,9.81h0a9.82,9.82,0,0,0-9.82,9.82v77.2a5.76,5.76,0,0,1-5.75,5.75h0a5.76,5.76,0,0,1-5.76-5.75V382.55a2.37,2.37,0,0,0-2.37-2.37h-1.35a1,1,0,0,1-1-1h0a1,1,0,0,1,1-1H-224a2.37,2.37,0,0,0,2.37-2.37v-2a2.37,2.37,0,0,0-2.37-2.37h-1.35a1,1,0,0,1-1-1h0a1,1,0,0,1,1-1H-224a2.37,2.37,0,0,0,2.37-2.37v-2a2.37,2.37,0,0,0-2.37-2.37h-1.35a1,1,0,0,1-1-1h0a1,1,0,0,1,1-1H-224a2.38,2.38,0,0,0,2.37-2.37v-2a2.37,2.37,0,0,0-2.37-2.37h-1.69a.68.68,0,0,1-.68-.67h0a.68.68,0,0,1,.68-.68h1.86a2.54,2.54,0,0,0,2.54-2.54v-1.69a2.54,2.54,0,0,0-2.54-2.54h-1.52a1,1,0,0,1-1-1h0a1,1,0,0,1,1-1h1.52a2.54,2.54,0,0,0,2.54-2.54v-1.7a2.54,2.54,0,0,0-2.54-2.53h-1.52a1,1,0,0,1-1-1h0a1,1,0,0,1,1-1h1.52a2.54,2.54,0,0,0,2.54-2.53v-1.7a2.54,2.54,0,0,0-2.54-2.54h-1.52a1,1,0,0,1-1-1h0a1,1,0,0,1,1-1h1.52a2.54,2.54,0,0,0,2.54-2.54V305.53a11.48,11.48,0,0,0-4.12-8.5c-10.13-8.93-24.35-28-24.65-54.31V241.2a2.88,2.88,0,0,0-2.87-2.88h-1a1.87,1.87,0,0,0-1.86,1.87h0a1.86,1.86,0,0,1-1.86,1.86h-2.2A4.06,4.06,0,0,1-264,238V184.66a1.53,1.53,0,0,0-1.53-1.52h0a1.52,1.52,0,0,0-1.52,1.52v56.88a.85.85,0,0,1-.85.85h0a.85.85,0,0,1-.84-.85v-1a1.87,1.87,0,0,0-1.86-1.86h-2.37a1.86,1.86,0,0,0-1.86,1.86h0a1.87,1.87,0,0,1-1.87,1.87h-7.1a1.87,1.87,0,0,1-1.86-1.87h0a1.87,1.87,0,0,0-1.87-1.86h-1.18a3.06,3.06,0,0,0-3.05,3.05v.68c0,26.67-7.36,46-15.92,55.09-2.29,2.43-4,5.49-4,8.83v13.44a.18.18,0,0,0,.17.17h0a.16.16,0,0,1,.17.17v3.55a3.06,3.06,0,0,0,3.05,3.05h2a1,1,0,0,1,1,1h0a1,1,0,0,1-1,1h-2a3,3,0,0,0-3.05,3v.68a3,3,0,0,0,3.05,3h2a1,1,0,0,1,1,1h0a1,1,0,0,1-1,1h-2.2a3.22,3.22,0,0,0-3.22,3.22v.34a3.22,3.22,0,0,0,3.22,3.21h2.54a.69.69,0,0,1,.68.68h0a.68.68,0,0,1-.68.68h-2.54a3.22,3.22,0,0,0-3.22,3.21v.34a3.22,3.22,0,0,0,3.22,3.22h2.2a1,1,0,0,1,1,1h0a1,1,0,0,1-1,1h-2.2a3.22,3.22,0,0,0-3.22,3.22V358a3.22,3.22,0,0,0,3.22,3.21h2.2a1,1,0,0,1,1,1h0a1,1,0,0,1-1,1h-2.2a3.22,3.22,0,0,0-3.22,3.22v.34a3.21,3.21,0,0,0,3.22,3.21h2.2a1,1,0,0,1,1,1h0a1,1,0,0,1-1,1h-2.2a3.22,3.22,0,0,0-3.22,3.21v.34a3.22,3.22,0,0,0,3.22,3.22h2.2a1,1,0,0,1,1,1h0a1,1,0,0,1-1,1h-2.37a3.38,3.38,0,0,0-3.38,3.38v133.4a9.48,9.48,0,0,1-9.48,9.48h0A9.48,9.48,0,0,0-331,536.6V594a5.25,5.25,0,0,1-5.24,5.24h0a5.25,5.25,0,0,0-5.25,5.25v52.84c0,2.15-2.43,3.28-4.58,3.2h0l-.35,0-.37-.06a8,8,0,0,1-6.88-7.88V530.26a10,10,0,0,0-6-9.15l-2.18-1a1.57,1.57,0,0,0-.64-.14H-363a2.54,2.54,0,0,1-2.54-2.54v-1.35a1.18,1.18,0,0,0-1.18-1.19h0a1.19,1.19,0,0,0-1.19,1.19h0a1.18,1.18,0,0,1-1.18,1.18h-.15a1,1,0,0,0-1,1h0a1,1,0,0,1-1,1l-3.86.19a1.82,1.82,0,0,1-1.92-1.82h0a1.82,1.82,0,0,0-1-1.63l-.91-.46a3.44,3.44,0,0,0-1.66-.36l-19.8.59a2.05,2.05,0,0,0-2,2.06h0a2.06,2.06,0,0,1-2.06,2.06h-.31a2.37,2.37,0,0,0-2.37,2.37v22.5a10,10,0,0,1-10,10h-17.57a10,10,0,0,1-10-10V386.61a4.4,4.4,0,0,0-4.4-4.4h0a4.4,4.4,0,0,1-4.4-4.4V348.54a10,10,0,0,0-10-10h-15a5.76,5.76,0,0,1-5.76-5.76h0a5.74,5.74,0,0,0-5.75-5.75H-494a9.31,9.31,0,0,1-9.31-9.31h0a9.31,9.31,0,0,0-9.31-9.31H-570.1a10,10,0,0,0-10,10v10.13a10,10,0,0,1-10,10h-18.58a10,10,0,0,0-10,10V640.36a10,10,0,0,1-10,10h-1a10,10,0,0,0-10,10V670a9.81,9.81,0,0,1-9.81,9.81h0A9.82,9.82,0,0,1-659.3,670V596a10,10,0,0,0-10-10h-10.46a10,10,0,0,1-10-10V555.6a.61.61,0,0,0-.34-.55h0a.62.62,0,0,1-.33-.55V551a6.36,6.36,0,0,0-1.33-3.89l-4.71-6.08a10,10,0,0,1-2.09-6.12v-6a3.46,3.46,0,0,0-1-2.45h0a3.47,3.47,0,0,1-1-2.45V509.34a.5.5,0,0,0-.51-.5h0a.5.5,0,0,0-.5.5v14.89a2.88,2.88,0,0,1-.85,2h0a2.91,2.91,0,0,0-.85,2.05v7.5a10,10,0,0,1-1.8,5.73l-4.22,6A5.94,5.94,0,0,0-710.4,551v2a2.26,2.26,0,0,1-1,1.9h0a2.29,2.29,0,0,0-1,1.9v.87a3.5,3.5,0,0,1-1.7,3l-.41.25a2.63,2.63,0,0,0-1.28,2.25h0a2.62,2.62,0,0,1-1.37,2.31l-.49.27a3.55,3.55,0,0,0-1.86,3.13v31a6.49,6.49,0,0,1-7.11,6.46h0a6.09,6.09,0,0,1-6.09-6.09V538.47a10,10,0,0,0-10-10h-21.63a10,10,0,0,0-10,10v27.74a10,10,0,0,1-10,10h-6.4a10,10,0,0,0-10,10v20.3a3.22,3.22,0,0,1-3.22,3.22h0a3.21,3.21,0,0,0-3.21,3.21v37.93a2.54,2.54,0,0,1-2.54,2.53h0a2.54,2.54,0,0,1-2.54-2.53V634.78a3.38,3.38,0,0,0-3.38-3.38h0A3.39,3.39,0,0,1-819,628V456.2a10,10,0,0,0-10-10h-47.87c-42.31,0-76.49,29.8-76.49,72.12v23.85a10,10,0,0,1-10,10h-3.88c-12.18,0-22,21-22,32.51v39.76a10,10,0,0,1-10,10h-15.87a10,10,0,0,1-10-10V586.89a10,10,0,0,0-10-10h-4a10,10,0,0,0-10,10v87a5.24,5.24,0,0,1-5.25,5.24h0a5.24,5.24,0,0,1-5.25-5.24V625.13a2.86,2.86,0,0,0-2.87-2.87h0a2.88,2.88,0,0,1-2.88-2.88V586.89a10,10,0,0,0-10-10h-1.32a10,10,0,0,1-10-10V531.36a10,10,0,0,0-10-10h-26.37a10,10,0,0,0-10,10V733.12a10,10,0,0,0,10,10h2470a10,10,0,0,0,10-10V355.65a10,10,0,0,0-10-10ZM948,537.45a1.18,1.18,0,0,1-1.19,1.18h-2.2a.34.34,0,0,1-.34-.34v-.84a1.19,1.19,0,0,1,1.19-1.19h1.35a1.19,1.19,0,0,1,1.19,1.19Zm0-5.76a1.18,1.18,0,0,1-1.19,1.18h-1.35a1.18,1.18,0,0,1-1.19-1.18h0a1.19,1.19,0,0,1,1.19-1.19h1.35a1.19,1.19,0,0,1,1.19,1.19Zm0-6.09a1.18,1.18,0,0,1-1.19,1.18h-1.35a1.18,1.18,0,0,1-1.19-1.18h0a1.19,1.19,0,0,1,1.19-1.19h1.35A1.19,1.19,0,0,1,948,525.6Zm0-6.1a1.19,1.19,0,0,1-1.19,1.19h-1.35a1.19,1.19,0,0,1-1.19-1.19h0a1.18,1.18,0,0,1,1.19-1.18h1.35A1.18,1.18,0,0,1,948,519.5Zm0-6.09a1.18,1.18,0,0,1-1.19,1.18h-1.35a1.18,1.18,0,0,1-1.19-1.18h0a1.19,1.19,0,0,1,1.19-1.19h1.35a1.19,1.19,0,0,1,1.19,1.19Zm0-6.1a1.19,1.19,0,0,1-1.19,1.19h-1.35a1.19,1.19,0,0,1-1.19-1.19h0a1.18,1.18,0,0,1,1.19-1.18h1.35a1.18,1.18,0,0,1,1.19,1.18Zm0-5.75a1.18,1.18,0,0,1-1.19,1.18h-1.35a1.18,1.18,0,0,1-1.19-1.18h0a1.19,1.19,0,0,1,1.19-1.19h1.35a1.19,1.19,0,0,1,1.19,1.19Z" fill="url(#linear-gradient-7)"/>
      <path d="M472.38,416c114.08-114.08,114.12-299.08.09-413.21s-299-114.18-413-.09S-54.69,301.77,59.34,415.9,358.29,530.07,472.38,416Z" opacity="0.2" fill="url(#linear-gradient-8)" style="isolation: isolate"/>
      <path d="M1287.87,1.12H2.87v800h1185a100,100,0,0,0,100-100Z" fill="url(#linear-gradient-9)"/>
    </g>
  </g>
  <g id="crcles">
    <path d="M1386.13,560.44c112.86-112.91,112.86-296,0-408.88s-295.85-112.91-408.71,0-112.86,296,0,408.88S1273.27,673.35,1386.13,560.44Z" opacity="0.56" fill="url(#linear-gradient-10)" style="isolation: isolate"/>
    <path d="M1038.23,752.68c82.54-82.58,82.54-216.46,0-299s-216.37-82.58-298.91,0-82.54,216.46,0,299S955.69,835.25,1038.23,752.68Z" opacity="0.2" fill="url(#linear-gradient-11)" style="isolation: isolate"/>
  </g>
  <g id="nature">
    <g id="mountains">
      <path d="M1096.86,491.21c-58.78,0-106.33,100.89-106.33,225.24H1203.3C1203.3,592,1155.63,491.21,1096.86,491.21Z" fill="url(#linear-gradient-2)"/>
      <path d="M1096.86,491.21c-58.78,0-106.33,100.89-106.33,225.24H1203.3C1203.3,592,1155.63,491.21,1096.86,491.21Z" fill="url(#linear-gradient-2)"/>
      <g mask="url(#mask-2)">
        <path d="M1007.22,511.61c33.69-15.35,101.72-40.45,104.35-18.09,3.29,28-191.45,148-124.9,122.49s124.08-95.36,138.87-70.7S995.71,671.92,1044.19,667s108.46-118.39,127.36-100.3-124.07,143.87-92,154.55,120-167.71,155.29-171.82" fill="none" stroke-width="2" opacity="0.2" stroke="url(#linear-gradient-14)" style="isolation: isolate"/>
      </g>
      <path d="M1189.51,716.45h13.79c0-124.47-47.67-225.24-106.44-225.24a51.15,51.15,0,0,0-6.9.46C1145.52,499.19,1189.51,596.88,1189.51,716.45Z" fill="#c9d983" opacity="0.3" style="isolation: isolate"/>
      <path d="M1214.79,552.28c-43,0-77.81,73.83-77.81,164.83h155.63C1292.49,626.11,1257.68,552.28,1214.79,552.28Z" fill="url(#linear-gradient-3)"/>
      <g mask="url(#mask-3)">
        <path d="M1190.34,514.85c-30.53,49.73-79.45,139-30.86,98.18,60.74-51,118.59-34.65,94.49,0s-94.49,16.36-87.74,52.94c5.4,29.26,83.88-14.12,122.44-39.47" fill="none" stroke-width="2" opacity="0.2" stroke="url(#linear-gradient-16)" style="isolation: isolate"/>
      </g>
      <path d="M1276.2,717.11h16.41c-.12-91-34.93-164.83-77.82-164.83a37.92,37.92,0,0,0-8.22.91C1245.61,561.88,1276.08,632,1276.2,717.11Z" fill="#c9d983" fill-rule="evenodd" opacity="0.3" style="isolation: isolate"/>
      <path d="M908.44,472.16C840.28,472.16,785,581,785,715.14h246.92C1031.78,581,976.61,472.16,908.44,472.16Z" fill="url(#linear-gradient-4)"/>
      <g mask="url(#mask-4)">
        <path d="M795.49,521.19c13-15.35,42.24-42.72,55.07-29.31,16,16.75-18.12,74.68,4.18,81.66s53.68-102.6,80.86-92.13S818.5,661.49,868.68,667.77s73.2-145.18,94.8-134.71-48.79,92.13-24.39,115.86S976,561,995.55,573.54s5.58,75.38-13.24,118" fill="none" stroke-width="2" opacity="0.2" stroke="url(#linear-gradient-18)" style="isolation: isolate"/>
      </g>
      <path d="M1004.32,715.14h27.59c-.13-134.19-55.3-243-123.47-243a64.44,64.44,0,0,0-13.79,1.5C956.32,487.16,1004.21,590.13,1004.32,715.14Z" fill="#c9d983" opacity="0.2" style="isolation: isolate"/>
    </g>
    <g>
      <path d="M1084.38,566.23h-2.29V713.94h2.29Z" fill="#0c5e59"/>
      <path d="M1099.88,556.88c-4.9,0-9.46,3.54-12.65,6.73,2.16-3.08,5.13-6.84,7.41-7.53a16.59,16.59,0,0,1,7.18-.68s-3.65-5.14-9.12-2.74c-2.4,1-4.45,4.45-5.93,7.76.8-3.08,1.48-6.73.91-10-1.37-8.44-10.71-9.13-10.71-9.13s5.24,7.3,6.15,15.86c.12,1.14.23,2.28.34,3.31-.79-4.91-2.73-10.84-7.52-14-11.86-7.87-19.27,5.93-19.27,5.93s6.73-4.22,15.62.23c7.07,3.53,10,11.06,11,14.14-1.14-2.28-6-11-13.8-12.21-11.74-1.93-14.71,12.89-14.71,12.89s6.73-5.36,15-5a21.93,21.93,0,0,1,13.34,5,32.38,32.38,0,0,0-7.07-1c-10.37-.12-12.54,13.8-12.54,13.8l19.73-12.09a70.59,70.59,0,0,0-3.54,7.3c-1.37,3.19-.45,10.38-.45,10.38s3.19-5.48,4.1-9a27.33,27.33,0,0,0,.57-8.67l13.34,14.48s3.3-8.78-6.84-13c-1.37-.57-2.51-1-3.42-1.37a22,22,0,0,1,8.43,3.31,39.52,39.52,0,0,1,9.58,9s3.65-10.61-5.24-14.94a14,14,0,0,0-9.12-.57,12.85,12.85,0,0,1,8.32-1.71c8.09,1,10.37,6.73,10.37,6.73S1111.62,556.88,1099.88,556.88Z" fill="url(#linear-gradient-19)"/>
    </g>
    <g>
      <path d="M997.38,475.45h-3.64V716.68h3.64Z" fill="#0c5e59"/>
      <path d="M1021,454.66c-8.9,0-17.3,6.38-23.15,12.25,3.94-5.62,9.42-12.38,13.61-13.78a29.05,29.05,0,0,1,13.11-1.15s-6.75-9.45-16.67-5c-4.45,1.91-8.14,8.17-10.82,14.17,1.53-5.62,2.55-12.26,1.66-18.38-2.42-15.32-19.59-16.6-19.59-16.6s9.54,13.28,11.32,29c.25,2,.38,4.08.51,6-1.53-9.07-5.09-19.91-13.74-25.66-21.5-14.29-35,11-35,11s12.34-7.66,28.5.51c12.72,6.38,18.19,20.29,20,25.78-2.16-4.21-10.94-19.91-25.19-22.33-21.37-3.58-26.84,23.61-26.84,23.61s12.21-9.83,27.35-9.19c11.71.51,20.23,5.36,24.43,9.19a48.06,48.06,0,0,0-12.85-1.79c-19-.25-22.9,25.14-22.9,25.14l36-22.08c-1.52,2.94-4.7,9.07-6.48,13.41-2.42,5.87-.89,18.88-.89,18.88s5.85-9.95,7.5-16.46a48.71,48.71,0,0,0,1-15.83l24.43,26.42s6-16.08-12.34-23.86c-2.42-1-4.58-1.92-6.24-2.56a38.18,38.18,0,0,1,15.27,6,71,71,0,0,1,17.43,16.34s6.61-19.53-9.67-27.19c-5.34-2.55-11.45-2.17-16.67-1a24,24,0,0,1,15.27-3.19c14.76,1.79,18.83,12.38,18.83,12.38S1042.34,454.53,1021,454.66Z" fill="url(#linear-gradient-20)"/>
    </g>
    <g clip-path="url(#clip-path)">
      <g>
        <path d="M1313,667.89H1186.89v53.66H1313Z" fill="#f9f8ef"/>
        <path d="M1250.63,653.9V654a134.79,134.79,0,0,1,6.37-13.9,177.41,177.41,0,0,1,14.15-22.49,149.09,149.09,0,0,1-10,23.58c-5.91,11.38-9.15,16-10.57,16.67v.65c1.71-2.26,5.48-6.14,12.12-12.2a204.43,204.43,0,0,1,21.93-17.06,164.88,164.88,0,0,1-18,19.23,140.11,140.11,0,0,1-13.43,11.11c2.72-1.69,7-4,13.12-7.08a231.16,231.16,0,0,1,26.12-11,183.58,183.58,0,0,1-23.32,13.8c-10.42,5.32-16.06,7.58-18.5,8v.46c2.19-1.22,7.8-3.17,18.5-6.14a247.37,247.37,0,0,1,28.29-6,212.44,212.44,0,0,1-26.58,9.31c-4.92,1.36-8.84,2.36-11.92,3.06,3.12-.52,7.14-1.08,12.23-1.67a241.85,241.85,0,0,1,29.38-1.86,218,218,0,0,1-28.6,5.27c-12.9,1.63-19.24,1.84-21.3,1.38v.33h-1.56v-.22a8.77,8.77,0,0,1-1.24.22h-4.51c-3.42-.15-8.55-.46-15.7-1.4a252.46,252.46,0,0,1-28.61-5.27,242.06,242.06,0,0,1,29.39,1.86c4.81.56,8.66,1.08,11.7,1.55-3-.69-6.75-1.65-11.39-2.94a201.79,201.79,0,0,1-26.59-9.31,247.28,247.28,0,0,1,28.3,6.05c10.95,3,16.58,5,18.65,6.23v-.55c-2.35-.39-8-2.7-18.65-8a183.58,183.58,0,0,1-23.32-13.8,232,232,0,0,1,26.12,11c5.78,2.88,9.86,5.1,12.6,6.76a133.08,133.08,0,0,1-12.92-10.79,165.27,165.27,0,0,1-18-19.23,183.88,183.88,0,0,1,21.92,17.06c4.75,4.33,8,7.55,10.14,9.86-1.81-2.36-4.63-7-8.74-14.83a149.23,149.23,0,0,1-10-23.57,158.57,158.57,0,0,1,14.15,22.49c3.76,7.33,5.82,12,6.68,14.76V653.9c-.83-1.93-1.4-7.49-1.4-18.59a156.79,156.79,0,0,1,2.18-25.9,156.79,156.79,0,0,1,2.18,25.9C1252,646.41,1251.46,652,1250.63,653.9Zm-1.56,4.54a1.8,1.8,0,0,1-.91-.55c.36.43.66.81.91,1.16Zm0,2.94a6.39,6.39,0,0,1-1.48-.66c.59.4,1.08.75,1.48,1.06Zm1.56,0c.42-.32.95-.69,1.58-1.1a8.47,8.47,0,0,1-1.58.77Zm-1.56,4.24a12,12,0,0,1-2.14-.12,12.46,12.46,0,0,1,2.14.71Zm1.56.35a16.19,16.19,0,0,1,2.84-.89,16.87,16.87,0,0,1-2.84.24Zm-9.18,1.48h-29.07c4.51-.31,9.95-.46,15.7-.46S1238.19,667.11,1241.45,667.42Zm16.64,0h29.07c-4.51-.31-10-.62-15.7-.46S1261.35,667.27,1258.09,667.42Z" fill-rule="evenodd" fill="url(#linear-gradient-21)"/>
      </g>
    </g>
    <g>
      <path d="M919,688.3A109.89,109.89,0,0,0,908,658.76c-.69-1.25-1.48-2.62-2.28-3.88A114.14,114.14,0,0,0,884.37,629a41,41,0,0,0-3.31-2.85,110.33,110.33,0,0,0-30-17.79c-1.37-.57-2.74-1-4.11-1.49a111.45,111.45,0,0,0-35-6.27h-4.33a110.94,110.94,0,0,0-35,6.27c-1.37.46-2.73,1-4.1,1.49a110.38,110.38,0,0,0-30,17.79c-1.14.91-2.28,1.94-3.3,2.85a110.81,110.81,0,0,0-21.32,25.89c-.8,1.26-1.48,2.63-2.28,3.88a109.55,109.55,0,0,0-11.06,29.54c-.34,1.48-.57,3-.91,4.45a110.81,110.81,0,0,0-1.71,19.5H921.53a109.81,109.81,0,0,0-1.71-19.5C919.6,691.27,919.37,689.78,919,688.3Z" fill="url(#linear-gradient-22)"/>
      <path d="M807.64,600.48V712.25H812V600.48h-4.33Z" opacity="0.3" fill="url(#linear-gradient-23)" style="isolation: isolate"/>
      <path d="M768.54,608.35l27.81,104h4.45L772.53,606.86C771.27,607.32,769.9,607.78,768.54,608.35Z" opacity="0.3" fill="url(#linear-gradient-24)" style="isolation: isolate"/>
      <path d="M735.25,629l48.11,83.26h4.9l-49.71-86.11C737.41,627.05,736.27,628.08,735.25,629Z" opacity="0.3" fill="url(#linear-gradient-25)" style="isolation: isolate"/>
      <path d="M711.65,658.76l53.58,53.61h6l-57.46-57.49C713.13,656.14,712.33,657.51,711.65,658.76Z" opacity="0.3" fill="url(#linear-gradient-26)" style="isolation: isolate"/>
      <path d="M699.68,692.75l33.86,19.5h8.66l-41.61-24.06C700.25,689.78,700,691.27,699.68,692.75Z" opacity="0.3" fill="url(#linear-gradient-27)" style="isolation: isolate"/>
      <path d="M818.7,712.37h4.45l27.81-104c-1.36-.57-2.73-1-4.1-1.49Z" opacity="0.3" fill="url(#linear-gradient-28)" style="isolation: isolate"/>
      <path d="M831.24,712.37h5l48.11-83.26a41.14,41.14,0,0,0-3.31-2.86Z" opacity="0.3" fill="url(#linear-gradient-29)" style="isolation: isolate"/>
      <g opacity="0.3">
        <path d="M848.23,712.37h6l53.58-53.61c-.68-1.25-1.48-2.62-2.28-3.88Z" fill="url(#linear-gradient-30)"/>
      </g>
      <path d="M877.41,712.37h8.67l33.86-19.51c-.23-1.48-.57-3-.91-4.44Z" fill="#084f15"/>
    </g>
    <g>
      <path d="M1002.71,697.08a71.71,71.71,0,0,0-7.07-18.82c-.46-.79-.91-1.59-1.37-2.5a69.5,69.5,0,0,0-13.57-16.43c-.68-.57-1.36-1.25-2.16-1.82a71.28,71.28,0,0,0-19-11.3,18.34,18.34,0,0,0-2.62-.91,68.42,68.42,0,0,0-22.23-4h-2.74a71.71,71.71,0,0,0-22.23,4c-.91.34-1.71.57-2.62.91a71.13,71.13,0,0,0-19,11.3c-.69.57-1.37,1.25-2.17,1.82a69.5,69.5,0,0,0-13.57,16.43c-.45.79-.91,1.59-1.36,2.5a70.16,70.16,0,0,0-7.07,18.82c-.23.92-.34,1.94-.57,2.86a73.47,73.47,0,0,0-1.14,12.43h142.05a63.66,63.66,0,0,0-1.14-12.43A7.73,7.73,0,0,0,1002.71,697.08Z" fill="url(#linear-gradient-31)"/>
      <path d="M931.91,641.31v71.06h2.74V641.31h-2.74Z" opacity="0.3" fill="url(#linear-gradient-32)" style="isolation: isolate"/>
      <path d="M907.17,646.21l17.67,66h2.85l-17.9-67.06C908.88,645.64,908,645.87,907.17,646.21Z" opacity="0.3" fill="url(#linear-gradient-33)" style="isolation: isolate"/>
      <path d="M886,659.45l30.56,52.92h3.19l-31.58-54.75A16.54,16.54,0,0,0,886,659.45Z" opacity="0.3" fill="url(#linear-gradient-34)" style="isolation: isolate"/>
      <path d="M870.92,678.26l34.08,34h3.88L872.4,675.76C871.94,676.67,871.37,677.47,870.92,678.26Z" opacity="0.3" fill="url(#linear-gradient-35)" style="isolation: isolate"/>
      <path d="M863.39,699.94l21.55,12.43h5.47L864,697.08A21.92,21.92,0,0,0,863.39,699.94Z" opacity="0.3" fill="url(#linear-gradient-36)" style="isolation: isolate"/>
      <path d="M939,712.37h2.85l17.67-66a17.18,17.18,0,0,0-2.62-.91Z" opacity="0.3" fill="url(#linear-gradient-37)" style="isolation: isolate"/>
      <path d="M947,712.37h3.19l30.55-52.92c-.68-.58-1.36-1.26-2.16-1.83Z" opacity="0.3" fill="url(#linear-gradient-38)" style="isolation: isolate"/>
      <path d="M957.79,712.37h3.87l34.09-34c-.45-.8-.91-1.6-1.36-2.51Z" opacity="0.3" fill="url(#linear-gradient-39)" style="isolation: isolate"/>
      <path d="M976.26,712.37h5.47l21.55-12.43a24.11,24.11,0,0,0-.57-2.86Z" opacity="0.3" fill="url(#linear-gradient-40)" style="isolation: isolate"/>
    </g>
    <g id="grass">
      <path d="M1284.89,704.71a99.91,99.91,0,0,1-44,78.24c-.57.39-1.15.77-1.74,1.15a100.17,100.17,0,0,1-13.21,7.18l-2.21,1A99.56,99.56,0,0,1,1185,800h-15.82l.24.29H228.94l.37-.29H0V704.71Z" fill="url(#linear-gradient-41)"/>
      <g mask="url(#mask-5)">
        <g>
          <path d="M597.63,674c-9.94,8.5-19,19.54-27.49,30.71q-1.25,1.62-2.46,3.24c-1.71,2.28-3.4,4.55-5.07,6.79v0h0c-7.35,9.88-14.34,19.27-21.28,26.58-8.56,9-16.79,14.58-25.23,14.2a9.35,9.35,0,0,1-4.61-1.17,4,4,0,0,1-1.8-2.54,9.33,9.33,0,0,1,.18-4.24,30.61,30.61,0,0,1,2.11-5.77c3.66-7.88,10.81-18,17.88-27.93l0,0,.1-.15,1.68-2.36c1.58-2.25,3.15-4.47,4.65-6.65,2.09-3,4.05-6,5.77-8.73,2.93-4.74,5.21-9.06,6.15-12.53a9.67,9.67,0,0,0,.3-4.74,4.78,4.78,0,0,0-2.64-3.28,11,11,0,0,0-5.45-.79A42.39,42.39,0,0,0,532,676.2c-6.85,1.87-14.34,6.13-22.26,12a220.55,220.55,0,0,0-19.25,16.47q-2.9,2.74-5.85,5.66c-6.17,6.07-12.5,12.67-18.95,19.54s-13,14-19.59,21.25c-5.52,6-11.08,12.1-16.63,18.07-10.1,10.86-20.18,21.38-30,30.77l-.31.29a257.24,257.24,0,0,1-24.63,21C357,834,341.31,840.05,328.48,835c-6.49-2.56-9.16-6-9.48-9.81-.33-4,1.8-8.86,5.87-14.39A100.29,100.29,0,0,1,334,800.29l.28-.29c8.13-8.23,18.53-17,28.86-25.68l1.69-1.41,0,0h0c6.9-5.78,13.69-11.47,19.64-16.84,6.42-5.81,11.9-11.28,15.46-16.12a25.87,25.87,0,0,0,3.82-6.89,8.73,8.73,0,0,0,.09-6.1,9,9,0,0,0-4.66-4.53,30.32,30.32,0,0,0-9.45-2.5c-12.9-1.65-29.17,2.25-46.94,9.54s-37.23,18.07-56.51,30.3c-19.8,12.56-39.45,26.69-57,40.25l-.37.29c-16.52,12.73-31.2,25-42.43,34.89l1.33,1.5c11.66-10.31,27.06-23.11,44.37-36.39l.38-.29c17-13,35.86-26.52,54.83-38.56,19.23-12.2,38.55-22.9,56.2-30.14s33.56-11,45.93-9.4a28.49,28.49,0,0,1,8.82,2.3,7,7,0,0,1,3.68,3.49,6.76,6.76,0,0,1-.12,4.72,24.17,24.17,0,0,1-3.54,6.33c-3.43,4.67-8.79,10-15.19,15.82-5.92,5.35-12.69,11-19.6,16.8l0,0-.69.58-1,.82C351.05,781.88,340,791.24,331.53,800l-.28.29a97.27,97.27,0,0,0-8,9.33c-4.13,5.6-6.65,11-6.25,15.73s3.87,8.8,10.74,11.51c13.9,5.47,30.4-1.23,47.89-14A265.41,265.41,0,0,0,402,800.29l.31-.29c9.43-9.06,19-19.1,28.62-29.41,5.57-6,11.14-12.08,16.67-18.12,13.18-14.4,26.14-28.56,38.43-40.67q3.74-3.69,7.38-7.09a209.15,209.15,0,0,1,17.52-14.87c7.83-5.84,15.08-9.93,21.59-11.71a39.62,39.62,0,0,1,8-1.49,9.17,9.17,0,0,1,4.46.58,2.8,2.8,0,0,1,1.58,1.95,7.89,7.89,0,0,1-.29,3.76c-.86,3.16-3,7.27-5.92,12-1.91,3.08-4.13,6.37-6.5,9.79-1.25,1.8-2.55,3.64-3.86,5.49-.6.86-1.22,1.72-1.83,2.59-7,9.91-14.28,20.14-18,28.2a32.77,32.77,0,0,0-2.24,6.15,11.44,11.44,0,0,0-.18,5.17,6,6,0,0,0,2.68,3.76,11.33,11.33,0,0,0,5.59,1.48c9.38.42,18.16-5.76,26.77-14.82,7-7.41,14.12-16.93,21.47-26.8h0l5-6.77c1.11-1.48,2.24-3,3.37-4.44,8.21-10.72,16.86-21.14,26.28-29.19,10.71-9.15,22.33-15.17,35.37-15.17v-2C620.6,658.35,608.53,664.68,597.63,674ZM924.14,809.89a21.67,21.67,0,0,1-7.7-9.6l-.12-.29a27.78,27.78,0,0,1-1.45-4.71c-1.35-6.13-1.15-13.32,0-21.12a199.92,199.92,0,0,1,5.52-24.44c1.14-4.1,2.35-8.2,3.53-12.24h0l.05-.18c1.21-4.11,2.4-8.15,3.48-12.06a140.91,140.91,0,0,0,4.45-20.52c0-.3.07-.6.1-.89.64-6.24.21-11.65-2.23-15.47s-6.93-5.91-13.62-5.7c-12.12.38-23.37,9.15-34,22.06-1.18,1.44-2.37,2.94-3.54,4.48-11.72,15.38-22.94,35.65-34,55.58l-.09.17c-6.76,12.21-13.44,24.28-20.12,35.06l-.18.29a218.86,218.86,0,0,1-12.51,18.29c-5.5,7.11-11,12.82-16.53,16.55s-11,5.43-16.59,4.67-9.08-3.08-11-6.39-2.54-8-2-13.49a93.9,93.9,0,0,1,4.66-19.63c0-.1.06-.19.09-.29,2.09-6.32,4.64-13,7.25-19.6.46-1.16.92-2.31,1.37-3.47,5.1-12.93,10.1-25.61,11.68-35.31.85-5.27.74-9.88-1.11-13.21s-5.55-5.26-11-5.26-10.84,2.47-15.84,6.63-9.83,10.07-14.56,17.1c-7.92,11.75-15.7,26.79-23.72,42.29-1.55,3-3.11,6-4.69,9l-.94,1.8a2.69,2.69,0,0,1-.16.29c-9.38,17.93-19.23,35.61-30.17,49-11.38,13.89-23.78,22.92-37.9,22.92-7.15,0-11.2-1.87-13.27-4.81S634.84,860,636,854.3s3.66-12.27,6.88-19.49c2.72-6.1,5.92-12.57,9.18-19.15l1.77-3.59c1.94-3.92,3.87-7.86,5.7-11.78,0-.09.08-.19.13-.29,5.36-11.5,9.83-22.67,11-31.94.77-6.27,0-11.86-3.12-16.09s-8.66-6.93-16.91-7.76c-26.27-2.62-52.7,8.86-75,24.15A238.14,238.14,0,0,0,538.71,800l-.28.29A200.78,200.78,0,0,0,525,815.88l1.59,1.22a208.36,208.36,0,0,1,14.65-16.81l.29-.29a235.82,235.82,0,0,1,35.25-30c22.13-15.18,48.08-26.37,73.66-23.81,7.94.8,12.79,3.33,15.51,7s3.47,8.62,2.73,14.64c-1.13,9.2-5.69,20.45-11.2,32.19,0,.1-.09.19-.14.29-1.69,3.6-3.47,7.24-5.27,10.89l-1.74,3.52,0,.07C647,821.34,643.78,827.85,641,834c-3.23,7.25-5.83,14.06-7,19.91s-1,11,1.56,14.63,7.48,5.66,14.91,5.66c15,0,28-9.61,39.45-23.66,11.27-13.77,21.35-32,30.89-50.24L721,800c.16-.29.31-.58.46-.87,1.58-3,3.15-6.07,4.71-9.07h0c8-15.5,15.73-30.41,23.58-42.06,4.69-7,9.38-12.68,14.18-16.67s9.6-6.17,14.56-6.17,7.84,1.62,9.29,4.23,1.72,6.76.88,11.92c-1.54,9.47-6.45,21.94-11.59,35-.44,1.14-.89,2.27-1.34,3.41-2.68,6.82-5.34,13.72-7.5,20.33,0,.1-.07.2-.1.29a95.41,95.41,0,0,0-4.54,19.44c-.55,5.71,0,10.79,2.27,14.69s6.39,6.52,12.49,7.36,12.18-1.08,18-5,11.44-9.79,17-17a224,224,0,0,0,13.27-19.52l.18-.29q1.53-2.47,3-5c5.48-9.18,10.94-19.06,16.43-29l.15-.27c11-20,22.2-40.1,33.81-55.34,1.52-2,3-3.89,4.56-5.69,10.2-12.06,20.62-19.72,31.46-20.06,6.26-.2,9.88,1.65,11.87,4.78s2.56,8.05,1.93,14.19l-.12,1.09a141.26,141.26,0,0,1-4.37,20c-1.08,3.89-2.26,7.92-3.46,12l-.06.2c-1.19,4-2.4,8.15-3.55,12.27a203.51,203.51,0,0,0-5.57,24.69c-1.16,7.91-1.39,15.38,0,21.84a31.16,31.16,0,0,0,1.27,4.28,1.45,1.45,0,0,0,.11.29,23.63,23.63,0,0,0,8.7,11.24c5.51,3.83,13.31,6,24,6v-2C936.55,815.49,929.2,813.41,924.14,809.89Zm299.17-20.31c-5-3.35-10.88-7.61-17.37-12.37l-2.43-1.79c-12.43-9.14-26.94-19.81-42.09-29.09-16.13-9.89-33.05-18.27-49-21.54-7.9-1.62-13.45-2.31-17-2.12a8.43,8.43,0,0,0-4.15,1.06,3.12,3.12,0,0,0-1.15,1.32,3.19,3.19,0,0,0-.22,1.7,8.54,8.54,0,0,0,1.64,3.6,35.54,35.54,0,0,0,3.66,4.26c3,3.11,7.22,6.8,12.13,11,2.91,2.46,6.08,5.08,9.41,7.84,8,6.59,16.86,14,25.57,21.85A252.48,252.48,0,0,1,1166.6,800l.24.29a121.7,121.7,0,0,1,7.71,10.27,40.42,40.42,0,0,1,4.06,7.29c.74,1.91.79,3.08.54,3.74s-.69,1-1.89,1.13a16.2,16.2,0,0,1-5.27-.55c-4.55-1-10.84-3.42-18.46-6.68s-16.45-7.35-26.12-11.86l-2.42-1.12-4.76-2.22-.62-.29c-17.47-8.13-37-17.08-56.18-24.42-22.07-8.43-43.77-14.76-61.37-15.17-7-.17-12.27.53-16,2s-6,3.79-6.66,6.83.09,6.38,1.83,10a59.59,59.59,0,0,0,8,11.86c2.39,2.87,5.13,5.84,8.14,8.87l.28.29c14.45,14.53,34.74,30.2,50.75,41.32l1.14-1.64c-15.48-10.75-34.85-25.69-49-39.68l-.29-.29c-3.51-3.47-6.7-6.88-9.43-10.15a57.75,57.75,0,0,1-7.76-11.45c-1.66-3.47-2.23-6.39-1.69-8.7s2.17-4.12,5.46-5.43,8.27-2,15.19-1.86c17.23.4,38.66,6.62,60.69,15,17.7,6.77,35.71,14.93,52.15,22.55l.63.29,8.68,4,2.39,1.12c9.67,4.5,18.55,8.62,26.19,11.88s14,5.69,18.79,6.79a18,18,0,0,0,6,.58,4,4,0,0,0,3.52-2.41c.51-1.38.23-3.14-.56-5.17a42,42,0,0,0-4.26-7.67c-2-3.06-4.32-6.12-6.79-9.16l-.24-.29a245.72,245.72,0,0,0-25.55-26.22c-8.75-7.91-17.71-15.34-25.68-21.94-3.32-2.75-6.47-5.36-9.36-7.8-4.91-4.15-9-7.8-12-10.83a33.08,33.08,0,0,1-3.45-4,6.65,6.65,0,0,1-1.3-2.7,1.31,1.31,0,0,1,.07-.64,1.12,1.12,0,0,1,.43-.46,6.56,6.56,0,0,1,3.15-.73c3.28-.18,8.61.46,16.5,2.08,15.62,3.2,32.31,11.43,48.38,21.28,15.07,9.24,29.51,19.86,41.95,29h0l2.42,1.78c6.48,4.75,12.37,9,17.44,12.42l1.51,1,2.21-1C1225.08,790.75,1224.21,790.18,1223.31,789.58Zm6.82-25.91a222,222,0,0,0-19-21.94c-12-12.39-25.73-24.89-38.06-36.08l-1-.94-6.15-5.6c-7-6.38-13.22-12.18-18-17.13s-8.12-9-9.33-11.74c-.61-1.4-.57-2.21-.31-2.65s.93-.92,2.65-1.09c3.41-.34,9.67.69,19.61,3.53l.55-1.93c-9.91-2.83-16.52-4-20.36-3.59-1.9.19-3.44.79-4.19,2.09s-.46,2.87.22,4.44c1.37,3.15,4.91,7.38,9.72,12.34s11.13,10.83,18.11,17.2q2.24,2,4.54,4.13l2.65,2.41,0,0c12.33,11.2,26,23.64,38,36a219.34,219.34,0,0,1,18.78,21.73c5.08,6.9,8.82,13.41,10.61,19.25.59-.38,1.17-.76,1.74-1.15C1238.91,777,1235.11,770.43,1230.13,763.67Z" fill-rule="evenodd" opacity="0.7" fill="url(#linear-gradient-42)" style="isolation: isolate"/>
          <path d="M1284.89,704.71a99.91,99.91,0,0,1-44,78.24c-.57.39-1.15.77-1.74,1.15a100.17,100.17,0,0,1-13.21,7.18l-2.21,1A99.56,99.56,0,0,1,1185,800h-15.82l.24.29H228.94l.37-.29H0V782.38c225.22-1.29,248.89-44.23,380.12-44.23,115.38,0,168.31,27.14,413.88,27.14,221.92,0,213.33-50.79,420-60.58Z" opacity="0.1" fill="url(#linear-gradient-43)" style="isolation: isolate"/>
        </g>
      </g>
    </g>
    <g>
      <path d="M67.4,429.45H73v366.6H67.4Z" fill="#0c5e59"/>
      <path d="M31.57,397.85c13.54,0,26.3,9.7,35.19,18.62-6-8.54-14.31-18.82-20.69-21a44.21,44.21,0,0,0-19.91-1.75s10.25-14.35,25.33-7.56c6.76,2.91,12.37,12.41,16.43,21.53-2.32-8.53-3.87-18.62-2.51-27.93,3.67-23.28,29.77-25.22,29.77-25.22s-14.5,20.18-17.21,44c-.38,3.11-.58,6.21-.77,9.12,2.32-13.77,7.73-30.26,20.88-39,32.67-21.72,53.17,16.68,53.17,16.68s-18.76-11.63-43.31.78c-19.33,9.7-27.65,30.84-30.35,39.18,3.28-6.4,16.62-30.26,38.28-33.94,32.48-5.43,40.79,35.88,40.79,35.88s-18.56-14.93-41.57-14c-17.78.78-30.74,8.15-37.12,14a73.38,73.38,0,0,1,19.53-2.71c28.81-.39,34.8,38.21,34.8,38.21L77.59,429.27c2.32,4.46,7.15,13.77,9.86,20.37,3.67,8.92,1.35,28.7,1.35,28.7s-8.89-15.13-11.41-25c-2.51-9.5-1.93-19.39-1.54-24.05L38.73,469.42S29.64,445,57.48,433.15c3.67-1.55,7-2.91,9.47-3.88a58,58,0,0,0-23.2,9.12,108,108,0,0,0-26.48,24.82S7.21,433.54,32,421.9c8.12-3.88,17.4-3.3,25.33-1.55a36.31,36.31,0,0,0-23.2-4.85c-22.43,2.71-28.62,18.81-28.62,18.81S-.91,397.65,31.57,397.85Z" fill="url(#linear-gradient-44)"/>
    </g>
    <g>
      <path d="M231.94,800.31H-2A115,115,0,0,1-.24,782.47c.19-.85.35-1.71.52-2.59.13-.68.27-1.37.43-2.06a.43.43,0,0,0,0-.11A114.77,114.77,0,0,1,12.29,746.9c.82-1.3,1.52-2.7,2.33-4l.05-.07A116.14,116.14,0,0,1,37,715.74l.32-.29.5-.45c.56-.5,1.15-1,1.74-1.51l.9-.74a115.61,115.61,0,0,1,31.38-18.62c1.39-.47,2.79-1,4.19-1.51l.11,0A115.73,115.73,0,0,1,112.76,686h4.53a116.46,116.46,0,0,1,36.64,6.57c1.43.48,2.86.95,4.29,1.55a115.82,115.82,0,0,1,31.39,18.62,42.87,42.87,0,0,1,3.46,3,119.16,119.16,0,0,1,22.31,27.1c.84,1.31,1.67,2.74,2.39,4.06a114.72,114.72,0,0,1,11.57,30.92c.1.43.19.86.27,1.28a.43.43,0,0,0,0,0c.22,1.11.39,2.21.56,3.32l0,.17A115.12,115.12,0,0,1,231.94,800.31Z" fill="url(#linear-gradient-45)"/>
      <path d="M229.62,779.15a.43.43,0,0,1,0,0l-.27-1.16-38.86,22.37h9.07l30.66-17.67.09,0C230.12,781.44,229.88,780.3,229.62,779.15Zm-14.36-36.31-57.33,57.47h6.33l53.39-53.41C216.93,745.58,216.1,744.15,215.26,742.84Zm-25.65-30L139,800.31h5.25l48.8-84.45A42.87,42.87,0,0,0,189.61,712.87Zm-35.8-20.29L125.05,800.31h4.66L158.1,694.13C156.67,693.53,155.24,693.06,153.81,692.58ZM.73,777.71h0c-.16.75-.3,1.47-.43,2.18-.17.88-.33,1.74-.52,2.59l31,17.84h9.09Zm13.89-34.8-.07-.07c-.36.65-.74,1.34-1.13,2s-.78,1.37-1.13,2l53.38,53.41H72Zm25.83-30.16-.9.74c-.59.5-1.18,1-1.74,1.51l-.5.45-.32.29,48.86,84.57H91ZM76,692.62v0L75,693c-1,.36-2.06.73-3.12,1.17l28.4,106.18h4.65Zm36.74-6.73V800.31h4.53V685.89Z" fill-rule="evenodd" fill="url(#linear-gradient-46)"/>
    </g>
    <g>
      <g>
        <path d="M63.56,683.94c-11.06,0-15.21-9.69-15.21-23.17s-3.8-24.56-18.67-25.25c-19.36-.7-17.63,18-17.63,40.81,0,29-10.37,10.38-24.89,26.63-12.45,13.84,3.45,38.4,8.29,45.66H58c2.08-3.8,7.26-13.14,13.14-24.56C84.31,699.85,74.63,683.94,63.56,683.94Z" fill="url(#linear-gradient-47)"/>
        <path d="M33.83,688.44H30.72v43.37L17.65,714.38l-2.49,1.87L30.72,737v11.62h3.11V715.85L47,699.49l-2.43-2L33.83,710.89Z" fill="#fff" fill-rule="evenodd" opacity="0.2" style="isolation: isolate"/>
      </g>
      <path d="M76.36,749H-16.3V800.5H76.36Z" fill="#fff"/>
    </g>
    <g>
      <path d="M623.24,816.19a75.36,75.36,0,0,0-7.62-20.37c-.47-.87-1-1.81-1.57-2.68a78.43,78.43,0,0,0-14.68-17.85,28.49,28.49,0,0,0-2.28-2,76.17,76.17,0,0,0-20.66-12.27c-.94-.39-1.88-.7-2.82-1a76.46,76.46,0,0,0-24.11-4.32h-3A76.05,76.05,0,0,0,522.4,760c-.94.32-1.88.71-2.82,1a76.17,76.17,0,0,0-20.66,12.27c-.78.63-1.57,1.34-2.27,2A76.42,76.42,0,0,0,482,793.14c-.55.87-1,1.81-1.57,2.68a75.36,75.36,0,0,0-7.62,20.37c-.23,1-.39,2-.63,3.07A76.88,76.88,0,0,0,471,832.71H625a76.21,76.21,0,0,0-1.18-13.45C623.63,818.23,623.47,817.21,623.24,816.19Z" fill="#f4f6d5"/>
      <path d="M777.27,839a117.44,117.44,0,0,0-11.87-31.75c-.73-1.35-1.59-2.82-2.45-4.17a122.23,122.23,0,0,0-22.88-27.82,41.56,41.56,0,0,0-3.55-3.07A118.71,118.71,0,0,0,704.33,753c-1.47-.61-2.94-1.1-4.4-1.59a119.07,119.07,0,0,0-37.58-6.74H657.7a118.4,118.4,0,0,0-37.57,6.74c-1.47.49-2.94,1.1-4.41,1.59a118.51,118.51,0,0,0-32.18,19.12c-1.23,1-2.45,2.09-3.55,3.07a119,119,0,0,0-22.89,27.82c-.86,1.35-1.59,2.82-2.45,4.17A118.11,118.11,0,0,0,542.78,839c-.37,1.59-.61,3.18-1,4.78a119.5,119.5,0,0,0-1.83,21H780a118.5,118.5,0,0,0-1.84-21C777.89,842.15,777.64,840.56,777.27,839Z" fill="#fff"/>
    </g>
  </g>
</svg>
