<svg id="Layer_1" data-name="Layer 1" xmlns="http://www.w3.org/2000/svg" xmlns:xlink="http://www.w3.org/1999/xlink" viewBox="0 0 750 1334"><defs><style>.cls-1,.cls-12,.cls-9{fill:none;}.cls-2{clip-path:url(#clip-path);}.cls-3{fill:url(#linear-gradient);}.cls-4{fill:url(#linear-gradient-2);}.cls-5{fill:url(#linear-gradient-3);}.cls-6{fill:url(#linear-gradient-4);}.cls-7{fill:url(#linear-gradient-5);}.cls-8{fill:url(#linear-gradient-6);}.cls-12,.cls-9{stroke-miterlimit:1.15;stroke-width:1.44px;}.cls-9{stroke:url(#linear-gradient-8);}.cls-10,.cls-13{fill:#c9d983;}.cls-10{fill-opacity:0.3;}.cls-11{fill:url(#linear-gradient-9);}.cls-12{stroke:url(#linear-gradient-10);}.cls-13,.cls-42{fill-opacity:0.2;}.cls-14{fill:#0c5e59;}.cls-15{fill:url(#linear-gradient-11);}.cls-16{fill:url(#linear-gradient-12);}.cls-17{fill:url(#linear-gradient-13);}.cls-18{fill:url(#linear-gradient-14);}.cls-19{fill:url(#linear-gradient-15);}.cls-20{fill:url(#linear-gradient-16);}.cls-21{fill:url(#linear-gradient-17);}.cls-22{fill:url(#linear-gradient-18);}.cls-23{fill:url(#linear-gradient-19);}.cls-24{fill:url(#linear-gradient-20);}.cls-25{opacity:0.3;}.cls-26{fill:url(#linear-gradient-21);}.cls-27{fill:#084f15;}.cls-28{fill:url(#linear-gradient-22);}.cls-29{fill:url(#linear-gradient-23);}.cls-30{fill:url(#linear-gradient-24);}.cls-31{fill:url(#linear-gradient-25);}.cls-32{fill:url(#linear-gradient-26);}.cls-33{fill:url(#linear-gradient-27);}.cls-34{fill:url(#linear-gradient-28);}.cls-35{fill:url(#linear-gradient-29);}.cls-36{fill:url(#linear-gradient-30);}.cls-37{fill:url(#linear-gradient-31);}.cls-38{fill:url(#linear-gradient-32);}.cls-39{fill:url(#linear-gradient-33);}.cls-40,.cls-42,.cls-44{fill-rule:evenodd;}.cls-40{fill:url(#linear-gradient-34);}.cls-41{fill:url(#linear-gradient-35);}.cls-42{fill:#fff;}.cls-43{fill:url(#linear-gradient-36);}.cls-44{fill:url(#linear-gradient-37);}.cls-45{fill:url(#linear-gradient-38);}</style><clipPath id="clip-path"><rect class="cls-1" y="-0.5" width="750" height="1335"/></clipPath><linearGradient id="linear-gradient" x1="-264.23" y1="1067.78" x2="-262.56" y2="1067.78" gradientTransform="matrix(-982.33, -809.99, -809.99, 982.33, 606095.53, -1261584.2)" gradientUnits="userSpaceOnUse"><stop offset="0" stop-color="#ffedba"/><stop offset="1" stop-color="#ee4d47"/></linearGradient><linearGradient id="linear-gradient-2" x1="-264.37" y1="1066.83" x2="-262.7" y2="1066.83" gradientTransform="matrix(0, 1100.16, 1100.16, 0, -1174639.23, 290496.74)" gradientUnits="userSpaceOnUse"><stop offset="0" stop-color="#f4a984"/><stop offset="1" stop-color="#f4a984" stop-opacity="0"/></linearGradient><linearGradient id="linear-gradient-3" x1="-264.06" y1="1068.62" x2="-262.39" y2="1068.62" gradientTransform="matrix(0, -689.59, -689.59, 0, 736846.82, -181325.06)" gradientUnits="userSpaceOnUse"><stop offset="0" stop-color="#ffedba" stop-opacity="0"/><stop offset="0.1" stop-color="#fee0b0" stop-opacity="0.07"/><stop offset="0.3" stop-color="#fabf96" stop-opacity="0.24"/><stop offset="0.57" stop-color="#f5896d" stop-opacity="0.52"/><stop offset="0.91" stop-color="#ed3f34" stop-opacity="0.89"/><stop offset="1" stop-color="#eb2a24"/></linearGradient><linearGradient id="linear-gradient-4" x1="-264.57" y1="1069.13" x2="-262.9" y2="1069.13" gradientTransform="matrix(0.14, 312.76, 312.76, -0.14, -333536.5, 83117.13)" gradientUnits="userSpaceOnUse"><stop offset="0" stop-color="#fff" stop-opacity="0.56"/><stop offset="1" stop-color="#fff" stop-opacity="0"/></linearGradient><linearGradient id="linear-gradient-5" x1="-263.93" y1="1068.57" x2="-262.26" y2="1068.57" gradientTransform="matrix(0.1, 228.74, 228.74, -0.1, -244023.25, 61188.23)" gradientUnits="userSpaceOnUse"><stop offset="0" stop-color="#fff" stop-opacity="0.2"/><stop offset="1" stop-color="#fff" stop-opacity="0"/></linearGradient><linearGradient id="linear-gradient-6" x1="-263.61" y1="1068.7" x2="-261.94" y2="1068.7" gradientTransform="matrix(0, 201.49, 201.49, 0, -214600.17, 53980.72)" gradientUnits="userSpaceOnUse"><stop offset="0" stop-color="#2ca77f"/><stop offset="0.24" stop-color="#2ca77f"/><stop offset="1" stop-color="#1b8877"/></linearGradient><linearGradient id="linear-gradient-8" x1="-263.3" y1="1068.59" x2="-262.04" y2="1068.59" gradientTransform="matrix(0, 183.04, 183.04, 0, -194895.46, 49119.16)" xlink:href="#linear-gradient-5"/><linearGradient id="linear-gradient-9" x1="-263.56" y1="1068.24" x2="-261.89" y2="1068.24" gradientTransform="matrix(0, 210.56, 210.56, 0, -224425.06, 56396.6)" gradientUnits="userSpaceOnUse"><stop offset="0" stop-color="#2ca77f"/><stop offset="0.42" stop-color="#2ca77f"/><stop offset="1" stop-color="#1b8877"/></linearGradient><linearGradient id="linear-gradient-10" x1="-263.1" y1="1068.4" x2="-261.84" y2="1068.4" gradientTransform="matrix(0, 149.35, 149.35, 0, -159055.55, 40278.48)" xlink:href="#linear-gradient-5"/><linearGradient id="linear-gradient-11" x1="-261.19" y1="1071.17" x2="-259.52" y2="1071.17" gradientTransform="matrix(0, 42.51, 42.51, 0, -44819.73, 12069.99)" gradientUnits="userSpaceOnUse"><stop offset="0" stop-color="#d3d86c"/><stop offset="1" stop-color="#82a637"/></linearGradient><linearGradient id="linear-gradient-12" x1="-263.25" y1="1069.15" x2="-261.58" y2="1069.15" gradientTransform="matrix(0, 77.82, 77.82, 0, -82595.97, 21299.71)" xlink:href="#linear-gradient-11"/><linearGradient id="linear-gradient-13" x1="-262.71" y1="1068.03" x2="-261.04" y2="1068.03" gradientTransform="matrix(0, 106.71, 106.71, 0, -113579.66, 29045.26)" xlink:href="#linear-gradient-11"/><linearGradient id="linear-gradient-14" x1="-262.07" y1="1068.05" x2="-260.4" y2="1068.05" gradientTransform="matrix(0, 80.51, 80.51, 0, -85597.71, 22154.59)" gradientUnits="userSpaceOnUse"><stop offset="0" stop-color="#084f15" stop-opacity="0"/><stop offset="1" stop-color="#084f15" stop-opacity="0.3"/></linearGradient><linearGradient id="linear-gradient-15" x1="-261.92" y1="1067.89" x2="-260.25" y2="1067.89" gradientTransform="matrix(0, 75.99, 75.99, 0, -80790.31, 20966.36)" xlink:href="#linear-gradient-14"/><linearGradient id="linear-gradient-16" x1="-261.3" y1="1067.69" x2="-259.63" y2="1067.69" gradientTransform="matrix(0, 62.02, 62.02, 0, -65891.69, 17293.36)" xlink:href="#linear-gradient-14"/><linearGradient id="linear-gradient-17" x1="-259.62" y1="1067.3" x2="-257.95" y2="1067.3" gradientTransform="matrix(0, 41.4, 41.4, 0, -43884.29, 11870.42)" xlink:href="#linear-gradient-14"/><linearGradient id="linear-gradient-18" x1="-252.61" y1="1065.75" x2="-250.94" y2="1065.75" gradientTransform="matrix(0, 17.33, 17.33, 0, -18193.22, 5540.15)" xlink:href="#linear-gradient-14"/><linearGradient id="linear-gradient-19" x1="-261.92" y1="1068.21" x2="-260.25" y2="1068.21" gradientTransform="matrix(0, 75.99, 75.99, 0, -80754.18, 20966.36)" xlink:href="#linear-gradient-14"/><linearGradient id="linear-gradient-20" x1="-261.3" y1="1068.43" x2="-259.63" y2="1068.43" gradientTransform="matrix(0, 62.02, 62.02, 0, -65822.51, 17293.45)" xlink:href="#linear-gradient-14"/><linearGradient id="linear-gradient-21" x1="-259.62" y1="1068.88" x2="-257.95" y2="1068.88" gradientTransform="matrix(0, 41.4, 41.4, 0, -43785.92, 11870.42)" gradientUnits="userSpaceOnUse"><stop offset="0" stop-color="#084f15" stop-opacity="0"/><stop offset="1" stop-color="#084f15"/></linearGradient><linearGradient id="linear-gradient-22" x1="-261.59" y1="1068.93" x2="-259.92" y2="1068.93" gradientTransform="matrix(0, 67.9, 67.9, 0, -72049.61, 18840.26)" xlink:href="#linear-gradient-11"/><linearGradient id="linear-gradient-23" x1="-260.58" y1="1069.23" x2="-258.92" y2="1069.23" gradientTransform="matrix(0, 51.18, 51.18, 0, -54186.72, 14441.47)" xlink:href="#linear-gradient-14"/><linearGradient id="linear-gradient-24" x1="-260.34" y1="1069.15" x2="-258.67" y2="1069.15" gradientTransform="matrix(0, 48.3, 48.3, 0, -51127.53, 13685.23)" xlink:href="#linear-gradient-14"/><linearGradient id="linear-gradient-25" x1="-259.37" y1="1069.23" x2="-257.7" y2="1069.23" gradientTransform="matrix(0, 39.43, 39.43, 0, -41662.8, 11351.99)" xlink:href="#linear-gradient-14"/><linearGradient id="linear-gradient-26" x1="-256.72" y1="1069.61" x2="-255.05" y2="1069.61" gradientTransform="matrix(0, 26.29, 26.29, 0, -27634.48, 7895.07)" xlink:href="#linear-gradient-14"/><linearGradient id="linear-gradient-27" x1="-245.68" y1="1071.27" x2="-244.01" y2="1071.27" gradientTransform="matrix(0, 11.01, 11.01, 0, -11324.8, 3876.52)" xlink:href="#linear-gradient-14"/><linearGradient id="linear-gradient-28" x1="-260.33" y1="1069.47" x2="-258.67" y2="1069.47" gradientTransform="matrix(0, 48.22, 48.22, 0, -51017.02, 13663.74)" xlink:href="#linear-gradient-14"/><linearGradient id="linear-gradient-29" x1="-259.37" y1="1069.97" x2="-257.7" y2="1069.97" gradientTransform="matrix(0, 39.43, 39.43, 0, -41618.87, 11351.99)" xlink:href="#linear-gradient-14"/><linearGradient id="linear-gradient-30" x1="-256.72" y1="1071.2" x2="-255.05" y2="1071.2" gradientTransform="matrix(0, 26.29, 26.29, 0, -27571.91, 7895.16)" xlink:href="#linear-gradient-14"/><linearGradient id="linear-gradient-31" x1="-245.68" y1="1076.2" x2="-244.01" y2="1076.2" gradientTransform="matrix(0, 11.01, 11.01, 0, -11243.51, 3876.52)" xlink:href="#linear-gradient-14"/><linearGradient id="linear-gradient-32" x1="-262.83" y1="1066.17" x2="-261.16" y2="1066.17" gradientTransform="matrix(0, 67.63, 67.63, 0, -72032.63, 18640.45)" xlink:href="#linear-gradient-11"/><linearGradient id="linear-gradient-33" x1="-261.35" y1="1066.2" x2="-259.68" y2="1066.2" gradientTransform="matrix(0, 63.87, 63.87, 0, -68005.45, 17783.19)" xlink:href="#linear-gradient-11"/><linearGradient id="linear-gradient-34" x1="-262.39" y1="1066.63" x2="-260.72" y2="1066.63" gradientTransform="matrix(0, 111.82, 111.82, 0, -119181.94, 30458.61)" xlink:href="#linear-gradient-21"/><linearGradient id="linear-gradient-35" x1="-260.74" y1="1065.58" x2="-259.07" y2="1065.58" gradientTransform="matrix(0, 55.58, 55.58, 0, -59184.13, 15613.04)" xlink:href="#linear-gradient-9"/><linearGradient id="linear-gradient-36" x1="-263.95" y1="1068.31" x2="-262.29" y2="1068.31" gradientTransform="matrix(0, 467.3, 467.3, 0, -499287.48, 124068.52)" gradientUnits="userSpaceOnUse"><stop offset="0" stop-color="#eeef99"/><stop offset="0.28" stop-color="#eeef99"/><stop offset="0.77" stop-color="#b9d079"/><stop offset="1" stop-color="#b9d079"/></linearGradient><linearGradient id="linear-gradient-37" x1="-263" y1="1067.39" x2="-261.33" y2="1067.39" gradientTransform="matrix(0, 211.58, 211.58, 0, -225779.63, 56841.57)" gradientUnits="userSpaceOnUse"><stop offset="0" stop-color="#fff" stop-opacity="0.7"/><stop offset="1" stop-color="#fff" stop-opacity="0"/></linearGradient><linearGradient id="linear-gradient-38" x1="-263.19" y1="1067.15" x2="-261.52" y2="1067.15" gradientTransform="matrix(0, 209.49, 209.49, 0, -223623.75, 56227.2)" gradientUnits="userSpaceOnUse"><stop offset="0" stop-color="#82a637" stop-opacity="0.1"/><stop offset="0.16" stop-color="#82a637" stop-opacity="0.1"/><stop offset="0.89" stop-color="#1b8877" stop-opacity="0.1"/><stop offset="1" stop-color="#1b8877" stop-opacity="0.1"/></linearGradient></defs><title>Artboard 1</title><g class="cls-2"><path class="cls-3" d="M1001.41-.76H-1134.51V1330H835.19c91.8,0,166.22-74.48,166.22-166.34V-.76Z"/><path class="cls-4" d="M1099.49,568.33h-48.64a6.76,6.76,0,0,0-6.75,6.76V981.43a9.28,9.28,0,1,1-18.56,0V721.82a16.63,16.63,0,0,0-16.62-16.63H991.53a16.62,16.62,0,0,0-16.62,16.63v16.29a16.64,16.64,0,0,1-16.63,16.64H848.61A12.66,12.66,0,0,0,836,767.42v7a5.62,5.62,0,0,1-5.62,5.63,5.64,5.64,0,0,0-5.64,5.63v90.4a13.78,13.78,0,0,1-13.78,13.79,13.79,13.79,0,0,0-13.78,13.79V964a16.63,16.63,0,0,1-16.62,16.63h-1.64a16.64,16.64,0,0,0-16.63,16.64v88.12a6.18,6.18,0,1,1-12.36,0V574.53a5.08,5.08,0,0,0-5.07-5.07,5.08,5.08,0,0,1-5.07-5.07V519.62a8.71,8.71,0,0,0-8.71-8.73,8.73,8.73,0,0,1-8.73-8.73V458.79a5.91,5.91,0,0,0-5.9-5.91,5.91,5.91,0,0,1-5.9-5.91V411.51a16.64,16.64,0,0,0-16.62-16.64H651.72a16.64,16.64,0,0,0-16.62,16.64V447a5.91,5.91,0,0,1-5.9,5.91,5.92,5.92,0,0,0-5.92,5.91v43.37a8.71,8.71,0,0,1-8.71,8.73,8.72,8.72,0,0,0-8.72,8.73v45a4.22,4.22,0,0,1-4.22,4.23,4.21,4.21,0,0,0-4.21,4.22v348a9.86,9.86,0,0,1-9.86,9.85,9.85,9.85,0,0,0-9.84,9.86v138.55a12.1,12.1,0,0,1-12.1,12.1h-11a1.12,1.12,0,0,1-1.11-1.13,1.13,1.13,0,0,0-1.13-1.12h-3.66a2,2,0,0,1,0-3.94h2a2.82,2.82,0,1,0,0-5.64H549a2.25,2.25,0,0,1,0-4.5h1.68a2.82,2.82,0,1,0,0-5.63h-2a2,2,0,0,1,0-3.94h2a2.82,2.82,0,1,0,0-5.64h-2a2,2,0,0,1,0-3.94h2a2.82,2.82,0,1,0,0-5.63h-2a2,2,0,0,1,0-3.94h2a2.82,2.82,0,1,0,0-5.63h-2a2,2,0,0,1,0-3.95h2a2.82,2.82,0,1,0,0-5.63h-2a2,2,0,0,1,0-3.94h2a2.82,2.82,0,1,0,0-5.63h-2a2,2,0,0,1,0-4h2a2.82,2.82,0,1,0,0-5.63h-2a2,2,0,0,1,0-3.94h2a2.82,2.82,0,1,0,0-5.63h-2a2,2,0,0,1,0-3.94h2a2.82,2.82,0,1,0,0-5.64h-.55a3.37,3.37,0,0,1-3.37-3.37v-1.13a3.37,3.37,0,0,1,3.37-3.38h.55a2.82,2.82,0,1,0,0-5.63h-2a2,2,0,0,1,0-3.94h2a2.82,2.82,0,1,0,0-5.64h-2a2,2,0,0,1,0-3.94h2a2.82,2.82,0,1,0,0-5.63h-2a2,2,0,0,1,0-3.94h2a2.82,2.82,0,1,0,0-5.64h-2a2,2,0,0,1,0-3.94h2a2.82,2.82,0,1,0,0-5.63h-2a2,2,0,0,1,0-3.94h2a2.82,2.82,0,1,0,0-5.63h-2a2,2,0,0,1,0-4h2a2.82,2.82,0,1,0,0-5.63h-2a2,2,0,0,1,0-3.94h2a2.82,2.82,0,1,0,0-5.63h-2a2,2,0,0,1,0-3.94h2a2.82,2.82,0,1,0,0-5.64h-2a2,2,0,0,1,0-3.94h2a2.82,2.82,0,1,0,0-5.63h-2a2,2,0,0,1,0-3.94h2a2.82,2.82,0,1,0,0-5.63h-2a2,2,0,0,1,0-4h2a2.82,2.82,0,1,0,0-5.63h-2a2,2,0,0,1,0-3.94h2a2.82,2.82,0,1,0,0-5.63h-.55a3.37,3.37,0,0,1-3.37-3.38v-2.25a3.37,3.37,0,0,1,3.37-3.38h.55a2.82,2.82,0,1,0,0-5.64h-2a2,2,0,0,1,0-3.94h2a2.82,2.82,0,1,0,0-5.63h-2a2,2,0,0,1,0-3.94h2a2.82,2.82,0,1,0,0-5.63h-2a2,2,0,0,1,0-3.95h2a2.82,2.82,0,1,0,0-5.63h-.55a3.37,3.37,0,0,1-3.37-3.37v-3.67a2.54,2.54,0,0,0-2.54-2.53,2.54,2.54,0,0,1-2.53-2.54v-3.66a6.2,6.2,0,0,0-6.2-6.19H535a6.75,6.75,0,0,1-6.75-6.76v-18a5.07,5.07,0,0,0-5.07-5.07,5.07,5.07,0,0,1-5.06-5.07V745.05A16.63,16.63,0,0,0,505,728.8l-17.86-3.9a9.45,9.45,0,0,1-7.31-9.2V663.23a2,2,0,1,0-3.94,0v53.06a5.07,5.07,0,0,1-6.19,5,5.07,5.07,0,0,0-6.19,4.94v39a4.22,4.22,0,0,1-4.22,4.22,4.22,4.22,0,0,0-4.22,4.22v18.87a6.76,6.76,0,0,1-6.75,6.76h-1.4a5.34,5.34,0,0,0-5.35,5.35v2.82a2.53,2.53,0,0,1-2.53,2.53,2.53,2.53,0,0,0-2.53,2.53v2.26a4.78,4.78,0,0,1-4.79,4.78H382.25a16.64,16.64,0,0,0-16.62,16.64v29.24A16.63,16.63,0,0,1,349,882H308a16.64,16.64,0,0,0-6,1.13l-50.53,19.7a4.48,4.48,0,0,0-2.81,4.16v19.5a4.49,4.49,0,0,0,4.5,4.5h1.12a3.38,3.38,0,1,1,0,6.76H252a3.38,3.38,0,0,0,0,6.76h2.25a3.38,3.38,0,1,1,0,6.76H252a3.38,3.38,0,0,0,0,6.76h2.25a3.38,3.38,0,1,1,0,6.75H252a3.38,3.38,0,0,0,0,6.76h2.25a3.38,3.38,0,0,1,0,6.76H252a3.38,3.38,0,0,0,0,6.76h3.1a2.54,2.54,0,0,1,0,5.07H203.93a16.62,16.62,0,0,1-15.59-10.86L175,943.16a7.21,7.21,0,0,0-13.53,0c-2.82,7.68-14.67,5.47-14.65-2.7q0-8.38,0-16.77V900.05c0-22.53,0-45.06-.56-67.58,0-9.58-.57-19.72-.57-29.29-.56-20.84-1.12-41.68-2.25-63.08-.56-10.13-.56-20.27-1.12-30.41-1.12-19.71-1.69-38.86-2.81-58.57,0-2.25-.57-4.51-.57-6.76-1.12-17.46-2.25-34.35-3.37-51.81-2.25-31.54-5.06-63.08-7.88-94.62-.2-2.87-.48-5.82-.78-8.79a17.14,17.14,0,0,0-16.95-15.42H4.52c-8.07,0-15.25,6-15.25,14.08q-.84,10.14-1.69,20.27c-.56,5.63-1.12,11.83-1.69,17.46-1.12,10.7-1.68,21.4-2.81,32.1-.56,5.07-.56,9.58-1.12,14.65-.57,9-1.13,18-2.25,27a78.31,78.31,0,0,0-.57,11.26c-.56,11.83-1.68,23.66-2.25,34.92,0,3.94-.56,7.88-.56,11.83-.56,12.39-1.13,24.21-1.69,36.6,0,2.82-.56,5.07-.56,7.89-.56,11.26-1.13,23.09-1.69,34.35v6.76c-.56,13-1.12,25.91-1.12,38.86v7.88c-.57,13.52-.57,27-1.13,40v1.69c0,13.52-.56,27-.56,40v63.36a12.1,12.1,0,0,1-12.1,12.1A12.1,12.1,0,0,0-54.61,958.9v135.17A14.35,14.35,0,0,1-69,1108.43H-81.9a1.41,1.41,0,0,1-1.4-1.41,1.41,1.41,0,0,1,1.4-1.41h1.13a2.53,2.53,0,0,0,2.53-2.53V1102a2.53,2.53,0,0,0-2.53-2.53,2.54,2.54,0,0,1-2.53-2.54v-2.25a2.54,2.54,0,0,1,2.53-2.54,2.53,2.53,0,0,0,2.53-2.53v-1.13a2.53,2.53,0,0,0-2.53-2.53,2.53,2.53,0,0,1-2.53-2.53v-2.82a2.54,2.54,0,0,1,2.53-2.54,2.53,2.53,0,0,0,2.53-2.53v-1.13a2.53,2.53,0,0,0-2.53-2.53,2.53,2.53,0,0,1-2.53-2.53v-2.82a2.53,2.53,0,0,1,2.53-2.53,2.54,2.54,0,0,0,2.53-2.54v-1.13a2.53,2.53,0,0,0-2.53-2.53,2.53,2.53,0,0,1-2.53-2.53v-2.82a2.53,2.53,0,0,1,2.53-2.53,2.54,2.54,0,0,0,2.53-2.54v-1.13a2.53,2.53,0,0,0-2.53-2.53,2.53,2.53,0,0,1-2.53-2.53v-2.82a2.53,2.53,0,0,1,2.53-2.53,2.54,2.54,0,0,0,2.53-2.54v-1.13a2.53,2.53,0,0,0-2.53-2.53,2.53,2.53,0,0,1-2.53-2.53v-2.82a2.53,2.53,0,0,1,2.53-2.53,2.54,2.54,0,0,0,2.53-2.54V1018a2.53,2.53,0,0,0-2.53-2.53A2.53,2.53,0,0,1-83.3,1013v-2.82a2.53,2.53,0,0,1,2.53-2.53,2.54,2.54,0,0,0,2.53-2.54V1004a2.54,2.54,0,0,0-2.53-2.54,2.53,2.53,0,0,1-2.53-2.53v-2.82a2.53,2.53,0,0,1,2.53-2.53A2.54,2.54,0,0,0-78.24,991v-1.12a2.54,2.54,0,0,0-2.53-2.54,2.53,2.53,0,0,1-2.53-2.53V982a2.53,2.53,0,0,1,2.53-2.53,2.54,2.54,0,0,0,2.53-2.54V975.8a2.54,2.54,0,0,0-2.53-2.54,2.53,2.53,0,0,1-2.53-2.53v-2.82a2.53,2.53,0,0,1,2.53-2.53,2.53,2.53,0,0,0,2.53-2.53v-3.38a2.53,2.53,0,0,0-2.53-2.54,2.53,2.53,0,0,1-2.53-2.53v-2.82a2.53,2.53,0,0,1,2.53-2.53,2.54,2.54,0,0,0,2.53-2.54v-1.12a2.53,2.53,0,0,0-2.53-2.54,2.53,2.53,0,0,1-2.53-2.53v-3.38a2.54,2.54,0,0,1,2.53-2.54,2.53,2.53,0,0,0,2.53-2.53v-1.13a2.53,2.53,0,0,0-2.53-2.53,2.53,2.53,0,0,1-2.53-2.53v-2.82a2.54,2.54,0,0,1,2.53-2.54,2.53,2.53,0,0,0,2.53-2.53v-1.13a2.53,2.53,0,0,0-2.53-2.53,2.53,2.53,0,0,1-2.53-2.53v-2.82a2.54,2.54,0,0,1,2.53-2.54,2.53,2.53,0,0,0,2.53-2.53v-1.13a2.53,2.53,0,0,0-2.53-2.53,2.53,2.53,0,0,1-2.53-2.54V894.7a2.53,2.53,0,0,1,2.53-2.53,2.54,2.54,0,0,0,2.53-2.54V888.5A2.53,2.53,0,0,0-80.77,886a2.53,2.53,0,0,1-2.53-2.53v-2.82a2.54,2.54,0,0,1,2.53-2.54,2.53,2.53,0,0,0,2.53-2.53v-1.13a2.53,2.53,0,0,0-2.53-2.53,2.53,2.53,0,0,1-2.53-2.53v-2.82A2.54,2.54,0,0,1-80.77,864a2.53,2.53,0,0,0,2.53-2.53v-1.13a2.53,2.53,0,0,0-2.53-2.53,2.53,2.53,0,0,1-2.53-2.53v-2.82a2.54,2.54,0,0,1,2.53-2.54,2.53,2.53,0,0,0,2.53-2.53v-1.13a2.53,2.53,0,0,0-2.53-2.53,2.53,2.53,0,0,1-2.53-2.53v-2.82a2.53,2.53,0,0,1,2.53-2.53,2.54,2.54,0,0,0,2.53-2.54v-3.38a2.53,2.53,0,0,0-2.53-2.53,2.53,2.53,0,0,1-2.53-2.53v-2.82a2.54,2.54,0,0,1,2.53-2.54A2.53,2.53,0,0,0-78.24,817v-1.13a2.53,2.53,0,0,0-2.53-2.53,2.54,2.54,0,0,1-2.53-2.54V808a2.54,2.54,0,0,1,2.53-2.54,2.53,2.53,0,0,0,2.53-2.53v-1.13a2.53,2.53,0,0,0-2.53-2.53,2.54,2.54,0,0,1-2.53-2.54v-2.81a2.54,2.54,0,0,1,2.53-2.54,2.53,2.53,0,0,0,2.53-2.53v-1.13a2.53,2.53,0,0,0-2.53-2.53,2.53,2.53,0,0,1-2.53-2.53v-9a2.53,2.53,0,0,1,2.53-2.53,2.53,2.53,0,0,0,2.53-2.53v-1.69a4.22,4.22,0,0,0-4.22-4.23h-8.16a3.93,3.93,0,0,1-3.93-3.94v-.93a3,3,0,0,1,3-3,3,3,0,0,0,2.42-4.81l-20.18-27.22a12.74,12.74,0,0,0-10.22-5.14h-.35a12.39,12.39,0,0,1-12.38-12.39c0-1.25-1.12-2.7-1.12-4V668.86a2,2,0,0,0-2-2,2,2,0,0,0-2,2v32.47c0,1.2-1.12,2.66-1.12,3.86a12.39,12.39,0,0,1-12.39,12.39h-.34a12.74,12.74,0,0,0-10.22,5.14l-21.3,28.72a2.08,2.08,0,0,0,1.67,3.31,2.07,2.07,0,0,1,2.07,2.07v1.87a3.93,3.93,0,0,1-3.94,3.94H-191a4.22,4.22,0,0,0-4.22,4.23V768a3.1,3.1,0,0,0,3.1,3.1,3.09,3.09,0,0,1,3.09,3.1v7.88a3.09,3.09,0,0,1-3.09,3.1,3.1,3.1,0,0,0-3.1,3.1,3.09,3.09,0,0,0,3.1,3.09,3.09,3.09,0,0,1,3.09,3.1v1.69a3.09,3.09,0,0,1-3.09,3.1,3.1,3.1,0,0,0-3.1,3.1,3.09,3.09,0,0,0,3.1,3.09,3.09,3.09,0,0,1,3.09,3.1v1.69a3.09,3.09,0,0,1-3.09,3.1,3.1,3.1,0,0,0-3.1,3.1,3.09,3.09,0,0,0,3.1,3.09,3.09,3.09,0,0,1,3.09,3.1v1.69a3.09,3.09,0,0,1-3.09,3.1,3.1,3.1,0,0,0-3.1,3.1,3.09,3.09,0,0,0,3.1,3.09,3.09,3.09,0,0,1,3.09,3.1v1.69a3.09,3.09,0,0,1-3.09,3.1,3.09,3.09,0,0,0-3.1,3.09,3.1,3.1,0,0,0,3.1,3.1,3.09,3.09,0,0,1,3.09,3.1v1.69a3.09,3.09,0,0,1-3.09,3.1,3.09,3.09,0,0,0-3.1,3.09,3.1,3.1,0,0,0,3.1,3.1,3.09,3.09,0,0,1,3.09,3.1v1.69a3.09,3.09,0,0,1-3.09,3.1,3.09,3.09,0,0,0-3.1,3.09,3.1,3.1,0,0,0,3.1,3.1,3.09,3.09,0,0,1,3.09,3.1v1.69a3.09,3.09,0,0,1-3.09,3.1,3.09,3.09,0,0,0-3.1,3.09,3.1,3.1,0,0,0,3.1,3.1,3.09,3.09,0,0,1,3.09,3.1v1.69a3.09,3.09,0,0,1-3.09,3.09,3.1,3.1,0,0,0-3.1,3.1,3.1,3.1,0,0,0,3.1,3.1,3.09,3.09,0,0,1,3.09,3.1v1.69a3.09,3.09,0,0,1-3.09,3.09,3.1,3.1,0,0,0-3.1,3.1,3.1,3.1,0,0,0,3.1,3.1,3.09,3.09,0,0,1,3.09,3.1v1.69a3.09,3.09,0,0,1-3.09,3.09,3.1,3.1,0,0,0-3.1,3.1,3.1,3.1,0,0,0,3.1,3.1,3.09,3.09,0,0,1,3.09,3.1v1.69a3.09,3.09,0,0,1-3.09,3.09,3.1,3.1,0,0,0-3.1,3.1,3.1,3.1,0,0,0,3.1,3.1,3.09,3.09,0,0,1,3.09,3.09V951a3.09,3.09,0,0,1-3.09,3.09,3.1,3.1,0,0,0-3.1,3.1,3.1,3.1,0,0,0,3.1,3.1,3.09,3.09,0,0,1,3.09,3.09v1.7a3.09,3.09,0,0,1-3.09,3.09,3.1,3.1,0,0,0-3.1,3.1,3.1,3.1,0,0,0,3.1,3.1h2.25a.85.85,0,0,1,.84.84.85.85,0,0,1-.84.85h-29.53a7.32,7.32,0,0,1-7.32-7.32V575.65l-.29-12.12a16.63,16.63,0,0,0-11.15-15.32L-255,542.38a8.41,8.41,0,0,0-11.18,8v2.58a5.85,5.85,0,0,1-5.85,5.85,5.84,5.84,0,0,1-5.84-6l.73-36.53a16.62,16.62,0,0,0-12.58-16.47l-35.55-8.9a16.63,16.63,0,0,0-20.61,14.87l-5.25,68.77-.56,7.88-.57,6.2-.56,7.88-.56,6.2-.56,7.88-.57,6.2-.56,7.88-.56,6.2-.56,7.88-.56,6.2-.57,7.88-.56,6.2-.56,7.88-.57,6.2-.56,7.88-.56,6.19-.56,7.89-.57,6.19-.56,7.89-.56,6.19-.56,7.89-.57,6.19,0,.44a16.65,16.65,0,0,1-6.44,12l-2.9,2.23a16.5,16.5,0,0,0-6.38,11.8l-.56,6.2-.56,7.88-.57,6.2-.56,7.88-.56,6.2-.56,7.88-.57,6.2-.56,7.32a2.81,2.81,0,0,1-2.81,2.81h-46.39a16.63,16.63,0,0,0-16.62,16.64v64.18a8.72,8.72,0,0,1-8.72,8.73,8.72,8.72,0,0,0-8.72,8.73V1085.9a11.83,11.83,0,0,1-11.82,11.83,11.82,11.82,0,0,1-11.81-11.83V393.75a4.5,4.5,0,0,0-4.5-4.51,4.5,4.5,0,0,1-4.5-4.5V323.09a16.63,16.63,0,0,0-16.62-16.64h-95.59a16.63,16.63,0,0,0-16.62,16.64V385.3a4.5,4.5,0,0,1-4.5,4.51,4.49,4.49,0,0,0-4.5,4.5v299.9a8.16,8.16,0,0,1-8.16,8.16h-6.47a1.69,1.69,0,0,0-1.69,1.69v.57a1.12,1.12,0,0,1-1.12,1.12,1.14,1.14,0,0,0-1.13,1.13v6.19a1.13,1.13,0,0,0,1.13,1.13,1.12,1.12,0,0,1,1.12,1.13v.56a1.13,1.13,0,0,1-1.12,1.13,1.13,1.13,0,0,0-1.13,1.12v6.2a1.13,1.13,0,0,0,1.13,1.12,1.13,1.13,0,0,1,1.12,1.13v.56a1.13,1.13,0,0,1-1.12,1.13A1.13,1.13,0,0,0-656,729.4v6.2a1.14,1.14,0,0,0,1.13,1.13,1.12,1.12,0,0,1,1.12,1.12v.57a1.12,1.12,0,0,1-1.12,1.12,1.14,1.14,0,0,0-1.13,1.13v6.19a1.13,1.13,0,0,0,1.13,1.13,1.12,1.12,0,0,1,1.12,1.13v.56a1.13,1.13,0,0,1-1.12,1.13,1.13,1.13,0,0,0-1.13,1.12v6.2a1.13,1.13,0,0,0,1.13,1.12,1.13,1.13,0,0,1,1.12,1.13v.56a1.12,1.12,0,0,1-1.12,1.13A1.13,1.13,0,0,0-656,763.2v6.19a1.14,1.14,0,0,0,1.13,1.13,1.12,1.12,0,0,1,1.12,1.12v.57a1.12,1.12,0,0,1-1.12,1.12,1.14,1.14,0,0,0-1.13,1.13v6.2a1.13,1.13,0,0,0,1.13,1.12,1.13,1.13,0,0,1,1.12,1.13v.56a1.13,1.13,0,0,1-1.12,1.13,1.13,1.13,0,0,0-1.13,1.12v6.2a1.13,1.13,0,0,0,1.13,1.12,1.13,1.13,0,0,1,1.12,1.13v.56a1.12,1.12,0,0,1-1.12,1.13A1.13,1.13,0,0,0-656,797v6.19a1.14,1.14,0,0,0,1.13,1.13,1.12,1.12,0,0,1,1.12,1.12V806a1.12,1.12,0,0,1-1.12,1.12,1.14,1.14,0,0,0-1.13,1.13v6.2a1.13,1.13,0,0,0,1.13,1.12,1.13,1.13,0,0,1,1.12,1.13v.56a1.13,1.13,0,0,1-1.12,1.13,1.13,1.13,0,0,0-1.13,1.12v6.2a1.14,1.14,0,0,0,1.13,1.13,1.12,1.12,0,0,1,1.12,1.12v.57a1.12,1.12,0,0,1-1.12,1.12,1.14,1.14,0,0,0-1.13,1.13V837a1.14,1.14,0,0,0,1.13,1.13,1.12,1.12,0,0,1,1.12,1.13v.56a1.13,1.13,0,0,1-1.12,1.13A1.13,1.13,0,0,0-656,842v6.2a1.13,1.13,0,0,0,1.13,1.12,1.13,1.13,0,0,1,1.12,1.13v.56a1.13,1.13,0,0,1-1.12,1.13A1.13,1.13,0,0,0-656,853.3v6.2a1.14,1.14,0,0,0,1.13,1.13,1.12,1.12,0,0,1,1.12,1.12v.57a1.12,1.12,0,0,1-1.12,1.12,1.14,1.14,0,0,0-1.13,1.13v6.19a1.13,1.13,0,0,0,1.13,1.13,1.12,1.12,0,0,1,1.12,1.13v11.82a1.12,1.12,0,0,1-1.12,1.13A1.13,1.13,0,0,0-656,887.1v6.19a1.14,1.14,0,0,0,1.13,1.13,1.12,1.12,0,0,1,1.12,1.12v.57a1.12,1.12,0,0,1-1.12,1.12,1.14,1.14,0,0,0-1.13,1.13v1.41a2.53,2.53,0,0,1-2.53,2.53h-18.54a16.62,16.62,0,0,1-16.62-16.63v-152A16.63,16.63,0,0,0-710.32,717h-65.77a16.63,16.63,0,0,0-16.62,16.64v88.4a14.36,14.36,0,0,1-14.35,14.36h-11A3.37,3.37,0,0,1-821.4,833a3.38,3.38,0,0,0-3.38-3.38h-2.53a5.91,5.91,0,0,1-5.91-5.91V372.91a4.5,4.5,0,0,0-4.5-4.51,4.5,4.5,0,0,1-4.5-4.5V241.43a16.63,16.63,0,0,0-16.62-16.64H-981.43A16.63,16.63,0,0,0-998,241.43V363.9a4.5,4.5,0,0,1-4.5,4.5,4.5,4.5,0,0,0-4.5,4.51V968.76a10.7,10.7,0,0,1-10.69,10.7,10.69,10.69,0,0,1-10.69-10.7V755.05A16.63,16.63,0,0,0-1045,738.41h-4.45a16.62,16.62,0,0,1-16.62-16.63V637.6a6.19,6.19,0,0,0-6.19-6.19,6.19,6.19,0,0,1-6.19-6.19V599.61A16.62,16.62,0,0,0-1095.12,583H-1237.4A16.63,16.63,0,0,0-1254,599.61v25.61a6.19,6.19,0,0,1-6.18,6.19,6.19,6.19,0,0,0-6.19,6.19v366.33a16.63,16.63,0,0,1-16.62,16.64h-7.27a16.63,16.63,0,0,1-16.62-16.64V785.46a16.62,16.62,0,0,0-16.62-16.63h-115.84A16.62,16.62,0,0,0-1456,785.46V911.32a16.32,16.32,0,0,1-16.31,16.32A16.32,16.32,0,0,0-1488.62,944v128.41a9.57,9.57,0,0,1-9.56,9.58,9.57,9.57,0,0,1-9.57-9.58V629.72a3.93,3.93,0,0,0-3.94-3.94h-2.24a1.69,1.69,0,0,1-1.69-1.69,1.69,1.69,0,0,1,1.69-1.69h2.24a3.94,3.94,0,0,0,3.94-3.94v-3.38a3.93,3.93,0,0,0-3.94-3.94h-2.24a1.69,1.69,0,0,1-1.69-1.69,1.68,1.68,0,0,1,1.69-1.69h2.24a3.94,3.94,0,0,0,3.94-4v-3.38a3.94,3.94,0,0,0-3.94-3.94h-2.24a1.68,1.68,0,0,1-1.69-1.69,1.69,1.69,0,0,1,1.69-1.69h2.24a3.93,3.93,0,0,0,3.94-3.94v-3.38a3.93,3.93,0,0,0-3.94-3.94h-2.81a1.13,1.13,0,0,1-1.12-1.13,1.12,1.12,0,0,1,1.12-1.12h3.1a4.22,4.22,0,0,0,4.22-4.23v-2.81a4.22,4.22,0,0,0-4.22-4.23h-2.53a1.68,1.68,0,0,1-1.69-1.69,1.69,1.69,0,0,1,1.69-1.69h2.53a4.22,4.22,0,0,0,4.22-4.22v-2.82a4.22,4.22,0,0,0-4.22-4.22h-2.53a1.69,1.69,0,0,1-1.69-1.69,1.69,1.69,0,0,1,1.69-1.69h2.53a4.22,4.22,0,0,0,4.22-4.22v-2.82a4.22,4.22,0,0,0-4.22-4.22h-2.53a1.69,1.69,0,0,1-1.69-1.69,1.69,1.69,0,0,1,1.69-1.69h2.53a4.22,4.22,0,0,0,4.22-4.22V501.6a19.14,19.14,0,0,0-6.85-14.14c-16.85-14.85-40.48-46.59-41-90.33v-2.54a4.8,4.8,0,0,0-4.79-4.79h-1.68a3.1,3.1,0,0,0-3.1,3.1,3.09,3.09,0,0,1-3.09,3.1h-3.66a6.76,6.76,0,0,1-6.75-6.76v-88.7a2.54,2.54,0,0,0-2.53-2.54,2.54,2.54,0,0,0-2.53,2.54v94.61a1.41,1.41,0,0,1-1.41,1.41,1.41,1.41,0,0,1-1.41-1.41v-1.69a3.09,3.09,0,0,0-3.09-3.09H-1593a3.09,3.09,0,0,0-3.09,3.09,3.1,3.1,0,0,1-3.1,3.1H-1611a3.09,3.09,0,0,1-3.09-3.1,3.09,3.09,0,0,0-3.1-3.09h-2a5.07,5.07,0,0,0-5.06,5.06v1.13c0,44.38-12.23,76.51-26.47,91.64-3.81,4.05-6.72,9.13-6.72,14.69v22.36a.27.27,0,0,0,.28.28.28.28,0,0,1,.28.28v5.92a5.06,5.06,0,0,0,5.06,5.06h3.38a1.69,1.69,0,0,1,1.69,1.69,1.69,1.69,0,0,1-1.69,1.69h-3.38a5.07,5.07,0,0,0-5.06,5.07v1.13a5.07,5.07,0,0,0,5.06,5.07h3.38a1.69,1.69,0,0,1,1.69,1.69,1.69,1.69,0,0,1-1.69,1.69H-1652a5.34,5.34,0,0,0-5.34,5.34v.57a5.34,5.34,0,0,0,5.34,5.35h4.22a1.14,1.14,0,0,1,1.13,1.13,1.13,1.13,0,0,1-1.13,1.12H-1652a5.35,5.35,0,0,0-5.34,5.35v.57a5.35,5.35,0,0,0,5.34,5.35h3.66a1.69,1.69,0,0,1,1.69,1.69,1.69,1.69,0,0,1-1.69,1.69H-1652a5.34,5.34,0,0,0-5.34,5.35v.56a5.35,5.35,0,0,0,5.34,5.35h3.66a1.69,1.69,0,0,1,1.69,1.69,1.69,1.69,0,0,1-1.69,1.69H-1652a5.34,5.34,0,0,0-5.34,5.35v.56a5.34,5.34,0,0,0,5.34,5.35h3.66a1.69,1.69,0,0,1,1.69,1.69,1.69,1.69,0,0,1-1.69,1.69H-1652a5.35,5.35,0,0,0-5.34,5.35v.57a5.34,5.34,0,0,0,5.34,5.34h3.66a1.7,1.7,0,0,1,1.69,1.7,1.69,1.69,0,0,1-1.69,1.68h-3.94a5.64,5.64,0,0,0-5.63,5.63V854.44a15.76,15.76,0,0,1-15.75,15.76A15.76,15.76,0,0,0-1689.46,886v95.47a8.72,8.72,0,0,1-8.72,8.73,8.73,8.73,0,0,0-8.72,8.72v87.9c0,3.58-4,5.45-7.61,5.32a5.87,5.87,0,0,1-.59,0l-.61-.09a13.23,13.23,0,0,1-11.44-13.11V875.42a16.62,16.62,0,0,0-9.93-15.22l-3.62-1.6a2.69,2.69,0,0,0-1.08-.23h-.84a4.22,4.22,0,0,1-4.22-4.22V851.9a2,2,0,0,0-2-2,2,2,0,0,0-2,2,2,2,0,0,1-2,2h-.24a1.73,1.73,0,0,0-1.73,1.73,1.73,1.73,0,0,1-1.64,1.73l-6.42.32a3,3,0,0,1-3.19-3,3,3,0,0,0-1.68-2.72l-1.52-.76a5.72,5.72,0,0,0-2.76-.61l-32.91,1a3.42,3.42,0,0,0-3.32,3.42,3.43,3.43,0,0,1-3.43,3.43h-.51a3.94,3.94,0,0,0-3.94,3.94v37.44a16.63,16.63,0,0,1-16.62,16.63h-29.2a16.63,16.63,0,0,1-16.62-16.63V636.48a7.32,7.32,0,0,0-7.32-7.32,7.31,7.31,0,0,1-7.31-7.32v-48.7a16.62,16.62,0,0,0-16.62-16.63h-25a9.58,9.58,0,0,1-9.57-9.58,9.56,9.56,0,0,0-9.56-9.57h-6.46a15.49,15.49,0,0,1-15.48-15.49,15.49,15.49,0,0,0-15.48-15.49h-95.6A16.64,16.64,0,0,0-2103.52,523v16.85a16.63,16.63,0,0,1-16.62,16.64H-2151a16.62,16.62,0,0,0-16.62,16.63v485.42a16.63,16.63,0,0,1-16.62,16.64h-1.64a16.63,16.63,0,0,0-16.62,16.63v16a16.31,16.31,0,0,1-16.31,16.32,16.32,16.32,0,0,1-16.32-16.32v-123a16.63,16.63,0,0,0-16.62-16.64h-17.39a16.62,16.62,0,0,1-16.62-16.63v-34a1,1,0,0,0-.56-.91,1,1,0,0,1-.56-.91v-5.9a10.56,10.56,0,0,0-2.21-6.46l-7.82-10.11a16.67,16.67,0,0,1-3.48-10.18v-10a5.77,5.77,0,0,0-1.68-4.08,5.73,5.73,0,0,1-1.69-4.08V840.63a.85.85,0,0,0-.85-.84.85.85,0,0,0-.84.84v24.76a4.81,4.81,0,0,1-1.41,3.4,4.81,4.81,0,0,0-1.4,3.4v12.48a16.64,16.64,0,0,1-3,9.54l-7,10a9.94,9.94,0,0,0-1.8,5.7v3.28a3.8,3.8,0,0,1-1.68,3.16,3.78,3.78,0,0,0-1.69,3.16V921a5.78,5.78,0,0,1-2.82,5l-.69.42a4.38,4.38,0,0,0-2.12,3.75,4.35,4.35,0,0,1-2.27,3.83l-.82.45a5.94,5.94,0,0,0-3.1,5.22v51.61a10.79,10.79,0,0,1-11.81,10.75,10.13,10.13,0,0,1-10.13-10.13V889.09a16.63,16.63,0,0,0-16.62-16.64h-35.95a16.64,16.64,0,0,0-16.63,16.64v46.14a16.63,16.63,0,0,1-16.62,16.63h-10.63a16.64,16.64,0,0,0-16.63,16.63v33.78a5.35,5.35,0,0,1-5.34,5.35A5.34,5.34,0,0,0-2481,1013V1076a4.22,4.22,0,0,1-4.22,4.23,4.22,4.22,0,0,1-4.22-4.23v-26.75a5.63,5.63,0,0,0-5.63-5.63,5.62,5.62,0,0,1-5.62-5.63V752.23a16.64,16.64,0,0,0-16.63-16.63h-79.58c-70.32,0-127.14,49.56-127.14,120v39.68a16.62,16.62,0,0,1-16.62,16.63h-6.44c-20.26,0-36.57,34.92-36.57,54.07v66.15a16.63,16.63,0,0,1-16.63,16.64h-26.38a16.62,16.62,0,0,1-16.62-16.64V969.62A16.63,16.63,0,0,0-2859.92,953h-6.7a16.62,16.62,0,0,0-16.62,16.63v144.72a8.73,8.73,0,0,1-8.73,8.73,8.72,8.72,0,0,1-8.72-8.73v-81.1a4.78,4.78,0,0,0-4.77-4.79,4.78,4.78,0,0,1-4.79-4.78v-54A16.63,16.63,0,0,0-2926.87,953h-2.2a16.64,16.64,0,0,1-16.62-16.64V877.26a16.63,16.63,0,0,0-16.62-16.63h-43.83a16.63,16.63,0,0,0-16.63,16.63v335.62a16.64,16.64,0,0,0,16.63,16.63H1099.49a16.63,16.63,0,0,0,16.62-16.63V585a16.63,16.63,0,0,0-16.62-16.63Zm-663,319a2,2,0,0,1-2,2h-3.66a.57.57,0,0,1-.56-.57v-1.4a2,2,0,0,1,2-2h2.25A2,2,0,0,1,436.52,887.38Zm0-9.58a2,2,0,0,1-2,2H432.3a2,2,0,0,1,0-3.94h2.25A2,2,0,0,1,436.52,877.8Zm0-10.14a2,2,0,0,1-2,2H432.3a2,2,0,0,1,0-3.94h2.25A2,2,0,0,1,436.52,867.66Zm0-10.13a2,2,0,0,1-2,2H432.3a2,2,0,1,1,0-3.94h2.25A2,2,0,0,1,436.52,857.53Zm0-10.14a2,2,0,0,1-2,2H432.3a2,2,0,0,1,0-3.94h2.25A2,2,0,0,1,436.52,847.39Zm0-10.14a2,2,0,0,1-2,2H432.3a2,2,0,1,1,0-3.94h2.25A2,2,0,0,1,436.52,837.25Zm0-9.57a2,2,0,0,1-2,2H432.3a2,2,0,0,1,0-3.94h2.25A2,2,0,0,1,436.52,827.68Z"/><path class="cls-5" d="M1001.41-4.77H-1134.51V1326H835.19c91.8,0,166.22-74.48,166.22-166.35V-4.77Z"/><path class="cls-6" d="M1107.06,975.46c167.27-167.46,167.27-439,0-606.43S668.6,201.56,501.34,369s-167.26,439,0,606.43,438.46,167.46,605.72,0Z"/><path class="cls-7" d="M591.46,1260.57c122.33-122.47,122.33-321,0-443.52s-320.66-122.47-443,0-122.33,321,0,443.52S469.13,1383,591.46,1260.57Z"/><path class="cls-8" d="M731.48,924.69c-70.62,0-127.74,121.3-127.74,270.8H859.35c0-149.65-57.27-270.8-127.87-270.8Z"/><path class="cls-8" d="M731.48,924.69c-70.62,0-127.74,121.3-127.74,270.8H859.35c0-149.65-57.27-270.8-127.87-270.8Z"/><path class="cls-9" d="M623.78,949.21c40.48-18.45,122.21-48.63,125.37-21.75,4,33.61-230,177.92-150,147.28s149.06-114.66,166.83-85S610,1142,668.2,1136s130.31-142.33,153-120.59-149.06,173-110.55,185.82S854.77,999.62,897.22,994.67"/><path class="cls-10" d="M842.78,1195.49h16.57c0-149.66-57.27-270.81-127.87-270.81a61.84,61.84,0,0,0-8.29.56c66.75,9,119.59,126.49,119.59,270.25Z"/><path class="cls-11" d="M505.12,901.79c-81.89,0-148.32,130.79-148.32,292.12H653.45c-.16-161.33-66.43-292.12-148.33-292.12Z"/><path class="cls-12" d="M369.43,960.73c15.63-18.46,50.75-51.35,66.15-35.24,19.27,20.14-21.77,89.79,5,98.18s64.48-123.36,97.14-110.77S397.06,1129.4,457.36,1137s87.93-174.55,113.89-162-58.62,110.77-29.31,139.3,44.38-105.74,67.83-90.63,6.7,90.63-15.91,141.82"/><path class="cls-13" d="M620.3,1193.91h33.15c-.16-161.33-66.43-292.12-148.32-292.12a77.37,77.37,0,0,0-16.57,1.8c74.08,16.23,131.61,140,131.74,290.32Z"/><g id="palm"><rect class="cls-14" x="713.73" y="1014.88" width="2.75" height="177.58"/><path class="cls-15" d="M735.11,1003.64c-5.89,0-11.37,4.25-15.2,8.09,2.59-3.7,6.16-8.23,8.9-9.05a19.83,19.83,0,0,1,8.63-.82s-4.39-6.18-11-3.3c-2.88,1.24-5.35,5.35-7.12,9.33,1-3.7,1.77-8.09,1.09-12.07-1.65-10.15-12.87-11-12.87-11s6.3,8.78,7.39,19.06c.14,1.37.28,2.74.41,4-1-5.9-3.28-13-9-16.87-14.24-9.46-23.15,7.13-23.15,7.13s8.09-5.07,18.77.28c8.49,4.25,12,13.3,13.15,17-1.37-2.74-7.26-13.16-16.57-14.67-14.11-2.33-17.68,15.49-17.68,15.49s8.09-6.44,18.08-6a26.32,26.32,0,0,1,16,6,39.21,39.21,0,0,0-8.49-1.23c-12.46-.14-15.07,16.59-15.07,16.59l23.7-14.53a88.31,88.31,0,0,0-4.25,8.77c-1.64,3.84-.54,12.48-.54,12.48s3.83-6.58,4.93-10.83a33,33,0,0,0,.68-10.42l16,17.41s4-10.56-8.22-15.63q-2.47-1-4.11-1.65a26.56,26.56,0,0,1,10.13,4A47.78,47.78,0,0,1,741.27,1032s4.38-12.75-6.3-18a16.79,16.79,0,0,0-11-.69,15.53,15.53,0,0,1,10-2c9.72,1.23,12.46,8.09,12.46,8.09s2.74-15.77-11.36-15.77Z"/></g><g id="palm1"><rect class="cls-14" x="607.59" y="905.74" width="4.38" height="290.02"/><path class="cls-16" d="M640.29,880.74c-10.69,0-20.78,7.67-27.81,14.73,4.73-6.75,11.32-14.88,16.35-16.57a34.94,34.94,0,0,1,15.75-1.38s-8.11-11.35-20-6c-5.34,2.3-9.78,9.82-13,17,1.83-6.75,3.06-14.73,2-22.1-2.9-18.41-23.54-20-23.54-20s11.47,16,13.61,34.84c.3,2.45.45,4.91.61,7.21-1.84-10.9-6.12-23.94-16.51-30.84-25.83-17.19-42,13.19-42,13.19s14.83-9.21,34.24.62c15.28,7.67,21.85,24.39,24,31-2.6-5.06-13.14-23.94-30.26-26.85-25.67-4.3-32.25,28.39-32.25,28.39s14.67-11.82,32.86-11.05c14.06.61,24.3,6.44,29.35,11.05a57.78,57.78,0,0,0-15.44-2.15c-22.77-.31-27.51,30.23-27.51,30.23l43.25-26.55c-1.83,3.53-5.65,10.9-7.79,16.11-2.91,7.06-1.07,22.71-1.07,22.71s7-12,9-19.79c2-7.52,1.53-15.35,1.23-19l29.34,31.76s7.19-19.33-14.82-28.69c-2.91-1.23-5.5-2.3-7.49-3.07a45.9,45.9,0,0,1,18.34,7.21,85.58,85.58,0,0,1,20.94,19.64S659.55,909,640,899.77c-6.41-3.07-13.75-2.61-20-1.23a28.76,28.76,0,0,1,18.35-3.83c17.73,2.14,22.62,14.88,22.62,14.88s5.05-29-20.64-28.85Z"/></g><g id="bush-1"><path class="cls-17" d="M517.84,1161.64a131.74,131.74,0,0,0-13.29-35.51c-.82-1.51-1.78-3.16-2.74-4.67a136.65,136.65,0,0,0-25.61-31.12,46.5,46.5,0,0,0-4-3.43,132.26,132.26,0,0,0-36-21.39c-1.65-.69-3.29-1.24-4.93-1.79a133.78,133.78,0,0,0-42-7.54H384a133,133,0,0,0-42,7.54c-1.65.55-3.29,1.24-4.94,1.79a132.56,132.56,0,0,0-36,21.39c-1.37,1.1-2.74,2.33-4,3.43a133.33,133.33,0,0,0-25.61,31.12c-1,1.51-1.78,3.16-2.74,4.67a131.74,131.74,0,0,0-13.29,35.51c-.41,1.79-.68,3.57-1.09,5.35a133.3,133.3,0,0,0-2.06,23.45H520.85A132.13,132.13,0,0,0,518.8,1167C518.52,1165.21,518.25,1163.43,517.84,1161.64Z"/><path class="cls-18" d="M384,1056.05v134.39h5.21V1056.05Z"/><path class="cls-19" d="M337,1065.52l33.42,125.06h5.35l-34-126.85c-1.51.55-3.15,1.1-4.8,1.79Z"/><path class="cls-20" d="M297.05,1090.34l57.8,100.1h5.89L301,1086.91c-1.37,1.1-2.74,2.33-4,3.43Z"/><path class="cls-21" d="M268.7,1126.13l64.37,64.45h7.26l-69-69.11c-.82,1.51-1.78,3.15-2.6,4.66Z"/><path class="cls-22" d="M254.32,1167,295,1190.44h10.41l-50-28.94c-.41,1.92-.68,3.71-1.09,5.49Z"/><path class="cls-23" d="M397.31,1190.58h5.34l33.42-125.06c-1.64-.69-3.29-1.23-4.93-1.78l-33.83,126.84Z"/><path class="cls-24" d="M412.37,1190.58h6l57.8-100.1a46.5,46.5,0,0,0-4-3.43l-59.86,103.53Z"/><g class="cls-25"><path class="cls-26" d="M432.78,1190.58H440l64.37-64.45c-.82-1.51-1.78-3.15-2.73-4.66l-68.9,69.11Z"/></g><path class="cls-27" d="M467.85,1190.58h10.4l40.68-23.45c-.27-1.78-.68-3.56-1.09-5.35Z"/></g><g id="bush-2"><path class="cls-28" d="M618.37,1172.2a86.49,86.49,0,0,0-8.49-22.63c-.55-1-1.1-1.92-1.64-3a83.56,83.56,0,0,0-16.3-19.75c-.82-.68-1.65-1.51-2.61-2.19A85.1,85.1,0,0,0,566.46,1111a20.82,20.82,0,0,0-3.15-1.09,82,82,0,0,0-26.71-4.8h-3.28a85.53,85.53,0,0,0-26.71,4.8c-1.1.41-2.06.68-3.15,1.09a85.1,85.1,0,0,0-22.87,13.58c-.83.68-1.65,1.51-2.61,2.19a83.81,83.81,0,0,0-16.3,19.75c-.54,1-1.09,1.92-1.64,3a85,85,0,0,0-8.49,22.63c-.28,1.1-.41,2.33-.69,3.43a89.36,89.36,0,0,0-1.37,14.95H620.15a76.72,76.72,0,0,0-1.37-14.95,9.25,9.25,0,0,0-.41-3.43Z"/><path class="cls-29" d="M533.31,1105.15v85.43h3.29v-85.43Z"/><path class="cls-30" d="M503.59,1111.05l21.23,79.39h3.43l-21.51-80.63c-1.09.55-2.19.83-3.15,1.24Z"/><path class="cls-31" d="M478.12,1127l36.7,63.63h3.84l-37.94-65.82a19.56,19.56,0,0,0-2.6,2.19Z"/><path class="cls-32" d="M460,1149.58,501,1190.44h4.66l-43.83-43.88c-.55,1.1-1.23,2.06-1.78,3Z"/><path class="cls-33" d="M451,1175.63l25.88,14.95h6.58l-31.78-18.38A26.69,26.69,0,0,0,451,1175.63Z"/><path class="cls-34" d="M541.8,1190.58h3.43l21.23-79.4a21.21,21.21,0,0,0-3.15-1.09l-21.51,80.49Z"/><path class="cls-35" d="M551.4,1190.58h3.83L591.94,1127c-.82-.68-1.65-1.51-2.61-2.19l-37.93,65.82Z"/><path class="cls-36" d="M564.4,1190.58h4.66l41-40.86c-.54-1-1.09-1.92-1.64-3Z"/><path class="cls-37" d="M586.59,1190.58h6.58l25.88-14.95a29.54,29.54,0,0,0-.68-3.42Z"/></g><rect class="cls-14" x="59.75" y="945.21" width="3.81" height="252.05"/><path class="cls-38" d="M35.13,923.48c9.3,0,18.07,6.67,24.18,12.8-4.12-5.86-9.83-12.93-14.21-14.4a30.32,30.32,0,0,0-13.68-1.2s7-9.87,17.39-5.2c4.65,2,8.5,8.53,11.29,14.8-1.59-5.87-2.65-12.8-1.72-19.2,2.52-16,20.45-17.34,20.45-17.34S68.87,907.61,67,924c-.26,2.14-.4,4.27-.53,6.27,1.59-9.47,5.31-20.8,14.34-26.8C103.27,888.54,117.35,915,117.35,915s-12.88-8-29.75.53c-13.28,6.67-19,21.2-20.85,26.94C69,938,78.17,921.61,93,919.08c22.32-3.73,28,24.67,28,24.67s-12.75-10.27-28.56-9.6c-12.22.53-21.12,5.6-25.5,9.6a50.18,50.18,0,0,1,13.42-1.87c19.79-.26,23.9,26.27,23.9,26.27L66.75,945.08c1.59,3.07,4.91,9.47,6.77,14,2.52,6.13.93,19.73.93,19.73s-6.11-10.4-7.84-17.2a50.74,50.74,0,0,1-1.06-16.54l-25.5,27.61s-6.24-16.8,12.88-24.94c2.53-1.07,4.78-2,6.51-2.67a39.89,39.89,0,0,0-15.94,6.27,74.11,74.11,0,0,0-18.19,17.07S18.4,948,35.4,940c5.58-2.67,12-2.27,17.4-1.07a25,25,0,0,0-15.94-3.33c-15.41,1.86-19.66,12.93-19.66,12.93s-4.38-25.2,17.93-25.07Z"/><g id="bush-3"><path class="cls-39" d="M168.25,1180.92a78.88,78.88,0,0,0-7.95-21.26c-.49-.9-1.07-1.89-1.64-2.79a81.88,81.88,0,0,0-15.33-18.63,29.17,29.17,0,0,0-2.38-2,78.9,78.9,0,0,0-21.56-12.8c-1-.42-2-.74-3-1.07a80.07,80.07,0,0,0-25.17-4.52H88.16A79.71,79.71,0,0,0,63,1122.32c-1,.33-2,.74-3,1.07a79,79,0,0,0-21.56,12.8c-.82.66-1.64,1.39-2.38,2a80.09,80.09,0,0,0-15.33,18.63c-.57.9-1.06,1.89-1.64,2.79a79.21,79.21,0,0,0-7.95,21.26c-.24,1.07-.41,2.13-.65,3.2a79.85,79.85,0,0,0-1.23,14H170.06a80.13,80.13,0,0,0-1.23-14C168.66,1183.05,168.5,1182,168.25,1180.92Z"/><path class="cls-40" d="M88.16,1117.72v80.43h3.11v-80.43ZM60,1123.38l20,74.85h3.2l-20.33-75.92-.72.26h0c-.7.25-1.42.51-2.15.81Zm10.66,74.77-34.6-59.91.23-.2h0c.67-.6,1.41-1.26,2.15-1.85l35.74,62Zm-51.56-38.49,38.52,38.57H62l-41.32-41.36c-.24.45-.51.92-.78,1.39S19.38,1159.21,19.14,1159.66Zm15.73,38.49-24.34-14c.13-.59.24-1.18.36-1.78h0c.09-.49.18-1,.29-1.51l29.92,17.32Zm61.24.08h3.2l20-74.85c-1-.41-2-.74-3-1.07l-20.25,75.92Zm12.63,0h-3.61l35.82-62a27.34,27.34,0,0,1,2.38,2Zm8.6,0h4.35l38.53-38.57c-.49-.9-1.07-1.89-1.64-2.79Zm27.22,0h-6.23L168.25,1181c.25,1.07.49,2.13.66,3.2Z"/></g><g id="bush-4"><path class="cls-41" d="M64.51,1153.81c-7.53,0-10.36-6.6-10.36-15.8s-2.59-16.74-12.71-17.21c-13.19-.47-12,12.26-12,27.82,0,19.81-7.07,7.07-17,18.16-8.48,9.43,2.35,26.17,5.65,31.12H60.75c1.41-2.6,4.94-9,8.94-16.74C78.64,1164.65,72.05,1153.81,64.51,1153.81Z"/><path class="cls-42" d="M44.26,1156.87H42.14v29.57l-8.9-11.88-1.7,1.27L42.14,1190v7.92h2.12v-22.34l9-11.15-1.65-1.34-7.33,9.11v-15.31Z"/></g><rect class="cls-43" x="-1144.48" y="1188.62" width="2154.21" height="158.99"/><path class="cls-44" d="M-229,1251.88c-14.3,15.07-28.89,25.35-44.49,24.64a18.85,18.85,0,0,1-9.3-2.45,10,10,0,0,1-4.45-6.27,18.83,18.83,0,0,1,.31-8.58,53.86,53.86,0,0,1,3.72-10.24c6.23-13.41,18.29-30.43,30-46.9h0l3.05-4.3c6.31-8.93,12.36-17.61,17.21-25.42s8.42-14.68,9.85-19.95a13.09,13.09,0,0,0,.47-6.25,4.6,4.6,0,0,0-2.62-3.24c-1.56-.77-3.93-1.18-7.41-1a67,67,0,0,0-13.35,2.49c-10.82,2.95-22.86,9.76-35.89,19.48s-26.9,22.23-41.39,36.52c-20.42,20.15-42,43.7-63.87,67.65h0c-9.19,10.05-18.45,20.17-27.71,30.14-31.31,33.69-62.7,65.63-91.88,87s-56.49,32.39-79.59,23.28c-11.42-4.5-17.18-11-17.86-19.13-.66-7.93,3.53-16.86,10.39-26.18,13.78-18.73,39.38-40.42,64.23-61.26l2.67-2.24.11-.09,0,0c11.49-9.62,22.74-19,32.57-27.94,10.65-9.63,19.55-18.55,25.25-26.32a39.65,39.65,0,0,0,5.88-10.53c1-3.12,1.08-5.71.21-7.86s-2.75-4.13-6.13-5.8-8.18-3-14.65-3.83c-20.57-2.63-47,3.57-76.34,15.64s-61.46,29.85-93.42,50.14c-63.9,40.59-127,91.06-165.52,125.15l-2.21-2.49c38.65-34.18,101.86-84.76,166-125.47,32-20.35,64.35-38.26,93.94-50.41s56.58-18.61,78-15.86c6.66.86,11.86,2.24,15.71,4.15s6.47,4.42,7.73,7.53,1.06,6.56-.13,10.16a43.06,43.06,0,0,1-6.36,11.45c-5.91,8.06-15,17.16-25.7,26.82-9.88,8.93-21.18,18.4-32.65,28h0l0,0-2.81,2.35c-25,20.93-50.19,42.35-63.68,60.68-6.77,9.2-10.31,17.28-9.76,23.93.54,6.4,5,12.06,15.76,16.32,21.33,8.4,47.42-1.67,76.42-22.87s60.1-52.84,91.4-86.53c9.22-9.93,18.46-20,27.63-30.06,21.94-24,43.57-47.64,64.06-67.85,14.54-14.34,28.55-27,41.73-36.82s25.61-16.91,37-20a70.59,70.59,0,0,1,14-2.6c3.75-.21,6.78.19,9.06,1.31a7.94,7.94,0,0,1,4.4,5.45,16.35,16.35,0,0,1-.5,7.9c-1.56,5.77-5.35,13-10.23,20.83s-11,16.67-17.33,25.59l-2.78,3.93-.17.25,0,.05c-11.74,16.58-23.62,33.35-29.72,46.46a50.35,50.35,0,0,0-3.49,9.59A15.64,15.64,0,0,0-284,1267a6.59,6.59,0,0,0,3,4.23c1.66,1.06,4.13,1.78,7.67,1.94,14,.64,27.71-8.62,41.93-23.61,11.54-12.17,23.17-27.8,35.38-44.22h0l0,0c2.78-3.73,5.59-7.51,8.43-11.29,15.32-20.38,31.66-41,49.78-56.48s38.19-26,61-26v3.33c-21.67,0-41,10-58.8,25.24s-34,35.57-49.27,56q-4.23,5.64-8.4,11.25h0c-12.22,16.43-24,32.27-35.69,44.59Zm640.49-88.67c-3.31-5.2-9.33-8.28-19.74-8-20.7.64-40.48,17.38-59.86,42.84s-37.85,58.84-56.21,92.05l-.25.46c-18.24,33-36.31,65.68-54.71,89.48-9.24,12-18.64,21.77-28.25,28.25s-19.6,9.71-29.88,8.3-16.88-5.66-20.75-12.24-4.7-14.94-3.78-24.44c1.84-19,11-43.12,20.18-66.64q1.09-2.77,2.18-5.55l0-.11h0c8.53-21.66,16.7-42.41,19.26-58.16,1.39-8.59,1-15.31-1.47-19.83-2.41-4.34-7.07-7-15.44-7s-16.25,3.64-24.21,10.26-15.77,16.18-23.56,27.74c-13,19.38-25.87,44.18-39.2,70-2.59,5-5.2,10.05-7.83,15.09-16.15,31-33.22,62.12-52.36,85.51s-40.58,39.35-65.57,39.35c-12.35,0-20.43-3.22-24.78-9.42s-4.56-14.64-2.6-24.32,6.28-21.06,11.66-33.12c4.55-10.22,9.91-21,15.32-32h0c1-2,2-4,3-6,12.83-26,25.12-52,27.61-72.14,1.23-10,0-18.3-4.55-24.37S-36.83,1259-50,1257.65c-42.51-4.25-85.64,14.36-122.42,39.6s-66.92,56.89-83.44,78.33l-2.63-2c16.69-21.68,47.11-53.6,84.19-79s81-44.54,124.63-40.17c13.73,1.37,22.83,5.83,28.12,12.9s6.46,16.33,5.18,26.77c-2.57,20.8-15.18,47.35-27.93,73.21-1,2-2,4-3,6h0c-5.41,11-10.73,21.7-15.26,31.85-5.35,12-9.54,23-11.43,32.43s-1.43,16.78,2.06,21.75,10.17,8,22.06,8c23.47,0,44.08-15,63-38.13s35.82-53.94,52-84.94q3.93-7.51,7.8-15h0c13.33-25.78,26.25-50.79,39.42-70.35,7.87-11.68,15.88-21.51,24.2-28.43s17.06-11,26.33-11,15.15,3,18.35,8.75c3.08,5.54,3.27,13.22,1.84,22-2.62,16.13-10.93,37.22-19.41,58.74h0c-.75,1.92-1.51,3.85-2.27,5.77-9.28,23.64-18.18,47.33-20,65.74-.89,9.2,0,16.83,3.33,22.43s9,9.33,18.34,10.63,18.39-1.57,27.57-7.76,18.34-15.7,27.48-27.53c18.24-23.6,36.22-56.11,54.53-89.23l.15-.28c18.33-33.15,37-66.87,56.47-92.46s40-43.45,62.41-44.15c11.13-.35,18.49,3,22.65,9.49,4.05,6.35,4.77,15.35,3.71,25.73s-4,22.63-7.57,35.62c-1.8,6.5-3.77,13.23-5.78,20l-.09.31c-2,6.73-4,13.56-5.88,20.39-3.87,13.87-7.3,27.71-9.18,40.66s-2.23,24.94,0,35.12,7,18.47,15.4,24.3,20.62,9.3,37.92,9.3v3.33c-17.7,0-30.65-3.53-39.81-9.9s-14.37-15.53-16.76-26.31-2-23.17-.07-36.32,5.39-27.16,9.26-41.08c1.91-6.83,3.91-13.66,5.88-20.37v0l.1-.33c2-6.83,4-13.52,5.76-20,3.59-13,6.44-24.92,7.47-35.07s.21-18.24-3.21-23.6Zm520.36,157c-3.11-10.37-9.63-21.7-18.3-33.49s-19.57-24.13-31.5-36.49c-19.88-20.61-42.77-41.39-63.27-60-4.08-3.72-8.09-7.35-12-10.88-11.62-10.61-22-20.26-30-28.49s-13.5-14.92-15.51-19.53c-1-2.33-.95-3.67-.51-4.4s1.54-1.54,4.4-1.82c5.67-.56,16.08,1.15,32.6,5.87l.91-3.2c-16.47-4.71-27.46-6.62-33.84-6-3.16.32-5.72,1.31-7,3.47s-.76,4.79.37,7.39c2.28,5.24,8.16,12.28,16.16,20.52s18.5,18,30.1,28.63c3.87,3.54,7.88,7.18,12,10.91,20.5,18.62,43.29,39.32,63.08,59.84,11.89,12.31,22.68,24.52,31.22,36.16s14.84,22.63,17.79,32.47a70.89,70.89,0,0,1,2.71,12.16c.31,3.18.06,5.3-.52,6.62a3.16,3.16,0,0,1-2.53,2,12.24,12.24,0,0,1-5.78-.87c-5.07-1.74-12-5.69-20.33-11.28s-18.08-12.66-28.87-20.58l-4-3c-20.66-15.2-44.78-32.94-70-48.39-26.81-16.45-54.94-30.38-81.48-35.83-13.14-2.7-22.36-3.83-28.28-3.52-2.92.16-5.28.68-6.9,1.76a4.95,4.95,0,0,0-2.27,5,14.18,14.18,0,0,0,2.72,6,60.15,60.15,0,0,0,6.09,7.09c5,5.16,12,11.31,20.16,18.22,4.84,4.09,10.1,8.45,15.64,13.05h0c13.21,11,28,23.24,42.5,36.34,20.55,18.58,40.29,38.68,53.64,58.72a67.24,67.24,0,0,1,6.75,12.12c1.23,3.19,1.31,5.13.9,6.22-.34.9-1.15,1.62-3.14,1.88A26.62,26.62,0,0,1,817,1384c-7.57-1.75-18-5.69-30.69-11.1s-27.34-12.24-43.41-19.74l-4-1.87c-31.21-14.56-67.13-31.32-102.32-44.78-36.69-14-72.76-24.57-102-25.25-11.67-.27-20.4.89-26.54,3.33s-9.88,6.31-11.08,11.36.15,10.62,3.05,16.68,7.53,12.76,13.33,19.73c23.18,27.85,66,61.5,98.35,84l1.89-2.73c-32.29-22.44-74.81-55.89-97.68-83.37-5.71-6.86-10.15-13.29-12.89-19s-3.72-10.63-2.81-14.48,3.59-6.85,9.07-9,13.75-3.36,25.24-3.09c28.64.66,64.26,11,100.88,25,35.09,13.43,70.91,30.14,102.16,44.71l4,1.86c16.08,7.49,30.84,14.35,43.54,19.77s23.35,9.46,31.23,11.29a29.47,29.47,0,0,0,9.92,1c2.68-.35,4.92-1.52,5.85-4,.85-2.28.38-5.22-.93-8.58a69.15,69.15,0,0,0-7.08-12.77c-13.58-20.38-33.56-40.7-54.15-59.34-14.55-13.15-29.44-25.51-42.69-36.49h0c-5.53-4.59-10.75-8.93-15.56-13-8.16-6.9-15-13-19.93-18a55.72,55.72,0,0,1-5.73-6.67,11,11,0,0,1-2.16-4.48,2.24,2.24,0,0,1,.11-1.08,2,2,0,0,1,.72-.77c.86-.58,2.49-1.06,5.23-1.21,5.46-.29,14.32.76,27.43,3.46,26,5.33,53.71,19,80.42,35.41,25.05,15.37,49.05,33,69.74,48.24l4,3c10.77,7.92,20.56,15.06,29,20.67s15.58,9.77,21.12,11.65a15.26,15.26,0,0,0,7.43,1,6.47,6.47,0,0,0,5-4c.91-2.1,1.11-4.89.75-8.29a71.21,71.21,0,0,0-2.81-12.78Z"/><path class="cls-45" d="M-499.29,1244.26c-221.46,0-258.64,73.62-649.23,73.62v116H1009.72V1185.93c-473.87,0-412.89,103.47-821.07,103.47s-496.16-45.14-687.94-45.14Z"/></g></svg>