<svg id="Layer_1" data-name="Layer 1" xmlns="http://www.w3.org/2000/svg" xmlns:xlink="http://www.w3.org/1999/xlink" viewBox="0 0 750 1374"><defs><style>.cls-1,.cls-12,.cls-9{fill:none;}.cls-2{clip-path:url(#clip-path);}.cls-3{fill:url(#linear-gradient);}.cls-4{fill:url(#linear-gradient-2);}.cls-5{fill:url(#linear-gradient-3);}.cls-6{fill:url(#linear-gradient-4);}.cls-7{fill:url(#linear-gradient-5);}.cls-8{fill:url(#linear-gradient-6);}.cls-12,.cls-9{stroke-miterlimit:1.15;stroke-width:1.44px;}.cls-9{stroke:url(#linear-gradient-8);}.cls-10,.cls-13{fill:#c9d983;}.cls-10{fill-opacity:0.3;}.cls-11{fill:url(#linear-gradient-9);}.cls-12{stroke:url(#linear-gradient-10);}.cls-13,.cls-42{fill-opacity:0.2;}.cls-14{fill:#0c5e59;}.cls-15{fill:url(#linear-gradient-11);}.cls-16{fill:url(#linear-gradient-12);}.cls-17{fill:url(#linear-gradient-13);}.cls-18{fill:url(#linear-gradient-14);}.cls-19{fill:url(#linear-gradient-15);}.cls-20{fill:url(#linear-gradient-16);}.cls-21{fill:url(#linear-gradient-17);}.cls-22{fill:url(#linear-gradient-18);}.cls-23{fill:url(#linear-gradient-19);}.cls-24{fill:url(#linear-gradient-20);}.cls-25{opacity:0.3;}.cls-26{fill:url(#linear-gradient-21);}.cls-27{fill:#084f15;}.cls-28{fill:url(#linear-gradient-22);}.cls-29{fill:url(#linear-gradient-23);}.cls-30{fill:url(#linear-gradient-24);}.cls-31{fill:url(#linear-gradient-25);}.cls-32{fill:url(#linear-gradient-26);}.cls-33{fill:url(#linear-gradient-27);}.cls-34{fill:url(#linear-gradient-28);}.cls-35{fill:url(#linear-gradient-29);}.cls-36{fill:url(#linear-gradient-30);}.cls-37{fill:url(#linear-gradient-31);}.cls-38{fill:url(#linear-gradient-32);}.cls-39{fill:url(#linear-gradient-33);}.cls-40,.cls-42,.cls-44{fill-rule:evenodd;}.cls-40{fill:url(#linear-gradient-34);}.cls-41{fill:url(#linear-gradient-35);}.cls-42,.cls-47{fill:#fff;}.cls-43{fill:url(#linear-gradient-36);}.cls-44{fill:url(#linear-gradient-37);}.cls-45{fill:url(#linear-gradient-38);}.cls-46{fill:#f4f6d5;}</style><clipPath id="clip-path"><rect class="cls-1" x="0.1" y="-0.1" width="750" height="1335"/></clipPath><linearGradient id="linear-gradient" x1="-143.93" y1="1477.56" x2="-142.26" y2="1477.56" gradientTransform="matrix(-982.3, -810.03, -810.03, 982.3, 1056248.6, -1566646.54)" gradientUnits="userSpaceOnUse"><stop offset="0" stop-color="#ffedba"/><stop offset="1" stop-color="#ee4d47"/></linearGradient><linearGradient id="linear-gradient-2" x1="-144.78" y1="1476.72" x2="-143.11" y2="1476.72" gradientTransform="matrix(0, 1100.16, 1100.16, 0, -1625584.87, 158929.55)" gradientUnits="userSpaceOnUse"><stop offset="0" stop-color="#f4a984"/><stop offset="1" stop-color="#f4a984" stop-opacity="0"/></linearGradient><linearGradient id="linear-gradient-3" x1="-143.41" y1="1478.8" x2="-141.74" y2="1478.8" gradientTransform="matrix(0, -689.59, -689.59, 0, 1019698.72, -98122.26)" gradientUnits="userSpaceOnUse"><stop offset="0" stop-color="#ffedba" stop-opacity="0"/><stop offset="0.1" stop-color="#fee0b0" stop-opacity="0.07"/><stop offset="0.3" stop-color="#fabf96" stop-opacity="0.24"/><stop offset="0.57" stop-color="#f5896d" stop-opacity="0.52"/><stop offset="0.91" stop-color="#ed3f34" stop-opacity="0.89"/><stop offset="1" stop-color="#eb2a24"/></linearGradient><linearGradient id="linear-gradient-4" x1="-146.02" y1="1478.75" x2="-144.35" y2="1478.75" gradientTransform="matrix(0.16, 312.76, 312.76, -0.16, -461664.86, 46127.49)" gradientUnits="userSpaceOnUse"><stop offset="0" stop-color="#fff" stop-opacity="0.56"/><stop offset="1" stop-color="#fff" stop-opacity="0"/></linearGradient><linearGradient id="linear-gradient-5" x1="-145.9" y1="1478.02" x2="-144.23" y2="1478.02" gradientTransform="matrix(0.1, 228.74, 228.74, -0.1, -337698.65, 34232.43)" gradientUnits="userSpaceOnUse"><stop offset="0" stop-color="#fff" stop-opacity="0.2"/><stop offset="1" stop-color="#fff" stop-opacity="0"/></linearGradient><linearGradient id="linear-gradient-6" x1="-145.85" y1="1478.1" x2="-144.18" y2="1478.1" gradientTransform="matrix(0, 201.49, 201.49, 0, -297091.08, 30253.92)" gradientUnits="userSpaceOnUse"><stop offset="0" stop-color="#2ca77f"/><stop offset="0.24" stop-color="#2ca77f"/><stop offset="1" stop-color="#1b8877"/></linearGradient><linearGradient id="linear-gradient-8" x1="-145.77" y1="1477.95" x2="-144.51" y2="1477.95" gradientTransform="matrix(0, 183.04, 183.04, 0, -269821.85, 27606.36)" xlink:href="#linear-gradient-5"/><linearGradient id="linear-gradient-9" x1="-145.7" y1="1477.68" x2="-144.03" y2="1477.68" gradientTransform="matrix(0, 210.56, 210.56, 0, -310634.66, 31581.4)" gradientUnits="userSpaceOnUse"><stop offset="0" stop-color="#2ca77f"/><stop offset="0.42" stop-color="#2ca77f"/><stop offset="1" stop-color="#1b8877"/></linearGradient><linearGradient id="linear-gradient-10" x1="-146.12" y1="1477.58" x2="-144.86" y2="1477.58" gradientTransform="matrix(0, 149.35, 149.35, 0, -220169.05, 22808.48)" xlink:href="#linear-gradient-5"/><linearGradient id="linear-gradient-11" x1="-151.82" y1="1478.3" x2="-150.15" y2="1478.3" gradientTransform="matrix(0, 42.51, 42.51, 0, -62128.83, 7420.79)" gradientUnits="userSpaceOnUse"><stop offset="0" stop-color="#d3d86c"/><stop offset="1" stop-color="#82a637"/></linearGradient><linearGradient id="linear-gradient-12" x1="-149.06" y1="1477.56" x2="-147.39" y2="1477.56" gradientTransform="matrix(0, 77.82, 77.82, 0, -114382.17, 12413.31)" xlink:href="#linear-gradient-11"/><linearGradient id="linear-gradient-13" x1="-146.94" y1="1476.88" x2="-145.27" y2="1476.88" gradientTransform="matrix(0, 106.71, 106.71, 0, -157210.76, 16692.06)" xlink:href="#linear-gradient-11"/><linearGradient id="linear-gradient-14" x1="-147.68" y1="1476.51" x2="-146.01" y2="1476.51" gradientTransform="matrix(0, 80.51, 80.51, 0, -118486.81, 12945.39)" gradientUnits="userSpaceOnUse"><stop offset="0" stop-color="#084f15" stop-opacity="0"/><stop offset="1" stop-color="#084f15" stop-opacity="0.3"/></linearGradient><linearGradient id="linear-gradient-15" x1="-147.86" y1="1476.28" x2="-146.19" y2="1476.28" gradientTransform="matrix(0, 75.99, 75.99, 0, -111826.21, 12299.56)" xlink:href="#linear-gradient-14"/><linearGradient id="linear-gradient-16" x1="-148.58" y1="1475.8" x2="-146.91" y2="1475.8" gradientTransform="matrix(0, 62.02, 62.02, 0, -91199.89, 10302.96)" xlink:href="#linear-gradient-14"/><linearGradient id="linear-gradient-17" x1="-150.53" y1="1474.47" x2="-148.86" y2="1474.47" gradientTransform="matrix(0, 41.4, 41.4, 0, -60738.29, 7354.42)" xlink:href="#linear-gradient-14"/><linearGradient id="linear-gradient-18" x1="-158.67" y1="1469.04" x2="-157" y2="1469.04" gradientTransform="matrix(0, 17.33, 17.33, 0, -25178.52, 3912.55)" xlink:href="#linear-gradient-14"/><linearGradient id="linear-gradient-19" x1="-147.86" y1="1476.6" x2="-146.2" y2="1476.6" gradientTransform="matrix(0, 75.99, 75.99, 0, -111790.08, 12299.56)" xlink:href="#linear-gradient-14"/><linearGradient id="linear-gradient-20" x1="-148.58" y1="1476.54" x2="-146.91" y2="1476.54" gradientTransform="matrix(0, 62.02, 62.02, 0, -91130.71, 10303.05)" xlink:href="#linear-gradient-14"/><linearGradient id="linear-gradient-21" x1="-150.53" y1="1476.05" x2="-148.86" y2="1476.05" gradientTransform="matrix(0, 41.4, 41.4, 0, -60639.92, 7354.42)" gradientUnits="userSpaceOnUse"><stop offset="0" stop-color="#084f15" stop-opacity="0"/><stop offset="1" stop-color="#084f15"/></linearGradient><linearGradient id="linear-gradient-22" x1="-148.24" y1="1477.22" x2="-146.57" y2="1477.22" gradientTransform="matrix(0, 67.9, 67.9, 0, -99768.61, 11144.26)" xlink:href="#linear-gradient-11"/><linearGradient id="linear-gradient-23" x1="-149.4" y1="1476.86" x2="-147.74" y2="1476.86" gradientTransform="matrix(0, 51.18, 51.18, 0, -75050.52, 8751.87)" xlink:href="#linear-gradient-14"/><linearGradient id="linear-gradient-24" x1="-149.69" y1="1476.74" x2="-148.02" y2="1476.74" gradientTransform="matrix(0, 48.3, 48.3, 0, -70810.53, 8341.23)" xlink:href="#linear-gradient-14"/><linearGradient id="linear-gradient-25" x1="-150.83" y1="1476.23" x2="-149.16" y2="1476.23" gradientTransform="matrix(0, 39.43, 39.43, 0, -57709.1, 7072.39)" xlink:href="#linear-gradient-14"/><linearGradient id="linear-gradient-26" x1="-153.9" y1="1474.95" x2="-152.23" y2="1474.95" gradientTransform="matrix(0, 26.29, 26.29, 0, -38293.38, 5192.27)" xlink:href="#linear-gradient-14"/><linearGradient id="linear-gradient-27" x1="-166.7" y1="1470.14" x2="-165.03" y2="1470.14" gradientTransform="matrix(0, 11.01, 11.01, 0, -15718.9, 3007.32)" xlink:href="#linear-gradient-14"/><linearGradient id="linear-gradient-28" x1="-149.7" y1="1477.01" x2="-148.04" y2="1477.01" gradientTransform="matrix(0, 48.22, 48.22, 0, -70667.22, 8329.34)" xlink:href="#linear-gradient-14"/><linearGradient id="linear-gradient-29" x1="-150.83" y1="1476.97" x2="-149.16" y2="1476.97" gradientTransform="matrix(0, 39.43, 39.43, 0, -57665.17, 7072.39)" xlink:href="#linear-gradient-14"/><linearGradient id="linear-gradient-30" x1="-153.9" y1="1476.54" x2="-152.23" y2="1476.54" gradientTransform="matrix(0, 26.29, 26.29, 0, -38230.81, 5192.36)" xlink:href="#linear-gradient-14"/><linearGradient id="linear-gradient-31" x1="-166.7" y1="1475.07" x2="-165.03" y2="1475.07" gradientTransform="matrix(0, 11.01, 11.01, 0, -15637.61, 3007.32)" xlink:href="#linear-gradient-14"/><linearGradient id="linear-gradient-32" x1="-149.51" y1="1474.35" x2="-147.84" y2="1474.35" gradientTransform="matrix(0, 67.63, 67.63, 0, -99640.94, 10976.85)" xlink:href="#linear-gradient-11"/><linearGradient id="linear-gradient-33" x1="-148.42" y1="1474.27" x2="-146.75" y2="1474.27" gradientTransform="matrix(0, 63.87, 63.87, 0, -94072.15, 10570.79)" xlink:href="#linear-gradient-11"/><linearGradient id="linear-gradient-34" x1="-146.43" y1="1475.57" x2="-144.76" y2="1475.57" gradientTransform="matrix(0, 111.82, 111.82, 0, -164908.14, 17492.21)" xlink:href="#linear-gradient-21"/><linearGradient id="linear-gradient-35" x1="-148.87" y1="1473.44" x2="-147.2" y2="1473.44" gradientTransform="matrix(0, 55.58, 55.58, 0, -81851.93, 9395.44)" xlink:href="#linear-gradient-9"/><linearGradient id="linear-gradient-36" x1="-144.92" y1="1478.05" x2="-143.26" y2="1478.05" gradientTransform="matrix(0, 467.3, 467.3, 0, -690760.46, 68444.52)" gradientUnits="userSpaceOnUse"><stop offset="0" stop-color="#eeef99"/><stop offset="0.28" stop-color="#eeef99"/><stop offset="0.77" stop-color="#b9d079"/><stop offset="1" stop-color="#b9d079"/></linearGradient><linearGradient id="linear-gradient-37" x1="-145.13" y1="1476.81" x2="-143.46" y2="1476.81" gradientTransform="matrix(0, 211.58, 211.58, 0, -312407.42, 31903.97)" gradientUnits="userSpaceOnUse"><stop offset="0" stop-color="#fff" stop-opacity="0.7"/><stop offset="1" stop-color="#fff" stop-opacity="0"/></linearGradient><linearGradient id="linear-gradient-38" x1="-145.34" y1="1476.56" x2="-143.67" y2="1476.56" gradientTransform="matrix(0, 209.49, 209.49, 0, -309394.65, 31540.4)" gradientUnits="userSpaceOnUse"><stop offset="0" stop-color="#82a637" stop-opacity="0.1"/><stop offset="0.16" stop-color="#82a637" stop-opacity="0.1"/><stop offset="0.89" stop-color="#1b8877" stop-opacity="0.1"/><stop offset="1" stop-color="#1b8877" stop-opacity="0.1"/></linearGradient></defs><title>sssssArtboard 1</title><g class="cls-2"><path class="cls-3" d="M1001.51-.36H-1134.41V1330.4H835.29c91.8,0,166.22-74.48,166.22-166.34V-.36Z"/><path class="cls-4" d="M1099.59,568.73H1051a6.76,6.76,0,0,0-6.75,6.76V981.83a9.28,9.28,0,1,1-18.56,0V722.22A16.63,16.63,0,0,0,1009,705.59H991.63A16.62,16.62,0,0,0,975,722.21h0V738.5a16.64,16.64,0,0,1-16.63,16.64H848.71a12.65,12.65,0,0,0-12.61,12.68v7a5.62,5.62,0,0,1-5.61,5.63h0a5.64,5.64,0,0,0-5.64,5.63v90.4a13.78,13.78,0,0,1-13.75,13.79h0a13.8,13.8,0,0,0-13.78,13.79V964.4A16.63,16.63,0,0,1,780.7,981h-1.64a16.64,16.64,0,0,0-16.63,16.64v88.12a6.18,6.18,0,1,1-12.36,0V574.93a5.08,5.08,0,0,0-5.07-5.07,5.08,5.08,0,0,1-5.07-5.07V520a8.71,8.71,0,0,0-8.69-8.73h0a8.73,8.73,0,0,1-8.73-8.73V459.19a5.91,5.91,0,0,0-5.9-5.91,5.91,5.91,0,0,1-5.9-5.91V411.91a16.64,16.64,0,0,0-16.62-16.64H651.82a16.64,16.64,0,0,0-16.62,16.64V447.4a5.91,5.91,0,0,1-5.9,5.91,5.92,5.92,0,0,0-5.92,5.91v43.37a8.71,8.71,0,0,1-8.69,8.73h0A8.71,8.71,0,0,0,606,520v0h0v45a4.22,4.22,0,0,1-4.21,4.23h0a4.2,4.2,0,0,0-4.21,4.19v0h0v348a9.86,9.86,0,0,1-9.86,9.85,9.85,9.85,0,0,0-9.84,9.86h0v138.55a12.1,12.1,0,0,1-12.1,12.1h-11a1.12,1.12,0,0,1-1.11-1.13h0a1.13,1.13,0,0,0-1.13-1.12h-3.66a2,2,0,0,1,0-3.94h2a2.82,2.82,0,1,0,0-5.64H549.1a2.25,2.25,0,0,1,0-4.5h1.68a2.82,2.82,0,0,0,.34-5.63h-2.34a2,2,0,0,1,0-3.94h2a2.82,2.82,0,1,0,0-5.64h-2a2,2,0,0,1,0-3.94h2a2.82,2.82,0,0,0,.34-5.63h-2.34a2,2,0,0,1,0-3.94h2a2.82,2.82,0,0,0,.34-5.63h-2.34a2,2,0,0,1,0-4h2a2.82,2.82,0,0,0,.34-5.63h-2.34a2,2,0,0,1,0-3.94h2a2.82,2.82,0,0,0,.34-5.63h-2.34a2,2,0,0,1,0-4h2a2.82,2.82,0,0,0,.32-5.56h-2.34a2,2,0,0,1,0-3.94h2a2.82,2.82,0,0,0,.34-5.63h-2.34a2,2,0,0,1,0-3.94h2a2.82,2.82,0,0,0,0-5.64h-.55a3.37,3.37,0,0,1-3.37-3.37v-1.13a3.37,3.37,0,0,1,3.36-3.38h.56a2.82,2.82,0,0,0,.34-5.63h-2.34a2,2,0,0,1,0-3.94h2a2.82,2.82,0,0,0,0-5.64h-2a2,2,0,0,1,0-3.94h2a2.82,2.82,0,0,0,.34-5.63h-2.34a2,2,0,0,1,0-3.94h2a2.82,2.82,0,0,0,0-5.64h-2a2,2,0,0,1,0-3.94h2a2.84,2.84,0,0,0,.34-5.67h-2.34a2,2,0,0,1,0-3.94h2a2.82,2.82,0,0,0,.34-5.63h-2.34a2,2,0,0,1,0-4h2a2.82,2.82,0,0,0,.34-5.63h-2.34a2,2,0,0,1,0-3.94h2a2.82,2.82,0,0,0,.34-5.63h-2.34a2,2,0,0,1,0-3.94h2a2.82,2.82,0,1,0,0-5.64h-2a2,2,0,0,1,0-3.94h2a2.82,2.82,0,0,0,.34-5.63h-2.34a2,2,0,0,1,0-3.94h2a2.82,2.82,0,0,0,.34-5.63h-2.34a2,2,0,0,1,0-4h2a2.82,2.82,0,0,0,.34-5.63h-2.34a2,2,0,0,1,0-3.94h2a2.82,2.82,0,0,0,.34-5.63h-.89a3.37,3.37,0,0,1-3.37-3.37h0v-2.25a3.37,3.37,0,0,1,3.36-3.38h.56a2.82,2.82,0,1,0,0-5.64h-2a2,2,0,0,1,0-3.94h2a2.82,2.82,0,0,0,.34-5.63h-2.34a2,2,0,0,1,0-3.94h2a2.82,2.82,0,0,0,.34-5.63h-2.34a2,2,0,0,1,0-3.95h2a2.82,2.82,0,0,0,.34-5.58h-.89a3.37,3.37,0,0,1-3.37-3.37v-3.67a2.54,2.54,0,0,0-2.54-2.53,2.54,2.54,0,0,1-2.53-2.54v-3.66a6.2,6.2,0,0,0-6.2-6.19h-.47a6.75,6.75,0,0,1-6.75-6.75h0v-18a5.07,5.07,0,0,0-5.07-5.07h0a5.07,5.07,0,0,1-5.06-5.07v-19.1A16.63,16.63,0,0,0,505.1,729.2l-17.86-3.9a9.45,9.45,0,0,1-7.31-9.2V663.63a2,2,0,1,0-3.94,0v53.06a5.06,5.06,0,0,1-5,5.12h0a4.68,4.68,0,0,1-1.18-.12,5.06,5.06,0,0,0-6.06,3.81h0a4.7,4.7,0,0,0-.13,1.12v39a4.22,4.22,0,0,1-4.22,4.22,4.22,4.22,0,0,0-4.22,4.22v18.87a6.76,6.76,0,0,1-6.75,6.76H447a5.34,5.34,0,0,0-5.35,5.33h0v2.84a2.53,2.53,0,0,1-2.53,2.53h0a2.53,2.53,0,0,0-2.53,2.53h0v2.26a4.78,4.78,0,0,1-4.78,4.78H382.35a16.64,16.64,0,0,0-16.62,16.64v29.24A16.63,16.63,0,0,1,349.1,882.4h-41a16.64,16.64,0,0,0-6,1.13l-50.53,19.7a4.48,4.48,0,0,0-2.81,4.16v19.5a4.49,4.49,0,0,0,4.48,4.5h1.14a3.38,3.38,0,0,1,0,6.76H252.1a3.38,3.38,0,0,0,0,6.76h2.25a3.38,3.38,0,1,1,0,6.76H252.1a3.38,3.38,0,0,0,0,6.76h2.25a3.38,3.38,0,1,1,.37,6.75H252.1a3.38,3.38,0,1,0,0,6.76h2.25a3.38,3.38,0,1,1,0,6.76H252.1a3.38,3.38,0,1,0,0,6.76h3.1a2.54,2.54,0,0,1,0,5.07H204a16.61,16.61,0,0,1-15.59-10.86L175.1,943.56a7.21,7.21,0,0,0-13.53,0c-2.82,7.68-14.67,5.47-14.65-2.7V900.45c0-22.53,0-45.06-.56-67.58,0-9.58-.57-19.72-.57-29.29-.56-20.84-1.12-41.68-2.25-63.08-.56-10.13-.56-20.27-1.12-30.41-1.12-19.71-1.69-38.86-2.81-58.57,0-2.25-.57-4.51-.57-6.76-1.12-17.46-2.25-34.35-3.37-51.81-2.25-31.54-5.06-63.08-7.88-94.62-.2-2.87-.48-5.82-.78-8.79a17.14,17.14,0,0,0-17-15.42H4.62c-8.07,0-15.25,6-15.25,14.08q-.84,10.14-1.69,20.27c-.56,5.63-1.12,11.83-1.69,17.46-1.12,10.7-1.68,21.4-2.81,32.1-.56,5.07-.56,9.58-1.12,14.65-.57,9-1.13,18-2.25,27a78.45,78.45,0,0,0-.57,11.26c-.56,11.83-1.68,23.66-2.25,34.92,0,3.94-.56,7.88-.56,11.83-.56,12.39-1.13,24.21-1.69,36.6,0,2.82-.56,5.07-.56,7.89-.56,11.26-1.13,23.09-1.69,34.35v6.76c-.56,13-1.12,25.91-1.12,38.86V790c-.57,13.52-.57,27-1.13,40v1.69c0,13.52-.56,27-.56,40v63.36a12.1,12.1,0,0,1-12.1,12.1,12.1,12.1,0,0,0-12.09,12.11h0v135.17a14.34,14.34,0,0,1-14.32,14.36h-13a1.43,1.43,0,0,1-1.4-1.41,1.43,1.43,0,0,1,1.4-1.41h1.13a2.53,2.53,0,0,0,2.53-2.53h0v-1.07a2.53,2.53,0,0,0-2.53-2.53h0a2.54,2.54,0,0,1-2.53-2.54v-2.25a2.54,2.54,0,0,1,2.53-2.54,2.53,2.53,0,0,0,2.53-2.53h0v-1.13a2.53,2.53,0,0,0-2.53-2.53h0a2.53,2.53,0,0,1-2.53-2.53h0V1081a2.54,2.54,0,0,1,2.53-2.54,2.53,2.53,0,0,0,2.53-2.53h0v-1.13a2.53,2.53,0,0,0-2.53-2.53h0a2.53,2.53,0,0,1-2.53-2.53h0v-2.82a2.53,2.53,0,0,1,2.53-2.53h0a2.54,2.54,0,0,0,2.53-2.54v-1.13a2.53,2.53,0,0,0-2.53-2.53h0a2.53,2.53,0,0,1-2.53-2.53h0v-2.82a2.53,2.53,0,0,1,2.53-2.53h0a2.54,2.54,0,0,0,2.53-2.54v-1.13a2.53,2.53,0,0,0-2.53-2.53h0a2.53,2.53,0,0,1-2.53-2.53h0v-2.82a2.53,2.53,0,0,1,2.53-2.53h0a2.54,2.54,0,0,0,2.53-2.54v-1.13a2.53,2.53,0,0,0-2.53-2.53h0a2.53,2.53,0,0,1-2.53-2.53h0v-2.82a2.53,2.53,0,0,1,2.53-2.53h0a2.54,2.54,0,0,0,2.53-2.54v-1.21a2.53,2.53,0,0,0-2.53-2.53h0a2.54,2.54,0,0,1-2.48-2.47v-2.82a2.53,2.53,0,0,1,2.53-2.53h0a2.54,2.54,0,0,0,2.53-2.54v-1.11a2.54,2.54,0,0,0-2.53-2.54,2.53,2.53,0,0,1-2.53-2.53h0v-2.82A2.53,2.53,0,0,1-80.67,994h0a2.54,2.54,0,0,0,2.53-2.55v-1.18a2.54,2.54,0,0,0-2.53-2.54,2.53,2.53,0,0,1-2.53-2.53h0V982.4a2.53,2.53,0,0,1,2.53-2.53h0a2.54,2.54,0,0,0,2.53-2.54V976.2a2.54,2.54,0,0,0-2.53-2.54,2.53,2.53,0,0,1-2.53-2.53h0v-2.82a2.53,2.53,0,0,1,2.53-2.53h0a2.53,2.53,0,0,0,2.53-2.53h0v-3.38a2.53,2.53,0,0,0-2.52-2.54h0a2.53,2.53,0,0,1-2.53-2.53h0V952a2.53,2.53,0,0,1,2.53-2.53h0a2.54,2.54,0,0,0,2.53-2.54v-1.12a2.53,2.53,0,0,0-2.52-2.54h0a2.53,2.53,0,0,1-2.53-2.53h0v-3.38a2.54,2.54,0,0,1,2.53-2.54,2.53,2.53,0,0,0,2.53-2.53h0v-1.13a2.53,2.53,0,0,0-2.53-2.53h0a2.53,2.53,0,0,1-2.53-2.53h0v-2.82a2.54,2.54,0,0,1,2.53-2.54,2.53,2.53,0,0,0,2.53-2.53h0v-1.13a2.53,2.53,0,0,0-2.53-2.53h0A2.53,2.53,0,0,1-83.18,912h0v-2.82a2.54,2.54,0,0,1,2.53-2.54,2.53,2.53,0,0,0,2.53-2.53h0V903a2.53,2.53,0,0,0-2.53-2.53h0a2.53,2.53,0,0,1-2.53-2.53h0V895.1a2.53,2.53,0,0,1,2.53-2.53h0A2.54,2.54,0,0,0-78.12,890V888.9a2.53,2.53,0,0,0-2.53-2.5,2.53,2.53,0,0,1-2.53-2.53h0v-2.82a2.54,2.54,0,0,1,2.53-2.54A2.53,2.53,0,0,0-78.12,876h0v-1.13a2.53,2.53,0,0,0-2.53-2.53h0a2.53,2.53,0,0,1-2.53-2.53h0V867a2.54,2.54,0,0,1,2.49-2.57h0a2.53,2.53,0,0,0,2.53-2.53h0v-1.13a2.53,2.53,0,0,0-2.53-2.53h0a2.53,2.53,0,0,1-2.53-2.53h0v-2.82a2.54,2.54,0,0,1,2.53-2.54,2.53,2.53,0,0,0,2.53-2.53h0v-1.13a2.53,2.53,0,0,0-2.53-2.53h0a2.53,2.53,0,0,1-2.53-2.53h0v-2.82a2.53,2.53,0,0,1,2.53-2.53h0a2.54,2.54,0,0,0,2.53-2.54v-3.38a2.53,2.53,0,0,0-2.53-2.53h0a2.53,2.53,0,0,1-2.53-2.53h0v-2.82a2.54,2.54,0,0,1,2.53-2.54,2.53,2.53,0,0,0,2.55-2.51v-1.13a2.53,2.53,0,0,0-2.53-2.53h0a2.54,2.54,0,0,1-2.53-2.54v-2.8a2.54,2.54,0,0,1,2.53-2.54,2.53,2.53,0,0,0,2.53-2.53h0V802.2a2.53,2.53,0,0,0-2.53-2.53h0a2.54,2.54,0,0,1-2.53-2.54v-2.81a2.54,2.54,0,0,1,2.53-2.54,2.53,2.53,0,0,0,2.53-2.53h0v-1.13a2.53,2.53,0,0,0-2.53-2.53h0a2.53,2.53,0,0,1-2.53-2.53h0v-9a2.53,2.53,0,0,1,2.53-2.53h0A2.53,2.53,0,0,0-78.14,769h0v-1.69a4.22,4.22,0,0,0-4.21-4.23h-8.17a3.93,3.93,0,0,1-3.93-3.93h0v-.93a3,3,0,0,1,3-3,3,3,0,0,0,3-3,3,3,0,0,0-.61-1.84l-20.18-27.22A12.74,12.74,0,0,0-119.46,718h-.35a12.39,12.39,0,0,1-12.38-12.39c0-1.25-1.12-2.7-1.12-4V669.26a2,2,0,0,0-2-2,2,2,0,0,0-2,2v32.47c0,1.2-1.12,2.66-1.12,3.86A12.39,12.39,0,0,1-150.82,718h-.34a12.74,12.74,0,0,0-10.22,5.14l-21.3,28.72a2.08,2.08,0,0,0,.45,2.91h0a2,2,0,0,0,1.22.4,2.07,2.07,0,0,1,2.07,2.07h0v1.87a3.93,3.93,0,0,1-3.92,3.94h-8a4.22,4.22,0,0,0-4.22,4.22h0v1.15a3.1,3.1,0,0,0,3.1,3.1,3.09,3.09,0,0,1,3.09,3.09h0v7.88a3.09,3.09,0,0,1-3.08,3.1h0a3.1,3.1,0,0,0-3.1,3.1,3.09,3.09,0,0,0,3.09,3.09h0a3.09,3.09,0,0,1,3.09,3.09h0v1.69a3.09,3.09,0,0,1-3.08,3.1h0a3.1,3.1,0,0,0-3.1,3.1,3.09,3.09,0,0,0,3.09,3.09h0a3.09,3.09,0,0,1,3.09,3.09h0v1.69a3.09,3.09,0,0,1-3.08,3.1h0a3.1,3.1,0,0,0-3.1,3.1A3.09,3.09,0,0,0-192,819.9h0a3.09,3.09,0,0,1,3.09,3.09h0v1.69a3.09,3.09,0,0,1-3.08,3.1h0a3.1,3.1,0,0,0-3.1,3.1A3.09,3.09,0,0,0-192,834h0A3.09,3.09,0,0,1-188.9,837v.07h0v1.69a3.09,3.09,0,0,1-3.08,3.1h0a3.09,3.09,0,0,0-3.1,3.08h0a3.1,3.1,0,0,0,3.1,3.1,3.09,3.09,0,0,1,3.09,3.09h0v1.69A3.09,3.09,0,0,1-192,856h0a3.09,3.09,0,0,0-3.1,3.08h0a3.1,3.1,0,0,0,3.1,3.1,3.09,3.09,0,0,1,3.09,3.09h0v1.69A3.09,3.09,0,0,1-192,870h0a3.09,3.09,0,0,0-3.1,3.08h0a3.1,3.1,0,0,0,3.1,3.1,3.09,3.09,0,0,1,3.09,3.09h0V881a3.09,3.09,0,0,1-3.08,3.1h0a3.09,3.09,0,0,0-3.1,3.08h0a3.1,3.1,0,0,0,3.1,3.1,3.09,3.09,0,0,1,3,3.13v0h0v1.69a3.09,3.09,0,0,1-3.09,3.09h0a3.1,3.1,0,0,0-3.1,3.1,3.1,3.1,0,0,0,3.1,3.1,3.09,3.09,0,0,1,3.09,3.09v0h0v1.69a3.09,3.09,0,0,1-3.09,3.09h0a3.1,3.1,0,0,0-3.1,3.1,3.1,3.1,0,0,0,3.1,3.1,3.09,3.09,0,0,1,3.09,3.09h0v1.69a3.09,3.09,0,0,1-3.09,3.09h0a3.1,3.1,0,0,0-3.1,3.1,3.1,3.1,0,0,0,3.1,3.1,3.09,3.09,0,0,1,3.09,3.09h0v1.76a3.09,3.09,0,0,1-3.09,3.09h0a3.1,3.1,0,0,0-3.1,3.1,3.1,3.1,0,0,0,3.1,3.1,3.09,3.09,0,0,1,3.09,3.09h0v1.62a3.09,3.09,0,0,1-3.09,3.09h0a3.1,3.1,0,0,0-3.1,3.1,3.1,3.1,0,0,0,3.1,3.1,3.09,3.09,0,0,1,3.09,3.09h0v1.7a3.09,3.09,0,0,1-3.09,3.09h0a3.1,3.1,0,0,0-3.1,3.1,3.1,3.1,0,0,0,3.1,3.1h2.25a.86.86,0,0,1,.84.84.85.85,0,0,1-.84.85H-219.3a7.32,7.32,0,0,1-7.32-7.32h0V576.05l-.29-12.12a16.63,16.63,0,0,0-11.15-15.32l-16.84-5.83a8.39,8.39,0,0,0-10.7,5.15v0a8.28,8.28,0,0,0-.47,2.83v2.62a5.85,5.85,0,0,1-5.85,5.85,5.83,5.83,0,0,1-5.84-5.82v-.18l.73-36.53a16.62,16.62,0,0,0-12.58-16.47l-35.55-8.9a16.63,16.63,0,0,0-20.16,12,16.21,16.21,0,0,0-.45,2.76L-351,574.93l-.56,7.88-.57,6.2-.56,7.88-.56,6.2-.56,7.88-.57,6.2-.56,7.88-.56,6.2-.56,7.88-.56,6.2-.57,7.88-.56,6.2-.56,7.88-.57,6.2-.56,7.88-.56,6.19-.56,7.89-.57,6.19-.56,7.89-.56,6.19-.56,7.89-.57,6.19v.44a16.65,16.65,0,0,1-6.44,12l-2.9,2.23a16.5,16.5,0,0,0-6.38,11.8l-.56,6.2-.56,7.88-.57,6.2-.56,7.88-.56,6.2-.56,7.88-.57,6.2-.56,7.32a2.81,2.81,0,0,1-2.81,2.81h-46.39a16.64,16.64,0,0,0-16.62,16.64h0v64.18a8.71,8.71,0,0,1-8.69,8.73h0a8.71,8.71,0,0,0-8.72,8.7v0h0V1086.3a11.83,11.83,0,0,1-11.82,11.83,11.82,11.82,0,0,1-11.81-11.83V394.15a4.49,4.49,0,0,0-4.47-4.51h0a4.49,4.49,0,0,1-4.5-4.48V323.49a16.64,16.64,0,0,0-16.62-16.64h-95.59a16.64,16.64,0,0,0-16.62,16.64h0V385.7a4.49,4.49,0,0,1-4.47,4.51h0a4.49,4.49,0,0,0-4.5,4.48h0V694.61a8.16,8.16,0,0,1-8.16,8.16h-6.47a1.69,1.69,0,0,0-1.69,1.69h0V705a1.12,1.12,0,0,1-1.12,1.12,1.15,1.15,0,0,0-1.13,1.13v6.19a1.15,1.15,0,0,0,1.13,1.13h0a1.12,1.12,0,0,1,1.12,1.12h0v.56a1.13,1.13,0,0,1-1.12,1.13,1.13,1.13,0,0,0-1.13,1.12v6.2a1.13,1.13,0,0,0,1.13,1.12,1.13,1.13,0,0,1,1.12,1.13v.56a1.13,1.13,0,0,1-1.12,1.13,1.14,1.14,0,0,0-1.14,1.13V736a1.15,1.15,0,0,0,1.13,1.13,1.12,1.12,0,0,1,1.12,1.12v.57a1.12,1.12,0,0,1-1.12,1.12,1.15,1.15,0,0,0-1.13,1.13v6.19a1.15,1.15,0,0,0,1.13,1.13h0a1.12,1.12,0,0,1,1.12,1.12h0v.56a1.13,1.13,0,0,1-1.12,1.13,1.13,1.13,0,0,0-1.13,1.12v6.2a1.13,1.13,0,0,0,1.13,1.12,1.13,1.13,0,0,1,1.12,1.13v.56a1.12,1.12,0,0,1-1.11,1.13h0a1.14,1.14,0,0,0-1.14,1.14v6.19a1.15,1.15,0,0,0,1.13,1.13,1.12,1.12,0,0,1,1.12,1.12v.57a1.12,1.12,0,0,1-1.12,1.12,1.15,1.15,0,0,0-1.13,1.13v6.2a1.13,1.13,0,0,0,1.13,1.12,1.13,1.13,0,0,1,1.12,1.13v.56a1.13,1.13,0,0,1-1.12,1.13,1.13,1.13,0,0,0-1.13,1.12v6.2a1.13,1.13,0,0,0,1.13,1.12,1.13,1.13,0,0,1,1.12,1.13v.56a1.12,1.12,0,0,1-1.11,1.13h0a1.14,1.14,0,0,0-1.14,1.14h0v6.19a1.15,1.15,0,0,0,1.13,1.13,1.12,1.12,0,0,1,1.12,1.12v.56a1.12,1.12,0,0,1-1.12,1.12,1.15,1.15,0,0,0-1.13,1.13v6.2a1.13,1.13,0,0,0,1.13,1.12,1.13,1.13,0,0,1,1.12,1.13v.56a1.13,1.13,0,0,1-1.12,1.13,1.13,1.13,0,0,0-1.13,1.12v6.2a1.15,1.15,0,0,0,1.13,1.13,1.12,1.12,0,0,1,1.12,1.12v.57a1.12,1.12,0,0,1-1.12,1.12,1.15,1.15,0,0,0-1.13,1.13v6.22a1.15,1.15,0,0,0,1.13,1.13,1.12,1.12,0,0,1,1.12,1.12h0v.56a1.13,1.13,0,0,1-1.12,1.13,1.14,1.14,0,0,0-1.13,1v6.2a1.13,1.13,0,0,0,1.13,1.12,1.13,1.13,0,0,1,1.12,1.13v.61a1.13,1.13,0,0,1-1.12,1.13,1.15,1.15,0,0,0-1.13,1.13v6.23a1.15,1.15,0,0,0,1.13,1.13,1.12,1.12,0,0,1,1.12,1.12v.57a1.12,1.12,0,0,1-1.12,1.12A1.15,1.15,0,0,0-655.9,865v6.19a1.15,1.15,0,0,0,1.13,1.13h0a1.12,1.12,0,0,1,1.12,1.12h0v11.82a1.12,1.12,0,0,1-1.11,1.13h0a1.14,1.14,0,0,0-1.14,1.14h0v6.19a1.15,1.15,0,0,0,1.13,1.13,1.12,1.12,0,0,1,1.12,1.12v.57a1.12,1.12,0,0,1-1.12,1.12,1.15,1.15,0,0,0-1.13,1.13v1.41a2.53,2.53,0,0,1-2.53,2.53H-677a16.62,16.62,0,0,1-16.62-16.62h0v-152a16.64,16.64,0,0,0-16.59-16.68H-776A16.64,16.64,0,0,0-792.61,734h0V822.4A14.36,14.36,0,0,1-807,836.76h-11a3.37,3.37,0,0,1-3.34-3.4h0a3.38,3.38,0,0,0-3.38-3.38h-2.53a5.93,5.93,0,0,1-5.91-5.91V373.31a4.49,4.49,0,0,0-4.47-4.51h0a4.49,4.49,0,0,1-4.5-4.48V241.83a16.64,16.64,0,0,0-16.62-16.64h-122.6a16.63,16.63,0,0,0-16.57,16.64V364.3a4.49,4.49,0,0,1-4.48,4.5h0a4.49,4.49,0,0,0-4.5,4.48v0h0V969.16a10.7,10.7,0,0,1-10.69,10.7,10.71,10.71,0,0,1-10.69-10.69h0V755.45a16.64,16.64,0,0,0-16.62-16.64h-4.45A16.62,16.62,0,0,1-1066,722.19h0V638a6.19,6.19,0,0,0-6.19-6.19,6.19,6.19,0,0,1-6.19-6.19V600A16.62,16.62,0,0,0-1095,583.4H-1237.3A16.64,16.64,0,0,0-1253.9,600v25.61a6.21,6.21,0,0,1-6.18,6.19,6.19,6.19,0,0,0-6.19,6.19v366.33a16.64,16.64,0,0,1-16.62,16.64h-7.27a16.64,16.64,0,0,1-16.62-16.64h0V785.86a16.62,16.62,0,0,0-16.61-16.63h-115.85a16.62,16.62,0,0,0-16.66,16.58h0V911.72A16.32,16.32,0,0,1-1472.21,928a16.32,16.32,0,0,0-16.31,16.33v128.47a9.56,9.56,0,0,1-9.54,9.58h0a9.56,9.56,0,0,1-9.57-9.55v0h0V630.12a3.93,3.93,0,0,0-3.92-3.94h-2.26a1.69,1.69,0,0,1-1.69-1.69,1.69,1.69,0,0,1,1.69-1.69h2.24a3.93,3.93,0,0,0,3.94-3.92v-3.4a3.93,3.93,0,0,0-3.92-3.94h-2.26a1.69,1.69,0,0,1-1.69-1.69,1.68,1.68,0,0,1,1.67-1.69h2.26a3.93,3.93,0,0,0,3.94-3.92v-3.46a3.93,3.93,0,0,0-3.92-3.94h-2.26a1.68,1.68,0,0,1-1.69-1.67h0a1.69,1.69,0,0,1,1.69-1.69h2.24a3.93,3.93,0,0,0,3.94-3.92v-3.4a3.93,3.93,0,0,0-3.92-3.94h-2.83a1.13,1.13,0,0,1-1.12-1.13,1.12,1.12,0,0,1,1.12-1.12h3.1a4.22,4.22,0,0,0,4.22-4.22h0v-2.81a4.22,4.22,0,0,0-4.21-4.23h-2.54a1.68,1.68,0,0,1-1.69-1.67h0a1.69,1.69,0,0,1,1.69-1.69h2.53a4.22,4.22,0,0,0,4.22-4.22v-2.82a4.22,4.22,0,0,0-4.22-4.22h-2.53a1.69,1.69,0,0,1-1.69-1.69,1.69,1.69,0,0,1,1.69-1.69h2.53a4.22,4.22,0,0,0,4.22-4.22v-2.82a4.22,4.22,0,0,0-4.22-4.22h-2.53a1.69,1.69,0,0,1-1.69-1.69,1.69,1.69,0,0,1,1.69-1.69h2.53a4.22,4.22,0,0,0,4.22-4.22V502a19.12,19.12,0,0,0-6.85-14.14c-16.85-14.85-40.48-46.59-41-90.33V395a4.81,4.81,0,0,0-4.79-4.79h-1.68a3.1,3.1,0,0,0-3.1,3.1,3.09,3.09,0,0,1-3.08,3.1h-3.67a6.76,6.76,0,0,1-6.75-6.76v-88.7a2.54,2.54,0,0,0-2.53-2.54,2.54,2.54,0,0,0-2.53,2.54v94.61a1.41,1.41,0,0,1-1.41,1.41h0a1.41,1.41,0,0,1-1.41-1.41h0v-1.69a3.09,3.09,0,0,0-3.09-3.09h-3.93a3.09,3.09,0,0,0-3.09,3.09,3.1,3.1,0,0,1-3.1,3.1h-11.81a3.09,3.09,0,0,1-3.09-3.09h0a3.09,3.09,0,0,0-3.09-3.09h-2a5.08,5.08,0,0,0-5.06,5.06V397c0,44.38-12.23,76.51-26.47,91.64-3.81,4.05-6.72,9.13-6.72,14.69v22.36a.27.27,0,0,0,.26.28h0a.3.3,0,0,1,.28.28h0v5.92a5.08,5.08,0,0,0,5.06,5.06h3.38a1.69,1.69,0,0,1,1.69,1.69,1.69,1.69,0,0,1-1.69,1.69h-3.38a5.07,5.07,0,0,0-5.06,5.07v1.13a5.07,5.07,0,0,0,5.06,5.07h3.38a1.69,1.69,0,0,1,1.69,1.69,1.69,1.69,0,0,1-1.69,1.69h-3.55a5.34,5.34,0,0,0-5.34,5.34v.57a5.34,5.34,0,0,0,5.33,5.35h4.23a1.15,1.15,0,0,1,1.13,1.13,1.13,1.13,0,0,1-1.13,1.12h-4.22a5.35,5.35,0,0,0-5.34,5.35v.57a5.35,5.35,0,0,0,5.34,5.35h3.66a1.69,1.69,0,0,1,1.69,1.69,1.69,1.69,0,0,1-1.69,1.69h-3.66a5.34,5.34,0,0,0-5.34,5.34h0v.56a5.35,5.35,0,0,0,5.34,5.35h3.66a1.69,1.69,0,0,1,1.69,1.69,1.69,1.69,0,0,1-1.69,1.69h-3.66a5.34,5.34,0,0,0-5.34,5.34h0v.56a5.34,5.34,0,0,0,5.33,5.35h3.67a1.69,1.69,0,0,1,1.69,1.69,1.69,1.69,0,0,1-1.69,1.69h-3.66a5.35,5.35,0,0,0-5.34,5.35v.57a5.34,5.34,0,0,0,5.34,5.34h3.66a1.71,1.71,0,0,1,1.69,1.7,1.69,1.69,0,0,1-1.69,1.68h-3.94a5.64,5.64,0,0,0-5.63,5.63V854.84a15.76,15.76,0,0,1-15.75,15.76,15.77,15.77,0,0,0-15.8,15.72v95.55a8.71,8.71,0,0,1-8.69,8.73h0a8.74,8.74,0,0,0-8.72,8.72v87.9c0,3.58-4,5.45-7.61,5.32h-.59l-.61-.09a13.24,13.24,0,0,1-11.44-13.11V875.82A16.62,16.62,0,0,0-1737,860.6l-3.62-1.6a2.69,2.69,0,0,0-1.08-.23h-.84a4.22,4.22,0,0,1-4.22-4.22V852.3a2,2,0,0,0-2-2,2,2,0,0,0-2,2,2,2,0,0,1-2,2h-.24a1.72,1.72,0,0,0-1.73,1.71v0a1.73,1.73,0,0,1-1.64,1.73l-6.42.32a3,3,0,0,1-3.18-2.8v-.2a3,3,0,0,0-1.68-2.72l-1.52-.76a5.72,5.72,0,0,0-2.76-.61l-32.91,1a3.42,3.42,0,0,0-3.32,3.42,3.45,3.45,0,0,1-3.43,3.43h-.51a3.93,3.93,0,0,0-3.94,3.92v37.46a16.63,16.63,0,0,1-16.62,16.63h-29.2a16.63,16.63,0,0,1-16.62-16.63V636.88a7.32,7.32,0,0,0-7.32-7.32,7.31,7.31,0,0,1-7.31-7.31h0v-48.7a16.62,16.62,0,0,0-16.61-16.63h-25a9.58,9.58,0,0,1-9.57-9.58,9.56,9.56,0,0,0-9.55-9.57h-6.47a15.49,15.49,0,0,1-15.48-15.49,15.49,15.49,0,0,0-15.48-15.49h-95.66a16.65,16.65,0,0,0-16.52,16.61v16.85A16.64,16.64,0,0,1-2120,556.89h-30.86a16.62,16.62,0,0,0-16.62,16.62h0v485.42a16.64,16.64,0,0,1-16.62,16.64h-1.64a16.63,16.63,0,0,0-16.62,16.63v16a16.31,16.31,0,0,1-16.3,16.32h0A16.32,16.32,0,0,1-2235,1108.2h0v-123a16.64,16.64,0,0,0-16.62-16.64H-2269a16.62,16.62,0,0,1-16.62-16.62h0v-34a1,1,0,0,0-.56-.91,1,1,0,0,1-.56-.91v-5.9a10.56,10.56,0,0,0-2.21-6.46l-7.82-10.11a16.69,16.69,0,0,1-3.48-10.18v-10a5.77,5.77,0,0,0-1.68-4.08,5.73,5.73,0,0,1-1.69-4.08V841a.85.85,0,0,0-.85-.84.85.85,0,0,0-.84.84v24.76a4.81,4.81,0,0,1-1.41,3.4,4.81,4.81,0,0,0-1.4,3.4v12.48a16.7,16.7,0,0,1-3,9.54l-7,10a9.94,9.94,0,0,0-1.8,5.7v3.28a3.81,3.81,0,0,1-1.68,3.16,3.78,3.78,0,0,0-1.69,3.16v1.49a5.78,5.78,0,0,1-2.82,5l-.69.42a4.36,4.36,0,0,0-2.12,3.75,4.35,4.35,0,0,1-2.27,3.83l-.82.45a5.94,5.94,0,0,0-3.1,5.22v51.61a10.8,10.8,0,0,1-10.78,10.8,6.44,6.44,0,0,1-1-.05A10.13,10.13,0,0,1-2357,992.3V889.49a16.64,16.64,0,0,0-16.62-16.64h-36a16.64,16.64,0,0,0-16.63,16.64v46.14a16.64,16.64,0,0,1-16.6,16.63h-10.63a16.65,16.65,0,0,0-16.63,16.63v33.78a5.35,5.35,0,0,1-5.34,5.35,5.34,5.34,0,0,0-5.39,5.29h0v63.09a4.22,4.22,0,0,1-4.21,4.23h0a4.22,4.22,0,0,1-4.22-4.22h0v-26.75a5.63,5.63,0,0,0-5.63-5.63,5.62,5.62,0,0,1-5.62-5.62h0V752.63A16.65,16.65,0,0,0-2517.2,736h-79.58c-70.32,0-127.14,49.56-127.14,120v39.68a16.62,16.62,0,0,1-16.61,16.63H-2747c-20.26,0-36.57,34.92-36.57,54.07v66.15a16.64,16.64,0,0,1-16.62,16.64h-26.39a16.62,16.62,0,0,1-16.62-16.62h0V970a16.64,16.64,0,0,0-16.64-16.62h-6.7A16.62,16.62,0,0,0-2883.14,970h0v144.72a8.73,8.73,0,0,1-8.73,8.73,8.71,8.71,0,0,1-8.72-8.7v0h0v-81.1a4.78,4.78,0,0,0-4.77-4.79h0a4.78,4.78,0,0,1-4.79-4.77h0v-54a16.63,16.63,0,0,0-16.58-16.69H-2929a16.64,16.64,0,0,1-16.62-16.64v-59.1A16.63,16.63,0,0,0-2962.21,861H-3006a16.65,16.65,0,0,0-16.63,16.63v335.62a16.65,16.65,0,0,0,16.63,16.63H1099.59a16.63,16.63,0,0,0,16.62-16.63V585.4a16.63,16.63,0,0,0-16.62-16.63Zm-663,319a2,2,0,0,1-2,2h-3.66a.57.57,0,0,1-.56-.57v-1.4a2,2,0,0,1,2-2h2.25a2,2,0,0,1,2,2h0Zm0-9.58a2,2,0,0,1-2,2H432.4a2,2,0,0,1,0-3.94h2.25a2,2,0,0,1,2,2Zm0-10.14a2,2,0,0,1-2,2H432.4a2,2,0,0,1,0-3.94h2.25a2,2,0,0,1,2,2Zm0-10.13a2,2,0,0,1-2,2H432.4a2,2,0,1,1,0-3.94h2.25a2,2,0,0,1,2,2Zm0-10.14a2,2,0,0,1-2,2H432.4a2,2,0,0,1,0-3.94h2.25a2,2,0,0,1,2,2Zm0-10.14a2,2,0,0,1-2,2H432.4a2,2,0,1,1,0-3.94h2.25a2,2,0,0,1,2,2Zm0-9.57a2,2,0,0,1-2,2H432.4a2,2,0,0,1,0-3.94h2.25a2,2,0,0,1,2,2Z"/><path class="cls-5" d="M1001.51-4.37H-1134.41V1326.4H835.29c91.8,0,166.22-74.48,166.22-166.35V-4.37Z"/><path class="cls-6" d="M1107.16,975.86c167.27-167.46,167.27-439,0-606.43S668.7,202,501.44,369.4s-167.26,439,0,606.43,438.46,167.46,605.72,0Z"/><path class="cls-7" d="M591.56,1261c122.33-122.47,122.33-321,0-443.52s-320.66-122.47-443,0-122.33,321,0,443.52S469.23,1383.4,591.56,1261Z"/><path class="cls-8" d="M731.58,925.09c-70.62,0-127.74,121.3-127.74,270.8H859.45C859.45,1046.24,802.18,925.09,731.58,925.09Z"/><path class="cls-8" d="M731.58,925.09c-70.62,0-127.74,121.3-127.74,270.8H859.45C859.45,1046.24,802.18,925.09,731.58,925.09Z"/><path class="cls-9" d="M623.88,949.61c40.48-18.45,122.21-48.63,125.37-21.75,4,33.61-230,177.92-150,147.28s149.06-114.66,166.83-85-156,152.26-97.78,146.26,130.31-142.33,153-120.59-149.06,173-110.55,185.82S854.87,1000,897.32,995.07"/><path class="cls-10" d="M842.88,1195.89h16.57c0-149.66-57.27-270.81-127.87-270.81a62.18,62.18,0,0,0-8.29.56C790,934.64,842.88,1052.13,842.88,1195.89Z"/><path class="cls-11" d="M505.22,902.19c-81.89,0-148.32,130.79-148.32,292.12H653.55c-.16-161.33-66.43-292.12-148.33-292.12Z"/><path class="cls-12" d="M369.53,961.13c15.63-18.46,50.75-51.35,66.15-35.24,19.27,20.14-21.77,89.79,5,98.18s64.48-123.36,97.14-110.77-140.66,216.5-80.36,224.1,87.93-174.55,113.89-162S512.73,1086.17,542,1114.7s44.38-105.74,67.83-90.63,6.7,90.63-15.91,141.82"/><path class="cls-13" d="M620.4,1194.31h33.15c-.16-161.33-66.43-292.12-148.32-292.12a77.58,77.58,0,0,0-16.57,1.8C562.74,920.22,620.27,1044,620.4,1194.31Z"/><g id="palm"><rect class="cls-14" x="713.83" y="1015.28" width="2.75" height="177.58"/><path class="cls-15" d="M735.21,1004c-5.89,0-11.37,4.25-15.2,8.09,2.59-3.7,6.16-8.23,8.9-9a19.73,19.73,0,0,1,8.63-.82s-4.39-6.18-11-3.3c-2.88,1.24-5.35,5.35-7.12,9.33,1-3.7,1.77-8.09,1.09-12.07-1.65-10.15-12.87-11-12.87-11s6.3,8.78,7.39,19.06l.41,4c-1-5.9-3.28-13-9-16.87-14.24-9.46-23.15,7.13-23.15,7.13s8.09-5.07,18.77.28c8.49,4.25,12,13.3,13.15,17-1.37-2.74-7.26-13.16-16.57-14.67-14.11-2.33-17.68,15.49-17.68,15.49s8.09-6.44,18.08-6a26.32,26.32,0,0,1,16,6,39.27,39.27,0,0,0-8.49-1.23c-12.46-.14-15.07,16.59-15.07,16.59l23.7-14.53a86.39,86.39,0,0,0-4.25,8.77c-1.64,3.84-.54,12.48-.54,12.48s3.83-6.58,4.93-10.83a32.87,32.87,0,0,0,.68-10.42l16,17.41s4-10.56-8.22-15.63l-4.11-1.65a26.51,26.51,0,0,1,10.13,4,47.72,47.72,0,0,1,11.57,10.8s4.38-12.75-6.3-18a16.82,16.82,0,0,0-11-.69,15.54,15.54,0,0,1,10-2c9.72,1.23,12.46,8.09,12.46,8.09s2.74-15.77-11.36-15.77Z"/></g><g id="palm1"><rect class="cls-14" x="607.69" y="906.14" width="4.38" height="290.02"/><path class="cls-16" d="M640.39,881.14c-10.69,0-20.78,7.67-27.81,14.73,4.73-6.75,11.32-14.88,16.35-16.57a34.9,34.9,0,0,1,15.75-1.38s-8.11-11.35-20-6c-5.34,2.3-9.78,9.82-13,17,1.83-6.75,3.06-14.73,2-22.1-2.9-18.41-23.54-20-23.54-20s11.47,16,13.61,34.84c.3,2.45.45,4.91.61,7.21-1.84-10.9-6.12-23.94-16.51-30.84-25.83-17.19-42,13.19-42,13.19s14.83-9.21,34.24.62c15.28,7.67,21.85,24.39,24,31-2.6-5.06-13.14-23.94-30.26-26.85-25.67-4.3-32.25,28.39-32.25,28.39s14.67-11.82,32.86-11c14.06.61,24.3,6.44,29.35,11a58,58,0,0,0-15.44-2.15c-22.77-.31-27.51,30.23-27.51,30.23l43.26-26.55c-1.83,3.53-5.65,10.9-7.79,16.11-2.91,7.06-1.07,22.71-1.07,22.71s7-12,9-19.79c2-7.52,1.53-15.35,1.23-19L634.8,937.7S642,918.37,620,909c-2.91-1.23-5.5-2.3-7.49-3.07a46,46,0,0,1,18.34,7.21,85.4,85.4,0,0,1,20.94,19.64s7.88-23.39-11.67-32.62c-6.41-3.07-13.75-2.61-20-1.23a28.76,28.76,0,0,1,18.35-3.83c17.73,2.14,22.62,14.88,22.62,14.88s5-29-20.64-28.85Z"/></g><g id="bush-1"><path class="cls-17" d="M517.94,1162a131.45,131.45,0,0,0-13.29-35.51c-.82-1.51-1.78-3.16-2.74-4.67a136.59,136.59,0,0,0-25.61-31.12,46.66,46.66,0,0,0-4-3.43,132.12,132.12,0,0,0-36-21.39c-1.65-.69-3.29-1.24-4.93-1.79a133.94,133.94,0,0,0-42-7.54H384.1a133,133,0,0,0-42,7.54c-1.65.55-3.29,1.24-4.94,1.79a132.63,132.63,0,0,0-36,21.39c-1.37,1.1-2.74,2.33-4,3.43a133.53,133.53,0,0,0-25.61,31.12c-1,1.51-1.78,3.16-2.74,4.67A131.45,131.45,0,0,0,255.52,1162c-.41,1.79-.68,3.57-1.09,5.35a132.66,132.66,0,0,0-2.06,23.45H521a131.6,131.6,0,0,0-2.05-23.44C518.62,1165.61,518.35,1163.83,517.94,1162Z"/><path class="cls-18" d="M384.1,1056.45v134.39h5.21V1056.45Z"/><path class="cls-19" d="M337.1,1065.92,370.52,1191h5.35l-34-126.85c-1.51.55-3.15,1.1-4.8,1.79Z"/><path class="cls-20" d="M297.15,1090.74l57.8,100.1h5.89L301.1,1087.31c-1.37,1.1-2.74,2.33-4,3.43Z"/><path class="cls-21" d="M268.8,1126.53,333.17,1191h7.26l-69-69.11c-.82,1.51-1.78,3.15-2.6,4.66Z"/><path class="cls-22" d="M254.42,1167.4l40.68,23.44h10.41l-50-28.94c-.41,1.92-.68,3.71-1.09,5.49Z"/><path class="cls-23" d="M397.41,1191h5.34l33.42-125.06c-1.64-.69-3.29-1.23-4.93-1.78Z"/><path class="cls-24" d="M412.47,1191h6l57.8-100.1a46.66,46.66,0,0,0-4-3.43L412.41,1191Z"/><g class="cls-25"><path class="cls-26" d="M432.88,1191h7.22l64.37-64.45c-.82-1.51-1.78-3.15-2.73-4.66L432.84,1191Z"/></g><path class="cls-27" d="M468,1191h10.4L519,1167.53c-.27-1.78-.68-3.56-1.09-5.35Z"/></g><g id="bush-2"><path class="cls-28" d="M618.47,1172.6A86.5,86.5,0,0,0,610,1150c-.55-1-1.1-1.92-1.64-3a83.89,83.89,0,0,0-16.3-19.75c-.82-.68-1.65-1.51-2.61-2.19a85.1,85.1,0,0,0-22.87-13.63,20.58,20.58,0,0,0-3.15-1.09,82.2,82.2,0,0,0-26.71-4.8h-3.28a85.62,85.62,0,0,0-26.71,4.8c-1.1.41-2.06.68-3.15,1.09A84.93,84.93,0,0,0,480.69,1125c-.83.68-1.65,1.51-2.61,2.19a83.89,83.89,0,0,0-16.3,19.75c-.54,1-1.09,1.92-1.64,3a85.19,85.19,0,0,0-8.49,22.63c-.28,1.1-.41,2.33-.69,3.43a88.74,88.74,0,0,0-1.37,15H620.25a77.81,77.81,0,0,0-1.37-15,9.27,9.27,0,0,0-.41-3.43Z"/><path class="cls-29" d="M533.41,1105.55V1191h3.29v-85.43Z"/><path class="cls-30" d="M503.69,1111.45l21.23,79.39h3.43l-21.51-80.63C505.75,1110.76,504.65,1111,503.69,1111.45Z"/><path class="cls-31" d="M478.22,1127.4l36.7,63.63h3.84l-37.94-65.82a19.45,19.45,0,0,0-2.6,2.19Z"/><path class="cls-32" d="M460.1,1150l41,40.86h4.66L461.93,1147c-.55,1.1-1.23,2.06-1.78,3Z"/><path class="cls-33" d="M451.1,1176,477,1191h6.58l-31.78-18.38A26.67,26.67,0,0,0,451.1,1176Z"/><path class="cls-34" d="M541.9,1191h3.43l21.23-79.4a20.58,20.58,0,0,0-3.15-1.09L541.9,1191Z"/><path class="cls-35" d="M551.5,1191h3.83L592,1127.4c-.82-.68-1.65-1.51-2.61-2.19L551.5,1191Z"/><path class="cls-36" d="M564.5,1191h4.66l41-40.86c-.54-1-1.09-1.92-1.64-3Z"/><path class="cls-37" d="M586.69,1191h6.58l25.88-15a30.87,30.87,0,0,0-.68-3.42Z"/></g><rect class="cls-14" x="59.85" y="945.61" width="3.81" height="252.05"/><path class="cls-38" d="M35.23,923.88c9.3,0,18.07,6.67,24.18,12.8-4.12-5.86-9.83-12.93-14.21-14.4a30.36,30.36,0,0,0-13.68-1.2s7-9.87,17.39-5.2c4.65,2,8.5,8.53,11.29,14.8-1.59-5.87-2.65-12.8-1.72-19.2,2.52-16,20.45-17.34,20.45-17.34S69,908,67.1,924.4c-.26,2.14-.4,4.27-.53,6.27,1.59-9.47,5.31-20.8,14.34-26.8,22.46-14.93,36.54,11.53,36.54,11.53s-12.88-8-29.75.53c-13.28,6.67-19,21.2-20.85,26.94C69.1,938.4,78.27,922,93.1,919.48c22.32-3.73,28,24.67,28,24.67s-12.75-10.27-28.56-9.6c-12.22.53-21.12,5.6-25.5,9.6a49.91,49.91,0,0,1,13.42-1.87c19.79-.26,23.9,26.27,23.9,26.27L66.85,945.48c1.59,3.07,4.91,9.47,6.77,14,2.52,6.13.93,19.73.93,19.73s-6.11-10.4-7.84-17.2a50.56,50.56,0,0,1-1.06-16.54l-25.5,27.61S33.91,956.28,53,948.14c2.53-1.07,4.78-2,6.51-2.67a39.91,39.91,0,0,0-15.94,6.27,74.19,74.19,0,0,0-18.19,17.07S18.5,948.4,35.5,940.4c5.58-2.67,12-2.27,17.4-1.07A25,25,0,0,0,37,936c-15.41,1.86-19.66,12.93-19.66,12.93s-4.38-25.2,17.93-25.07Z"/><g id="bush-3"><path class="cls-39" d="M168.35,1181.32a79,79,0,0,0-7.95-21.26c-.49-.9-1.07-1.89-1.64-2.79a82,82,0,0,0-15.33-18.63,28.3,28.3,0,0,0-2.38-2,78.93,78.93,0,0,0-21.56-12.8c-1-.42-2-.74-3-1.07a80,80,0,0,0-25.17-4.52H88.26a79.89,79.89,0,0,0-25.16,4.47c-1,.33-2,.74-3,1.07a78.93,78.93,0,0,0-21.56,12.8c-.82.66-1.64,1.39-2.38,2a80.09,80.09,0,0,0-15.33,18.63c-.57.9-1.06,1.89-1.64,2.79a79.29,79.29,0,0,0-8,21.26c-.24,1.07-.41,2.13-.65,3.2a80.15,80.15,0,0,0-1.23,14h160.8a80.15,80.15,0,0,0-1.23-14C168.76,1183.45,168.6,1182.4,168.35,1181.32Z"/><path class="cls-40" d="M88.26,1118.12v80.43h3.11v-80.43Zm-28.16,5.66,20,74.85h3.2L63,1122.71l-.72.26h0C61.55,1123.22,60.83,1123.48,60.1,1123.78Zm10.66,74.77-34.6-59.91.23-.2h0c.67-.6,1.41-1.26,2.15-1.85l35.74,62ZM19.2,1160.06l38.52,38.57H62.1l-41.32-41.36c-.24.45-.51.92-.78,1.39s-.52,1-.76,1.4Zm15.73,38.49-24.34-14c.13-.59.24-1.18.36-1.78h0c.09-.49.18-1,.29-1.51l29.92,17.32Zm61.24.08h3.2l20-74.85c-1-.41-2-.74-3-1.07L96.1,1198.63Zm12.63,0h-3.61l35.82-62a26.79,26.79,0,0,1,2.38,2Zm8.6,0h4.35l38.53-38.57c-.49-.9-1.07-1.89-1.64-2.79Zm27.22,0h-6.23l30-17.23c.25,1.07.49,2.13.66,3.2Z"/></g><g id="bush-4"><path class="cls-41" d="M64.61,1154.21c-7.53,0-10.36-6.6-10.36-15.8s-2.59-16.74-12.71-17.21c-13.19-.47-12,12.26-12,27.82,0,19.81-7.07,7.07-17,18.16-8.48,9.43,2.35,26.17,5.65,31.12H60.85c1.41-2.6,4.94-9,8.94-16.74C78.74,1165.05,72.15,1154.21,64.61,1154.21Z"/><path class="cls-42" d="M44.36,1157.27H42.24v29.57L33.34,1175l-1.7,1.27,10.6,14.17v7.92h2.12V1176l9-11.15-1.65-1.34-7.33,9.11v-15.31Z"/></g><rect class="cls-43" x="-1144.38" y="1189.02" width="2154.21" height="158.99"/><path class="cls-44" d="M-228.9,1252.28c-14.3,15.07-28.89,25.35-44.49,24.64a18.84,18.84,0,0,1-9.3-2.45,10,10,0,0,1-4.45-6.27,18.85,18.85,0,0,1,.31-8.58,54,54,0,0,1,3.72-10.24c6.23-13.41,18.29-30.43,30-46.9h0l3.05-4.3c6.31-8.93,12.36-17.61,17.21-25.42s8.42-14.68,9.85-20a13.11,13.11,0,0,0,.47-6.25,4.6,4.6,0,0,0-2.62-3.24c-1.56-.77-3.93-1.18-7.41-1a67.29,67.29,0,0,0-13.35,2.49c-10.82,3-22.86,9.76-35.89,19.48s-26.9,22.23-41.39,36.52c-20.42,20.15-42,43.7-63.87,67.65h0c-9.19,10-18.45,20.17-27.71,30.14-31.31,33.69-62.7,65.63-91.88,87s-56.49,32.39-79.59,23.28c-11.42-4.5-17.18-11-17.86-19.13-.66-7.93,3.53-16.86,10.39-26.18,13.78-18.73,39.38-40.42,64.23-61.26l2.67-2.24.11-.09h0c11.49-9.62,22.74-19,32.57-27.94,10.65-9.63,19.55-18.55,25.25-26.32a39.48,39.48,0,0,0,5.88-10.53c1-3.12,1.08-5.71.21-7.86s-2.75-4.13-6.13-5.8-8.18-3-14.65-3.83c-20.57-2.63-47,3.57-76.34,15.64s-61.46,29.85-93.42,50.14c-63.9,40.59-127,91.06-165.52,125.15l-2.21-2.49c38.65-34.18,101.86-84.76,166-125.47,32-20.35,64.35-38.26,93.94-50.41s56.58-18.61,78-15.86c6.66.86,11.86,2.24,15.71,4.15s6.47,4.42,7.73,7.53,1.06,6.56-.13,10.16a43,43,0,0,1-6.36,11.45c-5.91,8.06-15,17.16-25.7,26.82-9.88,8.93-21.18,18.4-32.65,28h0l-2.81,2.35c-25,20.93-50.19,42.35-63.68,60.68-6.77,9.2-10.31,17.28-9.76,23.93.54,6.4,5,12.06,15.76,16.32,21.33,8.4,47.42-1.67,76.42-22.87s60.1-52.84,91.4-86.53c9.22-9.93,18.46-20,27.63-30.06,21.94-24,43.57-47.64,64.06-67.85,14.54-14.34,28.55-27,41.73-36.82s25.61-16.91,37-20a70.21,70.21,0,0,1,14-2.6c3.75-.21,6.78.19,9.06,1.31a8,8,0,0,1,4.4,5.45,16.4,16.4,0,0,1-.5,7.9c-1.56,5.77-5.35,13-10.23,20.83s-11,16.67-17.33,25.59l-2.78,3.93-.17.25h0c-11.74,16.58-23.62,33.35-29.72,46.46a49.56,49.56,0,0,0-3.49,9.59,15.63,15.63,0,0,0-.37,7,6.58,6.58,0,0,0,3,4.23c1.66,1.06,4.13,1.78,7.67,1.94,14,.64,27.71-8.62,41.93-23.61,11.54-12.17,23.17-27.8,35.38-44.22h0c2.78-3.73,5.59-7.51,8.43-11.29,15.32-20.38,31.66-41,49.78-56.48s38.19-26,61-26v3.33c-21.67,0-41,10-58.8,25.24s-34,35.57-49.27,56q-4.23,5.64-8.4,11.25h0c-12.22,16.43-24,32.27-35.69,44.59Zm640.49-88.67c-3.31-5.2-9.33-8.28-19.74-8-20.7.64-40.48,17.38-59.86,42.84s-37.85,58.84-56.21,92l-.25.46c-18.24,33-36.31,65.68-54.71,89.48-9.24,12-18.64,21.77-28.25,28.25s-19.6,9.71-29.88,8.3-16.88-5.66-20.75-12.24-4.7-14.94-3.78-24.44c1.84-19,11-43.12,20.18-66.64l2.18-5.55V1308h0c8.53-21.66,16.7-42.41,19.26-58.16,1.39-8.59,1-15.31-1.47-19.83-2.41-4.34-7.07-7-15.44-7s-16.25,3.64-24.21,10.26-15.77,16.18-23.56,27.74c-13,19.38-25.87,44.18-39.2,70-2.59,5-5.2,10-7.83,15.09-16.15,31-33.22,62.12-52.36,85.51S-24.9,1471-49.9,1471c-12.35,0-20.43-3.22-24.78-9.42s-4.56-14.64-2.6-24.32,6.28-21.06,11.66-33.12c4.55-10.22,9.91-21,15.32-32h0l3-6c12.83-26,25.12-52,27.61-72.14,1.23-10,0-18.3-4.55-24.37s-12.49-10.2-25.66-11.55c-42.51-4.25-85.64,14.36-122.42,39.6s-66.92,56.89-83.44,78.33l-2.63-2c16.69-21.68,47.11-53.6,84.19-79s81-44.54,124.63-40.17c13.73,1.37,22.83,5.83,28.12,12.9s6.46,16.33,5.18,26.77c-2.57,20.8-15.18,47.35-27.93,73.21l-3,6h0c-5.41,11-10.73,21.7-15.26,31.85-5.35,12-9.54,23-11.43,32.43s-1.43,16.78,2.06,21.75,10.17,8,22.06,8c23.47,0,44.08-15,63-38.13s35.82-53.94,52-84.94q3.93-7.51,7.8-15h0c13.33-25.78,26.25-50.79,39.42-70.35,7.87-11.68,15.88-21.51,24.2-28.43s17.06-11,26.33-11,15.15,3,18.35,8.75c3.08,5.54,3.27,13.22,1.84,22-2.62,16.13-10.93,37.22-19.41,58.74h0c-.75,1.92-1.51,3.85-2.27,5.77-9.28,23.64-18.18,47.33-20,65.74-.89,9.2,0,16.83,3.33,22.43s9,9.33,18.34,10.63,18.39-1.57,27.57-7.76,18.34-15.7,27.48-27.53c18.24-23.6,36.22-56.11,54.53-89.23l.15-.28c18.33-33.15,37-66.87,56.47-92.46s40-43.45,62.41-44.15c11.13-.35,18.49,3,22.65,9.49s4.77,15.35,3.71,25.73-4,22.63-7.57,35.62c-1.8,6.5-3.77,13.23-5.78,20l-.09.31c-2,6.73-4,13.56-5.88,20.39-3.87,13.87-7.3,27.71-9.18,40.66s-2.23,24.94,0,35.12,7,18.47,15.4,24.3,20.62,9.3,37.92,9.3v3.33c-17.7,0-30.65-3.53-39.81-9.9s-14.37-15.53-16.76-26.31-2-23.17-.07-36.32,5.39-27.16,9.26-41.08c1.91-6.83,3.91-13.66,5.88-20.37h0l.1-.33c2-6.83,4-13.52,5.76-20,3.59-13,6.44-24.92,7.47-35.07s.21-18.24-3.21-23.6Zm520.36,157c-3.11-10.37-9.63-21.7-18.3-33.49s-19.57-24.13-31.5-36.49c-19.88-20.61-42.77-41.39-63.27-60q-6.12-5.58-12-10.88c-11.62-10.61-22-20.26-30-28.49s-13.5-14.92-15.51-19.53c-1-2.33-1-3.67-.51-4.4s1.54-1.54,4.4-1.82c5.67-.56,16.08,1.15,32.6,5.87l.91-3.2c-16.47-4.71-27.46-6.62-33.84-6-3.16.32-5.72,1.31-7,3.47s-.76,4.79.37,7.39c2.28,5.24,8.16,12.28,16.16,20.52s18.5,18,30.1,28.63q5.81,5.31,12,10.91c20.5,18.62,43.29,39.32,63.08,59.84,11.89,12.31,22.68,24.52,31.22,36.16s14.84,22.63,17.79,32.47a70.28,70.28,0,0,1,2.71,12.16c.31,3.18.06,5.3-.52,6.62a3.14,3.14,0,0,1-2.53,2,12.29,12.29,0,0,1-5.78-.87c-5.07-1.74-12-5.69-20.33-11.28s-18.08-12.66-28.87-20.58l-4-3c-20.66-15.2-44.78-32.94-70-48.39-26.81-16.45-54.94-30.38-81.48-35.83-13.14-2.7-22.36-3.83-28.28-3.52-2.92.16-5.28.68-6.9,1.76a5,5,0,0,0-2.27,5,14.07,14.07,0,0,0,2.72,6,59.62,59.62,0,0,0,6.09,7.09c5,5.16,12,11.31,20.16,18.22,4.84,4.09,10.1,8.45,15.64,13h0c13.21,11,28,23.24,42.5,36.34,20.55,18.58,40.29,38.68,53.64,58.72a67.78,67.78,0,0,1,6.75,12.12c1.23,3.19,1.31,5.13.9,6.22-.34.9-1.15,1.62-3.14,1.88a26.56,26.56,0,0,1-8.56-.83c-7.57-1.75-18-5.69-30.69-11.1s-27.34-12.24-43.41-19.74l-4-1.87c-31.21-14.56-67.13-31.32-102.32-44.78-36.69-14-72.76-24.57-102-25.25-11.67-.27-20.4.89-26.54,3.33s-9.88,6.31-11,11.41.15,10.62,3,16.68,7.53,12.76,13.33,19.73c23.18,27.85,66,61.5,98.35,84l1.89-2.73c-32.29-22.44-74.81-55.89-97.68-83.37-5.71-6.86-10.15-13.29-12.89-19s-3.72-10.63-2.81-14.48,3.59-6.85,9.07-9,13.75-3.36,25.24-3.09c28.64.66,64.26,11,100.88,25,35.09,13.43,70.91,30.14,102.16,44.71l4,1.86c16.08,7.49,30.84,14.35,43.54,19.77s23.35,9.46,31.23,11.29a29.65,29.65,0,0,0,9.92,1c2.68-.35,4.92-1.52,5.85-4,.85-2.28.38-5.22-.93-8.58a69.54,69.54,0,0,0-7.08-12.77c-13.58-20.38-33.56-40.7-54.15-59.34-14.55-13.15-29.44-25.51-42.69-36.49h0c-5.53-4.59-10.75-8.93-15.56-13-8.16-6.9-15-13-19.93-18a56,56,0,0,1-5.73-6.67,11.05,11.05,0,0,1-2.16-4.48,2.34,2.34,0,0,1,.11-1.08,2.13,2.13,0,0,1,.72-.77c.86-.58,2.49-1.06,5.23-1.21,5.46-.29,14.32.76,27.43,3.46,26,5.33,53.71,19,80.42,35.41,25.05,15.37,49.05,33,69.74,48.24l4,3c10.77,7.92,20.56,15.06,29,20.67s15.58,9.77,21.12,11.65a15.2,15.2,0,0,0,7.43,1,6.47,6.47,0,0,0,5-4c.91-2.1,1.11-4.89.75-8.29a70.6,70.6,0,0,0-2.81-12.78Z"/><path class="cls-45" d="M-499.19,1244.66c-221.46,0-258.64,73.62-649.23,73.62v116H1009.82v-248c-473.87,0-412.89,103.47-821.07,103.47s-496.16-45.14-687.94-45.14Z"/></g><path class="cls-46" d="M331,1348a55.49,55.49,0,0,0-5.44-14.79c-.34-.63-.73-1.32-1.12-1.94a56.44,56.44,0,0,0-10.49-13,18.39,18.39,0,0,0-1.62-1.43,54.28,54.28,0,0,0-14.75-8.91c-.68-.28-1.35-.51-2-.74a53.82,53.82,0,0,0-17.22-3.14h-2.13a53.54,53.54,0,0,0-17.22,3.14c-.67.23-1.34.51-2,.74a54.28,54.28,0,0,0-14.75,8.91c-.56.46-1.12,1-1.62,1.43a54.81,54.81,0,0,0-10.49,13c-.39.62-.73,1.31-1.12,1.94a55.49,55.49,0,0,0-5.44,14.79c-.17.74-.28,1.49-.45,2.23a57.2,57.2,0,0,0-.84,9.77h110a55.17,55.17,0,0,0-.84-9.77C331.31,1349.45,331.2,1348.7,331,1348Z"/><path class="cls-47" d="M421.24,1356.26a82.66,82.66,0,0,0-8.3-22.19c-.51-.94-1.11-2-1.71-2.91a85.24,85.24,0,0,0-16-19.45,28.2,28.2,0,0,0-2.48-2.14,82.91,82.91,0,0,0-22.5-13.37c-1-.43-2.05-.77-3.08-1.11a83.33,83.33,0,0,0-26.26-4.71h-3.25a82.77,82.77,0,0,0-26.26,4.71c-1,.34-2.06.77-3.08,1.11a82.91,82.91,0,0,0-22.5,13.37c-.86.68-1.71,1.46-2.48,2.14a83.58,83.58,0,0,0-16,19.45c-.6.94-1.11,2-1.71,2.91a82.32,82.32,0,0,0-8.3,22.19c-.26,1.12-.43,2.23-.68,3.35a83.72,83.72,0,0,0-1.29,14.65H423.12a82.76,82.76,0,0,0-1.28-14.65C421.67,1358.49,421.49,1357.38,421.24,1356.26Z"/><path class="cls-47" d="M421.24,1356.34a82.66,82.66,0,0,0-8.3-22.19c-.51-.94-1.11-2-1.71-2.91a85.24,85.24,0,0,0-16-19.45,28.2,28.2,0,0,0-2.48-2.14,82.91,82.91,0,0,0-22.5-13.37c-1-.43-2.05-.77-3.08-1.11a83.33,83.33,0,0,0-26.26-4.71h-3.25a82.77,82.77,0,0,0-26.26,4.71c-1,.34-2.06.77-3.08,1.11a82.91,82.91,0,0,0-22.5,13.37c-.86.68-1.71,1.46-2.48,2.14a83.58,83.58,0,0,0-16,19.45c-.6.94-1.11,2-1.71,2.91a82.32,82.32,0,0,0-8.3,22.19c-.26,1.12-.43,2.23-.68,3.35a83.72,83.72,0,0,0-1.29,14.65H423.12a82.76,82.76,0,0,0-1.28-14.65C421.67,1358.57,421.49,1357.46,421.24,1356.34Z"/></svg>