<?xml version="1.0" encoding="UTF-8" standalone="no"?>
<!DOCTYPE svg PUBLIC "-//W3C//DTD SVG 1.1//EN" "http://www.w3.org/Graphics/SVG/1.1/DTD/svg11.dtd">
<svg width="100%" height="100%" viewBox="0 0 4167 7634" version="1.1" xmlns="http://www.w3.org/2000/svg" xmlns:xlink="http://www.w3.org/1999/xlink" xml:space="preserve" xmlns:serif="http://www.serif.com/" style="fill-rule:evenodd;clip-rule:evenodd;stroke-miterlimit:1.15;">
    <g transform="matrix(5.55556,0,0,5.55556,0,0)">
        <g>
            <path d="M1001.5,-0.4L-1134.4,-0.4L-1134.4,1330.4L835.3,1330.4C927.1,1330.4 1001.5,1255.9 1001.5,1164.1L1001.5,-0.4Z" style="fill:url(#_Linear1);fill-rule:nonzero;"/>
            <path d="M1099.6,568.7L1051,568.7C1047.27,568.705 1044.2,571.772 1044.2,575.5L1044.2,981.8C1044.2,986.902 1040,991.1 1034.9,991.1C1029.8,991.1 1025.6,986.902 1025.6,981.8L1025.6,722.2C1025.6,722.187 1025.6,722.173 1025.6,722.16C1025.6,713.075 1018.13,705.6 1009.04,705.6C1009.03,705.6 1009.01,705.6 1009,705.6L991.5,705.6C991.487,705.6 991.473,705.6 991.46,705.6C982.375,705.6 974.9,713.075 974.9,722.16C974.9,722.173 974.9,722.187 974.9,722.2L974.9,738.5C974.9,738.513 974.9,738.527 974.9,738.54C974.9,747.625 967.425,755.1 958.34,755.1C958.327,755.1 958.313,755.1 958.3,755.1L848.7,755.1C841.783,755.116 836.1,760.813 836.1,767.73C836.1,767.753 836.1,767.777 836.1,767.8L836.1,774.8C836.1,774.803 836.1,774.807 836.1,774.81C836.1,777.877 833.577,780.4 830.51,780.4L830.49,780.4C827.423,780.4 824.9,782.923 824.9,785.99C824.9,785.993 824.9,785.997 824.9,786L824.9,876.4C824.9,876.413 824.9,876.427 824.9,876.44C824.9,883.989 818.689,890.2 811.14,890.2C811.127,890.2 811.113,890.2 811.1,890.2C803.536,890.216 797.316,896.436 797.3,904L797.3,964.3C797.289,973.402 789.802,980.889 780.7,980.9L779.1,980.9C769.998,980.911 762.511,988.398 762.5,997.5L762.5,1085.6C762.5,1089 759.701,1091.8 756.3,1091.8C752.899,1091.8 750.1,1089 750.1,1085.6L750.1,574.9C750.089,572.106 747.794,569.811 745,569.8C742.206,569.789 739.911,567.494 739.9,564.7L739.9,520C739.895,515.229 735.971,511.305 731.2,511.3C726.429,511.295 722.505,507.371 722.5,502.6L722.5,459.3C722.5,459.283 722.5,459.267 722.5,459.25C722.5,456.041 719.859,453.4 716.65,453.4L716.55,453.4C713.341,453.4 710.7,450.759 710.7,447.55C710.7,447.533 710.7,447.517 710.7,447.5L710.7,412C710.7,411.987 710.7,411.973 710.7,411.96C710.7,402.875 703.225,395.4 694.14,395.4C694.127,395.4 694.113,395.4 694.1,395.4L651.8,395.4C642.698,395.411 635.211,402.898 635.2,412L635.2,447.5C635.2,447.517 635.2,447.533 635.2,447.55C635.2,450.759 632.559,453.4 629.35,453.4L629.25,453.4C626.041,453.4 623.4,456.041 623.4,459.25C623.4,459.267 623.4,459.283 623.4,459.3L623.4,502.7C623.395,507.471 619.471,511.395 614.7,511.4C609.929,511.405 606.005,515.329 606,520.1L606,565.1C605.984,567.398 604.098,569.284 601.8,569.3C599.502,569.316 597.616,571.202 597.6,573.5L597.6,921.5C597.578,926.883 593.143,931.3 587.76,931.3C587.74,931.3 587.72,931.3 587.7,931.3C582.317,931.322 577.9,935.757 577.9,941.14C577.9,941.16 577.9,941.18 577.9,941.2L577.9,1079.7C577.9,1079.71 577.9,1079.71 577.9,1079.72C577.9,1086.35 572.447,1091.8 565.82,1091.8C565.813,1091.8 565.807,1091.8 565.8,1091.8L554.8,1091.8C554.199,1091.8 553.705,1091.3 553.7,1090.7C553.695,1090.1 553.201,1089.61 552.6,1089.6L548.9,1089.6C547.836,1089.4 547.119,1088.37 547.3,1087.3C547.426,1086.48 548.076,1085.83 548.9,1085.7L550.9,1085.7C552.436,1085.7 553.7,1084.44 553.7,1082.9C553.7,1081.36 552.436,1080.1 550.9,1080.1L549.1,1080.1C547.844,1080.08 546.816,1079.06 546.8,1077.8C546.8,1077.79 546.8,1077.77 546.8,1077.76C546.8,1076.52 547.82,1075.5 549.06,1075.5C549.073,1075.5 549.087,1075.5 549.1,1075.5L550.8,1075.5C550.908,1075.51 551.017,1075.52 551.127,1075.52C552.668,1075.52 553.937,1074.25 553.937,1072.71C553.937,1071.19 552.713,1069.94 551.2,1069.9L548.9,1069.9C547.836,1069.7 547.119,1068.67 547.3,1067.6C547.426,1066.78 548.076,1066.13 548.9,1066L550.9,1066C552.436,1066 553.7,1064.74 553.7,1063.2C553.7,1061.66 552.436,1060.4 550.9,1060.4L548.9,1060.4C547.836,1060.2 547.119,1059.17 547.3,1058.1C547.426,1057.28 548.076,1056.63 548.9,1056.5L550.9,1056.5C550.924,1056.5 550.949,1056.5 550.973,1056.5C552.515,1056.5 553.783,1055.23 553.783,1053.69C553.783,1052.27 552.709,1051.07 551.3,1050.9L549,1050.9C547.936,1050.7 547.219,1049.67 547.4,1048.6C547.526,1047.78 548.176,1047.13 549,1047L551,1047C551.024,1047 551.049,1047 551.073,1047C552.615,1047 553.883,1045.73 553.883,1044.19C553.883,1042.77 552.809,1041.57 551.4,1041.4L549.1,1041.4C548.003,1041.4 547.1,1040.5 547.1,1039.4C547.1,1038.3 548.003,1037.4 549.1,1037.4L551.1,1037.4C551.124,1037.4 551.149,1037.4 551.173,1037.4C552.715,1037.4 553.983,1036.13 553.983,1034.59C553.983,1033.17 552.909,1031.96 551.5,1031.8L549.2,1031.8C548.136,1031.6 547.419,1030.57 547.6,1029.5C547.726,1028.68 548.376,1028.03 549.2,1027.9L551.2,1027.9C551.224,1027.9 551.249,1027.9 551.273,1027.9C552.815,1027.9 554.083,1026.63 554.083,1025.09C554.083,1023.67 553.009,1022.47 551.6,1022.3L549.3,1022.3C548.203,1022.3 547.3,1021.4 547.3,1020.3C547.3,1019.2 548.203,1018.3 549.3,1018.3L551.3,1018.3C552.723,1018.15 553.817,1016.94 553.817,1015.5C553.817,1015.4 553.811,1015.3 553.8,1015.2C553.675,1013.99 552.788,1012.98 551.6,1012.7L549.3,1012.7C548.236,1012.5 547.519,1011.47 547.7,1010.4C547.826,1009.58 548.476,1008.93 549.3,1008.8L551.3,1008.8C551.408,1008.81 551.517,1008.82 551.627,1008.82C553.168,1008.82 554.437,1007.55 554.437,1006.01C554.437,1004.5 553.213,1003.24 551.7,1003.2L549.4,1003.2C548.336,1003 547.619,1001.97 547.8,1000.9C547.926,1000.08 548.576,999.426 549.4,999.3L551.4,999.3C552.936,999.3 554.2,998.036 554.2,996.5C554.168,994.976 552.924,993.732 551.4,993.7L550.9,993.7C550.89,993.7 550.88,993.7 550.87,993.7C549.021,993.7 547.5,992.179 547.5,990.33C547.5,990.32 547.5,990.31 547.5,990.3L547.5,989.2C547.5,989.19 547.5,989.18 547.5,989.17C547.5,987.321 549.021,985.8 550.87,985.8C550.88,985.8 550.89,985.8 550.9,985.8L551.5,985.8C551.608,985.813 551.717,985.819 551.827,985.819C553.368,985.819 554.637,984.551 554.637,983.009C554.637,981.495 553.413,980.24 551.9,980.2L549.6,980.2C548.536,979.999 547.819,978.968 548,977.9C548.126,977.076 548.776,976.426 549.6,976.3L551.6,976.3C553.136,976.3 554.4,975.036 554.4,973.5C554.368,971.976 553.124,970.732 551.6,970.7L549.6,970.7C548.536,970.499 547.819,969.468 548,968.4C548.126,967.576 548.776,966.926 549.6,966.8L551.6,966.8C551.624,966.801 551.649,966.801 551.673,966.801C553.215,966.801 554.483,965.532 554.483,963.991C554.483,962.572 553.409,961.365 552,961.2L549.7,961.2C548.636,960.999 547.919,959.968 548.1,958.9C548.226,958.076 548.876,957.426 549.7,957.3L551.7,957.3C553.236,957.3 554.5,956.036 554.5,954.5C554.468,952.976 553.224,951.732 551.7,951.7L549.7,951.7C548.636,951.499 547.919,950.468 548.1,949.4C548.226,948.576 548.876,947.926 549.7,947.8L551.7,947.8C551.75,947.803 551.8,947.804 551.85,947.804C553.416,947.804 554.704,946.516 554.704,944.95C554.704,943.441 553.507,942.179 552,942.1L549.7,942.1C548.636,941.899 547.919,940.868 548.1,939.8C548.226,938.976 548.876,938.326 549.7,938.2L551.7,938.2C551.724,938.201 551.749,938.201 551.773,938.201C553.315,938.201 554.583,936.932 554.583,935.391C554.583,933.972 553.509,932.765 552.1,932.6L549.8,932.6C548.703,932.6 547.8,931.697 547.8,930.6C547.8,929.503 548.703,928.6 549.8,928.6L551.8,928.6C551.908,928.613 552.017,928.619 552.127,928.619C553.668,928.619 554.937,927.351 554.937,925.809C554.937,924.295 553.713,923.04 552.2,923L549.9,923C548.836,922.799 548.119,921.768 548.3,920.7C548.426,919.876 549.076,919.226 549.9,919.1L551.9,919.1C552.008,919.113 552.117,919.119 552.227,919.119C553.768,919.119 555.037,917.851 555.037,916.309C555.037,914.795 553.813,913.54 552.3,913.5L550,913.5C548.936,913.299 548.219,912.268 548.4,911.2C548.526,910.376 549.176,909.726 550,909.6L552,909.6C553.536,909.6 554.8,908.336 554.8,906.8C554.768,905.276 553.524,904.032 552,904L550,904C548.936,903.799 548.219,902.768 548.4,901.7C548.526,900.876 549.176,900.226 550,900.1L552,900.1C552.024,900.101 552.049,900.101 552.073,900.101C553.615,900.101 554.883,898.832 554.883,897.291C554.883,895.872 553.809,894.665 552.4,894.5L550.1,894.5C549.036,894.299 548.319,893.268 548.5,892.2C548.626,891.376 549.276,890.726 550.1,890.6L552.1,890.6C552.124,890.601 552.149,890.601 552.173,890.601C553.715,890.601 554.983,889.332 554.983,887.791C554.983,886.372 553.909,885.165 552.5,885L550.2,885C549.103,885 548.2,884.097 548.2,883C548.2,881.903 549.103,881 550.2,881L552.2,881C552.224,881.001 552.249,881.001 552.273,881.001C553.815,881.001 555.083,879.732 555.083,878.191C555.083,876.772 554.009,875.565 552.6,875.4L550.3,875.4C549.236,875.199 548.519,874.168 548.7,873.1C548.826,872.276 549.476,871.626 550.3,871.5L552.3,871.5C552.408,871.513 552.517,871.519 552.627,871.519C554.168,871.519 555.437,870.251 555.437,868.709C555.437,867.195 554.213,865.94 552.7,865.9L551.8,865.9C551.79,865.9 551.78,865.9 551.77,865.9C549.921,865.9 548.4,864.379 548.4,862.53C548.4,862.52 548.4,862.51 548.4,862.5L548.4,859C548.4,858.99 548.4,858.98 548.4,858.97C548.4,857.121 549.921,855.6 551.77,855.6C551.78,855.6 551.79,855.6 551.8,855.6L552.4,855.6C553.936,855.6 555.2,854.336 555.2,852.8C555.168,851.276 553.924,850.032 552.4,850L550.4,850C549.336,849.799 548.619,848.768 548.8,847.7C548.926,846.876 549.576,846.226 550.4,846.1L552.4,846.1C552.508,846.113 552.617,846.119 552.727,846.119C554.268,846.119 555.537,844.851 555.537,843.309C555.537,841.795 554.313,840.54 552.8,840.5L550.5,840.5C549.436,840.299 548.719,839.268 548.9,838.2C549.026,837.376 549.676,836.726 550.5,836.6L552.5,836.6C552.524,836.601 552.549,836.601 552.573,836.601C554.115,836.601 555.383,835.332 555.383,833.791C555.383,832.372 554.309,831.165 552.9,831L550.6,831C549.524,830.798 548.777,829.788 548.9,828.7C549.024,827.821 549.721,827.124 550.6,827L552.6,827C554.06,826.899 555.208,825.67 555.208,824.207C555.208,824.138 555.205,824.069 555.2,824C555.104,822.719 554.159,821.651 552.9,821.4L552,821.4C551.99,821.4 551.98,821.4 551.97,821.4C550.121,821.4 548.6,819.879 548.6,818.03C548.6,818.02 548.6,818.01 548.6,818L548.6,814.3C548.6,814.293 548.6,814.287 548.6,814.28C548.6,812.919 547.481,811.8 546.12,811.8L546.08,811.8C544.719,811.8 543.6,810.681 543.6,809.32C543.6,809.313 543.6,809.307 543.6,809.3L543.6,805.6C543.584,802.205 540.795,799.416 537.4,799.4L536.9,799.4C533.172,799.395 530.105,796.328 530.1,792.6L530.1,774.6C530.089,771.806 527.794,769.511 525,769.5C522.206,769.489 519.911,767.194 519.9,764.4L519.9,745.3C519.861,737.528 514.392,730.764 506.8,729.1L488.9,725.2C484.634,724.215 481.59,720.378 481.6,716L481.6,663.5C481.665,663.3 481.698,663.091 481.698,662.88C481.698,661.783 480.796,660.88 479.698,660.88C478.632,660.88 477.743,661.734 477.7,662.8L477.7,716.6C477.701,716.633 477.701,716.667 477.701,716.7C477.701,719.443 475.444,721.7 472.701,721.7C472.701,721.7 472.7,721.7 472.7,721.7C472.297,721.716 471.894,721.683 471.5,721.6C468.793,721.03 466.081,722.719 465.4,725.4C465.317,725.76 465.284,726.131 465.3,726.5L465.3,765.5C465.284,767.798 463.398,769.684 461.1,769.7C458.802,769.716 456.916,771.602 456.9,773.9L456.9,792.8C456.895,796.528 453.828,799.595 450.1,799.6L447,799.6C444.093,799.646 441.7,801.994 441.6,804.9L441.6,807.7C441.6,807.707 441.6,807.713 441.6,807.72C441.6,809.081 440.481,810.2 439.12,810.2L439.08,810.2C437.719,810.2 436.6,811.319 436.6,812.68C436.6,812.687 436.6,812.693 436.6,812.7L436.6,815C436.6,817.633 434.433,819.8 431.8,819.8L382.3,819.8C373.198,819.811 365.711,827.298 365.7,836.4L365.7,865.6C365.689,874.702 358.202,882.189 349.1,882.2L308.1,882.2C306.051,882.207 304.019,882.58 302.1,883.3L251.6,903C249.894,903.687 248.778,905.361 248.8,907.2L248.8,926.7C248.8,926.707 248.8,926.713 248.8,926.72C248.8,929.178 250.822,931.2 253.28,931.2C253.287,931.2 253.293,931.2 253.3,931.2L254.4,931.2C256.265,931.2 257.8,932.735 257.8,934.6C257.8,936.465 256.265,938 254.4,938L252.1,938C250.235,938 248.7,939.535 248.7,941.4C248.7,943.265 250.235,944.8 252.1,944.8L254.4,944.8C256.265,944.8 257.8,946.335 257.8,948.2C257.8,950.065 256.265,951.6 254.4,951.6L252.1,951.6C250.235,951.6 248.7,953.135 248.7,955C248.7,956.865 250.235,958.4 252.1,958.4L254.4,958.4C254.411,958.4 254.422,958.4 254.433,958.4C256.303,958.4 257.843,959.939 257.843,961.81C257.843,963.542 256.522,965.013 254.8,965.2L252.2,965.2C250.335,965.2 248.8,966.735 248.8,968.6C248.8,970.465 250.335,972 252.2,972L254.5,972C256.365,972 257.9,973.535 257.9,975.4C257.9,977.265 256.365,978.8 254.5,978.8L252.2,978.8C250.335,978.8 248.8,980.335 248.8,982.2C248.8,984.065 250.335,985.6 252.2,985.6L255.3,985.6C256.699,985.6 257.85,986.751 257.85,988.15C257.85,989.549 256.699,990.7 255.3,990.7L204,990.7C197.035,990.73 190.767,986.351 188.4,979.8L175.1,943.7C174.059,940.851 171.333,938.945 168.3,938.945C165.267,938.945 162.541,940.851 161.5,943.7C158.7,951.4 146.8,949.2 146.9,941L146.9,900.6C146.9,878.1 146.9,855.5 146.3,833C146.3,823.4 145.7,813.3 145.7,803.7C145.1,782.9 144.6,762 143.4,740.6C142.8,730.5 142.8,720.3 142.3,710.2C141.2,690.5 140.6,671.3 139.5,651.6C139.5,649.3 138.9,647.1 138.9,644.8C137.8,627.3 136.6,610.5 135.5,593C133.2,561.5 130.4,529.9 127.6,498.4C127.4,495.5 127.1,492.6 126.8,489.6C125.918,480.914 118.53,474.222 109.8,474.2L4.6,474.2C-3.5,474.2 -10.7,480.2 -10.7,488.3C-11.3,495.1 -11.8,501.8 -12.4,508.6C-13,514.2 -13.5,520.4 -14.1,526.1C-15.2,536.8 -15.8,547.5 -16.9,558.2C-17.5,563.3 -17.5,567.8 -18,572.9C-18.6,581.9 -19.1,590.9 -20.3,599.9C-20.801,603.645 -21.002,607.423 -20.9,611.2C-21.5,623 -22.6,634.9 -23.2,646.1C-23.2,650 -23.8,654 -23.8,657.9C-24.4,670.3 -24.9,682.1 -25.5,694.5C-25.5,697.3 -26.1,699.6 -26.1,702.4C-26.7,713.7 -27.2,725.5 -27.8,736.7L-27.8,743.5C-28.4,756.5 -28.9,769.4 -28.9,782.4L-28.9,790.3C-29.5,803.8 -29.5,817.3 -30,830.3L-30,832C-30,845.5 -30.6,859 -30.6,872L-30.6,935C-30.6,935.007 -30.6,935.013 -30.6,935.02C-30.6,941.647 -36.053,947.1 -42.68,947.1L-42.72,947.1C-49.347,947.1 -54.8,952.553 -54.8,959.18C-54.8,959.187 -54.8,959.193 -54.8,959.2L-54.8,1094.4C-54.827,1102.25 -61.249,1108.72 -69.1,1108.8L-82.1,1108.8C-82.11,1108.8 -82.12,1108.8 -82.13,1108.8C-82.882,1108.8 -83.5,1108.18 -83.5,1107.43C-83.5,1107.42 -83.5,1107.41 -83.5,1107.4C-83.5,1107.39 -83.5,1107.38 -83.5,1107.37C-83.5,1106.62 -82.882,1106 -82.13,1106C-82.12,1106 -82.11,1106 -82.1,1106L-81,1106C-80.993,1106 -80.987,1106 -80.98,1106C-79.619,1106 -78.5,1104.88 -78.5,1103.52C-78.5,1103.51 -78.5,1103.51 -78.5,1103.5L-78.5,1102.4C-78.5,1102.39 -78.5,1102.39 -78.5,1102.38C-78.5,1101.02 -79.619,1099.9 -80.98,1099.9L-81.02,1099.9C-82.381,1099.9 -83.5,1098.78 -83.5,1097.42C-83.5,1097.41 -83.5,1097.41 -83.5,1097.4L-83.5,1095.1C-83.5,1095.09 -83.5,1095.09 -83.5,1095.08C-83.5,1093.72 -82.381,1092.6 -81.02,1092.6L-80.98,1092.6C-79.619,1092.6 -78.5,1091.48 -78.5,1090.12C-78.5,1090.11 -78.5,1090.11 -78.5,1090.1L-78.5,1089C-78.5,1088.99 -78.5,1088.99 -78.5,1088.98C-78.5,1087.62 -79.619,1086.5 -80.98,1086.5L-81.02,1086.5C-82.381,1086.5 -83.5,1085.38 -83.5,1084.02C-83.5,1084.01 -83.5,1084.01 -83.5,1084L-83.5,1081.2C-83.5,1081.19 -83.5,1081.19 -83.5,1081.18C-83.5,1079.82 -82.381,1078.7 -81.02,1078.7L-80.98,1078.7C-79.619,1078.7 -78.5,1077.58 -78.5,1076.22C-78.5,1076.21 -78.5,1076.21 -78.5,1076.2L-78.5,1075.1C-78.5,1075.09 -78.5,1075.09 -78.5,1075.08C-78.5,1073.72 -79.619,1072.6 -80.98,1072.6L-81.02,1072.6C-82.381,1072.6 -83.5,1071.48 -83.5,1070.12C-83.5,1070.11 -83.5,1070.11 -83.5,1070.1L-83.5,1067.3C-83.5,1067.29 -83.5,1067.29 -83.5,1067.28C-83.5,1065.92 -82.381,1064.8 -81.02,1064.8L-80.98,1064.8C-79.619,1064.8 -78.5,1063.68 -78.5,1062.32C-78.5,1062.31 -78.5,1062.31 -78.5,1062.3L-78.5,1061.2C-78.5,1061.19 -78.5,1061.19 -78.5,1061.18C-78.5,1059.82 -79.619,1058.7 -80.98,1058.7L-81.02,1058.7C-82.381,1058.7 -83.5,1057.58 -83.5,1056.22C-83.5,1056.21 -83.5,1056.21 -83.5,1056.2L-83.5,1053.4C-83.5,1053.39 -83.5,1053.39 -83.5,1053.38C-83.5,1052.02 -82.381,1050.9 -81.02,1050.9L-80.98,1050.9C-79.619,1050.9 -78.5,1049.78 -78.5,1048.42C-78.5,1048.41 -78.5,1048.41 -78.5,1048.4L-78.5,1047.3C-78.5,1047.29 -78.5,1047.29 -78.5,1047.28C-78.5,1045.92 -79.619,1044.8 -80.98,1044.8L-81.02,1044.8C-82.381,1044.8 -83.5,1043.68 -83.5,1042.32C-83.5,1042.31 -83.5,1042.31 -83.5,1042.3L-83.5,1039.5C-83.5,1039.49 -83.5,1039.49 -83.5,1039.48C-83.5,1038.12 -82.381,1037 -81.02,1037L-80.98,1037C-79.619,1037 -78.5,1035.88 -78.5,1034.52C-78.5,1034.51 -78.5,1034.51 -78.5,1034.5L-78.5,1033.4C-78.5,1033.39 -78.5,1033.39 -78.5,1033.38C-78.5,1032.02 -79.619,1030.9 -80.98,1030.9L-81.02,1030.9C-82.381,1030.9 -83.5,1029.78 -83.5,1028.42C-83.5,1028.41 -83.5,1028.41 -83.5,1028.4L-83.5,1025.6C-83.5,1025.59 -83.5,1025.59 -83.5,1025.58C-83.5,1024.22 -82.381,1023.1 -81.02,1023.1L-80.98,1023.1C-79.619,1023.1 -78.5,1021.98 -78.5,1020.62C-78.5,1020.61 -78.5,1020.61 -78.5,1020.6L-78.5,1019.4C-78.5,1019.39 -78.5,1019.39 -78.5,1019.38C-78.5,1018.02 -79.619,1016.9 -80.98,1016.9C-80.987,1016.9 -80.993,1016.9 -81,1016.9C-82.363,1016.88 -83.479,1015.76 -83.5,1014.4L-83.5,1011.6C-83.5,1011.59 -83.5,1011.59 -83.5,1011.58C-83.5,1010.22 -82.381,1009.1 -81.02,1009.1L-80.98,1009.1C-79.619,1009.1 -78.5,1007.98 -78.5,1006.62C-78.5,1006.61 -78.5,1006.61 -78.5,1006.6L-78.5,1005.5C-78.5,1005.49 -78.5,1005.49 -78.5,1005.48C-78.5,1004.12 -79.619,1003 -80.98,1003L-81.02,1003C-82.381,1003 -83.5,1001.88 -83.5,1000.52C-83.5,1000.51 -83.5,1000.51 -83.5,1000.5L-83.5,997.7C-83.5,997.693 -83.5,997.687 -83.5,997.68C-83.5,996.319 -82.381,995.2 -81.02,995.2L-80.98,995.2C-79.619,995.2 -78.5,994.081 -78.5,992.72C-78.5,992.713 -78.5,992.707 -78.5,992.7L-78.5,991.5C-78.5,991.493 -78.5,991.487 -78.5,991.48C-78.5,990.119 -79.619,989 -80.98,989L-81.02,989C-82.381,989 -83.5,987.881 -83.5,986.52C-83.5,986.513 -83.5,986.507 -83.5,986.5L-83.5,983.7C-83.5,983.693 -83.5,983.687 -83.5,983.68C-83.5,982.319 -82.381,981.2 -81.02,981.2L-80.98,981.2C-79.619,981.2 -78.5,980.081 -78.5,978.72C-78.5,978.713 -78.5,978.707 -78.5,978.7L-78.5,977.6C-78.5,977.593 -78.5,977.587 -78.5,977.58C-78.5,976.219 -79.619,975.1 -80.98,975.1L-81.02,975.1C-82.381,975.1 -83.5,973.981 -83.5,972.62C-83.5,972.613 -83.5,972.607 -83.5,972.6L-83.5,969.8C-83.5,969.793 -83.5,969.787 -83.5,969.78C-83.5,968.419 -82.381,967.3 -81.02,967.3L-80.98,967.3C-79.619,967.3 -78.5,966.181 -78.5,964.82C-78.5,964.813 -78.5,964.807 -78.5,964.8L-78.5,961.4C-78.5,961.393 -78.5,961.387 -78.5,961.38C-78.5,960.019 -79.619,958.9 -80.98,958.9L-81.02,958.9C-82.381,958.9 -83.5,957.781 -83.5,956.42C-83.5,956.413 -83.5,956.407 -83.5,956.4L-83.5,952C-83.5,951.993 -83.5,951.987 -83.5,951.98C-83.5,950.619 -82.381,949.5 -81.02,949.5L-80.98,949.5C-79.619,949.5 -78.5,948.381 -78.5,947.02C-78.5,947.013 -78.5,947.007 -78.5,947L-78.5,945.9C-78.5,945.893 -78.5,945.887 -78.5,945.88C-78.5,944.519 -79.619,943.4 -80.98,943.4L-81.02,943.4C-82.381,943.4 -83.5,942.281 -83.5,940.92C-83.5,940.913 -83.5,940.907 -83.5,940.9L-83.5,937.5C-83.5,937.493 -83.5,937.487 -83.5,937.48C-83.5,936.119 -82.381,935 -81.02,935L-80.98,935C-79.619,935 -78.5,933.881 -78.5,932.52C-78.5,932.513 -78.5,932.507 -78.5,932.5L-78.5,931.4C-78.5,931.393 -78.5,931.387 -78.5,931.38C-78.5,930.019 -79.619,928.9 -80.98,928.9L-81.02,928.9C-82.381,928.9 -83.5,927.781 -83.5,926.42C-83.5,926.413 -83.5,926.407 -83.5,926.4L-83.5,923.6C-83.5,923.593 -83.5,923.587 -83.5,923.58C-83.5,922.219 -82.381,921.1 -81.02,921.1L-80.98,921.1C-79.619,921.1 -78.5,919.981 -78.5,918.62C-78.5,918.613 -78.5,918.607 -78.5,918.6L-78.5,917.5C-78.5,917.493 -78.5,917.487 -78.5,917.48C-78.5,916.119 -79.619,915 -80.98,915L-81.02,915C-82.381,915 -83.5,913.881 -83.5,912.52C-83.5,912.513 -83.5,912.507 -83.5,912.5L-83.5,909.7C-83.5,909.693 -83.5,909.687 -83.5,909.68C-83.5,908.319 -82.381,907.2 -81.02,907.2L-80.98,907.2C-79.619,907.2 -78.5,906.081 -78.5,904.72C-78.5,904.713 -78.5,904.707 -78.5,904.7L-78.5,903C-78.5,902.993 -78.5,902.987 -78.5,902.98C-78.5,901.619 -79.619,900.5 -80.98,900.5L-81.02,900.5C-82.381,900.5 -83.5,899.381 -83.5,898.02C-83.5,898.013 -83.5,898.007 -83.5,898L-83.5,895.2C-83.5,895.193 -83.5,895.187 -83.5,895.18C-83.5,893.819 -82.381,892.7 -81.02,892.7L-80.98,892.7C-79.619,892.7 -78.5,891.581 -78.5,890.22C-78.5,890.213 -78.5,890.207 -78.5,890.2L-78.5,889.1C-78.5,889.093 -78.5,889.087 -78.5,889.08C-78.5,887.719 -79.619,886.6 -80.98,886.6L-81.02,886.6C-82.381,886.6 -83.5,885.481 -83.5,884.12C-83.5,884.113 -83.5,884.107 -83.5,884.1L-83.5,881C-83.5,880.993 -83.5,880.987 -83.5,880.98C-83.5,879.619 -82.381,878.5 -81.02,878.5L-80.98,878.5C-79.619,878.5 -78.5,877.381 -78.5,876.02C-78.5,876.013 -78.5,876.007 -78.5,876L-78.5,874.9C-78.5,874.893 -78.5,874.887 -78.5,874.88C-78.5,873.519 -79.619,872.4 -80.98,872.4L-81.02,872.4C-82.381,872.4 -83.5,871.281 -83.5,869.92C-83.5,869.913 -83.5,869.907 -83.5,869.9L-83.5,867C-83.486,865.616 -82.382,864.468 -81,864.4C-80.993,864.4 -80.987,864.4 -80.98,864.4C-79.619,864.4 -78.5,863.281 -78.5,861.92C-78.5,861.913 -78.5,861.907 -78.5,861.9L-78.5,860.8C-78.5,860.793 -78.5,860.787 -78.5,860.78C-78.5,859.419 -79.619,858.3 -80.98,858.3L-81.02,858.3C-82.381,858.3 -83.5,857.181 -83.5,855.82C-83.5,855.813 -83.5,855.807 -83.5,855.8L-83.5,853C-83.5,852.993 -83.5,852.987 -83.5,852.98C-83.5,851.619 -82.381,850.5 -81.02,850.5L-80.98,850.5C-79.619,850.5 -78.5,849.381 -78.5,848.02C-78.5,848.013 -78.5,848.007 -78.5,848L-78.5,846.9C-78.5,846.893 -78.5,846.887 -78.5,846.88C-78.5,845.519 -79.619,844.4 -80.98,844.4L-81.02,844.4C-82.381,844.4 -83.5,843.281 -83.5,841.92C-83.5,841.913 -83.5,841.907 -83.5,841.9L-83.5,839.1C-83.5,839.093 -83.5,839.087 -83.5,839.08C-83.5,837.719 -82.381,836.6 -81.02,836.6L-80.98,836.6C-79.619,836.6 -78.5,835.481 -78.5,834.12C-78.5,834.113 -78.5,834.107 -78.5,834.1L-78.5,830.7C-78.5,830.693 -78.5,830.687 -78.5,830.68C-78.5,829.319 -79.619,828.2 -80.98,828.2L-81.02,828.2C-82.381,828.2 -83.5,827.081 -83.5,825.72C-83.5,825.713 -83.5,825.707 -83.5,825.7L-83.5,822.9C-83.5,822.893 -83.5,822.887 -83.5,822.88C-83.5,821.519 -82.381,820.4 -81.02,820.4C-81.013,820.4 -81.007,820.4 -81,820.4C-79.616,820.386 -78.468,819.282 -78.4,817.9L-78.4,816.8C-78.4,816.793 -78.4,816.787 -78.4,816.78C-78.4,815.419 -79.519,814.3 -80.88,814.3L-80.92,814.3C-82.281,814.3 -83.4,813.181 -83.4,811.82C-83.4,811.813 -83.4,811.807 -83.4,811.8L-83.4,809C-83.4,808.993 -83.4,808.987 -83.4,808.98C-83.4,807.619 -82.281,806.5 -80.92,806.5L-80.88,806.5C-79.519,806.5 -78.4,805.381 -78.4,804.02C-78.4,804.013 -78.4,804.007 -78.4,804L-78.4,802.8C-78.4,802.793 -78.4,802.787 -78.4,802.78C-78.4,801.419 -79.519,800.3 -80.88,800.3L-80.92,800.3C-82.281,800.3 -83.4,799.181 -83.4,797.82C-83.4,797.813 -83.4,797.807 -83.4,797.8L-83.4,795C-83.4,794.993 -83.4,794.987 -83.4,794.98C-83.4,793.619 -82.281,792.5 -80.92,792.5L-80.88,792.5C-79.519,792.5 -78.4,791.381 -78.4,790.02C-78.4,790.013 -78.4,790.007 -78.4,790L-78.4,788.9C-78.4,788.893 -78.4,788.887 -78.4,788.88C-78.4,787.519 -79.519,786.4 -80.88,786.4L-80.92,786.4C-82.281,786.4 -83.4,785.281 -83.4,783.92C-83.4,783.913 -83.4,783.907 -83.4,783.9L-83.4,774.9C-83.4,774.893 -83.4,774.887 -83.4,774.88C-83.4,773.519 -82.281,772.4 -80.92,772.4L-80.88,772.4C-79.519,772.4 -78.4,771.281 -78.4,769.92C-78.4,769.913 -78.4,769.907 -78.4,769.9L-78.4,768.2C-78.416,765.902 -80.302,764.016 -82.6,764L-90.8,764C-92.939,764 -94.7,762.239 -94.7,760.1L-94.7,759.2C-94.7,757.554 -93.346,756.2 -91.7,756.2C-90.054,756.2 -88.7,754.846 -88.7,753.2C-88.684,752.548 -88.896,751.911 -89.3,751.4L-109.5,724.2C-111.899,720.97 -115.677,719.044 -119.7,719L-120,719C-126.79,718.967 -132.367,713.39 -132.4,706.6C-132.4,705.3 -133.5,703.9 -133.5,702.6L-133.5,670.3C-133.5,669.203 -134.403,668.3 -135.5,668.3C-136.597,668.3 -137.5,669.203 -137.5,670.3L-137.5,702.8C-137.5,704 -138.6,705.5 -138.6,706.7C-138.6,713.502 -144.198,719.1 -151,719.1L-151.3,719.1C-155.309,719.106 -159.09,720.997 -161.5,724.2L-182.8,752.9C-183.072,753.26 -183.22,753.699 -183.22,754.15C-183.22,754.798 -182.916,755.409 -182.4,755.8C-182.057,756.065 -181.634,756.206 -181.2,756.2C-180.05,756.205 -179.105,757.15 -179.1,758.3L-179.1,760.2C-179.1,760.22 -179.1,760.24 -179.1,760.26C-179.1,762.367 -180.833,764.1 -182.94,764.1C-182.96,764.1 -182.98,764.1 -183,764.1L-191,764.1C-193.298,764.116 -195.184,766.002 -195.2,768.3L-195.2,769.5C-195.189,771.196 -193.796,772.589 -192.1,772.6C-190.404,772.611 -189.011,774.004 -189,775.7L-189,783.6C-189.011,785.296 -190.404,786.689 -192.1,786.7C-193.796,786.711 -195.189,788.104 -195.2,789.8C-195.189,791.496 -193.796,792.889 -192.1,792.9C-190.404,792.911 -189.011,794.304 -189,796L-189,797.7C-189.011,799.396 -190.404,800.789 -192.1,800.8C-193.796,800.811 -195.189,802.204 -195.2,803.9C-195.189,805.596 -193.796,806.989 -192.1,807C-190.404,807.011 -189.011,808.404 -189,810.1L-189,811.8C-189.011,813.496 -190.404,814.889 -192.1,814.9C-193.796,814.911 -195.189,816.304 -195.2,818C-195.189,819.696 -193.796,821.089 -192.1,821.1C-190.404,821.111 -189.011,822.504 -189,824.2L-189,825.9C-189.011,827.596 -190.404,828.989 -192.1,829C-193.796,829.011 -195.189,830.404 -195.2,832.1C-195.189,833.796 -193.796,835.189 -192.1,835.2C-192.067,835.199 -192.033,835.198 -192,835.198C-190.354,835.198 -189,836.553 -189,838.198L-189,840C-189.011,841.696 -190.404,843.089 -192.1,843.1C-193.796,843.111 -195.189,844.504 -195.2,846.2C-195.189,847.896 -193.796,849.289 -192.1,849.3C-190.404,849.311 -189.011,850.704 -189,852.4L-189,854.1C-188.987,855.786 -190.317,857.205 -192,857.3L-192.1,857.3C-193.796,857.311 -195.189,858.704 -195.2,860.4C-195.189,862.096 -193.796,863.489 -192.1,863.5C-190.404,863.511 -189.011,864.904 -189,866.6L-189,868.302C-189,869.947 -190.354,871.302 -192,871.302C-192.033,871.302 -192.067,871.301 -192.1,871.3C-193.796,871.311 -195.189,872.704 -195.2,874.4C-195.189,876.096 -193.796,877.489 -192.1,877.5C-190.404,877.511 -189.011,878.904 -189,880.6L-189,882.3C-189.011,883.996 -190.404,885.389 -192.1,885.4C-193.796,885.411 -195.189,886.804 -195.2,888.5C-195.189,890.196 -193.796,891.589 -192.1,891.6C-192.099,891.6 -192.099,891.6 -192.098,891.6C-190.453,891.6 -189.098,892.954 -189.098,894.6C-189.098,894.633 -189.099,894.667 -189.1,894.7L-189.1,896.4C-189.111,898.096 -190.504,899.489 -192.2,899.5C-193.896,899.511 -195.289,900.904 -195.3,902.6C-195.289,904.296 -193.896,905.689 -192.2,905.7C-190.504,905.711 -189.111,907.104 -189.1,908.8L-189.1,910.5C-189.111,912.196 -190.504,913.589 -192.2,913.6C-193.896,913.611 -195.289,915.004 -195.3,916.7C-195.289,918.396 -193.896,919.789 -192.2,919.8C-190.504,919.811 -189.111,921.204 -189.1,922.9L-189.1,924.6C-189.111,926.296 -190.504,927.689 -192.2,927.7C-193.896,927.711 -195.289,929.104 -195.3,930.8C-195.289,932.496 -193.896,933.889 -192.2,933.9C-190.504,933.911 -189.111,935.304 -189.1,937L-189.1,938.8C-189.111,940.496 -190.504,941.889 -192.2,941.9C-193.896,941.911 -195.289,943.304 -195.3,945C-195.289,946.696 -193.896,948.089 -192.2,948.1C-190.504,948.111 -189.111,949.504 -189.1,951.2L-189.1,952.8C-189.111,954.496 -190.504,955.889 -192.2,955.9C-193.896,955.911 -195.289,957.304 -195.3,959C-195.289,960.696 -193.896,962.089 -192.2,962.1C-190.504,962.111 -189.111,963.504 -189.1,965.2L-189.1,966.9C-189.111,968.596 -190.504,969.989 -192.2,970C-193.896,970.011 -195.289,971.404 -195.3,973.1C-195.289,974.796 -193.896,976.189 -192.2,976.2L-189.9,976.2C-189.897,976.2 -189.893,976.2 -189.89,976.2C-189.457,976.2 -189.1,976.557 -189.1,976.99L-189.1,977.01C-189.1,977.443 -189.457,977.8 -189.89,977.8C-189.893,977.8 -189.897,977.8 -189.9,977.8L-219.4,977.8C-223.396,977.778 -226.678,974.496 -226.7,970.5L-226.7,576L-227,563.9C-227.188,557.013 -231.612,550.916 -238.1,548.6L-254.9,542.8C-259.233,541.298 -264.038,543.588 -265.6,547.9C-265.911,548.802 -266.08,549.746 -266.1,550.7L-266.1,553.3C-266.116,556.487 -268.743,559.1 -271.93,559.1C-271.953,559.1 -271.977,559.1 -272,559.1C-275.182,559.1 -277.8,556.482 -277.8,553.3L-277.8,553.1L-277.1,516.6C-276.93,508.859 -282.188,501.974 -289.7,500.1L-325.2,491.2C-334.029,488.983 -343.124,494.387 -345.4,503.2C-345.624,504.122 -345.791,505.057 -345.9,506L-351.1,574.8L-351.7,582.7L-352.3,588.9L-352.9,596.8L-353.5,603L-354.1,610.9L-354.7,617.1L-355.3,625L-355.9,631.2L-356.5,639.1L-357.1,645.3L-357.7,653.2L-358.3,659.4L-358.9,667.3L-359.5,673.5L-360.1,681.4L-360.7,687.6L-361.3,695.5L-361.9,701.7L-362.5,709.6L-363.1,715.8L-363.7,723.7L-364.3,729.9L-364.3,730.3C-364.64,735.023 -366.968,739.386 -370.7,742.3L-373.6,744.5C-377.29,747.362 -379.614,751.646 -380,756.3L-380.6,762.5L-381.2,770.4L-381.8,776.6L-382.4,784.5L-383,790.7L-383.6,798.6L-384.2,804.8L-384.8,812.1C-384.8,813.636 -386.064,814.9 -387.6,814.9L-434,814.9C-443.102,814.911 -450.589,822.398 -450.6,831.5L-450.6,895.7C-450.605,900.471 -454.529,904.395 -459.3,904.4C-464.071,904.405 -467.995,908.329 -468,913.1L-468,1086.3C-468.011,1092.77 -473.331,1098.09 -479.8,1098.1C-486.269,1098.09 -491.589,1092.77 -491.6,1086.3L-491.6,394.1C-491.6,394.093 -491.6,394.087 -491.6,394.08C-491.6,391.622 -493.622,389.6 -496.08,389.6L-496.12,389.6C-498.578,389.6 -500.6,387.578 -500.6,385.12C-500.6,385.113 -500.6,385.107 -500.6,385.1L-500.6,323.4C-500.6,323.387 -500.6,323.373 -500.6,323.36C-500.6,314.275 -508.075,306.8 -517.16,306.8C-517.173,306.8 -517.187,306.8 -517.2,306.8L-612.8,306.8C-621.902,306.811 -629.389,314.298 -629.4,323.4L-629.4,385.6C-629.4,385.607 -629.4,385.613 -629.4,385.62C-629.4,388.078 -631.422,390.1 -633.88,390.1L-633.92,390.1C-636.378,390.1 -638.4,392.122 -638.4,394.58C-638.4,394.587 -638.4,394.593 -638.4,394.6L-638.4,694.5C-638.422,698.99 -642.11,702.678 -646.6,702.7L-653.1,702.7C-654.023,702.726 -654.774,703.477 -654.8,704.4L-654.8,704.9C-654.805,705.501 -655.299,705.995 -655.9,706C-656.501,706.005 -656.995,706.499 -657,707.1L-657,713.3C-656.995,713.901 -656.501,714.395 -655.9,714.4C-655.299,714.405 -654.805,714.899 -654.8,715.5L-654.8,716.1C-654.805,716.701 -655.299,717.195 -655.9,717.2C-656.501,717.205 -656.995,717.699 -657,718.3L-657,724.5C-656.995,725.101 -656.501,725.595 -655.9,725.6C-655.299,725.605 -654.805,726.099 -654.8,726.7L-654.8,727.3C-654.805,727.901 -655.299,728.395 -655.9,728.4C-656.501,728.405 -656.995,728.899 -657,729.5L-657,735.7C-656.995,736.301 -656.501,736.795 -655.9,736.8C-655.299,736.805 -654.805,737.299 -654.8,737.9L-654.8,738.5C-654.805,739.101 -655.299,739.595 -655.9,739.6C-656.501,739.605 -656.995,740.099 -657,740.7L-657,746.9C-656.995,747.501 -656.501,747.995 -655.9,748C-655.299,748.005 -654.805,748.499 -654.8,749.1L-654.8,749.7C-654.805,750.301 -655.299,750.795 -655.9,750.8C-656.501,750.805 -656.995,751.299 -657,751.9L-657,758.1C-656.995,758.701 -656.501,759.195 -655.9,759.2C-655.299,759.205 -654.805,759.699 -654.8,760.3L-654.8,760.9C-654.805,761.501 -655.299,761.995 -655.9,762C-656.501,762.005 -656.995,762.499 -657,763.1L-657,769.3C-656.995,769.901 -656.501,770.395 -655.9,770.4C-655.299,770.405 -654.805,770.899 -654.8,771.5L-654.8,772.1C-654.805,772.701 -655.299,773.195 -655.9,773.2C-656.501,773.205 -656.995,773.699 -657,774.3L-657,780.5C-656.995,781.101 -656.501,781.595 -655.9,781.6C-655.299,781.605 -654.805,782.099 -654.8,782.7L-654.8,783.3C-654.805,783.901 -655.299,784.395 -655.9,784.4C-656.501,784.405 -656.995,784.899 -657,785.5L-657,791.7C-656.995,792.301 -656.501,792.795 -655.9,792.8C-655.299,792.805 -654.805,793.299 -654.8,793.9L-654.8,794.5C-654.805,795.101 -655.299,795.595 -655.9,795.6C-656.501,795.605 -656.995,796.099 -657,796.7L-657,802.9C-656.995,803.501 -656.501,803.995 -655.9,804C-655.299,804.005 -654.805,804.499 -654.8,805.1L-654.8,805.7C-654.805,806.301 -655.299,806.795 -655.9,806.8C-656.501,806.805 -656.995,807.299 -657,807.9L-657,814.1C-656.995,814.701 -656.501,815.195 -655.9,815.2C-655.299,815.205 -654.805,815.699 -654.8,816.3L-654.8,816.9C-654.805,817.501 -655.299,817.995 -655.9,818C-656.501,818.005 -656.995,818.499 -657,819.1L-657,825.3C-656.995,825.901 -656.501,826.395 -655.9,826.4C-655.299,826.405 -654.805,826.899 -654.8,827.5L-654.8,828.1C-654.805,828.701 -655.299,829.195 -655.9,829.2C-656.501,829.205 -656.995,829.699 -657,830.3L-657,836.5C-656.995,837.101 -656.501,837.595 -655.9,837.6C-655.299,837.605 -654.805,838.099 -654.8,838.7L-654.8,839.3C-654.805,839.901 -655.299,840.395 -655.9,840.4C-655.933,840.397 -655.967,840.395 -656,840.395C-656.549,840.395 -657,840.846 -657,841.395C-657,841.397 -657,841.398 -657,841.4L-657,847.6C-656.995,848.201 -656.501,848.695 -655.9,848.7C-655.299,848.705 -654.805,849.199 -654.8,849.8L-654.8,850.4C-654.805,851.001 -655.299,851.495 -655.9,851.5C-656.501,851.505 -656.995,851.999 -657,852.6L-657,858.8C-656.995,859.401 -656.501,859.895 -655.9,859.9C-655.299,859.905 -654.805,860.399 -654.8,861L-654.8,861.6C-654.805,862.201 -655.299,862.695 -655.9,862.7C-655.923,862.699 -655.947,862.698 -655.97,862.698C-656.58,862.698 -657.085,863.191 -657.1,863.8L-657.1,870.1C-657.095,870.701 -656.601,871.195 -656,871.2C-655.399,871.205 -654.905,871.699 -654.9,872.3L-654.9,884.1C-654.905,884.701 -655.399,885.195 -656,885.2C-656.601,885.205 -657.095,885.699 -657.1,886.3L-657.1,892.5C-657.095,893.101 -656.601,893.595 -656,893.6C-655.399,893.605 -654.905,894.099 -654.9,894.7L-654.9,895.3C-654.905,895.901 -655.399,896.395 -656,896.4C-656.601,896.405 -657.095,896.899 -657.1,897.5L-657.1,898.9C-657.1,898.907 -657.1,898.913 -657.1,898.92C-657.1,900.281 -658.219,901.4 -659.58,901.4C-659.587,901.4 -659.593,901.4 -659.6,901.4L-677,901.4C-677.013,901.4 -677.027,901.4 -677.04,901.4C-686.125,901.4 -693.6,893.925 -693.6,884.84C-693.6,884.827 -693.6,884.813 -693.6,884.8L-693.6,732.8C-693.6,732.78 -693.6,732.76 -693.6,732.74C-693.6,723.627 -701.087,716.122 -710.2,716.1L-776,716.1C-776.013,716.1 -776.027,716.1 -776.04,716.1C-785.125,716.1 -792.6,723.575 -792.6,732.66C-792.6,732.673 -792.6,732.687 -792.6,732.7L-792.6,821.1C-792.6,829 -799.1,835.5 -807,835.5L-818,835.5C-818.025,835.501 -818.05,835.501 -818.075,835.501C-819.846,835.501 -821.305,834.043 -821.305,832.271C-821.305,832.214 -821.303,832.157 -821.3,832.1C-821.3,832.09 -821.3,832.08 -821.3,832.07C-821.3,830.221 -822.821,828.7 -824.67,828.7C-824.68,828.7 -824.69,828.7 -824.7,828.7L-827.2,828.7C-830.435,828.695 -833.095,826.035 -833.1,822.8L-833.1,373.3C-833.1,373.293 -833.1,373.287 -833.1,373.28C-833.1,370.822 -835.122,368.8 -837.58,368.8L-837.62,368.8C-840.078,368.8 -842.1,366.778 -842.1,364.32C-842.1,364.313 -842.1,364.307 -842.1,364.3L-842.1,241.8C-842.1,241.787 -842.1,241.773 -842.1,241.76C-842.1,232.675 -849.575,225.2 -858.66,225.2C-858.673,225.2 -858.687,225.2 -858.7,225.2L-981.3,225.2C-990.402,225.211 -997.889,232.698 -997.9,241.8L-997.9,364.3C-997.9,364.307 -997.9,364.313 -997.9,364.32C-997.9,366.778 -999.922,368.8 -1002.38,368.8L-1002.42,368.8C-1004.88,368.8 -1006.9,370.822 -1006.9,373.28C-1006.9,373.287 -1006.9,373.293 -1006.9,373.3L-1006.9,969.2C-1006.9,975.068 -1011.73,979.895 -1017.6,979.9C-1023.47,979.895 -1028.3,975.068 -1028.3,969.2L-1028.3,755.5C-1028.3,755.487 -1028.3,755.473 -1028.3,755.46C-1028.3,746.375 -1035.78,738.9 -1044.86,738.9C-1044.87,738.9 -1044.89,738.9 -1044.9,738.9L-1049.3,738.9C-1058.42,738.895 -1065.94,731.421 -1066,722.3L-1066,638C-1066.02,634.605 -1068.81,631.816 -1072.2,631.8C-1075.6,631.784 -1078.38,628.995 -1078.4,625.6L-1078.4,600C-1078.4,599.987 -1078.4,599.973 -1078.4,599.96C-1078.4,590.875 -1085.88,583.4 -1094.96,583.4C-1094.97,583.4 -1094.99,583.4 -1095,583.4L-1237.3,583.4C-1237.31,583.4 -1237.33,583.4 -1237.34,583.4C-1246.42,583.4 -1253.9,590.875 -1253.9,599.96C-1253.9,599.973 -1253.9,599.987 -1253.9,600L-1253.9,625.6C-1253.92,628.995 -1256.7,631.784 -1260.1,631.8C-1263.5,631.816 -1266.28,634.605 -1266.3,638L-1266.3,1004.3C-1266.3,1004.31 -1266.3,1004.33 -1266.3,1004.34C-1266.3,1013.43 -1273.78,1020.9 -1282.86,1020.9C-1282.87,1020.9 -1282.89,1020.9 -1282.9,1020.9L-1290.2,1020.9C-1299.3,1020.89 -1306.79,1013.4 -1306.8,1004.3L-1306.8,785.9C-1306.8,785.887 -1306.8,785.873 -1306.8,785.86C-1306.8,776.775 -1314.28,769.3 -1323.36,769.3C-1323.37,769.3 -1323.39,769.3 -1323.4,769.3L-1439.2,769.3C-1448.32,769.305 -1455.84,776.779 -1455.9,785.9L-1455.9,911.8C-1455.9,920.742 -1463.26,928.1 -1472.2,928.1C-1481.14,928.1 -1488.5,935.458 -1488.5,944.4L-1488.5,1072.9C-1488.49,1078.13 -1492.77,1082.46 -1498,1082.5C-1503.27,1082.5 -1507.6,1078.17 -1507.6,1072.9L-1507.6,630.1C-1507.6,630.08 -1507.6,630.06 -1507.6,630.04C-1507.6,627.933 -1509.33,626.2 -1511.44,626.2C-1511.46,626.2 -1511.48,626.2 -1511.5,626.2L-1513.8,626.2C-1514.72,626.174 -1515.47,625.423 -1515.5,624.5C-1515.47,623.577 -1514.72,622.826 -1513.8,622.8L-1511.6,622.8C-1511.58,622.8 -1511.56,622.8 -1511.54,622.8C-1509.43,622.8 -1507.7,621.067 -1507.7,618.96C-1507.7,618.94 -1507.7,618.92 -1507.7,618.9L-1507.7,615.5C-1507.7,615.48 -1507.7,615.46 -1507.7,615.44C-1507.7,613.333 -1509.43,611.6 -1511.54,611.6C-1511.56,611.6 -1511.58,611.6 -1511.6,611.6L-1513.9,611.6C-1514.82,611.574 -1515.57,610.823 -1515.6,609.9C-1515.6,609.897 -1515.6,609.893 -1515.6,609.89C-1515.6,608.963 -1514.84,608.2 -1513.91,608.2C-1513.91,608.2 -1513.9,608.2 -1513.9,608.2L-1511.6,608.2C-1511.58,608.2 -1511.56,608.2 -1511.54,608.2C-1509.43,608.2 -1507.7,606.467 -1507.7,604.36C-1507.7,604.34 -1507.7,604.32 -1507.7,604.3L-1507.7,600.8C-1507.7,600.78 -1507.7,600.76 -1507.7,600.74C-1507.7,598.633 -1509.43,596.9 -1511.54,596.9C-1511.56,596.9 -1511.58,596.9 -1511.6,596.9L-1513.9,596.9C-1513.9,596.9 -1513.91,596.9 -1513.91,596.9C-1514.84,596.9 -1515.6,596.137 -1515.6,595.21C-1515.6,595.207 -1515.6,595.203 -1515.6,595.2C-1515.57,594.277 -1514.82,593.526 -1513.9,593.5L-1511.7,593.5C-1511.68,593.5 -1511.66,593.5 -1511.64,593.5C-1509.53,593.5 -1507.8,591.767 -1507.8,589.66C-1507.8,589.64 -1507.8,589.62 -1507.8,589.6L-1507.8,586.2C-1507.8,586.18 -1507.8,586.16 -1507.8,586.14C-1507.8,584.033 -1509.53,582.3 -1511.64,582.3C-1511.66,582.3 -1511.68,582.3 -1511.7,582.3L-1514.5,582.3C-1515.1,582.295 -1515.6,581.801 -1515.6,581.2C-1515.6,580.599 -1515.1,580.105 -1514.5,580.1L-1511.4,580.1C-1509.1,580.084 -1507.22,578.198 -1507.2,575.9L-1507.2,573.1C-1507.22,570.802 -1509.1,568.916 -1511.4,568.9L-1513.9,568.9C-1513.9,568.9 -1513.91,568.9 -1513.91,568.9C-1514.84,568.9 -1515.6,568.137 -1515.6,567.21C-1515.6,567.207 -1515.6,567.203 -1515.6,567.2C-1515.57,566.277 -1514.82,565.526 -1513.9,565.5L-1511.4,565.5C-1509.1,565.484 -1507.22,563.598 -1507.2,561.3L-1507.2,558.5C-1507.22,556.202 -1509.1,554.316 -1511.4,554.3L-1513.9,554.3C-1514.82,554.274 -1515.57,553.523 -1515.6,552.6C-1515.57,551.677 -1514.82,550.926 -1513.9,550.9L-1511.4,550.9C-1509.1,550.884 -1507.22,548.998 -1507.2,546.7L-1507.2,543.9C-1507.22,541.602 -1509.1,539.716 -1511.4,539.7L-1513.9,539.7C-1514.82,539.674 -1515.57,538.923 -1515.6,538C-1515.57,537.077 -1514.82,536.326 -1513.9,536.3L-1511.4,536.3C-1509.1,536.284 -1507.22,534.398 -1507.2,532.1L-1507.2,502C-1507.35,496.547 -1509.83,491.412 -1514,487.9C-1530.8,473 -1554.5,441.3 -1555,397.6L-1555,395C-1555,392.367 -1557.17,390.2 -1559.8,390.2L-1561.5,390.2C-1563.2,390.211 -1564.59,391.604 -1564.6,393.3C-1564.61,394.996 -1566,396.389 -1567.7,396.4L-1571.4,396.4C-1575.13,396.395 -1578.19,393.328 -1578.2,389.6L-1578.2,301C-1578.2,300.993 -1578.2,300.987 -1578.2,300.98C-1578.2,299.619 -1579.32,298.5 -1580.68,298.5C-1580.69,298.5 -1580.69,298.5 -1580.7,298.5C-1580.71,298.5 -1580.71,298.5 -1580.72,298.5C-1582.08,298.5 -1583.2,299.619 -1583.2,300.98C-1583.2,300.987 -1583.2,300.993 -1583.2,301L-1583.2,395.6C-1583.2,395.61 -1583.2,395.62 -1583.2,395.63C-1583.2,396.382 -1583.82,397 -1584.57,397C-1584.58,397 -1584.59,397 -1584.6,397C-1584.61,397 -1584.62,397 -1584.63,397C-1585.38,397 -1586,396.382 -1586,395.63C-1586,395.62 -1586,395.61 -1586,395.6L-1586,393.9C-1586.01,392.204 -1587.4,390.811 -1589.1,390.8L-1593,390.8C-1594.7,390.811 -1596.09,392.204 -1596.1,393.9C-1596.11,395.596 -1597.5,396.989 -1599.2,397L-1611,397C-1612.7,396.989 -1614.09,395.596 -1614.1,393.9C-1614.11,392.204 -1615.5,390.811 -1617.2,390.8L-1619.2,390.8C-1621.98,390.848 -1624.25,393.121 -1624.3,395.9L-1624.3,397C-1624.3,441.4 -1636.5,473.5 -1650.8,488.6C-1654.6,492.6 -1657.5,497.7 -1657.5,503.3L-1657.5,525.7C-1657.49,525.861 -1657.36,525.99 -1657.2,526C-1657.19,525.999 -1657.18,525.998 -1657.17,525.998C-1657.02,525.998 -1656.9,526.12 -1656.9,526.268C-1656.9,526.279 -1656.9,526.289 -1656.9,526.3L-1656.9,532.2C-1656.85,534.979 -1654.58,537.252 -1651.8,537.3L-1648.4,537.3C-1647.48,537.326 -1646.73,538.077 -1646.7,539C-1646.73,539.923 -1647.48,540.674 -1648.4,540.7L-1651.8,540.7C-1654.59,540.711 -1656.89,543.006 -1656.9,545.8L-1656.9,546.9C-1656.89,549.694 -1654.59,551.989 -1651.8,552L-1648.4,552C-1647.48,552.026 -1646.73,552.777 -1646.7,553.7C-1646.73,554.623 -1647.48,555.374 -1648.4,555.4L-1652,555.4C-1654.9,555.422 -1657.28,557.801 -1657.3,560.7L-1657.3,561.3C-1657.28,564.199 -1654.9,566.578 -1652,566.6L-1647.8,566.6C-1647.2,566.605 -1646.7,567.099 -1646.7,567.7C-1646.7,568.301 -1647.2,568.795 -1647.8,568.8L-1652,568.8C-1652.01,568.8 -1652.02,568.8 -1652.03,568.8C-1654.92,568.8 -1657.3,571.179 -1657.3,574.07C-1657.3,574.08 -1657.3,574.09 -1657.3,574.1L-1657.3,574.7C-1657.3,574.71 -1657.3,574.72 -1657.3,574.73C-1657.3,577.621 -1654.92,580 -1652.03,580C-1652.02,580 -1652.01,580 -1652,580L-1648.3,580C-1647.38,580.026 -1646.63,580.777 -1646.6,581.7C-1646.63,582.623 -1647.38,583.374 -1648.3,583.4L-1652,583.4C-1654.9,583.422 -1657.28,585.801 -1657.3,588.7L-1657.3,589.3C-1657.3,589.31 -1657.3,589.32 -1657.3,589.33C-1657.3,592.221 -1654.92,594.6 -1652.03,594.6C-1652.02,594.6 -1652.01,594.6 -1652,594.6L-1648.3,594.6C-1647.38,594.626 -1646.63,595.377 -1646.6,596.3C-1646.63,597.223 -1647.38,597.974 -1648.3,598L-1652,598C-1654.9,598.022 -1657.28,600.401 -1657.3,603.3L-1657.3,603.9C-1657.28,606.799 -1654.9,609.178 -1652,609.2L-1648.3,609.2C-1647.38,609.226 -1646.63,609.977 -1646.6,610.9C-1646.63,611.823 -1647.38,612.574 -1648.3,612.6L-1652,612.6C-1652.01,612.6 -1652.02,612.6 -1652.03,612.6C-1654.92,612.6 -1657.3,614.979 -1657.3,617.87C-1657.3,617.88 -1657.3,617.89 -1657.3,617.9L-1657.3,618.5C-1657.28,621.399 -1654.9,623.778 -1652,623.8L-1648.3,623.8C-1647.38,623.826 -1646.63,624.577 -1646.6,625.5C-1646.63,626.423 -1647.38,627.174 -1648.3,627.2L-1652.2,627.2C-1652.2,627.2 -1652.21,627.2 -1652.21,627.2C-1655.28,627.2 -1657.8,629.723 -1657.8,632.79C-1657.8,632.793 -1657.8,632.797 -1657.8,632.8L-1657.8,854.7C-1657.8,854.71 -1657.8,854.72 -1657.8,854.73C-1657.8,863.381 -1664.92,870.5 -1673.57,870.5L-1673.65,870.5C-1682.27,870.5 -1689.37,877.579 -1689.4,886.2L-1689.4,981.7C-1689.4,986.471 -1693.33,990.395 -1698.1,990.4C-1702.87,990.405 -1706.8,994.329 -1706.8,999.1L-1706.8,1087C-1706.8,1090.6 -1710.8,1092.4 -1714.4,1092.3L-1715,1092.3L-1715.6,1092.2C-1722.12,1091.32 -1727.03,1085.68 -1727,1079.1L-1727,875.8C-1726.99,869.2 -1730.93,863.2 -1737,860.6L-1740.6,859C-1740.94,858.83 -1741.32,858.761 -1741.7,858.8L-1742.5,858.8C-1744.8,858.784 -1746.68,856.898 -1746.7,854.6L-1746.7,852.3C-1746.7,851.203 -1747.6,850.3 -1748.7,850.3C-1749.8,850.3 -1750.7,851.203 -1750.7,852.3C-1750.7,853.397 -1751.6,854.3 -1752.7,854.3L-1752.9,854.3C-1753.82,854.326 -1754.57,855.077 -1754.6,856C-1754.58,856.902 -1755.3,857.662 -1756.2,857.7L-1762.6,858C-1762.67,858.005 -1762.74,858.007 -1762.81,858.007C-1764.38,858.007 -1765.7,856.77 -1765.8,855.2L-1765.8,855C-1765.76,853.84 -1766.44,852.768 -1767.5,852.3L-1769,851.5C-1769.88,851.101 -1770.83,850.896 -1771.8,850.9L-1804.7,851.9C-1806.51,851.998 -1807.96,853.489 -1808,855.3C-1808,855.31 -1808,855.32 -1808,855.33C-1808,857.179 -1809.52,858.7 -1811.37,858.7C-1811.38,858.7 -1811.39,858.7 -1811.4,858.7L-1811.9,858.7C-1811.92,858.7 -1811.94,858.7 -1811.96,858.7C-1814.07,858.7 -1815.8,860.433 -1815.8,862.54C-1815.8,862.56 -1815.8,862.58 -1815.8,862.6L-1815.8,900.1C-1815.8,900.113 -1815.8,900.127 -1815.8,900.14C-1815.8,909.225 -1823.28,916.7 -1832.36,916.7C-1832.37,916.7 -1832.39,916.7 -1832.4,916.7L-1861.6,916.7C-1861.61,916.7 -1861.63,916.7 -1861.64,916.7C-1870.73,916.7 -1878.2,909.225 -1878.2,900.14C-1878.2,900.127 -1878.2,900.113 -1878.2,900.1L-1878.2,636.9C-1878.22,632.904 -1881.5,629.622 -1885.5,629.6C-1889.5,629.578 -1892.78,626.296 -1892.8,622.3L-1892.8,573.6C-1892.8,573.587 -1892.8,573.573 -1892.8,573.56C-1892.8,564.475 -1900.28,557 -1909.36,557C-1909.37,557 -1909.39,557 -1909.4,557L-1934.4,557C-1939.67,557 -1944,552.666 -1944,547.4C-1943.99,542.167 -1948.27,537.844 -1953.5,537.8L-1960,537.8C-1960.02,537.8 -1960.03,537.8 -1960.05,537.8C-1968.53,537.8 -1975.5,530.826 -1975.5,522.35L-1975.5,522.25C-1975.5,513.774 -1982.47,506.8 -1990.95,506.8C-1990.97,506.8 -1990.98,506.8 -1991,506.8L-2086.7,506.8C-2095.75,506.892 -2103.16,514.345 -2103.2,523.4L-2103.2,540.2C-2103.2,540.213 -2103.2,540.227 -2103.2,540.24C-2103.2,549.325 -2110.68,556.8 -2119.76,556.8C-2119.77,556.8 -2119.79,556.8 -2119.8,556.8L-2150.7,556.8C-2150.71,556.8 -2150.73,556.8 -2150.74,556.8C-2159.82,556.8 -2167.3,564.275 -2167.3,573.36C-2167.3,573.373 -2167.3,573.387 -2167.3,573.4L-2167.3,1058.8C-2167.3,1058.81 -2167.3,1058.83 -2167.3,1058.84C-2167.3,1067.92 -2174.78,1075.4 -2183.86,1075.4C-2183.87,1075.4 -2183.89,1075.4 -2183.9,1075.4L-2185.5,1075.4C-2185.51,1075.4 -2185.53,1075.4 -2185.54,1075.4C-2194.63,1075.4 -2202.1,1082.88 -2202.1,1091.96C-2202.1,1091.97 -2202.1,1091.99 -2202.1,1092L-2202.1,1108C-2202.1,1116.94 -2209.46,1124.3 -2218.4,1124.3C-2227.34,1124.3 -2234.7,1116.94 -2234.7,1108L-2234.7,985C-2234.7,984.987 -2234.7,984.973 -2234.7,984.96C-2234.7,975.875 -2242.18,968.4 -2251.26,968.4C-2251.27,968.4 -2251.29,968.4 -2251.3,968.4L-2268.7,968.4C-2268.71,968.4 -2268.73,968.4 -2268.74,968.4C-2277.83,968.4 -2285.3,960.925 -2285.3,951.84C-2285.3,951.827 -2285.3,951.813 -2285.3,951.8L-2285.3,917.8C-2285.31,917.409 -2285.54,917.056 -2285.9,916.9C-2286.26,916.744 -2286.49,916.391 -2286.5,916L-2286.5,910.1C-2286.53,907.755 -2287.3,905.479 -2288.7,903.6L-2296.5,893.5C-2298.78,890.593 -2300.02,886.997 -2300,883.3L-2300,873.3C-2300,871.763 -2300.62,870.289 -2301.7,869.2C-2302.8,868.122 -2303.41,866.64 -2303.4,865.1L-2303.4,841C-2303.41,840.556 -2303.78,840.196 -2304.22,840.196C-2304.25,840.196 -2304.27,840.197 -2304.3,840.2C-2304.3,840.2 -2304.31,840.2 -2304.31,840.2C-2304.74,840.2 -2305.1,840.557 -2305.1,840.99C-2305.1,840.993 -2305.1,840.997 -2305.1,841L-2305.1,865.8C-2305.09,867.075 -2305.6,868.3 -2306.5,869.2C-2307.4,870.1 -2307.91,871.325 -2307.9,872.6L-2307.9,885C-2307.88,888.402 -2308.93,891.726 -2310.9,894.5L-2317.9,904.5C-2319.07,906.168 -2319.7,908.16 -2319.7,910.2L-2319.7,913.5C-2319.68,914.787 -2320.32,915.999 -2321.4,916.7C-2322.48,917.401 -2323.12,918.613 -2323.1,919.9L-2323.1,921.4C-2323.11,923.435 -2324.17,925.327 -2325.9,926.4L-2326.6,926.8C-2327.92,927.61 -2328.72,929.054 -2328.7,930.6C-2328.69,932.195 -2329.58,933.666 -2331,934.4L-2331.8,934.9C-2333.72,935.923 -2334.91,937.929 -2334.9,940.1L-2334.9,991.7C-2334.9,991.713 -2334.9,991.727 -2334.9,991.74C-2334.9,997.643 -2339.76,1002.5 -2345.66,1002.5C-2345.67,1002.5 -2345.69,1002.5 -2345.7,1002.5L-2346.7,1002.5C-2346.71,1002.5 -2346.72,1002.5 -2346.73,1002.5C-2352.25,1002.5 -2356.8,997.954 -2356.8,992.43C-2356.8,992.42 -2356.8,992.41 -2356.8,992.4L-2356.8,889.5C-2356.8,889.487 -2356.8,889.473 -2356.8,889.46C-2356.8,880.375 -2364.28,872.9 -2373.36,872.9C-2373.37,872.9 -2373.39,872.9 -2373.4,872.9L-2409.4,872.9C-2418.5,872.911 -2425.99,880.398 -2426,889.5L-2426,935.6C-2426,935.613 -2426,935.627 -2426,935.64C-2426,944.725 -2433.47,952.2 -2442.56,952.2C-2442.57,952.2 -2442.59,952.2 -2442.6,952.2L-2453.2,952.2C-2462.3,952.211 -2469.79,959.698 -2469.8,968.8L-2469.8,1002.6C-2469.8,1002.61 -2469.8,1002.62 -2469.8,1002.63C-2469.8,1005.52 -2472.18,1007.9 -2475.07,1007.9C-2475.08,1007.9 -2475.09,1007.9 -2475.1,1007.9C-2478.03,1007.88 -2480.47,1010.27 -2480.5,1013.2L-2480.5,1076.3C-2480.52,1078.6 -2482.4,1080.48 -2484.7,1080.5C-2487,1080.48 -2488.88,1078.6 -2488.9,1076.3L-2488.9,1049.5C-2488.9,1049.5 -2488.9,1049.49 -2488.9,1049.49C-2488.9,1046.42 -2491.42,1043.9 -2494.49,1043.9L-2494.51,1043.9C-2497.58,1043.9 -2500.1,1041.38 -2500.1,1038.31C-2500.1,1038.31 -2500.1,1038.3 -2500.1,1038.3L-2500.1,752.6C-2500.12,743.487 -2507.63,736 -2516.74,736C-2516.76,736 -2516.78,736 -2516.8,736L-2596.4,736C-2666.7,736 -2723.5,785.6 -2723.5,856L-2723.5,895.7C-2723.5,895.713 -2723.5,895.727 -2723.5,895.74C-2723.5,904.825 -2730.97,912.3 -2740.06,912.3C-2740.07,912.3 -2740.09,912.3 -2740.1,912.3L-2746.6,912.3C-2766.9,912.3 -2783.2,947.2 -2783.2,966.4L-2783.2,1032.6C-2783.2,1032.61 -2783.2,1032.63 -2783.2,1032.64C-2783.2,1041.72 -2790.68,1049.2 -2799.76,1049.2C-2799.77,1049.2 -2799.79,1049.2 -2799.8,1049.2L-2826.2,1049.2C-2826.21,1049.2 -2826.23,1049.2 -2826.24,1049.2C-2835.33,1049.2 -2842.8,1041.72 -2842.8,1032.64C-2842.8,1032.63 -2842.8,1032.61 -2842.8,1032.6L-2842.8,970C-2842.81,960.898 -2850.3,953.411 -2859.4,953.4L-2866.1,953.4C-2866.11,953.4 -2866.13,953.4 -2866.14,953.4C-2875.22,953.4 -2882.7,960.875 -2882.7,969.96C-2882.7,969.973 -2882.7,969.987 -2882.7,970L-2882.7,1114.7C-2882.7,1119.47 -2886.63,1123.39 -2891.4,1123.4C-2896.17,1123.39 -2900.1,1119.47 -2900.1,1114.7L-2900.1,1033.6C-2900.1,1030.97 -2902.27,1028.8 -2904.9,1028.8C-2907.53,1028.8 -2909.7,1026.63 -2909.7,1024L-2909.7,970C-2909.7,969.98 -2909.7,969.96 -2909.7,969.94C-2909.7,960.827 -2917.19,953.322 -2926.3,953.3L-2928.6,953.3C-2937.7,953.289 -2945.19,945.802 -2945.2,936.7L-2945.2,877.6C-2945.2,868.478 -2952.68,860.96 -2961.8,860.9L-3005.6,860.9C-3014.7,860.911 -3022.19,868.398 -3022.2,877.5L-3022.2,1213.1C-3022.2,1213.11 -3022.2,1213.13 -3022.2,1213.14C-3022.2,1222.23 -3014.72,1229.7 -3005.64,1229.7C-3005.63,1229.7 -3005.61,1229.7 -3005.6,1229.7L1100,1229.7C1100.01,1229.7 1100.03,1229.7 1100.04,1229.7C1109.13,1229.7 1116.6,1222.23 1116.6,1213.14C1116.6,1213.13 1116.6,1213.11 1116.6,1213.1L1116.6,585.4C1116.27,576.255 1108.75,568.868 1099.6,568.7ZM436.6,887.7C436.6,888.797 435.697,889.7 434.6,889.7L430.9,889.7C430.58,889.676 430.324,889.42 430.3,889.1L430.3,887.7C430.3,886.603 431.203,885.7 432.3,885.7L434.6,885.7C435.668,885.772 436.528,886.632 436.6,887.7ZM436.6,878.1C436.6,879.197 435.697,880.1 434.6,880.1L432.4,880.1C431.336,879.899 430.619,878.868 430.8,877.8C430.926,876.976 431.576,876.326 432.4,876.2L434.7,876.2C435.742,876.2 436.6,877.058 436.6,878.1ZM436.6,868C436.6,869.097 435.697,870 434.6,870L432.4,870C431.336,869.799 430.619,868.768 430.8,867.7C430.926,866.876 431.576,866.226 432.4,866.1L434.7,866.1C435.742,866.1 436.6,866.958 436.6,868ZM436.6,857.9C436.6,858.997 435.697,859.9 434.6,859.9L432.4,859.9C432.373,859.901 432.346,859.902 432.32,859.902C431.222,859.902 430.32,858.999 430.32,857.902C430.32,857.038 430.879,856.268 431.7,856L434.7,856C434.741,855.997 434.783,855.996 434.824,855.996C435.801,855.996 436.604,856.799 436.604,857.776C436.604,857.817 436.603,857.859 436.6,857.9ZM436.6,847.7C436.6,848.797 435.697,849.7 434.6,849.7L432.4,849.7C431.336,849.499 430.619,848.468 430.8,847.4C430.926,846.576 431.576,845.926 432.4,845.8L434.7,845.8C435.742,845.8 436.6,846.658 436.6,847.7ZM436.6,837.6C436.6,838.697 435.697,839.6 434.6,839.6L432.4,839.6C432.373,839.601 432.346,839.602 432.32,839.602C431.222,839.602 430.32,838.699 430.32,837.602C430.32,836.738 430.879,835.968 431.7,835.7L434.7,835.7C435.742,835.7 436.6,836.558 436.6,837.6ZM436.6,828C436.6,829.097 435.697,830 434.6,830L432.4,830C431.336,829.799 430.619,828.768 430.8,827.7C430.926,826.876 431.576,826.226 432.4,826.1L434.7,826.1C435.742,826.1 436.6,826.958 436.6,828Z" style="fill:url(#_Linear2);fill-rule:nonzero;"/>
            <path d="M1001.5,-4.4L-1134.4,-4.4L-1134.4,1326.4L835.3,1326.4C927.1,1326.4 1001.5,1251.9 1001.5,1160.1L1001.5,-4.4Z" style="fill:url(#_Linear3);fill-rule:nonzero;"/>
            <g id="bg_circles">
                <path d="M1107.2,975.9C1274.5,808.4 1274.5,536.9 1107.2,369.5C939.9,202.1 668.7,202.1 501.5,369.5C334.3,536.9 334.2,808.5 501.5,975.9C668.8,1143.3 939.9,1143.3 1107.2,975.9Z" style="fill:url(#_Linear4);fill-rule:nonzero;"/>
                <path d="M591.6,1261C713.9,1138.5 713.9,940 591.6,817.5C469.3,695 270.9,695 148.6,817.5C26.3,940 26.3,1138.5 148.6,1261C270.9,1383.5 469.2,1383.4 591.6,1261Z" style="fill:url(#_Linear5);fill-rule:nonzero;"/>
            </g>
            <g id="mountain2">
                <path d="M859.5,1195.9L603.9,1195.9C603.9,1148.9 609.54,1104.73 619.46,1066.22C621.833,1056.99 624.447,1048.1 627.3,1039.55C650.43,970.31 688.5,925.1 731.6,925.1C737.585,925.106 743.539,925.968 749.28,927.66C787.47,938.84 820.28,985.72 839.95,1051.92C852.34,1093.61 859.5,1143 859.5,1195.9Z" style="fill:url(#_Linear6);fill-rule:nonzero;"/>
                <g>
                    <path d="M619.46,1066.22C690.7,1031 749.91,962.93 766.1,990.1C783.8,1019.8 610.1,1142.4 668.3,1136.4C726.5,1130.4 798.6,994.1 821.3,1015.8C842.16,1035.74 698.76,1165.13 705.36,1195.9" style="fill:none;fill-rule:nonzero;stroke:url(#_Linear7);stroke-width:1.44px;"/>
                    <path d="M729.13,1195.9C758.33,1174.65 802.13,1103.52 839.95,1051.9" style="fill:none;fill-rule:nonzero;stroke:url(#_Linear8);stroke-width:1.44px;"/>
                    <path d="M749.28,927.66L749.28,927.8C751.55,946.8 677.43,1001.4 627.28,1039.55" style="fill:none;fill-rule:nonzero;stroke:url(#_Linear9);stroke-width:1.44px;"/>
                </g>
                <path d="M842.9,1195.9L859.5,1195.9C859.5,1046.2 802.2,925.1 731.6,925.1C728.823,925.101 726.049,925.301 723.3,925.7C790,934.6 842.9,1052.1 842.9,1195.9Z" style="fill:rgb(201,217,131);fill-opacity:0.3;fill-rule:nonzero;"/>
            </g>
            <g id="mountain1">
                <path d="M505.2,902.2C423.3,902.2 356.9,1033 356.9,1194.3L653.5,1194.3C653.4,1033 587.1,902.2 505.2,902.2Z" style="fill:url(#_Linear10);fill-rule:nonzero;"/>
                <path d="M439.43,932.43C448.07,958.01 416.2,1016.43 440.6,1024.1C467.4,1032.5 505.1,900.7 537.7,913.3C570.3,925.9 397,1129.8 457.3,1137.4C517.6,1145 545.2,962.9 571.2,975.4C597.2,987.9 512.6,1086.2 541.8,1114.7C571,1143.2 586.2,1009 609.6,1024.1C633,1039.2 616.3,1114.7 593.7,1165.9" style="fill:none;fill-rule:nonzero;stroke:url(#_Linear11);stroke-width:1.44px;"/>
                <path d="M620.4,1194.3L653.6,1194.3C653.4,1033 587.2,902.2 505.3,902.2C499.718,902.2 494.152,902.803 488.7,904C562.7,920.2 620.3,1044 620.4,1194.3Z" style="fill:rgb(201,217,131);fill-opacity:0.2;fill-rule:nonzero;"/>
            </g>
            <g id="palm">
                <rect x="713.8" y="1015.3" width="2.8" height="177.6" style="fill:rgb(12,94,89);"/>
                <path d="M735.2,1004C729.3,1004 723.8,1008.3 720,1012.1C722.6,1008.4 726.2,1003.9 728.9,1003.1C731.669,1002.19 734.61,1001.91 737.5,1002.3C740.39,1002.69 733.1,996.1 726.5,999C723.6,1000.2 721.2,1004.3 719.4,1008.3C720.4,1004.6 721.2,1000.2 720.5,996.2C718.8,986 707.6,985.2 707.6,985.2C707.6,985.2 713.9,994 715,1004.3L715.4,1008.3C714.4,1002.4 712.1,995.3 706.4,991.4C692.2,981.9 683.2,998.5 683.2,998.5C683.2,998.5 691.3,993.4 702,998.8C710.5,1003.1 714,1012.1 715.2,1015.8C713.8,1013.1 707.9,1002.6 698.6,1001.1C684.5,998.8 680.9,1016.6 680.9,1016.6C680.9,1016.6 689,1010.2 699,1010.6C704.848,1010.78 710.475,1012.89 715,1016.6C712.217,1015.9 709.368,1015.5 706.5,1015.4C694,1015.3 691.4,1032 691.4,1032L715.1,1017.5C713.507,1020.35 712.072,1023.29 710.8,1026.3C709.2,1030.1 710.3,1038.8 710.3,1038.8C710.3,1038.8 714.1,1032.2 715.2,1028C715.983,1024.59 716.219,1021.08 715.9,1017.6L731.9,1035C731.9,1035 735.9,1024.4 723.7,1019.4L719.6,1017.7C723.21,1018.31 726.651,1019.67 729.7,1021.7C734.121,1024.65 738.038,1028.3 741.3,1032.5C744.562,1036.7 745.7,1019.7 735,1014.5C731.52,1013.03 727.639,1012.78 724,1013.8C727.002,1012 730.537,1011.29 734,1011.8C743.7,1013 746.5,1019.9 746.5,1019.9C746.5,1019.9 749.3,1004 735.2,1004Z" style="fill:url(#_Linear12);fill-rule:nonzero;"/>
            </g>
            <g id="palm1">
                <rect x="607.7" y="906.1" width="4.4" height="290" style="fill:rgb(12,94,89);"/>
                <path d="M640.4,881.1C629.7,881.1 619.6,888.8 612.6,895.8C617.3,889 623.9,880.9 628.9,879.2C633.992,877.54 639.396,877.061 644.7,877.8C650.004,878.539 636.6,866.5 624.7,871.8C619.4,874.1 614.9,881.6 611.7,888.8C613.5,882 614.8,874.1 613.7,866.7C610.8,848.3 590.2,846.7 590.2,846.7C590.2,846.7 601.7,862.7 603.8,881.5C604.1,884 604.3,886.4 604.4,888.7C602.6,877.8 598.3,864.8 587.9,857.9C562.1,840.7 545.9,871.1 545.9,871.1C545.9,871.1 560.7,861.9 580.1,871.7C595.4,879.4 601.9,896.1 604.1,902.7C601.5,897.6 591,878.8 573.8,875.9C548.1,871.6 541.5,904.3 541.5,904.3C541.5,904.3 556.2,892.5 574.4,893.3C588.5,893.9 598.7,899.7 603.7,904.3C598.68,902.919 593.506,902.179 588.3,902.1C565.5,901.8 560.8,932.3 560.8,932.3L604.1,905.8C602.3,909.3 598.4,916.7 596.3,921.9C593.4,929 595.2,944.6 595.2,944.6C595.2,944.6 602.2,932.6 604.2,924.8C606.2,917.3 605.7,909.5 605.4,905.8L634.7,937.6C634.7,937.6 641.9,918.3 619.9,908.9C617,907.7 614.4,906.6 612.4,905.8C618.946,906.859 625.187,909.315 630.7,913C638.707,918.327 645.77,924.951 651.6,932.6C657.43,940.249 659.5,909.2 639.9,900C633.5,896.9 626.1,897.4 619.9,898.8C625.403,895.525 631.848,894.186 638.2,895C655.9,897.1 660.8,909.9 660.8,909.9C660.8,909.9 666.1,881 640.4,881.1Z" style="fill:url(#_Linear13);fill-rule:nonzero;"/>
            </g>
            <g id="bush-1">
                <path d="M517.9,1162C515.194,1149.59 510.715,1137.63 504.6,1126.5C503.8,1125 502.8,1123.3 501.9,1121.8C494.946,1110.23 486.319,1099.75 476.3,1090.7C475.038,1089.49 473.702,1088.35 472.3,1087.3C461.511,1078.3 449.359,1071.08 436.3,1065.9C434.7,1065.2 433,1064.7 431.4,1064.1C417.892,1059.37 403.711,1056.83 389.4,1056.6L384.1,1056.6C369.789,1056.83 355.608,1059.37 342.1,1064.1C340.5,1064.7 338.8,1065.3 337.2,1065.9C324.141,1071.08 311.989,1078.3 301.2,1087.3C299.8,1088.4 298.5,1089.6 297.2,1090.7C287.126,1099.7 278.492,1110.18 271.6,1121.8C270.6,1123.3 269.8,1125 268.9,1126.5C262.785,1137.63 258.306,1149.59 255.6,1162C255.2,1163.8 254.9,1165.6 254.5,1167.3C253.103,1175.02 252.4,1182.85 252.4,1190.7L521,1190.7C520.988,1182.86 520.319,1175.03 519,1167.3C518.6,1165.6 518.3,1163.8 517.9,1162Z" style="fill:url(#_Linear14);fill-rule:nonzero;"/>
                <rect x="384.1" y="1056.4" width="5.2" height="134.4" style="fill:url(#_Linear15);fill-rule:nonzero;"/>
                <path d="M337.1,1065.9L370.5,1191L375.9,1191L341.9,1064.2C340.4,1064.7 338.7,1065.3 337.1,1065.9Z" style="fill:url(#_Linear16);fill-rule:nonzero;"/>
                <path d="M297.1,1090.7L354.9,1190.8L360.8,1190.8L301.1,1087.3C299.7,1088.4 298.4,1089.6 297.1,1090.7Z" style="fill:url(#_Linear17);fill-rule:nonzero;"/>
                <path d="M268.8,1126.5L333.2,1191L340.5,1191L271.5,1121.9C270.6,1123.4 269.7,1125 268.8,1126.5Z" style="fill:url(#_Linear18);fill-rule:nonzero;"/>
                <path d="M254.4,1167.4L295.1,1190.8L305.5,1190.8L255.5,1161.9C255.1,1163.8 254.8,1165.6 254.4,1167.4Z" style="fill:url(#_Linear19);fill-rule:nonzero;"/>
                <path d="M397.4,1191L402.7,1191L436.1,1065.9C434.5,1065.2 432.8,1064.7 431.2,1064.1L397.4,1191Z" style="fill:url(#_Linear20);fill-rule:nonzero;"/>
                <path d="M412.5,1191L418.5,1191L476.3,1090.9C475.038,1089.68 473.702,1088.55 472.3,1087.5L412.5,1191Z" style="fill:url(#_Linear21);fill-rule:nonzero;"/>
                <g opacity="0.3">
                    <path d="M432.9,1191L440.1,1191L504.5,1126.6C503.7,1125.1 502.7,1123.4 501.8,1121.9L432.9,1191Z" style="fill:url(#_Linear22);fill-rule:nonzero;"/>
                </g>
                <path d="M468,1191L478.4,1191L519,1167.5C518.7,1165.7 518.3,1163.9 517.9,1162.2L468,1191Z" style="fill:rgb(8,79,21);fill-rule:nonzero;"/>
            </g>
            <g id="bush-2">
                <path d="M618.5,1172.6C616.732,1164.71 613.871,1157.1 610,1150C609.5,1149 608.9,1148.1 608.4,1147C603.986,1139.62 598.491,1132.95 592.1,1127.2C591.3,1126.5 590.4,1125.7 589.5,1125C582.623,1119.3 574.896,1114.71 566.6,1111.4C565.555,1110.97 564.486,1110.61 563.4,1110.3C554.832,1107.21 545.806,1105.59 536.7,1105.5L533.4,1105.5C524.303,1105.69 515.293,1107.31 506.7,1110.3C505.6,1110.7 504.6,1111 503.6,1111.4C495.304,1114.71 487.577,1119.3 480.7,1125C479.876,1125.78 479.008,1126.52 478.1,1127.2C471.685,1132.93 466.188,1139.61 461.8,1147C461.3,1148 460.7,1148.9 460.2,1150C456.329,1157.1 453.468,1164.71 451.7,1172.6C451.4,1173.7 451.3,1174.9 451,1176C450.138,1180.95 449.669,1185.97 449.6,1191L620.3,1191C620.335,1185.97 619.866,1180.94 618.9,1176C618.971,1174.85 618.835,1173.7 618.5,1172.6Z" style="fill:url(#_Linear23);fill-rule:nonzero;"/>
                <rect x="533.4" y="1105.6" width="3.3" height="85.4" style="fill:url(#_Linear24);fill-rule:nonzero;"/>
                <path d="M503.7,1111.4L524.9,1190.8L528.3,1190.8L506.8,1110.2C505.795,1110.67 504.759,1111.07 503.7,1111.4Z" style="fill:url(#_Linear25);fill-rule:nonzero;"/>
                <path d="M478.2,1127.4L514.9,1191L518.7,1191L480.8,1125.2C479.889,1125.88 479.02,1126.61 478.2,1127.4Z" style="fill:url(#_Linear26);fill-rule:nonzero;"/>
                <path d="M460.1,1150L501.1,1190.9L505.8,1190.9L462,1147C461.4,1148.1 460.7,1149.1 460.1,1150Z" style="fill:url(#_Linear27);fill-rule:nonzero;"/>
                <path d="M451.1,1176L477,1191L483.6,1191L451.8,1172.6C451.5,1173.7 451.3,1174.9 451.1,1176Z" style="fill:url(#_Linear28);fill-rule:nonzero;"/>
                <path d="M541.9,1191L545.3,1191L566.5,1111.6C565.455,1111.17 564.386,1110.81 563.3,1110.5L541.9,1191Z" style="fill:url(#_Linear29);fill-rule:nonzero;"/>
                <path d="M551.5,1191L555.3,1191L592,1127.4C591.2,1126.7 590.3,1125.9 589.4,1125.2L551.5,1191Z" style="fill:url(#_Linear30);fill-rule:nonzero;"/>
                <path d="M564.5,1191L569.2,1191L610.2,1150.1C609.7,1149.1 609.1,1148.2 608.6,1147.1L564.5,1191Z" style="fill:url(#_Linear31);fill-rule:nonzero;"/>
                <path d="M586.7,1191L593.3,1191L619.2,1176C619.025,1174.86 618.791,1173.72 618.5,1172.6L586.7,1191Z" style="fill:url(#_Linear32);fill-rule:nonzero;"/>
            </g>
            <g id="palm2">
                <rect x="59.8" y="945.6" width="3.8" height="252.1" style="fill:rgb(12,94,89);"/>
                <path d="M35.2,923.9C44.5,923.9 53.3,930.6 59.4,936.7C55.3,930.8 49.6,923.8 45.2,922.3C40.786,920.855 36.098,920.444 31.5,921.1C26.902,921.756 38.5,911.2 48.9,915.9C53.6,917.9 57.4,924.4 60.2,930.7C58.6,924.8 57.5,917.9 58.5,911.5C61,895.5 79,894.2 79,894.2C79,894.2 69,908 67.1,924.4C66.8,926.5 66.7,928.7 66.6,930.7C68.2,921.2 71.9,909.9 80.9,903.9C103.4,889 117.4,915.4 117.4,915.4C117.4,915.4 104.5,907.4 87.6,915.9C74.3,922.6 68.6,937.1 66.8,942.8C69,938.3 78.2,921.9 93,919.4C115.3,915.7 121,944.1 121,944.1C121,944.1 108.2,933.8 92.4,934.5C80.2,935 71.3,940.1 66.9,944.1C71.262,942.874 75.769,942.235 80.3,942.2C100.1,941.9 104.2,968.5 104.2,968.5L66.7,945.4C68.3,948.5 71.6,954.9 73.5,959.4C76,965.5 74.4,979.1 74.4,979.1C74.4,979.1 68.3,968.7 66.6,961.9C65.336,956.497 64.965,950.923 65.5,945.4L40,973C40,973 33.8,956.2 52.9,948.1C55.4,947 57.7,946.1 59.4,945.4C53.707,946.327 48.283,948.477 43.5,951.7C36.508,956.328 30.354,962.11 25.3,968.8C20.246,975.49 18.4,948.4 35.4,940.4C41,937.7 47.4,938.1 52.8,939.3C48.007,936.483 42.418,935.323 36.9,936C21.5,937.9 17.2,948.9 17.2,948.9C17.2,948.9 13,923.7 35.2,923.9Z" style="fill:url(#_Linear33);fill-rule:nonzero;"/>
            </g>
            <g id="bush-3">
                <path d="M168.4,1181.3C166.773,1173.87 164.114,1166.7 160.5,1160C160,1159.1 159.4,1158.1 158.9,1157.2C154.731,1150.29 149.577,1144.02 143.6,1138.6C142.8,1137.9 142,1137.2 141.2,1136.6C134.733,1131.2 127.44,1126.88 119.6,1123.8C118.6,1123.4 117.6,1123.1 116.6,1122.7C108.496,1119.86 99.987,1118.34 91.4,1118.2L88.3,1118.2C79.708,1118.29 71.192,1119.81 63.1,1122.7C62.1,1123 61.1,1123.4 60.1,1123.8C52.271,1126.9 44.981,1131.22 38.5,1136.6C37.7,1137.3 36.9,1138 36.1,1138.6C30.094,1144 24.936,1150.27 20.8,1157.2C20.2,1158.1 19.7,1159.1 19.2,1160C15.496,1166.67 12.8,1173.84 11.2,1181.3C11,1182.4 10.8,1183.4 10.6,1184.5C9.799,1189.12 9.398,1193.81 9.4,1198.5L170.2,1198.5C170.202,1193.81 169.801,1189.12 169,1184.5C168.8,1183.4 168.6,1182.4 168.4,1181.3Z" style="fill:url(#_Linear34);fill-rule:nonzero;"/>
                <path d="M88.3,1118.1L88.3,1198.5L91.4,1198.5L91.4,1118.1L88.3,1118.1ZM60.1,1123.8L80.1,1198.6L83.3,1198.6L63,1122.7L62.3,1123C61.546,1123.21 60.81,1123.47 60.1,1123.8ZM70.8,1198.6L36.2,1138.7L36.4,1138.5C37.088,1137.85 37.823,1137.25 38.6,1136.7L74.3,1198.7L70.8,1198.6ZM19.2,1160.1L57.7,1198.7L62.1,1198.7L20.8,1157.3C20.6,1157.7 20.3,1158.2 20,1158.7C19.7,1159.2 19.5,1159.7 19.2,1160.1ZM34.9,1198.6L10.6,1184.6C10.685,1183.99 10.819,1183.39 11,1182.8L11.3,1181.3L41.2,1198.6L34.9,1198.6ZM96.2,1198.6L99.4,1198.6L119.4,1123.8C118.4,1123.4 117.4,1123.1 116.4,1122.7L96.2,1198.6ZM108.8,1198.6L105.2,1198.6L141,1136.6C141.8,1137.2 142.6,1137.9 143.4,1138.6L108.8,1198.6ZM117.4,1198.6L121.7,1198.6L160.2,1160C159.7,1159.1 159.1,1158.1 158.6,1157.2L117.4,1198.6ZM144.6,1198.6L138.4,1198.6L168.4,1181.4C168.7,1182.5 168.9,1183.5 169.1,1184.6L144.6,1198.6Z" style="fill:url(#_Linear35);"/>
            </g>
            <g id="bush-4">
                <path d="M64.6,1154.2C57.1,1154.2 54.2,1147.6 54.2,1138.4C54.2,1129.2 51.6,1121.7 41.5,1121.2C28.3,1120.7 29.5,1133.5 29.5,1149C29.5,1168.8 22.4,1156.1 12.5,1167.2C4,1176.6 14.9,1193.4 18.1,1198.3L60.8,1198.3C62.2,1195.7 65.7,1189.3 69.7,1181.6C78.7,1165.1 72.2,1154.2 64.6,1154.2Z" style="fill:url(#_Linear36);fill-rule:nonzero;"/>
                <path d="M44.4,1157.3L42.3,1157.3L42.3,1186.9L33.4,1175.1L31.7,1176.4L42.3,1190.6L42.3,1198.5L44.4,1198.5L44.4,1176L53.4,1164.8L51.7,1163.5L44.4,1172.6L44.4,1157.3Z" style="fill:white;fill-opacity:0.2;"/>
            </g>
            <g id="grass">
                <rect x="0" y="1189" width="749.71" height="159" style="fill:url(#_Linear37);"/>
                <path d="M636.7,1306.9C600,1292.9 563.9,1282.3 534.7,1281.6C523,1281.3 514.3,1282.5 508.2,1284.9C502.1,1287.3 498.3,1291.2 497.2,1296.3C496.1,1301.4 497.3,1306.9 500.2,1313C503.1,1319.1 507.7,1325.8 513.5,1332.7C517.63,1337.64 522.37,1342.78 527.58,1348L532.17,1348C526.17,1342 520.66,1336.2 516,1330.6C510.995,1324.78 506.667,1318.4 503.1,1311.6C500.3,1305.9 499.4,1301 500.3,1297.1C501.2,1293.2 503.9,1290.3 509.4,1288.1C514.9,1285.9 523.2,1284.7 534.6,1285C563.2,1285.7 598.9,1296 635.5,1310C665.33,1321.39 695.67,1335.16 723.32,1348L731.09,1348C701.81,1334.33 669,1319.27 636.7,1306.9ZM684.6,1223.4C685.5,1222.8 687.1,1222.3 689.8,1222.2C695.3,1221.9 704.1,1223 717.2,1225.7C728.342,1228.08 739.229,1231.53 749.71,1236L749.71,1232.34C739.441,1228.04 728.791,1224.71 717.9,1222.39C704.8,1219.69 695.5,1218.59 689.6,1218.89C686.7,1219.09 684.3,1219.59 682.7,1220.69C681.006,1221.75 680.098,1223.72 680.4,1225.69C680.84,1227.87 681.762,1229.92 683.1,1231.69C684.941,1234.21 686.981,1236.59 689.2,1238.79C694.2,1243.99 701.2,1250.09 709.4,1256.99C714.2,1261.09 719.5,1265.39 725,1269.99C731.6,1275.49 738.6,1281.29 745.76,1287.35L749.76,1290.71L749.76,1286.28C742,1279.68 734.39,1273.4 727.25,1267.49C721.75,1262.89 716.45,1258.59 711.65,1254.49C703.45,1247.59 696.65,1241.49 691.75,1236.49C689.663,1234.42 687.757,1232.18 686.05,1229.79C684.966,1228.49 684.211,1226.94 683.85,1225.29C683.834,1224.92 683.867,1224.55 683.95,1224.19C684.114,1223.89 684.335,1223.62 684.6,1223.4ZM181.4,1228.9C178.1,1223.1 172.2,1220.1 163,1220.1C153.8,1220.1 145,1224.2 136.7,1231.1C128.4,1238 120.4,1247.8 112.5,1259.5C106.57,1268.33 100.65,1278.29 94.73,1288.94L92.88,1292.29C86.32,1304.2 79.75,1316.9 73.1,1329.8L65.3,1344.8L63.63,1348L67.06,1348L68,1346.2C70.6,1341.1 73.2,1336.1 75.8,1331.1C83.33,1316.48 90.74,1302.19 98.11,1289.01C103.74,1278.93 109.36,1269.51 115,1261.1C122.8,1249.6 130.7,1240.1 138.6,1233.4C146.5,1226.7 154.5,1223.1 162.8,1223.1C171.1,1223.1 175.8,1225.8 178.2,1230.1C180.7,1234.6 181.1,1241.3 179.7,1249.9C178.4,1257.8 175.7,1266.9 172.26,1276.79C170.79,1280.99 169.2,1285.33 167.51,1289.79C165.25,1295.79 162.84,1301.9 160.4,1308.13L160.4,1308.23L158.2,1313.83C153.71,1325.31 149.2,1336.93 145.58,1348.03L149.41,1348.03C152.9,1337.5 157.15,1326.46 161.5,1315.43C162.3,1313.43 163,1311.53 163.8,1309.63C166.45,1302.94 169.07,1296.28 171.51,1289.8C176.92,1275.47 181.41,1262.02 183.2,1250.93C184.7,1242.1 184.5,1234.4 181.4,1228.9ZM335.48,1189C334.22,1190.52 332.96,1192.09 331.71,1193.69C330.9,1194.69 330.1,1195.75 329.3,1196.8C310.03,1222.1 291.54,1255.3 273.45,1288.12L272.8,1289.3L272.7,1289.6C269.673,1295.07 266.653,1300.51 263.64,1305.94C255.47,1320.6 247.33,1334.88 239.19,1348L242.83,1348C251.13,1334.54 259.4,1320 267.67,1305.06C270.277,1300.39 272.887,1295.67 275.5,1290.9L275.8,1290.4L277.15,1287.96C294.92,1255.74 312.89,1223.52 331.71,1198.79L332,1198.4C334.507,1195.12 337.02,1191.99 339.54,1189L335.48,1189ZM414.41,1189C413.21,1198.84 410.51,1210.17 407.1,1222.5C405.3,1229 403.3,1235.7 401.3,1242.5L401.2,1242.8C399.2,1249.5 397.2,1256.4 395.3,1263.2C393.89,1268.2 392.54,1273.26 391.3,1278.27C389.09,1287.15 387.22,1295.93 386.01,1304.27C386.01,1304.38 386.01,1304.49 385.96,1304.6C384.1,1317.6 383.73,1329.85 386.11,1340.6C386.662,1343.12 387.397,1345.59 388.31,1348L391.9,1348C390.827,1345.38 389.994,1342.67 389.41,1339.9C387.33,1330.24 387.49,1319.07 389.12,1306.9C389.21,1306.22 389.31,1305.52 389.41,1304.83C390.801,1295.74 392.654,1286.73 394.96,1277.83C396.09,1273.3 397.33,1268.74 398.61,1264.16C400.51,1257.36 402.51,1250.46 404.51,1243.76L404.61,1243.46C406.61,1236.66 408.61,1229.96 410.41,1223.46C413.87,1210.95 416.69,1199.19 417.87,1189.06L414.41,1189Z" style="fill:url(#_Linear38);"/>
                <path d="M749.71,1201L749.71,1348L0,1348L0,1286.06C29.24,1287.31 60.7,1288.3 94.73,1288.94L98.11,1289.01C120.11,1289.41 143.243,1289.66 167.51,1289.76L188.7,1289.76C219.47,1289.76 247.58,1289.17 273.45,1288.08L277.15,1287.92C296.54,1287.07 314.66,1285.92 331.71,1284.54C353.16,1282.8 372.89,1280.67 391.29,1278.23L394.95,1277.73C402.87,1276.65 410.553,1275.52 418,1274.33C542.26,1254.55 605.91,1220.41 749.71,1201Z" style="fill:url(#_Linear39);fill-rule:nonzero;"/>
            </g>
            <g>
                <path d="M331,1348C329.907,1342.84 328.089,1337.85 325.6,1333.2C325.271,1332.55 324.904,1331.91 324.5,1331.3C321.657,1326.48 318.119,1322.1 314,1318.3C313.492,1317.81 312.958,1317.34 312.4,1316.9C307.961,1313.18 302.967,1310.18 297.6,1308C296.9,1307.7 296.2,1307.5 295.6,1307.3C290.079,1305.32 284.266,1304.27 278.4,1304.2L276.3,1304.2C270.439,1304.32 264.634,1305.37 259.1,1307.3C258.4,1307.5 257.8,1307.8 257.1,1308C251.744,1310.2 246.754,1313.2 242.3,1316.9C241.7,1317.4 241.2,1317.9 240.7,1318.3C236.581,1322.1 233.043,1326.48 230.2,1331.3C229.8,1331.9 229.5,1332.6 229.1,1333.2C226.595,1337.85 224.776,1342.83 223.7,1348C223.519,1348.72 223.385,1349.46 223.3,1350.2C222.732,1353.43 222.464,1356.72 222.5,1360L332.5,1360C332.482,1356.72 332.215,1353.44 331.7,1350.2C331.391,1349.49 331.156,1348.76 331,1348Z" style="fill:rgb(244,246,213);fill-rule:nonzero;"/>
                <path d="M421.2,1356.3C419.5,1348.54 416.705,1341.07 412.9,1334.1C412.4,1333.2 411.8,1332.1 411.2,1331.2C406.886,1323.96 401.49,1317.41 395.2,1311.8C394.439,1311.02 393.601,1310.32 392.7,1309.7C385.948,1304.08 378.356,1299.56 370.2,1296.3C369.189,1295.87 368.154,1295.51 367.1,1295.2C358.654,1292.19 349.766,1290.6 340.8,1290.5L337.5,1290.5C328.534,1290.61 319.648,1292.2 311.2,1295.2C310.2,1295.5 309.1,1296 308.1,1296.3C299.925,1299.52 292.327,1304.05 285.6,1309.7C284.7,1310.4 283.9,1311.2 283.1,1311.8C276.81,1317.41 271.414,1323.96 267.1,1331.2C266.5,1332.1 266,1333.2 265.4,1334.1C261.595,1341.07 258.8,1348.54 257.1,1356.3C256.8,1357.4 256.7,1358.5 256.4,1359.6C255.512,1364.45 255.077,1369.37 255.1,1374.3L422.9,1374.3C422.914,1369.37 422.479,1364.45 421.6,1359.6C421.665,1358.49 421.529,1357.37 421.2,1356.3Z" style="fill:white;fill-rule:nonzero;"/>
            </g>
        </g>
    </g>
    <defs>
        <linearGradient id="_Linear1" x1="0" y1="0" x2="1" y2="0" gradientUnits="userSpaceOnUse" gradientTransform="matrix(-1640.44,-1352.75,1352.75,-1640.44,759.687,1352.46)"><stop offset="0" style="stop-color:rgb(255,237,186);stop-opacity:1"/><stop offset="1" style="stop-color:rgb(238,77,71);stop-opacity:1"/></linearGradient>
        <linearGradient id="_Linear2" x1="0" y1="0" x2="1" y2="0" gradientUnits="userSpaceOnUse" gradientTransform="matrix(1.125e-13,1837.27,-1837.27,1.125e-13,-956.595,-355.621)"><stop offset="0" style="stop-color:rgb(244,169,132);stop-opacity:1"/><stop offset="1" style="stop-color:rgb(244,169,132);stop-opacity:0"/></linearGradient>
        <linearGradient id="_Linear3" x1="0" y1="0" x2="1" y2="0" gradientUnits="userSpaceOnUse" gradientTransform="matrix(7.05161e-14,-1151.62,1151.62,7.05161e-14,-66.942,770.467)"><stop offset="0" style="stop-color:rgb(255,237,186);stop-opacity:0"/><stop offset="0.1" style="stop-color:rgb(254,224,176);stop-opacity:0.07"/><stop offset="0.3" style="stop-color:rgb(250,191,150);stop-opacity:0.24"/><stop offset="0.57" style="stop-color:rgb(245,137,109);stop-opacity:0.52"/><stop offset="0.91" style="stop-color:rgb(237,63,52);stop-opacity:0.89"/><stop offset="1" style="stop-color:rgb(235,42,36);stop-opacity:1"/></linearGradient>
        <linearGradient id="_Linear4" x1="0" y1="0" x2="1" y2="0" gradientUnits="userSpaceOnUse" gradientTransform="matrix(0.2672,522.309,-522.309,0.2672,805.596,221.016)"><stop offset="0" style="stop-color:white;stop-opacity:0.56"/><stop offset="1" style="stop-color:white;stop-opacity:0"/></linearGradient>
        <linearGradient id="_Linear5" x1="0" y1="0" x2="1" y2="0" gradientUnits="userSpaceOnUse" gradientTransform="matrix(0.167,381.996,-381.996,0.167,369.028,712.576)"><stop offset="0" style="stop-color:white;stop-opacity:0.2"/><stop offset="1" style="stop-color:white;stop-opacity:0"/></linearGradient>
        <linearGradient id="_Linear6" x1="0" y1="0" x2="1" y2="0" gradientUnits="userSpaceOnUse" gradientTransform="matrix(317.6,0,0,317.6,548.68,1060.5)"><stop offset="0" style="stop-color:rgb(44,167,127);stop-opacity:1"/><stop offset="0.24" style="stop-color:rgb(44,167,127);stop-opacity:1"/><stop offset="1" style="stop-color:rgb(27,136,119);stop-opacity:1"/></linearGradient>
        <linearGradient id="_Linear7" x1="0" y1="0" x2="1" y2="0" gradientUnits="userSpaceOnUse" gradientTransform="matrix(86.04,0,0,86.04,671.4,1089.59)"><stop offset="0" style="stop-color:white;stop-opacity:0.2"/><stop offset="1" style="stop-color:white;stop-opacity:0"/></linearGradient>
        <linearGradient id="_Linear8" x1="0" y1="0" x2="1" y2="0" gradientUnits="userSpaceOnUse" gradientTransform="matrix(47.01,0,0,47.01,757.09,1123.99)"><stop offset="0" style="stop-color:white;stop-opacity:0.2"/><stop offset="1" style="stop-color:white;stop-opacity:0"/></linearGradient>
        <linearGradient id="_Linear9" x1="0" y1="0" x2="1" y2="0" gradientUnits="userSpaceOnUse" gradientTransform="matrix(51.8,0,0,51.8,658.14,983.82)"><stop offset="0" style="stop-color:white;stop-opacity:0.2"/><stop offset="1" style="stop-color:white;stop-opacity:0"/></linearGradient>
        <linearGradient id="_Linear10" x1="0" y1="0" x2="1" y2="0" gradientUnits="userSpaceOnUse" gradientTransform="matrix(2.15314e-14,351.635,-351.635,2.15314e-14,505.641,902.802)"><stop offset="0" style="stop-color:rgb(44,167,127);stop-opacity:1"/><stop offset="0.42" style="stop-color:rgb(44,167,127);stop-opacity:1"/><stop offset="1" style="stop-color:rgb(27,136,119);stop-opacity:1"/></linearGradient>
        <linearGradient id="_Linear11" x1="0" y1="0" x2="1" y2="0" gradientUnits="userSpaceOnUse" gradientTransform="matrix(81.7,0,0,81.7,508.87,1038.96)"><stop offset="0" style="stop-color:white;stop-opacity:0.2"/><stop offset="1" style="stop-color:white;stop-opacity:0"/></linearGradient>
        <linearGradient id="_Linear12" x1="0" y1="0" x2="1" y2="0" gradientUnits="userSpaceOnUse" gradientTransform="matrix(4.34699e-15,70.9917,-70.9917,4.34699e-15,713.703,966.962)"><stop offset="0" style="stop-color:rgb(211,216,108);stop-opacity:1"/><stop offset="1" style="stop-color:rgb(130,166,55);stop-opacity:1"/></linearGradient>
        <linearGradient id="_Linear13" x1="0" y1="0" x2="1" y2="0" gradientUnits="userSpaceOnUse" gradientTransform="matrix(7.95772e-15,129.959,-129.959,7.95772e-15,601.549,813.773)"><stop offset="0" style="stop-color:rgb(211,216,108);stop-opacity:1"/><stop offset="1" style="stop-color:rgb(130,166,55);stop-opacity:1"/></linearGradient>
        <linearGradient id="_Linear14" x1="0" y1="0" x2="1" y2="0" gradientUnits="userSpaceOnUse" gradientTransform="matrix(1.0912e-14,178.206,-178.206,1.0912e-14,387.095,1012.61)"><stop offset="0" style="stop-color:rgb(211,216,108);stop-opacity:1"/><stop offset="1" style="stop-color:rgb(130,166,55);stop-opacity:1"/></linearGradient>
        <linearGradient id="_Linear15" x1="0" y1="0" x2="1" y2="0" gradientUnits="userSpaceOnUse" gradientTransform="matrix(8.23279e-15,134.452,-134.452,8.23279e-15,387.01,1055.42)"><stop offset="0" style="stop-color:rgb(8,79,21);stop-opacity:0"/><stop offset="1" style="stop-color:rgb(8,79,21);stop-opacity:0.3"/></linearGradient>
        <linearGradient id="_Linear16" x1="0" y1="0" x2="1" y2="0" gradientUnits="userSpaceOnUse" gradientTransform="matrix(7.77059e-15,126.903,-126.903,7.77059e-15,356.307,1063.4)"><stop offset="0" style="stop-color:rgb(8,79,21);stop-opacity:0"/><stop offset="1" style="stop-color:rgb(8,79,21);stop-opacity:0.3"/></linearGradient>
        <linearGradient id="_Linear17" x1="0" y1="0" x2="1" y2="0" gradientUnits="userSpaceOnUse" gradientTransform="matrix(6.30407e-15,102.953,-102.953,6.30407e-15,329.226,1088.34)"><stop offset="0" style="stop-color:rgb(8,79,21);stop-opacity:0"/><stop offset="1" style="stop-color:rgb(8,79,21);stop-opacity:0.3"/></linearGradient>
        <linearGradient id="_Linear18" x1="0" y1="0" x2="1" y2="0" gradientUnits="userSpaceOnUse" gradientTransform="matrix(4.23348e-15,69.138,-69.138,4.23348e-15,304.768,1122.32)"><stop offset="0" style="stop-color:rgb(8,79,21);stop-opacity:0"/><stop offset="1" style="stop-color:rgb(8,79,21);stop-opacity:0.3"/></linearGradient>
        <linearGradient id="_Linear19" x1="0" y1="0" x2="1" y2="0" gradientUnits="userSpaceOnUse" gradientTransform="matrix(1.77213e-15,28.9411,-28.9411,1.77213e-15,279.943,1162.77)"><stop offset="0" style="stop-color:rgb(8,79,21);stop-opacity:0"/><stop offset="1" style="stop-color:rgb(8,79,21);stop-opacity:0.3"/></linearGradient>
        <linearGradient id="_Linear20" x1="0" y1="0" x2="1" y2="0" gradientUnits="userSpaceOnUse" gradientTransform="matrix(7.72406e-15,126.143,-126.143,7.72406e-15,416.754,1063.4)"><stop offset="0" style="stop-color:rgb(8,79,21);stop-opacity:0"/><stop offset="1" style="stop-color:rgb(8,79,21);stop-opacity:0.3"/></linearGradient>
        <linearGradient id="_Linear21" x1="0" y1="0" x2="1" y2="0" gradientUnits="userSpaceOnUse" gradientTransform="matrix(6.30407e-15,102.953,-102.953,6.30407e-15,444.301,1088.43)"><stop offset="0" style="stop-color:rgb(8,79,21);stop-opacity:0"/><stop offset="1" style="stop-color:rgb(8,79,21);stop-opacity:0.3"/></linearGradient>
        <linearGradient id="_Linear22" x1="0" y1="0" x2="1" y2="0" gradientUnits="userSpaceOnUse" gradientTransform="matrix(4.23348e-15,69.138,-69.138,4.23348e-15,468.55,1122.32)"><stop offset="0" style="stop-color:rgb(8,79,21);stop-opacity:0"/><stop offset="1" style="stop-color:rgb(8,79,21);stop-opacity:1"/></linearGradient>
        <linearGradient id="_Linear23" x1="0" y1="0" x2="1" y2="0" gradientUnits="userSpaceOnUse" gradientTransform="matrix(6.94332e-15,113.393,-113.393,6.94332e-15,534.628,1078.7)"><stop offset="0" style="stop-color:rgb(211,216,108);stop-opacity:1"/><stop offset="1" style="stop-color:rgb(130,166,55);stop-opacity:1"/></linearGradient>
        <linearGradient id="_Linear24" x1="0" y1="0" x2="1" y2="0" gradientUnits="userSpaceOnUse" gradientTransform="matrix(5.20223e-15,84.9588,-84.9588,5.20223e-15,535.175,1105.66)"><stop offset="0" style="stop-color:rgb(8,79,21);stop-opacity:0"/><stop offset="1" style="stop-color:rgb(8,79,21);stop-opacity:0.3"/></linearGradient>
        <linearGradient id="_Linear25" x1="0" y1="0" x2="1" y2="0" gradientUnits="userSpaceOnUse" gradientTransform="matrix(4.93906e-15,80.661,-80.661,4.93906e-15,516.012,1111.11)"><stop offset="0" style="stop-color:rgb(8,79,21);stop-opacity:0"/><stop offset="1" style="stop-color:rgb(8,79,21);stop-opacity:0.3"/></linearGradient>
        <linearGradient id="_Linear26" x1="0" y1="0" x2="1" y2="0" gradientUnits="userSpaceOnUse" gradientTransform="matrix(4.03203e-15,65.8481,-65.8481,4.03203e-15,498.255,1125.34)"><stop offset="0" style="stop-color:rgb(8,79,21);stop-opacity:0"/><stop offset="1" style="stop-color:rgb(8,79,21);stop-opacity:0.3"/></linearGradient>
        <linearGradient id="_Linear27" x1="0" y1="0" x2="1" y2="0" gradientUnits="userSpaceOnUse" gradientTransform="matrix(2.68836e-15,43.9043,-43.9043,2.68836e-15,483.056,1146.28)"><stop offset="0" style="stop-color:rgb(8,79,21);stop-opacity:0"/><stop offset="1" style="stop-color:rgb(8,79,21);stop-opacity:0.3"/></linearGradient>
        <linearGradient id="_Linear28" x1="0" y1="0" x2="1" y2="0" gradientUnits="userSpaceOnUse" gradientTransform="matrix(1.12586e-15,18.3867,-18.3867,1.12586e-15,467.341,1171.99)"><stop offset="0" style="stop-color:rgb(8,79,21);stop-opacity:0"/><stop offset="1" style="stop-color:rgb(8,79,21);stop-opacity:0.3"/></linearGradient>
        <linearGradient id="_Linear29" x1="0" y1="0" x2="1" y2="0" gradientUnits="userSpaceOnUse" gradientTransform="matrix(4.90135e-15,80.0452,-80.0452,4.90135e-15,554.202,1110.78)"><stop offset="0" style="stop-color:rgb(8,79,21);stop-opacity:0"/><stop offset="1" style="stop-color:rgb(8,79,21);stop-opacity:0.3"/></linearGradient>
        <linearGradient id="_Linear30" x1="0" y1="0" x2="1" y2="0" gradientUnits="userSpaceOnUse" gradientTransform="matrix(4.03203e-15,65.8481,-65.8481,4.03203e-15,571.757,1125.34)"><stop offset="0" style="stop-color:rgb(8,79,21);stop-opacity:0"/><stop offset="1" style="stop-color:rgb(8,79,21);stop-opacity:0.3"/></linearGradient>
        <linearGradient id="_Linear31" x1="0" y1="0" x2="1" y2="0" gradientUnits="userSpaceOnUse" gradientTransform="matrix(2.68836e-15,43.9043,-43.9043,2.68836e-15,587.427,1146.37)"><stop offset="0" style="stop-color:rgb(8,79,21);stop-opacity:0"/><stop offset="1" style="stop-color:rgb(8,79,21);stop-opacity:0.3"/></linearGradient>
        <linearGradient id="_Linear32" x1="0" y1="0" x2="1" y2="0" gradientUnits="userSpaceOnUse" gradientTransform="matrix(1.12586e-15,18.3867,-18.3867,1.12586e-15,602.911,1171.99)"><stop offset="0" style="stop-color:rgb(8,79,21);stop-opacity:0"/><stop offset="1" style="stop-color:rgb(8,79,21);stop-opacity:0.3"/></linearGradient>
        <linearGradient id="_Linear33" x1="0" y1="0" x2="1" y2="0" gradientUnits="userSpaceOnUse" gradientTransform="matrix(6.91571e-15,112.942,-112.942,6.91571e-15,68.6742,865.587)"><stop offset="0" style="stop-color:rgb(211,216,108);stop-opacity:1"/><stop offset="1" style="stop-color:rgb(130,166,55);stop-opacity:1"/></linearGradient>
        <linearGradient id="_Linear34" x1="0" y1="0" x2="1" y2="0" gradientUnits="userSpaceOnUse" gradientTransform="matrix(6.53122e-15,106.663,-106.663,6.53122e-15,90.1136,1090.97)"><stop offset="0" style="stop-color:rgb(211,216,108);stop-opacity:1"/><stop offset="1" style="stop-color:rgb(130,166,55);stop-opacity:1"/></linearGradient>
        <linearGradient id="_Linear35" x1="0" y1="0" x2="1" y2="0" gradientUnits="userSpaceOnUse" gradientTransform="matrix(1.14345e-14,186.739,-186.739,1.14345e-14,90.0974,1118.15)"><stop offset="0" style="stop-color:rgb(8,79,21);stop-opacity:0"/><stop offset="1" style="stop-color:rgb(8,79,21);stop-opacity:1"/></linearGradient>
        <linearGradient id="_Linear36" x1="0" y1="0" x2="1" y2="0" gradientUnits="userSpaceOnUse" gradientTransform="matrix(5.6835e-15,92.8186,-92.8186,5.6835e-15,41.8652,1121.23)"><stop offset="0" style="stop-color:rgb(44,167,127);stop-opacity:1"/><stop offset="0.42" style="stop-color:rgb(44,167,127);stop-opacity:1"/><stop offset="1" style="stop-color:rgb(27,136,119);stop-opacity:1"/></linearGradient>
        <linearGradient id="_Linear37" x1="0" y1="0" x2="1" y2="0" gradientUnits="userSpaceOnUse" gradientTransform="matrix(3657.64,0,0,3657.64,-2195.33,1268.5)"><stop offset="0" style="stop-color:rgb(238,239,153);stop-opacity:1"/><stop offset="0.28" style="stop-color:rgb(238,239,153);stop-opacity:1"/><stop offset="0.77" style="stop-color:rgb(185,208,121);stop-opacity:1"/><stop offset="1" style="stop-color:rgb(185,208,121);stop-opacity:1"/></linearGradient>
        <linearGradient id="_Linear38" x1="0" y1="0" x2="1" y2="0" gradientUnits="userSpaceOnUse" gradientTransform="matrix(9.5871e-15,156.569,-156.569,9.5871e-15,407.273,1226.79)"><stop offset="0" style="stop-color:white;stop-opacity:0.7"/><stop offset="1" style="stop-color:white;stop-opacity:0"/></linearGradient>
        <linearGradient id="_Linear39" x1="0" y1="0" x2="1" y2="0" gradientUnits="userSpaceOnUse" gradientTransform="matrix(1057.6,0,0,1057.6,-281.7,1274.48)"><stop offset="0" style="stop-color:rgb(130,166,55);stop-opacity:0.1"/><stop offset="0.16" style="stop-color:rgb(130,166,55);stop-opacity:0.1"/><stop offset="0.89" style="stop-color:rgb(27,136,119);stop-opacity:0.1"/><stop offset="1" style="stop-color:rgb(27,136,119);stop-opacity:0.1"/></linearGradient>
    </defs>
</svg>
