<?xml version="1.0" encoding="utf-8"?>
<!-- Generator: Adobe Illustrator 24.0.1, SVG Export Plug-In . SVG Version: 6.00 Build 0)  -->
<svg version="1.1" id="hero-large" xmlns="http://www.w3.org/2000/svg" xmlns:xlink="http://www.w3.org/1999/xlink" x="0px" y="0px"
	 viewBox="0 0 1588 902" style="enable-background:new 0 0 1588 902;" xml:space="preserve">
<style type="text/css">
	.st0{fill:url(#SVGID_1_);}
	.st1{filter:url(#Adobe_OpacityMaskFilter);}
	.st2{fill:url(#SVGID_2_);}
	.st3{mask:url(#mask_1_);}
	.st4{fill:url(#SVGID_3_);}
	.st5{opacity:0.2;fill:url(#SVGID_4_);enable-background:new    ;}
	.st6{fill:url(#SVGID_5_);}
	.st7{opacity:0.56;fill:url(#SVGID_6_);enable-background:new    ;}
	.st8{opacity:0.2;fill:url(#SVGID_7_);enable-background:new    ;}
	.st9{fill:url(#SVGID_8_);}
	.st10{fill:url(#SVGID_9_);}
	.st11{filter:url(#Adobe_OpacityMaskFilter_1_);}
	.st12{fill:url(#SVGID_10_);}
	.st13{mask:url(#mask-2_1_);}
	.st14{opacity:0.2;fill:none;stroke:url(#SVGID_11_);stroke-width:2;enable-background:new    ;}
	.st15{opacity:0.3;fill:#C9D983;enable-background:new    ;}
	.st16{fill:url(#SVGID_12_);}
	.st17{filter:url(#Adobe_OpacityMaskFilter_2_);}
	.st18{fill:url(#SVGID_13_);}
	.st19{mask:url(#mask-3_1_);}
	.st20{opacity:0.2;fill:none;stroke:url(#SVGID_14_);stroke-width:2;enable-background:new    ;}
	.st21{opacity:0.3;fill-rule:evenodd;clip-rule:evenodd;fill:#C9D983;enable-background:new    ;}
	.st22{fill:url(#SVGID_15_);}
	.st23{filter:url(#Adobe_OpacityMaskFilter_3_);}
	.st24{fill:url(#SVGID_16_);}
	.st25{mask:url(#mask-4_1_);}
	.st26{opacity:0.2;fill:none;stroke:url(#SVGID_17_);stroke-width:2;enable-background:new    ;}
	.st27{opacity:0.2;fill:#C9D983;enable-background:new    ;}
	.st28{fill:#0C5E59;}
	.st29{fill:url(#SVGID_18_);}
	.st30{fill:url(#SVGID_19_);}
	.st31{clip-path:url(#SVGID_21_);}
	.st32{fill-rule:evenodd;clip-rule:evenodd;fill:url(#SVGID_22_);}
	.st33{fill:#F9F8EF;}
	.st34{fill:url(#SVGID_23_);}
	.st35{opacity:0.3;fill:url(#SVGID_24_);enable-background:new    ;}
	.st36{opacity:0.3;fill:url(#SVGID_25_);enable-background:new    ;}
	.st37{opacity:0.3;fill:url(#SVGID_26_);enable-background:new    ;}
	.st38{opacity:0.3;fill:url(#SVGID_27_);enable-background:new    ;}
	.st39{opacity:0.3;fill:url(#SVGID_28_);enable-background:new    ;}
	.st40{opacity:0.3;fill:url(#SVGID_29_);enable-background:new    ;}
	.st41{opacity:0.3;fill:url(#SVGID_30_);enable-background:new    ;}
	.st42{opacity:0.3;}
	.st43{fill:url(#SVGID_31_);}
	.st44{fill:#084F15;}
	.st45{fill:url(#SVGID_32_);}
	.st46{opacity:0.3;fill:url(#SVGID_33_);enable-background:new    ;}
	.st47{opacity:0.3;fill:url(#SVGID_34_);enable-background:new    ;}
	.st48{opacity:0.3;fill:url(#SVGID_35_);enable-background:new    ;}
	.st49{opacity:0.3;fill:url(#SVGID_36_);enable-background:new    ;}
	.st50{opacity:0.3;fill:url(#SVGID_37_);enable-background:new    ;}
	.st51{opacity:0.3;fill:url(#SVGID_38_);enable-background:new    ;}
	.st52{opacity:0.3;fill:url(#SVGID_39_);enable-background:new    ;}
	.st53{opacity:0.3;fill:url(#SVGID_40_);enable-background:new    ;}
	.st54{opacity:0.3;fill:url(#SVGID_41_);enable-background:new    ;}
	.st55{fill:url(#SVGID_42_);}
	.st56{filter:url(#Adobe_OpacityMaskFilter_4_);}
	.st57{fill:url(#SVGID_43_);}
	.st58{mask:url(#mask-5_1_);}
	.st59{opacity:0.7;fill-rule:evenodd;clip-rule:evenodd;fill:url(#SVGID_44_);enable-background:new    ;}
	.st60{opacity:0.1;fill:url(#SVGID_45_);enable-background:new    ;}
	.st61{fill:url(#SVGID_46_);}
	.st62{fill:url(#SVGID_47_);}
	.st63{fill-rule:evenodd;clip-rule:evenodd;fill:url(#SVGID_48_);}
	.st64{fill:url(#SVGID_49_);}
	.st65{opacity:0.2;fill-rule:evenodd;clip-rule:evenodd;fill:#FFFFFF;enable-background:new    ;}
	.st66{fill:#FFFFFF;}
	.st67{fill:#F4F6D5;}
</style>
<title>hero-large-bg</title>
<linearGradient id="SVGID_1_" gradientUnits="userSpaceOnUse" x1="1144.1405" y1="1637.6294" x2="158.3705" y2="824.8094" gradientTransform="matrix(1 0 0 1 0 -824)">
	<stop  offset="0" style="stop-color:#FFEDBA"/>
	<stop  offset="1" style="stop-color:#EE4D47"/>
</linearGradient>
<path class="st0" d="M1285,0H0v800h1185c55.2,0,100-44.8,100-100l0,0V0z"/>
<defs>
	<filter id="Adobe_OpacityMaskFilter" filterUnits="userSpaceOnUse" x="-1136" y="-82.8" width="2490" height="884">
		<feColorMatrix  type="matrix" values="1 0 0 0 0  0 1 0 0 0  0 0 1 0 0  0 0 0 1 0"/>
	</filter>
</defs>
<mask maskUnits="userSpaceOnUse" x="-1136" y="-82.8" width="2490" height="884" id="mask_1_">
	<g id="mask0_1_" class="st1">
		
			<linearGradient id="SVGID_2_" gradientUnits="userSpaceOnUse" x1="1020.9012" y1="1548.1385" x2="164.3812" y2="816.9785" gradientTransform="matrix(1 0 0 1 0 -824)">
			<stop  offset="0" style="stop-color:#FFEDBA"/>
			<stop  offset="1" style="stop-color:#EE4D47"/>
		</linearGradient>
		<path class="st2" d="M1285,1.1H0v800h1185c55.2,0,100-44.8,100-100V1.1z"/>
	</g>
</mask>
<g class="st3">
	<g>
		
			<linearGradient id="SVGID_3_" gradientUnits="userSpaceOnUse" x1="109" y1="613.12" x2="109" y2="1717.12" gradientTransform="matrix(1 0 0 1 0 -824)">
			<stop  offset="0" style="stop-color:#F4A984"/>
			<stop  offset="1" style="stop-color:#F4A984;stop-opacity:0"/>
		</linearGradient>
		<path class="st4" d="M1325.6,345.6h-10.8c-2.2,0-4.1,1.8-4.1,4.1c0,0,0,0,0,0V594c0,3.1-2.5,5.6-5.6,5.6c0,0,0,0,0,0l0,0
			c-3.1,0-5.6-2.5-5.6-5.6V437.9c0-5.5-4.5-10-10-10h-10.5c-5.5,0-10,4.5-10,10v9.8c0,5.5-4.5,10-10,10h-66c-4.2,0-7.6,3.4-7.6,7.6
			v4.2c0,1.9-1.5,3.4-3.4,3.4c0,0,0,0,0,0l0,0c-1.9,0-3.4,1.5-3.4,3.4c0,0,0,0,0,0v54.4c0,4.6-3.7,8.3-8.3,8.3l0,0l0,0
			c-4.6,0-8.3,3.7-8.3,8.3l0,0v36.2c0,5.5-4.5,10-10,10h-1c-5.5,0-10,4.5-10,10v53c0,2.1-1.7,3.7-3.7,3.7c0,0,0,0,0,0l0,0
			c-2.1,0-3.7-1.7-3.7-3.7c0,0,0,0,0,0V349.4c0-1.7-1.3-3-3-3c0,0,0,0-0.1,0l0,0c-1.7,0-3-1.4-3-3v-27c0-2.9-2.3-5.2-5.2-5.3
			c0,0,0,0,0,0l0,0c-2.9,0-5.2-2.3-5.3-5.2c0,0,0,0,0,0v-26.1c0-2-1.6-3.6-3.5-3.6c0,0,0,0,0,0l0,0c-2,0-3.6-1.6-3.6-3.5v0v-21.3
			c0-5.5-4.5-10-10-10h-25.4c-5.5,0-10,4.5-10,10v21.3c0,2-1.6,3.5-3.6,3.5l0,0l0,0c-2,0-3.6,1.6-3.6,3.6c0,0,0,0,0,0v26.1
			c0,2.9-2.3,5.2-5.2,5.2c0,0,0,0,0,0l0,0c-2.9,0-5.3,2.4-5.3,5.3l0,0v27.1c0,1.4-1.1,2.5-2.5,2.5l0,0l0,0c-1.4,0-2.5,1.1-2.5,2.5
			c0,0,0,0,0,0v209.2c0,3.3-2.7,5.9-5.9,5.9l0,0c-3.3,0-5.9,2.7-5.9,5.9v83.3c0,4-3.3,7.3-7.3,7.3h0h-6.6c-0.4,0-0.7-0.3-0.7-0.7
			l0,0c0-0.4-0.3-0.7-0.7-0.7h-2.2c-0.7,0-1.2-0.5-1.2-1.2l0,0c0-0.7,0.5-1.2,1.2-1.2c0,0,0,0,0,0h1.2c0.9,0,1.7-0.8,1.7-1.7l0,0
			c0-0.9-0.8-1.7-1.7-1.7c0,0,0,0,0,0h-1c-0.7,0-1.3-0.6-1.4-1.3c0,0,0,0,0,0l0,0c0-0.7,0.6-1.3,1.3-1.3c0,0,0,0,0,0h1
			c0.9,0,1.7-0.8,1.7-1.7l0,0l0,0c0-0.9-0.8-1.7-1.7-1.7h-1.2c-0.7,0-1.2-0.5-1.2-1.2l0,0c0-0.7,0.5-1.2,1.2-1.2c0,0,0,0,0,0h1.2
			c0.9,0,1.7-0.8,1.7-1.7l0,0c0-0.9-0.8-1.7-1.7-1.7c0,0,0,0,0,0h-1.2c-0.7,0-1.2-0.5-1.2-1.2l0,0c0-0.7,0.5-1.2,1.2-1.2h1.2
			c0.9,0,1.7-0.8,1.7-1.7l0,0l0,0c0-0.9-0.8-1.7-1.7-1.7h-1.2c-0.7,0-1.2-0.5-1.2-1.2c0,0,0,0,0,0l0,0c0-0.7,0.5-1.2,1.2-1.2h1.2
			c0.9,0,1.7-0.8,1.7-1.7l0,0c0-0.9-0.8-1.7-1.7-1.7l0,0h-1.2c-0.7,0-1.2-0.5-1.2-1.2l0,0c0-0.7,0.5-1.2,1.2-1.2c0,0,0,0,0,0h1.2
			c0.9,0,1.7-0.7,1.7-1.7c0,0,0,0,0,0l0,0c0-0.9-0.8-1.7-1.7-1.7h-1.2c-0.7,0-1.2-0.5-1.2-1.2c0,0,0,0,0,0l0,0
			c0-0.7,0.5-1.2,1.2-1.2h1.2c0.9,0,1.7-0.8,1.7-1.7l0,0c0-0.9-0.8-1.7-1.7-1.7l0,0h-1.2c-0.7,0-1.2-0.5-1.2-1.2l0,0
			c0-0.7,0.5-1.2,1.2-1.2c0,0,0,0,0,0h1.2c0.9,0,1.7-0.7,1.7-1.7c0,0,0,0,0,0l0,0c0-0.9-0.8-1.7-1.7-1.7h-1.2
			c-0.7,0-1.2-0.5-1.2-1.2c0,0,0,0,0,0l0,0c0-0.7,0.5-1.2,1.2-1.2h1.2c0.9,0,1.7-0.8,1.7-1.7l0,0l0,0c0-0.9-0.8-1.7-1.7-1.7h-1.2
			c-0.7,0-1.2-0.5-1.2-1.2l0,0c0-0.7,0.5-1.2,1.2-1.2c0,0,0,0,0,0h1.2c0.9,0,1.7-0.8,1.7-1.7l0,0c0-0.9-0.8-1.7-1.7-1.7c0,0,0,0,0,0
			h-0.3c-1.1,0-2-0.9-2-2v-0.7c0-1.1,0.9-2,2-2h0.3c0.9,0,1.7-0.8,1.7-1.7l0,0l0,0c0-0.9-0.8-1.7-1.7-1.7h-1.2
			c-0.7,0-1.2-0.5-1.2-1.2l0,0c0-0.7,0.5-1.2,1.2-1.2c0,0,0,0,0,0h1.2c0.9,0,1.7-0.8,1.7-1.7l0,0c0-0.9-0.8-1.7-1.7-1.7c0,0,0,0,0,0
			h-1.2c-0.7,0-1.2-0.5-1.2-1.2l0,0c0-0.7,0.5-1.2,1.2-1.2h1.2c0.9,0,1.7-0.8,1.7-1.7l0,0l0,0c0-0.9-0.8-1.7-1.7-1.7h-1.2
			c-0.7,0-1.2-0.5-1.2-1.2c0,0,0,0,0,0l0,0c0-0.7,0.5-1.2,1.2-1.2h1.2c0.9,0,1.7-0.8,1.7-1.7l0,0c0-0.9-0.8-1.7-1.7-1.7l0,0h-1.2
			c-0.7,0-1.2-0.5-1.2-1.2l0,0c0-0.7,0.5-1.2,1.2-1.2c0,0,0,0,0,0h1.2c0.9,0,1.7-0.7,1.7-1.7c0,0,0,0,0,0l0,0c0-0.9-0.8-1.7-1.7-1.7
			h-1.2c-0.7,0-1.2-0.5-1.2-1.2c0,0,0,0,0,0l0,0c0-0.7,0.5-1.2,1.2-1.2h1.2c0.9,0,1.7-0.8,1.7-1.7l0,0c0-0.9-0.8-1.7-1.7-1.7l0,0
			h-1.2c-0.7,0-1.2-0.5-1.2-1.2l0,0c0-0.7,0.5-1.2,1.2-1.2c0,0,0,0,0,0h1.2c0.9,0,1.7-0.8,1.7-1.7l0,0c0-0.9-0.8-1.7-1.7-1.7
			c0,0,0,0,0,0h-1.2c-0.7,0-1.2-0.5-1.2-1.2c0,0,0,0,0,0l0,0c0-0.7,0.5-1.2,1.2-1.2h1.2c0.9,0,1.7-0.8,1.7-1.7l0,0l0,0
			c0-0.9-0.8-1.7-1.7-1.7h-1.2c-0.7,0-1.2-0.5-1.2-1.2l0,0c0-0.7,0.5-1.2,1.2-1.2c0,0,0,0,0,0h1.2c0.9,0,1.7-0.8,1.7-1.7l0,0
			c0-0.9-0.8-1.7-1.7-1.7c0,0,0,0,0,0h-1.2c-0.7,0-1.2-0.5-1.2-1.2c0,0,0,0,0,0l0,0c0-0.7,0.5-1.2,1.2-1.2h1.2
			c0.9,0,1.7-0.8,1.7-1.7l0,0l0,0c0-0.9-0.8-1.7-1.7-1.7h-1.2c-0.7,0-1.2-0.5-1.2-1.2l0,0c0-0.7,0.5-1.2,1.2-1.2c0,0,0,0,0,0h1.2
			c0.9,0,1.7-0.8,1.7-1.7l0,0c0-0.9-0.8-1.7-1.7-1.7l0,0h-1.2c-0.7,0-1.2-0.5-1.2-1.2l0,0c0-0.7,0.5-1.2,1.2-1.2h1.2
			c0.9,0,1.7-0.7,1.7-1.7c0,0,0,0,0,0l0,0c0-0.9-0.8-1.7-1.7-1.7h-1.2c-0.7,0-1.2-0.5-1.2-1.2c0,0,0,0,0,0l0,0
			c0-0.7,0.5-1.2,1.2-1.2h1.2c0.9,0,1.7-0.8,1.7-1.7l0,0c0-0.9-0.8-1.7-1.7-1.7l0,0h-0.3c-1.1,0-2-0.9-2-2v-1.3c0-1.1,0.9-2,2-2h0.3
			c0.9,0,1.7-0.8,1.7-1.7l0,0l0,0c0-0.9-0.8-1.7-1.7-1.7h-1.2c-0.7,0-1.2-0.5-1.2-1.2l0,0c0-0.7,0.5-1.2,1.2-1.2c0,0,0,0,0,0h1.2
			c0.9,0,1.7-0.8,1.7-1.7l0,0c0-0.9-0.8-1.7-1.7-1.7c0,0,0,0,0,0h-1.2c-0.7,0-1.2-0.5-1.2-1.2l0,0c0-0.7,0.5-1.2,1.2-1.2h1.2
			c0.9,0,1.7-0.8,1.7-1.7v0l0,0c0-0.9-0.8-1.7-1.7-1.7h-1.2c-0.7,0-1.2-0.5-1.2-1.2c0,0,0,0,0,0l0,0c0-0.7,0.5-1.2,1.2-1.2h1.2
			c0.9,0,1.7-0.8,1.7-1.7l0,0c0-0.9-0.8-1.7-1.7-1.7l0,0h-0.3c-1.1,0-2-0.9-2-2v-2.2c0-0.8-0.7-1.5-1.5-1.5l0,0
			c-0.8,0-1.5-0.7-1.5-1.5l0,0v-2.2c0-2.1-1.7-3.7-3.7-3.7h-0.3c-2.2,0-4.1-1.8-4.1-4.1v-11c0-1.7-1.3-3-3-3c0,0,0,0-0.1,0l0,0
			c-1.6,0-3-1.4-3-3v-11.7c0-4.7-3.3-8.8-7.9-9.8l-10.8-2.3l0,0c-2.6-0.6-4.4-2.9-4.4-5.5v-31.5c0-0.7-0.5-1.2-1.2-1.2c0,0,0,0,0,0
			l0,0c-0.7,0-1.2,0.5-1.2,1.2l0,0v31.9c0,1.7-1.3,3.1-3,3.1c-0.2,0-0.5,0-0.7-0.1l0,0c-1.6-0.4-3.3,0.7-3.7,2.3
			c-0.1,0.2-0.1,0.5-0.1,0.7V464c0,1.4-1.1,2.5-2.5,2.5l0,0c-1.4,0-2.5,1.1-2.5,2.5c0,0,0,0,0,0v11.3c0,2.2-1.8,4.1-4.1,4.1h-0.8
			c-1.8,0-3.2,1.4-3.2,3.2v1.7c0,0.8-0.7,1.5-1.5,1.5l0,0c-0.8,0-1.5,0.7-1.5,1.5c0,0,0,0,0,0v1.4c0,1.6-1.3,2.9-2.9,2.9l0,0h-29.9
			c-5.5,0-10,4.5-10,10v17.6c0,5.5-4.5,10-10,10h-24.7c-1.2,0-2.5,0.2-3.6,0.7l-30.4,11.8l0,0c-1,0.4-1.7,1.4-1.7,2.5V561
			c0,1.5,1.2,2.7,2.7,2.7h0.7c1.1,0,2,0.9,2,2l0,0c0,1.1-0.9,2-2,2h-1.3c-1.1,0-2,0.9-2,2l0,0c0,1.1,0.9,2,2,2h1.3c1.1,0,2,0.9,2,2
			l0,0c0,1.1-0.9,2-2,2h-1.3c-1.1,0-2,0.9-2,2l0,0c0,1.1,0.9,2,2,2h1.3c1.1,0,2,0.9,2,2l0,0c0,1.1-0.9,2-2,2h-1.3c-1.1,0-2,0.9-2,2
			l0,0c0,1.1,0.9,2,2,2h1.3c1.1,0,2,0.9,2,2l0,0c0,1.1-0.9,2-2,2h-1.3c-1.1,0-2,0.9-2,2l0,0c0,1.1,0.9,2,2,2h1.9
			c0.8,0,1.5,0.7,1.5,1.5c0,0,0,0,0,0l0,0c0,0.8-0.7,1.5-1.5,1.5c0,0,0,0,0,0h-30.8c-4.2,0-7.9-2.6-9.4-6.5l-8-21.2
			c-0.8-2.2-3.3-3.4-5.6-2.6c-1.2,0.4-2.1,1.4-2.6,2.6l0,0c-1.7,4.6-8.8,3.3-8.8-1.6v-24.3c0-13.5,0-27.1-0.3-40.6
			c0-5.8-0.3-11.9-0.3-17.6c-0.3-12.5-0.7-25-1.4-37.9c-0.3-6.1-0.3-12.2-0.7-18.3c-0.7-11.9-1-23.4-1.7-35.2c0-1.4-0.3-2.7-0.3-4.1
			c-0.7-10.5-1.4-20.6-2-31.1c-1.4-19-3-37.9-4.7-56.9c-0.1-1.7-0.3-3.5-0.5-5.3c-0.5-5.2-4.9-9.2-10.2-9.3h-63.4
			c-4.8,0-9.2,3.6-9.2,8.5l0,0l-1,12.2c-0.3,3.4-0.7,7.1-1,10.5c-0.7,6.4-1,12.9-1.7,19.3c-0.3,3-0.3,5.8-0.7,8.8
			c-0.3,5.4-0.7,10.8-1.3,16.3c-0.3,2.2-0.4,4.5-0.4,6.7c-0.3,7.1-1,14.2-1.4,21c0,2.4-0.3,4.7-0.3,7.1c-0.3,7.5-0.7,14.6-1,22
			c0,1.7-0.3,3-0.3,4.7c-0.3,6.8-0.7,13.9-1,20.6v4.1c-0.3,7.8-0.7,15.6-0.7,23.4v4.7c-0.3,8.1-0.3,16.3-0.7,24v1
			c0,8.1-0.3,16.3-0.3,24v38.1c0,4-3.3,7.3-7.3,7.3c0,0,0,0,0,0l0,0c-4,0-7.3,3.3-7.3,7.3v0v81.4c0,4.8-3.9,8.6-8.6,8.6l0,0h-7.8
			c-0.5,0-0.8-0.4-0.8-0.8l0,0c0-0.5,0.4-0.8,0.8-0.8h0.7c0.8,0,1.5-0.7,1.5-1.5c0,0,0,0,0,0v-0.7c0-0.8-0.7-1.5-1.5-1.5
			c0,0,0,0,0,0l0,0c-0.8,0-1.5-0.7-1.5-1.5V662c0-0.8,0.7-1.5,1.5-1.5l0,0c0.8,0,1.5-0.7,1.5-1.5c0,0,0,0,0,0v-0.7
			c0-0.8-0.7-1.5-1.5-1.5c0,0,0,0,0,0l0,0c-0.8,0-1.5-0.7-1.5-1.5c0,0,0,0,0,0v-1.7c0-0.8,0.7-1.5,1.5-1.5c0,0,0,0,0,0l0,0
			c0.8,0,1.5-0.7,1.5-1.5c0,0,0,0,0,0v-0.7c0-0.8-0.7-1.5-1.5-1.5c0,0,0,0,0,0l0,0c-0.8,0-1.5-0.7-1.5-1.5v-1.7
			c0-0.8,0.7-1.5,1.5-1.5c0,0,0,0,0,0l0,0c0.8,0,1.5-0.7,1.5-1.5v-0.7c0-0.8-0.7-1.5-1.5-1.5c0,0,0,0,0,0l0,0
			c-0.8,0-1.5-0.7-1.5-1.5c0,0,0,0,0,0v-1.7c0-0.8,0.7-1.5,1.5-1.5c0,0,0,0,0,0l0,0c0.8,0,1.5-0.7,1.5-1.5c0,0,0,0,0,0v-0.7
			c0-0.8-0.7-1.5-1.5-1.5c0,0,0,0,0,0l0,0c-0.8,0-1.5-0.7-1.5-1.5c0,0,0,0,0,0v-1.7c0-0.8,0.7-1.5,1.5-1.5c0,0,0,0,0,0l0,0
			c0.8,0,1.5-0.7,1.5-1.5c0,0,0,0,0,0v-0.7c0-0.8-0.7-1.5-1.5-1.5c0,0,0,0,0,0l0,0c-0.8,0-1.5-0.7-1.5-1.5c0,0,0,0,0,0v-1.7
			c0-0.8,0.7-1.5,1.5-1.5c0,0,0,0,0,0l0,0c0.8,0,1.5-0.7,1.5-1.5c0,0,0,0,0,0V616c0-0.8-0.7-1.5-1.5-1.5c0,0,0,0,0,0l0,0
			c-0.8,0-1.5-0.7-1.5-1.5c0,0,0,0,0,0v-1.7c0-0.8,0.7-1.5,1.5-1.5c0,0,0,0,0,0l0,0c0.8,0,1.5-0.7,1.5-1.5c0,0,0,0,0,0v-0.7
			c0-0.8-0.7-1.5-1.5-1.5l0,0c-0.8,0-1.5-0.7-1.5-1.5c0,0,0,0,0,0v-1.7c0-0.8,0.7-1.5,1.5-1.5l0,0c0.8,0,1.5-0.7,1.5-1.5
			c0,0,0,0,0,0v-0.7c0-0.8-0.7-1.5-1.5-1.5c0,0,0,0,0,0l0,0c-0.8,0-1.5-0.7-1.5-1.5c0,0,0,0,0,0v-1.7c0-0.8,0.7-1.5,1.5-1.5
			c0,0,0,0,0,0l0,0c0.8,0,1.5-0.7,1.5-1.5c0,0,0,0,0,0v-0.7c0-0.8-0.7-1.5-1.5-1.5c0,0,0,0,0,0l0,0c-0.8,0-1.5-0.7-1.5-1.5v-1.7
			c0-0.8,0.7-1.5,1.5-1.5c0,0,0,0,0,0l0,0c0.8,0,1.5-0.7,1.5-1.5v-2c0-0.8-0.7-1.5-1.5-1.5c0,0,0,0,0,0l0,0c-0.8,0-1.5-0.7-1.5-1.5
			c0,0,0,0,0,0V576c0-0.8,0.7-1.5,1.5-1.5c0,0,0,0,0,0l0,0c0.8,0,1.5-0.7,1.5-1.5c0,0,0,0,0,0v-0.7c0-0.8-0.7-1.5-1.5-1.5l0,0
			c-0.8,0-1.5-0.7-1.5-1.5c0,0,0,0,0,0v-2c0-0.8,0.7-1.5,1.5-1.5c0,0,0,0,0,0l0,0c0.8,0,1.5-0.7,1.5-1.5v-0.7c0-0.8-0.7-1.5-1.5-1.5
			c0,0,0,0,0,0l0,0c-0.8,0-1.5-0.7-1.5-1.5c0,0,0,0,0,0v-1.7c0-0.8,0.7-1.5,1.5-1.5c0,0,0,0,0,0l0,0c0.8,0,1.5-0.7,1.5-1.5
			c0,0,0,0,0,0V555c0-0.8-0.7-1.5-1.5-1.5c0,0,0,0,0,0l0,0c-0.8,0-1.5-0.7-1.5-1.5c0,0,0,0,0,0v-1.7c0-0.8,0.7-1.5,1.5-1.5
			c0,0,0,0,0,0l0,0c0.8,0,1.5-0.7,1.5-1.5c0,0,0,0,0,0v-0.7c0-0.8-0.7-1.5-1.5-1.5c0,0,0,0,0,0l0,0c-0.8,0-1.5-0.7-1.5-1.5
			c0,0,0,0,0,0v-1.7c0-0.8,0.7-1.5,1.5-1.5c0,0,0,0,0,0l0,0c0.8,0,1.5-0.7,1.5-1.5c0,0,0,0,0,0v-0.7c0-0.8-0.7-1.5-1.5-1.5
			c0,0,0,0,0,0l0,0c-0.8,0-1.5-0.7-1.5-1.5c0,0,0,0,0,0v-1.7c0-0.8,0.7-1.5,1.5-1.5c0,0,0,0,0,0l0,0c0.8,0,1.5-0.7,1.5-1.5
			c0,0,0,0,0,0v-0.7c0-0.8-0.7-1.5-1.5-1.5l0,0c-0.8,0-1.5-0.7-1.5-1.5c0,0,0,0,0,0v-1.7c0-0.8,0.7-1.5,1.5-1.5l0,0
			c0.8,0,1.5-0.7,1.5-1.5c0,0,0,0,0,0v-0.7c0-0.8-0.7-1.5-1.5-1.5c0,0,0,0,0,0l0,0c-0.8,0-1.5-0.7-1.5-1.5c0,0,0,0,0,0v-1.7
			c0-0.8,0.7-1.5,1.5-1.5c0,0,0,0,0,0l0,0c0.8,0,1.5-0.7,1.5-1.5c0,0,0,0,0,0v-0.7c0-0.8-0.7-1.5-1.5-1.5l0,0l0,0
			c-0.8,0-1.5-0.7-1.5-1.5V508c0-0.8,0.7-1.5,1.5-1.5l0,0l0,0c0.8,0,1.5-0.7,1.5-1.5v-2c0-0.8-0.7-1.5-1.5-1.5l0,0l0,0
			c-0.8,0-1.5-0.7-1.5-1.5l0,0v-1.7c0-0.8,0.7-1.5,1.5-1.5l0,0l0,0c0.8,0,1.5-0.7,1.5-1.5l0,0v-0.7c0-0.8-0.7-1.5-1.5-1.5l0,0
			c-0.8,0-1.5-0.7-1.5-1.5l0,0v-1.7c0-0.8,0.7-1.5,1.5-1.5l0,0c0.8,0,1.5-0.7,1.5-1.5l0,0V486c0-0.8-0.7-1.5-1.5-1.5l0,0l0,0
			c-0.8,0-1.5-0.7-1.5-1.5l0,0v-1.7c0-0.8,0.7-1.5,1.5-1.5l0,0l0,0c0.8,0,1.5-0.7,1.5-1.5l0,0v-0.7c0-0.8-0.7-1.5-1.5-1.5l0,0l0,0
			c-0.8,0-1.5-0.7-1.5-1.5v-5.4c0-0.8,0.7-1.5,1.5-1.5l0,0l0,0c0.8,0,1.5-0.7,1.5-1.5l0,0v-1c0-1.4-1.1-2.5-2.5-2.5h-5
			c-1.3,0-2.4-1.1-2.4-2.4v-0.5c0-1,0.8-1.8,1.8-1.8c0,0,0,0,0,0l0,0c1,0,1.8-0.8,1.8-1.8c0-0.4-0.1-0.8-0.4-1.1l-12.1-16.4
			c-1.4-1.9-3.7-3.1-6.2-3.1h-0.2c-4.1,0-7.4-3.3-7.5-7.5l0,0c0-0.8-0.7-1.6-0.7-2.4v-19.5c0-0.7-0.5-1.2-1.2-1.2l0,0
			c-0.7,0-1.2,0.5-1.2,1.2v19.5c0,0.7-0.7,1.6-0.7,2.3l0,0c0,4.1-3.3,7.4-7.5,7.5h-0.2c-2.4,0-4.7,1.1-6.1,3.1l-12.8,17.3
			c-0.4,0.6-0.3,1.3,0.3,1.8c0.2,0.2,0.5,0.3,0.8,0.3l0,0c0.7,0,1.2,0.6,1.2,1.3v1.1c0,1.3-1.1,2.4-2.4,2.4h-4.9
			c-1.4,0-2.5,1.1-2.5,2.5v0.7c0,1,0.8,1.9,1.9,1.9l0,0c1,0,1.9,0.8,1.9,1.9v4.7c0,1-0.8,1.9-1.9,1.9l0,0c-1,0-1.9,0.8-1.9,1.9l0,0
			c0,1,0.8,1.9,1.9,1.9l0,0c1,0,1.9,0.8,1.9,1.9v1c0,1-0.8,1.9-1.9,1.9l0,0c-1,0-1.9,0.8-1.9,1.9l0,0c0,1,0.8,1.9,1.9,1.9l0,0
			c1,0,1.9,0.8,1.9,1.9v1c0,1-0.8,1.9-1.9,1.9l0,0c-1,0-1.9,0.8-1.9,1.9l0,0c0,1,0.8,1.9,1.9,1.9l0,0c1,0,1.9,0.8,1.9,1.9v1
			c0,1-0.8,1.9-1.9,1.9l0,0c-1,0-1.9,0.8-1.9,1.9l0,0c0,1,0.8,1.9,1.9,1.9l0,0c1,0,1.9,0.8,1.9,1.9v1c0,1-0.8,1.9-1.9,1.9l0,0
			c-1,0-1.9,0.8-1.9,1.9l0,0c0,1,0.8,1.9,1.9,1.9l0,0c1,0,1.9,0.8,1.9,1.9v1c0,1-0.8,1.9-1.9,1.9l0,0c-1,0-1.9,0.8-1.9,1.9l0,0
			c0,1,0.8,1.9,1.9,1.9l0,0c1,0,1.9,0.8,1.9,1.9v1c0,1-0.8,1.9-1.9,1.9l0,0c-1,0-1.9,0.8-1.9,1.9l0,0c0,1,0.8,1.9,1.9,1.9l0,0
			c1,0,1.9,0.8,1.9,1.9v1c0,1-0.8,1.9-1.9,1.9l0,0c-1,0-1.9,0.8-1.9,1.9l0,0c0,1,0.8,1.9,1.9,1.9l0,0c1,0,1.9,0.8,1.9,1.9v1
			c0,1-0.8,1.9-1.9,1.9l0,0c-1,0-1.9,0.8-1.9,1.9l0,0c0,1,0.8,1.9,1.9,1.9l0,0c1,0,1.9,0.8,1.9,1.9v1c0,1-0.8,1.9-1.9,1.9l0,0
			c-1,0-1.9,0.8-1.9,1.9l0,0c0,1,0.8,1.9,1.9,1.9l0,0c1,0,1.9,0.8,1.9,1.9v1c0,1-0.8,1.9-1.9,1.9l0,0c-1,0-1.9,0.8-1.9,1.9l0,0
			c0,1,0.8,1.9,1.9,1.9l0,0c1,0,1.9,0.8,1.9,1.9v1c0,1-0.8,1.9-1.9,1.9l0,0c-1,0-1.9,0.8-1.9,1.9l0,0c0,1,0.8,1.9,1.9,1.9l0,0
			c1,0,1.9,0.8,1.9,1.9v1c0,1-0.8,1.9-1.9,1.9l0,0c-1,0-1.9,0.8-1.9,1.9l0,0c0,1,0.8,1.9,1.9,1.9l0,0c1,0,1.9,0.8,1.9,1.9v1
			c0,1-0.8,1.9-1.9,1.9l0,0c-1,0-1.9,0.8-1.9,1.9l0,0c0,1,0.8,1.9,1.9,1.9h1.3c0.3,0,0.5,0.2,0.5,0.5l0,0l0,0c0,0.3-0.2,0.5-0.5,0.5
			l0,0h-17.8c-2.4,0-4.4-2-4.4-4.4v0l0,0V350l-0.2-7.3c-0.1-4.2-2.8-7.8-6.7-9.2l-10.1-3.5c-2.6-0.9-5.5,0.5-6.4,3.1
			c-0.2,0.5-0.3,1.1-0.3,1.7v1.5c0,1.9-1.6,3.5-3.5,3.5c0,0,0,0,0,0l0,0c-1.9,0-3.5-1.6-3.5-3.5c0,0,0-0.1,0-0.1l0.4-22
			c0.1-4.7-3-8.8-7.6-9.9l-21.4-5.4c-5.4-1.3-10.8,1.9-12.1,7.3c-0.1,0.5-0.2,1.1-0.3,1.7l-3.2,41.3l-0.3,4.7l-0.3,3.7l-0.3,4.7
			l-0.3,3.8l-0.3,4.7l-0.3,3.7l-0.3,4.7l-0.3,3.7l-0.3,4.7l-0.3,3.7l-0.3,4.7l-0.3,3.7l-0.3,4.7l-0.3,3.7l-0.3,4.7l-0.3,3.7
			l-0.3,4.7l-0.3,3.7l-0.3,4.7l-0.3,3.7l-0.3,4.7l-0.3,3.7v0.3c-0.2,2.9-1.6,5.5-3.9,7.3l-1.7,1.4c-2.2,1.7-3.6,4.3-3.8,7.1l0,0
			l-0.3,3.7l-0.3,4.7l-0.3,3.7l-0.3,4.7l-0.4,3.6l-0.3,4.7l-0.3,3.7l-0.3,4.4l0,0c0,0.9-0.7,1.7-1.6,1.7c0,0,0,0,0,0h-27.9
			c-5.5,0-10,4.5-10,10v38.6c0,2.9-2.3,5.2-5.2,5.2l0,0c-2.9,0-5.3,2.4-5.3,5.3l0,0v104.1c0,3.9-3.2,7.1-7.1,7.1l0,0
			c-3.9,0-7.1-3.2-7.1-7.1c0,0,0,0,0,0V240.7c0-1.5-1.2-2.7-2.7-2.7l0,0c-1.5,0-2.7-1.2-2.7-2.7c0,0,0,0,0,0v-37.1
			c0-5.5-4.5-10-10-10h-57.5c-5.5,0-10,4.5-10,10v37.4c0,1.5-1.2,2.7-2.7,2.7l0,0c-1.5,0-2.7,1.2-2.7,2.7c0,0,0,0,0,0v180.3
			c0,2.7-2.2,4.9-4.9,4.9l0,0h-3.9c-0.6,0-1,0.4-1,1v0.3c0,0.4-0.3,0.7-0.7,0.7l0,0c-0.4,0-0.7,0.3-0.7,0.7v3.7
			c0,0.4,0.3,0.7,0.7,0.7l0,0c0.4,0,0.7,0.3,0.7,0.7v0.3c0,0.4-0.3,0.7-0.7,0.7l0,0c-0.4,0-0.7,0.3-0.7,0.7v3.7
			c0,0.4,0.3,0.7,0.7,0.7l0,0c0.4,0,0.7,0.3,0.7,0.7v0.3c0,0.4-0.3,0.7-0.7,0.7l0,0c-0.4,0-0.7,0.3-0.7,0.7v3.7
			c0,0.4,0.3,0.7,0.7,0.7l0,0c0.4,0,0.7,0.3,0.7,0.7v0.3c0,0.4-0.3,0.7-0.7,0.7l0,0c-0.4,0-0.7,0.3-0.7,0.7v3.8
			c0,0.4,0.3,0.7,0.7,0.7l0,0c0.4,0,0.7,0.3,0.7,0.7v0.3c0,0.4-0.3,0.7-0.7,0.7l0,0c-0.4,0-0.7,0.3-0.7,0.7v3.7
			c0,0.4,0.3,0.7,0.7,0.7l0,0c0.4,0,0.7,0.3,0.7,0.7v0.3c0,0.4-0.3,0.7-0.7,0.7l0,0c-0.4,0-0.7,0.3-0.7,0.7v3.7
			c0,0.4,0.3,0.7,0.7,0.7l0,0c0.4,0,0.7,0.3,0.7,0.7v0.3c0,0.4-0.3,0.7-0.7,0.7l0,0c-0.4,0-0.7,0.3-0.7,0.7v3.7
			c0,0.4,0.3,0.7,0.7,0.7l0,0c0.4,0,0.7,0.3,0.7,0.7v0.3c0,0.4-0.3,0.7-0.7,0.7l0,0c-0.4,0-0.7,0.3-0.7,0.7v3.7
			c0,0.4,0.3,0.7,0.7,0.7l0,0c0.4,0,0.7,0.3,0.7,0.7v0.3c0,0.4-0.3,0.7-0.7,0.7l0,0c-0.4,0-0.7,0.3-0.7,0.7v3.7
			c0,0.4,0.3,0.7,0.7,0.7l0,0c0.4,0,0.7,0.3,0.7,0.7v0.3c0,0.4-0.3,0.7-0.7,0.7l0,0c-0.4,0-0.7,0.3-0.7,0.7v3.7
			c0,0.4,0.3,0.7,0.7,0.7l0,0c0.4,0,0.7,0.3,0.7,0.7v0.3c0,0.4-0.3,0.7-0.7,0.7l0,0c-0.4,0-0.7,0.3-0.7,0.7v3.7
			c0,0.4,0.3,0.7,0.7,0.7l0,0c0.4,0,0.7,0.3,0.7,0.7v0.3c0,0.4-0.3,0.7-0.7,0.7l0,0c-0.4,0-0.7,0.3-0.7,0.7v3.7
			c0,0.4,0.3,0.7,0.7,0.7l0,0c0.4,0,0.7,0.3,0.7,0.7v0.3c0,0.4-0.3,0.7-0.7,0.7l0,0c-0.4,0-0.7,0.3-0.7,0.7v3.7
			c0,0.4,0.3,0.7,0.7,0.7l0,0c0.4,0,0.7,0.3,0.7,0.7v0.3c0,0.4-0.3,0.7-0.7,0.7l0,0c-0.4,0-0.7,0.3-0.7,0.7v3.7
			c0,0.4,0.3,0.7,0.7,0.7l0,0c0.4,0,0.7,0.3,0.7,0.7v0.3c0,0.4-0.3,0.7-0.7,0.7l0,0c-0.4,0-0.7,0.3-0.7,0.7v3.7
			c0,0.4,0.3,0.7,0.7,0.7l0,0c0.4,0,0.7,0.3,0.7,0.7v7.1c0,0.4-0.3,0.7-0.7,0.7l0,0c-0.4,0-0.7,0.3-0.7,0.7v3.7
			c0,0.4,0.3,0.7,0.7,0.7l0,0c0.4,0,0.7,0.3,0.7,0.7v0.3c0,0.4-0.3,0.7-0.7,0.7l0,0c-0.4,0-0.7,0.3-0.7,0.7v0.8
			c0,0.8-0.7,1.5-1.5,1.5c0,0,0,0,0,0h-11.1c-5.5,0-10-4.5-10-10V445c0-5.5-4.5-10-10-10h-39.6c-5.5,0-10,4.5-10,10v53.1
			c0,4.8-3.9,8.6-8.6,8.6h-6.6c-1.1,0-2-0.9-2-2l0,0c0-1.1-0.9-2-2-2h-1.5c-2,0-3.6-1.6-3.6-3.5v-271c0-1.5-1.2-2.7-2.7-2.7h0l0,0
			c-1.5,0-2.7-1.2-2.7-2.7v0v-73.7c0-5.5-4.5-10-10-10H92.1c-5.5,0-10,4.5-10,10v73.6c0,1.5-1.2,2.7-2.7,2.7c0,0,0,0,0,0l0,0
			c-1.5,0-2.7,1.2-2.7,2.7l0,0v358.2c0,3.6-2.9,6.4-6.4,6.4l0,0c-3.6,0-6.4-2.9-6.4-6.4V457.9c0-5.5-4.5-10-10-10h-2.7
			c-5.5,0-10-4.5-10-10v-50.6c0-2.1-1.7-3.7-3.7-3.7c0,0,0,0,0,0l0,0c-2.1,0-3.7-1.7-3.7-3.7l0,0v-15.4c0-5.5-4.5-10-10-10h-85.6
			c-5.5,0-10,4.5-10,10v15.4c0,2.1-1.7,3.7-3.7,3.7c0,0,0,0,0,0l0,0c-2.1,0-3.7,1.7-3.7,3.7l0,0v220.2c0,5.5-4.5,10-10,10h-4.4
			c-5.5,0-10-4.5-10-10V476.2c0-5.5-4.5-10-10-10h-69.7c-5.5,0-10,4.5-10,10v75.7c0,5.4-4.4,9.8-9.8,9.8l0,0c-5.4,0-9.8,4.4-9.8,9.8
			l0,0v77.2c0,3.2-2.6,5.8-5.8,5.8l0,0c-3.2,0-5.8-2.6-5.8-5.8V382.5c0-1.3-1.1-2.4-2.4-2.4h-1.4c-0.6,0-1-0.4-1-1l0,0
			c0-0.6,0.4-1,1-1h1.4c1.3,0,2.4-1.1,2.4-2.4v-2c0-1.3-1.1-2.4-2.4-2.4h-1.4c-0.6,0-1-0.4-1-1l0,0c0-0.6,0.4-1,1-1h1.4
			c1.3,0,2.4-1.1,2.4-2.4v-2c0-1.3-1.1-2.4-2.4-2.4h-1.4c-0.6,0-1-0.4-1-1l0,0c0-0.6,0.4-1,1-1h1.4c1.3,0,2.4-1.1,2.4-2.4v-2
			c0-1.3-1.1-2.4-2.4-2.4h-1.7c-0.4,0-0.7-0.3-0.7-0.7l0,0l0,0c0-0.4,0.3-0.7,0.7-0.7c0,0,0,0,0,0h1.9c1.4,0,2.5-1.1,2.5-2.5l0,0
			v-1.7c0-1.4-1.1-2.5-2.5-2.5c0,0,0,0,0,0h-1.5c-0.6,0-1-0.4-1-1l0,0c0-0.6,0.4-1,1-1h1.5c1.4,0,2.5-1.1,2.5-2.5l0,0v-1.7
			c0-1.4-1.1-2.5-2.5-2.5c0,0,0,0,0,0h-1.5c-0.6,0-1-0.4-1-1l0,0c0-0.6,0.4-1,1-1h1.5c1.4,0,2.5-1.1,2.5-2.5c0,0,0,0,0,0v-1.7
			c0-1.4-1.1-2.5-2.5-2.5l0,0h-1.5c-0.6,0-1-0.4-1-1l0,0c0-0.6,0.4-1,1-1h1.5c1.4,0,2.5-1.1,2.5-2.5l0,0v-18.2
			c-0.1-3.3-1.6-6.4-4.1-8.5c-10.1-8.9-24.4-28-24.7-54.3v-1.5c0-1.6-1.3-2.9-2.9-2.9c0,0,0,0,0,0h-1c-1,0-1.9,0.8-1.9,1.9l0,0
			c0,1-0.8,1.9-1.9,1.9h-2.2c-2.2,0-4.1-1.8-4.1-4.1v-53.3c0-0.8-0.7-1.5-1.5-1.5c0,0,0,0,0,0l0,0c-0.8,0-1.5,0.7-1.5,1.5v56.9
			c0,0.5-0.4,0.8-0.8,0.9l0,0c-0.5,0-0.9-0.4-0.9-0.8v0v-1c0-1-0.8-1.9-1.9-1.9h-2.4c-1,0-1.9,0.8-1.9,1.9l0,0c0,1-0.8,1.9-1.9,1.9
			h-7.1c-1,0-1.9-0.8-1.9-1.9l0,0c0-1-0.8-1.9-1.9-1.9h-1.2c-1.7,0-3,1.4-3,3.1v0.7c0,26.7-7.4,46-15.9,55.1c-2.3,2.4-4,5.5-4,8.8
			v13.4c0,0.1,0.1,0.2,0.2,0.2h0l0,0c0.1,0,0.2,0.1,0.2,0.2c0,0,0,0,0,0v3.5c0,1.7,1.4,3,3,3h2c0.6,0,1,0.4,1,1l0,0c0,0.6-0.4,1-1,1
			h-2c-1.7,0-3,1.3-3,2.9c0,0,0,0,0,0.1v0.7c0,1.7,1.3,3,3,3c0,0,0,0,0.1,0h2c0.6,0,1,0.4,1,1l0,0c0,0.6-0.4,1-1,1h-2.2
			c-1.8,0-3.2,1.4-3.2,3.2c0,0,0,0,0,0v0.3c0,1.8,1.4,3.2,3.2,3.2h2.5c0.4,0,0.7,0.3,0.7,0.7l0,0c0,0.4-0.3,0.7-0.7,0.7h-2.5
			c-1.8,0-3.2,1.4-3.2,3.2v0.3c0,1.8,1.4,3.2,3.2,3.2c0,0,0,0,0,0h2.2c0.6,0,1,0.4,1,1l0,0c0,0.6-0.4,1-1,1h-2.2
			c-1.8,0-3.2,1.4-3.2,3.2c0,0,0,0,0,0v0.5c0,1.8,1.4,3.2,3.2,3.2h2.2c0.6,0,1,0.4,1,1l0,0c0,0.6-0.4,1-1,1h-2.2
			c-1.8,0-3.2,1.4-3.2,3.2c0,0,0,0,0,0v0.3c0,1.8,1.4,3.2,3.2,3.2c0,0,0,0,0,0h2.2c0.6,0,1,0.4,1,1l0,0c0,0.6-0.4,1-1,1h-2.2
			c-1.8,0-3.2,1.4-3.2,3.2v0.3c0,1.8,1.4,3.2,3.2,3.2c0,0,0,0,0,0h2.2c0.6,0,1,0.4,1,1l0,0c0,0.6-0.4,1-1,1h-2.4
			c-1.9,0-3.4,1.5-3.4,3.4l0,0v133.4c0,5.2-4.2,9.5-9.5,9.5c0,0,0,0,0,0l0,0c-5.2,0-9.5,4.2-9.5,9.5V594c0,2.9-2.3,5.2-5.2,5.2l0,0
			c-2.9,0-5.3,2.4-5.3,5.3l0,0v52.8c0,2.2-2.4,3.3-4.6,3.2l0,0h-0.4l-0.4-0.1c-3.9-0.6-6.9-3.9-6.9-7.9V530.3c0-4-2.4-7.6-6-9.2
			l-2.2-1c-0.2-0.1-0.4-0.1-0.6-0.1h-0.5c-1.4,0-2.5-1.1-2.5-2.5v-1.3c0-0.7-0.5-1.2-1.2-1.2c0,0,0,0,0,0l0,0
			c-0.7,0-1.2,0.5-1.2,1.2l0,0l0,0c0,0.7-0.5,1.2-1.2,1.2h-0.1c-0.6,0-1,0.4-1,0.9c0,0,0,0,0,0.1l0,0c0,0.6-0.4,1-1,1l-3.9,0.2
			c-1,0.1-1.9-0.7-1.9-1.7c0,0,0-0.1,0-0.1l0,0c0-0.7-0.4-1.3-1-1.6l-0.9-0.5c-0.5-0.3-1.1-0.4-1.7-0.4l-19.8,0.6
			c-1.1,0-2,0.9-2,2.1l0,0c0,1.1-0.9,2.1-2.1,2.1h-0.3c-1.3,0-2.4,1.1-2.4,2.4v22.5c0,5.5-4.5,10-10,10h-17.6c-5.5,0-10-4.5-10-10
			V386.6c0-2.4-2-4.4-4.4-4.4l0,0c-2.4,0-4.4-2-4.4-4.4v-29.3c0-5.5-4.5-10-10-10h-15c-3.2,0-5.8-2.6-5.8-5.8c0,0,0,0,0,0l0,0
			c0-3.2-2.6-5.8-5.8-5.8c0,0,0,0,0,0h-3.9c-5.1,0-9.3-4.2-9.3-9.3l0,0c0-5.1-4.2-9.3-9.3-9.3H-573c-5.5,0-10,4.5-10,10v10.1
			c0,5.5-4.5,10-10,10h-18.6c-5.5,0-10,4.5-10,10v291.8c0,5.5-4.5,10-10,10h-1c-5.5,0-10,4.5-10,10v9.6c0,5.4-4.4,9.8-9.8,9.8l0,0
			c-5.4,0-9.8-4.4-9.8-9.8v-74c0-5.5-4.5-10-10-10h-10.5c-5.5,0-10-4.5-10-10v-20.4c0-0.2-0.1-0.4-0.3-0.5l0,0
			c-0.2-0.1-0.3-0.3-0.3-0.5V551c0-1.4-0.5-2.8-1.3-3.9l-4.7-6.1c-1.4-1.8-2.1-3.9-2.1-6.1v-6c0-0.9-0.4-1.8-1-2.5l0,0
			c-0.6-0.7-1-1.5-1-2.5v-14.7c0-0.3-0.2-0.5-0.5-0.5c0,0,0,0,0,0l0,0c-0.3,0-0.5,0.2-0.5,0.5v14.9c0,0.8-0.3,1.5-0.8,2l0,0
			c-0.5,0.5-0.8,1.3-0.8,2v7.5c0,2.1-0.6,4.1-1.8,5.7l-4.2,6c-0.7,1-1.1,2.2-1.1,3.4v2c0,0.8-0.4,1.5-1,1.9l0,0
			c-0.6,0.4-1,1.1-1,1.9v0.9c0,1.2-0.6,2.4-1.7,3l-0.4,0.3c-0.8,0.5-1.3,1.3-1.3,2.3l0,0c0,1-0.5,1.9-1.4,2.3l-0.5,0.3
			c-1.1,0.6-1.9,1.8-1.9,3.1v31c0,3.6-2.9,6.5-6.5,6.5c-0.2,0-0.4,0-0.6,0l0,0c-3.4,0-6.1-2.7-6.1-6.1v0v-61.7c0-5.5-4.5-10-10-10
			h-21.6c-5.5,0-10,4.5-10,10v27.7c0,5.5-4.5,10-10,10h-6.4c-5.5,0-10,4.5-10,10v20.3c0,1.8-1.4,3.2-3.2,3.2l0,0
			c-1.8,0-3.2,1.4-3.2,3.2v37.9c0,1.4-1.1,2.5-2.5,2.5l0,0c-1.4,0-2.5-1.1-2.5-2.5v-16.1c0-1.9-1.5-3.4-3.4-3.4l0,0l0,0
			c-1.9,0-3.4-1.5-3.4-3.4c0,0,0,0,0,0V456.2c0-5.5-4.5-10-10-10h-47.9c-42.3,0-76.5,29.8-76.5,72.1v23.8c0,5.5-4.5,10-10,10h-3.9
			c-12.2,0-22,21-22,32.5v39.8c0,5.5-4.5,10-10,10h-15.8c-5.5,0-10-4.5-10-10v-37.5c0-5.5-4.5-10-10-10h-4c-5.5,0-10,4.5-10,10v87
			c0,2.9-2.3,5.2-5.2,5.2c0,0,0,0,0,0l0,0c-2.9,0-5.2-2.3-5.3-5.2c0,0,0,0,0,0v-48.8c0-1.6-1.3-2.9-2.8-2.9c0,0,0,0,0,0l0,0
			c-1.6,0-2.9-1.3-2.9-2.9l0,0v-32.5c0-5.5-4.5-10-10-10h-1.3c-5.5,0-10-4.5-10-10v-35.5c0-5.5-4.5-10-10-10h-26.4
			c-5.5,0-10,4.5-10,10v201.8c0,5.5,4.5,10,10,10h2470c5.5,0,10-4.5,10-10V355.6c0-5.5-4.5-10-10-10H1325.6z M945.2,537.5
			c0,0.7-0.5,1.2-1.2,1.2c0,0,0,0,0,0h-2.2c-0.2,0-0.3-0.2-0.3-0.3v-0.8c0-0.7,0.5-1.2,1.2-1.2c0,0,0,0,0,0h1.4
			C944.7,536.3,945.2,536.8,945.2,537.5L945.2,537.5L945.2,537.5z M945.2,531.7c0,0.7-0.5,1.2-1.2,1.2c0,0,0,0,0,0h-1.3
			c-0.7,0-1.2-0.5-1.2-1.2l0,0c0-0.7,0.5-1.2,1.2-1.2h1.4C944.7,530.5,945.2,531,945.2,531.7L945.2,531.7L945.2,531.7z M945.2,525.6
			c0,0.7-0.5,1.2-1.2,1.2c0,0,0,0,0,0h-1.3c-0.7,0-1.2-0.5-1.2-1.2l0,0c0-0.7,0.5-1.2,1.2-1.2c0,0,0,0,0,0h1.4
			C944.7,524.4,945.2,524.9,945.2,525.6L945.2,525.6L945.2,525.6z M945.2,519.5c0,0.7-0.5,1.2-1.2,1.2l0,0h-1.3
			c-0.7,0-1.2-0.5-1.2-1.2c0,0,0,0,0,0l0,0c0-0.7,0.5-1.2,1.2-1.2h1.4C944.7,518.3,945.2,518.8,945.2,519.5
			C945.2,519.5,945.2,519.5,945.2,519.5L945.2,519.5z M945.2,513.4c0,0.7-0.5,1.2-1.2,1.2c0,0,0,0,0,0h-1.3c-0.7,0-1.2-0.5-1.2-1.2
			l0,0c0-0.7,0.5-1.2,1.2-1.2c0,0,0,0,0,0h1.4C944.7,512.2,945.2,512.8,945.2,513.4L945.2,513.4L945.2,513.4z M945.2,507.3
			c0,0.6-0.5,1.2-1.2,1.2h-1.3c-0.7,0-1.2-0.5-1.2-1.2c0,0,0,0,0,0l0,0c0-0.7,0.5-1.2,1.2-1.2h1.3
			C944.7,506.1,945.2,506.6,945.2,507.3C945.2,507.3,945.2,507.3,945.2,507.3L945.2,507.3z M945.2,501.6c0,0.7-0.5,1.2-1.2,1.2
			c0,0,0,0,0,0h-1.3c-0.7,0-1.2-0.5-1.2-1.2l0,0c0-0.7,0.5-1.2,1.2-1.2c0,0,0,0,0,0h1.4C944.7,500.4,945.2,500.9,945.2,501.6
			L945.2,501.6L945.2,501.6z"/>
		
			<linearGradient id="SVGID_4_" gradientUnits="userSpaceOnUse" x1="262.9915" y1="728.61" x2="263.0714" y2="1084.34" gradientTransform="matrix(1 0 0 1 0 -824)">
			<stop  offset="0" style="stop-color:#FFFFFF"/>
			<stop  offset="1" style="stop-color:#FFFFFF;stop-opacity:0"/>
		</linearGradient>
		<path class="st5" d="M469.5,416c114.1-114.1,114.1-299.1,0.1-413.2s-299-114.2-413-0.1s-114.2,299.1-0.1,413.2
			S355.4,530.1,469.5,416z"/>
		
			<linearGradient id="SVGID_5_" gradientUnits="userSpaceOnUse" x1="642.5" y1="1289.12" x2="642.5" y2="597.12" gradientTransform="matrix(1 0 0 1 0 -824)">
			<stop  offset="0" style="stop-color:#FFEDBA;stop-opacity:0"/>
			<stop  offset="1" style="stop-color:#EB2A24"/>
		</linearGradient>
		<path class="st6" d="M1285,1.1H0v800h1185c55.2,0,100-44.8,100-100V1.1z"/>
	</g>
</g>
<g id="crcles">
	
		<linearGradient id="SVGID_6_" gradientUnits="userSpaceOnUse" x1="1181.6379" y1="878.47" x2="1181.798" y2="1230.47" gradientTransform="matrix(1 0 0 1 0 -824)">
		<stop  offset="0" style="stop-color:#FFFFFF"/>
		<stop  offset="1" style="stop-color:#FFFFFF;stop-opacity:0"/>
	</linearGradient>
	<path class="st7" d="M1386.1,560.4c112.9-112.9,112.9-296,0-408.9s-295.8-112.9-408.7,0s-112.9,296,0,408.9
		S1273.3,673.3,1386.1,560.4z"/>
	
		<linearGradient id="SVGID_7_" gradientUnits="userSpaceOnUse" x1="888.6808" y1="1206.63" x2="888.7907" y2="1464.0701" gradientTransform="matrix(1 0 0 1 0 -824)">
		<stop  offset="0" style="stop-color:#FFFFFF"/>
		<stop  offset="1" style="stop-color:#FFFFFF;stop-opacity:0"/>
	</linearGradient>
	<path class="st8" d="M1038.2,752.7c82.5-82.6,82.5-216.5,0-299s-216.4-82.6-298.9,0s-82.5,216.5,0,299S955.7,835.3,1038.2,752.7z"
		/>
</g>
<g id="nature">
	<g id="mountains">
		
			<linearGradient id="SVGID_8_" gradientUnits="userSpaceOnUse" x1="1084.915" y1="1256.27" x2="1084.915" y2="1536.02" gradientTransform="matrix(1 0 0 1 0 -824)">
			<stop  offset="0.24" style="stop-color:#2CA77F"/>
			<stop  offset="1" style="stop-color:#1B8877"/>
		</linearGradient>
		<path class="st9" d="M1084.9,480.2c-58.8,0-106.3,100.9-106.3,225.2h212.8C1191.3,581,1143.6,480.2,1084.9,480.2z"/>
		
			<linearGradient id="SVGID_9_" gradientUnits="userSpaceOnUse" x1="1084.915" y1="1256.27" x2="1084.915" y2="1536.02" gradientTransform="matrix(1 0 0 1 0 -824)">
			<stop  offset="0.24" style="stop-color:#2CA77F"/>
			<stop  offset="1" style="stop-color:#1B8877"/>
		</linearGradient>
		<path class="st10" d="M1084.9,480.2c-58.8,0-106.3,100.9-106.3,225.2h212.8C1191.3,581,1143.6,480.2,1084.9,480.2z"/>
		<defs>
			<filter id="Adobe_OpacityMaskFilter_1_" filterUnits="userSpaceOnUse" x="959.8" y="472.6" width="263.2" height="239.1">
				<feColorMatrix  type="matrix" values="1 0 0 0 0  0 1 0 0 0  0 0 1 0 0  0 0 0 1 0"/>
			</filter>
		</defs>
		<mask maskUnits="userSpaceOnUse" x="959.8" y="472.6" width="263.2" height="239.1" id="mask-2_1_">
			<g id="mask0-2_1_" class="st11">
				
					<linearGradient id="SVGID_10_" gradientUnits="userSpaceOnUse" x1="1084.915" y1="1256.27" x2="1084.915" y2="1536.02" gradientTransform="matrix(1 0 0 1 0 -824)">
					<stop  offset="0.24" style="stop-color:#2CA77F"/>
					<stop  offset="1" style="stop-color:#1B8877"/>
				</linearGradient>
				<path class="st12" d="M1084.9,480.2c-58.8,0-106.3,100.9-106.3,225.2h212.8C1191.3,581,1143.6,480.2,1084.9,480.2z"/>
			</g>
		</mask>
		<g class="st13">
			
				<linearGradient id="SVGID_11_" gradientUnits="userSpaceOnUse" x1="1091.3781" y1="1267.4299" x2="1091.3781" y2="1521.5701" gradientTransform="matrix(1 0 0 1 0 -824)">
				<stop  offset="0" style="stop-color:#FFFFFF"/>
				<stop  offset="1" style="stop-color:#FFFFFF;stop-opacity:0"/>
			</linearGradient>
			<path class="st14" d="M995.2,500.6c33.7-15.4,101.7-40.5,104.3-18.1c3.3,28-191.5,148-124.9,122.5s124.1-95.4,138.9-70.7
				S983.7,660.9,1032.2,656c48.5-4.9,108.5-118.4,127.4-100.3s-124.1,143.9-92,154.5s120-167.7,155.3-171.8"/>
		</g>
		<path class="st15" d="M1177.5,705.5h13.8c0-124.5-47.7-225.2-106.4-225.2c-2.3,0-4.6,0.2-6.9,0.5
			C1133.5,488.2,1177.5,585.9,1177.5,705.5z"/>
		
			<linearGradient id="SVGID_12_" gradientUnits="userSpaceOnUse" x1="1202.7949" y1="1336.39" x2="1202.7949" y2="1530.11" gradientTransform="matrix(1 0 0 1 0 -824)">
			<stop  offset="0.42" style="stop-color:#2CA77F"/>
			<stop  offset="1" style="stop-color:#1B8877"/>
		</linearGradient>
		<path class="st16" d="M1202.8,541.3c-43,0-77.8,73.8-77.8,164.8h155.6C1280.5,615.1,1245.7,541.3,1202.8,541.3z"/>
		<defs>
			<filter id="Adobe_OpacityMaskFilter_2_" filterUnits="userSpaceOnUse" x="1125.9" y="503.3" width="151.3" height="162.4">
				<feColorMatrix  type="matrix" values="1 0 0 0 0  0 1 0 0 0  0 0 1 0 0  0 0 0 1 0"/>
			</filter>
		</defs>
		<mask maskUnits="userSpaceOnUse" x="1125.9" y="503.3" width="151.3" height="162.4" id="mask-3_1_">
			<g id="mask1_1_" class="st17">
				
					<linearGradient id="SVGID_13_" gradientUnits="userSpaceOnUse" x1="1202.7949" y1="1336.39" x2="1202.7949" y2="1530.11" gradientTransform="matrix(1 0 0 1 0 -824)">
					<stop  offset="0.42" style="stop-color:#2CA77F"/>
					<stop  offset="1" style="stop-color:#1B8877"/>
				</linearGradient>
				<path class="st18" d="M1202.8,541.3c-43,0-77.8,73.8-77.8,164.8h155.6C1280.5,615.1,1245.7,541.3,1202.8,541.3z"/>
			</g>
		</mask>
		<g class="st19">
			
				<linearGradient id="SVGID_14_" gradientUnits="userSpaceOnUse" x1="1201.5818" y1="1365.9399" x2="1201.5818" y2="1524.2" gradientTransform="matrix(1 0 0 1 0 -824)">
				<stop  offset="0" style="stop-color:#FFFFFF"/>
				<stop  offset="1" style="stop-color:#FFFFFF;stop-opacity:0"/>
			</linearGradient>
			<path class="st20" d="M1178.3,503.8c-30.5,49.7-79.4,139-30.9,98.2c60.7-51,118.6-34.7,94.5,0s-94.5,16.4-87.7,52.9
				c5.4,29.3,83.9-14.1,122.4-39.5"/>
		</g>
		<path class="st21" d="M1264.2,706.1h16.4c-0.1-91-34.9-164.8-77.8-164.8c-2.8,0-5.5,0.3-8.2,0.9
			C1233.6,550.9,1264.1,621,1264.2,706.1z"/>
		
			<linearGradient id="SVGID_15_" gradientUnits="userSpaceOnUse" x1="896.46" y1="1285.16" x2="896.46" y2="1577.51" gradientTransform="matrix(1 0 0 1 0 -824)">
			<stop  offset="0.42" style="stop-color:#2CA77F"/>
			<stop  offset="1" style="stop-color:#1B8877"/>
		</linearGradient>
		<path class="st22" d="M896.4,461.2c-68.2,0-123.4,108.8-123.4,243h246.9C1019.8,570,964.6,461.2,896.4,461.2z"/>
		<defs>
			<filter id="Adobe_OpacityMaskFilter_3_" filterUnits="userSpaceOnUse" x="782.7" y="468.7" width="211.3" height="212.2">
				<feColorMatrix  type="matrix" values="1 0 0 0 0  0 1 0 0 0  0 0 1 0 0  0 0 0 1 0"/>
			</filter>
		</defs>
		<mask maskUnits="userSpaceOnUse" x="782.7" y="468.7" width="211.3" height="212.2" id="mask-4_1_">
			<g id="mask2_1_" class="st23">
				
					<linearGradient id="SVGID_16_" gradientUnits="userSpaceOnUse" x1="896.46" y1="1285.16" x2="896.46" y2="1577.51" gradientTransform="matrix(1 0 0 1 0 -824)">
					<stop  offset="0.42" style="stop-color:#2CA77F"/>
					<stop  offset="1" style="stop-color:#1B8877"/>
				</linearGradient>
				<path class="st24" d="M896.4,461.2c-68.2,0-123.4,108.8-123.4,243h246.9C1019.8,570,964.6,461.2,896.4,461.2z"/>
			</g>
		</mask>
		<g class="st25">
			
				<linearGradient id="SVGID_17_" gradientUnits="userSpaceOnUse" x1="888.36" y1="1343.6" x2="888.36" y2="1550.96" gradientTransform="matrix(1 0 0 1 0 -824)">
				<stop  offset="0" style="stop-color:#FFFFFF"/>
				<stop  offset="1" style="stop-color:#FFFFFF;stop-opacity:0"/>
			</linearGradient>
			<path class="st26" d="M783.5,510.2c13-15.4,42.2-42.7,55.1-29.3c16,16.8-18.1,74.7,4.2,81.7s53.7-102.6,80.9-92.1
				s-117.1,180.1-66.9,186.4s73.2-145.2,94.8-134.7s-48.8,92.1-24.4,115.9s36.9-87.9,56.5-75.4s5.6,75.4-13.2,118"/>
		</g>
		<path class="st27" d="M992.3,704.1h27.6c-0.1-134.2-55.3-243-123.5-243c-4.6,0-9.3,0.5-13.8,1.5
			C944.3,476.2,992.2,579.1,992.3,704.1z"/>
	</g>
	<g>
		<path class="st28" d="M1084.4,566.2h-2.3v147.7h2.3V566.2z"/>
		
			<linearGradient id="SVGID_18_" gradientUnits="userSpaceOnUse" x1="1082.1492" y1="1350.72" x2="1082.1492" y2="1409.74" gradientTransform="matrix(1 0 0 1 0 -824)">
			<stop  offset="0" style="stop-color:#D3D86C"/>
			<stop  offset="1" style="stop-color:#82A637"/>
		</linearGradient>
		<path class="st29" d="M1099.9,556.9c-4.9,0-9.5,3.5-12.7,6.7c2.2-3.1,5.1-6.8,7.4-7.5c2.3-0.8,4.8-1,7.2-0.7c0,0-3.7-5.1-9.1-2.7
			c-2.4,1-4.4,4.5-5.9,7.8c0.8-3.1,1.5-6.7,0.9-10c-1.4-8.4-10.7-9.1-10.7-9.1s5.2,7.3,6.2,15.9c0.1,1.1,0.2,2.3,0.3,3.3
			c-0.8-4.9-2.7-10.8-7.5-14c-11.9-7.9-19.3,5.9-19.3,5.9s6.7-4.2,15.6,0.2c7.1,3.5,10,11.1,11,14.1c-1.1-2.3-6-11-13.8-12.2
			c-11.7-1.9-14.7,12.9-14.7,12.9s6.7-5.4,15-5c4.9,0.1,9.6,1.9,13.3,5c-2.3-0.6-4.7-0.9-7.1-1c-10.4-0.1-12.5,13.8-12.5,13.8
			l19.7-12.1c-1.3,2.4-2.5,4.8-3.5,7.3c-1.4,3.2-0.4,10.4-0.4,10.4s3.2-5.5,4.1-9c0.7-2.8,0.8-5.8,0.6-8.7l13.3,14.5
			c0,0,3.3-8.8-6.8-13c-1.4-0.6-2.5-1-3.4-1.4c3,0.5,5.9,1.6,8.4,3.3c3.7,2.4,6.9,5.5,9.6,9c0,0,3.7-10.6-5.2-14.9
			c-2.9-1.2-6.1-1.4-9.1-0.6c2.5-1.5,5.4-2.1,8.3-1.7c8.1,1,10.4,6.7,10.4,6.7S1111.6,556.9,1099.9,556.9z"/>
	</g>
	<g>
		<path class="st28" d="M997.4,475.5h-3.6v241.2h3.6V475.5z"/>
		
			<linearGradient id="SVGID_19_" gradientUnits="userSpaceOnUse" x1="988.6086" y1="1223.58" x2="988.6086" y2="1331.62" gradientTransform="matrix(1 0 0 1 0 -824)">
			<stop  offset="0" style="stop-color:#D3D86C"/>
			<stop  offset="1" style="stop-color:#82A637"/>
		</linearGradient>
		<path class="st30" d="M1021,454.7c-8.9,0-17.3,6.4-23.2,12.3c3.9-5.6,9.4-12.4,13.6-13.8c4.2-1.4,8.7-1.8,13.1-1.1
			c0,0-6.8-9.5-16.7-5c-4.5,1.9-8.1,8.2-10.8,14.2c1.5-5.6,2.5-12.3,1.7-18.4c-2.4-15.3-19.6-16.6-19.6-16.6s9.5,13.3,11.3,29
			c0.3,2,0.4,4.1,0.5,6c-1.5-9.1-5.1-19.9-13.7-25.7c-21.5-14.3-35,11-35,11s12.3-7.7,28.5,0.5c12.7,6.4,18.2,20.3,20,25.8
			c-2.2-4.2-10.9-19.9-25.2-22.3c-21.4-3.6-26.8,23.6-26.8,23.6s12.2-9.8,27.3-9.2c11.7,0.5,20.2,5.4,24.4,9.2
			c-4.2-1.2-8.5-1.8-12.8-1.8c-19-0.3-22.9,25.1-22.9,25.1l36-22.1c-1.5,2.9-4.7,9.1-6.5,13.4c-2.4,5.9-0.9,18.9-0.9,18.9
			s5.8-10,7.5-16.5c1.2-5.2,1.5-10.5,1-15.8l24.4,26.4c0,0,6-16.1-12.3-23.9c-2.4-1-4.6-1.9-6.2-2.6c5.5,0.9,10.7,2.9,15.3,6
			c6.7,4.4,12.6,9.9,17.4,16.3c0,0,6.6-19.5-9.7-27.2c-5.3-2.5-11.5-2.2-16.7-1c4.6-2.7,10-3.9,15.3-3.2
			c14.8,1.8,18.8,12.4,18.8,12.4S1042.3,454.5,1021,454.7z"/>
	</g>
	<g>
		<defs>
			<rect id="SVGID_20_" x="1190.5" y="616.4" width="103.5" height="97.3"/>
		</defs>
		<clipPath id="SVGID_21_">
			<use xlink:href="#SVGID_20_"  style="overflow:visible;"/>
		</clipPath>
		<g class="st31">
			<g>
				
					<linearGradient id="SVGID_22_" gradientUnits="userSpaceOnUse" x1="1242.0933" y1="1474.9293" x2="1242.0933" y2="1490.6084" gradientTransform="matrix(1 0 0 1 0 -824)">
					<stop  offset="0" style="stop-color:#D3D86C"/>
					<stop  offset="1" style="stop-color:#82A637"/>
				</linearGradient>
				<path class="st32" d="M1242.8,654.9L1242.8,654.9c1.5-4,3.3-8,5.2-11.9c3.4-6.8,7.3-13.3,11.6-19.5c-2.2,7-4.9,13.9-8.2,20.4
					c-4.9,9.9-7.5,13.9-8.7,14.4v0.6c1.4-1.9,4.5-5.3,9.9-10.6c5.7-5.3,11.7-10.3,18-14.8c-4.5,6-9.4,11.5-14.8,16.6
					c-3.5,3.4-7.2,6.7-11,9.6c2.2-1.5,5.7-3.5,10.8-6.1c6.9-3.6,14.1-6.8,21.4-9.5c-6.1,4.5-12.5,8.5-19.1,12
					c-8.6,4.6-13.1,6.6-15.2,6.9v0.4c1.8-1,6.4-2.7,15.2-5.3c7.6-2.2,15.4-3.9,23.2-5.2c-7.1,3.2-14.4,5.9-21.8,8.1
					c-4,1.2-7.2,2-9.8,2.7c2.6-0.5,5.9-0.9,10-1.4c8-1.1,16-1.6,24.1-1.6c-7.7,2.1-15.6,3.6-23.5,4.6c-10.6,1.4-15.8,1.6-17.5,1.2
					v0.3h-1.3v-0.2c-0.3,0.1-0.7,0.2-1,0.2h-3.7c-2.8-0.1-7-0.4-12.9-1.2c-7.9-1-15.7-2.6-23.5-4.6c8.1,0,16.1,0.6,24.1,1.6
					c3.9,0.5,7.1,0.9,9.6,1.3c-2.5-0.6-5.5-1.4-9.3-2.5c-7.4-2.1-14.7-4.8-21.8-8.1c7.8,1.3,15.6,3,23.2,5.2
					c9,2.6,13.6,4.3,15.3,5.4v-0.5c-1.9-0.3-6.6-2.3-15.3-6.9c-6.6-3.5-13-7.5-19.1-12c7.3,2.7,14.5,5.9,21.4,9.5
					c4.7,2.5,8.1,4.4,10.3,5.9c-3.7-2.9-7.3-6-10.6-9.3c-5.3-5.1-10.3-10.7-14.8-16.6c6.3,4.4,12.3,9.3,18,14.7
					c3.9,3.8,6.6,6.5,8.3,8.5c-1.5-2-3.8-6.1-7.2-12.8c-3.3-6.5-6-13.4-8.2-20.4c4.4,6.1,8.3,12.6,11.6,19.5
					c3.1,6.3,4.8,10.4,5.5,12.8v-1.2c-0.7-1.7-1.1-6.5-1.1-16.1c0-7.5,0.6-15,1.8-22.4c1.2,7.4,1.8,14.9,1.8,22.4
					C1243.9,648.4,1243.5,653.3,1242.8,654.9z M1241.5,658.8c-0.3-0.1-0.5-0.2-0.7-0.5c0.3,0.4,0.5,0.7,0.7,1V658.8z M1241.5,661.4
					c-0.4-0.1-0.8-0.3-1.2-0.6c0.5,0.3,0.9,0.6,1.2,0.9V661.4z M1242.8,661.4c0.3-0.3,0.8-0.6,1.3-1c-0.4,0.3-0.8,0.5-1.3,0.7V661.4
					z M1241.5,665c-0.6,0-1.2,0-1.8-0.1c0.6,0.1,1.2,0.4,1.8,0.6V665z M1242.8,665.3c0.8-0.3,1.5-0.6,2.3-0.8
					c-0.8,0.1-1.5,0.2-2.3,0.2V665.3z M1235.2,666.6h-23.8c3.7-0.3,8.2-0.4,12.9-0.4C1228.9,666.2,1232.6,666.3,1235.2,666.6
					L1235.2,666.6z M1248.9,666.6h23.8c-3.7-0.3-8.2-0.5-12.9-0.4C1255.1,666.3,1251.6,666.5,1248.9,666.6L1248.9,666.6z"/>
				<path class="st33" d="M1285,665.8h-86.8v39h86.8V665.8z"/>
			</g>
		</g>
	</g>
	<g>
		
			<linearGradient id="SVGID_23_" gradientUnits="userSpaceOnUse" x1="809.7351" y1="1388.1" x2="809.7351" y2="1536.25" gradientTransform="matrix(1 0 0 1 0 -824)">
			<stop  offset="0" style="stop-color:#D3D86C"/>
			<stop  offset="1" style="stop-color:#82A637"/>
		</linearGradient>
		<path class="st34" d="M919,688.3c-2.2-10.3-5.9-20.3-11-29.5c-0.7-1.3-1.5-2.6-2.3-3.9c-5.8-9.6-13-18.4-21.3-25.9
			c-1.1-1-2.2-2-3.3-2.8c-9-7.5-19.1-13.5-30-17.8c-1.4-0.6-2.7-1-4.1-1.5c-11.3-3.9-23.1-6.1-35-6.3h-4.3
			c-11.9,0.2-23.7,2.3-35,6.3c-1.4,0.5-2.7,1-4.1,1.5c-10.9,4.3-21,10.3-30,17.8c-1.1,0.9-2.3,1.9-3.3,2.8
			c-8.4,7.5-15.6,16.2-21.3,25.9c-0.8,1.3-1.5,2.6-2.3,3.9c-5.1,9.3-8.8,19.2-11.1,29.5c-0.3,1.5-0.6,3-0.9,4.5
			c-1.1,6.4-1.7,13-1.7,19.5h223.6c0-6.5-0.6-13.1-1.7-19.5C919.6,691.3,919.4,689.8,919,688.3z"/>
		
			<linearGradient id="SVGID_24_" gradientUnits="userSpaceOnUse" x1="809.82" y1="1424.48" x2="809.82" y2="1536.25" gradientTransform="matrix(1 0 0 1 0 -824)">
			<stop  offset="0" style="stop-color:#084F15;stop-opacity:0"/>
			<stop  offset="1" style="stop-color:#084F15"/>
		</linearGradient>
		<path class="st35" d="M807.6,600.5v111.8h4.4V600.5H807.6L807.6,600.5z"/>
		
			<linearGradient id="SVGID_25_" gradientUnits="userSpaceOnUse" x1="784.67" y1="1430.86" x2="784.67" y2="1536.35" gradientTransform="matrix(1 0 0 1 0 -824)">
			<stop  offset="0" style="stop-color:#084F15;stop-opacity:0"/>
			<stop  offset="1" style="stop-color:#084F15"/>
		</linearGradient>
		<path class="st36" d="M768.5,608.3l27.8,104h4.5l-28.3-105.5C771.3,607.3,769.9,607.8,768.5,608.3z"/>
		
			<linearGradient id="SVGID_26_" gradientUnits="userSpaceOnUse" x1="761.755" y1="1450.15" x2="761.755" y2="1536.26" gradientTransform="matrix(1 0 0 1 0 -824)">
			<stop  offset="0" style="stop-color:#084F15;stop-opacity:0"/>
			<stop  offset="1" style="stop-color:#084F15"/>
		</linearGradient>
		<path class="st37" d="M735.3,629l48.1,83.3h4.9l-49.7-86.1C737.4,627,736.3,628.1,735.3,629z"/>
		
			<linearGradient id="SVGID_27_" gradientUnits="userSpaceOnUse" x1="741.4401" y1="1478.88" x2="741.4401" y2="1536.37" gradientTransform="matrix(1 0 0 1 0 -824)">
			<stop  offset="0" style="stop-color:#084F15;stop-opacity:0"/>
			<stop  offset="1" style="stop-color:#084F15"/>
		</linearGradient>
		<path class="st38" d="M711.7,658.8l53.6,53.6h6l-57.5-57.5C713.1,656.1,712.3,657.5,711.7,658.8z"/>
		
			<linearGradient id="SVGID_28_" gradientUnits="userSpaceOnUse" x1="720.9399" y1="1512.1899" x2="720.9399" y2="1536.25" gradientTransform="matrix(1 0 0 1 0 -824)">
			<stop  offset="0" style="stop-color:#084F15;stop-opacity:0"/>
			<stop  offset="1" style="stop-color:#084F15"/>
		</linearGradient>
		<path class="st39" d="M699.7,692.8l33.9,19.5h8.7l-41.6-24.1C700.3,689.8,700,691.3,699.7,692.8z"/>
		
			<linearGradient id="SVGID_29_" gradientUnits="userSpaceOnUse" x1="834.83" y1="1430.88" x2="834.83" y2="1536.37" gradientTransform="matrix(1 0 0 1 0 -824)">
			<stop  offset="0" style="stop-color:#084F15;stop-opacity:0"/>
			<stop  offset="1" style="stop-color:#084F15"/>
		</linearGradient>
		<path class="st40" d="M818.7,712.4h4.5l27.8-104c-1.4-0.6-2.7-1-4.1-1.5L818.7,712.4z"/>
		
			<linearGradient id="SVGID_30_" gradientUnits="userSpaceOnUse" x1="857.795" y1="1450.25" x2="857.795" y2="1536.37" gradientTransform="matrix(1 0 0 1 0 -824)">
			<stop  offset="0" style="stop-color:#084F15;stop-opacity:0"/>
			<stop  offset="1" style="stop-color:#084F15"/>
		</linearGradient>
		<path class="st41" d="M831.2,712.4h5l48.1-83.3c-1.1-1-2.2-2-3.3-2.9L831.2,712.4z"/>
		<g class="st42">
			
				<linearGradient id="SVGID_31_" gradientUnits="userSpaceOnUse" x1="878.02" y1="1478.88" x2="878.02" y2="1536.37" gradientTransform="matrix(1 0 0 1 0 -824)">
				<stop  offset="0" style="stop-color:#084F15;stop-opacity:0"/>
				<stop  offset="1" style="stop-color:#084F15"/>
			</linearGradient>
			<path class="st43" d="M848.2,712.4h6l53.6-53.6c-0.7-1.3-1.5-2.6-2.3-3.9L848.2,712.4z"/>
		</g>
		<path class="st44" d="M877.4,712.4h8.7l33.9-19.5c-0.2-1.5-0.6-3-0.9-4.4L877.4,712.4z"/>
	</g>
	<g>
		
			<linearGradient id="SVGID_32_" gradientUnits="userSpaceOnUse" x1="933.2458" y1="1442.09" x2="933.2458" y2="1536.37" gradientTransform="matrix(1 0 0 1 0 -824)">
			<stop  offset="0" style="stop-color:#D3D86C"/>
			<stop  offset="1" style="stop-color:#82A637"/>
		</linearGradient>
		<path class="st45" d="M1002.7,697.1c-1.5-6.6-3.8-12.9-7.1-18.8c-0.5-0.8-0.9-1.6-1.4-2.5c-3.7-6.1-8.2-11.7-13.6-16.4
			c-0.7-0.6-1.4-1.3-2.2-1.8c-5.7-4.7-12.1-8.5-19-11.3c-0.8-0.4-1.7-0.7-2.6-0.9c-7.1-2.6-14.6-3.9-22.2-4H932
			c-7.6,0.2-15.1,1.5-22.2,4c-0.9,0.3-1.7,0.6-2.6,0.9c-6.9,2.8-13.3,6.6-19,11.3c-0.7,0.6-1.4,1.3-2.2,1.8
			c-5.3,4.7-9.9,10.3-13.6,16.4c-0.5,0.8-0.9,1.6-1.4,2.5c-3.2,5.9-5.6,12.2-7.1,18.8c-0.2,0.9-0.3,1.9-0.6,2.9
			c-0.7,4.1-1.1,8.3-1.1,12.4h142c0-4.2-0.4-8.3-1.1-12.4C1003.2,699,1003,698,1002.7,697.1z"/>
		
			<linearGradient id="SVGID_33_" gradientUnits="userSpaceOnUse" x1="933.28" y1="1465.3101" x2="933.28" y2="1536.37" gradientTransform="matrix(1 0 0 1 0 -824)">
			<stop  offset="0" style="stop-color:#084F15;stop-opacity:0"/>
			<stop  offset="1" style="stop-color:#084F15"/>
		</linearGradient>
		<path class="st46" d="M931.9,641.3v71.1h2.7v-71.1H931.9z"/>
		
			<linearGradient id="SVGID_34_" gradientUnits="userSpaceOnUse" x1="917.4299" y1="1469.15" x2="917.4299" y2="1536.21" gradientTransform="matrix(1 0 0 1 0 -824)">
			<stop  offset="0" style="stop-color:#084F15;stop-opacity:0"/>
			<stop  offset="1" style="stop-color:#084F15"/>
		</linearGradient>
		<path class="st47" d="M907.2,646.2l17.7,66h2.8l-17.9-67.1C908.9,645.6,908,645.9,907.2,646.2z"/>
		
			<linearGradient id="SVGID_35_" gradientUnits="userSpaceOnUse" x1="902.875" y1="1481.62" x2="902.875" y2="1536.37" gradientTransform="matrix(1 0 0 1 0 -824)">
			<stop  offset="0" style="stop-color:#084F15;stop-opacity:0"/>
			<stop  offset="1" style="stop-color:#084F15"/>
		</linearGradient>
		<path class="st48" d="M886,659.5l30.6,52.9h3.2l-31.6-54.8C887.4,658.2,886.7,658.8,886,659.5z"/>
		
			<linearGradient id="SVGID_36_" gradientUnits="userSpaceOnUse" x1="889.9" y1="1499.76" x2="889.9" y2="1536.26" gradientTransform="matrix(1 0 0 1 0 -824)">
			<stop  offset="0" style="stop-color:#084F15;stop-opacity:0"/>
			<stop  offset="1" style="stop-color:#084F15"/>
		</linearGradient>
		<path class="st49" d="M870.9,678.3l34.1,34h3.9l-36.5-36.5C871.9,676.7,871.4,677.5,870.9,678.3z"/>
		
			<linearGradient id="SVGID_37_" gradientUnits="userSpaceOnUse" x1="876.9" y1="1521.0801" x2="876.9" y2="1536.37" gradientTransform="matrix(1 0 0 1 0 -824)">
			<stop  offset="0" style="stop-color:#084F15;stop-opacity:0"/>
			<stop  offset="1" style="stop-color:#084F15"/>
		</linearGradient>
		<path class="st50" d="M863.4,699.9l21.5,12.4h5.5L864,697.1C863.7,698,863.5,699,863.4,699.9z"/>
		
			<linearGradient id="SVGID_38_" gradientUnits="userSpaceOnUse" x1="949.26" y1="1469.46" x2="949.26" y2="1536.37" gradientTransform="matrix(1 0 0 1 0 -824)">
			<stop  offset="0" style="stop-color:#084F15;stop-opacity:0"/>
			<stop  offset="1" style="stop-color:#084F15"/>
		</linearGradient>
		<path class="st51" d="M939,712.4h2.8l17.7-66c-0.8-0.4-1.7-0.7-2.6-0.9L939,712.4z"/>
		
			<linearGradient id="SVGID_39_" gradientUnits="userSpaceOnUse" x1="963.87" y1="1481.62" x2="963.87" y2="1536.37" gradientTransform="matrix(1 0 0 1 0 -824)">
			<stop  offset="0" style="stop-color:#084F15;stop-opacity:0"/>
			<stop  offset="1" style="stop-color:#084F15"/>
		</linearGradient>
		<path class="st52" d="M947,712.4h3.2l30.5-52.9c-0.7-0.6-1.4-1.3-2.2-1.8L947,712.4z"/>
		
			<linearGradient id="SVGID_40_" gradientUnits="userSpaceOnUse" x1="976.77" y1="1499.86" x2="976.77" y2="1536.37" gradientTransform="matrix(1 0 0 1 0 -824)">
			<stop  offset="0" style="stop-color:#084F15;stop-opacity:0"/>
			<stop  offset="1" style="stop-color:#084F15"/>
		</linearGradient>
		<path class="st53" d="M957.8,712.4h3.9l34.1-34c-0.5-0.8-0.9-1.6-1.4-2.5L957.8,712.4z"/>
		
			<linearGradient id="SVGID_41_" gradientUnits="userSpaceOnUse" x1="989.77" y1="1521.0801" x2="989.77" y2="1536.37" gradientTransform="matrix(1 0 0 1 0 -824)">
			<stop  offset="0" style="stop-color:#084F15;stop-opacity:0"/>
			<stop  offset="1" style="stop-color:#084F15"/>
		</linearGradient>
		<path class="st54" d="M976.3,712.4h5.5l21.5-12.4c-0.1-1-0.3-1.9-0.6-2.9L976.3,712.4z"/>
	</g>
	<g id="grass">
		
			<linearGradient id="SVGID_42_" gradientUnits="userSpaceOnUse" x1="642.445" y1="-176.5" x2="642.445" y2="292.43" gradientTransform="matrix(1 0 0 -1 0 904)">
			<stop  offset="0.28" style="stop-color:#EEEF99"/>
			<stop  offset="0.77" style="stop-color:#B9D079"/>
		</linearGradient>
		<path class="st55" d="M1284.9,704.7c-1.5,31.6-17.8,60.6-44,78.2c-0.6,0.4-1.2,0.8-1.7,1.2c-4.2,2.7-8.6,5.1-13.2,7.2l-2.2,1
			c-12.3,5.1-25.4,7.8-38.7,7.7h-15.8l0.2,0.3H228.9l0.4-0.3H0v-95.3H1284.9z"/>
		<defs>
			<filter id="Adobe_OpacityMaskFilter_4_" filterUnits="userSpaceOnUse" x="0" y="658.4" width="1284.9" height="215.8">
				<feColorMatrix  type="matrix" values="1 0 0 0 0  0 1 0 0 0  0 0 1 0 0  0 0 0 1 0"/>
			</filter>
		</defs>
		<mask maskUnits="userSpaceOnUse" x="0" y="658.4" width="1284.9" height="215.8" id="mask-5_1_">
			<g id="mask3_1_" class="st56">
				
					<linearGradient id="SVGID_43_" gradientUnits="userSpaceOnUse" x1="640" y1="1248.49" x2="640" y2="1717.42" gradientTransform="matrix(1 0 0 1 0 -824)">
					<stop  offset="0.28" style="stop-color:#EEEF99"/>
					<stop  offset="0.77" style="stop-color:#B9D079"/>
				</linearGradient>
				<path class="st57" d="M1288,704.7H-8v95.6h1296V704.7z"/>
			</g>
		</mask>
		<g class="st58">
			<g>
				
					<linearGradient id="SVGID_44_" gradientUnits="userSpaceOnUse" x1="713.695" y1="1533.45" x2="713.695" y2="1745.76" gradientTransform="matrix(1 0 0 1 0 -824)">
					<stop  offset="0" style="stop-color:#FFFFFF"/>
					<stop  offset="1" style="stop-color:#FFFFFF;stop-opacity:0"/>
				</linearGradient>
				<path class="st59" d="M597.6,674c-9.9,8.5-19,19.5-27.5,30.7c-0.8,1.1-1.7,2.2-2.5,3.2c-1.7,2.3-3.4,4.5-5.1,6.8l0,0l0,0
					c-7.3,9.9-14.3,19.3-21.3,26.6c-8.6,9-16.8,14.6-25.2,14.2c-1.6,0-3.2-0.4-4.6-1.2c-0.9-0.6-1.6-1.5-1.8-2.5
					c-0.3-1.4-0.2-2.9,0.2-4.2c0.5-2,1.2-3.9,2.1-5.8c3.7-7.9,10.8-18,17.9-27.9l0,0l0.1-0.2l1.7-2.4c1.6-2.3,3.2-4.5,4.7-6.7
					c2.1-3,4-6,5.8-8.7c2.9-4.7,5.2-9.1,6.2-12.5c0.5-1.5,0.6-3.2,0.3-4.7c-0.3-1.4-1.3-2.7-2.6-3.3c-1.7-0.7-3.6-1-5.5-0.8
					c-2.9,0.2-5.7,0.8-8.4,1.6c-6.8,1.9-14.3,6.1-22.3,12c-6.7,5.1-13.2,10.6-19.3,16.5c-1.9,1.8-3.9,3.7-5.9,5.7
					c-6.2,6.1-12.5,12.7-19,19.5s-13,14-19.6,21.3c-5.5,6-11.1,12.1-16.6,18.1c-10.1,10.9-20.2,21.4-30,30.8l-0.3,0.3
					c-7.8,7.5-16,14.5-24.6,21C357,834,341.3,840,328.5,835c-6.5-2.6-9.2-6-9.5-9.8c-0.3-4,1.8-8.9,5.9-14.4
					c2.8-3.7,5.8-7.2,9.1-10.5l0.3-0.3c8.1-8.2,18.5-17,28.9-25.7l1.7-1.4l0,0l0,0c6.9-5.8,13.7-11.5,19.6-16.8
					c6.4-5.8,11.9-11.3,15.5-16.1c1.6-2.1,2.9-4.4,3.8-6.9c0.8-2,0.8-4.1,0.1-6.1c-0.9-2-2.6-3.7-4.7-4.5c-3-1.3-6.2-2.2-9.5-2.5
					c-12.9-1.7-29.2,2.3-46.9,9.5s-37.2,18.1-56.5,30.3c-19.8,12.6-39.4,26.7-57,40.3l-0.4,0.3c-16.5,12.7-31.2,25-42.4,34.9
					l1.3,1.5c11.7-10.3,27.1-23.1,44.4-36.4l0.4-0.3c17-13,35.9-26.5,54.8-38.6c19.2-12.2,38.5-22.9,56.2-30.1s33.6-11,45.9-9.4
					c3,0.3,6,1.1,8.8,2.3c1.6,0.7,2.9,1.9,3.7,3.5c0.5,1.5,0.5,3.2-0.1,4.7c-0.9,2.3-2,4.4-3.5,6.3c-3.4,4.7-8.8,10-15.2,15.8
					c-5.9,5.3-12.7,11-19.6,16.8l0,0l-0.7,0.6l-1,0.8c-10.8,9.1-21.9,18.5-30.4,27.2l-0.3,0.3c-2.9,2.9-5.5,6.1-8,9.3
					c-4.1,5.6-6.6,11-6.3,15.7s3.9,8.8,10.7,11.5c13.9,5.5,30.4-1.2,47.9-14c9.3-6.9,18.1-14.5,26.4-22.6l0.3-0.3
					c9.4-9.1,19-19.1,28.6-29.4c5.6-6,11.1-12.1,16.7-18.1c13.2-14.4,26.1-28.6,38.4-40.7c2.5-2.5,5-4.8,7.4-7.1
					c5.6-5.3,11.4-10.2,17.5-14.9c7.8-5.8,15.1-9.9,21.6-11.7c2.6-0.8,5.3-1.3,8-1.5c1.5-0.2,3,0,4.5,0.6c0.8,0.4,1.4,1.1,1.6,2
					c0.2,1.3,0.1,2.5-0.3,3.8c-0.9,3.2-3,7.3-5.9,12c-1.9,3.1-4.1,6.4-6.5,9.8c-1.3,1.8-2.5,3.6-3.9,5.5c-0.6,0.9-1.2,1.7-1.8,2.6
					c-7,9.9-14.3,20.1-18,28.2c-1,2-1.7,4-2.2,6.2c-0.5,1.7-0.5,3.5-0.2,5.2c0.4,1.6,1.3,2.9,2.7,3.8c1.7,1,3.6,1.5,5.6,1.5
					c9.4,0.4,18.2-5.8,26.8-14.8c7-7.4,14.1-16.9,21.5-26.8l0,0l5-6.8c1.1-1.5,2.2-3,3.4-4.4c8.2-10.7,16.9-21.1,26.3-29.2
					c10.7-9.2,22.3-15.2,35.4-15.2v-2C620.6,658.3,608.5,664.7,597.6,674z M924.1,809.9c-3.4-2.4-6.1-5.7-7.7-9.6l-0.1-0.3
					c-0.6-1.5-1.1-3.1-1.5-4.7c-1.3-6.1-1.2-13.3,0-21.1c1.3-8.3,3.2-16.4,5.5-24.4c1.1-4.1,2.3-8.2,3.5-12.2l0,0l0-0.2
					c1.2-4.1,2.4-8.2,3.5-12.1c2-6.7,3.5-13.6,4.5-20.5c0-0.3,0.1-0.6,0.1-0.9c0.6-6.2,0.2-11.7-2.2-15.5s-6.9-5.9-13.6-5.7
					c-12.1,0.4-23.4,9.2-34,22.1c-1.2,1.4-2.4,2.9-3.5,4.5c-11.7,15.4-22.9,35.7-34,55.6l-0.1,0.2c-6.8,12.2-13.4,24.3-20.1,35.1
					l-0.2,0.3c-3.9,6.3-8,12.4-12.5,18.3c-5.5,7.1-11,12.8-16.5,16.5s-11,5.4-16.6,4.7s-9.1-3.1-11-6.4s-2.5-8-2-13.5
					c0.8-6.7,2.4-13.3,4.7-19.6c0-0.1,0.1-0.2,0.1-0.3c2.1-6.3,4.6-13,7.3-19.6c0.5-1.2,0.9-2.3,1.4-3.5
					c5.1-12.9,10.1-25.6,11.7-35.3c0.8-5.3,0.7-9.9-1.1-13.2s-5.5-5.3-11-5.3s-10.8,2.5-15.8,6.6s-9.8,10.1-14.6,17.1
					c-7.9,11.8-15.7,26.8-23.7,42.3c-1.5,3-3.1,6-4.7,9l-0.9,1.8c0,0.1-0.1,0.2-0.2,0.3c-9.4,17.9-19.2,35.6-30.2,49
					c-11.4,13.9-23.8,22.9-37.9,22.9c-7.2,0-11.2-1.9-13.3-4.8s-2.4-7.4-1.3-13.1s3.7-12.3,6.9-19.5c2.7-6.1,5.9-12.6,9.2-19.2
					l1.8-3.6c1.9-3.9,3.9-7.9,5.7-11.8c0-0.1,0.1-0.2,0.1-0.3c5.4-11.5,9.8-22.7,11-31.9c0.8-6.3,0-11.9-3.1-16.1s-8.7-6.9-16.9-7.8
					c-26.3-2.6-52.7,8.9-75,24.2c-13.4,9.3-25.7,19.9-36.9,31.6l-0.3,0.3c-4.7,5-9.2,10.2-13.4,15.6l1.6,1.2
					c4.6-5.9,9.5-11.5,14.7-16.8l0.3-0.3c10.7-11.1,22.5-21.2,35.3-30c22.1-15.2,48.1-26.4,73.7-23.8c7.9,0.8,12.8,3.3,15.5,7
					s3.5,8.6,2.7,14.6c-1.1,9.2-5.7,20.5-11.2,32.2c0,0.1-0.1,0.2-0.1,0.3c-1.7,3.6-3.5,7.2-5.3,10.9l-1.7,3.5v0.1
					c-3.3,6.5-6.5,13.1-9.3,19.2c-3.2,7.3-5.8,14.1-7,19.9s-1,11,1.6,14.6s7.5,5.7,14.9,5.7c15,0,28-9.6,39.5-23.7
					c11.3-13.8,21.3-32,30.9-50.2l0.2-0.3c0.2-0.3,0.3-0.6,0.5-0.9c1.6-3,3.2-6.1,4.7-9.1l0,0c8-15.5,15.7-30.4,23.6-42.1
					c4.7-7,9.4-12.7,14.2-16.7s9.6-6.2,14.6-6.2s7.8,1.6,9.3,4.2s1.7,6.8,0.9,11.9c-1.5,9.5-6.5,21.9-11.6,35
					c-0.4,1.1-0.9,2.3-1.3,3.4c-2.7,6.8-5.3,13.7-7.5,20.3c0,0.1-0.1,0.2-0.1,0.3c-2.2,6.3-3.7,12.8-4.5,19.4
					c-0.5,5.7,0,10.8,2.3,14.7s6.4,6.5,12.5,7.4s12.2-1.1,18-5s11.4-9.8,17-17c4.8-6.3,9.2-12.8,13.3-19.5l0.2-0.3c1-1.6,2-3.3,3-5
					c5.5-9.2,10.9-19.1,16.4-29l0.2-0.3c11-20,22.2-40.1,33.8-55.3c1.5-2,3-3.9,4.6-5.7c10.2-12.1,20.6-19.7,31.5-20.1
					c6.3-0.2,9.9,1.7,11.9,4.8s2.6,8,1.9,14.2l-0.1,1.1c-1,6.8-2.4,13.4-4.4,20c-1.1,3.9-2.3,7.9-3.5,12l-0.1,0.2
					c-1.2,4-2.4,8.2-3.5,12.3c-2.4,8.1-4.2,16.4-5.6,24.7c-1.2,7.9-1.4,15.4,0,21.8c0.3,1.5,0.7,2.9,1.3,4.3c0,0.1,0.1,0.2,0.1,0.3
					c1.7,4.6,4.7,8.5,8.7,11.2c5.5,3.8,13.3,6,24,6v-2C936.5,815.5,929.2,813.4,924.1,809.9z M1223.3,789.6
					c-5-3.3-10.9-7.6-17.4-12.4l-2.4-1.8c-12.4-9.1-26.9-19.8-42.1-29.1c-16.1-9.9-33.1-18.3-49-21.5c-7.9-1.6-13.4-2.3-17-2.1
					c-1.5,0-2.9,0.4-4.2,1.1c-0.5,0.3-0.9,0.8-1.2,1.3c-0.2,0.5-0.3,1.1-0.2,1.7c0.3,1.3,0.8,2.5,1.6,3.6c1.1,1.5,2.3,2.9,3.7,4.3
					c3,3.1,7.2,6.8,12.1,11c2.9,2.5,6.1,5.1,9.4,7.8c8,6.6,16.9,14,25.6,21.8c8.7,7.7,16.8,15.9,24.3,24.7l0.2,0.3
					c2.7,3.3,5.3,6.7,7.7,10.3c1.6,2.3,3,4.7,4.1,7.3c0.7,1.9,0.8,3.1,0.5,3.7s-0.7,1-1.9,1.1c-1.8,0.1-3.6-0.1-5.3-0.5
					c-4.6-1-10.8-3.4-18.5-6.7s-16.4-7.3-26.1-11.9l-2.4-1.1l-4.8-2.2l-0.6-0.3c-17.5-8.1-37-17.1-56.2-24.4
					c-22.1-8.4-43.8-14.8-61.4-15.2c-7-0.2-12.3,0.5-16,2s-6,3.8-6.7,6.8s0.1,6.4,1.8,10c2.2,4.3,4.9,8.2,8,11.9
					c2.4,2.9,5.1,5.8,8.1,8.9l0.3,0.3c14.5,14.5,34.7,30.2,50.8,41.3l1.1-1.6c-15.5-10.8-34.8-25.7-49-39.7l-0.3-0.3
					c-3.5-3.5-6.7-6.9-9.4-10.2c-3-3.5-5.6-7.3-7.8-11.5c-1.7-3.5-2.2-6.4-1.7-8.7s2.2-4.1,5.5-5.4s8.3-2,15.2-1.9
					c17.2,0.4,38.7,6.6,60.7,15c17.7,6.8,35.7,14.9,52.2,22.5l0.6,0.3l8.7,4l2.4,1.1c9.7,4.5,18.6,8.6,26.2,11.9s14,5.7,18.8,6.8
					c2,0.5,4,0.7,6,0.6c1.5-0.1,2.9-1,3.5-2.4c0.5-1.4,0.2-3.1-0.6-5.2c-1.1-2.7-2.6-5.3-4.3-7.7c-2-3.1-4.3-6.1-6.8-9.2l-0.2-0.3
					c-7.9-9.4-16.4-18.1-25.6-26.2c-8.8-7.9-17.7-15.3-25.7-21.9c-3.3-2.8-6.5-5.4-9.4-7.8c-4.9-4.2-9-7.8-12-10.8
					c-1.3-1.2-2.4-2.6-3.4-4c-0.6-0.8-1.1-1.7-1.3-2.7c0-0.2,0-0.4,0.1-0.6c0.1-0.2,0.2-0.4,0.4-0.5c1-0.5,2.1-0.8,3.2-0.7
					c3.3-0.2,8.6,0.5,16.5,2.1c15.6,3.2,32.3,11.4,48.4,21.3c15.1,9.2,29.5,19.9,41.9,29l0,0l2.4,1.8c6.5,4.8,12.4,9,17.4,12.4
					l1.5,1l2.2-1C1225.1,790.8,1224.2,790.2,1223.3,789.6z M1230.1,763.7c-5.8-7.7-12.2-15-19-21.9c-12-12.4-25.7-24.9-38.1-36.1
					l-1-0.9l-6.2-5.6c-7-6.4-13.2-12.2-18-17.1s-8.1-9-9.3-11.7c-0.6-1.4-0.6-2.2-0.3-2.7s0.9-0.9,2.7-1.1c3.4-0.3,9.7,0.7,19.6,3.5
					l0.6-1.9c-9.9-2.8-16.5-4-20.4-3.6c-1.9,0.2-3.4,0.8-4.2,2.1s-0.5,2.9,0.2,4.4c1.4,3.2,4.9,7.4,9.7,12.3s11.1,10.8,18.1,17.2
					c1.5,1.3,3,2.7,4.5,4.1l2.7,2.4l0,0c12.3,11.2,26,23.6,38,36c6.7,6.8,13,14.1,18.8,21.7c5.1,6.9,8.8,13.4,10.6,19.3
					c0.6-0.4,1.2-0.8,1.7-1.2C1238.9,777,1235.1,770.4,1230.1,763.7L1230.1,763.7z"/>
				
					<linearGradient id="SVGID_45_" gradientUnits="userSpaceOnUse" x1="642.445" y1="67.41" x2="642.445" y2="202.22" gradientTransform="matrix(1 0 0 -1 0 904)">
					<stop  offset="0.16" style="stop-color:#82A637"/>
					<stop  offset="0.89" style="stop-color:#1B8877"/>
				</linearGradient>
				<path class="st60" d="M1284.9,704.7c-1.5,31.6-17.8,60.6-44,78.2c-0.6,0.4-1.2,0.8-1.7,1.2c-4.2,2.7-8.6,5.1-13.2,7.2l-2.2,1
					c-12.3,5.1-25.4,7.8-38.7,7.7h-15.8l0.2,0.3H228.9l0.4-0.3H0v-17.6c225.2-1.3,248.9-44.2,380.1-44.2
					c115.4,0,168.3,27.1,413.9,27.1c221.9,0,213.3-50.8,420-60.6H1284.9z"/>
			</g>
		</g>
	</g>
	<g>
		<path class="st28" d="M67.4,429.5H73v366.6h-5.6V429.5z"/>
		
			<linearGradient id="SVGID_46_" gradientUnits="userSpaceOnUse" x1="80.8273" y1="1138.15" x2="80.8273" y2="1302.34" gradientTransform="matrix(1 0 0 1 0 -824)">
			<stop  offset="0" style="stop-color:#D3D86C"/>
			<stop  offset="1" style="stop-color:#82A637"/>
		</linearGradient>
		<path class="st61" d="M31.6,397.9c13.5,0,26.3,9.7,35.2,18.6c-6-8.5-14.3-18.8-20.7-21c-6.4-2.1-13.2-2.7-19.9-1.8
			c0,0,10.3-14.4,25.3-7.6c6.8,2.9,12.4,12.4,16.4,21.5c-2.3-8.5-3.9-18.6-2.5-27.9c3.7-23.3,29.8-25.2,29.8-25.2
			s-14.5,20.2-17.2,44c-0.4,3.1-0.6,6.2-0.8,9.1c2.3-13.8,7.7-30.3,20.9-39c32.7-21.7,53.2,16.7,53.2,16.7s-18.8-11.6-43.3,0.8
			c-19.3,9.7-27.7,30.8-30.3,39.2c3.3-6.4,16.6-30.3,38.3-33.9c32.5-5.4,40.8,35.9,40.8,35.9s-18.6-14.9-41.6-14
			c-17.8,0.8-30.7,8.1-37.1,14c6.4-1.8,12.9-2.7,19.5-2.7c28.8-0.4,34.8,38.2,34.8,38.2l-54.7-33.5c2.3,4.5,7.2,13.8,9.9,20.4
			c3.7,8.9,1.3,28.7,1.3,28.7s-8.9-15.1-11.4-25c-2.5-9.5-1.9-19.4-1.5-24l-37.1,40.1c0,0-9.1-24.4,18.8-36.3c3.7-1.5,7-2.9,9.5-3.9
			c-8.3,1.3-16.2,4.4-23.2,9.1c-10.2,6.7-19.1,15.1-26.5,24.8c0,0-10.1-29.7,14.7-41.3c8.1-3.9,17.4-3.3,25.3-1.5
			c-7-4.2-15.1-5.9-23.2-4.9c-22.4,2.7-28.6,18.8-28.6,18.8S-0.9,397.6,31.6,397.9z"/>
	</g>
	<g>
		
			<linearGradient id="SVGID_47_" gradientUnits="userSpaceOnUse" x1="114.97" y1="66.34" x2="114.97" y2="217.99" gradientTransform="matrix(1 0 0 -1 0 904)">
			<stop  offset="0" style="stop-color:#D3D86C"/>
			<stop  offset="1" style="stop-color:#82A637"/>
		</linearGradient>
		<path class="st62" d="M231.9,800.3H-2c0.1-6,0.7-11.9,1.8-17.8c0.2-0.8,0.3-1.7,0.5-2.6c0.1-0.7,0.3-1.4,0.4-2.1c0,0,0-0.1,0-0.1
			c2.4-10.8,6.3-21.1,11.6-30.8c0.8-1.3,1.5-2.7,2.3-4l0.1-0.1c6-10.1,13.6-19.2,22.3-27.1l0.3-0.3l0.5-0.5c0.6-0.5,1.2-1,1.7-1.5
			l0.9-0.7c9.4-7.8,20-14.1,31.4-18.6c1.4-0.5,2.8-1,4.2-1.5h0.1c11.8-4.2,24.1-6.4,36.6-6.6h4.5c12.5,0.2,24.9,2.4,36.6,6.6
			c1.4,0.5,2.9,1,4.3,1.5c11.4,4.5,22,10.8,31.4,18.6c1.2,0.9,2.4,1.9,3.5,3c8.7,7.9,16.3,17,22.3,27.1c0.8,1.3,1.7,2.7,2.4,4.1
			c5.3,9.7,9.2,20.1,11.6,30.9c0.1,0.4,0.2,0.9,0.3,1.3l0,0c0.2,1.1,0.4,2.2,0.6,3.3v0.2C231.2,788.4,231.8,794.4,231.9,800.3z"/>
		
			<linearGradient id="SVGID_48_" gradientUnits="userSpaceOnUse" x1="115.045" y1="1509.63" x2="115.045" y2="1774.88" gradientTransform="matrix(1 0 0 1 0 -824)">
			<stop  offset="0" style="stop-color:#084F15;stop-opacity:0"/>
			<stop  offset="1" style="stop-color:#084F15"/>
		</linearGradient>
		<path class="st63" d="M229.6,779.2L229.6,779.2l-0.3-1.2l-38.9,22.4h9.1l30.7-17.7h0.1C230.1,781.4,229.9,780.3,229.6,779.2z
			 M215.3,742.8l-57.3,57.5h6.3l53.4-53.4C216.9,745.6,216.1,744.2,215.3,742.8z M189.6,712.8L139,800.3h5.3l48.8-84.5
			C192,714.8,190.8,713.8,189.6,712.8L189.6,712.8z M153.8,692.6l-28.8,107.8h4.7l28.4-106.2C156.7,693.5,155.2,693.1,153.8,692.6
			L153.8,692.6z M0.7,777.7L0.7,777.7c-0.2,0.8-0.3,1.5-0.4,2.2c-0.2,0.9-0.3,1.7-0.5,2.6l31,17.8h9.1L0.7,777.7z M14.6,742.9
			L14.6,742.9c-0.4,0.6-0.8,1.3-1.2,1.9s-0.8,1.4-1.1,2l53.4,53.4H72L14.6,742.9z M40.5,712.8l-0.9,0.7c-0.6,0.5-1.2,1-1.7,1.5
			l-0.5,0.5l-0.3,0.3l48.9,84.6H91L40.5,712.8z M76,692.6L76,692.6l-1,0.4c-1,0.4-2.1,0.7-3.1,1.2l28.4,106.2h4.7L76,692.6z
			 M112.7,685.9v114.4h4.5V685.9H112.7z"/>
	</g>
	<g>
		<g>
			
				<linearGradient id="SVGID_49_" gradientUnits="userSpaceOnUse" x1="29.9965" y1="1459.501" x2="29.9965" y2="1595.601" gradientTransform="matrix(1 0 0 1 0 -824)">
				<stop  offset="0.42" style="stop-color:#2CA77F"/>
				<stop  offset="1" style="stop-color:#1B8877"/>
			</linearGradient>
			<path class="st64" d="M63.6,683.9c-11.1,0-15.2-9.7-15.2-23.2s-3.8-24.6-18.7-25.3c-19.4-0.7-17.6,18-17.6,40.8
				c0,29-10.4,10.4-24.9,26.6c-12.5,13.8,3.4,38.4,8.3,45.7H58c2.1-3.8,7.3-13.1,13.1-24.6C84.3,699.8,74.6,683.9,63.6,683.9z"/>
			<path class="st65" d="M33.8,688.4h-3.1v43.4l-13.1-17.4l-2.5,1.9L30.7,737v11.6h3.1v-32.8L47,699.5l-2.4-2l-10.7,13.4V688.4z"/>
		</g>
		<path class="st66" d="M76.4,749h-92.7v51.5h92.7V749z"/>
	</g>
	<g>
		<path class="st67" d="M623.2,816.2c-1.5-7.1-4.1-14-7.6-20.4c-0.5-0.9-1-1.8-1.6-2.7c-4-6.6-8.9-12.7-14.7-17.8
			c-0.7-0.7-1.5-1.4-2.3-2c-6.2-5.2-13.2-9.3-20.7-12.3c-0.9-0.4-1.9-0.7-2.8-1c-7.8-2.7-15.9-4.2-24.1-4.3h-3
			c-8.2,0.1-16.4,1.6-24.1,4.3c-0.9,0.3-1.9,0.7-2.8,1c-7.5,3-14.5,7.1-20.7,12.3c-0.8,0.6-1.6,1.3-2.3,2
			c-5.8,5.2-10.7,11.2-14.7,17.9c-0.5,0.9-1,1.8-1.6,2.7c-3.5,6.4-6.1,13.2-7.6,20.4c-0.2,1-0.4,2-0.6,3.1
			c-0.8,4.4-1.2,8.9-1.2,13.5h154c0-4.5-0.4-9-1.2-13.5C623.6,818.2,623.5,817.2,623.2,816.2z"/>
		<path class="st66" d="M777.3,839c-2.4-11.1-6.4-21.8-11.9-31.8c-0.7-1.3-1.6-2.8-2.5-4.2c-6.2-10.4-13.9-19.7-22.9-27.8
			c-1.1-1.1-2.3-2.1-3.5-3.1c-9.6-8.1-20.5-14.5-32.2-19.2c-1.5-0.6-2.9-1.1-4.4-1.6c-12.1-4.3-24.8-6.5-37.6-6.7h-4.6
			c-12.8,0.2-25.5,2.5-37.6,6.7c-1.5,0.5-2.9,1.1-4.4,1.6c-11.7,4.6-22.5,11.1-32.2,19.1c-1.2,1-2.5,2.1-3.5,3.1
			c-9,8.1-16.7,17.4-22.9,27.8c-0.9,1.3-1.6,2.8-2.5,4.2c-5.5,10-9.5,20.7-11.9,31.8c-0.4,1.6-0.6,3.2-1,4.8c-1.2,6.9-1.8,14-1.8,21
			h240c0-7-0.6-14.1-1.8-21C777.9,842.2,777.6,840.6,777.3,839z"/>
	</g>
</g>
</svg>
