<?xml version="1.0" encoding="utf-8"?>
<!-- Generator: Adobe Illustrator 24.0.1, SVG Export Plug-In . SVG Version: 6.00 Build 0)  -->
<svg version="1.1" id="Layer_1" xmlns="http://www.w3.org/2000/svg" xmlns:xlink="http://www.w3.org/1999/xlink" x="0px" y="0px"
	 viewBox="0 0 750 1374" style="enable-background:new 0 0 750 1374;" xml:space="preserve">
<style type="text/css">
	.st0{clip-path:url(#SVGID_2_);}
	.st1{fill:url(#SVGID_3_);}
	.st2{fill:url(#SVGID_4_);}
	.st3{fill:url(#SVGID_5_);}
	.st4{fill:url(#SVGID_6_);}
	.st5{fill:url(#SVGID_7_);}
	.st6{fill:url(#SVGID_8_);}
	.st7{fill:url(#SVGID_9_);}
	.st8{fill:none;stroke:url(#SVGID_10_);stroke-width:1.44;stroke-miterlimit:1.15;}
	.st9{fill:#C9D983;fill-opacity:0.3;}
	.st10{fill:url(#SVGID_11_);}
	.st11{fill:none;stroke:url(#SVGID_12_);stroke-width:1.44;stroke-miterlimit:1.15;}
	.st12{fill:#C9D983;fill-opacity:0.2;}
	.st13{fill:#0C5E59;}
	.st14{fill:url(#SVGID_13_);}
	.st15{fill:url(#SVGID_14_);}
	.st16{fill:url(#SVGID_15_);}
	.st17{fill:url(#SVGID_16_);}
	.st18{fill:url(#SVGID_17_);}
	.st19{fill:url(#SVGID_18_);}
	.st20{fill:url(#SVGID_19_);}
	.st21{fill:url(#SVGID_20_);}
	.st22{fill:url(#SVGID_21_);}
	.st23{fill:url(#SVGID_22_);}
	.st24{opacity:0.3;}
	.st25{fill:url(#SVGID_23_);}
	.st26{fill:#084F15;}
	.st27{fill:url(#SVGID_24_);}
	.st28{fill:url(#SVGID_25_);}
	.st29{fill:url(#SVGID_26_);}
	.st30{fill:url(#SVGID_27_);}
	.st31{fill:url(#SVGID_28_);}
	.st32{fill:url(#SVGID_29_);}
	.st33{fill:url(#SVGID_30_);}
	.st34{fill:url(#SVGID_31_);}
	.st35{fill:url(#SVGID_32_);}
	.st36{fill:url(#SVGID_33_);}
	.st37{fill:url(#SVGID_34_);}
	.st38{fill:url(#SVGID_35_);}
	.st39{fill-rule:evenodd;clip-rule:evenodd;fill:url(#SVGID_36_);}
	.st40{fill:url(#SVGID_37_);}
	.st41{fill-rule:evenodd;clip-rule:evenodd;fill:#FFFFFF;fill-opacity:0.2;}
	.st42{fill:url(#SVGID_38_);}
	.st43{fill-rule:evenodd;clip-rule:evenodd;fill:url(#SVGID_39_);}
	.st44{fill:url(#SVGID_40_);}
	.st45{fill:#F4F6D5;}
	.st46{fill:#FFFFFF;}
</style>
<g>
	<title>sssssArtboard 1</title>
	<g>
		<defs>
			<rect id="SVGID_1_" x="0.1" y="-0.1" width="750" height="1335"/>
		</defs>
		<clipPath id="SVGID_2_">
			<use xlink:href="#SVGID_1_"  style="overflow:visible;"/>
		</clipPath>
		<g class="st0">
			
				<linearGradient id="SVGID_3_" gradientUnits="userSpaceOnUse" x1="-143.92" y1="-123.5484" x2="-142.25" y2="-123.5484" gradientTransform="matrix(-982.3 -810.03 810.03 -982.3 -40532.0352 -236592.3125)">
				<stop  offset="0" style="stop-color:#FFEDBA"/>
				<stop  offset="1" style="stop-color:#EE4D47"/>
			</linearGradient>
			<path class="st1" d="M1001.5-0.4h-2135.9v1330.8H835.3c91.8,0,166.2-74.5,166.2-166.3V-0.4z"/>
			
				<linearGradient id="SVGID_4_" gradientUnits="userSpaceOnUse" x1="-144.7982" y1="-122.723" x2="-143.1282" y2="-122.723" gradientTransform="matrix(0 1100.16 -1100.16 0 -135968.1875 158949.5469)">
				<stop  offset="0" style="stop-color:#F4A984"/>
				<stop  offset="1" style="stop-color:#F4A984;stop-opacity:0"/>
			</linearGradient>
			<path class="st2" d="M1099.6,568.7H1051c-3.7,0-6.8,3-6.8,6.8v406.3c0,5.1-4.2,9.3-9.3,9.3s-9.3-4.2-9.3-9.3l0,0V722.2
				c0-9.2-7.4-16.6-16.6-16.6c0,0,0,0-0.1,0h-17.4c-9.2,0-16.6,7.4-16.6,16.6c0,0,0,0,0,0l0,0v16.3c0,9.2-7.4,16.6-16.6,16.6H848.7
				c-7,0-12.6,5.7-12.6,12.7v7c0,3.1-2.5,5.6-5.6,5.6l0,0l0,0c-3.1,0-5.6,2.5-5.6,5.6v90.4c0,7.6-6.1,13.8-13.8,13.8l0,0
				c-7.6,0-13.8,6.2-13.8,13.8v60.3c0,9.2-7.5,16.6-16.6,16.6h-1.6c-9.2,0-16.6,7.5-16.6,16.6v88.1c0,3.4-2.8,6.2-6.2,6.2
				c-3.4,0-6.2-2.8-6.2-6.2c0,0,0,0,0,0V574.9c0-2.8-2.3-5.1-5.1-5.1s-5.1-2.3-5.1-5.1V520c0-4.8-3.9-8.7-8.7-8.7h0l0,0
				c-4.8,0-8.7-3.9-8.7-8.7v-43.3c0-3.3-2.6-5.9-5.9-5.9s-5.9-2.6-5.9-5.9v-35.5c0-9.2-7.4-16.6-16.6-16.6h-42.3
				c-9.2,0-16.6,7.5-16.6,16.6v35.5c0,3.3-2.6,5.9-5.9,5.9c-3.3,0-5.9,2.6-5.9,5.9v43.4c0,4.8-3.9,8.7-8.7,8.7h0l0,0
				c-4.8,0-8.7,3.9-8.7,8.7l0,0l0,0v45c0,2.3-1.9,4.2-4.2,4.2l0,0l0,0c-2.3,0-4.2,1.9-4.2,4.2v0l0,0l0,0v348c0,5.4-4.4,9.8-9.9,9.8
				c-5.4,0-9.8,4.4-9.8,9.9l0,0l0,0v138.5c0,6.7-5.4,12.1-12.1,12.1h-11c-0.6,0-1.1-0.5-1.1-1.1c0,0,0,0,0,0l0,0
				c0-0.6-0.5-1.1-1.1-1.1h-3.7c-1.1-0.2-1.8-1.2-1.6-2.3c0.1-0.8,0.8-1.5,1.6-1.6h2c1.6,0,2.8-1.3,2.8-2.8c0-1.6-1.3-2.8-2.8-2.8
				h-1.8c-1.2,0-2.3-1-2.3-2.3s1-2.3,2.3-2.3h1.7c1.6,0.1,2.9-1.1,3-2.6c0.1-1.6-1.1-2.9-2.6-3h-2.3c-1.1-0.2-1.8-1.2-1.6-2.3
				c0.1-0.8,0.8-1.5,1.6-1.6h2c1.6,0,2.8-1.3,2.8-2.8c0-1.6-1.3-2.8-2.8-2.8h-2c-1.1-0.2-1.8-1.2-1.6-2.3c0.1-0.8,0.8-1.5,1.6-1.6h2
				c1.6,0.1,2.9-1.1,3-2.6c0.1-1.6-1.1-2.9-2.6-3h-2.3c-1.1-0.2-1.8-1.2-1.6-2.3c0.1-0.8,0.8-1.5,1.6-1.6h2c1.6,0.1,2.9-1.1,3-2.6
				c0.1-1.6-1.1-2.9-2.6-3h-2.3c-1.1,0-2-0.9-2-2s0.9-2,2-2h2c1.6,0.1,2.9-1.1,3-2.6c0.1-1.6-1.1-2.9-2.6-3h-2.3
				c-1.1-0.2-1.8-1.2-1.6-2.3c0.1-0.8,0.8-1.5,1.6-1.6h2c1.6,0.1,2.9-1.1,3-2.6c0.1-1.6-1.1-2.9-2.6-3l0,0h-2.3c-1.1,0-2-0.9-2-2
				s0.9-2,2-2h2c1.5-0.2,2.7-1.5,2.5-3.1c-0.1-1.2-1-2.2-2.2-2.5h-2.3c-1.1-0.2-1.8-1.2-1.6-2.3c0.1-0.8,0.8-1.5,1.6-1.6h2
				c1.6,0.1,2.9-1.1,3-2.6c0.1-1.6-1.1-2.9-2.6-3h-2.3c-1.1-0.2-1.8-1.2-1.6-2.3c0.1-0.8,0.8-1.5,1.6-1.6h2c1.6,0,2.8-1.3,2.8-2.8
				s-1.3-2.8-2.8-2.8h-0.5c-1.9,0-3.4-1.5-3.4-3.4v-1.1c0-1.9,1.5-3.4,3.4-3.4l0,0h0.6c1.6,0.1,2.9-1.1,3-2.6c0.1-1.6-1.1-2.9-2.6-3
				l0,0h-2.3c-1.1-0.2-1.8-1.2-1.6-2.3c0.1-0.8,0.8-1.5,1.6-1.6h2c1.6,0,2.8-1.3,2.8-2.8s-1.3-2.8-2.8-2.8h-2
				c-1.1-0.2-1.8-1.2-1.6-2.3c0.1-0.8,0.8-1.5,1.6-1.6h2c1.6,0.1,2.9-1.1,3-2.6c0.1-1.6-1.1-2.9-2.6-3l0,0h-2.3
				c-1.1-0.2-1.8-1.2-1.6-2.3c0.1-0.8,0.8-1.5,1.6-1.6h2c1.6,0,2.8-1.3,2.8-2.8s-1.3-2.8-2.8-2.8h-2c-1.1-0.2-1.8-1.2-1.6-2.3
				c0.1-0.8,0.8-1.5,1.6-1.6h2c1.6,0.1,2.9-1.1,3-2.7s-1.1-2.9-2.7-3l0,0h-2.3c-1.1-0.2-1.8-1.2-1.6-2.3c0.1-0.8,0.8-1.5,1.6-1.6h2
				c1.6,0.1,2.9-1.1,3-2.6c0.1-1.6-1.1-2.9-2.6-3l0,0h-2.3c-1.1,0-2-0.9-2-2s0.9-2,2-2h2c1.6,0.1,2.9-1.1,3-2.6
				c0.1-1.6-1.1-2.9-2.6-3h-2.3c-1.1-0.2-1.8-1.2-1.6-2.3c0.1-0.8,0.8-1.5,1.6-1.6h2c1.6,0.1,2.9-1.1,3-2.6c0.1-1.6-1.1-2.9-2.6-3
				h-2.3c-1.1-0.2-1.8-1.2-1.6-2.3c0.1-0.8,0.8-1.5,1.6-1.6h2c1.6,0,2.8-1.3,2.8-2.8s-1.3-2.8-2.8-2.8h-2c-1.1-0.2-1.8-1.2-1.6-2.3
				c0.1-0.8,0.8-1.5,1.6-1.6h2c1.6,0.1,2.9-1.1,3-2.6c0.1-1.6-1.1-2.9-2.6-3l0,0h-2.3c-1.1-0.2-1.8-1.2-1.6-2.3
				c0.1-0.8,0.8-1.5,1.6-1.6h2c1.6,0.1,2.9-1.1,3-2.6c0.1-1.6-1.1-2.9-2.6-3l0,0h-2.3c-1.1,0-2-0.9-2-2s0.9-2,2-2h2
				c1.6,0.1,2.9-1.1,3-2.6c0.1-1.6-1.1-2.9-2.6-3l0,0h-2.3c-1.1-0.2-1.8-1.2-1.6-2.3c0.1-0.8,0.8-1.5,1.6-1.6h2
				c1.6,0.1,2.9-1.1,3-2.6c0.1-1.6-1.1-2.9-2.6-3h-0.9c-1.9,0-3.4-1.5-3.4-3.4l0,0V859c0-1.9,1.5-3.4,3.4-3.4l0,0h0.6
				c1.6,0,2.8-1.3,2.8-2.8s-1.3-2.8-2.8-2.8h-2c-1.1-0.2-1.8-1.2-1.6-2.3c0.1-0.8,0.8-1.5,1.6-1.6h2c1.6,0.1,2.9-1.1,3-2.6
				c0.1-1.6-1.1-2.9-2.6-3l0,0h-2.3c-1.1-0.2-1.8-1.2-1.6-2.3c0.1-0.8,0.8-1.5,1.6-1.6h2c1.6,0.1,2.9-1.1,3-2.6
				c0.1-1.6-1.1-2.9-2.6-3h-2.3c-1.1-0.2-1.8-1.2-1.7-2.3c0.1-0.9,0.8-1.5,1.7-1.7h2c1.6-0.1,2.7-1.5,2.6-3c-0.1-1.3-1-2.3-2.3-2.6
				h-0.9c-1.9,0-3.4-1.5-3.4-3.4v-3.7c0-1.4-1.1-2.5-2.5-2.5c-1.4,0-2.5-1.1-2.5-2.5v-3.7c0-3.4-2.8-6.2-6.2-6.2h-0.5
				c-3.7,0-6.8-3-6.8-6.8l0,0l0,0v-18c0-2.8-2.3-5.1-5.1-5.1l0,0l0,0c-2.8,0-5.1-2.3-5.1-5.1v-19.1c0-7.8-5.5-14.5-13.1-16.2
				l-17.9-3.9c-4.3-1-7.3-4.8-7.3-9.2v-52.5c0.2-1.1-0.5-2.1-1.6-2.3c-1.1-0.2-2.1,0.5-2.3,1.6c0,0.2,0,0.5,0,0.7v53.1
				c0,2.8-2.2,5.1-5,5.1c0,0,0,0,0,0l0,0c-0.4,0-0.8,0-1.2-0.1c-2.7-0.6-5.4,1.1-6.1,3.8c0,0,0,0,0,0l0,0c-0.1,0.4-0.1,0.7-0.1,1.1
				v39c0,2.3-1.9,4.2-4.2,4.2s-4.2,1.9-4.2,4.2v18.9c0,3.7-3,6.8-6.8,6.8H447c-2.9,0-5.3,2.4-5.4,5.3c0,0,0,0,0,0l0,0v2.8
				c0,1.4-1.1,2.5-2.5,2.5h0l0,0c-1.4,0-2.5,1.1-2.5,2.5l0,0l0,0v2.3c0,2.6-2.1,4.8-4.8,4.8h0h-49.5c-9.2,0-16.6,7.5-16.6,16.6v29.2
				c0,9.2-7.5,16.6-16.6,16.6h-41c-2.1,0-4.1,0.4-6,1.1l-50.5,19.7c-1.7,0.7-2.8,2.3-2.8,4.2v19.5c0,2.5,2,4.5,4.5,4.5h0h1.1
				c1.9,0,3.4,1.5,3.4,3.4s-1.5,3.4-3.4,3.4l0,0h-2.3c-1.9,0-3.4,1.5-3.4,3.4s1.5,3.4,3.4,3.4h2.3c1.9,0,3.4,1.5,3.4,3.4
				s-1.5,3.4-3.4,3.4l0,0h-2.3c-1.9,0-3.4,1.5-3.4,3.4s1.5,3.4,3.4,3.4h2.3c1.9-0.1,3.5,1.3,3.6,3.2s-1.3,3.5-3.2,3.6h-2.6
				c-1.9,0-3.4,1.5-3.4,3.4s1.5,3.4,3.4,3.4h2.3c1.9,0,3.4,1.5,3.4,3.4s-1.5,3.4-3.4,3.4l0,0h-2.3c-1.9,0-3.4,1.5-3.4,3.4
				s1.5,3.4,3.4,3.4h3.1c1.4,0.1,2.5,1.3,2.4,2.7c-0.1,1.3-1.1,2.3-2.4,2.4H204c-7,0-13.2-4.3-15.6-10.9l-13.3-36.1
				c-1.4-3.7-5.5-5.6-9.3-4.3c-2,0.7-3.5,2.3-4.3,4.3c-2.8,7.7-14.7,5.5-14.6-2.7v-40.4c0-22.5,0-45.1-0.6-67.6
				c0-9.6-0.6-19.7-0.6-29.3c-0.6-20.8-1.1-41.7-2.3-63.1c-0.6-10.1-0.6-20.3-1.1-30.4c-1.1-19.7-1.7-38.9-2.8-58.6
				c0-2.3-0.6-4.5-0.6-6.8c-1.1-17.5-2.3-34.3-3.4-51.8c-2.3-31.5-5.1-63.1-7.9-94.6c-0.2-2.9-0.5-5.8-0.8-8.8
				c-0.9-8.7-8.2-15.4-17-15.4H4.6c-8.1,0-15.3,6-15.3,14.1c-0.6,6.8-1.1,13.5-1.7,20.3c-0.6,5.6-1.1,11.8-1.7,17.5
				c-1.1,10.7-1.7,21.4-2.8,32.1c-0.6,5.1-0.6,9.6-1.1,14.7c-0.6,9-1.1,18-2.3,27c-0.5,3.7-0.7,7.5-0.6,11.3
				c-0.6,11.8-1.7,23.7-2.3,34.9c0,3.9-0.6,7.9-0.6,11.8c-0.6,12.4-1.1,24.2-1.7,36.6c0,2.8-0.6,5.1-0.6,7.9
				c-0.6,11.3-1.1,23.1-1.7,34.3v6.8c-0.6,13-1.1,25.9-1.1,38.9v7.9c-0.6,13.5-0.6,27-1.1,40v1.7c0,13.5-0.6,27-0.6,40V935
				c0,6.7-5.4,12.1-12.1,12.1c-6.7,0-12.1,5.4-12.1,12.1l0,0v135.2c0,7.9-6.4,14.3-14.3,14.4c0,0,0,0,0,0h-13
				c-0.8,0-1.4-0.6-1.4-1.4c0-0.8,0.6-1.4,1.4-1.4h1.1c1.4,0,2.5-1.1,2.5-2.5l0,0l0,0v-1.1c0-1.4-1.1-2.5-2.5-2.5c0,0,0,0,0,0l0,0
				c-1.4,0-2.5-1.1-2.5-2.5v-2.3c0-1.4,1.1-2.5,2.5-2.5c1.4,0,2.5-1.1,2.5-2.5l0,0l0,0v-1.1c0-1.4-1.1-2.5-2.5-2.5c0,0,0,0,0,0l0,0
				c-1.4,0-2.5-1.1-2.5-2.5l0,0l0,0v-2.8c0-1.4,1.1-2.5,2.5-2.5c1.4,0,2.5-1.1,2.5-2.5l0,0l0,0v-1.1c0-1.4-1.1-2.5-2.5-2.5
				c0,0,0,0,0,0l0,0c-1.4,0-2.5-1.1-2.5-2.5l0,0l0,0v-2.8c0-1.4,1.1-2.5,2.5-2.5c0,0,0,0,0,0l0,0c1.4,0,2.5-1.1,2.5-2.5v-1.1
				c0-1.4-1.1-2.5-2.5-2.5c0,0,0,0,0,0l0,0c-1.4,0-2.5-1.1-2.5-2.5l0,0l0,0v-2.8c0-1.4,1.1-2.5,2.5-2.5c0,0,0,0,0,0l0,0
				c1.4,0,2.5-1.1,2.5-2.5v-1.1c0-1.4-1.1-2.5-2.5-2.5c0,0,0,0,0,0l0,0c-1.4,0-2.5-1.1-2.5-2.5l0,0l0,0v-2.8c0-1.4,1.1-2.5,2.5-2.5
				c0,0,0,0,0,0l0,0c1.4,0,2.5-1.1,2.5-2.5v-1.1c0-1.4-1.1-2.5-2.5-2.5c0,0,0,0,0,0l0,0c-1.4,0-2.5-1.1-2.5-2.5l0,0l0,0v-2.8
				c0-1.4,1.1-2.5,2.5-2.5c0,0,0,0,0,0l0,0c1.4,0,2.5-1.1,2.5-2.5v-1.2c0-1.4-1.1-2.5-2.5-2.5c0,0,0,0,0,0l0,0
				c-1.4,0-2.4-1.1-2.5-2.5v-2.8c0-1.4,1.1-2.5,2.5-2.5c0,0,0,0,0,0l0,0c1.4,0,2.5-1.1,2.5-2.5v-1.1c0-1.4-1.1-2.5-2.5-2.5
				c-1.4,0-2.5-1.1-2.5-2.5l0,0l0,0v-2.8c0-1.4,1.1-2.5,2.5-2.5l0,0c1.4,0,2.5-1.1,2.5-2.5l0,0v-1.2c0-1.4-1.1-2.5-2.5-2.5
				c-1.4,0-2.5-1.1-2.5-2.5l0,0l0,0v-2.8c0-1.4,1.1-2.5,2.5-2.5c0,0,0,0,0,0l0,0c1.4,0,2.5-1.1,2.5-2.5v-1.1c0-1.4-1.1-2.5-2.5-2.5
				c-1.4,0-2.5-1.1-2.5-2.5l0,0l0,0v-2.8c0-1.4,1.1-2.5,2.5-2.5c0,0,0,0,0,0l0,0c1.4,0,2.5-1.1,2.5-2.5l0,0l0,0v-3.4
				c0-1.4-1.1-2.5-2.5-2.5c0,0,0,0,0,0l0,0c-1.4,0-2.5-1.1-2.5-2.5l0,0l0,0V952c0-1.4,1.1-2.5,2.5-2.5c0,0,0,0,0,0l0,0
				c1.4,0,2.5-1.1,2.5-2.5v-1.1c0-1.4-1.1-2.5-2.5-2.5c0,0,0,0,0,0l0,0c-1.4,0-2.5-1.1-2.5-2.5l0,0l0,0v-3.4c0-1.4,1.1-2.5,2.5-2.5
				c1.4,0,2.5-1.1,2.5-2.5l0,0l0,0v-1.1c0-1.4-1.1-2.5-2.5-2.5c0,0,0,0,0,0l0,0c-1.4,0-2.5-1.1-2.5-2.5l0,0l0,0v-2.8
				c0-1.4,1.1-2.5,2.5-2.5c1.4,0,2.5-1.1,2.5-2.5l0,0l0,0v-1.1c0-1.4-1.1-2.5-2.5-2.5c0,0,0,0,0,0l0,0c-1.4,0-2.5-1.1-2.5-2.5
				c0,0,0,0,0,0l0,0v-2.8c0-1.4,1.1-2.5,2.5-2.5c1.4,0,2.5-1.1,2.5-2.5l0,0l0,0V903c0-1.4-1.1-2.5-2.5-2.5c0,0,0,0,0,0l0,0
				c-1.4,0-2.5-1.1-2.5-2.5l0,0l0,0v-2.8c0-1.4,1.1-2.5,2.5-2.5c0,0,0,0,0,0l0,0c1.4,0,2.5-1.1,2.5-2.5c0,0,0,0,0,0v-1.1
				c0-1.4-1.1-2.5-2.5-2.5c-1.4,0-2.5-1.1-2.5-2.5l0,0l0,0V881c0-1.4,1.1-2.5,2.5-2.5c1.4,0,2.5-1.1,2.5-2.5l0,0v-1.1
				c0-1.4-1.1-2.5-2.5-2.5c0,0,0,0,0,0l0,0c-1.4,0-2.5-1.1-2.5-2.5l0,0l0,0V867c0-1.4,1.1-2.5,2.5-2.6l0,0c1.4,0,2.5-1.1,2.5-2.5
				l0,0l0,0v-1.1c0-1.4-1.1-2.5-2.5-2.5c0,0,0,0,0,0l0,0c-1.4,0-2.5-1.1-2.5-2.5l0,0l0,0v-2.8c0-1.4,1.1-2.5,2.5-2.5
				c1.4,0,2.5-1.1,2.5-2.5l0,0l0,0v-1.1c0-1.4-1.1-2.5-2.5-2.5c0,0,0,0,0,0l0,0c-1.4,0-2.5-1.1-2.5-2.5l0,0l0,0v-2.8
				c0-1.4,1.1-2.5,2.5-2.5c0,0,0,0,0,0l0,0c1.4,0,2.5-1.1,2.5-2.5v-3.4c0-1.4-1.1-2.5-2.5-2.5c0,0,0,0,0,0l0,0
				c-1.4,0-2.5-1.1-2.5-2.5l0,0l0,0v-2.8c0-1.4,1.1-2.5,2.5-2.5c1.4,0,2.5-1.1,2.6-2.5c0,0,0,0,0,0v-1.1c0-1.4-1.1-2.5-2.5-2.5
				c0,0,0,0,0,0l0,0c-1.4,0-2.5-1.1-2.5-2.5v-2.8c0-1.4,1.1-2.5,2.5-2.5c1.4,0,2.5-1.1,2.5-2.5l0,0l0,0v-1.2c0-1.4-1.1-2.5-2.5-2.5
				c0,0,0,0,0,0l0,0c-1.4,0-2.5-1.1-2.5-2.5v-2.8c0-1.4,1.1-2.5,2.5-2.5c1.4,0,2.5-1.1,2.5-2.5l0,0l0,0v-1.1c0-1.4-1.1-2.5-2.5-2.5
				c0,0,0,0,0,0l0,0c-1.4,0-2.5-1.1-2.5-2.5l0,0l0,0v-9c0-1.4,1.1-2.5,2.5-2.5c0,0,0,0,0,0l0,0c1.4,0,2.5-1.1,2.5-2.5l0,0v-1.7
				c0-2.3-1.9-4.2-4.2-4.2c0,0,0,0,0,0h-8.2c-2.2,0-3.9-1.8-3.9-3.9l0,0v-0.9c0-1.7,1.3-3,3-3s3-1.3,3-3c0-0.7-0.2-1.3-0.6-1.8
				l-20.2-27.2c-2.4-3.2-6.2-5.2-10.2-5.2h-0.3c-6.8,0-12.4-5.6-12.4-12.4c0-1.3-1.1-2.7-1.1-4v-32.3c0-1.1-0.9-2-2-2s-2,0.9-2,2
				v32.5c0,1.2-1.1,2.7-1.1,3.9c0,6.8-5.5,12.4-12.4,12.4c0,0,0,0,0,0h-0.3c-4,0-7.8,1.9-10.2,5.1l-21.3,28.7
				c-0.7,0.9-0.5,2.2,0.4,2.9c0,0,0,0,0,0l0,0c0.4,0.3,0.8,0.4,1.2,0.4c1.1,0,2.1,0.9,2.1,2.1l0,0l0,0v1.9c0,2.2-1.7,3.9-3.9,3.9
				c0,0,0,0,0,0h-8c-2.3,0-4.2,1.9-4.2,4.2l0,0v1.2c0,1.7,1.4,3.1,3.1,3.1c1.7,0,3.1,1.4,3.1,3.1l0,0l0,0v7.9c0,1.7-1.4,3.1-3.1,3.1
				c0,0,0,0,0,0l0,0c-1.7,0-3.1,1.4-3.1,3.1c0,1.7,1.4,3.1,3.1,3.1c0,0,0,0,0,0l0,0c1.7,0,3.1,1.4,3.1,3.1l0,0l0,0v1.7
				c0,1.7-1.4,3.1-3.1,3.1c0,0,0,0,0,0l0,0c-1.7,0-3.1,1.4-3.1,3.1c0,1.7,1.4,3.1,3.1,3.1c0,0,0,0,0,0l0,0c1.7,0,3.1,1.4,3.1,3.1
				l0,0l0,0v1.7c0,1.7-1.4,3.1-3.1,3.1c0,0,0,0,0,0l0,0c-1.7,0-3.1,1.4-3.1,3.1c0,1.7,1.4,3.1,3.1,3.1l0,0c1.7,0,3.1,1.4,3.1,3.1
				l0,0l0,0v1.7c0,1.7-1.4,3.1-3.1,3.1c0,0,0,0,0,0l0,0c-1.7,0-3.1,1.4-3.1,3.1c0,1.7,1.4,3.1,3.1,3.1c0,0,0,0,0,0l0,0
				c1.7,0,3.1,1.3,3.1,3v0.1l0,0v1.7c0,1.7-1.4,3.1-3.1,3.1c0,0,0,0,0,0l0,0c-1.7,0-3.1,1.4-3.1,3.1v0l0,0c0,1.7,1.4,3.1,3.1,3.1
				c1.7,0,3.1,1.4,3.1,3.1l0,0l0,0v1.7c0,1.7-1.3,3.1-3,3.2c0,0-0.1,0-0.1,0l0,0c-1.7,0-3.1,1.4-3.1,3.1v0l0,0
				c0,1.7,1.4,3.1,3.1,3.1c1.7,0,3.1,1.4,3.1,3.1l0,0l0,0v1.7c0,1.7-1.4,3-3.1,3l0,0c-1.7,0-3.1,1.4-3.1,3.1v0l0,0
				c0,1.7,1.4,3.1,3.1,3.1c1.7,0,3.1,1.4,3.1,3.1l0,0l0,0v1.7c0,1.7-1.4,3.1-3.1,3.1c0,0,0,0,0,0l0,0c-1.7,0-3.1,1.4-3.1,3.1v0l0,0
				c0,1.7,1.4,3.1,3.1,3.1c1.7,0,3,1.4,3,3.1l0,0l0,0v1.7c0,1.7-1.4,3.1-3.1,3.1c0,0,0,0,0,0l0,0c-1.7,0-3.1,1.4-3.1,3.1
				c0,1.7,1.4,3.1,3.1,3.1c1.7,0,3.1,1.4,3.1,3.1l0,0l0,0l0,0v1.7c0,1.7-1.4,3.1-3.1,3.1c0,0,0,0,0,0l0,0c-1.7,0-3.1,1.4-3.1,3.1
				c0,1.7,1.4,3.1,3.1,3.1c1.7,0,3.1,1.4,3.1,3.1l0,0l0,0v1.7c0,1.7-1.4,3.1-3.1,3.1c0,0,0,0,0,0l0,0c-1.7,0-3.1,1.4-3.1,3.1
				c0,1.7,1.4,3.1,3.1,3.1c1.7,0,3.1,1.4,3.1,3.1l0,0l0,0v1.8c0,1.7-1.4,3.1-3.1,3.1c0,0,0,0,0,0l0,0c-1.7,0-3.1,1.4-3.1,3.1
				c0,1.7,1.4,3.1,3.1,3.1c1.7,0,3.1,1.4,3.1,3.1l0,0l0,0v1.6c0,1.7-1.4,3.1-3.1,3.1c0,0,0,0,0,0l0,0c-1.7,0-3.1,1.4-3.1,3.1
				c0,1.7,1.4,3.1,3.1,3.1c1.7,0,3.1,1.4,3.1,3.1l0,0l0,0v1.7c0,1.7-1.4,3.1-3.1,3.1c0,0,0,0,0,0l0,0c-1.7,0-3.1,1.4-3.1,3.1
				c0,1.7,1.4,3.1,3.1,3.1h2.3c0.5,0,0.8,0.4,0.8,0.8c0,0.5-0.4,0.8-0.8,0.8h-29.5c-4,0-7.3-3.3-7.3-7.3l0,0l0,0V576l-0.3-12.1
				c-0.2-6.9-4.6-13-11.1-15.3l-16.8-5.8c-4.4-1.5-9.2,0.8-10.7,5.1c0,0,0,0,0,0l0,0c-0.3,0.9-0.5,1.9-0.5,2.8v2.6
				c0,3.2-2.6,5.8-5.9,5.8c-3.2,0-5.8-2.6-5.8-5.8l0,0v-0.2l0.7-36.5c0.2-7.8-5.1-14.6-12.6-16.5l-35.5-8.9
				c-8.9-2.2-17.9,3.1-20.2,12c-0.2,0.9-0.4,1.8-0.5,2.8l-5.2,68.8l-0.6,7.9l-0.6,6.2l-0.6,7.9l-0.6,6.2l-0.6,7.9l-0.6,6.2l-0.6,7.9
				l-0.6,6.2l-0.6,7.9l-0.6,6.2l-0.6,7.9l-0.6,6.2l-0.6,7.9l-0.6,6.2l-0.6,7.9l-0.6,6.2l-0.6,7.9l-0.6,6.2l-0.6,7.9l-0.6,6.2
				l-0.6,7.9l-0.6,6.2v0.4c-0.3,4.7-2.7,9.1-6.4,12l-2.9,2.2c-3.7,2.9-6,7.1-6.4,11.8l-0.6,6.2l-0.6,7.9l-0.6,6.2l-0.6,7.9l-0.6,6.2
				l-0.6,7.9l-0.6,6.2l-0.6,7.3c0,1.6-1.3,2.8-2.8,2.8h-46.4c-9.2,0-16.6,7.5-16.6,16.6l0,0v64.2c0,4.8-3.9,8.7-8.7,8.7h0l0,0
				c-4.8,0-8.7,3.9-8.7,8.7l0,0l0,0l0,0v173.2c0,6.5-5.3,11.8-11.8,11.8c-6.5,0-11.8-5.3-11.8-11.8V394.1c0-2.5-2-4.5-4.5-4.5
				c0,0,0,0,0,0l0,0c-2.5,0-4.5-2-4.5-4.5v0v-61.7c0-9.2-7.4-16.6-16.6-16.6h-95.6c-9.2,0-16.6,7.5-16.6,16.6l0,0v62.2
				c0,2.5-2,4.5-4.5,4.5h0l0,0c-2.5,0-4.5,2-4.5,4.5v0l0,0v299.9c0,4.5-3.7,8.2-8.2,8.2h-6.5c-0.9,0-1.7,0.8-1.7,1.7l0,0l0,0v0.5
				c0,0.6-0.5,1.1-1.1,1.1c-0.6,0-1.1,0.5-1.1,1.1v6.2c0,0.6,0.5,1.1,1.1,1.1l0,0c0.6,0,1.1,0.5,1.1,1.1l0,0v0.6
				c0,0.6-0.5,1.1-1.1,1.1c-0.6,0-1.1,0.5-1.1,1.1v6.2c0,0.6,0.5,1.1,1.1,1.1c0.6,0,1.1,0.5,1.1,1.1v0.6c0,0.6-0.5,1.1-1.1,1.1
				c-0.6,0-1.1,0.5-1.1,1.1v6.2c0,0.6,0.5,1.1,1.1,1.1c0.6,0,1.1,0.5,1.1,1.1v0.6c0,0.6-0.5,1.1-1.1,1.1c-0.6,0-1.1,0.5-1.1,1.1v6.2
				c0,0.6,0.5,1.1,1.1,1.1l0,0c0.6,0,1.1,0.5,1.1,1.1l0,0v0.6c0,0.6-0.5,1.1-1.1,1.1c-0.6,0-1.1,0.5-1.1,1.1v6.2
				c0,0.6,0.5,1.1,1.1,1.1c0.6,0,1.1,0.5,1.1,1.1v0.6c0,0.6-0.5,1.1-1.1,1.1h0l0,0c-0.6,0-1.1,0.5-1.1,1.1l0,0v6.2
				c0,0.6,0.5,1.1,1.1,1.1c0.6,0,1.1,0.5,1.1,1.1v0.6c0,0.6-0.5,1.1-1.1,1.1c-0.6,0-1.1,0.5-1.1,1.1v6.2c0,0.6,0.5,1.1,1.1,1.1
				c0.6,0,1.1,0.5,1.1,1.1v0.6c0,0.6-0.5,1.1-1.1,1.1c-0.6,0-1.1,0.5-1.1,1.1v6.2c0,0.6,0.5,1.1,1.1,1.1c0.6,0,1.1,0.5,1.1,1.1v0.6
				c0,0.6-0.5,1.1-1.1,1.1h0l0,0c-0.6,0-1.1,0.5-1.1,1.1l0,0l0,0v6.2c0,0.6,0.5,1.1,1.1,1.1c0.6,0,1.1,0.5,1.1,1.1v0.6
				c0,0.6-0.5,1.1-1.1,1.1c-0.6,0-1.1,0.5-1.1,1.1v6.2c0,0.6,0.5,1.1,1.1,1.1c0.6,0,1.1,0.5,1.1,1.1v0.6c0,0.6-0.5,1.1-1.1,1.1
				c-0.6,0-1.1,0.5-1.1,1.1v6.2c0,0.6,0.5,1.1,1.1,1.1c0.6,0,1.1,0.5,1.1,1.1v0.6c0,0.6-0.5,1.1-1.1,1.1c-0.6,0-1.1,0.5-1.1,1.1v6.2
				c0,0.6,0.5,1.1,1.1,1.1c0.6,0,1.1,0.5,1.1,1.1l0,0v0.6c0,0.6-0.5,1.1-1.1,1.1c-0.6,0-1.1,0.4-1.1,1v6.2c0,0.6,0.5,1.1,1.1,1.1
				c0.6,0,1.1,0.5,1.1,1.1v0.6c0,0.6-0.5,1.1-1.1,1.1c-0.6,0-1.1,0.5-1.1,1.1v6.2c0,0.6,0.5,1.1,1.1,1.1c0.6,0,1.1,0.5,1.1,1.1v0.6
				c0,0.6-0.5,1.1-1.1,1.1c-0.6,0-1.2,0.4-1.2,1.1c0,0,0,0.1,0,0.1v6.2c0,0.6,0.5,1.1,1.1,1.1l0,0c0.6,0,1.1,0.5,1.1,1.1l0,0v11.8
				c0,0.6-0.5,1.1-1.1,1.1h0l0,0c-0.6,0-1.1,0.5-1.1,1.1l0,0l0,0v6.2c0,0.6,0.5,1.1,1.1,1.1c0.6,0,1.1,0.5,1.1,1.1v0.6
				c0,0.6-0.5,1.1-1.1,1.1c-0.6,0-1.1,0.5-1.1,1.1v1.4c0,1.4-1.1,2.5-2.5,2.5h0H-677c-9.2,0-16.6-7.4-16.6-16.6l0,0v-152
				c0-9.2-7.4-16.7-16.6-16.7H-776c-9.2,0-16.6,7.4-16.6,16.6l0,0v88.4c0,7.9-6.4,14.4-14.4,14.4c0,0,0,0,0,0h-11
				c-1.9,0-3.4-1.5-3.3-3.4c0,0,0,0,0,0l0,0c0-1.9-1.5-3.4-3.4-3.4l0,0h-2.5c-3.3,0-5.9-2.7-5.9-5.9V373.3c0-2.5-2-4.5-4.5-4.5h0
				l0,0c-2.5,0-4.5-2-4.5-4.5v0V241.8c0-9.2-7.4-16.6-16.6-16.6h-122.6c-9.2,0-16.6,7.5-16.6,16.6v122.5c0,2.5-2,4.5-4.5,4.5l0,0
				l0,0c-2.5,0-4.5,2-4.5,4.5v0l0,0l0,0v595.9c0,5.9-4.8,10.7-10.7,10.7c-5.9,0-10.7-4.8-10.7-10.7l0,0V755.5
				c0-9.2-7.4-16.6-16.6-16.6h-4.4c-9.2,0-16.6-7.4-16.7-16.6c0,0,0,0,0,0l0,0V638c0-3.4-2.8-6.2-6.2-6.2s-6.2-2.8-6.2-6.2V600
				c0-9.2-7.4-16.6-16.6-16.6h-142.3c-9.2,0-16.6,7.4-16.6,16.6v25.6c0,3.4-2.8,6.2-6.2,6.2c-3.4,0-6.2,2.8-6.2,6.2v366.3
				c0,9.2-7.4,16.6-16.6,16.6h-7.3c-9.2,0-16.6-7.5-16.6-16.6l0,0V785.9c0-9.2-7.4-16.6-16.6-16.6h-115.8c-9.2,0-16.6,7.4-16.7,16.6
				c0,0,0,0,0,0l0,0v125.9c0,9-7.3,16.3-16.3,16.3c-9,0-16.3,7.3-16.3,16.3v0v128.5c0,5.3-4.3,9.6-9.5,9.6l0,0l0,0
				c-5.3,0-9.6-4.3-9.6-9.6l0,0l0,0l0,0V630.1c0-2.2-1.7-3.9-3.9-3.9c0,0,0,0,0,0h-2.3c-0.9,0-1.7-0.8-1.7-1.7s0.8-1.7,1.7-1.7h2.2
				c2.2,0,3.9-1.7,3.9-3.9v-3.4c0-2.2-1.7-3.9-3.9-3.9c0,0,0,0,0,0h-2.3c-0.9,0-1.7-0.8-1.7-1.7c0-0.9,0.7-1.7,1.7-1.7h0h2.3
				c2.2,0,3.9-1.7,3.9-3.9v-3.5c0-2.2-1.7-3.9-3.9-3.9c0,0,0,0,0,0h-2.3c-0.9,0-1.7-0.7-1.7-1.7l0,0c0-0.9,0.8-1.7,1.7-1.7h2.2
				c2.2,0,3.9-1.7,3.9-3.9v-3.4c0-2.2-1.7-3.9-3.9-3.9c0,0,0,0,0,0h-2.8c-0.6,0-1.1-0.5-1.1-1.1c0-0.6,0.5-1.1,1.1-1.1h3.1
				c2.3,0,4.2-1.9,4.2-4.2l0,0v-2.8c0-2.3-1.9-4.2-4.2-4.2h-2.5c-0.9,0-1.7-0.7-1.7-1.7l0,0c0-0.9,0.8-1.7,1.7-1.7h2.5
				c2.3,0,4.2-1.9,4.2-4.2v-2.8c0-2.3-1.9-4.2-4.2-4.2h-2.5c-0.9,0-1.7-0.8-1.7-1.7s0.8-1.7,1.7-1.7h2.5c2.3,0,4.2-1.9,4.2-4.2v-2.8
				c0-2.3-1.9-4.2-4.2-4.2h-2.5c-0.9,0-1.7-0.8-1.7-1.7s0.8-1.7,1.7-1.7h2.5c2.3,0,4.2-1.9,4.2-4.2V502c-0.2-5.5-2.6-10.6-6.8-14.1
				c-16.8-14.9-40.5-46.6-41-90.3V395c0-2.6-2.1-4.8-4.8-4.8h-1.7c-1.7,0-3.1,1.4-3.1,3.1c0,1.7-1.4,3.1-3.1,3.1h-3.7
				c-3.7,0-6.8-3-6.8-6.8V301c0-1.4-1.1-2.5-2.5-2.5c-1.4,0-2.5,1.1-2.5,2.5v94.6c0,0.8-0.6,1.4-1.4,1.4l0,0l0,0
				c-0.8,0-1.4-0.6-1.4-1.4v0l0,0v-1.7c0-1.7-1.4-3.1-3.1-3.1h-3.9c-1.7,0-3.1,1.4-3.1,3.1c0,1.7-1.4,3.1-3.1,3.1h-11.8
				c-1.7,0-3.1-1.4-3.1-3.1l0,0c0-1.7-1.4-3.1-3.1-3.1h-2c-2.8,0-5,2.3-5.1,5.1v1.1c0,44.4-12.2,76.5-26.5,91.6
				c-3.8,4-6.7,9.1-6.7,14.7v22.4c0,0.1,0.1,0.3,0.3,0.3c0,0,0,0,0,0l0,0c0.2,0,0.3,0.1,0.3,0.3l0,0v5.9c0,2.8,2.3,5,5.1,5.1h3.4
				c0.9,0,1.7,0.8,1.7,1.7s-0.8,1.7-1.7,1.7h-3.4c-2.8,0-5.1,2.3-5.1,5.1v1.1c0,2.8,2.3,5.1,5.1,5.1h3.4c0.9,0,1.7,0.8,1.7,1.7
				s-0.8,1.7-1.7,1.7h-3.6c-2.9,0-5.3,2.4-5.3,5.3v0.6c0,2.9,2.4,5.3,5.3,5.3h4.2c0.6,0,1.1,0.5,1.1,1.1c0,0.6-0.5,1.1-1.1,1.1h-4.2
				c-3,0-5.3,2.4-5.3,5.3v0.6c0,3,2.4,5.3,5.3,5.3h3.7c0.9,0,1.7,0.8,1.7,1.7s-0.8,1.7-1.7,1.7h-3.7c-2.9,0-5.3,2.4-5.3,5.3l0,0v0.6
				c0,3,2.4,5.3,5.3,5.3h3.7c0.9,0,1.7,0.8,1.7,1.7s-0.8,1.7-1.7,1.7h-3.7c-2.9,0-5.3,2.4-5.3,5.3l0,0v0.6c0,2.9,2.4,5.3,5.3,5.3
				h3.7c0.9,0,1.7,0.8,1.7,1.7s-0.8,1.7-1.7,1.7h-3.7c-3,0-5.3,2.4-5.3,5.3v0.6c0,2.9,2.4,5.3,5.3,5.3h3.7c0.9,0,1.7,0.8,1.7,1.7
				c0,0.9-0.8,1.7-1.7,1.7h-3.9c-3.1,0-5.6,2.5-5.6,5.6v221.9c0,8.7-7,15.8-15.8,15.8c-8.7,0-15.8,7-15.8,15.7v95.5
				c0,4.8-3.9,8.7-8.7,8.7l0,0c-4.8,0-8.7,3.9-8.7,8.7v87.9c0,3.6-4,5.4-7.6,5.3h-0.6l-0.6-0.1c-6.6-0.9-11.4-6.5-11.4-13.1V875.8
				c0-6.6-3.9-12.6-10-15.2l-3.6-1.6c-0.3-0.2-0.7-0.2-1.1-0.2h-0.8c-2.3,0-4.2-1.9-4.2-4.2v-2.3c0-1.1-0.9-2-2-2s-2,0.9-2,2
				s-0.9,2-2,2h-0.2c-0.9,0-1.7,0.8-1.7,1.7v0l0,0c0,0.9-0.7,1.7-1.6,1.7l-6.4,0.3c-1.7,0.1-3.1-1.1-3.2-2.8v-0.2
				c0-1.2-0.6-2.2-1.7-2.7l-1.5-0.8c-0.9-0.4-1.8-0.6-2.8-0.6l-32.9,1c-1.8,0.1-3.3,1.6-3.3,3.4c0,1.9-1.5,3.4-3.4,3.4h-0.5
				c-2.2,0-3.9,1.7-3.9,3.9v37.5c0,9.2-7.4,16.6-16.6,16.6h-29.2c-9.2,0-16.6-7.4-16.6-16.6V636.9c0-4-3.3-7.3-7.3-7.3
				c-4,0-7.3-3.3-7.3-7.3v0l0,0v-48.7c0-9.2-7.4-16.6-16.6-16.6h-25c-5.3,0-9.6-4.3-9.6-9.6c0-5.3-4.3-9.6-9.5-9.6c0,0,0,0,0,0h-6.5
				c-8.6,0-15.5-6.9-15.5-15.5s-6.9-15.5-15.5-15.5h-95.7c-9.1,0.1-16.5,7.5-16.5,16.6v16.8c0,9.2-7.4,16.6-16.6,16.6h-30.9
				c-9.2,0-16.6,7.4-16.6,16.6c0,0,0,0,0,0l0,0v485.4c0,9.2-7.4,16.6-16.6,16.6h-1.6c-9.2,0-16.6,7.4-16.6,16.6v16
				c0,9-7.3,16.3-16.3,16.3l0,0l0,0c-9,0-16.3-7.3-16.3-16.3c0,0,0,0,0,0l0,0v-123c0-9.2-7.4-16.6-16.6-16.6h-17.4
				c-9.2,0-16.6-7.4-16.6-16.6c0,0,0,0,0,0l0,0v-34c0-0.4-0.2-0.7-0.6-0.9s-0.6-0.5-0.6-0.9v-5.9c0-2.3-0.8-4.6-2.2-6.5l-7.8-10.1
				c-2.3-2.9-3.5-6.5-3.5-10.2v-10c0-1.5-0.6-3-1.7-4.1c-1.1-1.1-1.7-2.5-1.7-4.1V841c0-0.5-0.4-0.8-0.9-0.8c-0.5,0-0.8,0.4-0.8,0.8
				v24.8c0,1.3-0.5,2.5-1.4,3.4c-0.9,0.9-1.4,2.1-1.4,3.4V885c0,3.4-1,6.7-3,9.5l-7,10c-1.2,1.7-1.8,3.7-1.8,5.7v3.3
				c0,1.3-0.6,2.5-1.7,3.2c-1.1,0.7-1.7,1.9-1.7,3.2v1.5c0,2-1.1,4-2.8,5l-0.7,0.4c-1.3,0.8-2.1,2.2-2.1,3.8c0,1.6-0.9,3.1-2.3,3.8
				l-0.8,0.5c-1.9,1-3.1,3-3.1,5.2v51.6c0,6-4.8,10.8-10.8,10.8c-0.3,0-0.7,0-1,0c-5.6,0-10.1-4.5-10.1-10.1V889.5
				c0-9.2-7.4-16.6-16.6-16.6h-36c-9.2,0-16.6,7.5-16.6,16.6v46.1c0,9.2-7.4,16.6-16.6,16.6h-10.6c-9.2,0-16.6,7.5-16.6,16.6v33.8
				c0,3-2.4,5.3-5.3,5.3c-2.9,0-5.4,2.3-5.4,5.3c0,0,0,0,0,0l0,0v63.1c0,2.3-1.9,4.2-4.2,4.2l0,0c-2.3,0-4.2-1.9-4.2-4.2l0,0v-26.8
				c0-3.1-2.5-5.6-5.6-5.6c-3.1,0-5.6-2.5-5.6-5.6v0l0,0V752.6c0-9.2-7.5-16.6-16.7-16.6c0,0,0,0,0,0h-79.6
				c-70.3,0-127.1,49.6-127.1,120v39.7c0,9.2-7.4,16.6-16.6,16.6l0,0h-6.5c-20.3,0-36.6,34.9-36.6,54.1v66.2
				c0,9.2-7.4,16.6-16.6,16.6h-26.4c-9.2,0-16.6-7.4-16.6-16.6v0l0,0V970c0-9.2-7.5-16.6-16.6-16.6h-6.7c-9.2,0-16.6,7.4-16.6,16.6
				l0,0v144.7c0,4.8-3.9,8.7-8.7,8.7c-4.8,0-8.7-3.9-8.7-8.7l0,0l0,0v-81.1c0-2.6-2.1-4.8-4.8-4.8l0,0l0,0c-2.6,0-4.8-2.1-4.8-4.8
				c0,0,0,0,0,0l0,0v-54c0-9.2-7.4-16.7-16.6-16.7c0,0,0,0,0,0h-2.3c-9.2,0-16.6-7.5-16.6-16.6v-59.1c0-9.2-7.4-16.6-16.6-16.7
				h-43.8c-9.2,0-16.6,7.5-16.6,16.6v335.6c0,9.2,7.4,16.6,16.6,16.6h4105.6c9.2,0,16.6-7.4,16.6-16.6V585.4
				C1116.2,576.2,1108.8,568.8,1099.6,568.7L1099.6,568.7z M436.6,887.7c0,1.1-0.9,2-2,2h-3.7c-0.3,0-0.6-0.3-0.6-0.6v-1.4
				c0-1.1,0.9-2,2-2h2.3C435.7,885.8,436.6,886.7,436.6,887.7L436.6,887.7L436.6,887.7z M436.6,878.1c0,1.1-0.9,2-2,2h-2.2
				c-1.1-0.2-1.8-1.2-1.6-2.3c0.1-0.8,0.8-1.5,1.6-1.6h2.3C435.8,876.2,436.6,877.1,436.6,878.1L436.6,878.1z M436.6,868
				c0,1.1-0.9,2-2,2h-2.2c-1.1-0.2-1.8-1.2-1.6-2.3c0.1-0.8,0.8-1.5,1.6-1.6h2.3C435.8,866.1,436.6,867,436.6,868L436.6,868z
				 M436.6,857.9c0,1.1-0.9,2-2,2h-2.2c-1.1,0.2-2.1-0.5-2.3-1.6c-0.2-1.1,0.5-2.1,1.6-2.3c0.2,0,0.5,0,0.7,0h2.3
				C435.8,855.9,436.6,856.8,436.6,857.9L436.6,857.9z M436.6,847.7c0,1.1-0.9,2-2,2h-2.2c-1.1-0.2-1.8-1.2-1.6-2.3
				c0.1-0.8,0.8-1.5,1.6-1.6h2.3C435.8,845.8,436.6,846.7,436.6,847.7L436.6,847.7z M436.6,837.6c0,1.1-0.9,2-2,2h-2.2
				c-1.1,0.2-2.1-0.5-2.3-1.6c-0.2-1.1,0.5-2.1,1.6-2.3c0.2,0,0.5,0,0.7,0h2.3C435.8,835.7,436.6,836.6,436.6,837.6L436.6,837.6z
				 M436.6,828c0,1.1-0.9,2-2,2h-2.2c-1.1-0.2-1.8-1.2-1.6-2.3c0.1-0.8,0.8-1.5,1.6-1.6h2.3C435.8,826.1,436.6,827,436.6,828
				L436.6,828z"/>
			
				<linearGradient id="SVGID_5_" gradientUnits="userSpaceOnUse" x1="-143.381" y1="-124.7992" x2="-141.711" y2="-124.7992" gradientTransform="matrix(0 -689.59 689.59 0 85993.8516 -98102.2578)">
				<stop  offset="0" style="stop-color:#FFEDBA;stop-opacity:0"/>
				<stop  offset="0.1" style="stop-color:#FEE0B0;stop-opacity:7.000000e-02"/>
				<stop  offset="0.3" style="stop-color:#FABF96;stop-opacity:0.24"/>
				<stop  offset="0.57" style="stop-color:#F5896D;stop-opacity:0.52"/>
				<stop  offset="0.91" style="stop-color:#ED3F34;stop-opacity:0.89"/>
				<stop  offset="1" style="stop-color:#EB2A24"/>
			</linearGradient>
			<path class="st3" d="M1001.5-4.4h-2135.9v1330.8H835.3c91.8,0,166.2-74.5,166.2-166.3V-4.4z"/>
			
				<linearGradient id="SVGID_6_" gradientUnits="userSpaceOnUse" x1="-146.084" y1="-124.7451" x2="-144.414" y2="-124.7451" gradientTransform="matrix(0.16 312.76 -312.76 0.16 -38187.8203 45930.8477)">
				<stop  offset="0" style="stop-color:#FFFFFF;stop-opacity:0.56"/>
				<stop  offset="1" style="stop-color:#FFFFFF;stop-opacity:0"/>
			</linearGradient>
			<path class="st4" d="M1107.2,975.9c167.3-167.5,167.3-439,0-606.4s-438.5-167.4-605.7,0s-167.3,439,0,606.4
				S939.9,1143.3,1107.2,975.9L1107.2,975.9z"/>
			
				<linearGradient id="SVGID_7_" gradientUnits="userSpaceOnUse" x1="-145.9874" y1="-124.0238" x2="-144.3174" y2="-124.0238" gradientTransform="matrix(0.1 228.74 -228.74 0.1 -27984.6895 34117.0313)">
				<stop  offset="0" style="stop-color:#FFFFFF;stop-opacity:0.2"/>
				<stop  offset="1" style="stop-color:#FFFFFF;stop-opacity:0"/>
			</linearGradient>
			<path class="st5" d="M591.6,1261c122.3-122.5,122.3-321,0-443.5s-320.7-122.5-443,0s-122.3,321,0,443.5S469.2,1383.4,591.6,1261z
				"/>
			
				<linearGradient id="SVGID_8_" gradientUnits="userSpaceOnUse" x1="-145.9493" y1="-124.1018" x2="-144.2793" y2="-124.1018" gradientTransform="matrix(0 201.49 -201.49 0 -24273.627 30273.9199)">
				<stop  offset="0" style="stop-color:#2CA77F"/>
				<stop  offset="0.24" style="stop-color:#2CA77F"/>
				<stop  offset="1" style="stop-color:#1B8877"/>
			</linearGradient>
			<path class="st6" d="M731.6,925.1c-70.6,0-127.7,121.3-127.7,270.8h255.6C859.5,1046.2,802.2,925.1,731.6,925.1z"/>
			
				<linearGradient id="SVGID_9_" gradientUnits="userSpaceOnUse" x1="-145.9493" y1="-124.1018" x2="-144.2793" y2="-124.1018" gradientTransform="matrix(0 201.49 -201.49 0 -24273.627 30273.9199)">
				<stop  offset="0" style="stop-color:#2CA77F"/>
				<stop  offset="0.24" style="stop-color:#2CA77F"/>
				<stop  offset="1" style="stop-color:#1B8877"/>
			</linearGradient>
			<path class="st7" d="M731.6,925.1c-70.6,0-127.7,121.3-127.7,270.8h255.6C859.5,1046.2,802.2,925.1,731.6,925.1z"/>
			
				<linearGradient id="SVGID_10_" gradientUnits="userSpaceOnUse" x1="-145.8793" y1="-123.9547" x2="-144.6193" y2="-123.9547" gradientTransform="matrix(0 183.04 -183.04 0 -21985.6934 27626.3594)">
				<stop  offset="0" style="stop-color:#FFFFFF;stop-opacity:0.2"/>
				<stop  offset="1" style="stop-color:#FFFFFF;stop-opacity:0"/>
			</linearGradient>
			<path class="st8" d="M623.9,949.6c40.5-18.5,122.2-48.6,125.4-21.8c4,33.6-230,177.9-150,147.3s149.1-114.7,166.8-85
				s-156,152.3-97.8,146.3s130.3-142.3,153-120.6c22.7,21.7-149.1,173-110.5,185.8S854.9,1000,897.3,995.1"/>
			<path class="st9" d="M842.9,1195.9h16.6c0-149.7-57.3-270.8-127.9-270.8c-2.8,0-5.5,0.2-8.3,0.6
				C790,934.6,842.9,1052.1,842.9,1195.9z"/>
			
				<linearGradient id="SVGID_11_" gradientUnits="userSpaceOnUse" x1="-145.795" y1="-123.678" x2="-144.125" y2="-123.678" gradientTransform="matrix(0 210.56 -210.56 0 -25536.4199 31601.4004)">
				<stop  offset="0" style="stop-color:#2CA77F"/>
				<stop  offset="0.42" style="stop-color:#2CA77F"/>
				<stop  offset="1" style="stop-color:#1B8877"/>
			</linearGradient>
			<path class="st10" d="M505.2,902.2c-81.9,0-148.3,130.8-148.3,292.1h296.6C653.4,1033,587.1,902.2,505.2,902.2L505.2,902.2z"/>
			
				<linearGradient id="SVGID_12_" gradientUnits="userSpaceOnUse" x1="-146.2539" y1="-123.5836" x2="-144.9939" y2="-123.5836" gradientTransform="matrix(0 149.35 -149.35 0 -17949.1387 22828.4805)">
				<stop  offset="0" style="stop-color:#FFFFFF;stop-opacity:0.2"/>
				<stop  offset="1" style="stop-color:#FFFFFF;stop-opacity:0"/>
			</linearGradient>
			<path class="st11" d="M369.5,961.1c15.6-18.5,50.8-51.3,66.1-35.2c19.3,20.1-21.8,89.8,5,98.2c26.8,8.4,64.5-123.4,97.1-110.8
				s-140.7,216.5-80.4,224.1s87.9-174.5,113.9-162s-58.6,110.8-29.4,139.3s44.4-105.7,67.8-90.6s6.7,90.6-15.9,141.8"/>
			<path class="st12" d="M620.4,1194.3h33.2c-0.2-161.3-66.4-292.1-148.3-292.1c-5.6,0-11.1,0.6-16.6,1.8
				C562.7,920.2,620.3,1044,620.4,1194.3z"/>
			<g id="palm">
				<rect x="713.8" y="1015.3" class="st13" width="2.8" height="177.6"/>
				
					<linearGradient id="SVGID_13_" gradientUnits="userSpaceOnUse" x1="-152.2905" y1="-124.3035" x2="-150.6205" y2="-124.3035" gradientTransform="matrix(0 42.51 -42.51 0 -4570.2905 7440.79)">
					<stop  offset="0" style="stop-color:#D3D86C"/>
					<stop  offset="1" style="stop-color:#82A637"/>
				</linearGradient>
				<path class="st14" d="M735.2,1004c-5.9,0-11.4,4.3-15.2,8.1c2.6-3.7,6.2-8.2,8.9-9c2.8-0.9,5.7-1.2,8.6-0.8c0,0-4.4-6.2-11-3.3
					c-2.9,1.2-5.3,5.3-7.1,9.3c1-3.7,1.8-8.1,1.1-12.1c-1.7-10.2-12.9-11-12.9-11s6.3,8.8,7.4,19.1l0.4,4c-1-5.9-3.3-13-9-16.9
					c-14.2-9.5-23.2,7.1-23.2,7.1s8.1-5.1,18.8,0.3c8.5,4.3,12,13.3,13.2,17c-1.4-2.7-7.3-13.2-16.6-14.7
					c-14.1-2.3-17.7,15.5-17.7,15.5s8.1-6.4,18.1-6c5.9,0.2,11.5,2.3,16,6c-2.8-0.7-5.6-1.1-8.5-1.2c-12.5-0.1-15.1,16.6-15.1,16.6
					l23.7-14.5c-1.6,2.8-3,5.8-4.3,8.8c-1.6,3.8-0.5,12.5-0.5,12.5s3.8-6.6,4.9-10.8c0.8-3.4,1-6.9,0.7-10.4l16,17.4
					c0,0,4-10.6-8.2-15.6l-4.1-1.7c3.6,0.6,7.1,2,10.1,4c4.4,2.9,8.3,6.6,11.6,10.8c0,0,4.4-12.8-6.3-18c-3.5-1.5-7.4-1.7-11-0.7
					c3-1.8,6.5-2.5,10-2c9.7,1.2,12.5,8.1,12.5,8.1S749.3,1004,735.2,1004L735.2,1004z"/>
			</g>
			<g id="palm1">
				<rect x="607.7" y="906.1" class="st13" width="4.4" height="290"/>
				
					<linearGradient id="SVGID_14_" gradientUnits="userSpaceOnUse" x1="-149.317" y1="-123.5598" x2="-147.647" y2="-123.5598" gradientTransform="matrix(0 77.82 -77.82 0 -9013.8926 12433.3096)">
					<stop  offset="0" style="stop-color:#D3D86C"/>
					<stop  offset="1" style="stop-color:#82A637"/>
				</linearGradient>
				<path class="st15" d="M640.4,881.1c-10.7,0-20.8,7.7-27.8,14.7c4.7-6.8,11.3-14.9,16.3-16.6c5.1-1.7,10.5-2.1,15.8-1.4
					c0,0-8.1-11.3-20-6c-5.3,2.3-9.8,9.8-13,17c1.8-6.8,3.1-14.7,2-22.1c-2.9-18.4-23.5-20-23.5-20s11.5,16,13.6,34.8
					c0.3,2.5,0.5,4.9,0.6,7.2c-1.8-10.9-6.1-23.9-16.5-30.8c-25.8-17.2-42,13.2-42,13.2s14.8-9.2,34.2,0.6c15.3,7.7,21.8,24.4,24,31
					c-2.6-5.1-13.1-23.9-30.3-26.8c-25.7-4.3-32.3,28.4-32.3,28.4s14.7-11.8,32.9-11c14.1,0.6,24.3,6.4,29.3,11
					c-5-1.4-10.2-2.1-15.4-2.2c-22.8-0.3-27.5,30.2-27.5,30.2l43.3-26.5c-1.8,3.5-5.7,10.9-7.8,16.1c-2.9,7.1-1.1,22.7-1.1,22.7
					s7-12,9-19.8c2-7.5,1.5-15.3,1.2-19l29.3,31.8c0,0,7.2-19.3-14.8-28.7c-2.9-1.2-5.5-2.3-7.5-3.1c6.6,1.1,12.8,3.5,18.3,7.2
					c8,5.3,15.1,12,20.9,19.6c0,0,7.9-23.4-11.7-32.6c-6.4-3.1-13.8-2.6-20-1.2c5.5-3.3,12-4.6,18.3-3.8
					c17.7,2.1,22.6,14.9,22.6,14.9S666.1,881,640.4,881.1L640.4,881.1z"/>
			</g>
			<g id="bush-1">
				
					<linearGradient id="SVGID_15_" gradientUnits="userSpaceOnUse" x1="-147.1274" y1="-122.8761" x2="-145.4574" y2="-122.8761" gradientTransform="matrix(0 106.71 -106.71 0 -12725.4268 16712.0605)">
					<stop  offset="0" style="stop-color:#D3D86C"/>
					<stop  offset="1" style="stop-color:#82A637"/>
				</linearGradient>
				<path class="st16" d="M517.9,1162c-2.7-12.4-7.2-24.4-13.3-35.5c-0.8-1.5-1.8-3.2-2.7-4.7c-7-11.6-15.6-22.1-25.6-31.1
					c-1.3-1.2-2.6-2.4-4-3.4c-10.8-9-22.9-16.2-36-21.4c-1.6-0.7-3.3-1.2-4.9-1.8c-13.5-4.7-27.7-7.3-42-7.5h-5.3
					c-14.3,0.2-28.5,2.8-42,7.5c-1.6,0.6-3.3,1.2-4.9,1.8c-13.1,5.2-25.2,12.4-36,21.4c-1.4,1.1-2.7,2.3-4,3.4
					c-10.1,9-18.7,19.5-25.6,31.1c-1,1.5-1.8,3.2-2.7,4.7c-6.1,11.1-10.6,23.1-13.3,35.5c-0.4,1.8-0.7,3.6-1.1,5.3
					c-1.4,7.7-2.1,15.6-2.1,23.4H521c0-7.9-0.7-15.7-2-23.4C518.6,1165.6,518.3,1163.8,517.9,1162z"/>
				
					<linearGradient id="SVGID_16_" gradientUnits="userSpaceOnUse" x1="-147.9284" y1="-122.5062" x2="-146.2592" y2="-122.5062" gradientTransform="matrix(0 80.51 -80.51 0 -9476.2695 12965.3896)">
					<stop  offset="0" style="stop-color:#084F15;stop-opacity:0"/>
					<stop  offset="1" style="stop-color:#084F15;stop-opacity:0.3"/>
				</linearGradient>
				<path class="st17" d="M384.1,1056.4v134.4h5.2v-134.4H384.1z"/>
				
					<linearGradient id="SVGID_17_" gradientUnits="userSpaceOnUse" x1="-148.1232" y1="-122.2822" x2="-146.4539" y2="-122.2822" gradientTransform="matrix(0 75.99 -75.99 0 -8935.7539 12319.5596)">
					<stop  offset="0" style="stop-color:#084F15;stop-opacity:0"/>
					<stop  offset="1" style="stop-color:#084F15;stop-opacity:0.3"/>
				</linearGradient>
				<path class="st18" d="M337.1,1065.9l33.4,125.1h5.4l-34-126.8C340.4,1064.7,338.7,1065.3,337.1,1065.9L337.1,1065.9z"/>
				
					<linearGradient id="SVGID_18_" gradientUnits="userSpaceOnUse" x1="-148.9025" y1="-121.7959" x2="-147.2332" y2="-121.7959" gradientTransform="matrix(0 62.02 -62.02 0 -7224.8101 10322.96)">
					<stop  offset="0" style="stop-color:#084F15;stop-opacity:0"/>
					<stop  offset="1" style="stop-color:#084F15;stop-opacity:0.3"/>
				</linearGradient>
				<path class="st19" d="M297.1,1090.7l57.8,100.1h5.9l-59.7-103.5C299.7,1088.4,298.4,1089.6,297.1,1090.7L297.1,1090.7z"/>
				
					<linearGradient id="SVGID_19_" gradientUnits="userSpaceOnUse" x1="-151.0131" y1="-120.4662" x2="-149.3438" y2="-120.4662" gradientTransform="matrix(0 41.4 -41.4 0 -4682.687 7374.4199)">
					<stop  offset="0" style="stop-color:#084F15;stop-opacity:0"/>
					<stop  offset="1" style="stop-color:#084F15;stop-opacity:0.3"/>
				</linearGradient>
				<path class="st20" d="M268.8,1126.5l64.4,64.5h7.3l-69-69.1C270.6,1123.4,269.7,1125,268.8,1126.5L268.8,1126.5z"/>
				
					<linearGradient id="SVGID_20_" gradientUnits="userSpaceOnUse" x1="-159.8241" y1="-115.0412" x2="-158.1541" y2="-115.0412" gradientTransform="matrix(0 17.33 -17.33 0 -1713.6996 3932.55)">
					<stop  offset="0" style="stop-color:#084F15;stop-opacity:0"/>
					<stop  offset="1" style="stop-color:#084F15;stop-opacity:0.3"/>
				</linearGradient>
				<path class="st21" d="M254.4,1167.4l40.7,23.4h10.4l-50-28.9C255.1,1163.8,254.8,1165.6,254.4,1167.4L254.4,1167.4z"/>
				
					<linearGradient id="SVGID_21_" gradientUnits="userSpaceOnUse" x1="-148.1232" y1="-122.6005" x2="-146.4632" y2="-122.6005" gradientTransform="matrix(0 75.99 -75.99 0 -8899.6211 12319.5596)">
					<stop  offset="0" style="stop-color:#084F15;stop-opacity:0"/>
					<stop  offset="1" style="stop-color:#084F15;stop-opacity:0.3"/>
				</linearGradient>
				<path class="st22" d="M397.4,1191h5.3l33.4-125.1c-1.6-0.7-3.3-1.2-4.9-1.8L397.4,1191z"/>
				
					<linearGradient id="SVGID_22_" gradientUnits="userSpaceOnUse" x1="-148.9025" y1="-122.5406" x2="-147.2332" y2="-122.5406" gradientTransform="matrix(0 62.02 -62.02 0 -7155.6304 10323.0498)">
					<stop  offset="0" style="stop-color:#084F15;stop-opacity:0"/>
					<stop  offset="1" style="stop-color:#084F15;stop-opacity:0.3"/>
				</linearGradient>
				<path class="st23" d="M412.5,1191h6l57.8-100.1c-1.3-1.2-2.6-2.4-4-3.4L412.5,1191L412.5,1191z"/>
				<g class="st24">
					
						<linearGradient id="SVGID_23_" gradientUnits="userSpaceOnUse" x1="-151.0131" y1="-122.0525" x2="-149.3438" y2="-122.0525" gradientTransform="matrix(0 41.4 -41.4 0 -4584.3198 7374.4199)">
						<stop  offset="0" style="stop-color:#084F15;stop-opacity:0"/>
						<stop  offset="1" style="stop-color:#084F15"/>
					</linearGradient>
					<path class="st25" d="M432.9,1191h7.2l64.4-64.4c-0.8-1.5-1.8-3.2-2.7-4.7L432.9,1191L432.9,1191z"/>
				</g>
				<path class="st26" d="M468,1191h10.4l40.6-23.5c-0.3-1.8-0.7-3.6-1.1-5.3L468,1191z"/>
			</g>
			<g id="bush-2">
				
					<linearGradient id="SVGID_24_" gradientUnits="userSpaceOnUse" x1="-148.5346" y1="-123.2243" x2="-146.8646" y2="-123.2243" gradientTransform="matrix(0 67.9 -67.9 0 -7832.0073 11164.2598)">
					<stop  offset="0" style="stop-color:#D3D86C"/>
					<stop  offset="1" style="stop-color:#82A637"/>
				</linearGradient>
				<path class="st27" d="M618.5,1172.6c-1.8-7.9-4.6-15.5-8.5-22.6c-0.5-1-1.1-1.9-1.6-3c-4.4-7.4-9.9-14-16.3-19.8
					c-0.8-0.7-1.7-1.5-2.6-2.2c-6.9-5.7-14.6-10.3-22.9-13.6c-1-0.4-2.1-0.8-3.2-1.1c-8.6-3.1-17.6-4.7-26.7-4.8h-3.3
					c-9.1,0.2-18.1,1.8-26.7,4.8c-1.1,0.4-2.1,0.7-3.1,1.1c-8.3,3.3-16,7.9-22.9,13.6c-0.8,0.7-1.6,1.5-2.6,2.2
					c-6.4,5.7-11.9,12.4-16.3,19.8c-0.5,1-1.1,1.9-1.6,3c-3.9,7.1-6.7,14.7-8.5,22.6c-0.3,1.1-0.4,2.3-0.7,3.4c-0.9,5-1.3,10-1.4,15
					h170.7c0-5-0.4-10.1-1.4-15C619,1174.8,618.8,1173.7,618.5,1172.6L618.5,1172.6z"/>
				
					<linearGradient id="SVGID_25_" gradientUnits="userSpaceOnUse" x1="-149.7913" y1="-122.8577" x2="-148.1313" y2="-122.8577" gradientTransform="matrix(0 51.18 -51.18 0 -5752.8032 8771.8701)">
					<stop  offset="0" style="stop-color:#084F15;stop-opacity:0"/>
					<stop  offset="1" style="stop-color:#084F15;stop-opacity:0.3"/>
				</linearGradient>
				<path class="st28" d="M533.4,1105.6v85.4h3.3v-85.4L533.4,1105.6z"/>
				
					<linearGradient id="SVGID_26_" gradientUnits="userSpaceOnUse" x1="-150.1041" y1="-122.7402" x2="-148.4347" y2="-122.7402" gradientTransform="matrix(0 48.3 -48.3 0 -5412.3325 8361.2305)">
					<stop  offset="0" style="stop-color:#084F15;stop-opacity:0"/>
					<stop  offset="1" style="stop-color:#084F15;stop-opacity:0.3"/>
				</linearGradient>
				<path class="st29" d="M503.7,1111.4l21.2,79.4h3.4l-21.5-80.6C505.8,1110.8,504.6,1111,503.7,1111.4z"/>
				
					<linearGradient id="SVGID_27_" gradientUnits="userSpaceOnUse" x1="-151.336" y1="-122.226" x2="-149.6667" y2="-122.226" gradientTransform="matrix(0 39.43 -39.43 0 -4320.8813 7092.3901)">
					<stop  offset="0" style="stop-color:#084F15;stop-opacity:0"/>
					<stop  offset="1" style="stop-color:#084F15;stop-opacity:0.3"/>
				</linearGradient>
				<path class="st30" d="M478.2,1127.4l36.7,63.6h3.8l-37.9-65.8C479.9,1125.9,479,1126.6,478.2,1127.4z"/>
				
					<linearGradient id="SVGID_28_" gradientUnits="userSpaceOnUse" x1="-154.6607" y1="-120.9451" x2="-152.9907" y2="-120.9451" gradientTransform="matrix(0 26.29 -26.29 0 -2696.7178 5212.27)">
					<stop  offset="0" style="stop-color:#084F15;stop-opacity:0"/>
					<stop  offset="1" style="stop-color:#084F15;stop-opacity:0.3"/>
				</linearGradient>
				<path class="st31" d="M460.1,1150l41,40.9h4.7l-43.8-43.9C461.4,1148.1,460.7,1149.1,460.1,1150L460.1,1150z"/>
				
					<linearGradient id="SVGID_29_" gradientUnits="userSpaceOnUse" x1="-168.5165" y1="-116.1399" x2="-166.8471" y2="-116.1399" gradientTransform="matrix(0 11.01 -11.01 0 -811.3601 3027.3201)">
					<stop  offset="0" style="stop-color:#084F15;stop-opacity:0"/>
					<stop  offset="1" style="stop-color:#084F15;stop-opacity:0.3"/>
				</linearGradient>
				<path class="st32" d="M451.1,1176l25.9,15h6.6l-31.8-18.4C451.5,1173.7,451.3,1174.9,451.1,1176z"/>
				
					<linearGradient id="SVGID_30_" gradientUnits="userSpaceOnUse" x1="-150.1148" y1="-123.0105" x2="-148.4548" y2="-123.0105" gradientTransform="matrix(0 48.22 -48.22 0 -5377.3369 8349.3398)">
					<stop  offset="0" style="stop-color:#084F15;stop-opacity:0"/>
					<stop  offset="1" style="stop-color:#084F15;stop-opacity:0.3"/>
				</linearGradient>
				<path class="st33" d="M541.9,1191h3.4l21.2-79.4c-1-0.4-2.1-0.8-3.2-1.1L541.9,1191z"/>
				
					<linearGradient id="SVGID_31_" gradientUnits="userSpaceOnUse" x1="-151.336" y1="-122.9699" x2="-149.6675" y2="-122.9699" gradientTransform="matrix(0 39.43 -39.43 0 -4276.9517 7092.3901)">
					<stop  offset="0" style="stop-color:#084F15;stop-opacity:0"/>
					<stop  offset="1" style="stop-color:#084F15;stop-opacity:0.3"/>
				</linearGradient>
				<path class="st34" d="M551.5,1191h3.8l36.7-63.6c-0.8-0.7-1.7-1.5-2.6-2.2L551.5,1191z"/>
				
					<linearGradient id="SVGID_32_" gradientUnits="userSpaceOnUse" x1="-154.6607" y1="-122.5362" x2="-152.9907" y2="-122.5362" gradientTransform="matrix(0 26.29 -26.29 0 -2634.1475 5212.3599)">
					<stop  offset="0" style="stop-color:#084F15;stop-opacity:0"/>
					<stop  offset="1" style="stop-color:#084F15;stop-opacity:0.3"/>
				</linearGradient>
				<path class="st35" d="M564.5,1191h4.7l41-40.9c-0.5-1-1.1-1.9-1.6-3L564.5,1191z"/>
				
					<linearGradient id="SVGID_33_" gradientUnits="userSpaceOnUse" x1="-168.5165" y1="-121.0708" x2="-166.8465" y2="-121.0708" gradientTransform="matrix(0 11.01 -11.01 0 -730.0701 3027.3201)">
					<stop  offset="0" style="stop-color:#084F15;stop-opacity:0"/>
					<stop  offset="1" style="stop-color:#084F15;stop-opacity:0.3"/>
				</linearGradient>
				<path class="st36" d="M586.7,1191h6.6l25.9-15c-0.2-1.2-0.4-2.3-0.7-3.4L586.7,1191z"/>
			</g>
			<rect x="59.8" y="945.6" class="st13" width="3.8" height="252.1"/>
			
				<linearGradient id="SVGID_34_" gradientUnits="userSpaceOnUse" x1="-149.8057" y1="-120.3455" x2="-148.1357" y2="-120.3455" gradientTransform="matrix(0 67.63 -67.63 0 -8069.9214 10996.8496)">
				<stop  offset="0" style="stop-color:#D3D86C"/>
				<stop  offset="1" style="stop-color:#82A637"/>
			</linearGradient>
			<path class="st37" d="M35.2,923.9c9.3,0,18.1,6.7,24.2,12.8c-4.1-5.9-9.8-12.9-14.2-14.4c-4.4-1.4-9.1-1.9-13.7-1.2
				c0,0,7-9.9,17.4-5.2c4.7,2,8.5,8.5,11.3,14.8c-1.6-5.9-2.7-12.8-1.7-19.2c2.5-16,20.5-17.3,20.5-17.3S69,908,67.1,924.4
				c-0.3,2.1-0.4,4.3-0.5,6.3c1.6-9.5,5.3-20.8,14.3-26.8c22.5-14.9,36.5,11.5,36.5,11.5s-12.9-8-29.8,0.5
				c-13.3,6.7-19,21.2-20.8,26.9c2.2-4.5,11.4-20.9,26.2-23.4c22.3-3.7,28,24.7,28,24.7s-12.8-10.3-28.6-9.6
				c-12.2,0.5-21.1,5.6-25.5,9.6c4.4-1.2,8.9-1.9,13.4-1.9c19.8-0.3,23.9,26.3,23.9,26.3l-37.5-23.1c1.6,3.1,4.9,9.5,6.8,14
				c2.5,6.1,0.9,19.7,0.9,19.7s-6.1-10.4-7.8-17.2c-1.3-5.4-1.6-11-1.1-16.5l-25.5,27.6c0,0-6.2-16.8,12.9-24.9
				c2.5-1.1,4.8-2,6.5-2.7c-5.7,0.9-11.1,3.1-15.9,6.3c-7,4.6-13.1,10.4-18.2,17.1c0,0-6.9-20.4,10.1-28.4c5.6-2.7,12-2.3,17.4-1.1
				c-4.8-2.8-10.4-4-15.9-3.3c-15.4,1.9-19.7,12.9-19.7,12.9S13,923.7,35.2,923.9L35.2,923.9z"/>
			<g id="bush-3">
				
					<linearGradient id="SVGID_35_" gradientUnits="userSpaceOnUse" x1="-148.7331" y1="-120.2737" x2="-147.0631" y2="-120.2737" gradientTransform="matrix(0 63.87 -63.87 0 -7592.1699 10590.79)">
					<stop  offset="0" style="stop-color:#D3D86C"/>
					<stop  offset="1" style="stop-color:#82A637"/>
				</linearGradient>
				<path class="st38" d="M168.4,1181.3c-1.6-7.4-4.3-14.6-7.9-21.3c-0.5-0.9-1.1-1.9-1.6-2.8c-4.2-6.9-9.3-13.2-15.3-18.6
					c-0.8-0.7-1.6-1.4-2.4-2c-6.5-5.4-13.7-9.7-21.6-12.8c-1-0.4-2-0.7-3-1.1c-8.1-2.8-16.6-4.4-25.2-4.5h-3.1
					c-8.6,0.1-17.1,1.6-25.2,4.5c-1,0.3-2,0.7-3,1.1c-7.8,3.1-15.1,7.4-21.6,12.8c-0.8,0.7-1.6,1.4-2.4,2
					c-6,5.4-11.2,11.7-15.3,18.6c-0.6,0.9-1.1,1.9-1.6,2.8c-3.7,6.7-6.4,13.8-8,21.3c-0.2,1.1-0.4,2.1-0.6,3.2
					c-0.8,4.6-1.2,9.3-1.2,14h160.8c0-4.7-0.4-9.4-1.2-14C168.8,1183.4,168.6,1182.4,168.4,1181.3z"/>
				
					<linearGradient id="SVGID_36_" gradientUnits="userSpaceOnUse" x1="-146.6089" y1="-121.5675" x2="-144.9389" y2="-121.5675" gradientTransform="matrix(0 111.82 -111.82 0 -13503.8613 17512.2109)">
					<stop  offset="0" style="stop-color:#084F15;stop-opacity:0"/>
					<stop  offset="1" style="stop-color:#084F15"/>
				</linearGradient>
				<path class="st39" d="M88.3,1118.1v80.4h3.1v-80.4H88.3z M60.1,1123.8l20,74.8h3.2L63,1122.7l-0.7,0.3l0,0
					C61.5,1123.2,60.8,1123.5,60.1,1123.8z M70.8,1198.6l-34.6-59.9l0.2-0.2l0,0c0.7-0.6,1.4-1.3,2.2-1.8l35.7,62L70.8,1198.6z
					 M19.2,1160.1l38.5,38.6h4.4l-41.3-41.4c-0.2,0.4-0.5,0.9-0.8,1.4S19.5,1159.7,19.2,1160.1L19.2,1160.1z M34.9,1198.6l-24.3-14
					c0.1-0.6,0.2-1.2,0.4-1.8l0,0c0.1-0.5,0.2-1,0.3-1.5l29.9,17.3L34.9,1198.6z M96.2,1198.6h3.2l20-74.8c-1-0.4-2-0.7-3-1.1
					L96.2,1198.6L96.2,1198.6z M108.8,1198.6h-3.6l35.8-62c0.8,0.6,1.6,1.3,2.4,2L108.8,1198.6z M117.4,1198.6h4.3l38.5-38.6
					c-0.5-0.9-1.1-1.9-1.6-2.8L117.4,1198.6z M144.6,1198.6h-6.2l30-17.2c0.3,1.1,0.5,2.1,0.7,3.2L144.6,1198.6z"/>
			</g>
			<g id="bush-4">
				
					<linearGradient id="SVGID_37_" gradientUnits="userSpaceOnUse" x1="-149.2309" y1="-119.4376" x2="-147.5609" y2="-119.4376" gradientTransform="matrix(0 55.58 -55.58 0 -6596.6074 9415.4404)">
					<stop  offset="0" style="stop-color:#2CA77F"/>
					<stop  offset="0.42" style="stop-color:#2CA77F"/>
					<stop  offset="1" style="stop-color:#1B8877"/>
				</linearGradient>
				<path class="st40" d="M64.6,1154.2c-7.5,0-10.4-6.6-10.4-15.8s-2.6-16.7-12.7-17.2c-13.2-0.5-12,12.3-12,27.8
					c0,19.8-7.1,7.1-17,18.2c-8.5,9.4,2.4,26.2,5.6,31.1h42.7c1.4-2.6,4.9-9,8.9-16.7C78.7,1165.1,72.2,1154.2,64.6,1154.2z"/>
				<path class="st41" d="M44.4,1157.3h-2.1v29.6l-8.9-11.8l-1.7,1.3l10.6,14.2v7.9h2.1V1176l9-11.2l-1.7-1.3l-7.3,9.1L44.4,1157.3
					L44.4,1157.3z"/>
			</g>
			
				<linearGradient id="SVGID_38_" gradientUnits="userSpaceOnUse" x1="-144.9628" y1="-124.0509" x2="-143.3028" y2="-124.0509" gradientTransform="matrix(0 467.3 -467.3 0 -58036.2539 68464.5234)">
				<stop  offset="0" style="stop-color:#EEEF99"/>
				<stop  offset="0.28" style="stop-color:#EEEF99"/>
				<stop  offset="0.77" style="stop-color:#B9D079"/>
				<stop  offset="1" style="stop-color:#B9D079"/>
			</linearGradient>
			<rect x="-1144.4" y="1189" class="st42" width="2154.2" height="159"/>
			
				<linearGradient id="SVGID_39_" gradientUnits="userSpaceOnUse" x1="-145.2245" y1="-122.8146" x2="-143.5545" y2="-122.8146" gradientTransform="matrix(0 211.58 -211.58 0 -25928.084 31923.9707)">
				<stop  offset="0" style="stop-color:#FFFFFF;stop-opacity:0.7"/>
				<stop  offset="1" style="stop-color:#FFFFFF;stop-opacity:0"/>
			</linearGradient>
			<path class="st43" d="M-228.9,1252.3c-14.3,15.1-28.9,25.3-44.5,24.6c-3.3,0-6.5-0.8-9.3-2.4c-2.3-1.4-3.9-3.7-4.5-6.3
				c-0.6-2.8-0.5-5.8,0.3-8.6c0.9-3.5,2.1-7,3.7-10.2c6.2-13.4,18.3-30.4,30-46.9l0,0l3.1-4.3c6.3-8.9,12.4-17.6,17.2-25.4
				s8.4-14.7,9.9-20c0.7-2,0.8-4.2,0.5-6.3c-0.3-1.4-1.3-2.6-2.6-3.2c-1.6-0.8-3.9-1.2-7.4-1c-4.5,0.4-9,1.2-13.4,2.5
				c-10.8,3-22.9,9.8-35.9,19.5s-26.9,22.2-41.4,36.5c-20.4,20.2-42,43.7-63.9,67.7l0,0c-9.2,10-18.5,20.2-27.7,30.1
				c-31.3,33.7-62.7,65.6-91.9,87c-29.2,21.4-56.5,32.4-79.6,23.3c-11.4-4.5-17.2-11-17.9-19.1c-0.7-7.9,3.5-16.9,10.4-26.2
				c13.8-18.7,39.4-40.4,64.2-61.3l2.7-2.2l0.1-0.1l0,0c11.5-9.6,22.7-19,32.6-27.9c10.6-9.6,19.5-18.6,25.3-26.3
				c2.5-3.2,4.5-6.7,5.9-10.5c1-3.1,1.1-5.7,0.2-7.9s-2.8-4.1-6.1-5.8s-8.2-3-14.6-3.8c-20.6-2.6-47,3.6-76.3,15.6
				s-61.5,29.8-93.4,50.1c-63.9,40.6-127,91.1-165.5,125.2l-2.2-2.5c38.7-34.2,101.9-84.8,166-125.5c32-20.3,64.3-38.3,93.9-50.4
				s56.6-18.6,78-15.9c6.7,0.9,11.9,2.2,15.7,4.2s6.5,4.4,7.7,7.5s1.1,6.6-0.1,10.2c-1.5,4.1-3.7,8-6.4,11.4
				c-5.9,8.1-15,17.2-25.7,26.8c-9.9,8.9-21.2,18.4-32.7,28l0,0l-2.8,2.3c-25,20.9-50.2,42.3-63.7,60.7c-6.8,9.2-10.3,17.3-9.8,23.9
				c0.5,6.4,5,12.1,15.8,16.3c21.3,8.4,47.4-1.7,76.4-22.9s60.1-52.8,91.4-86.5c9.2-9.9,18.5-20,27.6-30.1
				c21.9-24,43.6-47.6,64.1-67.8c14.5-14.3,28.5-27,41.7-36.8s25.6-16.9,37-20c4.6-1.3,9.3-2.2,14-2.6c3.8-0.2,6.8,0.2,9.1,1.3
				c2.2,1,3.8,3.1,4.4,5.4c0.5,2.6,0.3,5.3-0.5,7.9c-1.6,5.8-5.4,13-10.2,20.8s-11,16.7-17.3,25.6l-2.8,3.9l-0.2,0.3l0,0
				c-11.7,16.6-23.6,33.3-29.7,46.5c-1.5,3.1-2.7,6.3-3.5,9.6c-0.7,2.3-0.8,4.7-0.4,7c0.4,1.8,1.5,3.3,3,4.2
				c1.7,1.1,4.1,1.8,7.7,1.9c14,0.6,27.7-8.6,41.9-23.6c11.5-12.2,23.2-27.8,35.4-44.2l0,0c2.8-3.7,5.6-7.5,8.4-11.3
				c15.3-20.4,31.7-41,49.8-56.5s38.2-26,61-26v3.3c-21.7,0-41,10-58.8,25.2s-34,35.6-49.3,56c-2.8,3.8-5.6,7.5-8.4,11.3l0,0
				C-205.4,1224.1-217.2,1240-228.9,1252.3L-228.9,1252.3z M411.6,1163.6c-3.3-5.2-9.3-8.3-19.7-8c-20.7,0.6-40.5,17.4-59.9,42.8
				s-37.9,58.8-56.2,92l-0.3,0.5c-18.2,33-36.3,65.7-54.7,89.5c-9.2,12-18.6,21.8-28.3,28.3s-19.6,9.7-29.9,8.3s-16.9-5.7-20.8-12.2
				s-4.7-14.9-3.8-24.4c1.8-19,11-43.1,20.2-66.6l2.2-5.6v-0.1l0,0c8.5-21.7,16.7-42.4,19.3-58.2c1.4-8.6,1-15.3-1.5-19.8
				c-2.4-4.3-7.1-7-15.4-7s-16.3,3.6-24.2,10.3s-15.8,16.2-23.6,27.7c-13,19.4-25.9,44.2-39.2,70c-2.6,5-5.2,10-7.8,15.1
				c-16.2,31-33.2,62.1-52.4,85.5s-40.6,39.4-65.6,39.4c-12.3,0-20.4-3.2-24.8-9.4s-4.6-14.6-2.6-24.3s6.3-21.1,11.7-33.1
				c4.5-10.2,9.9-21,15.3-32l0,0l3-6c12.8-26,25.1-52,27.6-72.1c1.2-10,0-18.3-4.5-24.4s-12.5-10.2-25.7-11.6
				c-42.5-4.3-85.6,14.4-122.4,39.6s-66.9,56.9-83.4,78.3l-2.6-2c16.7-21.7,47.1-53.6,84.2-79s81-44.5,124.6-40.2
				c13.7,1.4,22.8,5.8,28.1,12.9s6.5,16.3,5.2,26.8c-2.6,20.8-15.2,47.3-27.9,73.2l-3,6l0,0c-5.4,11-10.7,21.7-15.3,31.8
				c-5.3,12-9.5,23-11.4,32.4s-1.4,16.8,2.1,21.8s10.2,8,22.1,8c23.5,0,44.1-15,63-38.1s35.8-53.9,52-84.9c2.6-5,5.2-10,7.8-15l0,0
				c13.3-25.8,26.3-50.8,39.4-70.3c7.9-11.7,15.9-21.5,24.2-28.4s17.1-11,26.3-11s15.1,3,18.4,8.8c3.1,5.5,3.3,13.2,1.8,22
				c-2.6,16.1-10.9,37.2-19.4,58.7l0,0c-0.8,1.9-1.5,3.8-2.3,5.8c-9.3,23.6-18.2,47.3-20,65.7c-0.9,9.2,0,16.8,3.3,22.4
				s9,9.3,18.3,10.6s18.4-1.6,27.6-7.8s18.3-15.7,27.5-27.5c18.2-23.6,36.2-56.1,54.5-89.2l0.1-0.3c18.3-33.2,37-66.9,56.5-92.5
				s40-43.4,62.4-44.2c11.1-0.3,18.5,3,22.6,9.5s4.8,15.3,3.7,25.7s-4,22.6-7.6,35.6c-1.8,6.5-3.8,13.2-5.8,20l-0.1,0.3
				c-2,6.7-4,13.6-5.9,20.4c-3.9,13.9-7.3,27.7-9.2,40.7s-2.2,24.9,0,35.1s7,18.5,15.4,24.3s20.6,9.3,37.9,9.3v3.3
				c-17.7,0-30.6-3.5-39.8-9.9s-14.4-15.5-16.8-26.3s-2-23.2-0.1-36.3s5.4-27.2,9.3-41.1c1.9-6.8,3.9-13.7,5.9-20.4l0,0l0.1-0.3
				c2-6.8,4-13.5,5.8-20c3.6-13,6.4-24.9,7.5-35.1s0.2-18.2-3.2-23.6L411.6,1163.6z M931.9,1320.6c-3.1-10.4-9.6-21.7-18.3-33.5
				s-19.6-24.1-31.5-36.5c-19.9-20.6-42.8-41.4-63.3-60c-4.1-3.7-8.1-7.3-12-10.9c-11.6-10.6-22-20.3-30-28.5s-13.5-14.9-15.5-19.5
				c-1-2.3-1-3.7-0.5-4.4s1.5-1.5,4.4-1.8c5.7-0.6,16.1,1.2,32.6,5.9l0.9-3.2c-16.5-4.7-27.5-6.6-33.8-6c-3.2,0.3-5.7,1.3-7,3.5
				s-0.8,4.8,0.4,7.4c2.3,5.2,8.2,12.3,16.2,20.5s18.5,18,30.1,28.6c3.9,3.5,7.9,7.2,12,10.9c20.5,18.6,43.3,39.3,63.1,59.8
				c11.9,12.3,22.7,24.5,31.2,36.2s14.8,22.6,17.8,32.5c1.3,4,2.2,8,2.7,12.2c0.3,3.2,0.1,5.3-0.5,6.6c-0.4,1.1-1.4,1.9-2.5,2
				c-2,0.2-4-0.1-5.8-0.9c-5.1-1.7-12-5.7-20.3-11.3s-18.1-12.7-28.9-20.6l-4-3c-20.7-15.2-44.8-32.9-70-48.4
				c-26.8-16.4-54.9-30.4-81.5-35.8c-13.1-2.7-22.4-3.8-28.3-3.5c-2.9,0.2-5.3,0.7-6.9,1.8c-1.7,1.1-2.6,3-2.3,5
				c0.4,2.2,1.4,4.2,2.7,6c1.8,2.5,3.9,4.9,6.1,7.1c5,5.2,12,11.3,20.2,18.2c4.8,4.1,10.1,8.4,15.6,13l0,0
				c13.2,11,28,23.2,42.5,36.3c20.5,18.6,40.3,38.7,53.6,58.7c2.7,3.8,4.9,7.9,6.8,12.1c1.2,3.2,1.3,5.1,0.9,6.2
				c-0.3,0.9-1.2,1.6-3.1,1.9c-2.9,0.2-5.8-0.1-8.6-0.8c-7.6-1.8-18-5.7-30.7-11.1s-27.3-12.2-43.4-19.7l-4-1.9
				c-31.2-14.6-67.1-31.3-102.3-44.8c-36.7-14-72.8-24.6-102-25.3c-11.7-0.3-20.4,0.9-26.5,3.3s-9.9,6.3-11,11.4s0.1,10.6,3,16.7
				s7.5,12.8,13.3,19.7c23.2,27.8,66,61.5,98.3,84l1.9-2.7c-32.3-22.4-74.8-55.9-97.7-83.4c-5.7-6.9-10.1-13.3-12.9-19
				s-3.7-10.6-2.8-14.5s3.6-6.8,9.1-9c5.5-2.2,13.8-3.4,25.2-3.1c28.6,0.7,64.3,11,100.9,25c35.1,13.4,70.9,30.1,102.2,44.7l4,1.9
				c16.1,7.5,30.8,14.3,43.5,19.8s23.3,9.5,31.2,11.3c3.2,0.9,6.6,1.2,9.9,1c2.7-0.3,4.9-1.5,5.8-4c0.8-2.3,0.4-5.2-0.9-8.6
				c-1.9-4.5-4.3-8.8-7.1-12.8c-13.6-20.4-33.6-40.7-54.2-59.3c-14.5-13.2-29.4-25.5-42.7-36.5l0,0c-5.5-4.6-10.8-8.9-15.6-13
				c-8.2-6.9-15-13-19.9-18c-2.1-2.1-4-4.3-5.7-6.7c-1.1-1.3-1.8-2.8-2.2-4.5c0-0.4,0-0.7,0.1-1.1c0.2-0.3,0.4-0.6,0.7-0.8
				c0.9-0.6,2.5-1.1,5.2-1.2c5.5-0.3,14.3,0.8,27.4,3.5c26,5.3,53.7,19,80.4,35.4c25,15.4,49,33,69.7,48.2l4,3
				c10.8,7.9,20.6,15.1,29,20.7s15.6,9.8,21.1,11.7c2.4,0.9,4.9,1.3,7.4,1c2.3-0.4,4.2-1.9,5-4c0.9-2.1,1.1-4.9,0.8-8.3
				c-0.5-4.3-1.5-8.6-2.8-12.8L931.9,1320.6z"/>
			
				<linearGradient id="SVGID_40_" gradientUnits="userSpaceOnUse" x1="-145.4355" y1="-122.5638" x2="-143.7655" y2="-122.5638" gradientTransform="matrix(0 209.49 -209.49 0 -25745.1895 31560.4004)">
				<stop  offset="0" style="stop-color:#82A637;stop-opacity:0.1"/>
				<stop  offset="0.16" style="stop-color:#82A637;stop-opacity:0.1"/>
				<stop  offset="0.89" style="stop-color:#1B8877;stop-opacity:0.1"/>
				<stop  offset="1" style="stop-color:#1B8877;stop-opacity:0.1"/>
			</linearGradient>
			<path class="st44" d="M-499.2,1244.7c-221.5,0-258.6,73.6-649.2,73.6v116h2158.2v-248c-473.9,0-412.9,103.5-821.1,103.5
				S-307.4,1244.6-499.2,1244.7L-499.2,1244.7z"/>
		</g>
	</g>
	<g>
		<path class="st45" d="M331,1348c-1.1-5.2-2.9-10.1-5.4-14.8c-0.3-0.6-0.7-1.3-1.1-1.9c-2.8-4.8-6.4-9.2-10.5-13
			c-0.5-0.5-1.1-1-1.6-1.4c-4.4-3.7-9.4-6.7-14.8-8.9c-0.7-0.3-1.4-0.5-2-0.7c-5.5-2-11.3-3-17.2-3.1h-2.1
			c-5.9,0.1-11.7,1.2-17.2,3.1c-0.7,0.2-1.3,0.5-2,0.7c-5.4,2.2-10.3,5.2-14.8,8.9c-0.6,0.5-1.1,1-1.6,1.4c-4.1,3.8-7.7,8.2-10.5,13
			c-0.4,0.6-0.7,1.3-1.1,1.9c-2.5,4.6-4.3,9.6-5.4,14.8c-0.2,0.7-0.3,1.5-0.4,2.2c-0.6,3.2-0.8,6.5-0.8,9.8h110
			c0-3.3-0.3-6.5-0.8-9.8C331.3,1349.4,331.2,1348.7,331,1348z"/>
		<path class="st46" d="M421.2,1356.3c-1.7-7.8-4.5-15.2-8.3-22.2c-0.5-0.9-1.1-2-1.7-2.9c-4.3-7.2-9.7-13.8-16-19.4
			c-0.8-0.8-1.6-1.5-2.5-2.1c-6.7-5.6-14.3-10.1-22.5-13.4c-1-0.4-2-0.8-3.1-1.1c-8.4-3-17.3-4.6-26.3-4.7h-3.3
			c-9,0.1-17.8,1.7-26.3,4.7c-1,0.3-2.1,0.8-3.1,1.1c-8.2,3.2-15.8,7.8-22.5,13.4c-0.9,0.7-1.7,1.5-2.5,2.1
			c-6.3,5.6-11.7,12.2-16,19.4c-0.6,0.9-1.1,2-1.7,2.9c-3.8,7-6.6,14.4-8.3,22.2c-0.3,1.1-0.4,2.2-0.7,3.3
			c-0.9,4.8-1.3,9.7-1.3,14.7h167.8c0-4.9-0.4-9.8-1.3-14.7C421.7,1358.5,421.5,1357.4,421.2,1356.3z"/>
	</g>
</g>
</svg>
