<svg id="hero-medium" xmlns="http://www.w3.org/2000/svg" xmlns:xlink="http://www.w3.org/1999/xlink" viewBox="0 0 1536 2108">
  <defs>
    <linearGradient id="linear-gradient" x1="1217.43" y1="640.83" x2="1217.43" y2="186.64" gradientTransform="matrix(1, 0, 0, -1, 0, 2110)" gradientUnits="userSpaceOnUse">
      <stop offset="0.24" stop-color="#2ca77f"/>
      <stop offset="1" stop-color="#1b8877"/>
    </linearGradient>
    <linearGradient id="linear-gradient-2" x1="1408.81" y1="510.75" x2="1408.81" y2="196.23" gradientTransform="matrix(1, 0, 0, -1, 0, 2110)" gradientUnits="userSpaceOnUse">
      <stop offset="0.42" stop-color="#2ca77f"/>
      <stop offset="1" stop-color="#1b8877"/>
    </linearGradient>
    <linearGradient id="linear-gradient-3" x1="911.44" y1="593.92" x2="911.44" y2="119.28" xlink:href="#linear-gradient-2"/>
    <linearGradient id="linear-gradient-4" x1="488.76" y1="672.23" x2="488.76" y2="-88.18" gradientTransform="matrix(1, 0, 0, -1, 0, 2110)" gradientUnits="userSpaceOnUse">
      <stop offset="0.28" stop-color="#eeef99"/>
      <stop offset="0.77" stop-color="#b9d079"/>
    </linearGradient>
    <linearGradient id="New_Gradient_Swatch_1" data-name="New Gradient Swatch 1" x1="39.98" y1="48.23" x2="1507.07" y2="2014.58" gradientUnits="userSpaceOnUse">
      <stop offset="0" stop-color="#f3806c" stop-opacity="0.89"/>
      <stop offset="1" stop-color="#ffecb9"/>
    </linearGradient>
    <linearGradient id="linear-gradient-5" x1="768" y1="1027.51" x2="768" y2="-301.69" gradientUnits="userSpaceOnUse">
      <stop offset="0" stop-color="#ffedba" stop-opacity="0"/>
      <stop offset="0.1" stop-color="#fee0b0" stop-opacity="0.07"/>
      <stop offset="0.3" stop-color="#fabf96" stop-opacity="0.24"/>
      <stop offset="0.57" stop-color="#f5896d" stop-opacity="0.52"/>
      <stop offset="0.91" stop-color="#ed3f34" stop-opacity="0.89"/>
      <stop offset="1" stop-color="#eb2a24"/>
    </linearGradient>
    <linearGradient id="linear-gradient-6" x1="1205.46" y1="722.37" x2="1494.01" y2="1265.95" gradientUnits="userSpaceOnUse">
      <stop offset="0" stop-color="#fff" stop-opacity="0.2"/>
      <stop offset="1" stop-color="#fff" stop-opacity="0"/>
    </linearGradient>
    <linearGradient id="linear-gradient-7" x1="258.75" y1="416.86" x2="260.67" y2="416.86" gradientTransform="matrix(0.1, 228.74, -228.74, 0.1, 96355.98, -58114.13)" gradientUnits="userSpaceOnUse">
      <stop offset="0" stop-color="#fff" stop-opacity="0.15"/>
      <stop offset="1" stop-color="#fff" stop-opacity="0"/>
    </linearGradient>
    <linearGradient id="linear-gradient-8" x1="220.93" y1="678" x2="221.09" y2="1333.35" gradientUnits="userSpaceOnUse">
      <stop offset="0" stop-color="#fff" stop-opacity="0.85"/>
      <stop offset="1" stop-color="#fff" stop-opacity="0"/>
    </linearGradient>
    <linearGradient id="linear-gradient-9" x1="768" y1="125.94" x2="768" y2="2706.64" gradientTransform="translate(0 -308)" gradientUnits="userSpaceOnUse">
      <stop offset="0" stop-color="#f4a984"/>
      <stop offset="1" stop-color="#f4a984" stop-opacity="0"/>
    </linearGradient>
    <mask id="mask" x="1014.92" y="1535.34" width="426.51" height="386.89" maskUnits="userSpaceOnUse">
      <g id="mask1">
        <path d="M1217.34,1547c-95.44,0-172.63,163.81-172.63,365.7h345.44C1390.15,1710.6,1312.75,1547,1217.34,1547Z" fill="url(#linear-gradient)"/>
      </g>
    </mask>
    <linearGradient id="linear-gradient-11" x1="1228.18" y1="621.93" x2="1228.18" y2="210.64" gradientTransform="matrix(1, 0, 0, -1, 0, 2110)" gradientUnits="userSpaceOnUse">
      <stop offset="0" stop-color="#fff"/>
      <stop offset="1" stop-color="#fff" stop-opacity="0"/>
    </linearGradient>
    <mask id="mask-2" x="1282.47" y="1584.86" width="252.67" height="328.9" maskUnits="userSpaceOnUse">
      <g id="mask2">
        <path d="M1408.8,1646.16c-69.81,0-126.33,119.87-126.33,267.61h252.68C1535,1766,1478.43,1646.16,1408.8,1646.16Z" fill="url(#linear-gradient-2)"/>
      </g>
    </mask>
    <linearGradient id="linear-gradient-13" x1="1406.98" y1="462.68" x2="1406.98" y2="206.65" xlink:href="#linear-gradient-11"/>
    <mask id="mask-3" x="711" y="1516.08" width="400.89" height="394.48" maskUnits="userSpaceOnUse">
      <g id="mask3">
        <path d="M911.44,1516.08c-110.67,0-200.44,176.63-200.44,394.49h400.89C1111.68,1692.71,1022.11,1516.08,911.44,1516.08Z" fill="url(#linear-gradient-3)"/>
      </g>
    </mask>
    <linearGradient id="linear-gradient-15" x1="898.23" y1="498.62" x2="898.23" y2="162.82" xlink:href="#linear-gradient-11"/>
    <linearGradient id="linear-gradient-16" x1="342.96" y1="1591.67" x2="345.59" y2="1591.67" gradientTransform="matrix(0, 42.51, 42.51, 0, -66384.95, -13032.76)" gradientUnits="userSpaceOnUse">
      <stop offset="0" stop-color="#d3d86c"/>
      <stop offset="1" stop-color="#82a637"/>
    </linearGradient>
    <linearGradient id="linear-gradient-17" x1="349.15" y1="1589.24" x2="351.78" y2="1589.24" gradientTransform="matrix(0, 77.82, 77.82, 0, -122593.01, -25871.79)" xlink:href="#linear-gradient-16"/>
    <linearGradient id="linear-gradient-18" x1="782.55" y1="414.63" x2="782.55" y2="204.37" gradientTransform="matrix(1, 0, 0, -1, 0, 2110)" xlink:href="#linear-gradient-16"/>
    <linearGradient id="New_Gradient_Swatch_2" data-name="New Gradient Swatch 2" x1="782.63" y1="363" x2="782.63" y2="204.37" gradientTransform="matrix(1, 0, 0, -1, 0, 2110)" gradientUnits="userSpaceOnUse">
      <stop offset="0" stop-color="#084f15" stop-opacity="0"/>
      <stop offset="1" stop-color="#084f15"/>
    </linearGradient>
    <linearGradient id="New_Gradient_Swatch_2-2" x1="746.96" y1="353.94" x2="746.96" y2="204.21" xlink:href="#New_Gradient_Swatch_2"/>
    <linearGradient id="New_Gradient_Swatch_2-3" x1="714.43" y1="326.58" x2="714.43" y2="204.37" xlink:href="#New_Gradient_Swatch_2"/>
    <linearGradient id="New_Gradient_Swatch_2-4" x1="685.63" y1="285.79" x2="685.63" y2="204.21" xlink:href="#New_Gradient_Swatch_2"/>
    <linearGradient id="New_Gradient_Swatch_2-5" x1="656.51" y1="238.52" x2="656.51" y2="204.37" xlink:href="#New_Gradient_Swatch_2"/>
    <linearGradient id="New_Gradient_Swatch_2-6" x1="818.15" y1="353.94" x2="818.15" y2="204.21" xlink:href="#New_Gradient_Swatch_2"/>
    <linearGradient id="New_Gradient_Swatch_2-7" x1="850.75" y1="326.42" x2="850.75" y2="204.21" xlink:href="#New_Gradient_Swatch_2"/>
    <linearGradient id="linear-gradient-19" x1="879.47" y1="285.79" x2="879.47" y2="204.21" xlink:href="#New_Gradient_Swatch_2"/>
    <linearGradient id="linear-gradient-20" x1="908.75" y1="1871.8" x2="908.75" y2="1905.79" gradientUnits="userSpaceOnUse">
      <stop offset="0" stop-color="#084f15" stop-opacity="0"/>
      <stop offset="1" stop-color="#084f15" stop-opacity="0.3"/>
    </linearGradient>
    <linearGradient id="linear-gradient-21" x1="1479.54" y1="269.79" x2="1479.54" y2="250.73" gradientTransform="matrix(1, 0, 0, -1, 0, 2110)" xlink:href="#linear-gradient-16"/>
    <linearGradient id="linear-gradient-22" x1="949.71" y1="341.79" x2="949.71" y2="212.12" gradientTransform="matrix(1, 0, 0, -1, 0, 2110)" xlink:href="#linear-gradient-16"/>
    <linearGradient id="New_Gradient_Swatch_2-8" x1="949.76" y1="309.96" x2="949.76" y2="212.12" xlink:href="#New_Gradient_Swatch_2"/>
    <linearGradient id="New_Gradient_Swatch_2-9" x1="927.75" y1="304.36" x2="927.75" y2="212.02" xlink:href="#New_Gradient_Swatch_2"/>
    <linearGradient id="New_Gradient_Swatch_2-10" x1="907.7" y1="287.49" x2="907.7" y2="212.12" xlink:href="#New_Gradient_Swatch_2"/>
    <linearGradient id="New_Gradient_Swatch_2-11" x1="889.94" y1="262.34" x2="889.94" y2="212.02" xlink:href="#New_Gradient_Swatch_2"/>
    <linearGradient id="New_Gradient_Swatch_2-12" x1="871.97" y1="233.19" x2="871.97" y2="212.12" xlink:href="#New_Gradient_Swatch_2"/>
    <linearGradient id="New_Gradient_Swatch_2-13" x1="971.66" y1="304.36" x2="971.66" y2="212.02" xlink:href="#New_Gradient_Swatch_2"/>
    <linearGradient id="New_Gradient_Swatch_2-14" x1="991.77" y1="287.39" x2="991.77" y2="212.02" xlink:href="#New_Gradient_Swatch_2"/>
    <linearGradient id="linear-gradient-23" x1="1009.48" y1="262.34" x2="1009.48" y2="212.02" xlink:href="#New_Gradient_Swatch_2"/>
    <linearGradient id="linear-gradient-24" x1="1027.54" y1="1877.01" x2="1027.54" y2="1897.98" xlink:href="#linear-gradient-20"/>
    <linearGradient id="linear-gradient-25" x1="768" y1="2516.18" x2="768" y2="1731.19" gradientTransform="matrix(1, 0, 0, 1, 0, 0)" xlink:href="#linear-gradient-4"/>
    <mask id="mask-4" x="-559.28" y="1887.1" width="2096.07" height="160.05" maskUnits="userSpaceOnUse">
      <g id="mask4">
        <path d="M1536.79,1892.16H-559.28v155H1536.79Z" fill="url(#linear-gradient-4)"/>
      </g>
    </mask>
    <linearGradient id="linear-gradient-26" x1="768" y1="185.02" x2="768" y2="27.63" xlink:href="#linear-gradient-11"/>
    <linearGradient id="linear-gradient-27" x1="768" y1="2107.87" x2="768" y2="1882.19" gradientUnits="userSpaceOnUse">
      <stop offset="0.16" stop-color="#82a637"/>
      <stop offset="0.89" stop-color="#1b8877"/>
    </linearGradient>
    <linearGradient id="linear-gradient-28" x1="348.27" y1="1579.66" x2="351.52" y2="1579.66" gradientTransform="matrix(0, 67.63, 67.63, 0, -106710.5, -22162.3)" xlink:href="#linear-gradient-16"/>
    <linearGradient id="linear-gradient-29" x1="-99.15" y1="1973.09" x2="312.63" y2="1973.09" gradientTransform="matrix(1, 0, 0, 1, 0, 0)" xlink:href="#linear-gradient-16"/>
    <linearGradient id="linear-gradient-30" x1="356.47" y1="1583.69" x2="359.57" y2="1583.69" gradientTransform="matrix(0, 111.82, 111.82, 0, -176926.98, -37962.89)" xlink:href="#New_Gradient_Swatch_2"/>
    <linearGradient id="linear-gradient-31" x1="350.7" y1="1576.77" x2="353.95" y2="1576.77" gradientTransform="matrix(0, 55.58, 55.58, 0, -87571.89, -17658.46)" gradientUnits="userSpaceOnUse">
      <stop offset="0" stop-color="#2ca77f"/>
      <stop offset="0.42" stop-color="#2ca77f"/>
      <stop offset="1" stop-color="#1b8877"/>
    </linearGradient>
  </defs>
  <title>hero-medium-bg</title>
  <g id="background">
    <rect width="1536" height="2048" fill="url(#New_Gradient_Swatch_1)"/>
    <rect width="1536" height="2048" fill="url(#linear-gradient-5)"/>
    <g id="bgcircles">
      <path d="M1536,530.36v979.52c-141.3,13.83-287.43-33.44-395.69-141.77-192-192.13-191.91-503.8,0-696C1248.51,563.76,1394.67,516.51,1536,530.36Z" fill="url(#linear-gradient-6)"/>
      <path d="M1283.73,1744.77c140.14-140.4,140.14-367.87,0-508.24s-367.52-140.4-507.63,0-140.15,367.84,0,508.24S1143.46,1885,1283.73,1744.77Z" fill="url(#linear-gradient-7)"/>
      <path d="M281.49,1627.48A545.94,545.94,0,0,1,0,1777.73V701.15A545.88,545.88,0,0,1,281.67,851.58C495.87,1065.88,495.8,1413.26,281.49,1627.48Z" opacity="0.2" fill="url(#linear-gradient-8)" style="isolation: isolate"/>
    </g>
    <path id="skyscrapers" d="M1531.27,1184.51a19.3,19.3,0,0,0-19.3,19.29v11.88a7.44,7.44,0,0,1-7.44,7.44h0a7.44,7.44,0,0,0-7.45,7.45v141.64a18.26,18.26,0,0,1-18.24,18.27,18.27,18.27,0,0,0-18.27,18.25v99.72a20.2,20.2,0,0,1-20.18,20.2h-5.81a20.21,20.21,0,0,0-20.19,20.21v140.66a8.2,8.2,0,0,1-8.16,8.26h-.12a8.19,8.19,0,0,1-8.19-8.19V908.85a6.7,6.7,0,0,0-6.69-6.7,6.73,6.73,0,0,1-6.72-6.72v-71a11.68,11.68,0,0,0-11.55-11.55,11.68,11.68,0,0,1-11.67-11.66v-68.9a7.82,7.82,0,0,0-7.79-7.84h0a7.82,7.82,0,0,1-7.81-7.82V656.28a20.21,20.21,0,0,0-20.21-20.18H1266.1a20.19,20.19,0,0,0-20.21,20.16v60.4a7.82,7.82,0,0,1-7.81,7.82h0a7.81,7.81,0,0,0-7.82,7.79v69.06A11.53,11.53,0,0,1,1218.85,813h-.16A11.68,11.68,0,0,0,1207,824.55V895.8a5.57,5.57,0,0,1-5.55,5.6h0a5.59,5.59,0,0,0-5.34,5.44v533.24a13,13,0,0,1-13,13.05h0a13,13,0,0,0-13,13v215.54a16,16,0,0,1-16,16h-14.3a1.71,1.71,0,0,1-1.71-1.7,1.73,1.73,0,0,0-1.72-1.73h-4.23a3,3,0,0,1-3-3v0a3,3,0,0,1,3-3h1.68a4.32,4.32,0,0,0,4.29-4.3,4.3,4.3,0,0,0-4.29-4.29h-1.21a3.43,3.43,0,0,1-2.43-5.85,3.39,3.39,0,0,1,2.43-1h1.21a4.29,4.29,0,0,0,3-7.33,4.24,4.24,0,0,0-3-1.26h-1.66a3,3,0,0,1-3-3v0a3,3,0,0,1,3-3h1.68a4.28,4.28,0,1,0,0-8.56h-1.66a3,3,0,0,1-3-3v0a3,3,0,0,1,3-3h1.68a4.29,4.29,0,0,0,3-7.32,4.34,4.34,0,0,0-3-1.26h-1.66a3,3,0,0,1-3-3v0a3,3,0,0,1,.87-2.11,3,3,0,0,1,2.11-.88h1.66a4.29,4.29,0,0,0,3-7.33,4.24,4.24,0,0,0-3-1.26h-1.66a3,3,0,0,1-3-3v0a3,3,0,0,1,3-3h1.68a4.28,4.28,0,1,0,0-8.56h-1.66a3,3,0,0,1-3-3v-.05a3,3,0,0,1,3-3h1.68a4.29,4.29,0,0,0,0-8.58h-1.66a3,3,0,0,1-3-3v0a3,3,0,0,1,3-3h1.66a4.29,4.29,0,0,0,3-7.33,4.24,4.24,0,0,0-3-1.26h-1.66a3,3,0,0,1-3-3v0a3,3,0,0,1,3-3h1.68a4.28,4.28,0,1,0,0-8.56h-1.66a3,3,0,0,1-3-3v0a3,3,0,0,1,3-3h1.68a4.29,4.29,0,0,0,3-7.32,4.34,4.34,0,0,0-3-1.26h-.19a4.46,4.46,0,0,1-4.45-4.46V1540a4.46,4.46,0,0,1,4.43-4.48h.21a4.3,4.3,0,0,0,0-8.59h-1.66a3,3,0,0,1-3-3v0a3,3,0,0,1,3-3h1.68a4.29,4.29,0,0,0,4.29-4.3,4.3,4.3,0,0,0-4.29-4.29h-1.66a3,3,0,0,1-3-3v0a3,3,0,0,1,3-3h1.66a4.32,4.32,0,0,0,4.29-4.3,4.3,4.3,0,0,0-4.29-4.29h-1.66a3,3,0,0,1-3-3v0a3,3,0,0,1,3-3h1.68a4.3,4.3,0,0,0,0-8.59h-1.66a3,3,0,0,1-3-3v0a3,3,0,0,1,3-3h1.68a4.29,4.29,0,0,0,3-7.33,4.24,4.24,0,0,0-3-1.26h-1.66a3,3,0,0,1-3-3v0a3,3,0,0,1,.87-2.11,3,3,0,0,1,2.11-.88h1.66a4.3,4.3,0,0,0,4.29-4.29,4.3,4.3,0,0,0-4.29-4.29h-1.66a3,3,0,0,1-3-3v0a3,3,0,0,1,3-3h1.68a4.3,4.3,0,0,0,0-8.59h-1.66a3,3,0,0,1-3-3v0a3,3,0,0,1,3-3h1.68a4.3,4.3,0,0,0,4.29-4.3,4.3,4.3,0,0,0-4.29-4.29h-1.66a3,3,0,0,1-3-3v0a3,3,0,0,1,3-3h1.66a4.3,4.3,0,0,0,4.29-4.29,4.3,4.3,0,0,0-4.29-4.29h-1.66a3,3,0,0,1-3-3v0a3,3,0,0,1,3-3h1.68a4.28,4.28,0,1,0,0-8.56h-1.66a3,3,0,0,1-3-3v0a3,3,0,0,1,3-3h1.68a4.3,4.3,0,0,0,0-8.59h-1.66a3,3,0,0,1-3-3v0a3,3,0,0,1,.87-2.11,3,3,0,0,1,2.11-.88h1.66a4.3,4.3,0,0,0,4.29-4.29,4.3,4.3,0,0,0-4.29-4.29h-1.66a3,3,0,0,1-3-3v0a3,3,0,0,1,3-3h1.68a4.3,4.3,0,0,0,0-8.59h-.19a4.43,4.43,0,0,1-4.45-4.41v-4.83a4.46,4.46,0,0,1,4.43-4.48h.21a4.29,4.29,0,0,0,4.29-4.29,4.3,4.3,0,0,0-4.29-4.29h-1.66a3,3,0,0,1-3-3v0a3,3,0,0,1,3-3h1.66a4.29,4.29,0,0,0,3-7.33,4.24,4.24,0,0,0-3-1.26h-1.66a3,3,0,0,1-3-3v0a3,3,0,0,1,3-3h1.68a4.3,4.3,0,0,0,0-8.59h-1.66a3,3,0,0,1-3-3v0a3,3,0,0,1,3-3h1.68a4.29,4.29,0,0,0,3-7.32,4.24,4.24,0,0,0-3-1.26h-.19a4.46,4.46,0,0,1-4.45-4.46v-6.79a3.36,3.36,0,0,0-3.36-3.34,3.39,3.39,0,0,1-2.38-1,3.35,3.35,0,0,1-1-2.38v-6.57a8.91,8.91,0,0,0-8.89-8.94h0a8.95,8.95,0,0,1-8.93-8.94v-29.86a6.73,6.73,0,0,0-6.72-6.7,6.71,6.71,0,0,1-6.65-6.69v-35a20.2,20.2,0,0,0-15.29-19.57l-25.66-6.47a13,13,0,0,1-9.68-12.6v-81.84a2.62,2.62,0,0,0-2.62-2.59,2.59,2.59,0,0,0-2.61,2.59v82.47a6.53,6.53,0,0,1-6.53,6.54,6.63,6.63,0,0,1-1.66-.21,6.52,6.52,0,0,0-8,4.6,6.65,6.65,0,0,0-.22,1.72v61.48a5.6,5.6,0,0,1-5.6,5.57h-.11a5.58,5.58,0,0,0-5.58,5.46v31.17a9,9,0,0,1-9,9h-.84a8.18,8.18,0,0,0-8.17,8.15v4.8a3.33,3.33,0,0,1-3.33,3.34,3.35,3.35,0,0,0-2.38,1,3.39,3.39,0,0,0-1,2.38V1276a7.31,7.31,0,0,1-7.31,7.31H909.3a20.2,20.2,0,0,0-20.2,20.18v54.87a20.21,20.21,0,0,1-20.19,20.21h-56a20.11,20.11,0,0,0-8.26,1.77l-66.8,29.89a6.38,6.38,0,0,0-3.73,5.81v31.15a6,6,0,0,0,6,6h.81a5.13,5.13,0,0,1,5.14,5.13v0a5.13,5.13,0,0,1-5.09,5.12h-1.68a5.16,5.16,0,0,0,0,10.31h1.63a5.14,5.14,0,0,1,5.14,5.13v0a5.14,5.14,0,0,1-5.11,5.14h-1.66a5.16,5.16,0,0,0,0,10.31h1.63a5.11,5.11,0,0,1,5.14,5.09v.06a5.14,5.14,0,0,1-5.11,5.14h-1.66a5.15,5.15,0,1,0,0,10.29h1.65a5.14,5.14,0,0,1,5.14,5.13v0a5.14,5.14,0,0,1-5.11,5.13h-1.66a5.15,5.15,0,1,0,0,10.29h2.92a3.85,3.85,0,0,1,3.85,3.85v0a3.86,3.86,0,0,1-3.85,3.85H674.35a20.18,20.18,0,0,1-19.23-14l-18.48-57.44a9.47,9.47,0,0,0-18,0,9.29,9.29,0,0,1-9.17,6.6c-5.06,0-10.19-3.53-10.17-9.72v-62.74c0-34.32,0-68.67-.75-103,0-14.61-.75-30-.75-44.63-.74-31.76-1.49-63.51-3-96.13-.75-15.45-.75-30.89-1.5-46.34-1.49-30-2.33-59.21-3.71-89.26,0-3.43-.74-6.86-.74-10.29-1.5-26.6-3-52.36-4.48-79-3-48.06-6.7-96.12-10.43-144.19-.38-5.85-.91-11.92-1.45-18A20.74,20.74,0,0,0,552,756.23H410.27a19.14,19.14,0,0,0-19.55,18.06v3.41l-2.33,30.89c-.75,8.59-1.49,18-2.33,26.62-1.5,16.33-2.34,32.66-3.74,49-.72,7.72-.72,14.6-1.47,22.33-.74,13.71-1.49,27.46-3,41.18a136.68,136.68,0,0,0-.75,17.17c-.75,18-2.33,36.05-3,53.22,0,6-.74,12-.74,18-.75,18.87-1.5,36.91-2.34,55.79,0,4.29-.72,7.72-.72,12-.75,17.17-1.49,35.19-2.33,52.36v10.29c-.75,19.74-1.5,39.47-1.5,59.21v12c-.74,20.6-.74,41.2-1.49,60.94v2.4c0,20.61-.75,41.21-.75,60.95v99a16,16,0,0,1-16,16h-.06a16,16,0,0,0-16,16v211.34a19,19,0,0,1-19,19H296.37a2.15,2.15,0,0,1-2.15-2.15,2.11,2.11,0,0,1,.63-1.51,2.15,2.15,0,0,1,1.52-.63h1.44a3.36,3.36,0,0,0,3.36-3.36V1713a3.38,3.38,0,0,0-3.36-3.36,3.32,3.32,0,0,1-2.36-1,3.36,3.36,0,0,1-1-2.36v-4.45a3.38,3.38,0,0,1,3.36-3.36,3.36,3.36,0,0,0,3.36-3.34v-2.75a3.36,3.36,0,0,0-3.36-3.27,3.37,3.37,0,0,1-2.37-1,3.42,3.42,0,0,1-1-2.37v-5.32a3.37,3.37,0,0,1,3.36-3.34,3.38,3.38,0,0,0,3.36-3.36V1671a3.36,3.36,0,0,0-3.36-3.36,3.36,3.36,0,0,1-3.36-3.36V1659a3.37,3.37,0,0,1,3.36-3.25,3.39,3.39,0,0,0,2.38-1,3.32,3.32,0,0,0,1-2.37v-2.73a3.38,3.38,0,0,0-3.28-3.48h-.08a3.32,3.32,0,0,1-2.36-1,3.36,3.36,0,0,1-1-2.36v-5.32a3.39,3.39,0,0,1,3.36-3.36,3.36,3.36,0,0,0,3.36-3.33v-2.73a3.35,3.35,0,0,0-3.36-3.36,3.38,3.38,0,0,1-3.36-3.36v-5.3a3.37,3.37,0,0,1,3.36-3.36,3.39,3.39,0,0,0,2.38-1,3.35,3.35,0,0,0,1-2.38v-2.61a3.38,3.38,0,0,0-3.36-3.36,3.38,3.38,0,0,1-3.36-3.34v-5.43a3.39,3.39,0,0,1,3.36-3.36,3.36,3.36,0,0,0,3.36-3.36v-2.73a3.36,3.36,0,0,0-3.36-3.34,3.37,3.37,0,0,1-2.37-1,3.42,3.42,0,0,1-1-2.37v-5.32a3.37,3.37,0,0,1,3.36-3.34,3.38,3.38,0,0,0,3.36-3.36v-2.73a3.35,3.35,0,0,0-3.36-3.35,3.38,3.38,0,0,1-3.36-3.36v-5.3a3.37,3.37,0,0,1,3.36-3.29,3.39,3.39,0,0,0,2.38-1,3.35,3.35,0,0,0,1-2.38v-2.73a3.38,3.38,0,0,0-3.36-3.36,3.38,3.38,0,0,1-3.36-3.34v-5.32a3.39,3.39,0,0,1,3.36-3.36,3.35,3.35,0,0,0,3.36-3.33v-2.76a3.35,3.35,0,0,0-3.36-3.33,3.37,3.37,0,0,1-2.37-1,3.42,3.42,0,0,1-1-2.37v-5.41a3.36,3.36,0,0,1,3.36-3.36,3.36,3.36,0,0,0,3.36-3.36V1496a3.36,3.36,0,0,0-3.36-3.36,3.36,3.36,0,0,1-3.36-3.36V1484a3.36,3.36,0,0,1,3.36-3.36,3.36,3.36,0,0,0,2.38-1,3.31,3.31,0,0,0,1-2.37v-2.73a3.38,3.38,0,0,0-3.36-3.36,3.32,3.32,0,0,1-2.36-1,3.36,3.36,0,0,1-1-2.36v-6.18a3.37,3.37,0,0,1,3.36-3.34,3.33,3.33,0,0,0,2.37-1,3.39,3.39,0,0,0,1-2.37v-2.73a3.36,3.36,0,0,0-3.36-3.36,3.31,3.31,0,0,1-2.37-1,3.36,3.36,0,0,1-1-2.38v-5.29a3.36,3.36,0,0,1,3.36-3.36,3.36,3.36,0,0,0,3.36-3.36v-2.73a3.36,3.36,0,0,0-3.36-3.34,3.37,3.37,0,0,1-2.37-1,3.42,3.42,0,0,1-1-2.37v-5.32a3.39,3.39,0,0,1,3.36-3.24,3.36,3.36,0,0,0,3.36-3.34v-2.73a3.36,3.36,0,0,0-3.36-3.36,3.36,3.36,0,0,1-3.36-3.36v-5.41a3.36,3.36,0,0,1,3.36-3.36,3.35,3.35,0,0,0,3.36-3.36v-2.73a3.38,3.38,0,0,0-3.36-3.36,3.32,3.32,0,0,1-2.36-1,3.36,3.36,0,0,1-1-2.36v-5.31a3.38,3.38,0,0,1,3.36-3.36,3.36,3.36,0,0,0,3.36-3.34v-2.64a3.35,3.35,0,0,0-3.36-3.33,3.38,3.38,0,0,1-3.36-3.36v-5.44a3.37,3.37,0,0,1,3.36-3.34,3.33,3.33,0,0,0,2.37-1,3.39,3.39,0,0,0,1-2.37v-2.73a3.36,3.36,0,0,0-3.36-3.36,3.31,3.31,0,0,1-2.37-1,3.36,3.36,0,0,1-1-2.38v-5.29a3.36,3.36,0,0,1,3.36-3.36,3.36,3.36,0,0,0,3.36-3.36v-2.73a3.38,3.38,0,0,0-3.36-3.36,3.38,3.38,0,0,1-3.36-3.34v-5.32a3.37,3.37,0,0,1,3.36-3.29,3.33,3.33,0,0,0,2.37-1,3.39,3.39,0,0,0,1-2.37v-6.18a3.36,3.36,0,0,0-3.36-3.34,3.37,3.37,0,0,1-3.26-3.38v-5.37a3.35,3.35,0,0,1,3.36-3.35,3.38,3.38,0,0,0,3.36-3.36v-2.69a3.37,3.37,0,0,0-3.36-3.36,3.35,3.35,0,0,1-3.36-3.36v-5.29a3.35,3.35,0,0,1,3.36-3.36,3.31,3.31,0,0,0,2.37-1,3.35,3.35,0,0,0,1-2.37v-2.73a3.37,3.37,0,0,0-3.36-3.34,3.38,3.38,0,0,1-3.36-3.36v-5.32a3.36,3.36,0,0,1,3.36-3.34,3.38,3.38,0,0,0,3.36-3.35v-2.73a3.36,3.36,0,0,0-3.36-3.36,3.36,3.36,0,0,1-2.38-1,3.31,3.31,0,0,1-1-2.37v-14.75a3.38,3.38,0,0,1,3.36-3.36,3.32,3.32,0,0,0,2.36-1,3.36,3.36,0,0,0,1-2.36v-3.1a6.45,6.45,0,0,0-6.44-6.42h-9.17a6,6,0,0,1-6-6v-1.8a4.19,4.19,0,0,1,4.15-4.22,4.23,4.23,0,0,0,4.21-4.23v0a4.16,4.16,0,0,0-.66-2.24l-27.44-42.51a16.3,16.3,0,0,0-13.79-7.51,16.34,16.34,0,0,1-16.33-16.34v-2.47a9.21,9.21,0,0,0-.74-2.94,8.93,8.93,0,0,1-.75-2.92v-50.09a2.61,2.61,0,0,0-2.59-2.61,2.63,2.63,0,0,0-2.62,2.61v50c0,1.75-1.49,4-1.49,5.74v2.48a16.33,16.33,0,0,1-16.33,16.33h0a16.32,16.32,0,0,0-13.74,7.51l-29,44.75a2.9,2.9,0,0,0,2.33,4.46h0a2.87,2.87,0,0,1,2.87,2.85v3.15a6,6,0,0,1-6,6h-9a6.41,6.41,0,0,0-6.43,6.4v2.35a4.08,4.08,0,0,0,4.08,4.09h0a4.08,4.08,0,0,1,4.08,4.08v13.28a4.07,4.07,0,0,1-4.06,4.1h0a4.08,4.08,0,0,0-2.9,1.2,4.14,4.14,0,0,0-1.2,2.91v1.24a4.1,4.1,0,0,0,4.1,4.1,4.08,4.08,0,0,1,4.08,4.08v3.83a4.08,4.08,0,0,1-4.06,4.11h-.06a4.07,4.07,0,0,0-4.06,4.06v1.28a4.07,4.07,0,0,0,4.08,4.08h0a4.08,4.08,0,0,1,4.08,4.09v3.85a4.08,4.08,0,0,1-4.08,4.08,4.1,4.1,0,0,0-4.1,4.08v1.24a4.1,4.1,0,0,0,4.1,4.11,4.06,4.06,0,0,1,4.08,4.08v3.82a4.07,4.07,0,0,1-4.06,4.11h0a4.09,4.09,0,0,0-4.08,4.06v1.28a4.08,4.08,0,0,0,4.08,4.09h0a4.06,4.06,0,0,1,4.08,4.08v3.85a4.08,4.08,0,0,1-4.08,4.08,4.08,4.08,0,0,0-2.9,1.2,4.12,4.12,0,0,0-1.2,2.91V1322a4.1,4.1,0,0,0,4.1,4.1,4.08,4.08,0,0,1,4.08,4.09V1334a4.07,4.07,0,0,1-4.06,4.11h0a4.1,4.1,0,0,0-4.1,4.1v1.24a4.1,4.1,0,0,0,4.1,4.11,4.08,4.08,0,0,1,4.08,4.08v3.83a4.07,4.07,0,0,1-4.06,4.1h0a4.09,4.09,0,0,0-4.08,4.06v1.29a4.08,4.08,0,0,0,4.08,4.08h0a4.08,4.08,0,0,1,4.08,4.08v3.85a4.08,4.08,0,0,1-4.08,4.09,4.1,4.1,0,0,0-4.11,4.1.09.09,0,0,0,0,.05v1.23a4.1,4.1,0,0,0,4.1,4.11,4.08,4.08,0,0,1,4.08,4v3.83a4.07,4.07,0,0,1-4.06,4.1h0a4.09,4.09,0,0,0-4.08,4.06v1.29a4.08,4.08,0,0,0,4.08,4.08h0a4.08,4.08,0,0,1,4.08,4.08v3.85a4.08,4.08,0,0,1-4.08,4.09,4.1,4.1,0,0,0-4.1,4.1v1.24a4.09,4.09,0,0,0,4.1,4.1,4.08,4.08,0,0,1,4.08,4.09v3.82a4.07,4.07,0,0,1-4.06,4.11h0a4.08,4.08,0,0,0-2.9,1.2,4.12,4.12,0,0,0-1.2,2.91v1.23a4.1,4.1,0,0,0,4.1,4.11,4.08,4.08,0,0,1,4.08,4.08v3.83a4.08,4.08,0,0,1-4,4.13h-.07a4.08,4.08,0,0,0-4.08,4.06v1.28a4.07,4.07,0,0,0,4.08,4.08h0a4.08,4.08,0,0,1,4.08,4.09v3.85a4.08,4.08,0,0,1-4.08,4.08,4.1,4.1,0,0,0-4.11,4.11.45.45,0,0,0,0,.11v1.24a4.1,4.1,0,0,0,4.1,4.11,4.08,4.08,0,0,1,4.08,4v3.82a4.07,4.07,0,0,1-4.06,4.11h0a4.08,4.08,0,0,0-4.08,4.06v1.28a4.07,4.07,0,0,0,4.08,4.08h2.77a1.32,1.32,0,0,1,1.29,1.31,1.28,1.28,0,0,1-1.29,1.28H115.82a11.15,11.15,0,0,1-11.15-11.15V911.51l-.47-22.68a20.29,20.29,0,0,0-12.69-18.34l-21.88-8.77a12.47,12.47,0,0,0-16.23,6.94,12.31,12.31,0,0,0-.9,4.72v4.67a7.74,7.74,0,0,1-7.7,7.79h-.14a7.77,7.77,0,0,1-7.75-7.77V878L38,816.36A20.19,20.19,0,0,0,23.38,796.6L0,789.86V2048H1536V1184.51ZM983,1386.61a3,3,0,0,1-3,3h-4.44a.75.75,0,0,1-.74-.75v-2.33a3,3,0,0,1,3-3H980a3,3,0,0,1,3,3ZM980,1375h-2.2a3,3,0,0,1-3-3V1372a3,3,0,0,1,3-3H980a3,3,0,1,1,0,6Zm0-15.45h-2.2a3,3,0,0,1-3-3v-.06a3,3,0,0,1,3-3H980a3,3,0,0,1,0,6Zm0-15.47h-2.22a3,3,0,0,1-3-3v0a3,3,0,0,1,3-3H980a3,3,0,0,1,0,6Zm0-15.44h-2.22a3,3,0,0,1-3-3v0a3,3,0,0,1,3-3H980a3,3,0,0,1,0,6Zm3-18.46a3,3,0,0,1-3,3h-2.2a3,3,0,0,1-3-3v0a3,3,0,0,1,.87-2.11,3,3,0,0,1,2.11-.88H980a3,3,0,0,1,3,3Zm-3-11.57h-2.2a3,3,0,0,1-3-3v-.06a3,3,0,0,1,3-3H980a3,3,0,1,1,0,6Z" fill="url(#linear-gradient-9)"/>
  </g>
  <g id="right-side">
    <g id="mountains">
      <path d="M1217.34,1547c-95.44,0-172.63,163.81-172.63,365.7h345.44C1390.15,1710.6,1312.75,1547,1217.34,1547Z" fill="url(#linear-gradient)"/>
      <g mask="url(#mask)">
        <path d="M1071.8,1580.12c54.7-24.91,165.15-65.67,169.42-29.36,5.34,45.38-310.83,240.25-202.77,198.87s201.44-154.83,225.45-114.78-210.78,205.55-132.08,197.54,176.11-192.21,206.78-162.84-201.43,233.58-149.4,250.93,194.76-272.29,252.12-279" fill="none" stroke-width="2" opacity="0.2" stroke="url(#linear-gradient-11)" style="isolation: isolate"/>
      </g>
      <path d="M1367.76,1912.7h22.39c0-202.1-77.4-365.7-172.81-365.7a83.77,83.77,0,0,0-11.21.76C1296.34,1560,1367.76,1718.57,1367.76,1912.7Z" fill="#c9d983" opacity="0.3" style="isolation: isolate"/>
      <path d="M1408.8,1646.16c-69.81,0-126.33,119.87-126.33,267.61h252.68C1535,1766,1478.43,1646.16,1408.8,1646.16Z" fill="url(#linear-gradient-2)"/>
      <g mask="url(#mask-2)">
        <path d="M1369.11,1585.39c-49.57,80.74-129,225.65-50.11,159.39,98.62-82.82,192.54-56.26,153.41,0s-153.41,26.57-142.45,86c8.77,47.51,136.18-22.92,198.79-64.07" fill="none" stroke-width="2" opacity="0.2" stroke="url(#linear-gradient-13)" style="isolation: isolate"/>
      </g>
      <path d="M1508.49,1913.77h26.66c-.2-147.74-56.72-267.61-126.35-267.61a61.75,61.75,0,0,0-13.34,1.47C1458.84,1661.75,1508.31,1775.57,1508.49,1913.77Z" fill="#c9d983" fill-rule="evenodd" opacity="0.3" style="isolation: isolate"/>
      <path d="M911.44,1516.08c-110.67,0-200.44,176.63-200.44,394.49h400.89C1111.68,1692.71,1022.11,1516.08,911.44,1516.08Z" fill="url(#linear-gradient-3)"/>
      <g mask="url(#mask-3)">
        <path d="M728.06,1595.68c21.12-24.93,68.58-69.35,89.4-47.59,26,27.2-29.42,121.25,6.79,132.58s87.14-166.58,131.28-149.58S765.4,1823.46,846.89,1833.66,965.72,1598,1000.8,1615s-79.22,149.58-39.61,188.11,60-142.78,91.67-122.39,9.05,122.39-21.5,191.52" fill="none" stroke-width="2" opacity="0.2" stroke="url(#linear-gradient-15)" style="isolation: isolate"/>
      </g>
      <path d="M1067.09,1910.57h44.8c-.21-217.86-89.78-394.49-200.45-394.49a104.4,104.4,0,0,0-22.39,2.44C989.17,1540.44,1066.91,1707.61,1067.09,1910.57Z" fill="#c9d983" opacity="0.2" style="isolation: isolate"/>
    </g>
    <g id="palm">
      <rect x="1277.08" y="1622.94" width="4.4" height="280.14" fill="#0c5e59"/>
      <path d="M1310.68,1605.12c-9.26,0-17.9,6.78-23.86,12.77,4.08-5.83,9.73-12.93,14-14.19a30.19,30.19,0,0,1,13.51-1.26s-6.91-9.78-17.28-5.21c-4.55,1.89-8.32,8.36-11.15,14.67,1.57-5.84,2.83-12.78,1.73-19.09-2.67-16.09-20.25-17.35-20.25-17.35s9.89,13.88,11.62,30.13l.62,6.31c-1.57-9.31-5.18-20.51-14.13-26.66-22.3-15-36.43,11.2-36.43,11.2s12.72-8,29.52.47c13.35,6.79,18.85,21,20.73,26.82-2.2-4.26-11.46-20.82-26.07-23.19-22.14-3.63-27.79,24.45-27.79,24.45s12.72-10.09,28.42-9.46A41.54,41.54,0,0,1,1279,1625a63.38,63.38,0,0,0-13.35-1.89c-19.63-.16-23.71,26.18-23.71,26.18l37.21-22.87a142.16,142.16,0,0,0-6.75,13.88c-2.51,6-.78,19.72-.78,19.72s6-10.41,7.69-17a52.26,52.26,0,0,0,1.1-16.4L1305.5,1654s6.28-16.72-12.87-24.6l-6.44-2.68a40.81,40.81,0,0,1,15.86,6.31,77.76,77.76,0,0,1,18.21,17s6.91-20.19-9.89-28.39a26.16,26.16,0,0,0-17.27-1.11,23.72,23.72,0,0,1,15.7-3.15c15.23,1.89,19.63,12.78,19.63,12.78s4.39-25.08-17.75-25.08Z" fill="url(#linear-gradient-16)"/>
    </g>
    <g id="palm1">
      <rect x="1091.48" y="1444.69" width="6.91" height="457.43" fill="#0c5e59"/>
      <path d="M1142.83,1405.26c-16.8,0-32.66,12.15-43.65,23.19,7.38-10.73,17.74-23.5,25.59-26.19a55.07,55.07,0,0,1,24.81-2.2s-12.72-17.83-31.4-9.47c-8.33,3.63-15.39,15.46-20.42,26.82,2.83-10.73,4.87-23.19,3.14-34.86-4.55-29-36.9-31.55-36.9-31.55s18.06,25.24,21.36,54.89q.71,5.92.94,11.36c-2.83-17.19-9.58-37.7-25.91-48.58-40.51-27.13-66,20.82-66,20.82s23.24-14.51,53.7.94c24,12.15,34.23,38.49,37.69,48.9-4.08-8-20.57-37.7-47.58-42.27-40.35-6.78-50.72,44.8-50.72,44.8s23.09-18.62,51.66-17.36c22.14,1,38.16,10.1,46,17.36a96,96,0,0,0-24.18-3.47c-35.8-.48-43.18,47.63-43.18,47.63l68-41.8c-2.83,5.52-8.95,17.19-12.25,25.4-4.55,11.2-1.73,35.8-1.73,35.8s11-18.93,14.14-31.23c3.14-11.83,2.35-24.13,1.88-30l46,50.16s11.3-30.44-23.24-45.27c-4.55-1.89-8.64-3.63-11.78-4.89a72.29,72.29,0,0,1,28.74,11.36,136.15,136.15,0,0,1,32.81,30.91s12.41-36.91-18.37-51.42c-10-4.89-21.67-4.1-31.4-1.89a44.77,44.77,0,0,1,28.73-6c27.8,3.31,35.49,23.5,35.49,23.5s8.32-45.59-32-45.43Z" fill="url(#linear-gradient-17)"/>
    </g>
    <g id="bush">
      <path d="M937.63,1871.64a155.34,155.34,0,0,0-15.69-41.93c-1-1.78-2.11-3.72-3.24-5.5a161.31,161.31,0,0,0-30.25-36.74,55.06,55.06,0,0,0-4.7-4,156.62,156.62,0,0,0-42.55-25.25c-1.94-.81-3.88-1.46-5.82-2.11a158.15,158.15,0,0,0-49.68-8.9h-6.14a157.21,157.21,0,0,0-49.67,8.9c-1.95.65-3.89,1.46-5.83,2.11a156.62,156.62,0,0,0-42.55,25.25c-1.62,1.29-3.24,2.75-4.69,4a157,157,0,0,0-30.26,36.74c-1.13,1.78-2.1,3.72-3.24,5.5a155.67,155.67,0,0,0-15.69,41.93c-.49,2.1-.81,4.21-1.3,6.31a158,158,0,0,0-2.42,27.68H941.19a155.65,155.65,0,0,0-2.43-27.68C938.44,1875.85,938.12,1873.74,937.63,1871.64Z" fill="url(#linear-gradient-18)"/>
      <path d="M779.56,1747v158.63h6.15V1747h-6.15Z" opacity="0.3" fill="url(#New_Gradient_Swatch_2)" style="isolation: isolate"/>
      <path d="M724.06,1758.17l39.48,147.62h6.31l-40.13-149.73C727.94,1756.71,726,1757.36,724.06,1758.17Z" opacity="0.3" fill="url(#New_Gradient_Swatch_2-2)" style="isolation: isolate"/>
      <path d="M676.82,1787.47l68.27,118.16h7l-70.54-122.21C679.89,1784.72,678.27,1786.17,676.82,1787.47Z" opacity="0.3" fill="url(#New_Gradient_Swatch_2-3)" style="isolation: isolate"/>
      <path d="M643.32,1829.71l76,76.08h8.57l-81.54-81.58C645.43,1826,644.29,1827.93,643.32,1829.71Z" opacity="0.3" fill="url(#New_Gradient_Swatch_2-4)" style="isolation: isolate"/>
      <path d="M626.33,1878l48.06,27.68h12.3l-59.06-34.15C627.15,1873.74,626.82,1875.85,626.33,1878Z" opacity="0.3" fill="url(#New_Gradient_Swatch_2-5)" style="isolation: isolate"/>
      <path d="M795.25,1905.79h6.31L841,1758.17c-1.94-.81-3.88-1.46-5.82-2.11Z" opacity="0.3" fill="url(#New_Gradient_Swatch_2-6)" style="isolation: isolate"/>
      <path d="M813.05,1905.79h7.12l68.28-118.16a56.9,56.9,0,0,0-4.7-4.05Z" opacity="0.3" fill="url(#New_Gradient_Swatch_2-7)" style="isolation: isolate"/>
      <g opacity="0.3">
        <path d="M837.16,1905.79h8.57l76-76.08c-1-1.78-2.11-3.72-3.24-5.5Z" fill="url(#linear-gradient-19)"/>
      </g>
      <path d="M878.58,1905.79h12.29l48.06-27.68c-.33-2.1-.81-4.21-1.3-6.31Z" fill="url(#linear-gradient-20)"/>
    </g>
    <g>
      <path d="M1526.91,1859.76h-94.75v56.51h94.75Z" fill="#f9f8ef"/>
      <path d="M1480.44,1845v.13a141.81,141.81,0,0,1,6.71-14.63,186.46,186.46,0,0,1,14.9-23.68,157.9,157.9,0,0,1-10.48,24.83c-6.22,12-9.63,16.82-11.13,17.55v.68c1.8-2.38,5.77-6.46,12.76-12.85a217,217,0,0,1,23.08-18,172.63,172.63,0,0,1-19,20.25c-6.81,6.14-11.33,9.82-14.14,11.7,2.86-1.78,7.33-4.22,13.81-7.45a242.9,242.9,0,0,1,27.5-11.6,194,194,0,0,1-24.55,14.54c-11,5.59-16.91,8-19.48,8.42v.5c2.31-1.29,8.21-3.35,19.48-6.47a261,261,0,0,1,29.79-6.37,223.67,223.67,0,0,1-28,9.8c-5.18,1.43-9.31,2.49-12.55,3.22,3.29-.54,7.52-1.13,12.88-1.75a252.78,252.78,0,0,1,30.93-2,228.43,228.43,0,0,1-30.11,5.56c-13.58,1.71-20.26,1.93-22.43,1.45v.34h-1.64V1859a8.47,8.47,0,0,1-1.31.23h-4.75c-3.6-.16-9-.49-16.53-1.47a266.87,266.87,0,0,1-30.12-5.55,254.27,254.27,0,0,1,31,2c5.06.59,9.11,1.13,12.31,1.64-3.14-.73-7.1-1.75-12-3.11a213,213,0,0,1-28-9.8,260.86,260.86,0,0,1,29.8,6.37c11.53,3.21,17.46,5.29,19.64,6.57v-.58c-2.48-.42-8.43-2.84-19.64-8.44a192.4,192.4,0,0,1-24.55-14.53,243.31,243.31,0,0,1,27.49,11.59c6.09,3,10.39,5.37,13.28,7.12a139.73,139.73,0,0,1-13.61-11.36,174.64,174.64,0,0,1-19-20.25,193.44,193.44,0,0,1,23.08,18c5,4.57,8.45,7.95,10.68,10.38-1.91-2.47-4.88-7.37-9.21-15.61a155.77,155.77,0,0,1-10.47-24.82,167.59,167.59,0,0,1,14.9,23.68c4,7.73,6.12,12.68,7,15.55V1845c-.87-2-1.48-7.89-1.48-19.57a164.67,164.67,0,0,1,2.3-27.27,164.67,164.67,0,0,1,2.3,27.27C1481.92,1837.15,1481.32,1843,1480.44,1845Zm-1.64,4.79a1.89,1.89,0,0,1-1-.58c.38.45.7.86,1,1.22Zm0,3.1a7.65,7.65,0,0,1-1.57-.7c.63.42,1.15.79,1.57,1.12Zm1.64,0c.44-.35,1-.73,1.67-1.17a8.87,8.87,0,0,1-1.67.82Zm-1.64,4.46a13.34,13.34,0,0,1-2.25-.13,12.8,12.8,0,0,1,2.25.75Zm1.64.36a17.64,17.64,0,0,1,3-.94,18,18,0,0,1-3,.26Zm-9.66,1.56h-30.61c4.75-.32,10.47-.49,16.53-.49C1462.59,1858.78,1467.34,1859,1470.78,1859.27Zm17.52,0h30.6c-4.74-.32-10.47-.65-16.53-.49S1491.73,1859.11,1488.3,1859.27Z" fill-rule="evenodd" fill="url(#linear-gradient-21)"/>
    </g>
    <g id="bush-2" data-name="bush">
      <path d="M1045.35,1876.91a96,96,0,0,0-9.68-25.85c-.6-1.1-1.3-2.3-2-3.4A99.86,99.86,0,0,0,1015,1825a32.8,32.8,0,0,0-2.9-2.49,96.65,96.65,0,0,0-26.24-15.58c-1.2-.5-2.4-.89-3.59-1.29a97.21,97.21,0,0,0-30.64-5.5h-3.79a96.64,96.64,0,0,0-30.63,5.5c-1.2.4-2.4.89-3.6,1.29a96.8,96.8,0,0,0-26.24,15.58c-1,.79-2,1.69-2.89,2.49a97,97,0,0,0-18.66,22.66c-.7,1.1-1.3,2.3-2,3.4a96,96,0,0,0-9.68,25.85c-.3,1.3-.5,2.6-.8,3.9a97.7,97.7,0,0,0-1.49,17.07h195.68a95.92,95.92,0,0,0-1.5-17.07C1045.85,1879.51,1045.65,1878.21,1045.35,1876.91Z" fill="url(#linear-gradient-22)"/>
      <path d="M947.86,1800v97.84h3.79V1800h-3.79Z" opacity="0.3" fill="url(#New_Gradient_Swatch_2-8)" style="isolation: isolate"/>
      <path d="M913.63,1806.93,938,1898h3.89l-24.74-92.34C916,1806,914.83,1806.43,913.63,1806.93Z" opacity="0.3" fill="url(#New_Gradient_Swatch_2-9)" style="isolation: isolate"/>
      <path d="M884.5,1825l42.11,72.88h4.29l-43.51-75.37C886.39,1823.31,885.39,1824.2,884.5,1825Z" opacity="0.3" fill="url(#New_Gradient_Swatch_2-10)" style="isolation: isolate"/>
      <path d="M863.84,1851.06l46.9,46.92H916l-50.29-50.32C865.14,1848.76,864.44,1850,863.84,1851.06Z" opacity="0.3" fill="url(#New_Gradient_Swatch_2-11)" style="isolation: isolate"/>
      <path d="M853.36,1880.81,883,1897.88h7.58l-36.42-21.07C853.86,1878.21,853.66,1879.51,853.36,1880.81Z" opacity="0.3" fill="url(#New_Gradient_Swatch_2-12)" style="isolation: isolate"/>
      <path d="M957.54,1898h3.89l24.35-91c-1.2-.5-2.4-.89-3.59-1.29Z" opacity="0.3" fill="url(#New_Gradient_Swatch_2-13)" style="isolation: isolate"/>
      <path d="M968.52,1898h4.39L1015,1825.1a34.56,34.56,0,0,0-2.9-2.49Z" opacity="0.3" fill="url(#New_Gradient_Swatch_2-14)" style="isolation: isolate"/>
      <g opacity="0.3">
        <path d="M983.38,1898h5.29l46.9-46.92c-.6-1.1-1.3-2.3-2-3.4Z" fill="url(#linear-gradient-23)"/>
      </g>
      <path d="M1008.93,1898h7.58l29.64-17.07c-.2-1.3-.5-2.6-.8-3.9Z" fill="url(#linear-gradient-24)"/>
    </g>
  </g>
  <g id="grass">
    <rect y="1887.1" width="1536" height="160" fill="url(#linear-gradient-25)"/>
    <g mask="url(#mask-4)">
      <g>
        <path d="M1535.85,1982.89a59.9,59.9,0,0,0-2.46-10.92c-2.72-8.85-8.42-18.54-16-28.6a318.41,318.41,0,0,0-27.55-31.18c-8.3-8.4-17.2-16.84-26.19-25.09h-4.24c9.72,8.89,19.38,18,28.34,27.07a312.61,312.61,0,0,1,27.3,30.88c7.51,10,13,19.33,15.56,27.73a58,58,0,0,1,2.37,10.4,11.43,11.43,0,0,1-.45,5.65,2.73,2.73,0,0,1-2.21,1.72,11.07,11.07,0,0,1-5.06-.74c-4.44-1.48-10.45-4.86-17.78-9.63s-15.82-10.82-25.26-17.58l-3.53-2.54c-18.07-13-39.17-28.13-61.2-41.33-23.45-14.06-48-26-71.27-30.6-1.88-.39-3.68-.73-5.38-1h-26a4,4,0,0,0-1.06,1.4,4.42,4.42,0,0,0-.32,2.41,11.93,11.93,0,0,0,2.38,5.11,51.64,51.64,0,0,0,5.33,6.06c4.39,4.41,10.49,9.67,17.63,15.57,4.23,3.49,8.84,7.22,13.68,11.14h0c11.56,9.36,24.52,19.85,37.18,31,18,15.88,35.25,33.05,46.92,50.17a57.4,57.4,0,0,1,5.9,10.35c1.08,2.72,1.15,4.38.79,5.32-.29.76-1,1.38-2.75,1.59a23.57,23.57,0,0,1-7.66-.77c-6.62-1.49-15.76-4.87-26.84-9.49s-23.92-10.44-38-16.85l-3.52-1.6c-27.3-12.44-58.72-26.74-89.5-38.25-32.09-12-63.64-21-89.23-21.56-10.21-.24-17.85.75-23.22,2.84s-8.64,5.38-9.69,9.7.13,9.07,2.67,14.25a84.47,84.47,0,0,0,11.66,16.85c16.8,19.7,45.4,42.81,70.79,61.07h4.93c-26.09-18.52-56.2-42.61-73.49-62.89a81.88,81.88,0,0,1-11.27-16.26c-2.42-4.93-3.25-9.09-2.46-12.37s3.15-5.85,7.94-7.71,12-2.87,22.08-2.65c25,.58,56.21,9.42,88.24,21.38,30.69,11.46,62,25.74,89.36,38.19l3.48,1.58c14.06,6.41,27,12.26,38.08,16.9s20.42,8.08,27.32,9.64a26.59,26.59,0,0,0,8.68.83c2.34-.31,4.3-1.3,5.11-3.43.74-2,.34-4.46-.81-7.34a58.63,58.63,0,0,0-6.19-10.9c-11.88-17.41-29.36-34.77-47.38-50.69-12.72-11.22-25.75-21.79-37.33-31.16h0c-4.84-3.92-9.41-7.62-13.61-11.08-7.14-5.9-13.15-11.07-17.44-15.38a49.37,49.37,0,0,1-5-5.71,9.2,9.2,0,0,1-1.89-3.83,1.73,1.73,0,0,1,.1-.91,1.65,1.65,0,0,1,.63-.66,9.83,9.83,0,0,1,4.58-1c4.76-.25,12.51.64,24,3,22.71,4.56,47,16.24,70.34,30.25,21.91,13.12,42.91,28.21,61,41.21l3.52,2.53c9.42,6.75,18,12.85,25.35,17.64s13.63,8.34,18.47,10a13.72,13.72,0,0,0,6.5.85,5.63,5.63,0,0,0,4.37-3.38,11.21,11.21,0,0,0,.81-4.54A23,23,0,0,0,1535.85,1982.89Zm-463.36,26.16c-7.32-5-11.51-12.09-13.47-20.76s-1.68-18.93,0-30a281.07,281.07,0,0,1,8-34.73c1.66-5.83,3.42-11.67,5.15-17.41l.08-.27c1.75-5.82,3.48-11.57,5-17.13.16-.55.31-1.1.46-1.65h-3c-.08.29-.16.6-.25.9-1.57,5.53-3.29,11.25-5,17.08l-.09.28v0c-1.72,5.74-3.48,11.56-5.14,17.41a284.1,284.1,0,0,0-8.11,35.08c-1.68,11.24-2,21.85.07,31s6.61,17,14.65,22.46,19.35,8.47,34.83,8.47V2017C1090.53,2017,1079.85,2014,1072.49,2009.05Zm-81.23-122c-11.7,17.8-23.11,37.94-34.38,57.83l-.14.25c-16,28.29-31.74,56.06-47.69,76.21-7.31,9.22-14.61,16.8-21.95,22.06h4.75a126.59,126.59,0,0,0,19.5-20.32c16.09-20.33,31.9-48.26,47.85-76.43l.23-.39c11.62-20.52,23.31-41.16,35.29-59.21Zm-114.51,6.17a13.54,13.54,0,0,0-7.55-6.17H852.15a42.9,42.9,0,0,0-14.48,8.12c-7.28,5.91-14.29,14.31-21.17,24.28-11.52,16.72-22.82,38.08-34.48,60.09h0c-2.26,4.26-4.53,8.55-6.82,12.83-9.46,17.72-19.21,35.37-29.58,51h3.45c10.09-15.41,19.57-32.58,28.71-49.7,2.3-4.31,4.58-8.62,6.84-12.89,11.66-22,22.88-43.21,34.3-59.76,6.81-9.88,13.64-18,20.61-23.69s14-8.78,21.17-8.78,11.4,2.32,13.51,6c2.2,3.87,2.5,9.61,1.28,16.95a140.1,140.1,0,0,1-6.47,22.94c-3,8.43-6.64,17.48-10.37,26.73l0,.1-1.92,4.75c-8.07,20.08-16,40.71-17.65,56.91-.78,7.9-.08,15,3.05,20.43h3.42c-.24-.32-.45-.65-.66-1-2.89-4.79-3.69-11.31-2.91-19.17,1.56-15.72,9.34-36,17.46-56.15.66-1.64,1.32-3.29,2-4.93,7.41-18.37,14.68-36.39,17-50.17C879.61,1904.55,879.45,1898,876.75,1893.27Zm-177.39,33.48c-4.63-6-12.59-9.85-24.6-11-38.18-3.73-76.61,12.6-109,34.31s-59,49-73.64,67.52l2.3,1.73c14.45-18.31,40.84-45.36,73-66.9s69.91-37.47,107.09-33.83c11.55,1.13,18.6,4.73,22.56,9.9s5.05,12.24,4,20.81c-2.17,17.19-12.93,39.4-24.15,61.62l-2.58,5.09h0c-4.73,9.34-9.42,18.58-13.4,27.31,0,.06,0,.11-.08.16H664c3.85-8.38,8.34-17.21,12.89-26.2l2.58-5.11c11.16-22.09,22.19-44.76,24.43-62.54C705,1940.69,704,1932.77,699.36,1926.75ZM536.68,1887.1a301.28,301.28,0,0,1-20.82,24.56c-12.44,12.81-24.41,20.71-36.68,20.17a14.13,14.13,0,0,1-6.71-1.65,5.68,5.68,0,0,1-2.62-3.62,13.2,13.2,0,0,1,.27-6,43.59,43.59,0,0,1,3.06-8.19c3.51-7.37,9.21-16.09,15.63-25.24h-3.52c-6,8.64-11.36,16.94-14.74,24a45.42,45.42,0,0,0-3.26,8.75,15.88,15.88,0,0,0-.27,7.33,8.52,8.52,0,0,0,3.9,5.36,16.88,16.88,0,0,0,8.13,2.09c13.64.61,26.41-8.18,38.92-21.05,5.11-5.26,10.24-11.28,15.43-17.73,2.3-2.85,4.6-5.79,6.93-8.79Zm-220.6,4.07a10.61,10.61,0,0,0-3.06-4.07h-5.39l.4.19c3,1.42,4.6,3.12,5.35,5a9.35,9.35,0,0,1-.18,6.71,33.71,33.71,0,0,1-5.14,9c-5,6.64-12.77,14.26-22.09,22.48-8.6,7.59-18.44,15.65-28.49,23.87l0,0-.1.08-2.33,1.92c-21.74,17.8-44.13,36.33-56.18,52.33-6,8-9.68,15.58-9.1,22.36.42,4.87,3,9,8,12.43h5.77c-7.31-3.45-10.42-7.81-10.84-12.67-.49-5.69,2.62-12.59,8.54-20.44,11.79-15.66,33.86-33.95,55.7-51.83l2.46-2,0,0c10-8.22,19.92-16.3,28.56-23.93,9.34-8.25,17.31-16,22.48-22.91a36.4,36.4,0,0,0,5.56-9.78A12.1,12.1,0,0,0,316.08,1891.17Zm97.82-4.07q-4,4.1-8,8.31c-9.37,9.77-18.89,19.94-28.49,30.18-8,8.58-16.1,17.2-24.17,25.68-27.38,28.77-54.68,55.87-79.95,73.91-11.59,8.28-22.65,14.57-33,18.27h7.64a158.66,158.66,0,0,0,27.11-16c25.52-18.22,53-45.5,80.36-74.27,8.11-8.52,16.2-17.17,24.24-25.75h0c13-13.87,25.84-27.59,38.34-40.35Zm-164.95,0c-7,2.1-14.21,4.67-21.62,7.64-25.88,10.38-54.14,25.68-82.17,43.07C90.06,1972,35.7,2014.3,1.76,2043.45L0,2045l1.93,2.13,4.25-3.65c34-29,86.93-70,140.54-103.25,27.95-17.33,56.05-32.53,81.71-42.83a229.34,229.34,0,0,1,31.34-10.27Z" fill-rule="evenodd" opacity="0.7" fill="url(#linear-gradient-26)" style="isolation: isolate"/>
        <path d="M1536,1887.1v160H0v-99.54c21-1.74,43.53-2.71,68.5-2.71,186.61,0,272.2,44.68,669.38,44.68,359.34,0,345-83.85,680.5-99.82C1453.48,1888,1492.41,1887.11,1536,1887.1Z" opacity="0.1" fill="url(#linear-gradient-27)" style="isolation: isolate"/>
      </g>
    </g>
  </g>
  <g id="left-side">
    <g id="palm2">
      <rect x="104.36" y="1547.11" width="7.35" height="489.66" fill="#0c5e59"/>
      <path d="M56.79,1505c18,0,35,13,46.79,24.86-7.92-11.46-19-25-27.45-28a58.19,58.19,0,0,0-26.49-2.33s13.53-19.23,33.64-10.1c9.09,3.89,16.44,16.51,21.85,28.75-3.09-11.46-5.22-24.86-3.29-37.29,4.84-31.08,39.64-33.61,39.64-33.61s-19.33,26.81-23,58.66c-.58,4.08-.77,8.35-1,12.24,3.1-18.45,10.25-40.4,27.65-52.06,43.51-28.94,70.58,22.34,70.58,22.34s-24.94-15.54-57.62,1c-25.72,13-36.74,41.18-40.22,52.25,4.26-8.74,22-40.59,50.66-45.45,43.12-7.19,54.14,48,54.14,48s-24.75-20-55.3-18.65c-23.59,1-40.8,10.88-49.31,18.65a97.94,97.94,0,0,1,25.91-3.7c38.29-.58,46.22,51.09,46.22,51.09l-72.51-44.87c3.09,6,9.47,18.45,13.15,27.19,4.83,11.85,1.74,38.27,1.74,38.27s-11.8-20.2-15.09-33.41a99.26,99.26,0,0,1-2.12-32l-49.31,53.61s-12-32.63,25-48.37c4.83-2.13,9.28-3.88,12.56-5.24A77.07,77.07,0,0,0,72.84,1559a143.36,143.36,0,0,0-35.19,33.21S24.31,1552.55,57.18,1537c10.83-5.25,23.2-4.47,33.64-2.14a48.63,48.63,0,0,0-30.74-6.41C30.3,1532.15,22,1553.52,22,1553.52S13.87,1504.57,56.79,1505Z" fill="url(#linear-gradient-28)"/>
    </g>
    <g id="bush-3">
      <path d="M316,2048H6a151.31,151.31,0,0,1,2.28-24.31c.38-2.09.77-4,1.16-6.07a144.41,144.41,0,0,1,15.43-40.31c1-1.71,1.92-3.6,3.08-5.3a152.78,152.78,0,0,1,29.5-35.2c1.54-1.14,3.09-2.47,4.63-3.8a154.27,154.27,0,0,1,41.65-24.22c1-.38,1.93-.76,2.89-1.11l.26-.09c.62-.23,1.24-.45,1.87-.64l.59-.19.18-.06a151.77,151.77,0,0,1,48.58-8.51h6a156.79,156.79,0,0,1,48.58,8.51c1.93.76,3.86,1.33,5.79,2.09A152.13,152.13,0,0,1,260.11,1933c1.54,1.15,3.08,2.47,4.63,3.8a157.57,157.57,0,0,1,29.5,35.2c1,1.7,2.12,3.59,3.08,5.3a153.54,153.54,0,0,1,15.24,40.31c0,.25.09.48.13.72.34,1.81.68,3.5,1,5.35a2,2,0,0,1,0,.26A151.62,151.62,0,0,1,316,2048Z" fill="url(#linear-gradient-29)"/>
      <path d="M158.1,1898v150h6V1898Zm-48.76,8.76,0-.06-.57.25-.78.33c-.37.09-.73.2-1.09.31l-.26.09a27.32,27.32,0,0,0-2.89,1.11L141.65,2048h6.16ZM62.28,1933.2a35.06,35.06,0,0,0-4.25,3.41l-.38.38L123,2048h6.63ZM28,1972.2c-.39.75-1,1.7-1.55,2.65a30.08,30.08,0,0,1-1.53,2.65L96.5,2048H105ZM9.63,2017.62l-.58,2.85a23.23,23.23,0,0,0-.77,3.4L51,2048H63.11ZM212.28,1906.7,174,2048h6.17l37.93-139.21C216.14,1908,214.22,1907.46,212.28,1906.7ZM259.72,1933l-67.63,115H199l65.32-111.19C262.81,1935.48,261.27,1934.16,259.72,1933Zm33.94,39-77,76h8.29l71.83-70.69C295.79,1975.6,294.63,1973.71,293.66,1972Zm19,46.33a4.39,4.39,0,0,0-.13-.52L258.92,2048h12l42.88-24,.15-.08C313.55,2022,313.2,2020.22,312.69,2018.34Z" fill-rule="evenodd" fill="url(#linear-gradient-30)"/>
    </g>
    <g>
      <g id="bush-4">
        <path d="M109.28,1897.72c-14.5,0-20.11-12.82-20.11-30.68s-5-32.44-24.55-33.41c-25.53-1-23.21,23.89-23.21,54,0,38.46-13.72,13.79-32.87,35.35-16.43,18.26,4.65,50.89,10.83,60.41h82.56c2.71-5.05,9.48-17.48,17.21-32.44C136.54,1918.9,124,1897.72,109.28,1897.72Z" fill="url(#linear-gradient-31)"/>
        <path d="M70.22,1903.75H66.16v57.49L49,1938.32l-3.29,2.52,20.49,27.58v15.35h4.06v-43.7l17.41-21.76-3.29-2.52-14.12,17.67v-29.71Z" fill="#fff" fill-opacity="0.2" fill-rule="evenodd"/>
      </g>
      <path d="M130,1979H0v70H130Z" fill="#fff"/>
    </g>
  </g>
  <g id="stones">
    <path d="M738.41,2059.48a75.93,75.93,0,0,0-7.61-20.37c-.47-.86-1-1.81-1.57-2.67a78.79,78.79,0,0,0-14.69-17.86,28.65,28.65,0,0,0-2.28-2,76,76,0,0,0-20.65-12.27c-.94-.39-1.88-.71-2.83-1a76.41,76.41,0,0,0-24.11-4.33h-3a76.06,76.06,0,0,0-24.11,4.33c-.94.31-1.88.7-2.83,1a76.11,76.11,0,0,0-20.65,12.27c-.79.63-1.57,1.34-2.28,2a76.43,76.43,0,0,0-14.68,17.86c-.55.86-1,1.81-1.57,2.67a75.61,75.61,0,0,0-7.62,20.37c-.24,1-.39,2.05-.63,3.07a77.05,77.05,0,0,0-1.18,13.45h154a75.44,75.44,0,0,0-1.18-13.45C738.81,2061.53,738.65,2060.51,738.41,2059.48Z" fill="#f4f6d5"/>
    <path d="M892.45,2082.26a118.11,118.11,0,0,0-11.87-31.75c-.74-1.35-1.59-2.82-2.45-4.17a122.23,122.23,0,0,0-22.89-27.82,43.15,43.15,0,0,0-3.54-3.06,118.21,118.21,0,0,0-32.19-19.12c-1.47-.62-2.94-1.11-4.41-1.6a119.06,119.06,0,0,0-37.57-6.74h-4.65a118.35,118.35,0,0,0-37.57,6.74c-1.47.49-2.94,1.1-4.41,1.6a118.21,118.21,0,0,0-32.19,19.12c-1.22,1-2.45,2.08-3.55,3.06a119.37,119.37,0,0,0-22.88,27.82c-.86,1.35-1.59,2.82-2.45,4.17A117.78,117.78,0,0,0,658,2082.26c-.37,1.59-.61,3.19-1,4.78a118.56,118.56,0,0,0-1.84,21h240a118.5,118.5,0,0,0-1.83-21C893.06,2085.45,892.82,2083.85,892.45,2082.26Z" fill="#fff"/>
  </g>
</svg>
