<svg id="Layer_1" data-name="Layer 1" xmlns="http://www.w3.org/2000/svg" xmlns:xlink="http://www.w3.org/1999/xlink" viewBox="0 0 768 1024"><defs><style>.cls-1{fill:url(#linear-gradient);}.cls-2{fill:url(#linear-gradient-2);}.cls-3{fill:url(#linear-gradient-3);}.cls-4{fill:url(#linear-gradient-4);}.cls-5{fill:url(#linear-gradient-5);}.cls-6{fill:url(#linear-gradient-6);}.cls-7{mask:url(#mask);}.cls-8{fill:url(#linear-gradient-7);}.cls-9{fill:url(#linear-gradient-8);}.cls-10{fill:url(#linear-gradient-9);}.cls-11{fill:url(#linear-gradient-10);}.cls-12,.cls-15,.cls-16,.cls-17,.cls-20,.cls-23,.cls-24,.cls-54{opacity:0.2;}.cls-12,.cls-15,.cls-16,.cls-17,.cls-18,.cls-20,.cls-21,.cls-23,.cls-24,.cls-30,.cls-31,.cls-32,.cls-33,.cls-34,.cls-35,.cls-36,.cls-41,.cls-42,.cls-43,.cls-44,.cls-45,.cls-46,.cls-47,.cls-48,.cls-49,.cls-54,.cls-57,.cls-58{isolation:isolate;}.cls-12{fill:url(#linear-gradient-11);}.cls-13{fill:url(#linear-gradient-12);}.cls-14{mask:url(#mask-2);}.cls-15,.cls-16,.cls-17,.cls-20,.cls-23{fill:none;stroke-width:2px;}.cls-15{stroke:url(#linear-gradient-13);}.cls-16{stroke:url(#linear-gradient-14);}.cls-17{stroke:url(#linear-gradient-15);}.cls-18,.cls-21,.cls-24{fill:#c9d983;}.cls-18,.cls-21,.cls-30,.cls-31,.cls-32,.cls-33,.cls-34,.cls-35,.cls-36,.cls-37,.cls-41,.cls-42,.cls-43,.cls-44,.cls-45,.cls-46,.cls-47,.cls-48,.cls-49{opacity:0.3;}.cls-19{mask:url(#mask-3);}.cls-20{stroke:url(#linear-gradient-17);}.cls-21,.cls-28,.cls-52,.cls-54,.cls-57{fill-rule:evenodd;}.cls-22{mask:url(#mask-4);}.cls-23{stroke:url(#linear-gradient-19);}.cls-25{fill:#0c5e59;}.cls-26{fill:url(#linear-gradient-20);}.cls-27{fill:url(#linear-gradient-21);}.cls-28{fill:url(#linear-gradient-22);}.cls-29{fill:url(#linear-gradient-23);}.cls-30{fill:url(#linear-gradient-24);}.cls-31{fill:url(#linear-gradient-25);}.cls-32{fill:url(#linear-gradient-26);}.cls-33{fill:url(#linear-gradient-27);}.cls-34{fill:url(#linear-gradient-28);}.cls-35{fill:url(#linear-gradient-29);}.cls-36{fill:url(#linear-gradient-30);}.cls-38{fill:url(#linear-gradient-31);}.cls-39{fill:#084f15;}.cls-40{fill:url(#linear-gradient-32);}.cls-41{fill:url(#linear-gradient-33);}.cls-42{fill:url(#linear-gradient-34);}.cls-43{fill:url(#linear-gradient-35);}.cls-44{fill:url(#linear-gradient-36);}.cls-45{fill:url(#linear-gradient-37);}.cls-46{fill:url(#linear-gradient-38);}.cls-47{fill:url(#linear-gradient-39);}.cls-48{fill:url(#linear-gradient-40);}.cls-49{fill:url(#linear-gradient-41);}.cls-50{fill:url(#linear-gradient-42);}.cls-51{fill:url(#linear-gradient-43);}.cls-52{fill:url(#linear-gradient-44);}.cls-53{fill:url(#linear-gradient-45);}.cls-54,.cls-60{fill:#fff;}.cls-55{fill:url(#linear-gradient-46);}.cls-56{mask:url(#mask-5);}.cls-57{opacity:0.7;fill:url(#linear-gradient-47);}.cls-58{opacity:0.1;fill:url(#linear-gradient-48);}.cls-59{fill:#f4f6d5;}</style><linearGradient id="linear-gradient" x1="683.91" y1="296.9" x2="-217.7" y2="965.66" gradientTransform="matrix(1, 0, 0, -1, 0, 1026)" gradientUnits="userSpaceOnUse"><stop offset="0" stop-color="#ffedba"/><stop offset="1" stop-color="#ee4d47"/></linearGradient><linearGradient id="linear-gradient-2" x1="576.94" y1="497.38" x2="576.94" y2="217.63" gradientTransform="matrix(1, 0, 0, -1, 0, 1026)" gradientUnits="userSpaceOnUse"><stop offset="0.24" stop-color="#2ca77f"/><stop offset="1" stop-color="#1b8877"/></linearGradient><linearGradient id="linear-gradient-3" x1="694.82" y1="417.26" x2="694.82" y2="223.54" gradientTransform="matrix(1, 0, 0, -1, 0, 1026)" gradientUnits="userSpaceOnUse"><stop offset="0.42" stop-color="#2ca77f"/><stop offset="1" stop-color="#1b8877"/></linearGradient><linearGradient id="linear-gradient-4" x1="388.48" y1="468.49" x2="388.48" y2="176.14" xlink:href="#linear-gradient-3"/><linearGradient id="linear-gradient-5" x1="120" y1="516.16" x2="120" y2="47.23" gradientTransform="matrix(1, 0, 0, -1, 0, 1026)" gradientUnits="userSpaceOnUse"><stop offset="0.28" stop-color="#eeef99"/><stop offset="0.77" stop-color="#b9d079"/></linearGradient><linearGradient id="linear-gradient-6" x1="611.14" y1="124.67" x2="-481.35" y2="1026.7" xlink:href="#linear-gradient"/><mask id="mask" x="-1523.86" y="-0.9" width="2415.92" height="885.03" maskUnits="userSpaceOnUse"><g id="mask0"><path class="cls-1" d="M892.06-.89H-320.89V868.19H805.5a86.56,86.56,0,0,0,86.56-86.57Z"/></g></mask><linearGradient id="linear-gradient-7" x1="-349.23" y1="1258.4" x2="-349.23" y2="58.93" gradientTransform="matrix(1, 0, 0, -1, 0, 1026)" gradientUnits="userSpaceOnUse"><stop offset="0" stop-color="#f4a984"/><stop offset="1" stop-color="#f4a984" stop-opacity="0"/></linearGradient><linearGradient id="linear-gradient-8" x1="459.26" y1="513.58" x2="459.26" y2="1279.13" gradientTransform="matrix(1, 0, 0, -1, 0, 1026)" gradientUnits="userSpaceOnUse"><stop offset="0" stop-color="#ffedba" stop-opacity="0"/><stop offset="1" stop-color="#eb2a24"/></linearGradient><linearGradient id="linear-gradient-9" x1="-136.02" y1="1304.57" x2="-134.92" y2="1304.57" gradientTransform="matrix(0.16, 312.76, 312.76, -0.16, -407236.23, 42838.05)" gradientUnits="userSpaceOnUse"><stop offset="0" stop-color="#fff" stop-opacity="0.56"/><stop offset="1" stop-color="#fff" stop-opacity="0"/></linearGradient><linearGradient id="linear-gradient-10" x1="-136.63" y1="1304.44" x2="-135.53" y2="1304.44" gradientTransform="matrix(0.1, 228.74, 228.74, -0.1, -297888.9, 31793.63)" gradientUnits="userSpaceOnUse"><stop offset="0" stop-color="#fff" stop-opacity="0.2"/><stop offset="1" stop-color="#fff" stop-opacity="0"/></linearGradient><linearGradient id="linear-gradient-11" x1="-168.4" y1="945.06" x2="-168.29" y2="506.77" gradientTransform="matrix(1, 0, 0, -1, 0, 1026)" gradientUnits="userSpaceOnUse"><stop offset="0" stop-color="#fff"/><stop offset="1" stop-color="#fff" stop-opacity="0"/></linearGradient><linearGradient id="linear-gradient-12" x1="576.94" y1="849.75" x2="576.94" y2="569.99" gradientTransform="matrix(1, 0, 0, 1, 0, 0)" xlink:href="#linear-gradient-2"/><mask id="mask-2" x="470.56" y="576.56" width="212.77" height="226.06" maskUnits="userSpaceOnUse"><g id="mask0-2" data-name="mask0"><path class="cls-2" d="M576.89,576.56c-58.78,0-106.33,100.89-106.33,225.24H683.33C683.33,677.33,635.66,576.56,576.89,576.56Z"/></g></mask><linearGradient id="linear-gradient-13" x1="568.69" y1="823.7" x2="568.69" y2="634.96" gradientTransform="matrix(1, 0, 0, 1, 0, 0)" xlink:href="#linear-gradient-11"/><linearGradient id="linear-gradient-14" x1="621.08" y1="817.41" x2="621.08" y2="688.65" gradientTransform="matrix(1, 0, 0, 1, 0, 0)" xlink:href="#linear-gradient-11"/><linearGradient id="linear-gradient-15" x1="540.97" y1="684.05" x2="540.97" y2="584.07" gradientTransform="matrix(1, 0, 0, 1, 0, 0)" xlink:href="#linear-gradient-11"/><mask id="mask-3" x="617.01" y="637.63" width="155.63" height="164.83" maskUnits="userSpaceOnUse"><g id="mask1"><path class="cls-3" d="M694.82,637.63c-43,0-77.81,73.83-77.81,164.83H772.64C772.52,711.46,737.71,637.63,694.82,637.63Z"/></g></mask><linearGradient id="linear-gradient-17" x1="696.8" y1="739" x2="696.8" y2="644.36" gradientTransform="matrix(1, 0, 0, 1, 0, 0)" xlink:href="#linear-gradient-11"/><mask id="mask-4" x="265.02" y="557.51" width="246.92" height="242.98" maskUnits="userSpaceOnUse"><g id="mask2"><path class="cls-4" d="M388.48,557.51c-68.17,0-123.46,108.79-123.46,243H511.94C511.81,666.3,456.64,557.51,388.48,557.51Z"/></g></mask><linearGradient id="linear-gradient-19" x1="405.98" y1="726.35" x2="405.98" y2="518.99" gradientTransform="matrix(1, 0, 0, 1, 0, 0)" xlink:href="#linear-gradient-11"/><linearGradient id="linear-gradient-20" x1="562.15" y1="413.93" x2="562.15" y2="354.91" gradientTransform="matrix(1, 0, 0, -1, 0, 1026)" gradientUnits="userSpaceOnUse"><stop offset="0" stop-color="#d3d86c"/><stop offset="1" stop-color="#82a637"/></linearGradient><linearGradient id="linear-gradient-21" x1="468.59" y1="541.07" x2="468.59" y2="433.03" xlink:href="#linear-gradient-20"/><linearGradient id="linear-gradient-22" x1="716.8" y1="251.34" x2="716.8" y2="233.23" xlink:href="#linear-gradient-20"/><linearGradient id="linear-gradient-23" x1="289.78" y1="376.55" x2="289.78" y2="228.4" xlink:href="#linear-gradient-20"/><linearGradient id="linear-gradient-24" x1="289.84" y1="340.17" x2="289.84" y2="228.4" gradientTransform="matrix(1, 0, 0, -1, 0, 1026)" gradientUnits="userSpaceOnUse"><stop offset="0" stop-color="#084f15" stop-opacity="0"/><stop offset="1" stop-color="#084f15"/></linearGradient><linearGradient id="linear-gradient-25" x1="264.7" y1="333.79" x2="264.7" y2="228.28" xlink:href="#linear-gradient-24"/><linearGradient id="linear-gradient-26" x1="241.78" y1="314.51" x2="241.78" y2="228.4" xlink:href="#linear-gradient-24"/><linearGradient id="linear-gradient-27" x1="221.49" y1="285.77" x2="221.49" y2="228.28" xlink:href="#linear-gradient-24"/><linearGradient id="linear-gradient-28" x1="200.97" y1="252.46" x2="200.97" y2="228.4" xlink:href="#linear-gradient-24"/><linearGradient id="linear-gradient-29" x1="314.86" y1="333.79" x2="314.86" y2="228.28" xlink:href="#linear-gradient-24"/><linearGradient id="linear-gradient-30" x1="337.84" y1="314.4" x2="337.84" y2="228.28" xlink:href="#linear-gradient-24"/><linearGradient id="linear-gradient-31" x1="358.07" y1="285.77" x2="358.07" y2="228.28" xlink:href="#linear-gradient-24"/><linearGradient id="linear-gradient-32" x1="413.19" y1="322.56" x2="413.19" y2="228.28" xlink:href="#linear-gradient-20"/><linearGradient id="linear-gradient-33" x1="413.31" y1="299.34" x2="413.31" y2="228.28" xlink:href="#linear-gradient-24"/><linearGradient id="linear-gradient-34" x1="397.46" y1="295.46" x2="397.46" y2="228.4" xlink:href="#linear-gradient-24"/><linearGradient id="linear-gradient-35" x1="382.87" y1="283.03" x2="382.87" y2="228.28" xlink:href="#linear-gradient-24"/><linearGradient id="linear-gradient-36" x1="369.93" y1="264.89" x2="369.93" y2="228.4" xlink:href="#linear-gradient-24"/><linearGradient id="linear-gradient-37" x1="356.93" y1="243.57" x2="356.93" y2="228.28" xlink:href="#linear-gradient-24"/><linearGradient id="linear-gradient-38" x1="429.27" y1="295.23" x2="429.27" y2="228.28" xlink:href="#linear-gradient-24"/><linearGradient id="linear-gradient-39" x1="443.86" y1="283.03" x2="443.86" y2="228.28" xlink:href="#linear-gradient-24"/><linearGradient id="linear-gradient-40" x1="456.8" y1="264.78" x2="456.8" y2="228.28" xlink:href="#linear-gradient-24"/><linearGradient id="linear-gradient-41" x1="469.8" y1="243.57" x2="469.8" y2="228.28" xlink:href="#linear-gradient-24"/><linearGradient id="linear-gradient-42" x1="24.84" y1="646.5" x2="24.84" y2="482.31" xlink:href="#linear-gradient-20"/><linearGradient id="linear-gradient-43" x1="44.5" y1="342.48" x2="44.5" y2="213.26" xlink:href="#linear-gradient-20"/><linearGradient id="linear-gradient-44" x1="44.55" y1="310.98" x2="44.55" y2="84.74" xlink:href="#linear-gradient-24"/><linearGradient id="linear-gradient-45" x1="20.09" y1="346.03" x2="20.09" y2="211.08" xlink:href="#linear-gradient-3"/><linearGradient id="linear-gradient-46" x1="120" y1="1165.85" x2="120" y2="696.92" gradientTransform="matrix(1, 0, 0, 1, 0, 0)" xlink:href="#linear-gradient-5"/><mask id="mask-5" x="-528" y="788.44" width="1296" height="97.2" maskUnits="userSpaceOnUse"><g id="mask3"><path class="cls-5" d="M768,790.06H-528v95.58H768Z"/></g></mask><linearGradient id="linear-gradient-47" x1="215.86" y1="213.31" x2="215.86" y2="119.29" xlink:href="#linear-gradient-11"/><linearGradient id="linear-gradient-48" x1="120" y1="922.56" x2="120" y2="785.46" gradientUnits="userSpaceOnUse"><stop offset="0.16" stop-color="#82a637"/><stop offset="0.89" stop-color="#1b8877"/></linearGradient></defs><title>hero-medium</title><g id="bg"><path class="cls-6" d="M768-.89H-657.64V885.5H681.46A86.57,86.57,0,0,0,768,798.94Z"/><g class="cls-7"><path class="cls-8" d="M798.58,372.25H788.36a3.83,3.83,0,0,0-3.83,3.83V642.86a5.27,5.27,0,0,1-5.27,5.27h0a5.27,5.27,0,0,1-5.27-5.27V470.29a8.66,8.66,0,0,0-8.66-8.65H753.91a8.65,8.65,0,0,0-8.66,8.65v15.06a8.66,8.66,0,0,1-8.66,8.66H674.65a8.27,8.27,0,0,0-8.27,8.27v5.09a3.19,3.19,0,0,1-3.2,3.19h0a3.19,3.19,0,0,0-3.19,3.19v60.71a7.83,7.83,0,0,1-7.82,7.83h0a7.83,7.83,0,0,0-7.83,7.82v42.74a8.66,8.66,0,0,1-8.65,8.66H633.2a8.66,8.66,0,0,0-8.65,8.66v60.29A3.52,3.52,0,0,1,621,714h0a3.51,3.51,0,0,1-3.51-3.51V375.86a2.87,2.87,0,0,0-2.87-2.87h0a2.88,2.88,0,0,1-2.88-2.88V339.68a5,5,0,0,0-4.95-4.95h0a5,5,0,0,1-5-5V300.2a3.35,3.35,0,0,0-3.35-3.36h0a3.35,3.35,0,0,1-3.35-3.35V267.61a8.66,8.66,0,0,0-8.66-8.65H561a8.65,8.65,0,0,0-8.66,8.65v25.88a3.35,3.35,0,0,1-3.35,3.35h0a3.35,3.35,0,0,0-3.36,3.36v29.58a4.94,4.94,0,0,1-4.95,5h0a5,5,0,0,0-5,4.95v30.54a2.39,2.39,0,0,1-2.39,2.4h0A2.4,2.4,0,0,0,531,375V603.55a5.58,5.58,0,0,1-5.58,5.59h0a5.59,5.59,0,0,0-5.59,5.59v92.38a6.87,6.87,0,0,1-6.87,6.86h-6.13a.73.73,0,0,1-.73-.73h0a.74.74,0,0,0-.74-.74h-1.81a1.28,1.28,0,0,1-1.28-1.28h0a1.28,1.28,0,0,1,1.28-1.29h.71a1.85,1.85,0,0,0,1.84-1.84h0a1.84,1.84,0,0,0-1.84-1.84h-.52a1.47,1.47,0,0,1-1.47-1.47h0a1.47,1.47,0,0,1,1.47-1.47h.52a1.85,1.85,0,0,0,1.84-1.84h0a1.84,1.84,0,0,0-1.84-1.84h-.71a1.28,1.28,0,0,1-1.28-1.29h0a1.28,1.28,0,0,1,1.28-1.29h.71a1.84,1.84,0,0,0,1.84-1.84h0a1.84,1.84,0,0,0-1.84-1.83h-.71a1.28,1.28,0,0,1-1.28-1.29h0a1.28,1.28,0,0,1,1.28-1.29h.71a1.84,1.84,0,0,0,1.84-1.84h0a1.85,1.85,0,0,0-1.84-1.84h-.71a1.28,1.28,0,0,1-1.28-1.29h0a1.28,1.28,0,0,1,1.28-1.28h.71a1.85,1.85,0,0,0,1.84-1.84h0a1.84,1.84,0,0,0-1.84-1.84h-.71a1.28,1.28,0,0,1-1.28-1.29h0a1.28,1.28,0,0,1,1.28-1.29h.71a1.84,1.84,0,0,0,1.84-1.84h0a1.84,1.84,0,0,0-1.84-1.83h-.71a1.28,1.28,0,0,1-1.28-1.29h0a1.28,1.28,0,0,1,1.28-1.29h.71a1.84,1.84,0,0,0,1.84-1.84h0a1.85,1.85,0,0,0-1.84-1.84h-.71a1.28,1.28,0,0,1-1.28-1.29h0a1.28,1.28,0,0,1,1.28-1.28h.71a1.85,1.85,0,0,0,1.84-1.84h0a1.84,1.84,0,0,0-1.84-1.84h-.71a1.28,1.28,0,0,1-1.28-1.29h0a1.28,1.28,0,0,1,1.28-1.29h.71a1.84,1.84,0,0,0,1.84-1.84h0a1.84,1.84,0,0,0-1.84-1.83h-.71a1.28,1.28,0,0,1-1.28-1.29h0a1.28,1.28,0,0,1,1.28-1.29h.71a1.84,1.84,0,0,0,1.84-1.84h0a1.85,1.85,0,0,0-1.84-1.84h-.08a1.91,1.91,0,0,1-1.91-1.91v-1.32a1.91,1.91,0,0,1,1.91-1.92h.08a1.84,1.84,0,0,0,1.84-1.84h0a1.85,1.85,0,0,0-1.84-1.84h-.71a1.28,1.28,0,0,1-1.28-1.28h0a1.28,1.28,0,0,1,1.28-1.29h.71a1.84,1.84,0,0,0,1.84-1.84h0a1.84,1.84,0,0,0-1.84-1.84h-.71a1.28,1.28,0,0,1-1.28-1.29h0a1.28,1.28,0,0,1,1.28-1.28h.71a1.85,1.85,0,0,0,1.84-1.84h0a1.84,1.84,0,0,0-1.84-1.84h-.71a1.28,1.28,0,0,1-1.28-1.29h0a1.28,1.28,0,0,1,1.28-1.29h.71a1.84,1.84,0,0,0,1.84-1.84h0a1.85,1.85,0,0,0-1.84-1.84h-.71a1.28,1.28,0,0,1-1.28-1.28h0a1.28,1.28,0,0,1,1.28-1.29h.71a1.84,1.84,0,0,0,1.84-1.84h0a1.84,1.84,0,0,0-1.84-1.84h-.71a1.28,1.28,0,0,1-1.28-1.29h0a1.28,1.28,0,0,1,1.28-1.28h.71a1.85,1.85,0,0,0,1.84-1.84h0a1.84,1.84,0,0,0-1.84-1.84h-.71a1.28,1.28,0,0,1-1.28-1.29h0a1.28,1.28,0,0,1,1.28-1.29h.71a1.84,1.84,0,0,0,1.84-1.84h0a1.85,1.85,0,0,0-1.84-1.84h-.71a1.28,1.28,0,0,1-1.28-1.28h0a1.28,1.28,0,0,1,1.28-1.29h.71a1.84,1.84,0,0,0,1.84-1.84h0a1.84,1.84,0,0,0-1.84-1.84h-.71a1.28,1.28,0,0,1-1.28-1.29h0a1.28,1.28,0,0,1,1.28-1.28h.71a1.85,1.85,0,0,0,1.84-1.84h0a1.84,1.84,0,0,0-1.84-1.84h-.71a1.28,1.28,0,0,1-1.28-1.29h0a1.28,1.28,0,0,1,1.28-1.29h.71a1.84,1.84,0,0,0,1.84-1.84h0a1.84,1.84,0,0,0-1.84-1.83h-.71a1.28,1.28,0,0,1-1.28-1.29h0a1.28,1.28,0,0,1,1.28-1.29h.71a1.84,1.84,0,0,0,1.84-1.84h0a1.85,1.85,0,0,0-1.84-1.84h-.71a1.28,1.28,0,0,1-1.28-1.29h0a1.28,1.28,0,0,1,1.28-1.28h.71a1.85,1.85,0,0,0,1.84-1.84h0a1.84,1.84,0,0,0-1.84-1.84h-.71a1.28,1.28,0,0,1-1.28-1.29h0a1.28,1.28,0,0,1,1.28-1.29h.71a1.84,1.84,0,0,0,1.84-1.84h0a1.85,1.85,0,0,0-1.84-1.84h-.08a1.9,1.9,0,0,1-1.91-1.91v-2.05a1.91,1.91,0,0,1,1.91-1.92h.08a1.84,1.84,0,0,0,1.84-1.84h0a1.84,1.84,0,0,0-1.84-1.84h-.71a1.28,1.28,0,0,1-1.28-1.29h0a1.28,1.28,0,0,1,1.28-1.28h.71a1.85,1.85,0,0,0,1.84-1.84h0a1.84,1.84,0,0,0-1.84-1.84h-.71a1.28,1.28,0,0,1-1.28-1.29h0a1.28,1.28,0,0,1,1.28-1.29h.71a1.84,1.84,0,0,0,1.84-1.84h0a1.85,1.85,0,0,0-1.84-1.84h-.71a1.28,1.28,0,0,1-1.28-1.28h0a1.28,1.28,0,0,1,1.28-1.29h.71a1.84,1.84,0,0,0,1.84-1.84h0a1.84,1.84,0,0,0-1.84-1.84h-.08a1.91,1.91,0,0,1-1.91-1.91v-2.91a1.44,1.44,0,0,0-1.44-1.43h0a1.44,1.44,0,0,1-1.44-1.44V526.9a3.82,3.82,0,0,0-3.83-3.83h0a3.83,3.83,0,0,1-3.83-3.84V506.44a2.88,2.88,0,0,0-2.88-2.87h0A2.88,2.88,0,0,1,486,500.7v-15a8.66,8.66,0,0,0-6.55-8.39l-11-2.77h0a5.59,5.59,0,0,1-4.15-5.4V434.06a1.12,1.12,0,0,0-1.12-1.11h0a1.12,1.12,0,0,0-1.12,1.11v35.35a2.8,2.8,0,0,1-3.51,2.71h0a2.79,2.79,0,0,0-3.51,2.71v26.35a2.4,2.4,0,0,1-2.4,2.39h0A2.39,2.39,0,0,0,450.2,506v13.27a3.84,3.84,0,0,1-3.84,3.84H446a3.5,3.5,0,0,0-3.5,3.49v2.06a1.43,1.43,0,0,1-1.43,1.43h0a1.44,1.44,0,0,0-1.44,1.44v1.69a3.13,3.13,0,0,1-3.13,3.13H408.08a8.66,8.66,0,0,0-8.66,8.65v23.52a8.66,8.66,0,0,1-8.65,8.66h-24a8.63,8.63,0,0,0-3.54.76L334.6,590.75h0a2.75,2.75,0,0,0-1.6,2.49v13.35a2.56,2.56,0,0,0,2.56,2.55h.35a2.2,2.2,0,0,1,2.2,2.21h0a2.19,2.19,0,0,1-2.2,2.2h-.7a2.21,2.21,0,0,0-2.21,2.21h0a2.21,2.21,0,0,0,2.21,2.21h.7a2.2,2.2,0,0,1,2.2,2.2h0a2.2,2.2,0,0,1-2.2,2.21h-.7a2.21,2.21,0,0,0-2.21,2.21h0a2.21,2.21,0,0,0,2.21,2.21h.7a2.19,2.19,0,0,1,2.2,2.2h0a2.2,2.2,0,0,1-2.2,2.21h-.7a2.21,2.21,0,0,0-2.21,2.21h0a2.2,2.2,0,0,0,2.21,2.2h.7a2.2,2.2,0,0,1,2.2,2.21h0a2.2,2.2,0,0,1-2.2,2.21h-.7a2.21,2.21,0,0,0-2.21,2.21h0a2.21,2.21,0,0,0,2.21,2.2h1.25a1.65,1.65,0,0,1,1.65,1.66h0a1.65,1.65,0,0,1-1.65,1.65H307.38a8.65,8.65,0,0,1-8.24-6l-7.92-24.62a4.06,4.06,0,0,0-7.73,0h0c-1.43,4.47-8.3,3.35-8.29-1.34,0-3.82,0-7.63,0-11.45V588.91c0-14.71,0-29.43-.32-44.14,0-6.26-.32-12.88-.32-19.13-.32-13.61-.64-27.22-1.28-41.2-.32-6.62-.32-13.24-.64-19.86-.64-12.88-1-25.38-1.59-38.26,0-1.47-.32-2.94-.32-4.41-.64-11.4-1.28-22.44-1.92-33.84-1.28-20.6-2.87-41.2-4.47-61.8-.16-2.51-.39-5.11-.62-7.71a8.89,8.89,0,0,0-8.79-8.11H194.2a8.2,8.2,0,0,0-8.38,7.74c0,.48,0,1,0,1.46l-1,13.24c-.32,3.68-.64,7.73-1,11.41-.64,7-1,14-1.6,21-.31,3.31-.31,6.26-.63,9.57-.32,5.88-.64,11.77-1.28,17.65a59.55,59.55,0,0,0-.32,7.36c-.32,7.72-1,15.45-1.28,22.81,0,2.57-.32,5.14-.32,7.72-.32,8.09-.64,15.82-1,23.91,0,1.84-.31,3.31-.31,5.15-.32,7.36-.64,15.08-1,22.44v4.41c-.32,8.46-.64,16.92-.64,25.38v5.15c-.32,8.83-.32,17.66-.64,26.12V544c0,8.83-.32,17.66-.32,26.12v42.42a6.86,6.86,0,0,1-6.86,6.87h0a6.86,6.86,0,0,0-6.87,6.87v90.56a8.15,8.15,0,0,1-8.14,8.14h-7.23a.92.92,0,0,1-.92-.92h0a.92.92,0,0,1,.92-.92H146a1.44,1.44,0,0,0,1.44-1.44v-1.17a1.45,1.45,0,0,0-1.44-1.44h0a1.44,1.44,0,0,1-1.44-1.43v-1.91a1.45,1.45,0,0,1,1.44-1.44h0a1.44,1.44,0,0,0,1.44-1.43v-1.18A1.44,1.44,0,0,0,146,710.3h0a1.45,1.45,0,0,1-1.44-1.44v-2.28a1.44,1.44,0,0,1,1.44-1.43h0a1.45,1.45,0,0,0,1.44-1.44v-1.17A1.44,1.44,0,0,0,146,701.1h0a1.44,1.44,0,0,1-1.44-1.44v-2.27A1.44,1.44,0,0,1,146,696h0a1.44,1.44,0,0,0,1.44-1.44v-1.17A1.45,1.45,0,0,0,146,691.9h0a1.44,1.44,0,0,1-1.44-1.43v-2.28a1.45,1.45,0,0,1,1.44-1.44h0a1.44,1.44,0,0,0,1.44-1.43v-1.17a1.44,1.44,0,0,0-1.44-1.44h0a1.45,1.45,0,0,1-1.44-1.44V679a1.44,1.44,0,0,1,1.44-1.44h0a1.44,1.44,0,0,0,1.44-1.44V675a1.45,1.45,0,0,0-1.44-1.44h0a1.44,1.44,0,0,1-1.44-1.43V669.8a1.45,1.45,0,0,1,1.44-1.44h0a1.44,1.44,0,0,0,1.44-1.44v-1.17a1.44,1.44,0,0,0-1.44-1.43h0a1.45,1.45,0,0,1-1.44-1.44V660.6a1.44,1.44,0,0,1,1.44-1.43h0a1.45,1.45,0,0,0,1.44-1.44v-1.17a1.44,1.44,0,0,0-1.44-1.44h0a1.44,1.44,0,0,1-1.44-1.44v-2.27A1.44,1.44,0,0,1,146,650h0a1.44,1.44,0,0,0,1.44-1.44v-1.17a1.45,1.45,0,0,0-1.44-1.44h0a1.44,1.44,0,0,1-1.44-1.43v-2.28a1.45,1.45,0,0,1,1.44-1.44h0a1.44,1.44,0,0,0,1.44-1.43v-1.18a1.44,1.44,0,0,0-1.44-1.43h0a1.45,1.45,0,0,1-1.44-1.44V633a1.44,1.44,0,0,1,1.44-1.44h0a1.44,1.44,0,0,0,1.44-1.44V627.5a1.44,1.44,0,0,0-1.44-1.44h0a1.44,1.44,0,0,1-1.44-1.44v-2.27a1.44,1.44,0,0,1,1.44-1.44h0a1.44,1.44,0,0,0,1.44-1.44V618.3a1.45,1.45,0,0,0-1.44-1.44h0a1.44,1.44,0,0,1-1.44-1.43v-2.65a1.44,1.44,0,0,1,1.44-1.43h0a1.45,1.45,0,0,0,1.44-1.44v-1.17A1.44,1.44,0,0,0,146,607.3h0a1.44,1.44,0,0,1-1.44-1.44v-2.27a1.44,1.44,0,0,1,1.44-1.44h0a1.44,1.44,0,0,0,1.44-1.44v-1.17a1.44,1.44,0,0,0-1.44-1.43h0a1.45,1.45,0,0,1-1.44-1.44v-2.28A1.45,1.45,0,0,1,146,593h0a1.44,1.44,0,0,0,1.44-1.43v-1.17a1.44,1.44,0,0,0-1.44-1.44h0a1.44,1.44,0,0,1-1.44-1.44V585.2a1.44,1.44,0,0,1,1.44-1.44h0a1.44,1.44,0,0,0,1.44-1.44v-1.17a1.45,1.45,0,0,0-1.44-1.44h0a1.44,1.44,0,0,1-1.44-1.43V576a1.45,1.45,0,0,1,1.44-1.44h0a1.44,1.44,0,0,0,1.44-1.43V572a1.44,1.44,0,0,0-1.44-1.43h0a1.45,1.45,0,0,1-1.44-1.44V566.8a1.44,1.44,0,0,1,1.44-1.43h0a1.45,1.45,0,0,0,1.44-1.44v-1.17a1.44,1.44,0,0,0-1.44-1.44h0a1.44,1.44,0,0,1-1.44-1.44v-2.27a1.44,1.44,0,0,1,1.44-1.44h0a1.44,1.44,0,0,0,1.44-1.44v-1.17a1.45,1.45,0,0,0-1.44-1.44h0a1.44,1.44,0,0,1-1.44-1.43v-2.28A1.44,1.44,0,0,1,146,547h0a1.45,1.45,0,0,0,1.44-1.44v-2.65a1.44,1.44,0,0,0-1.44-1.43h0A1.45,1.45,0,0,1,144.6,540v-2.27a1.44,1.44,0,0,1,1.44-1.44h0a1.45,1.45,0,0,0,1.44-1.44V533.7a1.44,1.44,0,0,0-1.44-1.44h0a1.44,1.44,0,0,1-1.44-1.44v-2.27a1.44,1.44,0,0,1,1.44-1.44h0a1.44,1.44,0,0,0,1.44-1.44V524.5a1.44,1.44,0,0,0-1.44-1.43h0a1.45,1.45,0,0,1-1.44-1.44v-2.28a1.44,1.44,0,0,1,1.44-1.43h0a1.45,1.45,0,0,0,1.44-1.44v-1.17a1.44,1.44,0,0,0-1.44-1.44h0a1.44,1.44,0,0,1-1.44-1.44v-6.32a1.45,1.45,0,0,1,1.44-1.44h0a1.44,1.44,0,0,0,1.44-1.43v-1.33a2.76,2.76,0,0,0-2.76-2.75h-3.93a2.58,2.58,0,0,1-2.57-2.58v-.77A1.8,1.8,0,0,1,140,494h0a1.81,1.81,0,0,0,1.52-2.78L129.76,473a7,7,0,0,0-5.91-3.22h0a7,7,0,0,1-7-7v-1.06h0c0-.78-.64-1.74-.64-2.51V437.74a1.12,1.12,0,0,0-1.11-1.12h0a1.12,1.12,0,0,0-1.12,1.12v21.44c0,.75-.64,1.71-.64,2.46h0v1.06a7,7,0,0,1-7,7h0a7,7,0,0,0-5.9,3.22L88,492.1a1.24,1.24,0,0,0,1,1.91h0a1.23,1.23,0,0,1,1.24,1.24v1.33a2.58,2.58,0,0,1-2.58,2.58H83.82a2.75,2.75,0,0,0-2.76,2.75v1a1.75,1.75,0,0,0,1.76,1.75h0a1.75,1.75,0,0,1,1.75,1.76v5.68a1.75,1.75,0,0,1-1.75,1.76h0a1.76,1.76,0,0,0-1.76,1.76v.53a1.76,1.76,0,0,0,1.76,1.76h0a1.75,1.75,0,0,1,1.75,1.75v1.64a1.75,1.75,0,0,1-1.75,1.76h0a1.75,1.75,0,0,0-1.76,1.75v.54a1.75,1.75,0,0,0,1.76,1.75h0a1.75,1.75,0,0,1,1.75,1.76v1.64a1.75,1.75,0,0,1-1.75,1.75h0A1.76,1.76,0,0,0,81.06,534v.53a1.76,1.76,0,0,0,1.76,1.76h0a1.75,1.75,0,0,1,1.75,1.75v1.64a1.75,1.75,0,0,1-1.75,1.76h0a1.75,1.75,0,0,0-1.76,1.75v.54a1.75,1.75,0,0,0,1.76,1.75h0a1.75,1.75,0,0,1,1.75,1.76v1.64a1.75,1.75,0,0,1-1.75,1.75h0a1.76,1.76,0,0,0-1.76,1.76v.53a1.76,1.76,0,0,0,1.76,1.76h0a1.75,1.75,0,0,1,1.75,1.76v1.63a1.75,1.75,0,0,1-1.75,1.76h0a1.76,1.76,0,0,0-1.76,1.76v.53a1.76,1.76,0,0,0,1.76,1.76h0a1.75,1.75,0,0,1,1.75,1.75v1.64a1.75,1.75,0,0,1-1.75,1.76h0a1.75,1.75,0,0,0-1.76,1.75v.54a1.75,1.75,0,0,0,1.76,1.75h0a1.75,1.75,0,0,1,1.75,1.76v1.64a1.75,1.75,0,0,1-1.75,1.75h0A1.76,1.76,0,0,0,81.06,580v.53a1.76,1.76,0,0,0,1.76,1.76h0A1.75,1.75,0,0,1,84.57,584v1.64a1.75,1.75,0,0,1-1.75,1.76h0a1.75,1.75,0,0,0-1.76,1.75v.54a1.75,1.75,0,0,0,1.76,1.75h0a1.75,1.75,0,0,1,1.75,1.76v1.64a1.75,1.75,0,0,1-1.75,1.75h0a1.76,1.76,0,0,0-1.76,1.76v.53a1.76,1.76,0,0,0,1.76,1.76h0a1.75,1.75,0,0,1,1.75,1.76v1.63a1.75,1.75,0,0,1-1.75,1.76h0a1.76,1.76,0,0,0-1.76,1.76v.53a1.76,1.76,0,0,0,1.76,1.76h0a1.75,1.75,0,0,1,1.75,1.75v1.64A1.75,1.75,0,0,1,82.82,615h0a1.75,1.75,0,0,0-1.76,1.75v.54a1.75,1.75,0,0,0,1.76,1.75h0a1.75,1.75,0,0,1,1.75,1.76v1.64a1.75,1.75,0,0,1-1.75,1.75h0A1.76,1.76,0,0,0,81.06,626v.53a1.76,1.76,0,0,0,1.76,1.76h0A1.75,1.75,0,0,1,84.57,630v1.64a1.75,1.75,0,0,1-1.75,1.76h0a1.75,1.75,0,0,0-1.76,1.75v.54a1.75,1.75,0,0,0,1.76,1.75H84a.56.56,0,0,1,.55.56h0a.55.55,0,0,1-.55.55H68a4.78,4.78,0,0,1-4.78-4.78h0V377l-.2-9.72a8.7,8.7,0,0,0-5.44-7.86l-9.38-3.76a5.35,5.35,0,0,0-7.34,5v2A3.32,3.32,0,0,1,37.5,366h0a3.33,3.33,0,0,1-3.32-3.38l.46-26.4a8.65,8.65,0,0,0-6.26-8.47L6.76,321.52a8.65,8.65,0,0,0-11,7.74l-3.12,47-.32,5.15-.32,4-.32,5.15-.32,4.05L-9,399.84l-.32,4.05L-9.63,409l-.32,4-.32,5.15-.32,4-.32,5.15-.31,4-.32,5.15-.32,4.05-.32,5.15-.32,4.05-.32,5.14-.32,4.05-.32,5.15-.32,4.05-.32,5.15-.32,4-.1,1.58a8.67,8.67,0,0,1-2.89,6l-3,2.62a8.71,8.71,0,0,0-2.9,5.91l-.08,1.23-.32,4.05-.32,5.15-.32,4-.32,5.15-.32,4-.32,5.15-.31,4-.32,4.78h0A1.85,1.85,0,0,1-27.75,533H-54.62a8.65,8.65,0,0,0-8.65,8.65v44.88a5,5,0,0,1-4.95,5h0a5,5,0,0,0-5,4.95V711.32a6.71,6.71,0,0,1-6.71,6.7h0a6.7,6.7,0,0,1-6.7-6.7V257.83a2.56,2.56,0,0,0-2.56-2.55h0a2.56,2.56,0,0,1-2.55-2.56V209.86a8.66,8.66,0,0,0-8.66-8.65h-55.81a8.66,8.66,0,0,0-8.66,8.65v43.23a2.56,2.56,0,0,1-2.55,2.56h0a2.56,2.56,0,0,0-2.56,2.55v197a4.63,4.63,0,0,1-4.63,4.63h-3.52a1.11,1.11,0,0,0-1.11,1.1v.47a.63.63,0,0,1-.64.63h0a.64.64,0,0,0-.64.64v4.24a.64.64,0,0,0,.64.64h0a.64.64,0,0,1,.64.64v.56a.63.63,0,0,1-.64.64h0a.64.64,0,0,0-.64.64v4.24a.64.64,0,0,0,.64.64h0a.63.63,0,0,1,.64.64v.56a.64.64,0,0,1-.64.64h0a.64.64,0,0,0-.64.64v4.24a.64.64,0,0,0,.64.63h0a.64.64,0,0,1,.64.64v.57a.63.63,0,0,1-.64.63h0a.64.64,0,0,0-.64.64V489a.64.64,0,0,0,.64.64h0a.64.64,0,0,1,.64.64v.56a.63.63,0,0,1-.64.64h0a.64.64,0,0,0-.64.64v4.24a.64.64,0,0,0,.64.64h0a.64.64,0,0,1,.64.64v.56a.64.64,0,0,1-.64.64h0a.64.64,0,0,0-.64.64v4.24a.64.64,0,0,0,.64.64h0a.63.63,0,0,1,.64.63v.57a.63.63,0,0,1-.64.63h0a.64.64,0,0,0-.64.64V511a.64.64,0,0,0,.64.64h0a.64.64,0,0,1,.64.64v.56a.63.63,0,0,1-.64.64h0a.64.64,0,0,0-.64.64v4.24a.64.64,0,0,0,.64.64h0a.63.63,0,0,1,.64.64v.56a.64.64,0,0,1-.64.64h0a.64.64,0,0,0-.64.64v4.24a.64.64,0,0,0,.64.64h0a.63.63,0,0,1,.64.63v.57a.64.64,0,0,1-.64.64h0a.64.64,0,0,0-.64.63v4.24a.64.64,0,0,0,.64.64h0a.64.64,0,0,1,.64.64v.56a.63.63,0,0,1-.64.64h0a.64.64,0,0,0-.64.64v4.24a.64.64,0,0,0,.64.64h0a.64.64,0,0,1,.64.64v.56a.64.64,0,0,1-.64.64h0a.64.64,0,0,0-.64.64v4.24a.64.64,0,0,0,.64.64h0a.63.63,0,0,1,.64.64v.56a.64.64,0,0,1-.64.64h0a.64.64,0,0,0-.64.63v4.24a.64.64,0,0,0,.64.64h0a.64.64,0,0,1,.64.64V557a.63.63,0,0,1-.64.64h0a.64.64,0,0,0-.64.64v4.24a.64.64,0,0,0,.64.64h0a.64.64,0,0,1,.64.64v.56a.64.64,0,0,1-.64.64h0a.64.64,0,0,0-.64.64v4.24a.64.64,0,0,0,.64.64h0a.63.63,0,0,1,.64.64v7.91a.63.63,0,0,1-.64.64h0a.64.64,0,0,0-.64.64v4.24a.64.64,0,0,0,.64.64h0a.64.64,0,0,1,.64.64v.56a.64.64,0,0,1-.64.64h0a.64.64,0,0,0-.64.64v1a1.65,1.65,0,0,1-1.65,1.65H-193.2a8.66,8.66,0,0,1-8.66-8.66V478a8.66,8.66,0,0,0-8.66-8.66h-38.89a8.66,8.66,0,0,0-8.65,8.66V539.2a8.14,8.14,0,0,1-8.14,8.14h-5.94a2.21,2.21,0,0,1-2.21-2.2h0a2.2,2.2,0,0,0-2.2-2.21h-1.15a3.35,3.35,0,0,1-3.35-3.35V244.22a2.56,2.56,0,0,0-2.56-2.55h0a2.56,2.56,0,0,1-2.55-2.56V156.53a8.66,8.66,0,0,0-8.66-8.66H-366a8.65,8.65,0,0,0-8.65,8.66v82.58a2.56,2.56,0,0,1-2.56,2.56h0a2.55,2.55,0,0,0-2.55,2.55V634.71a6.06,6.06,0,0,1-6.07,6.06h0a6.06,6.06,0,0,1-6.07-6.06V492a8.65,8.65,0,0,0-8.65-8.65h-4.09a8.66,8.66,0,0,1-8.65-8.66V417a3.51,3.51,0,0,0-3.51-3.51h0a3.52,3.52,0,0,1-3.52-3.51V390.47a8.65,8.65,0,0,0-8.65-8.65h-82.32a8.66,8.66,0,0,0-8.66,8.65v19.47a3.51,3.51,0,0,1-3.51,3.51h0a3.51,3.51,0,0,0-3.51,3.51V659a8.66,8.66,0,0,1-8.66,8.66h-5.67a8.66,8.66,0,0,1-8.66-8.66V511.86a8.66,8.66,0,0,0-8.66-8.66h-67.31a8.66,8.66,0,0,0-8.65,8.66v86.42a8.66,8.66,0,0,1-8.66,8.65h-1.21a8.66,8.66,0,0,0-8.65,8.66v86.7a5.43,5.43,0,0,1-5.43,5.43h0a5.43,5.43,0,0,1-5.43-5.43V412a2.23,2.23,0,0,0-2.23-2.24h-1.14a1.1,1.1,0,0,1-1.1-1.1h0a1.11,1.11,0,0,1,1.1-1.11h1.14a2.23,2.23,0,0,0,2.23-2.23v-2.89a2.23,2.23,0,0,0-2.23-2.23h-1.14a1.11,1.11,0,0,1-1.1-1.11h0a1.1,1.1,0,0,1,1.1-1.1h1.14a2.23,2.23,0,0,0,2.23-2.24v-2.88a2.23,2.23,0,0,0-2.23-2.24h-1.14a1.1,1.1,0,0,1-1.1-1.1h0a1.1,1.1,0,0,1,1.1-1.1h1.14a2.23,2.23,0,0,0,2.23-2.24v-2.89a2.23,2.23,0,0,0-2.23-2.23h-1.5a.74.74,0,0,1-.74-.74h0a.74.74,0,0,1,.74-.73H-666a2.39,2.39,0,0,0,2.39-2.4v-2.56a2.39,2.39,0,0,0-2.39-2.4h-1.3a1.1,1.1,0,0,1-1.1-1.1h0a1.11,1.11,0,0,1,1.1-1.11h1.3a2.39,2.39,0,0,0,2.39-2.39v-2.57a2.39,2.39,0,0,0-2.39-2.39h-1.3a1.11,1.11,0,0,1-1.1-1.11h0a1.1,1.1,0,0,1,1.1-1.1h1.3a2.39,2.39,0,0,0,2.39-2.39v-2.57a2.4,2.4,0,0,0-2.39-2.4h-1.3a1.1,1.1,0,0,1-1.1-1.1h0a1.1,1.1,0,0,1,1.1-1.1h1.3a2.4,2.4,0,0,0,2.39-2.4V327.14a9.83,9.83,0,0,0-3.12-6.95c-9.59-9.35-23.74-30.42-24-59.76v-2.07a2.71,2.71,0,0,0-2.72-2.71h-.69a2,2,0,0,0-2,2h0a2,2,0,0,1-2,2H-700a3.83,3.83,0,0,1-3.84-3.83V197.13a1.43,1.43,0,0,0-1.43-1.44h0a1.43,1.43,0,0,0-1.44,1.44v62.13a.8.8,0,0,1-.8.8h0a.8.8,0,0,1-.8-.8V258a2,2,0,0,0-2-2H-712a2,2,0,0,0-2,2h0a2,2,0,0,1-2,2h-6.17a2,2,0,0,1-2-2h0a2,2,0,0,0-2-2h-.86a2.88,2.88,0,0,0-2.87,2.88v1.17c0,29.85-7.36,51.22-15.75,60.71a11.1,11.1,0,0,0-3.09,7.19v16.18a.16.16,0,0,0,.16.16h0a.16.16,0,0,1,.16.16v4.32a2.87,2.87,0,0,0,2.87,2.87h1.77a1.11,1.11,0,0,1,1.11,1.11h0a1.11,1.11,0,0,1-1.11,1.1h-1.77a2.88,2.88,0,0,0-2.87,2.87v1.61a2.88,2.88,0,0,0,2.87,2.88h1.77a1.11,1.11,0,0,1,1.11,1.1h0a1.11,1.11,0,0,1-1.11,1.1h-1.93a3,3,0,0,0-3,3v1.29a3,3,0,0,0,3,3h2.3a.74.74,0,0,1,.74.74h0a.74.74,0,0,1-.74.73h-2.3a3,3,0,0,0-3,3v1.29a3,3,0,0,0,3,3h1.93a1.11,1.11,0,0,1,1.11,1.1h0a1.11,1.11,0,0,1-1.11,1.11h-1.93a3,3,0,0,0-3,3v1.29a3,3,0,0,0,3,3h1.93a1.11,1.11,0,0,1,1.11,1.11h0a1.11,1.11,0,0,1-1.11,1.1h-1.93a3,3,0,0,0-3,3v1.29a3,3,0,0,0,3,3h1.93a1.11,1.11,0,0,1,1.11,1.1h0a1.11,1.11,0,0,1-1.11,1.1h-1.93a3,3,0,0,0-3,3v1.29a3,3,0,0,0,3,3h1.93a1.11,1.11,0,0,1,1.11,1.1h0a1.11,1.11,0,0,1-1.11,1.11H-746a3.19,3.19,0,0,0-3.19,3.19V560.76a8.65,8.65,0,0,1-8.65,8.65h-.57a8.66,8.66,0,0,0-8.66,8.66v64.74a5,5,0,0,1-5,5h0a5,5,0,0,0-5,5v58.77c0,2-2.33,3-4.31,2.87h0l-.36,0-.42-.07a7.58,7.58,0,0,1-6.4-7.49V571.05a8.67,8.67,0,0,0-4.75-7.72l-2.95-1.5a1.43,1.43,0,0,0-.61-.14h-.11a2.76,2.76,0,0,1-2.76-2.76v-1.64a1.12,1.12,0,0,0-1.12-1.12h0a1.12,1.12,0,0,0-1.12,1.12v.34a1.12,1.12,0,0,1-1.11,1.12h0a1.12,1.12,0,0,0-1.12,1.12h0a1.14,1.14,0,0,1-1.07,1.14l-3.18.19a2,2,0,0,1-2.14-2h0a2,2,0,0,0-1-1.75l-.7-.4a3.41,3.41,0,0,0-1.82-.46l-18.25.63a2.25,2.25,0,0,0-2.17,2.25h0a2.24,2.24,0,0,1-2.23,2.24h0a2.23,2.23,0,0,0-2.24,2.23v27a8.66,8.66,0,0,1-8.65,8.66H-865.7a8.66,8.66,0,0,1-8.65-8.66V416.13A4.15,4.15,0,0,0-878.5,412h0a4.15,4.15,0,0,1-4.16-4.15V373.18a8.65,8.65,0,0,0-8.65-8.65h-14.15a6.25,6.25,0,0,1-6.25-6.26h0A6.26,6.26,0,0,0-918,352h-3a8.66,8.66,0,0,1-8.66-8.66v-2.92a8.65,8.65,0,0,0-8.65-8.65h-55.18a8.65,8.65,0,0,0-8.65,8.65v15.43a8.66,8.66,0,0,1-8.66,8.66h-19.09a8.65,8.65,0,0,0-8.65,8.65V694.65a8.66,8.66,0,0,1-8.66,8.66h-2.49a8.66,8.66,0,0,0-8.66,8.65v14.69a8.66,8.66,0,0,1-8.65,8.66h-1.21a8.66,8.66,0,0,1-8.65-8.66V642.07a8.66,8.66,0,0,0-8.66-8.65h-11.42a8.66,8.66,0,0,1-8.66-8.66V600.31a.62.62,0,0,0-.32-.55h0a.62.62,0,0,1-.32-.55v-4a7.48,7.48,0,0,0-1.27-4.18l-4.92-7.32a8.66,8.66,0,0,1-1.47-4.83v-7.67a3.94,3.94,0,0,0-1-2.56h0a3.9,3.9,0,0,1-1-2.57V550a.47.47,0,0,0-.48-.48h0a.47.47,0,0,0-.48.48v16.33a3.22,3.22,0,0,1-.8,2.13h0a3.32,3.32,0,0,0-.8,2.14v9.23a8.7,8.7,0,0,1-1.25,4.5l-4.42,7.25a7.23,7.23,0,0,0-1,3.71v2.31a2.46,2.46,0,0,1-1,2h0a2.45,2.45,0,0,0-1,1.94v1.27a3.72,3.72,0,0,1-1.59,3l-.28.19a3.09,3.09,0,0,0-1.32,2.53h0a3.08,3.08,0,0,1-1.44,2.6l-.32.2a3.74,3.74,0,0,0-1.75,3.18v35a6.05,6.05,0,0,1-6.71,6h0a5.75,5.75,0,0,1-5.74-5.75v-70.2a8.66,8.66,0,0,0-8.66-8.65h-22a8.66,8.66,0,0,0-8.66,8.65v34.55a8.66,8.66,0,0,1-8.65,8.66h-7.59a8.66,8.66,0,0,0-8.66,8.66v24.72a3,3,0,0,1-3,3h0a3,3,0,0,0-3,3v42a2.39,2.39,0,0,1-2.4,2.4h0a2.39,2.39,0,0,1-2.38-2.4V685.9a3.19,3.19,0,0,0-3.2-3.19h0a3.19,3.19,0,0,1-3.19-3.2V490.16a8.66,8.66,0,0,0-8.66-8.66h-46c-39.91,0-72.16,32.37-72.16,78.35V588a8.66,8.66,0,0,1-8.66,8.65h-4.44c-11.49,0-20.76,22.81-20.76,35.32v45.41a8.66,8.66,0,0,1-8.65,8.66h-16.54a8.66,8.66,0,0,1-8.65-8.66V632.14a8.66,8.66,0,0,0-8.66-8.65H-1436a8.65,8.65,0,0,0-8.65,8.65v97.48a5,5,0,0,1-4.95,5h0a4.94,4.94,0,0,1-5-5V675.49a2.71,2.71,0,0,0-2.71-2.71h0a2.72,2.72,0,0,1-2.72-2.72V632.14a8.65,8.65,0,0,0-8.66-8.65h-2.8a8.66,8.66,0,0,1-8.66-8.66v-43a8.66,8.66,0,0,0-8.66-8.66h-26.43a8.66,8.66,0,0,0-8.66,8.66V795.44a8.66,8.66,0,0,0,8.66,8.66H816.74a8.66,8.66,0,0,0,8.66-8.66V380.91a8.66,8.66,0,0,0-8.66-8.66ZM439.66,580.63a1.29,1.29,0,0,1-1.29,1.29h-1.9a.32.32,0,0,1-.32-.32v-1a1.28,1.28,0,0,1,1.28-1.29h.94a1.29,1.29,0,0,1,1.29,1.29Zm0-6.25a1.29,1.29,0,0,1-1.29,1.29h-.94a1.28,1.28,0,0,1-1.28-1.29h0a1.28,1.28,0,0,1,1.28-1.29h.94a1.29,1.29,0,0,1,1.29,1.29Zm0-6.62a1.29,1.29,0,0,1-1.29,1.29h-.94a1.28,1.28,0,0,1-1.28-1.29h0a1.28,1.28,0,0,1,1.28-1.29h.94a1.29,1.29,0,0,1,1.29,1.29Zm0-6.62a1.28,1.28,0,0,1-1.29,1.28h-.94a1.28,1.28,0,0,1-1.28-1.28h0a1.28,1.28,0,0,1,1.28-1.29h.94a1.29,1.29,0,0,1,1.29,1.29Zm0-6.62a1.28,1.28,0,0,1-1.29,1.28h-.94a1.28,1.28,0,0,1-1.28-1.28h0a1.28,1.28,0,0,1,1.28-1.29h.94a1.29,1.29,0,0,1,1.29,1.29Zm0-6.63a1.29,1.29,0,0,1-1.29,1.29h-.94a1.28,1.28,0,0,1-1.28-1.29h0a1.28,1.28,0,0,1,1.28-1.28h.94a1.28,1.28,0,0,1,1.29,1.28Zm0-6.25a1.29,1.29,0,0,1-1.29,1.29h-.94a1.28,1.28,0,0,1-1.28-1.29h0a1.28,1.28,0,0,1,1.28-1.29h.94a1.29,1.29,0,0,1,1.29,1.29Z"/><path class="cls-9" d="M794-.9H124.54v885H741.88c28.77,0,52.09-49.53,52.09-110.63Z"/></g></g><g id="bg_circles" data-name="bg circles"><path class="cls-10" d="M959.07,584.53c109.9-110,109.9-288.39,0-398.36s-288.07-110-397.91,0-109.9,288.39,0,398.36,288,110,397.91,0Z"/><path class="cls-11" d="M620.35,771.83c80.34-80.48,80.34-210.88,0-291.35s-210.68-80.48-291,0-80.34,210.87,0,291.35S539.94,852.23,620.35,771.83Z"/><path class="cls-12" d="M86.19,711c140.62-140.56,140.67-368.5.12-509.12s-368.5-140.67-509.12-.11-140.67,368.5-.11,509.12S-54.43,851.57,86.19,711Z"/></g><g id="nature"><g id="mountain-3"><path class="cls-13" d="M683.33,801.81H470.56c0-39.06,4.69-75.8,12.95-107.84q3-11.47,6.51-22.11h0c19.24-57.64,51-95.29,86.86-95.29a52.22,52.22,0,0,1,14.68,2.12c31.81,9.29,59.14,48.31,75.5,103.4C677.37,716.76,683.33,757.8,683.33,801.81Z"/><g class="cls-14"><path class="cls-15" d="M483.51,694C542.76,664.65,592,608.1,605.57,630.66c14.79,24.67-129.83,126.61-81.35,121.68S632.68,634,651.58,652C668.94,668.66,549.74,776.13,555,801.81"/><path class="cls-16" d="M574.88,801.81c24.28-17.75,60.74-76.85,92.19-119.73"/><path class="cls-17" d="M490,671.86h0c41.73-31.75,103.43-77.14,101.57-93l0-.19"/></g><path class="cls-18" d="M669.54,801.8h13.79c0-124.47-47.67-225.24-106.44-225.24a51.15,51.15,0,0,0-6.9.46C625.55,584.54,669.54,682.23,669.54,801.8Z"/></g><g id="mountain-2"><path class="cls-3" d="M694.82,637.63c-43,0-77.81,73.83-77.81,164.83H772.64C772.52,711.46,737.71,637.63,694.82,637.63Z"/><g class="cls-19"><path class="cls-20" d="M632.45,703.9c2.08-1.48,4.43-3.31,7.06-5.52,60.74-51,118.59-34.65,94.49,0s-94.49,16.36-87.74,52.94c5.07,27.47,74.56-9.09,115-34.63"/></g><path class="cls-21" d="M756.23,802.46h16.41c-.12-91-34.93-164.83-77.82-164.83a37.92,37.92,0,0,0-8.22.91C725.64,647.23,756.11,717.34,756.23,802.46Z"/></g><g id="mountain-1"><path class="cls-4" d="M388.48,557.51c-68.17,0-123.46,108.79-123.46,243H511.94C511.81,666.3,456.64,557.51,388.48,557.51Z"/><g class="cls-22"><path class="cls-23" d="M333.76,582.64c7.22,21.27-19.3,69.89,1,76.25,22.3,7,53.67-102.6,80.86-92.13S298.53,746.84,348.72,753.12s73.19-145.18,94.8-134.71-48.8,92.13-24.4,115.86,36.95-87.94,56.46-75.38,5.58,75.38-13.24,118"/></g><path class="cls-24" d="M484.35,800.49h27.59c-.13-134.19-55.3-243-123.46-243a64.46,64.46,0,0,0-13.8,1.5C436.35,572.51,484.24,675.48,484.35,800.49Z"/></g><g id="palma-3"><path class="cls-25" d="M564.41,651.58h-2.29V799.29h2.29Z"/><path class="cls-26" d="M579.91,642.23c-4.9,0-9.46,3.54-12.65,6.73,2.16-3.08,5.13-6.84,7.41-7.53a16.59,16.59,0,0,1,7.18-.68s-3.65-5.14-9.12-2.74c-2.4,1-4.45,4.45-5.93,7.76.8-3.08,1.48-6.73.91-10-1.37-8.44-10.71-9.13-10.71-9.13s5.24,7.3,6.15,15.86c.12,1.14.23,2.28.34,3.31-.79-4.91-2.73-10.84-7.52-14-11.86-7.87-19.27,5.93-19.27,5.93s6.73-4.22,15.62.23c7.07,3.53,10,11.06,10.95,14.14-1.14-2.28-6-10.95-13.8-12.21-11.74-1.93-14.71,12.89-14.71,12.89s6.73-5.36,15-5a21.93,21.93,0,0,1,13.34,5,32.38,32.38,0,0,0-7.07-1c-10.37-.12-12.54,13.8-12.54,13.8l19.73-12.09a70.59,70.59,0,0,0-3.54,7.3c-1.37,3.19-.45,10.38-.45,10.38s3.19-5.48,4.1-9a27.33,27.33,0,0,0,.57-8.67l13.34,14.48s3.3-8.78-6.84-13c-1.37-.57-2.51-1-3.42-1.37a22,22,0,0,1,8.43,3.31,39.52,39.52,0,0,1,9.58,9s3.65-10.61-5.24-14.94a14,14,0,0,0-9.12-.57,12.85,12.85,0,0,1,8.32-1.71c8.09,1,10.37,6.73,10.37,6.73S591.65,642.23,579.91,642.23Z"/></g><g id="palma-2"><path class="cls-25" d="M477.42,560.8h-3.65V802h3.65Z"/><path class="cls-27" d="M501,540c-8.9,0-17.3,6.38-23.15,12.25,3.94-5.62,9.42-12.38,13.61-13.78a29.05,29.05,0,0,1,13.11-1.15s-6.75-9.45-16.67-5c-4.45,1.91-8.14,8.17-10.81,14.17,1.52-5.62,2.54-12.26,1.65-18.38-2.42-15.32-19.59-16.59-19.59-16.59s9.54,13.27,11.32,29c.25,2,.38,4.08.51,6-1.53-9.07-5.09-19.91-13.74-25.66-21.5-14.29-35,11-35,11s12.34-7.66,28.49.51c12.72,6.38,18.19,20.29,20,25.78-2.16-4.21-10.94-19.91-25.18-22.33-21.38-3.58-26.85,23.61-26.85,23.61s12.22-9.83,27.35-9.19c11.71.51,20.23,5.36,24.43,9.19a48.06,48.06,0,0,0-12.85-1.79c-18.95-.25-22.9,25.14-22.9,25.14l36-22.08c-1.52,2.94-4.7,9.07-6.48,13.41-2.42,5.87-.89,18.88-.89,18.88s5.85-10,7.5-16.46a48.43,48.43,0,0,0,1-15.83l24.43,26.42s6-16.08-12.34-23.86c-2.42-1-4.58-1.92-6.24-2.56a38.18,38.18,0,0,1,15.27,6A71,71,0,0,1,510.41,583s6.61-19.53-9.67-27.19c-5.34-2.55-11.45-2.17-16.67-1a24,24,0,0,1,15.27-3.19C514.1,553.41,518.17,564,518.17,564S522.37,539.88,501,540Z"/></g><path id="small-bush" class="cls-28" d="M717.66,779.25v.12a134.79,134.79,0,0,1,6.37-13.9A177.41,177.41,0,0,1,738.18,743a149.09,149.09,0,0,1-9.95,23.58c-5.91,11.38-9.15,16-10.57,16.67v.65c1.71-2.26,5.48-6.14,12.12-12.2a204.43,204.43,0,0,1,21.93-17.06,164.88,164.88,0,0,1-18,19.23A140.11,140.11,0,0,1,720.24,785c2.72-1.69,7-4,13.12-7.08a231.16,231.16,0,0,1,26.12-11,183.58,183.58,0,0,1-23.32,13.8c-10.42,5.32-16.06,7.58-18.5,8v.46c2.19-1.22,7.8-3.17,18.5-6.14a247.37,247.37,0,0,1,28.29-6,212.44,212.44,0,0,1-26.58,9.31c-4.92,1.36-8.84,2.36-11.92,3.06,3.12-.52,7.14-1.08,12.23-1.67a241.85,241.85,0,0,1,29.38-1.86,218,218,0,0,1-28.6,5.27c-12.9,1.63-19.24,1.84-21.3,1.38v.33H716.1v-.22a8.77,8.77,0,0,1-1.24.22h-4.51c-3.42-.15-8.55-.46-15.7-1.4A252.46,252.46,0,0,1,666,786.1,242.06,242.06,0,0,1,695.43,788c4.81.56,8.66,1.08,11.7,1.55-3-.69-6.75-1.65-11.39-2.94a201.79,201.79,0,0,1-26.59-9.31,247.28,247.28,0,0,1,28.3,6c10.95,3,16.58,5,18.65,6.23V789c-2.35-.39-8-2.7-18.65-8a183.58,183.58,0,0,1-23.32-13.8,232,232,0,0,1,26.12,11c5.78,2.88,9.86,5.1,12.6,6.76a133.08,133.08,0,0,1-12.92-10.79,165.27,165.27,0,0,1-18-19.23A183.88,183.88,0,0,1,703.82,772c4.75,4.33,8,7.55,10.14,9.86-1.81-2.35-4.63-7-8.74-14.83a148.79,148.79,0,0,1-10-23.57,158.57,158.57,0,0,1,14.15,22.49c3.76,7.33,5.82,12,6.68,14.76v-1.45c-.83-1.93-1.4-7.49-1.4-18.59a156.79,156.79,0,0,1,2.18-25.9,156.79,156.79,0,0,1,2.18,25.9C719.06,771.76,718.49,777.32,717.66,779.25Zm-1.56,4.54a1.8,1.8,0,0,1-.91-.55c.36.43.66.81.91,1.16Zm0,2.94a6.39,6.39,0,0,1-1.48-.66c.59.4,1.08.75,1.48,1.06Zm1.56,0c.42-.32,1-.69,1.58-1.1a8.47,8.47,0,0,1-1.58.77Zm-1.56,4.24a12,12,0,0,1-2.14-.12,13.42,13.42,0,0,1,2.14.71Zm1.56.35a16.19,16.19,0,0,1,2.84-.89,16.87,16.87,0,0,1-2.84.24Zm-9.18,1.48H679.41c4.51-.31,10-.46,15.7-.46S705.22,792.46,708.48,792.77Zm16.64,0h29.07c-4.51-.31-10-.62-15.7-.46S728.38,792.62,725.12,792.77Z"/><g id="bush-3"><path class="cls-29" d="M399.06,773.65A109.55,109.55,0,0,0,388,744.11c-.69-1.25-1.48-2.62-2.28-3.88a114.14,114.14,0,0,0-21.32-25.89,41,41,0,0,0-3.31-2.85,110.33,110.33,0,0,0-30-17.79c-1.37-.57-2.74-1-4.11-1.49a111.45,111.45,0,0,0-35-6.27h-4.33a110.94,110.94,0,0,0-35,6.27c-1.37.46-2.73,1-4.1,1.49a110.38,110.38,0,0,0-30,17.79c-1.14.91-2.28,1.94-3.3,2.85A111.06,111.06,0,0,0,194,740.23c-.8,1.26-1.48,2.63-2.28,3.88a109.55,109.55,0,0,0-11.06,29.54c-.34,1.48-.57,3-.91,4.45A110.81,110.81,0,0,0,178,797.6H401.57a109.81,109.81,0,0,0-1.71-19.5C399.63,776.62,399.4,775.13,399.06,773.65Z"/><path class="cls-30" d="M287.67,685.83V797.6H292V685.83h-4.34Z"/><path class="cls-31" d="M248.57,693.7l27.82,104h4.44L252.56,692.21C251.3,692.67,249.94,693.13,248.57,693.7Z"/><path class="cls-32" d="M215.28,714.34l48.11,83.26h4.9l-49.71-86.11C217.44,712.4,216.3,713.43,215.28,714.34Z"/><path class="cls-33" d="M191.68,744.11l53.58,53.61h6l-57.46-57.49C193.16,741.49,192.36,742.86,191.68,744.11Z"/><path class="cls-34" d="M179.71,778.1l33.86,19.5h8.66l-41.61-24.06C180.28,775.13,180.05,776.62,179.71,778.1Z"/><path class="cls-35" d="M298.73,797.72h4.45L331,693.7c-1.37-.57-2.74-1-4.11-1.49Z"/><path class="cls-36" d="M311.27,797.72h5l48.11-83.26a41.14,41.14,0,0,0-3.31-2.86Z"/><g class="cls-37"><path class="cls-38" d="M328.26,797.72h6l53.59-53.61c-.69-1.25-1.49-2.62-2.29-3.88Z"/></g><path class="cls-39" d="M357.44,797.72h8.67L400,778.21c-.23-1.48-.57-3-.91-4.44Z"/></g><g id="bush-2"><path class="cls-40" d="M482.74,782.43a71.71,71.71,0,0,0-7.07-18.82c-.46-.79-.91-1.59-1.37-2.5a69.7,69.7,0,0,0-13.56-16.43c-.69-.57-1.37-1.25-2.17-1.82a71.13,71.13,0,0,0-19-11.3,18.34,18.34,0,0,0-2.62-.91,68.42,68.42,0,0,0-22.23-4h-2.74a71.71,71.71,0,0,0-22.23,4c-.91.34-1.71.57-2.62.91a71.13,71.13,0,0,0-19,11.3c-.69.57-1.37,1.25-2.17,1.82a69.22,69.22,0,0,0-13.56,16.43c-.46.79-.92,1.59-1.37,2.5a70.16,70.16,0,0,0-7.07,18.82c-.23.92-.34,1.94-.57,2.86a73.47,73.47,0,0,0-1.14,12.43H484.22a63.66,63.66,0,0,0-1.14-12.43A7.73,7.73,0,0,0,482.74,782.43Z"/><path class="cls-41" d="M411.94,726.66v71.06h2.74V726.66h-2.74Z"/><path class="cls-42" d="M387.2,731.56l17.67,66h2.85l-17.9-67.06C388.91,731,388,731.22,387.2,731.56Z"/><path class="cls-43" d="M366,744.8l30.55,52.92h3.19L368.16,743A15.83,15.83,0,0,0,366,744.8Z"/><path class="cls-44" d="M351,763.61l34.08,34h3.88l-36.48-36.49C352,762,351.4,762.82,351,763.61Z"/><path class="cls-45" d="M343.42,785.29,365,797.72h5.47L344,782.43A21.92,21.92,0,0,0,343.42,785.29Z"/><path class="cls-46" d="M419,797.72h2.85l17.67-66a17.18,17.18,0,0,0-2.62-.91Z"/><path class="cls-47" d="M427,797.72h3.19l30.56-52.92c-.69-.58-1.37-1.26-2.17-1.83Z"/><path class="cls-48" d="M437.82,797.72h3.88l34.08-34c-.45-.8-.91-1.6-1.36-2.51Z"/><path class="cls-49" d="M456.29,797.72h5.47l21.55-12.43a24.11,24.11,0,0,0-.57-2.86Z"/></g><g id="palma-1"><path class="cls-25" d="M11.44,494.8H17V861.4H11.44Z"/><path class="cls-50" d="M-24.39,463.2c13.53,0,26.29,9.7,35.18,18.62-6-8.54-14.3-18.82-20.68-20.95a44.25,44.25,0,0,0-19.92-1.75s10.25-14.35,25.33-7.56C2.29,454.47,7.89,464,12,473.09c-2.32-8.53-3.86-18.62-2.51-27.93,3.67-23.28,29.77-25.22,29.77-25.22S24.71,440.12,22,464c-.39,3.11-.58,6.21-.78,9.12,2.32-13.77,7.74-30.26,20.88-39,32.68-21.72,53.17,16.68,53.17,16.68s-18.75-11.63-43.31.78c-19.33,9.7-27.64,30.84-30.35,39.18,3.29-6.4,16.63-30.26,38.28-33.94,32.48-5.43,40.79,35.88,40.79,35.88s-18.56-14.93-41.56-14c-17.79.77-30.74,8.14-37.12,14A73.21,73.21,0,0,1,41.53,490c28.81-.39,34.8,38.21,34.8,38.21L21.62,494.62c2.32,4.46,7.15,13.77,9.86,20.37,3.67,8.92,1.35,28.7,1.35,28.7s-8.89-15.13-11.4-25c-2.52-9.5-1.94-19.39-1.55-24l-37.12,40.15s-9.09-24.44,18.75-36.27c3.68-1.55,7-2.91,9.48-3.88a57.93,57.93,0,0,0-23.2,9.12A107.92,107.92,0,0,0-38.7,528.56S-48.76,498.89-24,487.25c8.12-3.88,17.4-3.3,25.33-1.55a36.36,36.36,0,0,0-23.2-4.85c-22.43,2.71-28.62,18.81-28.62,18.81S-56.88,463-24.39,463.2Z"/></g><g id="bush-1"><path class="cls-51" d="M139.81,791.85a95.42,95.42,0,0,0-9.65-25.77c-.59-1.09-1.29-2.29-2-3.38a99,99,0,0,0-18.6-22.58,34.28,34.28,0,0,0-2.88-2.49,96.53,96.53,0,0,0-26.15-15.52c-1.19-.49-2.39-.89-3.58-1.29a97.13,97.13,0,0,0-30.53-5.47H42.66a96.55,96.55,0,0,0-30.52,5.47c-1.19.4-2.39.9-3.58,1.29a96.23,96.23,0,0,0-26.15,15.52c-1,.8-2,1.69-2.88,2.49a96.43,96.43,0,0,0-18.6,22.58c-.69,1.09-1.29,2.29-2,3.38a95.73,95.73,0,0,0-9.64,25.77c-.3,1.29-.5,2.58-.8,3.88a97,97,0,0,0-1.49,17H142a96.18,96.18,0,0,0-1.49-17C140.31,794.43,140.11,793.14,139.81,791.85Z"/><path class="cls-52" d="M42.67,715.25v97.49h3.77V715.25H42.67ZM8.56,722.11l24.26,90.73H36.7L12,720.82l-.88.32h0C10.32,721.43,9.44,721.75,8.56,722.11Zm12.93,90.63-42-72.62.26-.24h0c.83-.73,1.72-1.53,2.62-2.25l43.35,75.11Zm-62.55-46.66L5.68,812.84H11L-39.17,762.7c-.3.55-.62,1.12-.94,1.69S-40.76,765.53-41.06,766.08ZM-22,812.74l-29.53-17c.17-.72.3-1.43.44-2.16h0c.11-.6.22-1.2.36-1.82l36.29,21Zm74.28.1h3.88l24.26-90.73c-1.19-.49-2.39-.89-3.58-1.29Zm15.31,0H63.25l43.45-75.11a34.28,34.28,0,0,1,2.88,2.49Zm10.44,0h5.27l46.74-46.76c-.6-1.09-1.3-2.29-2-3.38Zm33,0h-7.55L139.81,792c.3,1.29.6,2.58.8,3.88Z"/></g><path class="cls-53" d="M53.37,728c-11,0-15.08-9.6-15.08-23s-3.77-24.35-18.51-25C.58,679.3,2.3,697.82,2.3,720.45c0,28.81-10.29,10.29-24.69,26.41-12.34,13.72,3.43,38.07,8.23,45.27H47.89c2-3.78,7.19-13,13-24.35C73.94,743.77,64.34,728,53.37,728Z"/><path class="cls-54" d="M23.89,732.46H20.81v43l-13-17.28L5.38,760l15.43,20.58v11.52h3.08v-32.5L37,743.41l-2.4-1.94L23.89,754.72Z"/><g id="ground"><path class="cls-55" d="M768,790.06v13.49c-1.87,22.53-12.82,56-45.26,72.31-.62.31-1.25.62-1.89.92a81.89,81.89,0,0,1-8.64,3.47c-.88.3-1.77.59-2.67.86a107.73,107.73,0,0,1-31.47,4.35,22.41,22.41,0,0,0-2.86.18H-528V790.06Z"/><g class="cls-56"><path class="cls-57" d="M-29.49,790.06c-1.94,1.83-3.89,3.73-5.87,5.67-6.16,6.07-12.5,12.67-18.94,19.54q-5.54,5.91-11.16,12c-2.8,3-5.62,6.12-8.44,9.2-5.52,6-11.07,12.11-16.62,18.07-10.21,11-20.39,21.6-30.35,31.06H-118c9.53-9.14,19.23-19.28,28.92-29.69,5.58-6,11.15-12.09,16.68-18.13,3.15-3.44,6.29-6.88,9.42-10.27,9.92-10.79,19.66-21.19,29-30.4q3.75-3.69,7.39-7.09Zm-86.57,22.23a9,9,0,0,0-4.65-4.53,30.23,30.23,0,0,0-9.45-2.49c-12.9-1.66-29.17,2.24-46.94,9.53a286.84,286.84,0,0,0-26.28,12.55h0c-10,5.31-20.11,11.33-30.22,17.75C-253.55,857.76-273.34,872-291,885.64h3.27c17.12-13.12,36.1-26.72,55.21-38.85,11.66-7.4,23.35-14.25,34.69-20.1h0c7.35-3.8,14.56-7.18,21.5-10,17.68-7.25,33.55-11,45.92-9.4a28.49,28.49,0,0,1,8.82,2.3,7,7,0,0,1,3.68,3.49,6.7,6.7,0,0,1-.12,4.72,23,23,0,0,1-3.29,6,3.9,3.9,0,0,1-.25.36c-3.43,4.67-8.78,10-15.19,15.82-5.91,5.34-12.68,11-19.59,16.8l0,0-.69.58-1,.82c-11,9.19-22.18,18.66-30.64,27.5h2.79c8.17-8.31,18.69-17.21,29.14-26l1.68-1.42,0,0c6.9-5.78,13.7-11.47,19.64-16.84,6.43-5.8,11.91-11.28,15.46-16.12.37-.5.71-1,1-1.47a23.15,23.15,0,0,0,2.79-5.42A8.73,8.73,0,0,0-116.06,812.29ZM50.17,790.06l-2.45,3.25c-1.71,2.27-3.4,4.54-5.07,6.79l0,0C35.28,810,28.28,819.4,21.34,826.71a66.77,66.77,0,0,1-10.82,9.46c-4.8,3.22-9.57,5-14.41,4.73a9.5,9.5,0,0,1-4.61-1.16,4,4,0,0,1-1.8-2.55,8.68,8.68,0,0,1,0-3.55q.06-.33.15-.69A30.07,30.07,0,0,1-8,827.18c3.67-7.88,10.81-18,17.88-27.93l0,0,.1-.14,1.68-2.37c1.59-2.24,3.16-4.47,4.66-6.65H13.89c-1.25,1.8-2.54,3.64-3.85,5.5L8.2,798.14c-7,9.91-14.28,20.14-18,28.2a31.91,31.91,0,0,0-2.24,6.16c-.07.31-.14.61-.18.91a10.48,10.48,0,0,0,0,4.25,6,6,0,0,0,2.68,3.77A11.48,11.48,0,0,0-4,842.9c6,.28,11.81-2.18,17.46-6.38a73,73,0,0,0,9.3-8.44c3.52-3.7,7.05-7.93,10.62-12.47s7.17-9.39,10.85-14.33q2.51-3.37,5.06-6.77c1.11-1.49,2.24-3,3.37-4.45Zm312,0c-1.19,1.44-2.38,2.94-3.55,4.48-11.63,15.26-22.77,35.33-33.71,55.09l-.27.49-.09.17c-6.82,12.32-13.55,24.49-20.3,35.35h2.36q1.61-2.61,3.21-5.3c5.47-9.18,10.94-19.06,16.42-29l.15-.28c.29-.52.58-1,.86-1.56,10.77-19.45,21.64-38.93,33-53.78,1.52-2,3-3.89,4.56-5.69Zm47.74,0a142.82,142.82,0,0,1-4.38,20c-1.07,3.89-2.25,7.92-3.46,12l-.06.2c-1.19,4-2.4,8.15-3.54,12.26-.85,3.05-1.67,6.11-2.41,9.14-1.32,5.3-2.43,10.53-3.17,15.56-1.15,7.9-1.38,15.37,0,21.83a30.63,30.63,0,0,0,1.37,4.57h2.15a28.31,28.31,0,0,1-1.57-5c-1.36-6.12-1.16-13.32,0-21.11a163.64,163.64,0,0,1,3.32-16.13c.68-2.76,1.43-5.54,2.2-8.32,1.15-4.1,2.35-8.2,3.54-12.24h0l.06-.19c1.2-4.1,2.39-8.15,3.47-12a142.49,142.49,0,0,0,4.46-20.53Zm-140.38,23.7c-1.92-3.44-5.55-5.26-11-5.26s-10.83,2.47-15.84,6.64-9.82,10.07-14.55,17.09c-3.62,5.36-7.21,11.42-10.8,17.89-4.28,7.69-8.57,16-12.92,24.4l-4.69,9-1.09,2.08h2.25l.61-1.16q2.37-4.54,4.71-9.07c4.54-8.77,9-17.35,13.39-25.25,3.4-6.07,6.78-11.75,10.19-16.81,4.69-7,9.39-12.69,14.18-16.68s9.61-6.17,14.56-6.17,7.84,1.63,9.29,4.23,1.73,6.76.89,11.92c-1.1,6.76-3.92,15-7.31,24-1.36,3.58-2.81,7.27-4.28,11-.45,1.13-.9,2.27-1.34,3.4-2.72,6.92-5.42,13.93-7.59,20.62h2.1c2.11-6.41,4.7-13.15,7.35-19.88.45-1.16.91-2.32,1.36-3.47,1.55-3.94,3.1-7.86,4.54-11.67,3.29-8.72,6-16.9,7.14-23.65C271.52,821.71,271.41,817.09,269.55,813.76ZM150.92,848a18.47,18.47,0,0,0-3.38-10.65c-3.18-4.25-8.65-6.93-16.91-7.75-19.46-2-39,3.86-56.92,13.22h0a178.83,178.83,0,0,0-18.05,10.92,238.38,238.38,0,0,0-37.18,31.93h2.77a235.4,235.4,0,0,1,35.54-30.28,171.43,171.43,0,0,1,20.69-12.24h0c16.86-8.38,35-13.36,53-11.57,7.94.8,12.79,3.33,15.51,7a16.44,16.44,0,0,1,3,9.35h0a32.29,32.29,0,0,1-.25,5.29c-1.14,9.28-5.76,20.63-11.33,32.47h2.22c5.41-11.6,9.94-22.88,11.1-32.23A33.79,33.79,0,0,0,150.92,848Zm392.54,13c-22.07-8.44-43.77-14.77-61.37-15.18-7-.16-12.27.53-16,2s-5.94,3.79-6.66,6.83.09,6.39,1.83,10a59.59,59.59,0,0,0,8,11.86c2.47,3,5.31,6,8.42,9.16h2.84c-3.63-3.56-6.92-7.08-9.72-10.44a57.62,57.62,0,0,1-7.75-11.44c-1.67-3.48-2.24-6.4-1.69-8.71s2.16-4.12,5.45-5.43,8.28-2,15.19-1.86c17.23.4,38.66,6.62,60.69,15,17.93,6.85,36.17,15.13,52.78,22.83h4.74C582.64,877.44,562.86,868.36,543.46,860.94Zm177.71,8.21c-1.87-6.23-5.79-13-11-20.13a217.33,217.33,0,0,0-17.53-20.47l-1.42-1.47c-11.4-11.81-24.44-23.71-36.31-34.5L653.15,791l-1-.94h-3l2.65,2.42,0,0,.35.31c12.24,11.11,25.8,23.44,37.6,35.66.58.6,1.15,1.19,1.71,1.79a208.37,208.37,0,0,1,17.07,20c5.16,7,8.93,13.6,10.7,19.52a43.2,43.2,0,0,1,1.6,7c.64-.3,1.27-.61,1.89-.92A47.6,47.6,0,0,0,721.17,869.15ZM686,862.56l-2.43-1.79c-2.71-2-5.51-4-8.4-6.15-10.38-7.56-21.84-15.67-33.69-22.94-16.13-9.89-33.05-18.26-49-21.54-7.9-1.62-13.45-2.3-17-2.11a8.44,8.44,0,0,0-4.15,1.05,3,3,0,0,0-1.37,3,8.54,8.54,0,0,0,1.64,3.6A35.54,35.54,0,0,0,575.2,820c3,3.11,7.22,6.81,12.13,11,2.91,2.46,6.08,5.08,9.41,7.85,8,6.59,16.86,14,25.57,21.84a251,251,0,0,1,24.55,25h2.59a245,245,0,0,0-25.79-26.51c-8.75-7.9-17.71-15.34-25.68-21.93h0c-3.32-2.75-6.47-5.36-9.36-7.8-4.91-4.15-9-7.79-12-10.82a33.85,33.85,0,0,1-3.45-4,6.68,6.68,0,0,1-1.3-2.69,1.35,1.35,0,0,1,.07-.65,1.19,1.19,0,0,1,.43-.46,6.56,6.56,0,0,1,3.15-.73c3.28-.17,8.61.46,16.5,2.08,15.62,3.2,32.31,11.44,48.38,21.29,11.81,7.24,23.24,15.33,33.61,22.89q4.31,3.13,8.34,6.11h0l2.42,1.78c6.48,4.76,12.37,9.05,17.44,12.42,2.65,1.77,5.1,3.3,7.31,4.52.9-.27,1.79-.56,2.67-.86a88.15,88.15,0,0,1-8.87-5.32C698.31,871.58,692.46,867.32,686,862.56Z"/><path class="cls-58" d="M768,788.44v15.11c-1.87,22.53-12.82,56-45.26,72.31-.62.31-1.25.62-1.89.92a81.89,81.89,0,0,1-8.64,3.47c-.88.3-1.77.59-2.67.86a107.73,107.73,0,0,1-31.47,4.35,22.41,22.41,0,0,0-2.86.18H-528V867.76c190.31-.25,240.15-29.68,324.61-40.4h0c1.82-.23,3.67-.45,5.53-.66h0a504.29,504.29,0,0,1,58-3.17c6.35,0,12.5.08,18.51.23l2.4.07c18.78.55,36.16,1.81,53.47,3.5l2.5.24c16.53,1.66,33.06,3.69,50.72,5.86l2,.23c6.74.83,13.64,1.68,20.78,2.53l3,.35c18.19,2.14,37.93,4.3,60.21,6.27h0l3.76.33h0c21.22,1.83,44.76,3.47,71.44,4.75h0l2,.09c20.22.95,42.23,1.69,66.4,2.15l2.26,0q19.9.36,41.8.46h2.14l10.51,0c18.48,0,35.36-.35,50.9-1l2.34-.1c26.41-1.16,48.91-3.2,68.81-5.85l2.13-.28c95.57-13,131-40,254-50.59l2.73-.23c12.14-1,25.14-1.86,39.12-2.52q12-.57,25.08-.95C734.28,788.67,750.54,788.44,768,788.44Z"/></g></g><g id="stones"><path class="cls-59" d="M372,891.61a49.07,49.07,0,0,0-4.94-13.2c-.31-.56-.66-1.17-1-1.73a50.54,50.54,0,0,0-9.52-11.57,16.44,16.44,0,0,0-1.47-1.28,49.37,49.37,0,0,0-13.39-8c-.61-.25-1.22-.46-1.83-.66a50,50,0,0,0-15.63-2.81h-1.93a49.58,49.58,0,0,0-15.62,2.81c-.61.2-1.23.46-1.84.66a49.46,49.46,0,0,0-13.38,8c-.51.41-1,.87-1.48,1.28a49.77,49.77,0,0,0-9.52,11.57c-.35.56-.66,1.17-1,1.73a49.07,49.07,0,0,0-4.94,13.2c-.15.67-.25,1.33-.41,2a49.52,49.52,0,0,0-.76,8.72h99.81a49,49,0,0,0-.77-8.72C372.26,892.94,372.16,892.28,372,891.61Z"/><path class="cls-60" d="M471.83,906.37a76.28,76.28,0,0,0-7.69-20.57c-.47-.87-1-1.83-1.59-2.7a79.05,79.05,0,0,0-14.83-18,25.85,25.85,0,0,0-2.3-2,76.67,76.67,0,0,0-20.86-12.39c-.95-.4-1.9-.72-2.85-1a76.85,76.85,0,0,0-24.35-4.37h-3A76.35,76.35,0,0,0,370,849.66c-.95.31-1.9.71-2.86,1a77,77,0,0,0-20.86,12.39c-.79.64-1.58,1.35-2.3,2a77.27,77.27,0,0,0-14.83,18c-.55.87-1,1.83-1.58,2.7a76.64,76.64,0,0,0-7.7,20.57c-.24,1-.39,2.07-.63,3.1A76.65,76.65,0,0,0,318,923.06H473.58a76.93,76.93,0,0,0-1.19-13.59C472.23,908.44,472.07,907.41,471.83,906.37Z"/></g></g></svg>