<svg id="hero-small" xmlns="http://www.w3.org/2000/svg" xmlns:xlink="http://www.w3.org/1999/xlink" viewBox="0 0 750 1334">
  <defs>
    <linearGradient id="linear-gradient" x1="705.34" y1="443.96" x2="705.34" y2="152.49" gradientTransform="matrix(1, 0, 0, -1, 0, 1336)" gradientUnits="userSpaceOnUse">
      <stop offset="0.24" stop-color="#2ca77f"/>
      <stop offset="1" stop-color="#1b8877"/>
    </linearGradient>
    <linearGradient id="linear-gradient-2" x1="508.97" y1="413.86" x2="508.97" y2="109.26" gradientTransform="matrix(1, 0, 0, -1, 0, 1336)" gradientUnits="userSpaceOnUse">
      <stop offset="0.42" stop-color="#2ca77f"/>
      <stop offset="1" stop-color="#1b8877"/>
    </linearGradient>
    <linearGradient id="New_Gradient_Swatch_1" data-name="New Gradient Swatch 1" x1="-5.23" y1="41.13" x2="759.39" y2="1298.71" gradientUnits="userSpaceOnUse">
      <stop offset="0" stop-color="#f3806c" stop-opacity="0.89"/>
      <stop offset="1" stop-color="#ffecb9"/>
    </linearGradient>
    <linearGradient id="linear-gradient-3" x1="-30.51" y1="1203.32" x2="-28.84" y2="1203.32" gradientTransform="matrix(0, -689.59, -689.59, 0, 830173.5, -20261.17)" gradientUnits="userSpaceOnUse">
      <stop offset="0" stop-color="#ffedba" stop-opacity="0"/>
      <stop offset="0.1" stop-color="#fee0b0" stop-opacity="0.07"/>
      <stop offset="0.3" stop-color="#fabf96" stop-opacity="0.24"/>
      <stop offset="0.57" stop-color="#f5896d" stop-opacity="0.52"/>
      <stop offset="0.91" stop-color="#ed3f34" stop-opacity="0.89"/>
      <stop offset="1" stop-color="#eb2a24"/>
    </linearGradient>
    <linearGradient id="linear-gradient-4" x1="508.44" y1="404.29" x2="737.08" y2="800.31" gradientUnits="userSpaceOnUse">
      <stop offset="0" stop-color="#fff" stop-opacity="0.25"/>
      <stop offset="0.24" stop-color="#fff" stop-opacity="0.15"/>
      <stop offset="0.5" stop-color="#fff" stop-opacity="0.07"/>
      <stop offset="0.76" stop-color="#fff" stop-opacity="0.02"/>
      <stop offset="1" stop-color="#fff" stop-opacity="0"/>
    </linearGradient>
    <linearGradient id="linear-gradient-5" x1="-36.73" y1="1202.53" x2="-35.06" y2="1202.53" gradientTransform="matrix(0.1, 228.74, 228.74, -0.1, -274694.35, 9213.05)" gradientUnits="userSpaceOnUse">
      <stop offset="0" stop-color="#fff" stop-opacity="0.2"/>
      <stop offset="0.02" stop-color="#fff" stop-opacity="0.15"/>
      <stop offset="1" stop-color="#fff" stop-opacity="0"/>
    </linearGradient>
    <linearGradient id="linear-gradient-6" x1="-33.17" y1="1202.83" x2="-31.61" y2="1202.83" gradientTransform="matrix(0, 1100.16, 1100.16, 0, -1322928.87, 36338.62)" gradientUnits="userSpaceOnUse">
      <stop offset="0" stop-color="#f4a984"/>
      <stop offset="1" stop-color="#f4a984" stop-opacity="0"/>
    </linearGradient>
    <mask id="mask" x="575.02" y="934.14" width="274.11" height="249" maskUnits="userSpaceOnUse">
      <g id="mask0">
        <path d="M705.28,942C644,942,594.5,1047.11,594.5,1176.67H816.18C816.18,1047,766.51,942,705.28,942Z" fill="url(#linear-gradient)"/>
      </g>
    </mask>
    <linearGradient id="linear-gradient-9" x1="712.08" y1="432.28" x2="712.08" y2="167.58" gradientTransform="matrix(1, 0, 0, -1, 0, 1336)" gradientUnits="userSpaceOnUse">
      <stop offset="0" stop-color="#fff"/>
      <stop offset="1" stop-color="#fff" stop-opacity="0"/>
    </linearGradient>
    <mask id="mask-2" x="380.34" y="922.14" width="257.27" height="253.16" maskUnits="userSpaceOnUse">
      <g id="mask2">
        <path d="M509,922.14c-71,0-128.63,113.35-128.63,253.16H637.61C637.47,1035.49,580,922.14,509,922.14Z" fill="url(#linear-gradient-2)"/>
      </g>
    </mask>
    <linearGradient id="linear-gradient-11" x1="500.54" y1="352.94" x2="500.54" y2="136.95" xlink:href="#linear-gradient-9"/>
    <linearGradient id="linear-gradient-12" x1="-54.31" y1="1200.77" x2="-52.83" y2="1200.77" gradientTransform="matrix(0, 42.51, 42.51, 0, -50326.58, 3286.67)" gradientUnits="userSpaceOnUse">
      <stop offset="0" stop-color="#d3d86c"/>
      <stop offset="1" stop-color="#82a637"/>
    </linearGradient>
    <linearGradient id="linear-gradient-13" x1="-44.75" y1="1201.34" x2="-43.27" y2="1201.34" gradientTransform="matrix(0, 77.82, 77.82, 0, -92869.67, 4324.47)" xlink:href="#linear-gradient-12"/>
    <linearGradient id="linear-gradient-14" x1="-40.76" y1="1201.22" x2="-39.27" y2="1201.22" gradientTransform="matrix(0, 106.71, 106.71, 0, -127753.52, 5367.54)" xlink:href="#linear-gradient-12"/>
    <linearGradient id="linear-gradient-15" x1="-43.45" y1="1200.64" x2="-41.97" y2="1200.64" gradientTransform="matrix(0, 80.51, 80.51, 0, -96234.56, 4555.27)" gradientUnits="userSpaceOnUse">
      <stop offset="0" stop-color="#084f15" stop-opacity="0"/>
      <stop offset="1" stop-color="#084f15" stop-opacity="0.3"/>
    </linearGradient>
    <linearGradient id="linear-gradient-16" x1="-44.11" y1="1200.41" x2="-42.63" y2="1200.41" gradientTransform="matrix(0, 75.99, 75.99, 0, -90816.96, 4415.68)" xlink:href="#linear-gradient-15"/>
    <linearGradient id="linear-gradient-17" x1="-46.73" y1="1199.77" x2="-45.25" y2="1199.77" gradientTransform="matrix(0, 62.02, 62.02, 0, -74032.39, 3983.72)" xlink:href="#linear-gradient-15"/>
    <linearGradient id="linear-gradient-18" x1="-53.84" y1="1198" x2="-52.35" y2="1198" gradientTransform="matrix(0, 41.4, 41.4, 0, -49241.29, 3344.62)" xlink:href="#linear-gradient-15"/>
    <linearGradient id="linear-gradient-19" x1="-83.48" y1="1190.71" x2="-82" y2="1190.71" gradientTransform="matrix(0, 17.33, 17.33, 0, -20300.77, 2598.59)" xlink:href="#linear-gradient-15"/>
    <linearGradient id="linear-gradient-20" x1="-44.11" y1="1200.63" x2="-42.63" y2="1200.63" gradientTransform="matrix(0, 75.99, 75.99, 0, -90780.83, 4415.68)" xlink:href="#linear-gradient-15"/>
    <linearGradient id="linear-gradient-21" x1="-46.73" y1="1200.3" x2="-45.25" y2="1200.3" gradientTransform="matrix(0, 62.02, 62.02, 0, -73963.21, 3983.81)" xlink:href="#linear-gradient-15"/>
    <linearGradient id="linear-gradient-22" x1="-53.84" y1="1199.13" x2="-52.35" y2="1199.13" gradientTransform="matrix(0, 41.4, 41.4, 0, -49142.92, 3344.62)" gradientUnits="userSpaceOnUse">
      <stop offset="0" stop-color="#084f15" stop-opacity="0"/>
      <stop offset="1" stop-color="#084f15"/>
    </linearGradient>
    <linearGradient id="linear-gradient-23" x1="-45.5" y1="1200.94" x2="-44.02" y2="1200.94" gradientTransform="matrix(0, 67.9, 67.9, 0, -80984.11, 4166.46)" xlink:href="#linear-gradient-12"/>
    <linearGradient id="linear-gradient-24" x1="-49.74" y1="1200.15" x2="-48.26" y2="1200.15" gradientTransform="matrix(0, 51.18, 51.18, 0, -60864.02, 3646.71)" xlink:href="#linear-gradient-15"/>
    <linearGradient id="linear-gradient-25" x1="-50.78" y1="1199.98" x2="-49.29" y2="1199.98" gradientTransform="matrix(0, 48.3, 48.3, 0, -57416.03, 3558.63)" xlink:href="#linear-gradient-15"/>
    <linearGradient id="linear-gradient-26" x1="-54.9" y1="1199.12" x2="-53.42" y2="1199.12" gradientTransform="matrix(0, 39.43, 39.43, 0, -46753.85, 3283.23)" xlink:href="#linear-gradient-15"/>
    <linearGradient id="linear-gradient-27" x1="-66.1" y1="1196.86" x2="-64.61" y2="1196.86" gradientTransform="matrix(0, 26.29, 26.29, 0, -30951.63, 2874.79)" xlink:href="#linear-gradient-15"/>
    <linearGradient id="linear-gradient-28" x1="-112.72" y1="1187.93" x2="-111.24" y2="1187.93" gradientTransform="matrix(0, 11.01, 11.01, 0, -12579.15, 2401.2)" xlink:href="#linear-gradient-15"/>
    <linearGradient id="linear-gradient-29" x1="-50.81" y1="1200.16" x2="-49.33" y2="1200.16" gradientTransform="matrix(0, 48.22, 48.22, 0, -57294.72, 3555.7)" xlink:href="#linear-gradient-15"/>
    <linearGradient id="linear-gradient-30" x1="-54.9" y1="1199.65" x2="-53.42" y2="1199.65" gradientTransform="matrix(0, 39.43, 39.43, 0, -46709.92, 3283.23)" xlink:href="#linear-gradient-15"/>
    <linearGradient id="linear-gradient-31" x1="-66.1" y1="1197.99" x2="-64.61" y2="1197.99" gradientTransform="matrix(0, 26.29, 26.29, 0, -30889.06, 2874.88)" xlink:href="#linear-gradient-15"/>
    <linearGradient id="linear-gradient-32" x1="-112.72" y1="1191.44" x2="-111.24" y2="1191.44" gradientTransform="matrix(0, 11.01, 11.01, 0, -12497.86, 2401.2)" xlink:href="#linear-gradient-15"/>
    <linearGradient id="linear-gradient-33" x1="-2196.18" y1="392" x2="1462.88" y2="392" gradientTransform="translate(0 862)" gradientUnits="userSpaceOnUse">
      <stop offset="0" stop-color="#eeef99"/>
      <stop offset="0.28" stop-color="#eeef99"/>
      <stop offset="0.77" stop-color="#b9d079"/>
      <stop offset="1" stop-color="#b9d079"/>
    </linearGradient>
    <linearGradient id="linear-gradient-34" x1="-36.03" y1="1202.94" x2="-35.28" y2="1202.94" gradientTransform="matrix(0, 211.58, 211.58, 0, -254110.9, 8834.01)" gradientUnits="userSpaceOnUse">
      <stop offset="0" stop-color="#fff" stop-opacity="0.7"/>
      <stop offset="1" stop-color="#fff" stop-opacity="0"/>
    </linearGradient>
    <linearGradient id="linear-gradient-35" x1="-281.81" y1="398.04" x2="776.2" y2="398.04" gradientTransform="translate(0 862)" gradientUnits="userSpaceOnUse">
      <stop offset="0" stop-color="#82a637" stop-opacity="0.1"/>
      <stop offset="0.16" stop-color="#82a637" stop-opacity="0.1"/>
      <stop offset="0.89" stop-color="#1b8877" stop-opacity="0.1"/>
      <stop offset="1" stop-color="#1b8877" stop-opacity="0.1"/>
    </linearGradient>
    <linearGradient id="linear-gradient-36" x1="-47.81" y1="1198.12" x2="-45.15" y2="1198.12" gradientTransform="matrix(0, 67.63, 67.63, 0, -80930.69, 4029.29)" xlink:href="#linear-gradient-12"/>
    <linearGradient id="linear-gradient-37" x1="-79.69" y1="1271.92" x2="251.29" y2="1271.92" gradientTransform="matrix(1, 0, 0, 1, 0, 0)" xlink:href="#linear-gradient-12"/>
    <linearGradient id="linear-gradient-38" x1="-39.22" y1="1199.92" x2="-36.68" y2="1199.92" gradientTransform="matrix(0, 111.82, 111.82, 0, -134045.64, 5595.37)" xlink:href="#linear-gradient-22"/>
    <linearGradient id="linear-gradient-39" x1="-47.49" y1="1196.61" x2="-44.84" y2="1196.61" gradientTransform="matrix(0, 55.58, 55.58, 0, -66455.43, 3797.48)" gradientUnits="userSpaceOnUse">
      <stop offset="0" stop-color="#2ca77f"/>
      <stop offset="0.42" stop-color="#2ca77f"/>
      <stop offset="1" stop-color="#1b8877"/>
    </linearGradient>
  </defs>
  <title>hero-small-bg</title>
  <g id="background">
    <g id="gradients">
      <rect id="gradient" width="750" height="1333" fill="url(#New_Gradient_Swatch_1)"/>
      <path id="overlay-gradient" d="M750,0H0V1333H750Z" fill="url(#linear-gradient-3)"/>
    </g>
    <g id="circles">
      <path id="bg_circle_bigger" data-name="bg circle bigger" d="M750,227.9v850.28A427.94,427.94,0,0,1,500.76,956.12C333,788.78,333.14,517.29,500.76,350A427.68,427.68,0,0,1,750,227.9Z" fill="url(#linear-gradient-4)"/>
      <path id="bg_circle_small" data-name="bg circle small" d="M591.09,1241.1c122.62-122.45,122.62-320.87,0-443.32s-321.52-122.45-444.13,0-122.61,320.87,0,443.32S468.38,1363.45,591.09,1241.1Z" fill="url(#linear-gradient-5)"/>
    </g>
    <path id="skyscrapers" d="M744.9,570.38a5.13,5.13,0,0,1-5.1-5.13v-45a8.74,8.74,0,0,0-8.7-8.75A8.67,8.67,0,0,1,725,509a8.78,8.78,0,0,1-2.55-6.19V459.26a5.86,5.86,0,0,0-5.8-5.93h-.1a5.87,5.87,0,0,1-5.9-5.84v-35.8A16.6,16.6,0,0,0,694.1,395H651.7a16.67,16.67,0,0,0-16.6,16.69v35.7a5.87,5.87,0,0,1-5.8,5.94h-.1a5.86,5.86,0,0,0-5.9,5.83V502.9a8.74,8.74,0,0,1-8.7,8.75,8.68,8.68,0,0,0-6.15,2.57,8.77,8.77,0,0,0-2.55,6.18v45.26a4.25,4.25,0,0,1-4.2,4.22,4.18,4.18,0,0,0-3,1.25,4.24,4.24,0,0,0-1.24,3v350a9.88,9.88,0,0,1-9.88,9.86,9.87,9.87,0,0,0-9.8,9.89v139.32a12.12,12.12,0,0,1-12.06,12.17h-11a1.11,1.11,0,0,1-1.1-1.1,1.11,1.11,0,0,0-1.1-1.11h-3.7a2,2,0,0,1-1.6-2.31,1.91,1.91,0,0,1,1.6-1.61h2a2.82,2.82,0,0,0,0-5.63h-1.8a2.35,2.35,0,0,1-2.3-2.32,2.27,2.27,0,0,1,2.22-2.31h1.78a2.82,2.82,0,0,0,.81-5.59l-.16,0h-2.55a2,2,0,0,1-1.6-2.31,1.91,1.91,0,0,1,1.6-1.61h2a2.82,2.82,0,0,0,0-5.63h-2a2,2,0,0,1-1.6-2.32,1.92,1.92,0,0,1,1.6-1.61h2a2.83,2.83,0,0,0,.4-5.63H548.9a2,2,0,0,1-1.6-2.31,1.92,1.92,0,0,1,1.6-1.61h2a2.83,2.83,0,0,0,.4-5.63H549a2,2,0,0,1,0-4h2a2.83,2.83,0,0,0,.4-5.63h-2.3a2,2,0,0,1-1.6-2.32,1.92,1.92,0,0,1,1.6-1.61h2a2.83,2.83,0,0,0,.4-5.63h-2.3a2,2,0,0,1,0-4h2a2.83,2.83,0,0,0,2.5-3.11,2.88,2.88,0,0,0-2.2-2.51h-2.3a2,2,0,0,1-1.6-2.32,1.91,1.91,0,0,1,1.6-1.6h2a2.83,2.83,0,0,0,.81-5.6l-.16,0H549.3a2,2,0,0,1-1.6-2.31,1.92,1.92,0,0,1,1.6-1.61h2a2.8,2.8,0,0,0,2.8-2.81,2.87,2.87,0,0,0-2.8-2.82h-.5a3.38,3.38,0,0,1-3.4-3.36v-1.19a3.38,3.38,0,0,1,3.34-3.42h.66a2.83,2.83,0,0,0,.81-5.6l-.16,0H549.5a2,2,0,0,1-1.6-2.31,1.92,1.92,0,0,1,1.6-1.61h2a2.8,2.8,0,0,0,2.8-2.81,2.87,2.87,0,0,0-2.8-2.82h-2a2,2,0,0,1-1.6-2.31,1.91,1.91,0,0,1,1.6-1.61h2a2.83,2.83,0,0,0,.4-5.63h-2.3a2,2,0,0,1-1.6-2.32,1.91,1.91,0,0,1,1.6-1.6h2a2.81,2.81,0,0,0,2.8-2.82,2.87,2.87,0,0,0-2.8-2.82h-2a2,2,0,0,1-1.6-2.31,1.92,1.92,0,0,1,1.6-1.61h2a2.87,2.87,0,0,0,.3-5.73h-2.3a2,2,0,0,1-1.6-2.31,1.91,1.91,0,0,1,1.6-1.61h2a2.83,2.83,0,0,0,.4-5.63h-2.3a2,2,0,0,1,0-4h2a2.82,2.82,0,0,0,.81-5.59l-.16,0H549.8a2,2,0,0,1-1.6-2.31,1.91,1.91,0,0,1,1.6-1.61h2a2.82,2.82,0,0,0,.81-5.59l-.16,0H549.9a2,2,0,0,1-1.6-2.31,1.91,1.91,0,0,1,1.6-1.61h2a2.81,2.81,0,0,0,2.8-2.82,2.86,2.86,0,0,0-2.8-2.87h-2a2,2,0,0,1-1.6-2.32,1.92,1.92,0,0,1,1.6-1.61h2a2.83,2.83,0,0,0,.4-5.63H550a2,2,0,0,1-1.6-2.31A1.91,1.91,0,0,1,550,893h2a2.83,2.83,0,0,0,.4-5.63h-2.3a2,2,0,0,1,0-4h2a2.83,2.83,0,0,0,.4-5.64h-2.3a2,2,0,0,1-1.6-2.31,1.92,1.92,0,0,1,1.6-1.61h2a2.82,2.82,0,0,0,.81-5.59l-.16,0H551.7a3.38,3.38,0,0,1-3.4-3.36v-3.6a3.38,3.38,0,0,1,3.34-3.42h.66a2.8,2.8,0,0,0,2.8-2.81,2.87,2.87,0,0,0-2.8-2.82h-2a2,2,0,0,1-1.6-2.31,1.91,1.91,0,0,1,1.6-1.61h2a2.82,2.82,0,0,0,.81-5.59l-.16,0H550.4a2,2,0,0,1-1.6-2.32,1.91,1.91,0,0,1,1.6-1.6h2a2.83,2.83,0,0,0,.4-5.64h-2.3a2.12,2.12,0,0,1-1.7-2.31,2,2,0,0,1,1.7-1.71h2a2.81,2.81,0,0,0,2.6-3h0a2.9,2.9,0,0,0-2.3-2.61h-.9a3.38,3.38,0,0,1-3.4-3.36v-3.8a2.48,2.48,0,0,0-2.46-2.51h0a2.49,2.49,0,0,1-2.48-2.48v-3.76a6.24,6.24,0,0,0-6.2-6.23h-.5a6.84,6.84,0,0,1-6.8-6.84v-18.1a5.13,5.13,0,0,0-5.1-5.13,5.14,5.14,0,0,1-5.1-5.13V746.87a16.74,16.74,0,0,0-13.1-16.29l-17.9-3.92a9.47,9.47,0,0,1-7.3-9.25v-52.8a2,2,0,0,0-3.8-1.25,2.05,2.05,0,0,0-.1.55V718a5,5,0,0,1-4.9,5.13h-.1a4.83,4.83,0,0,1-1.2-.1,5.18,5.18,0,0,0-6.1,3.82,4,4,0,0,0-.11.91c0,.06,0,.13,0,.2v39.21a4.25,4.25,0,0,1-4.2,4.23,4.25,4.25,0,0,0-4.2,4.22v19a6.84,6.84,0,0,1-6.8,6.84H446.9a5.52,5.52,0,0,0-5.4,5.33v2.81a2.49,2.49,0,0,1-2.46,2.52h0a2.48,2.48,0,0,0-2.48,2.47V817a4.81,4.81,0,0,1-4.8,4.83H382.2a16.67,16.67,0,0,0-16.6,16.69v29.37A16.67,16.67,0,0,1,349,884.54H308a17.1,17.1,0,0,0-6,1.11l-50.5,19.81a4.5,4.5,0,0,0-2.8,4.22v19.61a4.5,4.5,0,0,0,4.46,4.53h1.14a3.42,3.42,0,0,1,0,6.84H252a3.42,3.42,0,0,0,0,6.83h2.3a3.42,3.42,0,0,1,0,6.84H252a3.42,3.42,0,0,0,0,6.84h2.3a3.43,3.43,0,0,1,.4,6.84h-2.6a3.42,3.42,0,0,0,0,6.84h2.32a3.42,3.42,0,0,1,0,6.84H252.1a3.42,3.42,0,0,0,0,6.83h3.12a2.57,2.57,0,0,1,0,5.13H203.9a16.5,16.5,0,0,1-15.6-11L175,946.39a7.23,7.23,0,0,0-13.6,0c-2.8,7.74-14.7,5.53-14.6-2.72V903.05c0-22.63,0-45.36-.6-68,0-9.66-.6-19.82-.6-29.47-.6-20.92-1.1-41.93-2.3-63.46-.6-10.15-.6-20.41-1.1-30.57-1.1-19.81-1.7-39.12-2.8-58.93,0-2.31-.6-4.52-.6-6.84-1.1-17.59-2.3-34.49-3.4-52.09-2.3-31.67-5.1-63.45-7.9-95.13-.2-2.92-.5-5.83-.8-8.85a17.17,17.17,0,0,0-17-15.49H4.5a16.42,16.42,0,0,0-4.5.64V1333H750V575.51A5.14,5.14,0,0,0,744.9,570.38ZM434.5,892.08h-3.7a.65.65,0,0,1-.6-.6v-1.41a2,2,0,0,1,2-2h2.3a2.16,2.16,0,0,1,2,2A2,2,0,0,1,434.5,892.08Zm0-9.65h-2.2a2,2,0,0,1-1.6-2.31,1.91,1.91,0,0,1,1.6-1.61h2.3a1.9,1.9,0,0,1,1.9,1.91A2,2,0,0,1,434.5,882.43Zm0-10.16h-2.2a2,2,0,0,1-1.6-2.31,1.92,1.92,0,0,1,1.6-1.61h2.3a1.91,1.91,0,0,1,1.9,1.91A2,2,0,0,1,434.5,872.27Zm2-12.16a2,2,0,0,1-2,2h-2.2a2,2,0,0,1-.7-3.93h3a1.79,1.79,0,0,1,1.9,1.66A1.13,1.13,0,0,1,436.5,860.11Zm-2-8.25h-2.2a2,2,0,0,1-1.6-2.31,1.91,1.91,0,0,1,1.6-1.61h2.3a1.9,1.9,0,0,1,1.9,1.91A2,2,0,0,1,434.5,851.86Zm0-10.16h-2.2a2,2,0,0,1-.7-3.92h3a1.91,1.91,0,0,1,1.9,1.91A2,2,0,0,1,434.5,841.7Zm0-9.65h-2.2a2,2,0,0,1-1.6-2.31,1.91,1.91,0,0,1,1.6-1.61h2.3a1.9,1.9,0,0,1,1.9,1.91A2,2,0,0,1,434.5,832.05Z" fill="url(#linear-gradient-6)"/>
  </g>
  <g id="nature">
    <g id="right-side">
      <g id="mountains">
        <path d="M705.28,942C644,942,594.5,1047.11,594.5,1176.67H816.18C816.18,1047,766.51,942,705.28,942Z" fill="url(#linear-gradient)"/>
        <path d="M705.28,942C644,942,594.5,1047.11,594.5,1176.67H816.18C816.18,1047,766.51,942,705.28,942Z" fill="url(#linear-gradient)"/>
        <g mask="url(#mask)">
          <path d="M611.88,963.24c35.1-16,106-42.14,108.73-18.85C724,973.52,521.13,1098.58,590.48,1072s129.27-99.36,144.68-73.66-135.27,131.91-84.76,126.77,113-123.35,132.7-104.5-129.27,149.9-95.88,161,125-174.74,161.8-179" fill="none" stroke-width="2" opacity="0.2" stroke="url(#linear-gradient-9)" style="isolation: isolate"/>
        </g>
        <path d="M801.81,1176.67h14.37C816.18,1047,766.51,942,705.28,942a53.82,53.82,0,0,0-7.19.48C756,950.3,801.81,1052.09,801.81,1176.67Z" fill="#c9d983" opacity="0.3" style="isolation: isolate"/>
        <path d="M509,922.14c-71,0-128.63,113.35-128.63,253.16H637.61C637.47,1035.49,580,922.14,509,922.14Z" fill="url(#linear-gradient-2)"/>
        <g mask="url(#mask-2)">
          <path d="M391.29,973.23c13.55-16,44-44.51,57.37-30.55,16.71,17.46-18.88,77.81,4.36,85.09s55.92-106.91,84.25-96-122,187.63-69.73,194.17,76.26-151.26,98.78-140.35-50.84,96-25.42,120.72,38.49-91.63,58.83-78.54,5.81,78.54-13.8,122.9" fill="none" stroke-width="2" opacity="0.2" stroke="url(#linear-gradient-11)" style="isolation: isolate"/>
        </g>
        <path d="M608.86,1175.3h28.75C637.47,1035.49,580,922.14,509,922.14a66.59,66.59,0,0,0-14.37,1.57C558.85,937.77,608.75,1045.05,608.86,1175.3Z" fill="#c9d983" opacity="0.2" style="isolation: isolate"/>
      </g>
      <g id="palm">
        <rect x="717.98" y="1020.82" width="2.48" height="157.82" fill="#0c5e59"/>
        <path d="M736.91,1010.78c-5.22,0-10.09,3.82-13.45,7.2,2.3-3.29,5.49-7.29,7.87-8a17.09,17.09,0,0,1,7.61-.71s-3.89-5.51-9.73-2.93c-2.56,1.07-4.69,4.71-6.28,8.26.89-3.28,1.59-7.19,1-10.75-1.5-9.06-11.41-9.77-11.41-9.77s5.58,7.82,6.55,17l.35,3.55c-.88-5.24-2.92-11.55-8-15-12.56-8.45-20.52,6.3-20.52,6.3s7.16-4.53,16.63.27c7.52,3.82,10.61,11.82,11.68,15.11-1.24-2.4-6.46-11.73-14.69-13.06-12.47-2.05-15.66,13.77-15.66,13.77s7.17-5.69,16-5.33A23.38,23.38,0,0,1,719,1022a36,36,0,0,0-7.52-1.07c-11.06-.09-13.36,14.75-13.36,14.75l21-12.88a79.52,79.52,0,0,0-3.81,7.82c-1.41,3.38-.44,11.11-.44,11.11s3.36-5.87,4.34-9.6a29.3,29.3,0,0,0,.61-9.24L734,1038.33s3.54-9.42-7.26-13.86l-3.62-1.51a23,23,0,0,1,8.93,3.55,43.74,43.74,0,0,1,10.26,9.6s3.9-11.38-5.57-16a14.79,14.79,0,0,0-9.73-.62,13.39,13.39,0,0,1,8.85-1.78c8.58,1.07,11,7.2,11,7.2s2.48-14.13-10-14.13Z" fill="url(#linear-gradient-12)"/>
      </g>
      <g id="palm1">
        <rect x="624.12" y="923.78" width="3.89" height="257.7" fill="#0c5e59"/>
        <path d="M653.05,901.57c-9.47,0-18.4,6.84-24.6,13.06,4.16-6,10-13.24,14.42-14.75a31.12,31.12,0,0,1,14-1.24s-7.16-10-17.69-5.34c-4.69,2.05-8.67,8.71-11.5,15.11,1.59-6,2.74-13.06,1.77-19.64C626.86,872.42,608.64,871,608.64,871s10.17,14.22,12,30.92c.27,2.23.44,4.36.53,6.4-1.59-9.68-5.4-21.24-14.6-27.37-22.82-15.28-37.15,11.73-37.15,11.73s13.09-8.17,30.25.54c13.54,6.84,19.29,21.68,21.24,27.54-2.3-4.53-11.59-21.23-26.81-23.81-22.73-3.82-28.57,25.24-28.57,25.24s13-10.49,29.1-9.78c12.48.53,21.5,5.69,25.92,9.78a54.12,54.12,0,0,0-13.62-2c-20.17-.27-24.33,26.84-24.33,26.84l38.31-23.55c-1.6,3.11-5.05,9.68-6.9,14.31-2.57,6.3-1,20.17-1,20.17s6.19-10.67,8-17.6c1.77-6.66,1.33-13.59,1.07-16.88L648,951.78s6.37-17.15-13.09-25.51c-2.56-1.06-4.86-2-6.63-2.75a40.71,40.71,0,0,1,16.19,6.4A76.65,76.65,0,0,1,663,947.33s7-20.79-10.35-29c-5.66-2.75-12.2-2.31-17.69-1.06a25.29,25.29,0,0,1,16.19-3.38c15.66,1.87,20,13.24,20,13.24s4.69-25.68-18-25.59Z" fill="url(#linear-gradient-13)"/>
      </g>
      <g id="bush-1">
        <path d="M544.68,1151.19a118.48,118.48,0,0,0-11.76-31.55c-.71-1.33-1.6-2.84-2.39-4.18a121.41,121.41,0,0,0-22.65-27.63,37.63,37.63,0,0,0-3.54-3,116.83,116.83,0,0,0-31.84-19c-1.42-.62-2.92-1.07-4.34-1.6a117.65,117.65,0,0,0-37.15-6.67h-4.69a117.65,117.65,0,0,0-37.15,6.67l-4.34,1.6a116.83,116.83,0,0,0-31.84,19c-1.24,1-2.39,2-3.54,3a117.25,117.25,0,0,0-22.65,27.63c-.88,1.34-1.59,2.85-2.39,4.18a118.14,118.14,0,0,0-11.76,31.55c-.36,1.6-.62,3.2-1,4.71a117.82,117.82,0,0,0-1.85,20.79h237.6a124.86,124.86,0,0,0-1.77-20.79C545.3,1154.39,545,1152.79,544.68,1151.19Z" fill="url(#linear-gradient-14)"/>
        <path d="M426.32,1057.35v119.43h4.6V1057.35Z" fill="url(#linear-gradient-15)"/>
        <path d="M384.74,1065.79,414.29,1177h4.78L389,1064.28c-1.33.44-2.83,1-4.25,1.51Z" fill="url(#linear-gradient-16)"/>
        <path d="M349.36,1087.83l51.13,89h5.22l-52.81-92c-1.24,1-2.39,2-3.54,3Z" fill="url(#linear-gradient-17)"/>
        <path d="M324.32,1119.64l57,57.32h6.46l-61-61.41c-.79,1.34-1.59,2.76-2.39,4.09Z" fill="url(#linear-gradient-18)"/>
        <path d="M311.59,1156l36,20.79h9.2l-44.23-25.68C312.21,1152.79,311.94,1154.39,311.59,1156Z" fill="url(#linear-gradient-19)"/>
        <path d="M438.09,1177h4.68l29.55-111.17c-1.42-.62-2.92-1.07-4.33-1.6Z" fill="url(#linear-gradient-20)"/>
        <path d="M451.44,1177h5.31l51.13-89a40.86,40.86,0,0,0-3.54-3Z" fill="url(#linear-gradient-21)"/>
        <g opacity="0.3">
          <path d="M469.49,1177h6.37l57-57.23c-.71-1.33-1.59-2.84-2.39-4.18Z" fill="url(#linear-gradient-22)"/>
        </g>
        <path d="M500.54,1177h9.2l35.91-20.89c-.26-1.6-.61-3.19-1-4.71Z" fill="#084f15"/>
      </g>
      <g id="bush-2">
        <path d="M633.67,1160.61a77.06,77.06,0,0,0-7.52-20.09c-.44-.89-1-1.69-1.41-2.66a76.36,76.36,0,0,0-14.42-17.6c-.71-.62-1.5-1.33-2.3-2a75.44,75.44,0,0,0-20.26-12.09,27.81,27.81,0,0,0-2.83-1,71.55,71.55,0,0,0-23.62-4.26h-2.92a76.76,76.76,0,0,0-23.62,4.26c-1,.36-1.85.63-2.74,1a75.59,75.59,0,0,0-20.26,12.09,23.92,23.92,0,0,1-2.3,2,75,75,0,0,0-14.42,17.6c-.44.89-1,1.69-1.41,2.66a77.78,77.78,0,0,0-7.52,20.09c-.27,1-.35,2-.62,3a86.27,86.27,0,0,0-1.24,13.33h151a67.71,67.71,0,0,0-1.24-13.33,8.55,8.55,0,0,0-.36-3Z" fill="url(#linear-gradient-23)"/>
        <path d="M558.39,1101.07V1177h2.92v-75.89Z" fill="url(#linear-gradient-24)"/>
        <path d="M532.12,1106.22l18.75,70.56h3l-19-71.62A22.16,22.16,0,0,1,532.12,1106.22Z" fill="url(#linear-gradient-25)"/>
        <path d="M509.56,1120.44,542,1177h3.36l-33.53-58.47A25,25,0,0,0,509.56,1120.44Z" fill="url(#linear-gradient-26)"/>
        <path d="M493.55,1140.52l36.27,36.35H534l-38.75-39C494.7,1138.83,494.08,1139.72,493.55,1140.52Z" fill="url(#linear-gradient-27)"/>
        <path d="M485.59,1163.63,508.5,1177h5.84l-28.13-16.35C485.94,1161.58,485.77,1162.65,485.59,1163.63Z" fill="url(#linear-gradient-28)"/>
        <path d="M565.91,1177h3l18.75-70.56a25.57,25.57,0,0,0-2.83-1Z" fill="url(#linear-gradient-29)"/>
        <path d="M574.4,1177h3.37l32.46-56.52c-.71-.62-1.5-1.33-2.3-2Z" fill="url(#linear-gradient-30)"/>
        <path d="M585.9,1177h4.16l36.27-36.35c-.44-.89-1-1.69-1.41-2.66Z" fill="url(#linear-gradient-31)"/>
        <path d="M605.54,1177h5.84l22.91-13.33a30.49,30.49,0,0,0-.62-3Z" fill="url(#linear-gradient-32)"/>
      </g>
    </g>
    <g id="grass">
      <rect y="1174" width="750" height="160" fill="url(#linear-gradient-33)"/>
      <path d="M636.7,1292.63c-36.7-14.09-72.8-24.75-102-25.45-11.7-.3-20.4.9-26.5,3.32s-9.9,6.33-11,11.46.1,10.67,3,16.8,7.5,12.88,13.3,19.82c4.13,5,8.87,10.14,14.08,15.39h4.59c-6-6-11.51-11.87-16.17-17.5a101.81,101.81,0,0,1-12.9-19.12c-2.8-5.73-3.7-10.66-2.8-14.58s3.6-6.84,9.1-9,13.8-3.42,25.2-3.12c28.6.7,64.3,11.06,100.9,25.14,29.83,11.46,60.17,25.31,87.82,38.23h7.77C701.81,1320.22,669,1305.07,636.7,1292.63Zm47.9-84c.9-.6,2.5-1.1,5.2-1.2,5.5-.3,14.3.8,27.4,3.52a176,176,0,0,1,32.51,10.36v-3.68a177.43,177.43,0,0,0-31.81-10c-13.1-2.72-22.4-3.82-28.3-3.52-2.9.2-5.3.7-6.9,1.81a5,5,0,0,0-2.3,5,14.9,14.9,0,0,0,2.7,6,58.51,58.51,0,0,0,6.1,7.14c5,5.24,12,11.37,20.2,18.31,4.8,4.13,10.1,8.45,15.6,13.08,6.6,5.53,13.6,11.37,20.76,17.46l4,3.38v-4.46c-7.76-6.63-15.37-13-22.51-18.9-5.5-4.62-10.8-9-15.6-13.07-8.2-6.94-15-13.08-19.9-18.11a51.7,51.7,0,0,1-5.7-6.74,10.67,10.67,0,0,1-2.2-4.52,4.1,4.1,0,0,1,.1-1.11A2.52,2.52,0,0,1,684.6,1208.63Zm-503.2,5.54c-3.3-5.84-9.2-8.86-18.4-8.86s-18,4.13-26.3,11.07-16.3,16.8-24.2,28.57c-5.93,8.88-11.85,18.9-17.77,29.61l-1.85,3.37c-6.56,12-13.13,24.76-19.78,37.73l-7.8,15.09L63.63,1334h3.43l.94-1.81c2.6-5.13,5.2-10.16,7.8-15.19,7.53-14.71,14.94-29.08,22.31-42.34,5.63-10.14,11.25-19.61,16.89-28.07,7.8-11.57,15.7-21.13,23.6-27.87s15.9-10.36,24.2-10.36,13,2.72,15.4,7c2.5,4.53,2.9,11.27,1.5,19.92-1.3,8-4,17.1-7.44,27q-2.2,6.33-4.75,13.08c-2.26,6-4.67,12.18-7.11,18.44v.1l-2.2,5.64c-4.49,11.55-9,23.23-12.62,34.4h3.83c3.49-10.59,7.74-21.7,12.09-32.79.8-2,1.5-3.93,2.3-5.84,2.65-6.73,5.27-13.43,7.71-19.94,5.41-14.42,9.9-28,11.69-39.1,1.5-8.89,1.3-16.63-1.8-22.13ZM335.48,1174c-1.26,1.53-2.52,3.11-3.77,4.72-.81,1-1.61,2.07-2.41,3.13-19.27,25.45-37.76,58.84-55.85,91.86l-.65,1.18-.1.3-9.06,16.44c-8.17,14.75-16.31,29.11-24.45,42.31h3.64c8.3-13.54,16.57-28.17,24.84-43.19q3.91-7,7.83-14.25l.3-.5,1.35-2.46c17.77-32.41,35.74-64.82,54.56-89.69l.29-.39q3.76-5,7.54-9.46Zm78.93,0c-1.2,9.9-3.9,21.3-7.31,33.7-1.8,6.54-3.8,13.28-5.8,20.12l-.1.3c-2,6.74-4,13.68-5.9,20.52-1.41,5-2.76,10.12-4,15.16-2.21,8.93-4.08,17.76-5.29,26.15a.74.74,0,0,1-.05.33h0c-1.86,13.08-2.23,25.4.15,36.22a53.37,53.37,0,0,0,2.2,7.44h3.59a47.34,47.34,0,0,1-2.49-8.15c-2.08-9.72-1.92-21-.29-33.19.09-.69.19-1.39.29-2.09a272.66,272.66,0,0,1,5.55-27.15c1.13-4.56,2.37-9.15,3.65-13.76,1.9-6.84,3.9-13.78,5.9-20.52l.1-.3c2-6.84,4-13.58,5.8-20.12,3.46-12.58,6.28-24.41,7.46-34.6Z" fill-rule="evenodd" fill="url(#linear-gradient-34)"/>
      <path d="M750,1186.07V1334H0v-62.33c29.25,1.26,60.72,2.25,94.77,2.9l3.38.07q33,.6,69.42.75h21.2c30.78,0,58.91-.59,84.79-1.69l3.7-.16c19.39-.86,37.52-2,54.58-3.4,21.46-1.75,41.19-3.9,59.6-6.35l3.66-.5q11.89-1.63,23.06-3.43C542.47,1240,606.14,1205.61,750,1186.07Z" fill="url(#linear-gradient-35)"/>
    </g>
    <g id="stones">
      <path d="M401,1334H293.72a55,55,0,0,1,5.38-14.79c.4-.6.7-1.3,1.1-1.91a56.8,56.8,0,0,1,10.5-13c.5-.41,1-.91,1.6-1.41a56.86,56.86,0,0,1,14.8-8.94c.7-.2,1.3-.5,2-.7a55.13,55.13,0,0,1,17.2-3.12h2.1a51.93,51.93,0,0,1,12.23,1.6,50.85,50.85,0,0,1,5,1.52c.6.2,1.3.4,2,.7a55.47,55.47,0,0,1,14.8,8.94,11.29,11.29,0,0,1,1.6,1.41,56.8,56.8,0,0,1,10.5,13,21.43,21.43,0,0,1,1.1,1.91A56.17,56.17,0,0,1,401,1334Z" fill="#f4f6d5"/>
      <path d="M488.9,1334H329.4a83.1,83.1,0,0,1,6-13.88c.6-.91,1.1-2,1.7-2.92a82.87,82.87,0,0,1,16-19.48c.8-.61,1.6-1.41,2.5-2.11q2.44-2.05,5-3.93a81.78,81.78,0,0,1,17.47-9.53c1-.31,2.1-.81,3.1-1.11a81.33,81.33,0,0,1,26.3-4.72h3.3a80.53,80.53,0,0,1,26.3,4.72,28.6,28.6,0,0,1,3.1,1.11,83.35,83.35,0,0,1,22.5,13.46,16.24,16.24,0,0,1,2.5,2.11,82.87,82.87,0,0,1,16,19.48c.6.91,1.2,2,1.7,2.92A83.1,83.1,0,0,1,488.9,1334Z" fill="#fff"/>
    </g>
    <g id="left-side">
      <g id="palm2">
        <rect x="83.88" y="923.53" width="5.91" height="400.47" fill="#0c5e59"/>
        <path d="M45.65,889.05c14.45,0,28.13,10.65,37.61,20.34C76.89,900,68,888.9,61.19,886.51a45.93,45.93,0,0,0-21.29-1.9s10.88-15.73,27-8.26c7.31,3.17,13.21,13.5,17.56,23.51-2.48-9.38-4.19-20.34-2.64-30.5,3.89-25.42,31.86-27.49,31.86-27.49s-15.54,21.93-18.49,48c-.47,3.33-.62,6.83-.78,10,2.49-15.09,8.24-33,22.22-42.58,35-23.67,56.73,18.27,56.73,18.27s-20.05-12.71-46.31.8C106.42,887,97.56,910,94.76,919.08c3.42-7.15,17.72-33.2,40.72-37.17C170.14,876,179,921.14,179,921.14s-19.9-16.36-44.45-15.25c-19,.8-32.8,8.9-39.63,15.25a78.09,78.09,0,0,1,20.82-3c30.77-.47,37.15,41.78,37.15,41.78L94.61,923.21c2.48,4.92,7.61,15.09,10.56,22.24,3.89,9.69,1.4,31.29,1.4,31.29s-9.48-16.52-12.12-27.32a82.76,82.76,0,0,1-1.71-26.21L53.11,967.05s-9.64-26.69,20-39.55c3.88-1.75,7.46-3.18,10.1-4.29a61.23,61.23,0,0,0-24.71,10,116,116,0,0,0-28.29,27.16S19.54,928,46,915.27c8.7-4.29,18.65-3.66,27-1.75a38.55,38.55,0,0,0-24.71-5.24c-23.93,3-30.62,20.49-30.62,20.49S11.15,888.74,45.65,889.05Z" fill="url(#linear-gradient-36)"/>
      </g>
      <g id="bush-3">
        <path d="M254,1333.18H4.82a125,125,0,0,1,1.84-19.88c.3-1.71.62-3.26.93-5a119.47,119.47,0,0,1,12.4-33c.77-1.4,1.55-2.95,2.48-4.34a124.3,124.3,0,0,1,23.71-28.79c1.24-.93,2.48-2,3.72-3.1a123.58,123.58,0,0,1,33.48-19.81c.77-.31,1.55-.62,2.32-.91l.21-.07c.5-.19,1-.37,1.5-.53.15-.06.31-.1.47-.15l.15-.05a120.07,120.07,0,0,1,39.05-7h4.81a124.07,124.07,0,0,1,39.06,7c1.54.62,3.1,1.09,4.65,1.71a121.77,121.77,0,0,1,33.48,19.81c1.23.93,2.48,2,3.72,3.1A128.42,128.42,0,0,1,236.51,1271c.78,1.39,1.71,2.94,2.48,4.34a127,127,0,0,1,12.24,33c0,.2.08.39.11.58.27,1.48.54,2.87.82,4.38a1.55,1.55,0,0,1,0,.21A126.09,126.09,0,0,1,254,1333.18Z" fill="url(#linear-gradient-37)"/>
        <path d="M127.08,1210.5v122.68h4.81V1210.5Zm-39.2,7.17v-.05l-.46.2-.62.27-.88.26-.21.07a19.24,19.24,0,0,0-2.32.91l30.48,113.85h5Zm-37.82,21.62a30.6,30.6,0,0,0-3.42,2.79l-.3.31,52.5,90.79h5.33Zm-27.59,31.9c-.32.61-.78,1.39-1.25,2.17s-.77,1.54-1.23,2.17l57.58,57.65h6.81ZM7.74,1308.34l-.46,2.33a17.46,17.46,0,0,0-.62,2.78L41,1333.18h9.78Zm162.89-90.72-30.79,115.56h5l30.48-113.85C173.74,1218.71,172.19,1218.24,170.63,1217.62Zm38.14,21.52-54.37,94H160l52.51-90.94C211.24,1241.16,210,1240.07,208.77,1239.14ZM236,1271l-61.92,62.15h6.66l57.74-57.81C237.75,1274,236.82,1272.42,236,1271Zm15.3,37.89c0-.14-.07-.28-.11-.42l-43.11,24.68h9.62l34.46-19.67.12-.06C252,1311.89,251.75,1310.46,251.34,1308.92Z" fill-rule="evenodd" fill="url(#linear-gradient-38)"/>
      </g>
      <g>
        <g id="bush-4">
          <path d="M87.84,1210.28c-11.66,0-16.16-10.49-16.16-25.1s-4-26.53-19.74-27.32c-20.52-.8-18.65,19.54-18.65,44.16,0,31.45-11,11.28-26.42,28.91-13.21,14.93,3.73,41.62,8.7,49.4H81.93c2.18-4.13,7.62-14.29,13.84-26.53C109.75,1227.59,99.65,1210.28,87.84,1210.28Z" fill="url(#linear-gradient-39)"/>
          <path d="M56.45,1215.2H53.18v47l-13.83-18.74-2.64,2.06,16.47,22.56v12.55h3.27v-35.74l14-17.79-2.64-2.07-11.34,14.46V1215.2Z" fill="#fff" fill-opacity="0.2" fill-rule="evenodd"/>
        </g>
        <path d="M104.49,1276.75H0V1334H104.49Z" fill="#fff"/>
      </g>
    </g>
  </g>
</svg>
