<svg xmlns="http://www.w3.org/2000/svg" xmlns:xlink="http://www.w3.org/1999/xlink" viewBox="0 0 721 679"><style><![CDATA[.B{fill:#fff}.C{fill-rule:evenodd}.D{opacity:.5}.E{fill:#f58a6b}.F{fill:#ee4d47}.G{fill:#fcddd4}.H{fill:#fafbfc}.I{fill:#402b2b}.J{fill-opacity:.3}]]></style><defs><mask id="A" x="100.67" y="120.21" width="510.34" height="484.84" maskUnits="userSpaceOnUse"><path d="M334 141.05c-83.87-57.27-217.33 7.64-208 144.18 15.9 232.82 178.14 259.87 320 232.82 185.63-35.4 228.46-247.75 57.05-232.82-137.56 12-64.2-72.6-169.05-144.18z" class="G"/></mask><linearGradient id="B" x1="310.06" y1="177.93" x2="227.61" y2="328.78" xlink:href="#a"><stop offset="0" stop-color="#f37753"/><stop offset="1" stop-color="#fff" stop-opacity="0"/></linearGradient><linearGradient id="C" x1="213.29" y1="145.53" x2="260.9" y2="471.51" xlink:href="#a"><stop offset="0" stop-color="#f7a58d"/><stop offset="1" stop-color="#f58a6b"/></linearGradient><linearGradient id="D" x1="357.93" y1="383.8" x2="354.88" y2="350.01" xlink:href="#a"><stop offset="0" stop-color="#ffb3b6"/><stop offset="1" stop-color="#ffc8c1"/></linearGradient><linearGradient id="E" x1="346.23" y1="373.45" x2="374.97" y2="383.8" xlink:href="#a"><stop offset="0" stop-color="#ffb3b6" stop-opacity=".3"/><stop offset="1" stop-color="#ffc8c1"/></linearGradient><linearGradient id="F" x1="361.78" y1="439.91" x2="355.65" y2="376.71" xlink:href="#a"><stop offset="0" stop-color="#ffb3b6"/><stop offset="1" stop-color="#fff"/></linearGradient><linearGradient id="G" x1="360.58" y1="374.01" x2="354.7" y2="323.38" xlink:href="#D"/><linearGradient id="H" x1="357.05" y1="371.69" x2="357.05" y2="497.75" xlink:href="#a"><stop offset="0" stop-color="#f4a984"/><stop offset="1" stop-color="#ee4d47"/></linearGradient><linearGradient id="I" x1="298.71" y1="391.07" x2="298.71" y2="497.38" xlink:href="#H"/><linearGradient id="J" x1="356.89" y1="268.85" x2="356.89" y2="336.08" xlink:href="#H"/><linearGradient id="K" x1="323.13" y1="324.33" x2="323.13" y2="352.35" xlink:href="#H"/><linearGradient id="L" x1="314.65" y1="326.42" x2="314.65" y2="350.55" xlink:href="#H"/><linearGradient id="M" x1="390.29" y1="324.68" x2="390.29" y2="352.69" xlink:href="#H"/><linearGradient id="N" x1="398.62" y1="326.76" x2="398.62" y2="350.89" xlink:href="#H"/><linearGradient id="O" x1="342.67" y1="369.57" x2="342.67" y2="377.76" xlink:href="#H"/><linearGradient id="P" x1="308.1" y1="406.44" x2="330.6" y2="322.44" xlink:href="#a"><stop offset="0" stop-color="#ffb3b6"/><stop offset=".24" stop-color="#ffc5c7"/><stop offset="1" stop-color="#fff"/></linearGradient><linearGradient id="Q" x1="450.2" y1="630.32" x2="450.2" y2="145.24" xlink:href="#a"><stop offset="0" stop-color="#ffedba"/><stop offset=".42" stop-color="#f16d5e"/><stop offset=".65" stop-color="#ee4d47"/></linearGradient><linearGradient id="R" x1="457.31" y1="524.18" x2="457.31" y2="430.36" xlink:href="#a"><stop offset="0" stop-color="#ffedba"/><stop offset="1" stop-color="#ee4d47"/></linearGradient><linearGradient id="S" x1="447.62" y1="512.32" x2="447.62" y2="485.82" xlink:href="#R"/><linearGradient id="T" x1="461.33" y1="504.15" x2="461.33" y2="477.2" xlink:href="#R"/><linearGradient id="U" y1="517.09" y2="300.46" xlink:href="#R"/><linearGradient id="V" x1="457.47" y1="507.21" x2="457.47" y2="421.38" xlink:href="#R"/><linearGradient id="W" x1="340.01" y1="511.51" x2="340.01" y2="485.99" xlink:href="#R"/><linearGradient id="X" x1="372.57" y1="490.18" x2="372.57" y2="470.77" xlink:href="#R"/><clipPath id="Y"><path fill="none" d="M514 424.05h80v71h-80z"/></clipPath><path id="Z" d="M358.6 450.33a1.89 1.89 0 1 1-1.89-1.88 1.9 1.9 0 0 1 1.89 1.88z"/><linearGradient id="a" gradientUnits="userSpaceOnUse"/></defs><path d="M334 141.05c-83.87-57.27-217.33 7.64-208 144.18 15.9 232.82 178.14 259.87 320 232.82 185.64-35.4 228.47-247.75 57.05-232.82-137.56 12-64.2-72.6-169.05-144.18z" class="G"/><g mask="url(#A)"><path d="M101.07 156.14c27.63-12.13 92.8-29.6 132.47-2.5 49.57 33.9-103.8 77.74-56.6 103.54s135.4-82.6 169.47-64-86.73 68.34-51.57 94.36 138.25-87.83 180.92-66.2-102 83.82-33.83 121.08" fill="none" stroke-width="2" opacity=".7" stroke="url(#B)"/><path d="M271,545.05a50,50,0,0,1,50-50H588v110H271Z" class="E"/></g><g class="C"><path d="M308.1 194.24l-61.83 10.2-3.27-19.9a3.38 3.38 0 0 0-3.78-2.68l-49 8a3.38 3.38 0 0 0-2.68 3.78l3.3 19.9-58.28 9.62a2.87 2.87 0 0 0-2.34 3.18l39.9 243.15a2.86 2.86 0 0 0 3.17 2.34L348.86 443a2.86 2.86 0 0 0 2.34-3.17l-40-243.13a2.73 2.73 0 0 0-3.1-2.46z" fill="url(#C)"/><path d="M299.52 225.05l-154.33 25.4a2.49 2.49 0 0 0-2.05 2.84l34.56 210.4a2.48 2.48 0 0 0 2.85 2l154.33-25.4a2.48 2.48 0 0 0 2-2.84l-34.56-210.4a2.48 2.48 0 0 0-2.8-2z" fill="#f36f49"/><path d="M299 217.6l-150.53 24.66a2.38 2.38 0 0 0-1.93 2.81l33.73 205.4a2.38 2.38 0 0 0 2.81 1.93l150.66-24.8a2.37 2.37 0 0 0 1.93-2.81l-33.73-205.4a2.53 2.53 0 0 0-2.94-1.78z" class="H"/></g><path d="M293.5 226.47L156.53 249a2.27 2.27 0 0 0-1.74 1.1 3.42 3.42 0 0 0-.48 2l31.13 189.5a2.26 2.26 0 0 0 1.11 1.74 3.31 3.31 0 0 0 2 .47l137-22.42a2.26 2.26 0 0 0 1.75-1.11 3.38 3.38 0 0 0 .47-2l-31.1-189.6a2.23 2.23 0 0 0-1.11-1.74 3.39 3.39 0 0 0-2.04-.48zm33.2 192a1.29 1.29 0 0 1-.31 1.23 2.06 2.06 0 0 1-1.09.68L188.45 442.9a1.28 1.28 0 0 1-1.23-.31 2 2 0 0 1-.67-1.09l-31.17-189.62a1.32 1.32 0 0 1 .31-1.23 2.09 2.09 0 0 1 1.1-.68l137-22.55a1.32 1.32 0 0 1 1.23.31 2.11 2.11 0 0 1 .68 1.1z" opacity=".8" class="E"/><g class="C"><path d="M215.47 191.38a5.33 5.33 0 1 0 6.14 4.35 5.36 5.36 0 0 0-6.14-4.35z" class="H"/><path d="M256.6 199.63l-77 12.6a3.39 3.39 0 0 0-2.69 3.78l3.6 21.48a3.38 3.38 0 0 0 3.78 2.69l77-12.6a3.36 3.36 0 0 0 2.73-3.77l-3.5-21.64a3.47 3.47 0 0 0-3.91-2.53z" class="E"/><path d="M215.15 209.7l-29.33 4.8a2.49 2.49 0 0 0-2 2.84l2.74 16.65a2.48 2.48 0 0 0 2.84 2l29.34-4.8a2.49 2.49 0 0 0 2-2.84l-2.8-16.6a2.48 2.48 0 0 0-2.79-2.05z" fill="#f36f49" opacity=".8"/></g><g class="F"><path d="M211.06 264l.34 2.07 80.6-13.24-.34-2.06zm.84 5.25l.34 2.07 80.62-13.26-.34-2.06zm41.1-1.55l.34 2.07 40.37-6.64-.34-2.06zm-40.24 6.64l.34 2.07 37.8-6.22-.33-2.06zm3.86 23.86l.34 2.07L297.58 287l-.34-2.07zm.85 5.24l.34 2.06 80.62-13.25-.34-2.07zm41.18-1.57l.34 2.07 40.38-6.64-.34-2.07zm-40.33 6.66l.34 2.06 37.82-6.2-.34-2.07zm3.36 20.33l.34 2.07 80.62-13.25-.34-2.07zm.85 5.24l.34 2.06 80.62-13.25-.34-2.07zm41.17-1.57l.34 2.07 40.37-6.6-.34-2.07zm-40.32 6.67l.33 2.07 37.82-6.26-.34-2.07zm3.47 21.25l.34 2.06 80.62-13.25-.34-2.07zm.87 5.35l.34 2.06 80.62-13.25-.34-2.06zm41.18-1.57l.34 2.07 40.37-6.64-.34-2.06zm-40.33 6.67l.33 2.07 37.82-6.22-.34-2.07zm3.37 20.92l.34 2.07 80.62-13.25-.34-2.07zm.86 5.23l.34 2.07 80.62-13.25-.34-2.07zm41.2-1.55l.34 2.06 40.37-6.63-.34-2.07zm-40.24 6.63l.34 2.06 37.82-6.2-.34-2.07zM173 264.37l-1 .14.13 1 3 18.45.14 1 1-.13 19.8-3.27 1-.13-.14-1-3-18.45-.13-1-1 .14zm21.87 15.44l-18 2.9-2.78-16.6 17.9-2.87zm-16.2 19.4l-1 .14.26.95 3 18.45.14 1 1-.14 19.8-3.26 1-.14-.14-1-3-18.45-.13-1-1 .14zm21.87 15.45l-17.86 2.87-2.8-16.6 17.86-2.88zm-16.38 17.92l-1 .13.14 1 3 18.45.14 1 1-.14 19.8-3.26 1-.14-.14-1-3-18.45-.13-1-1 .13zM206 348l-17.86 2.87-2.8-16.6 17.86-2.87zm-16.3 18.16l-1 .13.14 1 3.06 18.57.13 1 1-.14 19.8-3.26 1-.14-.14-1-3-18.45-.13-1-1 .13zm21.87 15.44l-17.86 2.87-2.8-16.6 17.9-2.87zm-16.5 16.92l-1 .14.13 1 3 18.45.14 1 1-.14 19.8-3.26 1-.14-.13-1-3-18.45-.14-1-1 .13zm21.84 15.33l-17.9 2.87-2.8-16.6 17.86-2.87z" opacity=".2"/><path d="M185.34 273.2L175 267l-1.17 1.84 12.26 7.18.52-.9 14-22.62-1.8-1.05z"/></g><path d="M191.23 309l-10.33-6.16-1.16 1.85 11.35 6.65.87.4.55-.8 13.94-22.74-1.8-1zm11.27 68.27l-10.45-6.13L191 373l12.14 7.2.53-.9 14.08-22.65-1.84-1.17z" class="E"/><g class="H"><path d="M173.1 483.24a2 2 0 1 0 2.42 1.39 1.94 1.94 0 0 0-2.42-1.39z" class="C"/><path d="M202.5 474.84a1.48 1.48 0 1 0-2-.74 1.49 1.49 0 0 0 2 .74zm40.78-12.06a1.12 1.12 0 0 0 .79-1.36 1.11 1.11 0 1 0-.79 1.36z"/><path d="M264.5 458.62a1.73 1.73 0 1 0 2.12 1.22 1.77 1.77 0 0 0-2.12-1.22zm32.25-7.24a.62.62 0 1 0 .75.44c.03-.4-.4-.53-.75-.44zm66.62-21.8a1 1 0 1 0 1.21.69.9.9 0 0 0-1.21-.69z" class="C"/></g><path d="M325,405.55c-43.6,0-21.5-63-5-94.5,8.83-6.66,30.5-20.1,46.5-20.5s26,19.5,29,29.5c-1.83.17-3.7,7.8,3.5,37s3.67,44.5,1,48.5Z" class="I"/><path d="M370.6 390.6c-4.1-7.2-1-18.3-1-18.3l-12.68 2.57-12.68-2.57a34.13 34.13 0 0 1 1 11.12c4.45 5.14 14.76 14.72 25.36 7.2z" fill="url(#D)"/><path d="M368.8 376.3a46 46 0 0 1-10.21 4.4 42.19 42.19 0 0 1-13.3 2 34.24 34.24 0 0 0-1.08-10.41l12.68 2.57 12.68-2.57a34.75 34.75 0 0 0-.77 4.01z" fill="url(#E)"/><path d="M325.88 400.7c7.36 6.5 21.93 20.7 31.18 20.7s25.7-13.52 33.07-20c-3.6-1.37-14.56-5.65-17.13-7.88a11.88 11.88 0 0 1-2.23-2.91c-10.62 7.53-20.9-2-25.36-7.36-.34 3.77-1.37 7.53-4.28 10.1-2.92 2.38-11.83 5.97-15.25 7.34z" fill="url(#F)"/><path d="M391.78 333.42c-1.2-2.22-3.1-2.57-4.3-2.22l-5.82-19c-8.06-3.77-15.6-7-24.68-7.7v-.17h-5.14a110 110 0 0 0-16.79 1.37 16.84 16.84 0 0 1-4.11.69c-1.72 9.07-4.63 25-5.83 24.82H325c-.17 0-.17 0-.34-.18-1.2-.34-2.57 0-3.78 2.06-2.05 3.77 0 11.3 2.75 13.52 1.37 1 2.57 1.88 3.42 2.4 1.38 6.85 3.77 13.35 7.37 17.3 9.43 10.1 18.17 12.32 20.56 12.66h1c1.72-.17 11.14-1.88 21.25-12.84 3.6-3.76 6.17-6.5 7.7-16.6a23.82 23.82 0 0 0 3.77-2.74c3.07-2.05 5.12-9.58 3.07-13.35z" fill="url(#G)"/><path d="M356.74 343.05s.13 3.86-.9 5.13-3 2.5-3.2 3.44c-.2.77.64 2.12 2.08 2.45s1.68.85 1.68.85-2.67.78-4.33-1-.4-3.63.8-4.75a22.55 22.55 0 0 0 2.3-2.2c.67-.64 1.56-3.92 1.56-3.92zm10.33 17h-20.7a.93.93 0 0 0-.88 1.28c1.46 3.33 5 8.22 11 8.22s9.78-4.85 11.43-8.18a.92.92 0 0 0-.84-1.32z" fill="#d87c60"/><path d="M367 363.05h-20.63a17.81 17.81 0 0 1-.89-1.72.93.93 0 0 1 .88-1.28h20.7a.92.92 0 0 1 .86 1.32 17.44 17.44 0 0 1-.93 1.68z" class="B C"/><path d="M376.6 292c25.53 3.25 19.53 34.4 14.56 39.88l-3.66 6.17a52 52 0 0 1-6-21.5c-3.83 2.5-15.3 7.5-30.5 7.5-19 0-24.2 3.15-26 12-4.45-9.93-7.52-30 3.45-41.3 15.08-15.74 37.87-19.52 48.15-2.74z" class="I"/><path d="M325 336l.86 7.36a6.7 6.7 0 0 1-3.09-4.79c-.15-2.07.7-3.44 2.23-2.57zm62.22 0l-.86 7.36a6.7 6.7 0 0 0 3.09-4.79c.17-2.07-.52-3.44-2.23-2.57z" fill="#ed8a40"/><path d="M373.68 344.3a2.91 2.91 0 1 1-2.91-2.91 2.88 2.88 0 0 1 2.91 2.91zm-30.5 2.92a2.91 2.91 0 1 0-2.91-2.91 2.91 2.91 0 0 0 2.91 2.91z" class="I"/><path d="M335.54 338.9a14 14 0 0 1 9.54-4.08m23.5.12a13.89 13.89 0 0 1 9.63 3.86" fill="none" stroke="#402b2b" stroke-width="2"/><path d="M418.07 439.55c.68-18.5-5-29.44-13.54-34.07s-28.8-10.48-29.48-10.6l-18.33 14.55-17.48-14.55c-.68.17-21.42 6-29.8 10.6-8.57 4.63-14.23 15.58-13.54 34.07.5 14.9-.5 38.34-.34 55.46h123c.03-17.12-1-40.57-.48-55.46z" fill="url(#H)"/><path d="M366.83 401.2L362 399l-5.48 10.1-5.46-10.1-5 2.22 7.2 11.65V495H360v-82.67z" class="F J"/><g class="B"><path d="M345.24 383.23c-.17 5 6.85 17.8 6.85 17.8l-12.16 11.8-3.93-17.1s3.93-10.44 9.24-12.5zm23.3 0c.17 5-7.7 18-7.7 18l12.85 11.64 3.94-17.28s-3.77-10.3-9.08-12.36zm-9.94 32.52a1.89 1.89 0 1 1-1.89-1.88 1.91 1.91 0 0 1 1.89 1.88zm0 17.45a1.89 1.89 0 1 1-1.89-1.88 1.8 1.8 0 0 1 1.89 1.88z"/><use xlink:href="#Z"/><use xlink:href="#Z" y="19"/></g><path d="M298.63,410.62s-18.16,48.78-19.53,56.83c-1.2,8,9.08,26.7,13.88,27.38,7,1,12.68-1,19.7-13,6.86-12,5.66-63.17,5.66-63.17Z" fill="url(#I)"/><path d="M318.5 413.87s-1.2 58.88-3.77 66.24a24.64 24.64 0 0 1-14.57 15.07h11.66s9.08-6 9.93-24c.52-10.78-1.37-45.2-2.4-56.65-.36-3.05-.85-.66-.85-.66z" class="F J"/><path d="M322.54 408.32l-19.7-8-4.1 10.16 19.7 8z" class="B"/><path d="M397 422.26s-7 33.38-7.54 47.07 0 25.5 0 25.5l5 .35 2.54-72.92z" class="F J"/><path d="M337.36 376c-9.43 0-12.5-4.62-14.4-11.64-.85-3.76-1.2-13.86-1.2-14.2h2.75c0 .17.34 10.27 1.2 13.7 1.72 6.68 4.3 10.1 13.54 9.4l.17 2.74zm19.36-93.07c-7.54-.7-24.85-.17-32.73 14.9 0 0 2.06 3.6 4.46 1.2 8.56-7.7 20.56-7.88 27.93-7.88 7.54 0 20.05 0 28.44 7.88 2.57 2.22 4.46-1.2 4.46-1.2-7.7-15.06-25.02-15.58-32.56-14.9z" class="B"/><path d="M397.33 334.62l-.5-13.35c-.35-5.65-1.2-14.9-3.1-19.86-6.17-16.94-26.2-20.2-36.67-20.2-10.62 0-31 3.26-37.18 20-1.7 4.8-2.57 13.35-3.1 19.17-.17 3.43-.34 14-.34 14h2.9s0-10.6.35-14a67 67 0 0 1 3.42-17.11c5.14-14.55 24.17-16.1 33.42-16.1 9.42 0 28.8 1.54 33.93 16.1a74.25 74.25 0 0 1 3.6 18.31c.17 2.9.34 13 .34 13z" fill="url(#J)"/><path d="M320.05 332.57h-3.77v16.1h3.77z" class="B"/><path d="M326.73 351.74h-4.28a3.81 3.81 0 0 1-3.77-3.77v-14.72a3.81 3.81 0 0 1 3.77-3.77h4.28a.81.81 0 0 1 .86.86v20.37a1 1 0 0 1-.86 1.03z" fill="url(#K)"/><path d="M314.74 350h-.17a1.54 1.54 0 0 1-1.55-1.54V332.4a1.54 1.54 0 0 1 1.55-1.54h.17a1.53 1.53 0 0 1 1.54 1.54v16.1a1.53 1.53 0 0 1-1.54 1.52z" fill="url(#L)"/><path d="M393.18 348.93H397v-16.1h-3.77z" class="B"/><path d="M386.7 352.08h4.3a3.8 3.8 0 0 0 3.77-3.77V333.6a3.8 3.8 0 0 0-3.77-3.76h-4.28a.81.81 0 0 0-.86.85v20.37a.86.86 0 0 0 .85 1.03z" fill="url(#M)"/><path d="M398.53 350.37h.17a1.53 1.53 0 0 0 1.54-1.54v-16.1a1.53 1.53 0 0 0-1.54-1.54h-.17a1.53 1.53 0 0 0-1.54 1.54v16.1a1.53 1.53 0 0 0 1.54 1.54z" fill="url(#N)"/><path d="M347.47 374.33c0 1.7-2.06 3.25-4.8 3.25-2.57 0-4.8-1.37-4.8-3.25s2.06-3.25 4.8-3.25c2.57 0 4.8 1.37 4.8 3.25z" fill="url(#O)"/><path d="M311.65 363.38h0a20.93 20.93 0 0 1 5.18-3.4l8.2-5c2.74-1.37 4.46 1 .5 4.45l-2.87 2.32 4.93-1.8c2.9-.85 4.28 1.9-.34 4.45-1.9 1.05-4.25 2.18-6.4 3.15l.73 2.33 2.74-2.4c4.3-2.9 6.52-.5 4.63 2.06-2.06 2.57-5.14 9.93-4.1 15.06.68 3.42.17 8.22-.7 12-.85 3.6-6.17 14.2-6.17 14.2l-13.7-4.8s3.08-3.25 2.57-11.13a28.53 28.53 0 0 0-2.21-8c-1.28-3.4-2.55-6.76-2.08-9.8.86-4.8 7.88-12.5 9.08-13.7z" fill="url(#P)" class="C"/><path d="M324 383.92a21 21 0 0 0-.34-7.19c-.34-2.4.17-5.48-.86-7.7a5.2 5.2 0 0 0-6.34-3.08c-4.28 1-6 3.26-6 3.26l5.15-1.9c2.57-.68 5.14-.5 6.16 2.57.52 1.88.86 4.45 1.2 6.33.18 1.37 1.2 7.37.35 7.54-.86 0-2.75-.52-3.6-3.6-.17.7-.35 5.3-.86 5.3-3.08-.35-3.43-2.74-3.6-5.3a36.49 36.49 0 0 0-.51-5.13c-1.2 1.88-4.1 3.6-5.3 4.45 1.37 1.2 3.94 4.1 5 5.3a17.65 17.65 0 0 1 3.94 9.25c4.62-4.45 2.05-9.08 1.88-10.62 1.16 1.37 3.56 2.4 3.74.52z" fill="#eb5046" opacity=".3"/><path d="M518.3 383.92a4.51 4.51 0 0 0-4.8-4.45H386.88a4.73 4.73 0 0 0-4.8 4.45v78.73h136.06v-78.73z" fill="url(#Q)"/><g fill="#ca3f3a"><path d="M387.05 477.55h126.63a4.73 4.73 0 0 0 4.8-4.45v-10.27H382.42v10.27c-.17 2.4 2.06 4.45 4.63 4.45z"/><path d="M470.16 475.66h-33.93v16.1h33.93z"/></g><path d="M474.27 475.66h-33.93v16.1h33.93z" fill="url(#R)"/><path d="M468.6 490.2h-42v4.62h42z" fill="url(#S)"/><path d="M482.32 490.2h-42v4.62h42z" fill="url(#T)"/><path d="M525.33,383.92a4.5,4.5,0,0,0-4.79-4.45H394.08a4.73,4.73,0,0,0-4.8,4.45v78.73H525.33Z" fill="url(#U)"/><path d="M394.08 477.55H520.7a4.73 4.73 0 0 0 4.8-4.45v-10.27H389.45v10.27a4.36 4.36 0 0 0 4.63 4.45z" fill="url(#V)"/><path d="M469.64 413.87a12.34 12.34 0 1 1-12.33-12.32 12.28 12.28 0 0 1 12.33 12.32z" opacity=".2" class="B"/><path d="M354.66 490.2h-29.3v4.45h29.3z" fill="url(#W)"/><path d="M403.33 490.2H341.8v4.45h61.52z" fill="url(#X)"/><g clip-path="url(#Y)"><path d="M594 461h-80v34h80z" class="G"/><g fill="#f37753"><path d="M554.44 452.18v.07a86.22 86.22 0 0 1 4-8.78 112.25 112.25 0 0 1 9-14.22 93.69 93.69 0 0 1-6.31 14.9c-3.75 7.2-5.8 10.1-6.7 10.55v.4a71.59 71.59 0 0 1 7.7-7.72 129.41 129.41 0 0 1 13.91-10.79 103.72 103.72 0 0 1-11.45 12.16 87.18 87.18 0 0 1-8.52 7c1.72-1.06 4.4-2.53 8.33-4.48a147.37 147.37 0 0 1 16.57-7 117.56 117.56 0 0 1-14.8 8.73c-6.6 3.36-10.2 4.8-11.74 5.06v.3c1.4-.77 5-2 11.74-3.88a156.49 156.49 0 0 1 18-3.82 136.07 136.07 0 0 1-16.87 5.88c-3.12.86-5.6 1.5-7.56 1.94 2-.33 4.52-.68 7.75-1.06a153.6 153.6 0 0 1 18.65-1.17 139.85 139.85 0 0 1-18.13 3.4c-8.18 1-12.2 1.16-13.52.87v.2h-1v-.14a7.06 7.06 0 0 1-.79.14h-2.86a121.36 121.36 0 0 1-10-.88 162.12 162.12 0 0 1-18.15-3.34 152.42 152.42 0 0 1 18.65 1.18c3 .35 5.5.68 7.43 1-1.9-.44-4.3-1.05-7.24-1.86a128.21 128.21 0 0 1-16.86-5.89 158 158 0 0 1 18 3.83c7 1.92 10.52 3.17 11.84 3.94v-.35c-1.5-.25-5.08-1.7-11.84-5.07a116.86 116.86 0 0 1-14.8-8.72 147 147 0 0 1 16.58 7c3.66 1.82 6.26 3.22 8 4.28a87.72 87.72 0 0 1-8.24-6.85 104.1 104.1 0 0 1-11.44-12.16 115.92 115.92 0 0 1 13.9 10.79c3 2.74 5.1 4.77 6.43 6.23a75.34 75.34 0 0 1-5.54-9.37 93.56 93.56 0 0 1-6.31-14.91 101 101 0 0 1 9 14.22 70.29 70.29 0 0 1 4.24 9.34v-.92c-.53-1.22-.9-4.73-.9-11.75a99.14 99.14 0 0 1 1.41-16.42 99.14 99.14 0 0 1 1.38 16.38c-.05 7-.38 10.57-.94 11.75zm-1 2.87a1.09 1.09 0 0 1-.58-.34l.58.72zm0 1.86a4.32 4.32 0 0 1-1-.42l1 .67zm1 0a22.34 22.34 0 0 1 1-.7 4.73 4.73 0 0 1-1 .49zm-1 2.68a8.11 8.11 0 0 1-1.37-.07 7.46 7.46 0 0 1 1.37.45zm1 .22a10.34 10.34 0 0 1 1.8-.56 10.9 10.9 0 0 1-1.8.15z" class="C"/><path d="M548.62 460.73h-18.44c2.86-.2 6.3-.3 10-.3s6.37.1 8.44.3zm10.56 0h18.45c-2.87-.2-6.32-.4-10-.3l-8.45.3z"/></g></g><path d="M474.48,238.05a20,20,0,0,0-20-20H379a20,20,0,0,0-20,20v10.4a20,20,0,0,0,20,20h95.48Z" class="B"/><g fill="#f4a984"><ellipse cx="451.81" cy="242.3" rx="3.72" ry="3.67"/><ellipse cx="436.33" cy="242.3" rx="3.72" ry="3.67"/><ellipse cx="420.85" cy="242.3" rx="3.72" ry="3.67"/><ellipse cx="405.36" cy="242.3" rx="3.72" ry="3.67"/><ellipse cx="389.88" cy="242.3" rx="3.72" ry="3.67"/></g><path d="M427 299.05a20 20 0 0 1 20-20h112.62a20 20 0 0 1 20 20v26.6a20 20 0 0 1-20 20H427z" fill="#f69477"/><g class="B"><circle cx="461.57" cy="312.78" r="5.06" class="D"/><circle cx="482.65" cy="312.78" r="5.06" class="D"/><circle cx="503.73" cy="312.78" r="5.06" class="D"/><circle cx="524.81" cy="312.78" r="5.06" class="D"/><circle cx="545.89" cy="312.78" r="5.06" class="D"/></g></svg>