<?xml version="1.0" encoding="utf-8"?>
<!-- Generator: Adobe Illustrator 24.0.1, SVG Export Plug-In . SVG Version: 6.00 Build 0)  -->
<svg version="1.1" id="Layer_1" xmlns="http://www.w3.org/2000/svg" xmlns:xlink="http://www.w3.org/1999/xlink" x="0px" y="0px"
	 viewBox="0 0 720 720" style="enable-background:new 0 0 720 720;" xml:space="preserve">
<style type="text/css">
	.st0{fill:#FCDDD4;}
	.st1{fill:#FCDDD4;filter:url(#Adobe_OpacityMaskFilter);}
	.st2{mask:url(#A_1_);}
	.st3{opacity:0.7;fill:none;stroke:url(#SVGID_1_);stroke-width:2;enable-background:new    ;}
	.st4{fill:#F58A6B;}
	.st5{fill-rule:evenodd;clip-rule:evenodd;fill:url(#SVGID_2_);}
	.st6{fill-rule:evenodd;clip-rule:evenodd;fill:#F36F49;}
	.st7{fill-rule:evenodd;clip-rule:evenodd;fill:#FAFBFC;}
	.st8{opacity:0.8;fill:#F58A6B;enable-background:new    ;}
	.st9{fill-rule:evenodd;clip-rule:evenodd;fill:#F58A6B;}
	.st10{opacity:0.8;fill-rule:evenodd;clip-rule:evenodd;fill:#F36F49;enable-background:new    ;}
	.st11{opacity:0.2;fill:#EE4D47;enable-background:new    ;}
	.st12{fill:#EE4D47;}
	.st13{fill:#FAFBFC;}
	.st14{fill:#402B2B;}
	.st15{fill:url(#SVGID_3_);}
	.st16{fill:url(#SVGID_4_);}
	.st17{fill:url(#SVGID_5_);}
	.st18{fill:url(#SVGID_6_);}
	.st19{fill:#D87C60;}
	.st20{fill-rule:evenodd;clip-rule:evenodd;fill:#FFFFFF;}
	.st21{fill:#ED8A40;}
	.st22{fill:none;stroke:#402B2B;stroke-width:2;}
	.st23{fill:url(#SVGID_7_);}
	.st24{fill:#EE4D47;fill-opacity:0.3;}
	.st25{fill:#FFFFFF;}
	.st26{fill:url(#SVGID_8_);}
	.st27{fill:url(#SVGID_9_);}
	.st28{fill:url(#SVGID_10_);}
	.st29{fill:url(#SVGID_11_);}
	.st30{fill:url(#SVGID_12_);}
	.st31{fill:url(#SVGID_13_);}
	.st32{fill:url(#SVGID_14_);}
	.st33{fill-rule:evenodd;clip-rule:evenodd;fill:url(#SVGID_15_);}
	.st34{opacity:0.3;fill:#EB5046;enable-background:new    ;}
	.st35{fill:url(#SVGID_16_);}
	.st36{fill:#CA3F3A;}
	.st37{fill:url(#SVGID_17_);}
	.st38{fill:url(#SVGID_18_);}
	.st39{fill:url(#SVGID_19_);}
	.st40{fill:url(#SVGID_20_);}
	.st41{fill:url(#SVGID_21_);}
	.st42{opacity:0.2;fill:#FFFFFF;enable-background:new    ;}
	.st43{fill:url(#SVGID_22_);}
	.st44{fill:url(#SVGID_23_);}
	.st45{clip-path:url(#SVGID_25_);}
	.st46{fill-rule:evenodd;clip-rule:evenodd;fill:#F37753;}
	.st47{fill:#F37753;}
	.st48{fill:#F4A984;}
	.st49{fill:#F69477;}
	.st50{opacity:0.5;fill:#FFFFFF;enable-background:new    ;}
</style>
<g>
	<path class="st0" d="M312.4,102C195.8,22.4,10.2,112.6,23.2,302.4c22.1,323.7,247.6,361.3,444.9,323.7
		c258.1-49.2,317.6-344.4,79.3-323.7C356.1,319.1,458.1,201.5,312.4,102L312.4,102z"/>
	<defs>
		<filter id="Adobe_OpacityMaskFilter" filterUnits="userSpaceOnUse" x="-11.9" y="98.5" width="677.3" height="648.5">
			<feColorMatrix  type="matrix" values="1 0 0 0 0  0 1 0 0 0  0 0 1 0 0  0 0 0 1 0"/>
		</filter>
	</defs>
	<mask maskUnits="userSpaceOnUse" x="-11.9" y="98.5" width="677.3" height="648.5" id="A_1_">
		<path class="st1" d="M312.4,102C195.8,22.4,10.2,112.6,23.2,302.4c22.1,323.7,247.6,361.3,444.9,323.7
			c258.1-49.2,317.6-344.4,79.3-323.7C356.1,319.1,458.1,201.5,312.4,102L312.4,102z"/>
	</mask>
	<g class="st2">
		
			<linearGradient id="SVGID_1_" gradientUnits="userSpaceOnUse" x1="279.0988" y1="567.5204" x2="164.8441" y2="358.4808" gradientTransform="matrix(1 0 0 -1 0 721)">
			<stop  offset="0" style="stop-color:#F37753"/>
			<stop  offset="1" style="stop-color:#FFFFFF;stop-opacity:0"/>
		</linearGradient>
		<path class="st3" d="M-11.5,122.9c38.4-16.9,129-41.1,184.2-3.5C241.6,166.6,28.4,227.5,94,263.4s188.2-114.8,235.6-89
			s-120.6,95-71.7,131.2s192.2-122.1,251.5-92s-141.8,116.5-47,168.3"/>
		<path class="st4" d="M224.8,663.6c0-38.4,31.1-69.5,69.5-69.5h371.2V747H224.8V663.6z"/>
	</g>
	<g>
		
			<linearGradient id="SVGID_2_" gradientUnits="userSpaceOnUse" x1="144.5864" y1="612.8113" x2="210.7719" y2="159.6472" gradientTransform="matrix(1 0 0 -1 0 721)">
			<stop  offset="0" style="stop-color:#F7A58D"/>
			<stop  offset="1" style="stop-color:#F58A6B"/>
		</linearGradient>
		<path class="st5" d="M276.4,175.9l-86,14.2l-4.5-27.7c-0.5-2.4-2.8-4.1-5.3-3.7l-68.1,11.1c-2.4,0.5-4.1,2.8-3.7,5.3l4.6,27.7
			l-81,13.4c-2.1,0.4-3.5,2.3-3.3,4.4l55.5,338c0.4,2.1,2.3,3.5,4.4,3.3L333,521.7c2.1-0.4,3.5-2.3,3.3-4.4l-55.6-338
			c-0.2-2.1-2-3.6-4.1-3.4C276.5,175.9,276.4,175.9,276.4,175.9L276.4,175.9z"/>
		<path class="st6" d="M264.4,218.7L49.9,254c-1.9,0.3-3.1,2.1-2.8,3.9l48,292.5c0.3,1.9,2.1,3.1,4,2.8L313.6,518
			c1.8-0.3,3.1-2.1,2.8-3.9l-48-292.5C268,219.7,266.3,218.5,264.4,218.7L264.4,218.7z"/>
		<path class="st7" d="M263.7,208.4L54.4,242.7c-1.8,0.3-3,2-2.7,3.8c0,0,0,0.1,0,0.1l46.9,285.5c0.3,1.8,2,3,3.8,2.7
			c0,0,0.1,0,0.1,0L312,500.3c1.8-0.3,3-2,2.7-3.8c0,0,0-0.1,0-0.1l-46.9-285.5C267.3,209.1,265.5,208,263.7,208.4L263.7,208.4z"/>
	</g>
	<path class="st8" d="M256.1,220.7L65.6,252c-1,0.1-1.9,0.7-2.4,1.5c-0.5,0.8-0.7,1.8-0.7,2.8l43.3,263.4c0.1,1,0.7,1.9,1.5,2.4
		c0.8,0.5,1.8,0.7,2.8,0.7l190.5-31.2c1-0.1,1.9-0.7,2.4-1.5c0.5-0.8,0.7-1.8,0.7-2.8l-43.2-263.6c-0.1-1-0.7-1.9-1.5-2.4
		C258.1,220.9,257.1,220.6,256.1,220.7L256.1,220.7z M302.2,487.6c0.2,0.6,0,1.3-0.4,1.7c-0.4,0.5-0.9,0.8-1.5,0.9L110,521.6
		c-0.6,0.2-1.3,0-1.7-0.4c-0.5-0.4-0.8-0.9-0.9-1.5L64,256c-0.2-0.6,0-1.3,0.4-1.7c0.4-0.5,0.9-0.8,1.5-0.9L256.5,222
		c0.6-0.2,1.3,0,1.7,0.4c0.5,0.4,0.8,0.9,0.9,1.5L302.2,487.6z"/>
	<g>
		<path class="st7" d="M147.6,171.9c-4,0.7-6.8,4.5-6.1,8.5c0.7,4,4.5,6.8,8.5,6.1c4-0.7,6.8-4.5,6.1-8.5c0,0,0,0,0,0
			C155.4,174,151.6,171.3,147.6,171.9z"/>
		<path class="st9" d="M204.8,183.4l-107,17.5c-2.4,0.5-4.1,2.8-3.7,5.3l5,29.9c0.5,2.4,2.8,4.1,5.3,3.7l107-17.5
			c2.5-0.4,4.1-2.8,3.8-5.2l-4.9-30.1C209.6,184.5,207.2,183,204.8,183.4L204.8,183.4z"/>
		<path class="st10" d="M147.1,197.4l-40.8,6.7c-1.8,0.3-3.1,2.1-2.8,3.9l3.8,23.1c0.3,1.8,2.1,3.1,3.9,2.8l40.8-6.7
			c1.8-0.3,3.1-2.1,2.8-3.9l-3.9-23.1C150.7,198.4,149,197.1,147.1,197.4L147.1,197.4z"/>
	</g>
	<g>
		<path class="st11" d="M141.4,272.9l0.5,2.9l112-18.4l-0.5-2.9L141.4,272.9z M142.6,280.2l0.5,2.9l112.1-18.4l-0.5-2.9L142.6,280.2
			z M199.8,278l0.5,2.9l56.1-9.2l-0.5-2.9L199.8,278z M143.8,287.3l0.5,2.9l52.5-8.6l-0.5-2.9L143.8,287.3z M149.2,320.4l0.5,2.9
			l112.1-18.4l-0.5-2.9L149.2,320.4z M150.4,327.7l0.5,2.9l112.1-18.4l-0.5-2.9L150.4,327.7z M207.6,325.5l0.5,2.9l56.1-9.2
			l-0.5-2.9L207.6,325.5z M151.5,334.8l0.5,2.9l52.6-8.6l-0.5-2.9L151.5,334.8z M156.2,363.1l0.5,2.9l112.1-18.4l-0.5-2.9
			L156.2,363.1z M157.4,370.3l0.5,2.9l112.1-18.4l-0.5-2.9L157.4,370.3z M214.6,368.2l0.5,2.9l56.1-9.2l-0.5-2.9L214.6,368.2z
			 M158.6,377.4l0.5,2.9l52.6-8.7l-0.5-2.9L158.6,377.4z M163.4,407l0.5,2.9l112.1-18.4l-0.5-2.9L163.4,407z M164.6,414.4l0.5,2.9
			l112.1-18.4l-0.5-2.9L164.6,414.4z M221.9,412.2l0.5,2.9l56.1-9.2L278,403L221.9,412.2z M165.8,421.5l0.5,2.9l52.6-8.6l-0.5-2.9
			L165.8,421.5z M170.5,450.6l0.5,2.9L283,435l-0.5-2.9L170.5,450.6z M171.7,457.8l0.5,2.9l112.1-18.4l-0.5-2.9L171.7,457.8z
			 M228.9,455.7l0.5,2.9l56.1-9.2l-0.5-2.9L228.9,455.7z M173,464.9l0.5,2.9l52.6-8.6l-0.5-2.9L173,464.9z M88.5,273.4l-1.4,0.2
			l0.2,1.4l4.2,25.6l0.2,1.4l1.4-0.2l27.5-4.5l1.4-0.2l-0.2-1.4l-4.2-25.6l-0.2-1.4l-1.4,0.2L88.5,273.4z M118.9,294.9l-25,4
			l-3.9-23.1l24.9-4L118.9,294.9z M96.4,321.8L95,322l0.4,1.3l4.2,25.6l0.2,1.4l1.4-0.2l27.5-4.5l1.4-0.2l-0.2-1.4l-4.2-25.6
			l-0.2-1.4l-1.4,0.2L96.4,321.8z M126.8,343.3l-24.8,4l-3.9-23.1l24.8-4L126.8,343.3z M104.1,368.2l-1.4,0.2l0.2,1.4l4.2,25.6
			l0.2,1.4l1.4-0.2l27.5-4.5l1.4-0.2l-0.2-1.4l-4.2-25.6l-0.2-1.4l-1.4,0.2L104.1,368.2z M134.4,389.7l-24.8,4l-3.9-23.1l24.8-4
			L134.4,389.7z M111.8,414.9l-1.4,0.2l0.2,1.4l4.3,25.8l0.2,1.4l1.4-0.2l27.5-4.5l1.4-0.2l-0.2-1.4l-4.2-25.6l-0.2-1.4l-1.4,0.2
			L111.8,414.9z M142.2,436.4l-24.8,4l-3.9-23.1l24.9-4L142.2,436.4z M119.2,459.9l-1.4,0.2l0.2,1.4l4.2,25.6l0.2,1.4l1.4-0.2
			l27.5-4.5l1.4-0.2l-0.2-1.4l-4.2-25.6l-0.2-1.4l-1.4,0.2L119.2,459.9z M149.6,481.2l-24.9,4l-3.9-23.1l24.8-4L149.6,481.2z"/>
		<path class="st12" d="M105.7,285.7l-14.4-8.6l-1.6,2.6l17,10l0.7-1.3l19.5-31.4l-2.5-1.5L105.7,285.7z"/>
	</g>
	<path class="st4" d="M113.9,335.4l-14.4-8.6l-1.6,2.6l15.8,9.2l1.2,0.6l0.8-1.1l19.4-31.6l-2.5-1.4L113.9,335.4z M129.5,430.3
		l-14.5-8.5l-1.5,2.6l16.9,10l0.7-1.3l19.6-31.5l-2.6-1.6L129.5,430.3z"/>
	<g>
		<path class="st7" d="M88.7,577.7c-1.5,0.4-2.4,1.9-2,3.4c0.4,1.5,1.9,2.4,3.4,2c1.5-0.4,2.4-1.9,2-3.4c0,0,0,0,0-0.1
			C91.7,578.2,90.2,577.3,88.7,577.7C88.7,577.6,88.7,577.7,88.7,577.7z"/>
		<path class="st13" d="M129.5,566c1-0.5,1.5-1.7,1-2.7c-0.5-1-1.7-1.5-2.7-1c-1,0.5-1.4,1.7-1,2.7C127.2,566,128.5,566.5,129.5,566
			C129.5,566,129.5,566,129.5,566z M186.2,549.2c0.8-0.2,1.3-1.1,1.1-1.9c-0.2-0.8-1.1-1.3-1.9-1.1c-0.8,0.2-1.3,1.1-1.1,1.9
			C184.6,548.9,185.4,549.4,186.2,549.2z"/>
		<path class="st7" d="M215.7,543.4c-1.3,0.3-2,1.7-1.7,2.9c0.3,1.3,1.7,2,2.9,1.7c1.3-0.3,2-1.7,1.7-2.9c0,0,0,0,0,0
			C218.3,543.9,217,543.1,215.7,543.4z M260.6,533.4c-0.5,0.1-0.7,0.6-0.6,1c0.1,0.5,0.6,0.7,1,0.6c0.5-0.1,0.7-0.6,0.6-1
			c0,0,0,0,0,0C261.7,533.4,261.1,533.2,260.6,533.4z M353.2,503.1c-0.7,0.2-1.2,0.9-1,1.7c0.2,0.7,0.9,1.2,1.7,1
			c0.7-0.2,1.2-0.9,1-1.7c0,0,0,0,0,0c-0.1-0.7-0.8-1.1-1.4-1C353.3,503,353.3,503,353.2,503.1z"/>
	</g>
	<path class="st14" d="M299.8,469.7c-60.6,0-29.9-87.6-7-131.4c12.3-9.3,42.4-27.9,64.6-28.5c22.2-0.6,36.1,27.1,40.3,41
		c-2.5,0.2-5.1,10.8,4.9,51.4c10,40.6,5.1,61.9,1.4,67.4H299.8z"/>
	
		<linearGradient id="SVGID_3_" gradientUnits="userSpaceOnUse" x1="345.658" y1="281.576" x2="341.4181" y2="328.5494" gradientTransform="matrix(1 0 0 -1 0 721)">
		<stop  offset="0" style="stop-color:#FFB3B6"/>
		<stop  offset="1" style="stop-color:#FFC8C1"/>
	</linearGradient>
	<path class="st15" d="M363.2,448.9c-5.7-10-1.4-25.4-1.4-25.4l-17.6,3.6l-17.6-3.6c1.3,5,1.8,10.3,1.4,15.5
		C334.2,446,348.5,459.4,363.2,448.9L363.2,448.9z"/>
	
		<linearGradient id="SVGID_4_" gradientUnits="userSpaceOnUse" x1="329.352" y1="295.9466" x2="369.3051" y2="281.5585" gradientTransform="matrix(1 0 0 -1 0 721)">
		<stop  offset="0" style="stop-color:#FFB3B6;stop-opacity:0.3"/>
		<stop  offset="1" style="stop-color:#FFC8C1"/>
	</linearGradient>
	<path class="st16" d="M360.7,429c-4.5,2.6-9.2,4.7-14.2,6.1c-6,1.9-12.2,2.8-18.5,2.8c0.2-4.9-0.3-9.8-1.5-14.5l17.6,3.6l17.6-3.6
		C361.3,425.3,361,427.1,360.7,429L360.7,429z"/>
	
		<linearGradient id="SVGID_5_" gradientUnits="userSpaceOnUse" x1="350.966" y1="203.5701" x2="342.4443" y2="291.4282" gradientTransform="matrix(1 0 0 -1 0 721)">
		<stop  offset="0" style="stop-color:#FFB3B6"/>
		<stop  offset="1" style="stop-color:#FFFFFF"/>
	</linearGradient>
	<path class="st17" d="M301.1,462.9c10.2,9,30.5,28.8,43.3,28.8c12.9,0,35.7-18.8,46-27.8c-5-1.9-20.2-7.9-23.8-11
		c-1.2-1.2-2.3-2.5-3.1-4c-14.8,10.5-29.1-2.8-35.3-10.2c-0.5,5.2-1.9,10.5-5.9,14C318.2,456,305.8,461,301.1,462.9L301.1,462.9z"/>
	
		<linearGradient id="SVGID_6_" gradientUnits="userSpaceOnUse" x1="349.3278" y1="295.1849" x2="341.1537" y2="365.5687" gradientTransform="matrix(1 0 0 -1 0 721)">
		<stop  offset="0" style="stop-color:#FFB3B6"/>
		<stop  offset="1" style="stop-color:#FFC8C1"/>
	</linearGradient>
	<path class="st18" d="M392.7,369.4c-1.7-3.1-4.3-3.6-6-3.1l-8.1-26.4c-11.2-5.2-21.7-9.7-34.3-10.7V329h-7.1
		c-7.8,0-15.6,0.7-23.3,1.9c-1.9,0.6-3.8,0.9-5.7,1c-2.4,12.6-6.4,34.8-8.1,34.5h-0.2c-0.2,0-0.2,0-0.5-0.3c-1.7-0.5-3.6,0-5.3,2.9
		c-2.8,5.2,0,15.7,3.8,18.8c1.9,1.4,3.6,2.6,4.8,3.3c1.9,9.5,5.2,18.6,10.2,24c13.1,14,25.3,17.1,28.6,17.6h1.4
		c2.4-0.2,15.5-2.6,29.5-17.8c5-5.2,8.6-9,10.7-23.1c1.9-1.1,3.6-2.4,5.2-3.8C392.7,385.1,395.5,374.7,392.7,369.4L392.7,369.4z"/>
	<path class="st19" d="M344,382.8c0,0,0.2,5.4-1.3,7.1s-4.2,3.5-4.4,4.8c-0.3,1.1,0.9,2.9,2.9,3.4s2.3,1.2,2.3,1.2s-3.7,1.1-6-1.4
		c-2.3-2.5-0.6-5,1.1-6.6c1.1-0.9,2.2-2,3.2-3.1C342.7,387.3,344,382.8,344,382.8L344,382.8z M358.3,406.4h-28.8
		c-0.7,0-1.3,0.6-1.3,1.3c0,0.2,0,0.3,0.1,0.5c2,4.6,7,11.4,15.3,11.4c8.3,0,13.6-6.7,15.9-11.4c0.3-0.6,0-1.4-0.6-1.7
		C358.7,406.5,358.5,406.4,358.3,406.4L358.3,406.4z"/>
	<path class="st20" d="M358.2,410.6h-28.7c-0.5-0.8-0.9-1.6-1.2-2.4c-0.3-0.7,0-1.4,0.7-1.7c0.2-0.1,0.3-0.1,0.5-0.1h28.8
		c0.7,0,1.3,0.5,1.3,1.2c0,0.2,0,0.4-0.1,0.6C359.1,409,358.7,409.8,358.2,410.6L358.2,410.6z"/>
	<path class="st14" d="M371.6,311.8c35.5,4.5,27.1,47.8,20.2,55.4l-5.1,8.6c-4.9-9.2-7.8-19.4-8.3-29.9
		c-5.3,3.5-21.3,10.4-42.4,10.4c-26.4,0-33.6,4.4-36.1,16.7c-6.2-13.8-10.5-41.7,4.8-57.4C325.6,293.8,357.3,288.5,371.6,311.8
		L371.6,311.8z"/>
	<path class="st21" d="M299.8,373l1.2,10.2c-2.4-1.5-3.9-3.9-4.3-6.7C296.5,373.7,297.7,371.8,299.8,373L299.8,373z M386.3,373
		l-1.2,10.2c2.4-1.5,3.9-3.9,4.3-6.7C389.7,373.7,388.7,371.8,386.3,373L386.3,373z"/>
	<path class="st14" d="M367.5,384.5c0,2.2-1.8,4-4,4s-4-1.8-4-4s1.8-4,4-4C365.7,380.4,367.5,382.2,367.5,384.5
		C367.5,384.5,367.5,384.5,367.5,384.5z M325.1,388.6c2.2,0,4-1.8,4-4s-1.8-4-4-4s-4,1.8-4,4S322.9,388.6,325.1,388.6L325.1,388.6z"
		/>
	<path class="st22" d="M314.5,377c3.5-3.5,8.3-5.5,13.3-5.7 M360.4,371.5c5,0,9.8,1.9,13.4,5.4"/>
	
		<linearGradient id="SVGID_7_" gradientUnits="userSpaceOnUse" x1="344.4007" y1="298.4075" x2="344.4007" y2="123.1641" gradientTransform="matrix(1 0 0 -1 0 721)">
		<stop  offset="0" style="stop-color:#F4A984"/>
		<stop  offset="1" style="stop-color:#EE4D47"/>
	</linearGradient>
	<path class="st23" d="M429.2,516.9c0.9-25.7-7-40.9-18.8-47.4c-11.9-6.4-40-14.6-41-14.7l-25.5,20.2l-24.3-20.2
		c-0.9,0.2-29.8,8.3-41.4,14.7c-11.9,6.4-19.8,21.7-18.8,47.4c0.7,20.7-0.7,53.3-0.5,77.1h171C429.9,570.2,428.5,537.6,429.2,516.9
		L429.2,516.9z"/>
	<path class="st24" d="M358,463.6l-6.7-3.1l-7.6,14l-7.6-14l-7,3.1l10,16.2V594h9.4V479.1L358,463.6z"/>
	<g>
		<path class="st25" d="M328,438.6c-0.2,7,9.5,24.7,9.5,24.7l-16.9,16.4l-5.5-23.8C315.1,456,320.6,441.5,328,438.6L328,438.6z
			 M360.4,438.6c0.2,7-10.7,25-10.7,25l17.9,16.2l5.5-24C373,455.8,367.8,441.5,360.4,438.6L360.4,438.6z M346.6,483.8
			c0,1.5-1.2,2.6-2.6,2.6c-1.5,0-2.6-1.2-2.6-2.6c0-1.5,1.2-2.6,2.6-2.6c0,0,0,0,0,0C345.4,481.2,346.5,482.4,346.6,483.8z
			 M346.6,508.1c0,1.5-1.2,2.6-2.6,2.6c-1.5,0-2.6-1.2-2.6-2.6c0-1.5,1.2-2.6,2.6-2.6c0,0,0,0,0,0c1.4-0.1,2.6,1,2.6,2.4
			C346.6,507.9,346.6,508,346.6,508.1z"/>
		<g>
			<path id="Z" class="st25" d="M346.6,531.9c0,1.5-1.2,2.6-2.6,2.6c-1.5,0-2.6-1.2-2.6-2.6c0-1.5,1.2-2.6,2.6-2.6c0,0,0,0,0,0
				C345.4,529.3,346.5,530.5,346.6,531.9z"/>
		</g>
		<g>
			<path id="Z_1_" class="st25" d="M346.6,558.3c0,1.5-1.2,2.6-2.6,2.6c-1.5,0-2.6-1.2-2.6-2.6c0-1.5,1.2-2.6,2.6-2.6c0,0,0,0,0,0
				C345.4,555.7,346.5,556.9,346.6,558.3z"/>
		</g>
	</g>
	
		<linearGradient id="SVGID_8_" gradientUnits="userSpaceOnUse" x1="263.2995" y1="271.4662" x2="263.2995" y2="123.6784" gradientTransform="matrix(1 0 0 -1 0 721)">
		<stop  offset="0" style="stop-color:#F4A984"/>
		<stop  offset="1" style="stop-color:#EE4D47"/>
	</linearGradient>
	<path class="st26" d="M263.2,476.7c0,0-25.2,67.8-27.1,79c-1.7,11.1,12.6,37.1,19.3,38.1c9.7,1.4,17.6-1.4,27.4-18.1
		c9.5-16.7,7.9-87.8,7.9-87.8L263.2,476.7z"/>
	<path class="st24" d="M290.8,481.2c0,0-1.7,81.9-5.2,92.1c-3.3,9.7-10.7,17.3-20.3,20.9h16.2c0,0,12.6-8.3,13.8-33.4
		c0.7-15-1.9-62.8-3.3-78.8C291.5,477.9,290.8,481.2,290.8,481.2z"/>
	<path class="st25" d="M296.4,473.5L269,462.4l-5.7,14.1l27.4,11.1L296.4,473.5z"/>
	<path class="st24" d="M399.9,492.9c0,0-9.7,46.4-10.5,65.4s0,35.4,0,35.4l7,0.5L399.9,492.9z"/>
	<path class="st25" d="M317,428.6c-13.1,0-17.4-6.4-20-16.2c-1.2-5.2-1.7-19.3-1.7-19.7h3.8c0,0.2,0.5,14.3,1.7,19
		c2.4,9.3,6,14,18.8,13.1l0.2,3.8L317,428.6z M343.9,299.2c-10.5-1-34.5-0.2-45.5,20.7c0,0,2.9,5,6.2,1.7c11.9-10.7,28.6-11,38.8-11
		c10.5,0,27.9,0,39.5,11c3.6,3.1,6.2-1.7,6.2-1.7C378.5,299,354.4,298.3,343.9,299.2L343.9,299.2z"/>
	
		<linearGradient id="SVGID_9_" gradientUnits="userSpaceOnUse" x1="344.1692" y1="441.3715" x2="344.1692" y2="347.9111" gradientTransform="matrix(1 0 0 -1 0 721)">
		<stop  offset="0" style="stop-color:#F4A984"/>
		<stop  offset="1" style="stop-color:#EE4D47"/>
	</linearGradient>
	<path class="st27" d="M400.4,371.1l-0.7-18.6c-0.5-7.9-1.7-20.7-4.3-27.6c-8.6-23.5-36.4-28.1-51-28.1c-14.8,0-43.1,4.5-51.7,27.8
		c-2.4,6.7-3.6,18.6-4.3,26.6c-0.2,4.8-0.5,19.5-0.5,19.5h4c0,0,0-14.7,0.5-19.5c0.5-8.1,2.1-16.1,4.8-23.8
		c7.1-20.2,33.6-22.4,46.5-22.4c13.1,0,40,2.1,47.2,22.4c2.7,8.2,4.4,16.8,5,25.5c0.2,4,0.5,18.1,0.5,18.1L400.4,371.1z"/>
	<path class="st25" d="M293,368.2h-5.2v22.4h5.2V368.2z"/>
	
		<linearGradient id="SVGID_10_" gradientUnits="userSpaceOnUse" x1="297.2525" y1="364.2455" x2="297.2525" y2="325.2932" gradientTransform="matrix(1 0 0 -1 0 721)">
		<stop  offset="0" style="stop-color:#F4A984"/>
		<stop  offset="1" style="stop-color:#EE4D47"/>
	</linearGradient>
	<path class="st28" d="M302.2,394.9h-5.9c-2.9,0-5.2-2.4-5.2-5.2v-20.5c0-2.9,2.4-5.2,5.2-5.2h5.9c0.6,0,1.2,0.4,1.2,1.1
		c0,0,0,0.1,0,0.1v28.3C303.5,394.1,303,394.8,302.2,394.9z"/>
	
		<linearGradient id="SVGID_11_" gradientUnits="userSpaceOnUse" x1="285.4558" y1="361.34" x2="285.4558" y2="327.7955" gradientTransform="matrix(1 0 0 -1 0 721)">
		<stop  offset="0" style="stop-color:#F4A984"/>
		<stop  offset="1" style="stop-color:#EE4D47"/>
	</linearGradient>
	<path class="st29" d="M285.6,392.4h-0.2c-1.2,0-2.1-0.9-2.2-2.1c0,0,0,0,0,0V368c0-1.2,1-2.1,2.1-2.1c0,0,0,0,0,0h0.2
		c1.2,0,2.1,0.9,2.1,2.1c0,0,0,0,0,0v22.4C287.7,391.5,286.8,392.5,285.6,392.4C285.6,392.5,285.6,392.5,285.6,392.4L285.6,392.4z"
		/>
	<path class="st25" d="M394.6,391h5.3v-22.4h-5.2L394.6,391z"/>
	
		<linearGradient id="SVGID_12_" gradientUnits="userSpaceOnUse" x1="390.6303" y1="363.7589" x2="390.6303" y2="324.8206" gradientTransform="matrix(1 0 0 -1 0 721)">
		<stop  offset="0" style="stop-color:#F4A984"/>
		<stop  offset="1" style="stop-color:#EE4D47"/>
	</linearGradient>
	<path class="st30" d="M385.6,395.3h6c2.9,0,5.2-2.4,5.2-5.2v-20.4c0-2.9-2.4-5.2-5.2-5.2h-5.9c-0.6,0-1.2,0.4-1.2,1.1
		c0,0,0,0.1,0,0.1v28.3c-0.1,0.6,0.3,1.3,0.9,1.4C385.5,395.3,385.5,395.3,385.6,395.3L385.6,395.3z"/>
	
		<linearGradient id="SVGID_13_" gradientUnits="userSpaceOnUse" x1="402.1806" y1="360.8674" x2="402.1806" y2="327.3228" gradientTransform="matrix(1 0 0 -1 0 721)">
		<stop  offset="0" style="stop-color:#F4A984"/>
		<stop  offset="1" style="stop-color:#EE4D47"/>
	</linearGradient>
	<path class="st31" d="M402.1,393h0.2c1.2,0,2.1-0.9,2.1-2.1c0,0,0,0,0,0v-22.4c0-1.2-0.9-2.1-2.1-2.1c0,0,0,0,0,0h-0.2
		c-1.2,0-2.1,0.9-2.1,2.1c0,0,0,0,0,0v22.4C399.9,392,400.9,392.9,402.1,393C402,393,402.1,393,402.1,393z"/>
	
		<linearGradient id="SVGID_14_" gradientUnits="userSpaceOnUse" x1="324.4081" y1="301.3546" x2="324.4081" y2="289.9692" gradientTransform="matrix(1 0 0 -1 0 721)">
		<stop  offset="0" style="stop-color:#F4A984"/>
		<stop  offset="1" style="stop-color:#EE4D47"/>
	</linearGradient>
	<path class="st32" d="M331.1,426.3c0,2.4-2.9,4.5-6.7,4.5c-3.6,0-6.7-1.9-6.7-4.5c0-2.6,2.9-4.5,6.7-4.5
		C328,421.7,331.1,423.6,331.1,426.3z"/>
	
		<linearGradient id="SVGID_15_" gradientUnits="userSpaceOnUse" x1="276.3408" y1="250.1021" x2="307.6194" y2="366.8754" gradientTransform="matrix(1 0 0 -1 0 721)">
		<stop  offset="0" style="stop-color:#FFB3B6"/>
		<stop  offset="0.24" style="stop-color:#FFC5C7"/>
		<stop  offset="1" style="stop-color:#FFFFFF"/>
	</linearGradient>
	<path class="st33" d="M281.3,411L281.3,411c2.2-1.9,4.6-3.5,7.2-4.7l11.4-7c3.8-1.9,6.2,1.4,0.7,6.2l-4,3.2l6.9-2.5
		c4-1.2,5.9,2.6-0.5,6.2c-2.6,1.5-5.9,3-8.9,4.4l1,3.2l3.8-3.3c6-4,9.1-0.7,6.4,2.9c-2.9,3.6-7.1,13.8-5.7,20.9
		c0.9,4.8,0.2,11.4-1,16.7c-1.2,5-8.6,19.7-8.6,19.7l-19-6.7c0,0,4.3-4.5,3.6-15.5c-0.5-3.8-1.5-7.6-3.1-11.1
		c-1.8-4.7-3.5-9.4-2.9-13.6C269.8,423.4,279.6,412.7,281.3,411L281.3,411z"/>
	<path class="st34" d="M298.5,439.6c0.4-3.3,0.3-6.7-0.5-10c-0.5-3.3,0.2-7.6-1.2-10.7c-1.4-3.5-5.2-5.4-8.8-4.3
		c-5.9,1.4-8.3,4.5-8.3,4.5l7.2-2.6c3.6-0.9,7.1-0.7,8.6,3.6c0.7,2.6,1.2,6.2,1.7,8.8c0.3,1.9,1.7,10.2,0.5,10.5c-1.2,0-3.8-0.7-5-5
		c-0.2,1-0.5,7.4-1.2,7.4c-4.3-0.5-4.8-3.8-5-7.4c-0.1-2.4-0.3-4.8-0.7-7.1c-1.7,2.6-5.7,5-7.4,6.2c1.9,1.7,5.5,5.7,7,7.4
		c3,3.7,4.9,8.1,5.5,12.9c6.4-6.2,2.8-12.6,2.6-14.8C294.9,440.8,298.2,442.2,298.5,439.6L298.5,439.6z"/>
	
		<linearGradient id="SVGID_16_" gradientUnits="userSpaceOnUse" x1="473.878" y1="-61.1293" x2="473.878" y2="613.2091" gradientTransform="matrix(1 0 0 -1 0 721)">
		<stop  offset="0" style="stop-color:#FFEDBA"/>
		<stop  offset="0.42" style="stop-color:#F16D5E"/>
		<stop  offset="0.65" style="stop-color:#EE4D47"/>
	</linearGradient>
	<path class="st35" d="M568.6,439.6c0-3.5-2.9-6.2-6.3-6.2c-0.1,0-0.2,0-0.3,0h-176c-3.5-0.1-6.5,2.7-6.7,6.2V549h189.1V439.6H568.6
		z"/>
	<g>
		<path class="st36" d="M386.1,569.8h176c3.5,0.1,6.5-2.7,6.7-6.2v-14.3H379.7v14.3C379.4,566.9,382.5,569.8,386.1,569.8
			L386.1,569.8z"/>
		<path class="st36" d="M501.6,567.1h-47.2v22.4h47.2V567.1z"/>
	</g>
	
		<linearGradient id="SVGID_17_" gradientUnits="userSpaceOnUse" x1="483.769" y1="86.4222" x2="483.769" y2="216.8469" gradientTransform="matrix(1 0 0 -1 0 721)">
		<stop  offset="0" style="stop-color:#FFEDBA"/>
		<stop  offset="1" style="stop-color:#EE4D47"/>
	</linearGradient>
	<path class="st37" d="M507.4,567.1h-47.2v22.4h47.2V567.1z"/>
	
		<linearGradient id="SVGID_18_" gradientUnits="userSpaceOnUse" x1="470.2775" y1="102.9094" x2="470.2775" y2="139.7487" gradientTransform="matrix(1 0 0 -1 0 721)">
		<stop  offset="0" style="stop-color:#FFEDBA"/>
		<stop  offset="1" style="stop-color:#EE4D47"/>
	</linearGradient>
	<path class="st38" d="M499.5,587.3h-58.4v6.4h58.4V587.3z"/>
	
		<linearGradient id="SVGID_19_" gradientUnits="userSpaceOnUse" x1="489.3505" y1="114.2671" x2="489.3505" y2="151.7318" gradientTransform="matrix(1 0 0 -1 0 721)">
		<stop  offset="0" style="stop-color:#FFEDBA"/>
		<stop  offset="1" style="stop-color:#EE4D47"/>
	</linearGradient>
	<path class="st39" d="M518.5,587.3h-58.4v6.4h58.4V587.3z"/>
	
		<linearGradient id="SVGID_20_" gradientUnits="userSpaceOnUse" x1="483.769" y1="96.2783" x2="483.769" y2="397.4286" gradientTransform="matrix(1 0 0 -1 0 721)">
		<stop  offset="0" style="stop-color:#FFEDBA"/>
		<stop  offset="1" style="stop-color:#EE4D47"/>
	</linearGradient>
	<path class="st40" d="M578.3,439.6c0-3.5-2.9-6.2-6.3-6.2c-0.1,0-0.2,0-0.3,0H395.9c-3.5-0.1-6.5,2.7-6.7,6.2V549h189.1V439.6z"/>
	
		<linearGradient id="SVGID_21_" gradientUnits="userSpaceOnUse" x1="484.0045" y1="110.0132" x2="484.0045" y2="229.3305" gradientTransform="matrix(1 0 0 -1 0 721)">
		<stop  offset="0" style="stop-color:#FFEDBA"/>
		<stop  offset="1" style="stop-color:#EE4D47"/>
	</linearGradient>
	<path class="st41" d="M395.9,569.8h176c3.5,0.1,6.5-2.7,6.7-6.2v-14.3H389.4v14.3c-0.1,3.3,2.6,6.1,5.9,6.2
		C395.5,569.8,395.7,569.8,395.9,569.8L395.9,569.8z"/>
	<path class="st42" d="M500.9,481.2c0,9.5-7.7,17.2-17.1,17.2c-9.5,0-17.2-7.7-17.2-17.1c0-9.5,7.7-17.2,17.1-17.2c0,0,0,0,0,0
		c9.4,0,17.1,7.6,17.1,17C500.9,481.1,500.9,481.2,500.9,481.2z"/>
	
		<linearGradient id="SVGID_22_" gradientUnits="userSpaceOnUse" x1="320.7103" y1="104.0355" x2="320.7103" y2="139.5123" gradientTransform="matrix(1 0 0 -1 0 721)">
		<stop  offset="0" style="stop-color:#FFEDBA"/>
		<stop  offset="1" style="stop-color:#EE4D47"/>
	</linearGradient>
	<path class="st43" d="M341.1,587.3h-40.7v6.2h40.7V587.3z"/>
	
		<linearGradient id="SVGID_23_" gradientUnits="userSpaceOnUse" x1="365.9669" y1="133.6876" x2="365.9669" y2="160.6706" gradientTransform="matrix(1 0 0 -1 0 721)">
		<stop  offset="0" style="stop-color:#FFEDBA"/>
		<stop  offset="1" style="stop-color:#EE4D47"/>
	</linearGradient>
	<path class="st44" d="M408.7,587.3h-85.5v6.2h85.5L408.7,587.3z"/>
	<g>
		<defs>
			<rect id="SVGID_24_" x="562.6" y="495.4" width="111.2" height="98.7"/>
		</defs>
		<clipPath id="SVGID_25_">
			<use xlink:href="#SVGID_24_"  style="overflow:visible;"/>
		</clipPath>
		<g class="st45">
			<path class="st0" d="M673.8,546.7H562.6V594h111.2V546.7z"/>
			<g>
				<path class="st46" d="M618.8,534.5L618.8,534.5c1.6-4.1,3.5-8.1,5.6-12.1c3.7-6.9,7.9-13.5,12.5-19.8
					c-2.3,7.1-5.3,14.1-8.8,20.7c-5.2,10-8.1,14-9.3,14.7v0.6c3.3-3.8,6.9-7.4,10.7-10.7c6.1-5.4,12.6-10.4,19.3-15
					c-4.8,6.1-10.2,11.7-15.9,16.9c-3.7,3.5-7.7,6.7-11.8,9.7c2.4-1.5,6.1-3.5,11.6-6.2c7.5-3.7,15.2-7,23-9.7
					c-6.6,4.5-13.4,8.6-20.6,12.1c-9.2,4.7-14.2,6.7-16.3,7v0.4c1.9-1.1,7-2.8,16.3-5.4c8.2-2.3,16.6-4,25-5.3
					c-7.6,3.2-15.5,6-23.5,8.2c-4.3,1.2-7.8,2.1-10.5,2.7c2.8-0.5,6.3-0.9,10.8-1.5c8.6-1.1,17.3-1.6,25.9-1.6
					c-8.3,2.1-16.7,3.7-25.2,4.7c-11.4,1.4-17,1.6-18.8,1.2v0.3h-1.4v-0.2c-0.4,0.1-0.7,0.2-1.1,0.2h-4c-4.6-0.2-9.3-0.6-13.9-1.2
					c-8.5-1.1-16.9-2.6-25.2-4.6c8.7,0,17.3,0.6,25.9,1.6c4.2,0.5,7.6,0.9,10.3,1.4c-2.6-0.6-6-1.5-10.1-2.6
					c-8-2.2-15.8-4.9-23.4-8.2c8.4,1.3,16.8,3.1,25,5.3c9.7,2.7,14.6,4.4,16.5,5.5v-0.5c-2.1-0.3-7.1-2.4-16.5-7
					c-7.1-3.5-14-7.6-20.6-12.1c7.9,2.8,15.6,6,23,9.7c5.1,2.5,8.7,4.5,11.1,5.9c-4-2.9-7.8-6.1-11.5-9.5
					c-5.7-5.2-11.1-10.9-15.9-16.9c6.8,4.5,13.3,9.5,19.3,15c4.2,3.8,7.1,6.6,8.9,8.7c-2.9-4.2-5.5-8.5-7.7-13
					c-3.5-6.6-6.5-13.6-8.8-20.7c4.7,6.2,8.9,12.8,12.5,19.8c2.3,4.2,4.2,8.5,5.9,13v-1.3c-0.7-1.7-1.3-6.6-1.3-16.3
					c0-7.7,0.7-15.3,2-22.8c1.3,7.5,1.9,15.1,1.9,22.8C620,527.9,619.6,532.8,618.8,534.5L618.8,534.5z M617.4,538.5
					c-0.3-0.1-0.6-0.2-0.8-0.5l0.8,1V538.5z M617.4,541.1c-0.5-0.1-1-0.3-1.4-0.6l1.4,0.9V541.1z M618.8,541.1
					c0.5-0.3,0.9-0.7,1.4-1c-0.4,0.3-0.9,0.5-1.4,0.7V541.1z M617.4,544.8c-0.6,0-1.3,0-1.9-0.1c0.7,0.1,1.3,0.4,1.9,0.6V544.8z
					 M618.8,545.1c0.8-0.3,1.6-0.6,2.5-0.8c-0.8,0.1-1.7,0.2-2.5,0.2V545.1z"/>
				<path class="st47" d="M610.7,546.4h-25.6c4-0.3,8.8-0.4,13.9-0.4C604.1,546,607.8,546.1,610.7,546.4z M625.4,546.4H651
					c-4-0.3-8.8-0.6-13.9-0.4L625.4,546.4z"/>
			</g>
		</g>
	</g>
	<path class="st25" d="M507.6,236.8c0-15.4-12.4-27.8-27.8-27.8H374.9c-15.4,0-27.8,12.4-27.8,27.8v14.5c0,15.4,12.4,27.8,27.8,27.8
		c0,0,0,0,0,0h132.7V236.8z"/>
	<g>
		<ellipse class="st48" cx="476.1" cy="242.7" rx="5.2" ry="5.1"/>
		<ellipse class="st48" cx="454.6" cy="242.7" rx="5.2" ry="5.1"/>
		<ellipse class="st48" cx="433.1" cy="242.7" rx="5.2" ry="5.1"/>
		<ellipse class="st48" cx="411.6" cy="242.7" rx="5.2" ry="5.1"/>
		<ellipse class="st48" cx="390" cy="242.7" rx="5.2" ry="5.1"/>
	</g>
	<path class="st49" d="M441.6,321.6c0-15.4,12.4-27.8,27.8-27.8H626c15.4,0,27.8,12.4,27.8,27.8v37c0,15.4-12.4,27.8-27.8,27.8
		H441.6V321.6z"/>
	<g>
		<circle class="st50" cx="489.7" cy="340.7" r="7"/>
		<circle class="st50" cx="519" cy="340.7" r="7"/>
		<circle class="st50" cx="548.3" cy="340.7" r="7"/>
		<circle class="st50" cx="577.6" cy="340.7" r="7"/>
		<circle class="st50" cx="606.9" cy="340.7" r="7"/>
	</g>
</g>
</svg>
