<svg xmlns="http://www.w3.org/2000/svg" xmlns:xlink="http://www.w3.org/1999/xlink" viewBox="0 0 960 800">
  <defs>
    <mask id="a" x="11.95" y="42.57" width="894.92" height="850.48" maskUnits="userSpaceOnUse">
      <path d="M420.94,79.12C273.81-21.34,39.72,92.52,56.08,332,84,740.44,368.55,787.88,617.4,740.44,943,678.36,1018.17,305.84,717.49,332,476.18,353.07,604.85,204.7,420.94,79.12Z" fill="#fcddd4"/>
    </mask>
    <linearGradient id="b" x1="379.02" y1="657.7" x2="235.09" y2="394.38" gradientTransform="matrix(1, 0, 0, -1, 0, 802)" gradientUnits="userSpaceOnUse">
      <stop offset="0" stop-color="#f37753"/>
      <stop offset="1" stop-color="#fff" stop-opacity="0"/>
    </linearGradient>
    <linearGradient id="c" x1="209.2" y1="715.02" x2="292.71" y2="143.21" gradientTransform="matrix(1, 0, 0, -1, 0, 802)" gradientUnits="userSpaceOnUse">
      <stop offset="0" stop-color="#f7a58d"/>
      <stop offset="1" stop-color="#f58a6b"/>
    </linearGradient>
    <linearGradient id="d" x1="462.92" y1="297.06" x2="457.56" y2="356.32" gradientTransform="matrix(1, 0, 0, -1, 0, 802)" gradientUnits="userSpaceOnUse">
      <stop offset="0" stop-color="#ffb3b6"/>
      <stop offset="1" stop-color="#ffc8c1"/>
    </linearGradient>
    <linearGradient id="e" x1="442.4" y1="315.21" x2="492.8" y2="297.06" gradientTransform="matrix(1, 0, 0, -1, 0, 802)" gradientUnits="userSpaceOnUse">
      <stop offset="0" stop-color="#ffb3b6" stop-opacity="0.31"/>
      <stop offset="1" stop-color="#ffc8c1"/>
    </linearGradient>
    <linearGradient id="f" x1="469.66" y1="198.63" x2="458.91" y2="309.5" gradientTransform="matrix(1, 0, 0, -1, 0, 802)" gradientUnits="userSpaceOnUse">
      <stop offset="0" stop-color="#ffb3b6"/>
      <stop offset="1" stop-color="#fff"/>
    </linearGradient>
    <linearGradient id="g" x1="467.57" y1="314.23" x2="457.25" y2="403.04" xlink:href="#d"/>
    <linearGradient id="h" x1="461.38" y1="318.3" x2="461.38" y2="97.18" gradientTransform="matrix(1, 0, 0, -1, 0, 802)" gradientUnits="userSpaceOnUse">
      <stop offset="0" stop-color="#f4a984"/>
      <stop offset="1" stop-color="#ee4d47"/>
    </linearGradient>
    <linearGradient id="i" x1="359.03" y1="284.3" x2="359.03" y2="97.82" xlink:href="#h"/>
    <linearGradient id="j" x1="461.1" y1="498.69" x2="461.1" y2="380.76" xlink:href="#h"/>
    <linearGradient id="k" x1="401.88" y1="401.37" x2="401.88" y2="352.23" xlink:href="#h"/>
    <linearGradient id="l" x1="387" y1="397.72" x2="387" y2="355.38" xlink:href="#h"/>
    <linearGradient id="m" x1="519.68" y1="400.77" x2="519.68" y2="351.63" xlink:href="#h"/>
    <linearGradient id="n" x1="534.29" y1="397.12" x2="534.29" y2="354.78" xlink:href="#h"/>
    <linearGradient id="o" x1="436.15" y1="322.01" x2="436.15" y2="307.65" xlink:href="#h"/>
    <linearGradient id="p" x1="375.52" y1="257.35" x2="414.98" y2="404.7" gradientTransform="matrix(1, 0, 0, -1, 0, 802)" gradientUnits="userSpaceOnUse">
      <stop offset="0" stop-color="#ffb3b6"/>
      <stop offset="0.24" stop-color="#ffc5c7"/>
      <stop offset="1" stop-color="#fff"/>
    </linearGradient>
    <linearGradient id="q" x1="624.77" y1="-135.37" x2="624.77" y2="715.52" gradientTransform="matrix(1, 0, 0, -1, 0, 802)" gradientUnits="userSpaceOnUse">
      <stop offset="0" stop-color="#ffedba"/>
      <stop offset="0.42" stop-color="#f16d5e"/>
      <stop offset="0.65" stop-color="#ee4d47"/>
    </linearGradient>
    <linearGradient id="r" x1="637.24" y1="50.81" x2="637.24" y2="215.38" gradientTransform="matrix(1, 0, 0, -1, 0, 802)" gradientUnits="userSpaceOnUse">
      <stop offset="0" stop-color="#ffedba"/>
      <stop offset="1" stop-color="#ee4d47"/>
    </linearGradient>
    <linearGradient id="s" x1="620.25" y1="71.61" x2="620.25" y2="118.09" xlink:href="#r"/>
    <linearGradient id="t" x1="644.3" y1="85.95" x2="644.3" y2="133.22" xlink:href="#r"/>
    <linearGradient id="u" x1="637.24" y1="63.24" x2="637.24" y2="443.25" xlink:href="#r"/>
    <linearGradient id="v" x1="637.53" y1="80.57" x2="637.53" y2="231.14" xlink:href="#r"/>
    <linearGradient id="w" x1="431.49" y1="73.04" x2="431.49" y2="117.81" xlink:href="#r"/>
    <linearGradient id="x" x1="488.6" y1="110.44" x2="488.6" y2="144.5" xlink:href="#r"/>
    <clipPath id="y">
      <rect x="736.69" y="575.55" width="140.33" height="124.54" fill="none"/>
    </clipPath>
  </defs>
  <title>how-1</title>
  <path d="M420.94,79.12C273.82-21.34,39.72,92.52,56.08,332,84,740.44,368.55,787.88,617.41,740.44,943,678.36,1018.17,305.84,717.49,332,476.19,353.07,604.85,204.7,420.94,79.12Z" fill="#fcddd4"/>
  <g mask="url(#a)">
    <g>
      <path d="M12.35,105.59c48.47-21.28,162.8-51.95,232.37-4.37,87,59.48-182.06,136.37-99.27,181.62S382.94,138,442.73,170.64,290.59,290.52,352.26,336.17,594.78,182.09,669.62,220s-178.93,147-59.34,212.4" fill="none" stroke-width="2" opacity="0.7" stroke="url(#b)" style="isolation: isolate"/>
      <path d="M310.43,787.8a87.71,87.71,0,0,1,87.71-87.71H866.5v193H310.43Z" fill="#f58a6b"/>
    </g>
  </g>
  <path d="M112.85,357.38a39.39,39.39,0,0,1,6.89,7.32l4.62-6.15a60,60,0,0,0-6.88-6.44Z" fill="#3e1a0b" fill-rule="evenodd"/>
  <path d="M127.82,368.13a9.25,9.25,0,0,0-13-3.45l-6.12,3.88a10.66,10.66,0,0,0-3.7,13.75,9.25,9.25,0,0,0,13,3.45l6.12-3.88A10.36,10.36,0,0,0,127.82,368.13Z" fill="#f69e9f" fill-rule="evenodd"/>
  <path d="M375.5,172.43,267.05,190.31l-5.78-34.93a5.91,5.91,0,0,0-6.63-4.71l-86,14.09a5.9,5.9,0,0,0-4.71,6.63l5.77,34.92L67.5,223.19a5,5,0,0,0-4.1,5.57l70,426.53a5,5,0,0,0,5.58,4.1L447,608.85a5,5,0,0,0,4.1-5.58L380.93,176.8A4.78,4.78,0,0,0,375.5,172.43Z" fill-rule="evenodd" fill="url(#c)"/>
  <path d="M360.46,226.47,89.73,271a4.34,4.34,0,0,0-3.58,5l60.62,369.07a4.35,4.35,0,0,0,5,3.59l270.72-44.57a4.37,4.37,0,0,0,3.59-5L365.44,230.05A4.34,4.34,0,0,0,360.46,226.47Z" fill="#f36f49" fill-rule="evenodd"/>
  <path d="M359.62,213.39,95.49,256.64a4.15,4.15,0,0,0-3.38,4.93l59.16,360.29a4.16,4.16,0,0,0,4.94,3.37l264.28-43.51a4.16,4.16,0,0,0,3.38-4.94L364.71,216.5A4.43,4.43,0,0,0,359.62,213.39Z" fill="#fafbfc" fill-rule="evenodd"/>
  <path d="M349.92,229,109.63,268.51a4,4,0,0,0-3.06,1.94,6,6,0,0,0-.83,3.58l54.61,332.42a4,4,0,0,0,1.94,3.06,5.94,5.94,0,0,0,3.58.83L406.21,571a4,4,0,0,0,3.06-1.94,5.94,5.94,0,0,0,.83-3.58L355.44,232.85a4,4,0,0,0-1.94-3.06A6,6,0,0,0,349.92,229Zm58.25,336.82a2.27,2.27,0,0,1-.54,2.15,3.65,3.65,0,0,1-1.92,1.19L165.63,608.61a2.24,2.24,0,0,1-2.16-.54,3.63,3.63,0,0,1-1.19-1.92L107.62,273.53a2.29,2.29,0,0,1,.54-2.16,3.65,3.65,0,0,1,1.92-1.19l240.29-39.55a2.3,2.3,0,0,1,2.16.54,3.7,3.7,0,0,1,1.18,1.92Z" fill="#f58a6b" opacity="0.8" style="isolation: isolate"/>
  <path d="M213,167.41a9.34,9.34,0,1,0,10.78,7.64A9.41,9.41,0,0,0,213,167.41Z" fill="#fafbfc" fill-rule="evenodd"/>
  <path d="M285.16,181.87,150.08,204a5.91,5.91,0,0,0-4.71,6.63l6.29,37.7A5.92,5.92,0,0,0,158.3,253l135.07-22.1a5.92,5.92,0,0,0,4.72-6.63l-6.15-38A6.09,6.09,0,0,0,285.16,181.87Z" fill="#f58a6b" fill-rule="evenodd"/>
  <path d="M212.46,199.56,161,208a4.36,4.36,0,0,0-3.58,5l4.89,29.12a4.37,4.37,0,0,0,5,3.59l51.46-8.42a4.36,4.36,0,0,0,3.58-5l-4.89-29.12A4.37,4.37,0,0,0,212.46,199.56Z" fill="#f36f49" fill-rule="evenodd" opacity="0.8" style="isolation: isolate"/>
  <path d="M205.29,294.83l.59,3.62,141.43-23.24-.6-3.63Z" fill="#ee4d47" opacity="0.2" style="isolation: isolate"/>
  <path d="M206.78,304l.59,3.62L348.8,284.38l-.6-3.62Z" fill="#ee4d47" opacity="0.2" style="isolation: isolate"/>
  <path d="M278.8,301.29l.6,3.63,70.82-11.64-.6-3.63Z" fill="#ee4d47" opacity="0.2" style="isolation: isolate"/>
  <path d="M208.26,312.94l.6,3.62,66.34-10.9-.6-3.63Z" fill="#ee4d47" opacity="0.2" style="isolation: isolate"/>
  <path d="M215,354.79l.6,3.63,141.42-23.25-.59-3.62Z" fill="#ee4d47" opacity="0.2" style="isolation: isolate"/>
  <path d="M216.53,364l.6,3.63,141.42-23.25-.59-3.63Z" fill="#ee4d47" opacity="0.2" style="isolation: isolate"/>
  <path d="M288.77,361.22l.6,3.63,70.82-11.64-.6-3.63Z" fill="#ee4d47" opacity="0.2" style="isolation: isolate"/>
  <path d="M218,372.9l.59,3.63L285,365.62l-.6-3.62Z" fill="#ee4d47" opacity="0.2" style="isolation: isolate"/>
  <path d="M223.91,408.58l.6,3.62L365.93,389l-.59-3.62Z" fill="#ee4d47" opacity="0.2" style="isolation: isolate"/>
  <path d="M225.4,417.75l.6,3.63,141.42-23.25-.59-3.62Z" fill="#ee4d47" opacity="0.2" style="isolation: isolate"/>
  <path d="M297.64,415l.6,3.63L369.06,407l-.6-3.63Z" fill="#ee4d47" opacity="0.2" style="isolation: isolate"/>
  <path d="M226.89,426.69l.59,3.62,66.34-10.9-.59-3.63Z" fill="#ee4d47" opacity="0.2" style="isolation: isolate"/>
  <path d="M233,464l.59,3.63L375,444.35l-.6-3.62Z" fill="#ee4d47" opacity="0.2" style="isolation: isolate"/>
  <path d="M234.51,473.36l.59,3.63,141.43-23.25-.6-3.62Z" fill="#ee4d47" opacity="0.2" style="isolation: isolate"/>
  <path d="M306.75,470.61l.59,3.63,70.82-11.64-.6-3.63Z" fill="#ee4d47" opacity="0.2" style="isolation: isolate"/>
  <path d="M236,482.3l.6,3.62L302.93,475l-.6-3.63Z" fill="#ee4d47" opacity="0.2" style="isolation: isolate"/>
  <path d="M241.91,519l.6,3.63,141.42-23.25-.59-3.62Z" fill="#ee4d47" opacity="0.2" style="isolation: isolate"/>
  <path d="M243.4,528.19l.6,3.63,141.42-23.25-.6-3.63Z" fill="#ee4d47" opacity="0.2" style="isolation: isolate"/>
  <path d="M315.64,525.44l.6,3.63,70.82-11.64-.6-3.63Z" fill="#ee4d47" opacity="0.2" style="isolation: isolate"/>
  <path d="M245.1,537.09l.6,3.62L312,529.81l-.6-3.63Z" fill="#ee4d47" opacity="0.2" style="isolation: isolate"/>
  <path d="M138.56,295.44l-1.73.24.24,1.73,5.31,32.36.24,1.73,1.73-.24,34.72-5.72,1.73-.24-.24-1.73-5.31-32.36-.24-1.73-1.73.24Zm38.36,27.09-31.53,5.09L140.5,298.5l31.32-5Z" fill="#ee4d47" opacity="0.2" style="isolation: isolate"/>
  <path d="M148.45,356.56l-1.73.24.45,1.67,5.31,32.37.24,1.72,1.73-.24,34.72-5.72,1.73-.24-.24-1.72-5.32-32.37-.23-1.72-1.73.23Zm38.36,27.09-31.32,5-4.9-29.12,31.33-5Z" fill="#ee4d47" opacity="0.2" style="isolation: isolate"/>
  <path d="M158.08,415.07l-1.73.24.24,1.72,5.32,32.37.24,1.72,1.72-.23,34.72-5.73,1.73-.24-.24-1.72-5.31-32.37-.24-1.72-1.73.24Zm38.37,27.09-31.33,5-4.89-29.12,31.32-5Z" fill="#ee4d47" opacity="0.2" style="isolation: isolate"/>
  <path d="M167.83,474l-1.73.24.24,1.73,5.37,32.57.24,1.72,1.72-.23,34.73-5.73,1.72-.24-.24-1.72L204.57,470l-.24-1.72-1.73.24Zm38.36,27.09-31.32,5L170,477l31.33-5Z" fill="#ee4d47" opacity="0.2" style="isolation: isolate"/>
  <path d="M177.22,530.77l-1.73.24.24,1.73,5.32,32.36.24,1.72,1.72-.23,34.72-5.73,1.73-.24-.24-1.72-5.31-32.37-.24-1.72-1.73.24Zm38.31,26.88-31.32,5-4.9-29.12,31.33-5Z" fill="#ee4d47" opacity="0.2" style="isolation: isolate"/>
  <path d="M160.16,310.91,142.05,300.1,140,303.34,159.91,315l1.59.91.92-1.59,24.5-39.68-3.17-1.83Z" fill="#ee4d47"/>
  <path d="M170.5,373.7l-18.12-10.81-2,3.24,19.91,11.67,1.53.71,1-1.38,24.45-39.9L194,335.4Z" fill="#f58a6b"/>
  <path d="M190.28,493.48,172,482.73l-1.84,3.18,19.71,11.72,1.59.92.91-1.59,24.72-39.74-3.24-2Z" fill="#f58a6b"/>
  <path d="M138.71,679.37a3.46,3.46,0,1,0,4.23,2.45A3.43,3.43,0,0,0,138.71,679.37Z" fill="#fafbfc" fill-rule="evenodd"/>
  <path d="M190.26,664.64a2.59,2.59,0,1,0-3.43-1.31A2.59,2.59,0,0,0,190.26,664.64Z" fill="#fafbfc"/>
  <path d="M261.81,643.48a1.95,1.95,0,1,0-2.39-1.38A1.95,1.95,0,0,0,261.81,643.48Z" fill="#fafbfc"/>
  <path d="M299,636.19a3,3,0,1,0,3.7,2.14A3.09,3.09,0,0,0,299,636.19Z" fill="#fafbfc" fill-rule="evenodd"/>
  <path d="M355.59,623.49a1.08,1.08,0,0,0,.56,2.09,1,1,0,0,0,.77-1.32C357,623.58,356.22,623.33,355.59,623.49Z" fill="#fafbfc" fill-rule="evenodd"/>
  <path d="M472.47,585.24a1.73,1.73,0,1,0,.89,3.34,1.69,1.69,0,0,0,1.22-2.11A1.57,1.57,0,0,0,472.47,585.24Z" fill="#fafbfc" fill-rule="evenodd"/>
  <path d="M667.36,249.28a35.08,35.08,0,0,0-35.08-35.09H499.88a35.09,35.09,0,0,0-35.09,35.09v18.24a35.09,35.09,0,0,0,35.09,35.09H667.36Z" fill="#fff"/>
  <circle cx="621.48" cy="258.96" r="6.71" fill="#f4a984"/>
  <circle cx="593.5" cy="258.96" r="6.71" fill="#f4a984"/>
  <circle cx="565.52" cy="258.96" r="6.71" fill="#f4a984"/>
  <circle cx="537.54" cy="258.96" r="6.71" fill="#f4a984"/>
  <circle cx="509.56" cy="258.96" r="6.71" fill="#f4a984"/>
  <path d="M405.15,543.1c-76.48,0-37.71-110.51-8.77-165.77,15.5-11.69,53.5-35.26,81.57-36s45.61,34.21,50.87,51.75c-3.21.29-6.49,13.68,6.14,64.9s6.43,78.06,1.75,85.08Z" fill="#402b2b"/>
  <path d="M485.14,516.86c-7.21-12.61-1.8-32.13-1.8-32.13l-22.25,4.5-22.24-4.5a59.76,59.76,0,0,1,1.81,19.52C448.47,513.25,466.51,530.07,485.14,516.86Z" fill="url(#d)"/>
  <path d="M482,491.76a80.37,80.37,0,0,1-17.9,7.73A74.37,74.37,0,0,1,440.75,503a60.23,60.23,0,0,0-1.9-18.27l22.25,4.5,22.24-4.5A60.21,60.21,0,0,0,482,491.76Z" fill="url(#e)"/>
  <path d="M406.69,534.57C419.62,546,445.17,570.9,461.4,570.9s45.08-23.72,58-35.13c-6.31-2.4-25.55-9.91-30.06-13.81a21,21,0,0,1-3.91-5.1C466.81,530.07,448.77,513.25,441,504c-.6,6.6-2.41,13.21-7.52,17.71C428.33,525.86,412.7,532.17,406.69,534.57Z" fill="url(#f)"/>
  <path d="M522.29,416.57c-2.11-3.9-5.41-4.5-7.52-3.9,0,0-6-19.22-10.22-33.33-14.12-6.61-27.35-12.31-43.28-13.51v-.3h-9c-9.92.3-19.84.6-29.45,2.4a30.28,30.28,0,0,1-7.22,1.2c-3,15.91-8.11,43.84-10.22,43.54h-.3c-.3,0-.3,0-.6-.3-2.1-.6-4.51,0-6.61,3.6-3.61,6.61,0,19.82,4.81,23.72,2.4,1.8,4.51,3.3,6,4.2,2.4,12,6.61,23.42,12.92,30.33,16.54,17.71,31.87,21.62,36.07,22.22h1.81c3-.3,19.53-3.3,37.27-22.52,6.31-6.61,10.82-11.41,13.53-29.12,1.8-.91,3.6-2.41,6.61-4.81C522.29,436.39,525.9,423.18,522.29,416.57Z" fill="url(#g)"/>
  <path d="M460.82,433.46s.23,6.77-1.6,9-5.3,4.38-5.58,6.05c-.34,1.35,1.12,3.71,3.65,4.29s2.95,1.49,2.95,1.49-4.68,1.37-7.61-1.74-.71-6.37,1.43-8.32a40.9,40.9,0,0,0,4-3.86C459.27,439.21,460.82,433.46,460.82,433.46Z" fill="#d87c60"/>
  <path d="M478.94,463.28H442.63a1.62,1.62,0,0,0-1.55,2.24c2.56,5.85,8.85,14.43,19.33,14.43s17.16-8.51,20-14.36A1.62,1.62,0,0,0,478.94,463.28Z" fill="#d87c60"/>
  <path d="M478.79,468.55H442.63a28.94,28.94,0,0,1-1.54-3,1.61,1.61,0,0,1,1.54-2.24h36.31a1.62,1.62,0,0,1,1.52,2.31A33.06,33.06,0,0,1,478.79,468.55Z" fill="#fff" fill-rule="evenodd"/>
  <path d="M495.66,343.91c44.79,5.7,34.27,60.35,25.55,70l-6.42,10.82c-3.22-5.55-9.83-20.87-10.53-37.71-6.72,4.38-26.84,13.15-53.5,13.15-33.33,0-42.46,5.52-45.61,21.05-7.81-17.41-13.19-52.65,6.05-72.47C437.65,321.09,477.63,314.48,495.66,343.91Z" fill="#402b2b"/>
  <path d="M405.19,421.07l1.5,12.92a11.74,11.74,0,0,1-5.41-8.41C401,422,402.48,419.57,405.19,421.07Z" fill="#ed8a40"/>
  <path d="M514.3,421.07,512.79,434a11.74,11.74,0,0,0,5.41-8.41C518.5,422,517.3,419.57,514.3,421.07Z" fill="#ed8a40"/>
  <path d="M490.55,435.67a5.11,5.11,0,1,1-5.11-5.1A5.06,5.06,0,0,1,490.55,435.67Z" fill="#402b2b"/>
  <path d="M437.05,440.78a5.11,5.11,0,1,0-5.11-5.11A5.11,5.11,0,0,0,437.05,440.78Z" fill="#402b2b"/>
  <path d="M423.64,426.2A24.43,24.43,0,0,1,440.37,419" fill="none" stroke="#402b2b" stroke-width="2"/>
  <path d="M481.6,419.24A24.41,24.41,0,0,1,498.5,426" fill="none" stroke="#402b2b" stroke-width="2"/>
  <path d="M568.4,602.73c1.2-32.43-8.71-51.64-23.74-59.75s-50.5-18.32-51.7-18.62l-32.17,25.52-30.65-25.52c-1.21.3-37.58,10.51-52.31,18.62-15,8.11-24.94,27.32-23.74,59.75.9,26.12-.9,67.26-.6,97.28H569.31C569.31,670,567.5,628.85,568.4,602.73Z" fill="url(#h)"/>
  <path d="M478.53,535.47l-8.42-3.9-9.62,17.71-9.62-17.71-8.71,3.9,12.62,20.42V700H466.5V555Z" fill="#ee4d47" fill-opacity="0.29"/>
  <path d="M440.66,504c-.3,8.7,12,31.22,12,31.22l-21.34,20.72-6.92-30S431.34,507.55,440.66,504Z" fill="#fff"/>
  <path d="M481.53,504c.3,8.7-13.52,31.52-13.52,31.52l22.54,20.42,6.91-30.33S490.85,507.55,481.53,504Z" fill="#fff"/>
  <path d="M464.1,561a3.31,3.31,0,1,1-3.3-3.3A3.33,3.33,0,0,1,464.1,561Z" fill="#fff"/>
  <path d="M464.1,591.62a3.31,3.31,0,1,1-3.3-3.3A3.15,3.15,0,0,1,464.1,591.62Z" fill="#fff"/>
  <path d="M464.1,621.65a3.31,3.31,0,1,1-3.3-3.31A3.33,3.33,0,0,1,464.1,621.65Z" fill="#fff"/>
  <path d="M464.1,655a3.31,3.31,0,1,1-3.3-3.3A3.33,3.33,0,0,1,464.1,655Z" fill="#fff"/>
  <path d="M358.9,552S327,637.56,324.63,651.67c-2.1,14.12,15.93,46.84,24.35,48,12.32,1.81,22.24-1.8,34.57-22.82,12-21,9.92-110.79,9.92-110.79Z" fill="url(#i)"/>
  <path d="M393.77,557.69s-2.11,103.29-6.62,116.2a43.15,43.15,0,0,1-25.55,26.42H382s15.93-10.51,17.44-42c.9-18.92-2.41-79.27-4.21-99.39C394.67,553.49,393.77,557.69,393.77,557.69Z" fill="#ee4d47" fill-opacity="0.29"/>
  <path d="M400.83,547.94,366.27,534l-7.21,17.81,34.56,14Z" fill="#fff"/>
  <path d="M531.43,572.4S519.11,631,518.21,655s0,44.73,0,44.73l8.71.6S529,595.22,531.43,572.4Z" fill="#ee4d47" fill-opacity="0.29"/>
  <path d="M426.83,491.33c-16.53,0-21.94-8.1-25.25-20.41-1.5-6.61-2.1-24.32-2.1-24.92h4.8c0,.3.61,18,2.11,24,3,11.71,7.51,17.71,23.74,16.51l.31,4.8Z" fill="#fff"/>
  <path d="M460.79,328c-13.22-1.2-43.58-.29-57.41,26.13,0,0,3.61,6.3,7.82,2.1,15-13.51,36.07-13.81,49-13.81,13.23,0,35.17,0,49.9,13.81,4.51,3.9,7.81-2.1,7.81-2.1C504.38,327.7,474,326.79,460.79,328Z" fill="#fff"/>
  <path d="M532,418.67s-.6-18.31-.9-23.42c-.6-9.91-2.1-26.12-5.41-34.83C514.9,330.7,479.73,325,461.4,325c-18.64,0-54.41,5.71-65.23,35.13-3,8.41-4.51,23.42-5.41,33.63-.3,6-.6,24.62-.6,24.62h5.11s0-18.61.6-24.62c.6-7.81,2.1-19.22,6-30,9-25.53,42.38-28.23,58.61-28.23,16.54,0,50.5,2.7,59.52,28.23,4.21,12,5.71,24.32,6.31,32.12.3,5.11.6,22.82.6,22.82Z" fill="url(#j)"/>
  <path d="M396.47,415.07h-6.61v28.22h6.61Z" fill="#fff"/>
  <path d="M408.19,448.7h-7.51a6.66,6.66,0,0,1-6.61-6.61V416.27a6.67,6.67,0,0,1,6.61-6.61h7.51a1.43,1.43,0,0,1,1.51,1.51V446.9A1.69,1.69,0,0,1,408.19,448.7Z" fill="url(#k)"/>
  <path d="M387.15,445.7h-.3a2.69,2.69,0,0,1-2.7-2.71V414.77a2.69,2.69,0,0,1,2.7-2.7h.3a2.69,2.69,0,0,1,2.71,2.7V443A2.69,2.69,0,0,1,387.15,445.7Z" fill="url(#l)"/>
  <path d="M524.75,443.78h6.61V415.56h-6.61Z" fill="#fff"/>
  <path d="M513.4,449.3h7.51a6.67,6.67,0,0,0,6.61-6.61V416.87a6.67,6.67,0,0,0-6.61-6.61H513.4a1.42,1.42,0,0,0-1.5,1.51V447.5A1.5,1.5,0,0,0,513.4,449.3Z" fill="url(#m)"/>
  <path d="M534.14,446.3h.3a2.69,2.69,0,0,0,2.7-2.71V415.37a2.69,2.69,0,0,0-2.7-2.7h-.3a2.69,2.69,0,0,0-2.71,2.7v28.22A2.69,2.69,0,0,0,534.14,446.3Z" fill="url(#n)"/>
  <path d="M444.56,488.33c0,3-3.6,5.71-8.41,5.71-4.51,0-8.42-2.41-8.42-5.71s3.61-5.7,8.42-5.7C440.66,482.63,444.56,485,444.56,488.33Z" fill="url(#o)"/>
  <path d="M381.74,469.12h0a37,37,0,0,1,9.08-5.94c5.53-3.58,12-7.65,14.37-8.77,4.81-2.4,7.81,1.8.9,7.81-1.5,1.3-3.24,2.69-5,4.07,3.76-1.44,7.08-2.68,8.66-3.17,5.11-1.5,7.51,3.3-.61,7.81-3.3,1.83-7.44,3.81-11.2,5.52l1.29,4.09s3.61-3.31,4.81-4.21c7.51-5.1,11.42-.9,8.11,3.61-3.61,4.5-9,17.41-7.21,26.42,1.2,6,.3,14.41-1.2,21-1.51,6.3-10.82,24.92-10.82,24.92l-24.05-8.41s5.41-5.7,4.51-19.52c-.27-4.52-2.07-9.29-3.87-14-2.25-5.95-4.48-11.86-3.65-17.2,1.51-8.41,13.83-21.92,15.93-24Z" fill-rule="evenodd" fill="url(#p)"/>
  <path d="M403.38,505.15c.6-7.51,0-9-.6-12.61-.6-4.21.3-9.61-1.5-13.52-2.1-4.2-5.41-6.6-11.12-5.4-7.52,1.8-10.52,5.7-10.52,5.7s6-2.4,9-3.3c4.5-1.2,9-.9,10.82,4.51.9,3.3,1.5,7.8,2.1,11.1.3,2.41,2.1,12.92.6,13.22-1.5,0-4.81-.9-6.31-6.31-.3,1.2-.6,9.31-1.5,9.31-5.41-.6-6-4.8-6.32-9.31a64,64,0,0,0-.9-9c-2.1,3.31-7.21,6.31-9.32,7.81a121.84,121.84,0,0,1,8.72,9.31,30.8,30.8,0,0,1,6.92,16.21c8.11-7.8,3.6-15.91,3.3-18.61C398.88,506.65,403.08,508.45,403.38,505.15Z" fill="#eb5046" opacity="0.3" style="isolation: isolate"/>
  <path d="M744.25,505.15c0-4.51-3.61-7.81-8.42-7.81H513.7c-4.51,0-8.42,3.6-8.42,7.81V643.27H743.94V505.15Z" fill="url(#q)"/>
  <path d="M514,669.39H736.13c4.51,0,8.42-3.6,8.42-7.81v-18H505.88v18C505.58,665.79,509.49,669.39,514,669.39Z" fill="#ca3f3a"/>
  <path d="M659.78,666.08H600.27v28.23h59.51Z" fill="#ca3f3a"/>
  <path d="M667,666.08H607.48v28.23H667Z" fill="url(#r)"/>
  <path d="M657.08,691.61H583.43v8.1h73.65Z" fill="url(#s)"/>
  <path d="M681.12,691.61H607.48v8.1h73.64Z" fill="url(#t)"/>
  <path d="M756.57,505.15c0-4.51-3.61-7.81-8.42-7.81H526.32c-4.5,0-8.41,3.6-8.41,7.81V643.27H756.57Z" fill="url(#u)"/>
  <path d="M526.32,669.39H748.45c4.51,0,8.42-3.6,8.42-7.81v-18H518.21v18C517.91,665.79,521.51,669.39,526.32,669.39Z" fill="url(#v)"/>
  <path d="M658.88,557.69a21.64,21.64,0,1,1-21.64-21.62A21.54,21.54,0,0,1,658.88,557.69Z" fill="#fff" opacity="0.2" style="isolation: isolate"/>
  <path d="M457.19,691.61h-51.4v7.8h51.4Z" fill="url(#w)"/>
  <path d="M542.55,691.61H434.64v7.8H542.55Z" fill="url(#x)"/>
  <g clip-path="url(#y)">
    <g>
      <path d="M877,640.4H736.69v59.52H877Z" fill="#fcddd4"/>
      <path d="M807.63,624.89V625a151.85,151.85,0,0,1,7.1-15.41,196.05,196.05,0,0,1,15.74-24.94,164,164,0,0,1-11.07,26.14c-6.58,12.63-10.18,17.72-11.77,18.49V630c1.91-2.5,6.11-6.8,13.5-13.53a227.4,227.4,0,0,1,24.4-18.92,183.27,183.27,0,0,1-20.07,21.33c-7.21,6.47-12,10.34-15,12.33,3-1.88,7.75-4.45,14.61-7.86a256.73,256.73,0,0,1,29.07-12.21,204.91,204.91,0,0,1-26,15.31c-11.59,5.89-17.87,8.4-20.59,8.88v.51c2.44-1.35,8.69-3.52,20.59-6.81a275.59,275.59,0,0,1,31.5-6.71,236.85,236.85,0,0,1-29.59,10.32c-5.47,1.52-9.84,2.63-13.27,3.4,3.47-.57,7.95-1.2,13.61-1.85a268.68,268.68,0,0,1,32.71-2.07A242.56,242.56,0,0,1,831.34,638c-14.35,1.8-21.41,2-23.71,1.53v.36H805.9v-.24a9,9,0,0,1-1.38.24h-5c-3.81-.17-9.52-.51-17.48-1.54a284.47,284.47,0,0,1-31.84-5.85,269.77,269.77,0,0,1,32.71,2.06c5.35.62,9.65,1.2,13,1.72-3.33-.76-7.52-1.84-12.69-3.26a225.28,225.28,0,0,1-29.58-10.33,278.28,278.28,0,0,1,31.49,6.71c12.19,3.38,18.45,5.57,20.76,6.91v-.6c-2.61-.44-8.91-3-20.76-8.89a204.91,204.91,0,0,1-26-15.31,257.12,257.12,0,0,1,29.07,12.22c6.43,3.19,11,5.65,14,7.49a147.85,147.85,0,0,1-14.37-12,182.89,182.89,0,0,1-20.08-21.33,203.65,203.65,0,0,1,24.4,18.92c5.28,4.81,8.93,8.38,11.28,10.94-2-2.61-5.15-7.78-9.72-16.44a164.28,164.28,0,0,1-11.07-26.15,176.61,176.61,0,0,1,15.74,25c4.19,8.13,6.49,13.35,7.44,16.38v-1.62c-.93-2.14-1.56-8.31-1.56-20.61a173.09,173.09,0,0,1,2.43-28.73,173.78,173.78,0,0,1,2.42,28.73C809.19,616.58,808.56,622.75,807.63,624.89Zm-1.73,5a2,2,0,0,1-1-.6c.39.48.73.9,1,1.28Zm0,3.27a7.53,7.53,0,0,1-1.65-.73q1,.66,1.65,1.17Zm1.73,0c.48-.37,1.06-.78,1.77-1.23a9.48,9.48,0,0,1-1.77.86Zm-1.73,4.69a13.84,13.84,0,0,1-2.39-.12,13.53,13.53,0,0,1,2.39.78Zm1.73.39a18.54,18.54,0,0,1,3.16-1,19.16,19.16,0,0,1-3.16.27Z" fill="#f37753" fill-rule="evenodd"/>
      <path d="M797.42,639.88H765.06c5-.34,11.08-.51,17.48-.51C788.77,639.37,793.79,639.54,797.42,639.88Z" fill="#f37753"/>
      <path d="M815.94,639.88H848.3c-5-.34-11.08-.68-17.48-.51S819.57,639.71,815.94,639.88Z" fill="#f37753"/>
    </g>
  </g>
  <path d="M584.08,356.28a35.07,35.07,0,0,1,35.08-35.08H816.71a35.07,35.07,0,0,1,35.08,35.08V403a35.08,35.08,0,0,1-35.08,35.09H584.08Z" fill="#f69477"/>
  <circle cx="644.72" cy="380.36" r="8.87" fill="#fff" opacity="0.5" style="isolation: isolate"/>
  <circle cx="681.7" cy="380.36" r="8.87" fill="#fff" opacity="0.5" style="isolation: isolate"/>
  <circle cx="718.68" cy="380.36" r="8.87" fill="#fff" opacity="0.5" style="isolation: isolate"/>
  <circle cx="755.65" cy="380.36" r="8.87" fill="#fff" opacity="0.5" style="isolation: isolate"/>
  <circle cx="792.63" cy="380.36" r="8.87" fill="#fff" opacity="0.5" style="isolation: isolate"/>
</svg>
