<svg xmlns="http://www.w3.org/2000/svg" xmlns:xlink="http://www.w3.org/1999/xlink" viewBox="0 0 365 507"><style><![CDATA[.B{fill:#0f264c}.C{fill:#402b2b}.D{fill-rule:evenodd}.E{fill:#ffedba}.F{fill:#ffc3bd}.G{fill:#f29994}]]></style><defs><linearGradient id="A" x1="215.74" y1="196" x2="210.41" y2="141.03" gradientUnits="userSpaceOnUse"><stop offset="0" stop-color="#ffb3b6"/><stop offset="1" stop-color="#ffc8c1"/></linearGradient><linearGradient id="B" x1="268.84" y1="155.3" x2="268.84" y2="455.16" gradientUnits="userSpaceOnUse"><stop offset="0" stop-color="#f4a984"/><stop offset="1" stop-color="#ee4d47"/></linearGradient><linearGradient id="C" x1="289.32" y1="99.08" x2="289.54" y2="35.5" xlink:href="#A"/><linearGradient id="D" x1="293.04" y1="70.61" x2="286.72" y2="25.74" xlink:href="#A"/><linearGradient id="E" x1="321.12" y1="157.09" x2="321.12" y2="449.82" xlink:href="#B"/><linearGradient id="F" x1="310.36" y1="57.89" x2="308.96" y2="47.22" xlink:href="#A"/><linearGradient id="G" x1="129.85" y1="464.09" x2="129.85" y2="492.75" xlink:href="#B"/><linearGradient id="H" x1="33.85" y1="453.77" x2="33.85" y2="492.89" xlink:href="#B"/><linearGradient id="I" x1="65.91" y1="153.95" x2="65.91" y2="472.13" gradientUnits="userSpaceOnUse"><stop offset="0" stop-color="#822626"/><stop offset=".94" stop-color="#402b2b"/></linearGradient><linearGradient id="J" x1="82.71" y1="55.38" x2="82.71" y2="234.6" xlink:href="#B"/><linearGradient id="K" x1="75.07" y1="82.56" x2="94.16" y2="90.79" xlink:href="#A"/><linearGradient id="L" x1="74.29" y1="73.93" x2="93.48" y2="82.05" gradientUnits="userSpaceOnUse"><stop offset="0" stop-color="#ffb3b6" stop-opacity=".3"/><stop offset="1" stop-color="#ffc8c1"/></linearGradient><linearGradient id="M" x1="84.68" y1="78.25" x2="80.6" y2="41.77" xlink:href="#A"/><linearGradient id="N" x1="79.65" y1="-18.23" x2="79.65" y2="36.63" xlink:href="#B"/><linearGradient id="O" x1="94.53" y1="10.56" x2="94.53" y2="67.59" xlink:href="#B"/><linearGradient id="P" x1="54.8" y1="149.24" x2="152.57" y2="181.83" xlink:href="#A"/><linearGradient id="Q" x1="50.87" y1="81.71" x2="50.87" y2="149.6" xlink:href="#B"/></defs><path d="M257 120.9c-.22 5.7-.88 10.73-1.56 16l-.12.85c-.72 5.52-1.9 11-3.1 16.55h0a203.32 203.32 0 0 1-9.84 32.63l-1.7 4.06-.48 1-.24.48a.36.36 0 0 1-.09.23.75.75 0 0 0-.15.49 10.48 10.48 0 0 1-2.4 3.6 16.49 16.49 0 0 1-3.83 3.12h0a16.73 16.73 0 0 1-4.56 1.44 21.47 21.47 0 0 1-7.2-.72 29.8 29.8 0 0 1-9.11-4.8 54.16 54.16 0 0 1-7-5.52h0a155.46 155.46 0 0 1-21.6-24.97 26.54 26.54 0 0 1-8.77-5.8l5.47-17.15-5.47 16.9-12.23-7.44 3.6-14.64 14.16 5 9.6 15.12v1.92l.3-.24 11.75 10.8c4.08 3.6 8.16 6.7 12.24 9.83h0l1.83 1.25c1.46 1 2.87 2 4.4 2.83a23.55 23.55 0 0 0 4.85 2.26l.33-.77 1.44-3.6a202.51 202.51 0 0 0 7.91-30c.52-2.7 1-5.5 1.42-8.3l1.22-7.3c.72-5 1.44-10.56 1.68-15.36zm-30.3 65.37c.4.05.52-.1.33-.1a1 1 0 0 0-.36.1z" fill="url(#A)" class="D"/><path d="M248.2 98.76c-7.2 1.92-12.47 31.92-12.47 31.92l20.15 13.68s19.2-30.24 13.67-38.4c-6-8.4-10.8-10.08-21.35-7.2z" class="E"/><path d="M248.68,105.48l-5.52,30.24,11.28,7.68Z" fill="#ed6b57" opacity=".3"/><path d="M290.05 478.76h-23.7l-1.28-40.2h23.38z" class="F"/><path d="M266.1 476.58H290a1.85 1.85 0 0 1 1.73 1.49l2.6 19.63a3.47 3.47 0 0 1-3.46 3.87c-8.37 0-12.4-.6-22.8-.6-6.35 0-19.9.6-28.85.6-8.65 0-9.52-9.22-5.77-9.82 16.73-3.57 23.37-8.92 28.85-13.68a6.67 6.67 0 0 1 3.78-1.49z" fill="#14365b"/><path d="M265.06 439.65l.63 15.2H289l-1-15.2z" class="G"/><path d="M262.9 448.64s-14-124.07-15.2-180.22c-.4-18.2 2.06-43.45 4.34-60.7h38l-2.5 60.7c-2.16 55.2 2.5 180.22 2.5 180.22z" fill="url(#B)"/><path d="M253.13 98.25a101.49 101.49 0 0 0-3.8 18.18c-.82 9.36-9.8 26.1-4.6 35.9 12.17 15.75 6.1 39.83 8.4 54h72c-1.2-29.27-1.2-47.27 12.7-107.5a205.62 205.62 0 0 0-30.46-4.07c-12-.48-22.07-1-32.63 0-14.18 1.26-21.62 3.5-21.62 3.5z" class="E"/><path d="M304 57.8c-2.16 10.56-4.08 29.76 3.12 36.72 0 0-2.88 10.55-22.3 10.55-21.6 0-10.32-10.55-10.32-10.55 11.75-2.88 11.5-11.52 9.35-19.68z" fill="url(#C)"/><path d="M295.83 64.76l-11.75 10.08a24.09 24.09 0 0 1 1 5.76c4.56-.72 10.55-5.52 11-10.32a13.31 13.31 0 0 0-.25-5.52z" class="G"/><path d="M267.4 49.15c-7.7-11.55-5.27-22.22 0-28.18H288l2.06 32.3c0 3.85 19.74-2.75 17.94 1.38-4.62-.92-32.9 6.05-40.6-5.5z" class="B"/><path d="M315 38.6c-4.08 17-5.52 24.48-15.83 31.68-15.6 11-35.5 2.16-36.7-15.84-1-16.08 6-41.5 24-45.35C304.7 5.5 319.34 21.56 315 38.6z" fill="url(#D)"/><path d="M294 450.5h-33.93l-2.62-10.8 38-1.14z" fill="#4b2a2a"/><path d="M284.08 240.18c-8 15.95-5.1 41.12-3.8 62.6 1.58 26.33 3 48.73 6.45 62 3.1-36.24 8.63-80.63 12.7-113-2.43-18.55-7.2-27.9-15.35-11.6z" fill="#ee4d47" fill-opacity=".3"/><path d="M356.85 446.17L334 353.83v-90.7l-6.72-54.86h-40.7c-4.78 30.42 5.82 113.7 14.33 157l26.4 80.93z" fill="url(#E)"/><path d="M340 479.3l-6.52-26.07h22.8l3.8 26.07z" class="F"/><path d="M331.38 490.6l7.85-11.83H360c2.56 1.53 3.72 11.13 4.48 17.58a5.21 5.21 0 0 1-3.69 5.61L343.15 507H317.7a3.67 3.67 0 0 1-3.67-3.75c-.02-7.35 12.1-12.05 17.36-12.66z" fill="#14365b"/><path d="M356.86,457l-.55-3.8H333.5l.95,3.8Z" class="D G"/><path d="M361.38 453.77h-34L324.8 443l38-1.14z" fill="#4b2a2a"/><g class="B"><circle cx="325.15" cy="34.03" r="20.62"/><path d="M288 38.58c.26-1.43-.28-2.73-1.2-2.9s-1.86.87-2.1 2.3.28 2.73 1.2 2.9 1.82-.9 2.1-2.3zM272.08 36c-.24 1.44-1.2 2.4-2.16 2.16s-1.43-1.44-1.2-2.88 1.2-2.4 2.16-2.16 1.43 1.4 1.2 2.88z"/><path d="M271.36 33.32l-3.1-1.68c-.25 0 1.2 2.88 3.1 1.68z"/></g><path d="M275.92 39.08s-3.36 5.52-6.7 8.16c1.43 2.16 4.8 1.92 4.8 1.92z" fill="#ed847e"/><path d="M282.12 57.27a13.41 13.41 0 0 1-3.53-.35c-.35 0-.7-.34-.35-.7 0-.34.35-.7.7-.34 9.17 1.72 14.47-3.8 14.47-3.8.35-.35.7-.35.7 0 .35.34.35.68 0 .68a17.22 17.22 0 0 1-12.01 4.49z" class="B"/><path d="M324.4 23.36c8 19-8.43 28.8-17.64 31.3l8.82-17.28L313.8 28c-8-5-22-15.14-13.52-15.88 10.58-.9 21.16 4.23 24.1 11.24z" fill="#d3d86c"/><g class="B"><path d="M287.44 7.9c-7.92 4.56 11.56 47.5 25.9 41.5s9.6-30 2.64-36c-7.2-6.23-17.5-12-28.54-5.5z"/><path d="M321.7 23c9.34 28-9.85 42.4-20.62 46.05l10.3-25.4-2.06-13.74c-9.4-7.34-25.7-22.27-15.8-23.37C305.9 5.16 318.27 12.72 321.7 23z"/><path d="M282.88 5.73s-9.6 1.44-15.83 13.2c-6.48 12 30.22-11.5 24.94-13.2a14.08 14.08 0 0 0-9.11 0z"/></g><path d="M315.74 51.56a13.16 13.16 0 0 1-6.95 7c-4.08 1.68-6.72-1.92-6-6.24.72-3.84 3.6-9.12 8.15-9.12 4.32-.04 6.48 4.28 4.8 8.36z" fill="url(#F)"/><path d="M345.48 117.55a260 260 0 0 1 10.08 29 181.82 181.82 0 0 1 6.44 30.52l.72 8.15v2.36a12.39 12.39 0 0 1-.25 3.88 9.1 9.1 0 0 1-1.44 3.12 10.23 10.23 0 0 1-2.64 2.88 13.51 13.51 0 0 1-5.51 2.16 10.3 10.3 0 0 1-2.64 0h0-1a13.25 13.25 0 0 0-1.33-.23h0a6.78 6.78 0 0 1-1.31-.25 45.31 45.31 0 0 1-4.32-1.44l-7.43-3.6a157.31 157.31 0 0 1-24.95-18l.12-.17a22.14 22.14 0 0 1-7.27-6.78l-11.08-12.24 7.2-13.44 12.23 8.4 5.9 17.8 1.22.6c7.6 3.82 15.35 7.7 22.9 10.85a35.74 35.74 0 0 0 4.44 1.66c-.14-.9-.27-1.77-.37-2.62-.72-4.55-1.92-9.1-3.1-13.67h0l-3.83-14c-2.88-9.12-6.24-18.48-9.6-27.36z" class="D F"/><path d="M292.47 29.48a.88.88 0 0 1-.72-.24 7 7 0 0 0-5.75-2.16c-.48 0-1-.24-1-.72s.24-1 .72-1A8.29 8.29 0 0 1 293 28a1.09 1.09 0 0 1 0 1.2c-.3.28-.3.28-.53.28zm-26.14-2.16c-.24 0-.48 0-.48-.24a1.09 1.09 0 0 1 0-1.2 8.29 8.29 0 0 1 7.15-2.64c.48 0 .72.48.72 1s-.48.72-1 .72a7 7 0 0 0-5.75 2.16.88.88 0 0 1-.64.2z" class="B"/><path d="M337.8 98.6c7.2 2.16 15.83 27.12 15.83 27.12l-28.07 19.92s-10.3-20.64-7.2-30c3.36-9.63 11.27-19.43 19.43-17.04z" class="E"/><g fill="#9fc6ff"><path d="M254.43 478.76c-3 0-6-.44-7.65-2.18a5.35 5.35 0 0 1-1.27-3.9 2.38 2.38 0 0 1 1.27-2.17c3.83-2.18 16.15 4.34 17.85 5.2.43 0 .43.43.43.86a.42.42 0 0 1-.43.44 26.61 26.61 0 0 1-10.2 1.74zm-5.52-6.52a1.54 1.54 0 0 0-1.28.44c-.42 0-.42.43-.42.87a3.23 3.23 0 0 0 .85 2.6c1.7 1.74 7.22 2.17 14 .87-4.65-2.6-10.18-4.78-13.15-4.78z"/><path d="M264.2 477.67c-4.26-1.58-11.5-7.9-11.08-11.06 0-.8.85-1.58 3-2a7.6 7.6 0 0 1 4.26 1.19c3.84 3.16 4.7 11.06 4.7 11.06 0 .4 0 .4-.43.8zm-7.67-11.85h-.43c-1.28 0-1.28.8-1.28.8-.42 2 4.7 7.1 8.52 9.1-.42-2.38-1.27-7.12-3.83-9.1a6.43 6.43 0 0 0-2.98-.79zm77.87 16.1c-2.34-1.7-4.42-3.77-4.75-6.1a5.2 5.2 0 0 1 1.25-3.79 2.31 2.31 0 0 1 2.25-1c4.25.5 10.16 12.7 11 14.36.33.25.08.6-.17.93a.4.4 0 0 1-.58.09 25.72 25.72 0 0 1-9-4.48zm-.58-8.3a1.51 1.51 0 0 0-1.25-.39c-.34-.25-.6.1-.84.44a3.13 3.13 0 0 0-.83 2.53c.33 2.34 4.4 5.86 10.5 8.76-2.16-4.74-5.24-9.62-7.57-11.34z"/><path d="M342.7 486.7c-2.43-3.7-4.46-12.82-2.3-15.05.45-.62 1.58-.75 3.47.17a7.41 7.41 0 0 1 2.66 3.38c1.2 4.7-2.7 11.37-2.7 11.37-.23.3-.23.3-.8.37zm.82-13.7l-.34-.24c-1-.74-1.46-.12-1.46-.12-1.47 1.3-.42 8.27 1.45 12 1-2.1 3.1-6.3 2.23-9.33a6.39 6.39 0 0 0-1.88-2.3z"/></g><path d="M326.05 202l1.95 6.5c.24.48-.24 1-1.2 1h-74.15c-.7 0-1.2-.24-1.2-.72l-.72-6.48c0-.48.48-.72 1.2-.72h72.92c.7-.28 1.2-.04 1.2.42z" fill="#f18069"/><path d="M316.46 210.18h1.92c.48 0 .72-.24.72-.48l-1-8.4c0-.24-.48-.48-.72-.48h-1.88c-.48 0-.72.24-.72.48l1 8.4c-.04.24.22.48.68.48zm-58.3 0h1.92c.48 0 .72-.24.72-.48l-1-8.4c0-.24-.48-.48-.72-.48h-1.92c-.48 0-.72.24-.72.48l1 8.4c0 .24.48.48.72.48zm29.03 0h1.9c.48 0 .72-.24.72-.48l-.95-8.4c0-.24-.5-.48-.73-.48h-1.9c-.48 0-.72.24-.72.48l1 8.4c-.04.24.48.48.68.48z" fill="#6a2828"/><path d="M287.2 36l-3.12-1.68c0 .2 1.2 3.08 3.12 1.68z" class="B"/><path d="M119.38 34.1h-18.1l-2.45-10.95s7.17 4.15 8.87 1.32 1.32-1.7 3-1.32 1.7-1.88 3.77-.56c2.28 1.5 5.67 8.68 4.92 11.5z" fill="#6b1912"/><path d="M100.7 483.72l22.3-1.9-1.13-27.54-22.44 2.07z" fill="#d88d6c"/><path d="M142.2 479.94s-14.7-6.8-17.16-11.7c0 0-4.34-15.85-10.94-7.55 0 0-6.8 5.47-16.4 1.13l-1.13 30 66.57-.2c-1.7-4.53-3.2-9.64-20.93-11.7z" fill="url(#G)"/><path d="M96.56 492l-.38 4.72 67.14-.2c0-1.9.57-2.83-.38-4.72z" fill="#c73e39"/><path d="M3.2 479.94l22.25 3.78 5.85-26.8-22.07-3.78z" fill="#d88d6c"/><path d="M46 479.94s-14.7-6.8-17.17-11.7c0 0 3.4-12.46-4.52-6.23 0 0-13.58 5.1-19.24-1.13L.57 492l66.57-.2c-2.08-4.7-3.58-9.8-21.14-11.87z" fill="url(#H)"/><path d="M.38 492L0 496.74l67.14-.2c0-1.9.56-2.83-.38-4.72z" fill="#c73e39"/><path d="M126.73 224.1s4 113.4.38 242.26c0 0-10.75 10.2-31.12 3.4 0 0 .2-143.4-5.28-200.38 0 0-25.65 108.3-58.08 202.07 0 0-21.7 4.16-29.42-8.1 0 0 43.75-151.88 50.16-239.24z" fill="url(#I)"/><path d="M126.73 224.1H53.37c-.56 6.6-1.13 13.6-2.07 20.76 43.75.18 67-11 75.62-16a42.71 42.71 0 0 0-.19-4.76z" fill-opacity=".45" class="C"/><path d="M166.72 145.24c-20.18-35.66-36-47.74-36-47.74-8.72 4.9-2.1 38.5-2.1 38.5 5.47 10.75 9.24 20.38 17.35 29.8z" fill="#d1402c"/><path d="M130.7 97.5l-3.77 126s-25.65 13-76.75 4c0 0-.2-31.32-7.17-59.06 0 0-13-52.26-6.4-67.54 0 0 41.68-25.85 94.1-3.4z" fill="url(#J)"/><path d="M91.1 76.82l.38 13.5s-3.2 4.72-10.94 5.28c-7.73.38-11.5-4-11.5-4l-.75-20.1c9.62 4.2 19.05 5.9 22.82 5.32z" fill="url(#K)"/><path d="M90.34 71.27l.75 14.9c-3.77.57-13.2-1.13-22.63-5.28l-.57-9.63z" fill="url(#L)"/><path d="M39.23 130.33s11.12 25.1 15.08 36.4c4 11.14 4 55.47 24.7 64 0 0-22.06-1.33-29-3.2 0 0-.38-33.4-7.17-59.06l-6.6-39.24z" fill="#ee4d47" fill-opacity=".3"/><path d="M53.94 38.45c.37.18.75 6.22.75 6.22l1.5 12.64 7 5.47 4 1.7s5.8-2.48 5.03-4.7c-.75-2.08-4.53-31.9-5.23-31.9s-6.8 4.34-6.8 4.34zm55.26-11.33c1.7 0-.94 20.76-.94 20.76l-3-8.3-2.08-10z" class="C"/><path d="M106.37 31.28l3.2 26.6s1.13 22.45-17.35 23.77C73.74 82.78 61.1 64.48 61.1 64.48s-2.26 2.64-4.7-1.88c-2.26-4.53-.76-10.57 2.45-11.14 3.4-.37 4.9 1.5 5.28 4.34s.76 4.9.76 4.9l2.82-.38-2.07-21.88S70 30 74.87 28.26s9.24 5.1 9.24 5.1a24.37 24.37 0 0 0 8.87 0 49.66 49.66 0 0 0 7.16-2.07 14.23 14.23 0 0 0 6.23 0z" fill="url(#M)"/><path d="M93 71.46c-6.23.38-7.17-6.8-7.17-6.8l14.7-1.9c-.02 0 1.1 8.12-7.54 8.68z" fill="#893d43"/><path d="M86.38 66.94a12.89 12.89 0 0 1-.76-2.27l14.7-1.9a8.42 8.42 0 0 1 0 2.46z" fill="#fffeff"/><path d="M86.94 24.48V5.24c-11.5.56-23.38 2.83-29.23 10-7 8.5-3 28.1-3 28.1s8.5-.94 10-3.77 15.84-6.8 26.78-6.23 16.22-.56 21.7-5.28a11.87 11.87 0 0 0 2.82-3.78H87z" class="C"/><path d="M53.37 36.18s8.1-2.64 21.7-3.77c22.82-9.62 32.63-7.93 32.63-7.93s-.2-7.35-2.27-12.45S89.4-.23 77.7.9 53.94 10.7 52.05 19c-1.5 6.43 1.32 17.18 1.32 17.18z" fill="url(#N)"/><path d="M67.14 33.35c2.45-11.7 20-17.55 32.44-17.36 12.25.2 20.93 10.38 22.25 17.36.57 2.83-1.7 3.2-2.45.76-.57-1.7-1.7-9.82-13-8.87S95.62 36.37 90 37.3c-5.32.95-11.36-2.83-22.86-3.96z" fill="url(#O)"/><path d="M105.05 36v-1.33a35.42 35.42 0 0 0-10.19.57l.2 2.07a40.89 40.89 0 0 1 10-1.31zm-31.88 4.7c3.4-1.9 9.8-2.83 9.8-3l-.75-1.9a31.13 31.13 0 0 0-9.81 3.59z" class="C"/><path d="M92 47.12s.57 4 2.08 5.1 4.15 2.07 4.52 3c.38.75-.37 2.26-2.07 2.83s-1.9 1.13-1.9 1.13 3.4.38 5.1-1.7-.2-3.77-1.9-4.72a30.1 30.1 0 0 1-3.21-1.88c-.9-.55-2.64-3.76-2.64-3.76z" fill="#d87c60"/><path d="M83.92 49.2c0 1.9-1.32 3.58-3 3.58s-3-1.5-3-3.58c0-1.9 1.32-3.58 3-3.58s3 1.5 3 3.58zm20.75-2.45c0 1.88-1.32 3.58-3 3.58s-3-1.5-3-3.58c0-1.9 1.32-3.6 3-3.6a3.51 3.51 0 0 1 3 3.59z" class="C"/><path d="M197.08 97.3H80.53v90h116.55z" fill="#8c5e5e"/><path d="M197.27 97.3h-42.44v90h42.44z" fill="#694646"/><path d="M182.75 97.3H171.8v12.45h10.94zm-62.62 0H109.2v12.45h10.94z" fill="#a3774a"/><path d="M197.27,163.54s-6,4-7.73,5.66-4.72,17.92-1.7,19.62,8.86,0,10.75.38c2.07.37,8.11-3.4,8.11-6.42s-3.77-23-4.72-23.39-4.71-2.83-4.71-2.83Z" fill="#f4a984"/><path d="M121.45,162.22H85.05V180h36.4Z" fill="#fff"/><path d="M49.22 185.23c-13.76-20-15.65-80.56-15.65-80.56 18.86 2.45 31.5 27.73 31.5 27.92l2.83 36.23 48.1 7.7 2.6-2.43s11.12-5.66 20.17-4.7c0 0 4.15.75 3.2 3.2-.38 1.32.38 2.17 1.13 3s1.5 1.7 1.13 3a4.37 4.37 0 0 0 .25 2.79 3.8 3.8 0 0 1-.43 4 3.78 3.78 0 0 1-.19 4.34l-.25.3c-1.8 2.2-5.28 6.48-6.54 6.12-.48-.14-1.58-.32-2.82-.53-2.22-.37-4.86-.8-5.1-1.17-.38-.57-.76-1.7 1.13-2.83a13 13 0 0 1-4.72.19c-2.64-.2-6.4-2.27-6.4-2.27l-.7-.58c-52.88 4.38-69.25-3.72-69.25-3.72z" fill="url(#P)" class="D"/><path d="M70.34 160.14l-5.28-27.74s-9.6-29.05-28.47-31.5c0 0-13.58 8.5 3.2 66.22z" fill="url(#Q)"/></svg>