<svg width="383" height="187" viewBox="0 0 383 187" fill="none" xmlns="http://www.w3.org/2000/svg">
<path d="M109.354 154.66C109.354 172.05 119.369 186.099 131.686 186.099H154.017C166.334 186.099 176.233 171.934 176.233 154.66C176.233 137.271 166.219 123.222 153.902 123.222C153.672 123.222 153.557 123.222 153.327 123.222H131.686C119.254 123.222 109.354 137.386 109.354 154.66Z" fill="#442B2B"/>
<path d="M284.321 154.315C284.321 171.704 294.336 185.754 306.653 185.754H328.984C341.301 185.754 351.2 171.589 351.2 154.315C351.2 136.926 341.186 122.876 328.869 122.876C328.639 122.876 328.524 122.876 328.293 122.876H306.653C294.221 122.876 284.321 136.926 284.321 154.315Z" fill="#402B2B"/>
<path d="M0 107.905L6.79149 92.7041H27.166L27.3962 150.284L0.115117 150.399L0 107.905Z" fill="black"/>
<path d="M107.857 151.666L197.758 151.436L187.398 145.332L119.368 145.447L107.857 151.666Z" fill="#442B2B"/>
<path d="M23.0215 100.42L23.1366 158.115L96.1164 158L119.369 145.448L187.399 145.332L208.349 157.77L356.841 157.424C359.258 157.424 361.215 155.466 361.215 153.048L361.1 99.7288L23.0215 100.42Z" fill="#822626"/>
<path d="M182.104 113.548L298.595 113.318L298.365 7.71576C298.365 3.45482 294.912 0 290.538 0L181.759 0.230335L182.104 113.548Z" fill="#EF5F53"/>
<path d="M0.460685 114.01L181.989 113.664L181.759 0.346436L7.94283 0.691902C3.68376 0.691902 0.230469 4.1467 0.230469 8.52279L0.460685 114.01Z" fill="#F39476"/>
<path d="M269.588 154.315C269.588 171.704 259.689 185.754 247.372 185.754H225.156V175.159C216.983 175.159 210.307 165.831 210.307 154.315C210.307 142.799 216.868 133.471 225.041 133.471V122.876H247.257C259.574 122.991 269.473 137.041 269.588 154.315Z" fill="#402B2B"/>
<path d="M206.738 154.545C206.738 168.825 214.911 180.341 225.041 180.226C235.17 180.226 243.228 168.71 243.228 154.43C243.228 140.15 235.055 128.634 224.926 128.749C214.911 128.749 206.738 140.265 206.738 154.545Z" fill="#4B2A2A"/>
<path opacity="0.32" d="M225.041 171.474C231.717 171.474 237.012 163.873 237.012 154.43C237.012 144.987 231.602 137.502 224.926 137.502C218.249 137.502 212.954 145.102 212.954 154.545C212.954 163.988 218.364 171.474 225.041 171.474ZM225.041 144.411C228.954 144.411 232.177 148.902 232.177 154.43C232.177 159.958 228.954 164.564 225.041 164.564C221.127 164.564 217.904 160.073 217.904 154.545C217.904 148.902 221.012 144.411 225.041 144.411Z" fill="#E14841"/>
<path d="M225.04 185.869C237.357 185.869 247.257 171.704 247.257 154.43C247.257 137.156 237.242 122.991 224.925 122.991C212.608 122.991 202.709 137.156 202.709 154.43C202.709 171.704 212.839 185.984 225.04 185.869ZM224.925 128.749C235.055 128.749 243.228 140.265 243.228 154.43C243.228 168.71 235.17 180.226 225.04 180.226C214.911 180.226 206.738 168.71 206.738 154.545C206.738 140.265 214.911 128.749 224.925 128.749Z" fill="#402B2B"/>
<path opacity="0.32" d="M221.933 154.43C221.933 152.012 223.314 150.169 224.925 150.169C226.537 150.169 227.918 152.127 228.033 154.43C228.033 156.848 226.652 158.691 225.041 158.691C223.314 158.806 221.933 156.848 221.933 154.43Z" fill="#E14841"/>
<path d="M94.5053 154.775C94.5053 172.165 84.6058 186.214 72.289 186.214H50.0728V175.62C41.9 175.62 35.2236 166.292 35.2236 154.775C35.2236 143.259 41.7849 133.931 49.9577 133.931V123.337H72.1739C84.4907 123.337 94.5053 137.386 94.5053 154.775Z" fill="black"/>
<path d="M375.719 68.2901C375.719 68.7508 376.065 69.0962 376.41 69.2114C377.331 69.4417 380.784 69.4417 381.82 69.0962C382.281 68.9811 382.741 68.6356 382.741 68.0598C383.086 58.847 383.086 49.8645 382.741 41.3426C382.741 40.7668 382.281 40.4213 381.82 40.3062C380.669 39.9607 376.64 39.7304 375.374 40.191C374.913 40.3062 374.568 40.7668 374.568 41.2275C374.338 49.9796 374.683 58.9621 375.719 68.2901Z" fill="#CD2827"/>
<path d="M370.078 76.4665C370.193 76.4665 370.309 76.4665 370.539 76.3514L378.366 72.4359C380.208 71.5146 381.359 69.672 381.359 67.5992L381.244 38.6939C381.244 37.5423 380.323 36.621 379.172 36.621H357.646C357.071 36.621 356.726 37.0817 356.726 37.5423C356.726 38.1181 357.186 38.4636 357.646 38.4636H379.172C379.287 38.4636 379.287 38.5787 379.287 38.5787L379.402 67.484C379.402 68.8659 378.596 70.0175 377.445 70.5933L369.618 74.5088C369.157 74.7391 368.927 75.3149 369.157 75.7756C369.388 76.3514 369.733 76.4665 370.078 76.4665Z" fill="#822626"/>
<path d="M197.759 113.318C197.759 113.318 200.752 113.318 205.357 113.318H223.659C237.357 113.318 240.58 120.112 248.983 136.81L275.574 136.695C275.574 136.695 275.574 134.738 275.574 131.398L377.101 131.168C377.561 122.761 378.482 105.717 378.482 89.5947C378.482 89.0189 378.482 88.5583 378.482 87.9825C378.482 83.3761 377.676 78.309 376.295 73.242C370.885 53.4344 357.187 32.3601 351.546 24.6443C349.705 22.1108 348.093 19.9228 346.712 17.965C342.798 12.7828 340.15 10.1342 335.201 10.1342L212.148 10.4796C209.616 10.4796 207.313 12.207 206.623 14.6254C196.033 53.5496 197.644 83.1457 197.759 113.318ZM301.473 24.1837C301.358 23.6079 301.819 23.1473 302.394 23.1473L339.805 23.0321C341.992 23.0321 344.179 24.1837 345.561 26.1414C360.18 46.0642 366.05 64.2595 368.237 74.739L370.54 85.7944C370.885 87.4067 369.849 88.6734 368.237 88.6734H359.144C357.647 88.6734 356.036 87.9825 354.885 86.8309L336.237 68.981C334.165 67.0233 331.402 65.8717 328.755 65.8717H306.423L301.473 24.1837Z" fill="#CD2827"/>
<path d="M282.135 73.5875C282.941 77.2726 283.861 81.0729 284.667 85.1035C285.243 87.8674 287.66 89.8251 290.423 89.9403C326.797 91.2071 356.956 91.3222 378.482 89.71C378.482 89.1342 378.482 88.6735 378.482 88.0977C378.482 83.4913 377.676 78.4242 376.295 73.3572L282.135 73.5875Z" fill="#822626"/>
<path opacity="0.75" d="M214.91 23.2624L252.321 23.1473C254.508 23.1473 256.465 24.2989 257.501 26.2566C267.976 46.1794 270.163 64.3747 270.163 74.8543V85.9097C270.163 87.5219 268.897 88.7887 267.285 88.7887H258.191C256.695 88.7887 255.198 88.0977 254.278 86.9461L239.313 69.0963C237.587 67.1385 235.169 65.8718 232.522 65.9869H210.19L213.759 24.2989C213.759 23.7231 214.219 23.2624 214.91 23.2624Z" fill="#402B2B"/>
<path d="M197.759 113.318C197.759 113.318 200.752 113.318 205.357 113.318H223.659C237.357 113.318 240.58 120.112 248.983 136.81L275.574 136.695C275.574 136.695 275.574 134.738 275.574 131.398L377.101 131.168C377.561 122.761 378.482 105.717 378.482 89.5947C356.957 91.207 326.683 91.207 290.423 89.825C287.66 89.7099 285.243 87.7522 284.667 84.9883C283.862 80.9577 282.941 77.0423 282.135 73.4723C277.185 52.398 271.775 37.312 264.638 20.9592C264.063 19.6925 264.984 18.1954 266.365 18.1954L346.712 17.965C342.798 12.7828 340.15 10.1342 335.201 10.1342L212.148 10.4796C209.616 10.4796 207.313 12.207 206.623 14.6254C196.033 53.5496 197.644 83.1457 197.759 113.318ZM210.076 65.9869L213.645 24.2989C213.645 23.7231 214.22 23.2624 214.796 23.2624L252.206 23.1473C254.393 23.1473 256.35 24.2989 257.386 26.2566C267.861 46.1793 270.048 64.3746 270.048 74.8542V85.9096C270.048 87.5218 268.782 88.7886 267.171 88.7886H258.077C256.581 88.7886 255.084 88.0976 254.163 86.946L239.199 69.0962C237.472 67.1385 235.055 65.8717 232.407 65.9869H210.076Z" fill="url(#paint0_linear)"/>
<path d="M202.248 110.324C202.248 112.051 203.629 113.318 205.356 113.318H223.659C237.357 113.318 240.58 120.112 248.983 136.81L275.573 136.695C275.573 136.695 275.573 134.738 275.573 131.398L275.458 84.758C275.458 61.6108 271.314 46.9855 260.379 23.8383C258.767 20.3835 255.199 18.1954 251.4 18.1954L211.802 18.3106C210.881 18.3106 210.191 18.8864 209.961 19.6925C202.133 49.4038 202.133 97.7712 202.248 110.324ZM210.076 65.9869L213.644 24.2989C213.644 23.7231 214.22 23.2625 214.795 23.2625L252.206 23.1473C254.393 23.1473 256.35 24.2989 257.386 26.2567C267.861 46.1794 270.048 64.3747 270.048 74.8543V85.9096C270.048 87.5219 268.782 88.7886 267.17 88.7886H258.077C256.58 88.7886 255.084 88.0977 254.163 86.9461L239.198 69.0962C237.472 67.1385 235.055 65.8718 232.407 65.9869H210.076Z" fill="url(#paint1_linear)"/>
<path d="M215.14 24.6443L252.321 24.5292C253.932 24.5292 255.429 25.4505 256.234 26.8324C267.055 47.4461 268.781 65.7566 268.781 74.7391V85.7945C268.781 86.6006 268.091 87.2916 267.285 87.2916H258.191C257.04 87.2916 256.004 86.831 255.314 86.0248L240.349 68.175C238.392 65.8718 235.515 64.4898 232.407 64.4898H211.687L215.14 24.6443ZM214.91 23.2624C214.334 23.2624 213.759 23.7231 213.759 24.2989L210.19 65.9869H232.522C235.169 65.9869 237.587 67.1385 239.313 69.0963L254.278 86.9461C255.198 88.0977 256.695 88.7887 258.191 88.7887H267.285C268.897 88.7887 270.163 87.5219 270.163 85.9097V74.8543C270.163 64.3747 267.976 46.1794 257.501 26.2566C256.465 24.2989 254.508 23.1473 252.321 23.1473L214.91 23.2624Z" fill="#822626"/>
<path opacity="0.4" d="M275.458 109.402V131.398L315.631 131.283C315.171 125.525 314.135 119.997 312.408 114.815C311.718 112.742 309.991 111.245 307.804 110.899C298.94 109.863 287.66 109.402 275.458 109.402ZM356.726 131.283H376.64C376.985 126.446 377.33 118.615 377.676 109.748C372.841 109.978 368.352 110.439 364.323 111.015C362.136 111.36 360.409 112.857 359.719 114.93C358.107 119.997 357.186 125.525 356.726 131.283Z" fill="#CD2827"/>
<path d="M275.573 153.509L368.697 153.278C375.028 153.278 380.208 148.096 380.208 141.762V139.805C380.208 137.962 378.712 136.58 376.985 136.58L275.688 136.81L275.573 153.509Z" fill="#EE4D47"/>
<path d="M258.422 153.509H275.573V136.811H249.213L252.091 148.442C252.781 151.436 255.429 153.509 258.422 153.509Z" fill="#CD2827"/>
<path d="M217.443 92.589C221.357 92.7041 228.954 93.5103 228.954 96.2741C228.954 99.038 222.278 99.9593 216.867 99.9593C211.457 99.9593 210.882 96.9651 210.421 95.6983C210.076 94.4315 209.731 92.4738 217.443 92.589Z" fill="#CD2827"/>
<path d="M217.789 95.5831C215.947 95.5831 213.99 95.0073 213.069 94.086C213.76 93.7405 214.796 93.395 216.408 93.395C219.4 93.395 224.235 93.7405 226.767 94.8921C226.422 95.1224 225.501 95.5831 224.005 95.5831C222.163 95.5831 219.746 95.5831 217.789 95.5831Z" fill="#9B1616"/>
<path d="M225.501 97.7711C226.192 97.7711 226.537 97.8863 226.652 98.0015C224.58 98.9227 220.782 99.2682 218.94 99.2682C216.292 99.2682 214.451 99.2682 213.875 98.6924C214.335 98.3469 215.371 97.7711 216.407 97.7711C217.789 97.8863 224.58 97.7711 225.501 97.7711Z" fill="#9B1616"/>
<path d="M275.573 131.513C275.573 134.853 275.573 136.81 275.573 136.81L376.755 136.58C376.755 136.58 376.87 134.622 377.1 131.283L275.573 131.513Z" fill="#822626"/>
<g opacity="0.2">
<path d="M319.2 108.251V130.246L353.158 130.131V108.136C353.158 105.487 350.74 103.414 347.747 103.414H324.495C321.618 103.529 319.2 105.717 319.2 108.251Z" fill="#822626"/>
</g>
<path d="M364.553 129.44H371.69C373.531 129.44 375.143 127.943 375.143 125.985V122.415C375.143 120.573 373.647 118.961 371.69 118.961H364.553C362.711 118.961 361.1 120.458 361.1 122.415V125.985C361.1 127.943 362.711 129.44 364.553 129.44Z" fill="white"/>
<path d="M296.984 129.671H304.12C305.962 129.671 307.574 128.174 307.574 126.216V122.646C307.574 120.803 306.077 119.191 304.12 119.191H296.984C295.142 119.191 293.53 120.688 293.53 122.646V126.216C293.53 128.058 295.027 129.671 296.984 129.671Z" fill="white"/>
<path d="M250.939 68.5204C250.939 68.9811 251.285 69.3266 251.63 69.4417C256.119 69.9024 260.839 69.9023 265.673 69.3265C266.249 69.2114 266.594 68.8659 266.594 68.2901C266.94 59.0773 266.94 50.0948 266.594 41.573C266.594 40.9972 266.134 40.6517 265.673 40.5365C260.724 39.9607 255.774 39.9607 250.594 40.5365C250.133 40.6517 249.788 41.1123 249.788 41.573C249.443 50.21 249.903 59.1924 250.939 68.5204Z" fill="#CD2827"/>
<path d="M268.782 76.6969C269.127 76.6969 269.472 76.4665 269.587 76.1211C269.817 75.6604 269.587 75.0846 269.127 74.8543L261.299 71.054C260.148 70.4782 259.342 69.2114 259.342 67.9447L259.227 39.0394C259.227 38.9242 259.342 38.9242 259.342 38.9242H264.177C264.753 38.9242 265.098 38.4636 265.098 38.0029C265.098 37.4271 264.638 37.0817 264.177 37.0817H259.342C258.191 37.0817 257.271 38.0029 257.271 39.1545L257.386 68.0598C257.386 70.1327 258.537 71.9753 260.378 72.8966L268.206 76.6969C268.551 76.6969 268.666 76.6969 268.782 76.6969Z" fill="#822626"/>
<path d="M321.574 154.873L354.15 154.802L354.129 145.013L321.553 145.084L321.574 154.873Z" fill="white"/>
<path opacity="0.8" d="M264.416 21.3075C271.553 37.6602 276.848 52.7462 281.913 73.8205L376.073 73.5902C370.663 53.7826 356.965 32.7083 351.324 24.9926C349.483 22.459 347.871 20.271 346.49 18.3133L266.143 18.5436C264.762 18.6588 263.841 20.0407 264.416 21.3075Z" fill="#8E6362"/>
<path d="M33.6123 154.891C33.6123 169.171 41.7851 180.687 51.9148 180.571C62.0445 180.571 70.1022 169.055 70.1022 154.776C70.1022 140.496 61.9294 128.98 51.7997 129.095C41.67 129.095 33.6123 140.611 33.6123 154.891Z" fill="black"/>
<path d="M51.9147 171.819C58.591 171.819 63.8861 164.219 63.8861 154.775C63.8861 145.448 58.4759 137.847 51.7995 137.847C45.1232 137.847 39.8281 145.448 39.8281 154.891C39.8281 164.334 45.2383 171.819 51.9147 171.819ZM51.7995 144.757C55.7133 144.757 58.9364 149.248 58.9364 154.775C58.9364 160.303 55.7133 164.91 51.7995 164.91C47.8858 164.91 44.6627 160.418 44.6627 154.891C44.6627 149.248 47.8858 144.757 51.7995 144.757Z" fill="#625C5C"/>
<path d="M51.9144 186.329C64.2311 186.329 74.1306 172.165 74.1306 154.891C74.1306 137.501 64.116 123.452 51.7993 123.452C39.4825 123.452 29.583 137.617 29.583 154.891C29.583 172.28 39.5976 186.329 51.9144 186.329ZM51.7993 129.095C61.9289 129.095 70.1018 140.611 70.1018 154.775C70.1018 168.94 62.0441 180.571 51.9144 180.571C41.7847 180.571 33.6119 169.055 33.6119 154.891C33.6119 140.726 41.6696 129.095 51.7993 129.095Z" fill="#424242"/>
<path d="M48.8066 154.891C48.8066 152.472 50.1879 150.63 51.7995 150.63C53.5261 150.63 54.7923 152.588 54.9074 154.891C54.9074 157.309 53.5261 159.152 51.9146 159.152C50.188 159.152 48.8066 157.194 48.8066 154.891Z" fill="#8B8282"/>
<defs>
<linearGradient id="paint0_linear" x1="288.044" y1="-19.1881" x2="288.044" y2="140.279" gradientUnits="userSpaceOnUse">
<stop stop-color="#F4A984"/>
<stop offset="1" stop-color="#EE4D47"/>
</linearGradient>
<linearGradient id="paint1_linear" x1="238.899" y1="-136.177" x2="238.899" y2="140.058" gradientUnits="userSpaceOnUse">
<stop stop-color="#F4A984"/>
<stop offset="0.560769" stop-color="#EE4D47"/>
</linearGradient>
</defs>
</svg>
