<svg xmlns="http://www.w3.org/2000/svg" viewBox="0 0 383 187"><style><![CDATA[.B{fill:#822626}.C{fill:#402b2b}.D{fill:#cd2827}.E{fill:#e14841}.F{opacity:.32}.G{fill:#442b2b}]]></style><defs><linearGradient id="A" x1="288.04" y1="-19.19" x2="288.04" y2="140.28" gradientUnits="userSpaceOnUse"><stop offset="0" stop-color="#f4a984"/><stop offset="1" stop-color="#ee4d47"/></linearGradient><linearGradient id="B" x1="238.9" y1="-136.18" x2="238.9" y2="140.06" gradientUnits="userSpaceOnUse"><stop offset="0" stop-color="#f4a984"/><stop offset=".56" stop-color="#ee4d47"/></linearGradient></defs><path d="M109.35 154.66c0 17.4 10 31.44 22.34 31.44H154c12.3 0 22.2-14.17 22.2-31.44s-10-31.44-22.33-31.44h-22.2c-12.44 0-22.34 14.17-22.34 31.44z" class="G"/><path d="M284.32 154.32c0 17.38 10 31.43 22.33 31.43H329c12.32 0 22.22-14.16 22.22-31.43s-10-31.44-22.33-31.44h-22.24c-12.43 0-22.33 14.05-22.33 31.44zM0 107.9l6.8-15.2h20.38l.23 57.58-27.28.12z" class="C"/><path d="M107.86 151.67l89.9-.23-10.36-6.1-68 .12z" class="G"/><path d="M23 100.42l.12 57.7 73-.12 23.25-12.55 68-.12 20.95 12.44 148.5-.35a4.36 4.36 0 0 0 4.37-4.37l-.1-53.32z" class="B"/><path d="M182.1,113.55l116.5-.23-.24-105.6A7.73,7.73,0,0,0,290.54,0L181.76.23Z" fill="#ef5f53"/><path d="M.46 114l181.54-.34-.24-113.3L7.94.7A7.74 7.74 0 0 0 .23 8.52z" fill="#f39476"/><path d="M269.6 154.32c0 17.38-9.9 31.43-22.22 31.43h-22.2v-10.6c-8.18 0-14.85-9.33-14.85-20.84s6.56-20.85 14.73-20.85v-10.6h22.22c12.3.12 22.2 14.12 22.33 31.44z" class="C"/><path d="M206.74 154.54c0 14.28 8.17 25.8 18.3 25.7s18.2-11.52 18.2-25.8-8.18-25.8-18.3-25.68-18.2 11.5-18.2 25.8z" fill="#4b2a2a"/><path d="M225 171.47c6.68 0 12-7.6 12-17s-5.4-16.93-12.08-16.93-12 7.6-12 17 5.44 16.93 12.08 16.93zm0-27.06c3.9 0 7.14 4.5 7.14 10S229 164.56 225 164.56s-7.14-4.5-7.14-10S221 144.4 225 144.4z" class="E F"/><path d="M225 185.87c12.32 0 22.22-14.17 22.22-31.44S237.24 123 224.93 123s-22.22 14.17-22.22 31.44S212.84 186 225 185.87zm-.1-57.12c10.12 0 18.3 11.5 18.3 25.68s-8.06 25.8-18.2 25.8-18.3-11.52-18.3-25.7 8.2-25.8 18.23-25.8z" class="C"/><path d="M221.93 154.43c0-2.42 1.38-4.26 3-4.26s3 2 3.1 4.26-1.38 4.26-3 4.26-3.1-1.84-3.1-4.26z" class="E F"/><path d="M94.5 154.77c0 17.4-9.9 31.44-22.22 31.44H50.07v-10.6c-8.17 0-14.85-9.33-14.85-20.85s6.56-20.84 14.78-20.84v-10.6h22.17c12.32 0 22.34 14.05 22.34 31.43z" class="C"/><path d="M375.72 68.3a1 1 0 0 0 .69.92 17.3 17.3 0 0 0 5.41-.11 1.11 1.11 0 0 0 .92-1c.35-9.2.35-18.2 0-26.72a1.1 1.1 0 0 0-.92-1c-1.15-.35-5.18-.58-6.45-.12a1.11 1.11 0 0 0-.8 1 196.7 196.7 0 0 0 1.15 27.03z" class="D"/><path d="M370.08 76.47a.85.85 0 0 0 .46-.12l7.83-3.9a5.39 5.39 0 0 0 3-4.84l-.12-28.9a2.06 2.06 0 0 0-2.07-2.07h-21.53a.92.92 0 0 0 0 1.84h21.52a.12.12 0 0 1 .12.12l.1 28.9a3.45 3.45 0 0 1-1.95 3.11l-7.83 3.92a1 1 0 0 0-.46 1.27.92.92 0 0 0 .92.69z" class="B"/><path d="M197.76 113.32h25.9c13.7 0 16.92 6.8 25.32 23.5l26.6-.1v-5.3l101.53-.23c.46-8.4 1.38-25.45 1.38-41.58V88a57.27 57.27 0 0 0-2.18-14.74c-5.4-19.8-19.1-40.88-24.75-48.6L346.7 18c-3.9-5.2-6.56-7.84-11.5-7.84l-123 .35a5.81 5.81 0 0 0-5.53 4.15c-10.67 38.9-9.03 68.5-8.9 98.67zm103.7-89.14a.88.88 0 0 1 .92-1l37.4-.18a7.16 7.16 0 0 1 5.76 3.11c14.62 19.92 20.5 38.12 22.68 48.6l2.3 11.05a2.26 2.26 0 0 1-2.3 2.88h-9.1a6.23 6.23 0 0 1-4.25-1.84L336.24 69a11.16 11.16 0 0 0-7.48-3.11h-22.34z" class="D"/><path d="M282.14 73.6l2.53 11.5a6.11 6.11 0 0 0 5.75 4.84c36.38 1.27 66.54 1.38 88.06-.23v-1.6a57.14 57.14 0 0 0-2.18-14.74z" class="B"/><path d="M214.9 23.26l37.4-.1a5.78 5.78 0 0 1 5.18 3.11c10.5 19.92 12.66 38.1 12.66 48.6V85.9a2.85 2.85 0 0 1-2.87 2.88h-9.1a5.09 5.09 0 0 1-3.91-1.79l-15-17.85a8.59 8.59 0 0 0-6.76-3.15H210.2l3.57-41.7a1.06 1.06 0 0 1 1.15-1.05z" opacity=".75" class="C"/><path d="M197.76 113.32h25.9c13.7 0 16.92 6.8 25.32 23.5l26.6-.1v-5.3l101.53-.23c.46-8.4 1.38-25.45 1.38-41.58-21.52 1.62-51.8 1.62-88.06.23a6.11 6.11 0 0 1-5.75-4.82c-.8-4-1.73-7.95-2.53-11.52A287.48 287.48 0 0 0 264.64 21a2 2 0 0 1 1.72-2.76L346.7 18c-3.9-5.2-6.56-7.84-11.5-7.84l-123 .35a5.81 5.81 0 0 0-5.53 4.15c-10.67 38.9-9.03 68.5-8.9 98.66zM210.08 66l3.57-41.7a1.13 1.13 0 0 1 1.15-1l37.4-.1a5.79 5.79 0 0 1 5.18 3.11c10.47 19.92 12.66 38.1 12.66 48.6v11a2.86 2.86 0 0 1-2.88 2.88h-9.1a5.1 5.1 0 0 1-3.92-1.79l-15-17.85a8.62 8.62 0 0 0-6.75-3.15z" fill="url(#A)"/><path d="M202.25 110.32a3 3 0 0 0 3.11 3h18.3c13.7 0 16.92 6.8 25.32 23.5l26.6-.1v-5.3l-.1-46.64c0-23.15-4.15-37.77-15.08-60.92a9.92 9.92 0 0 0-9-5.64l-39.6.1a1.87 1.87 0 0 0-1.78 1.38c-7.87 29.7-7.87 78.08-7.75 90.63zM210.08 66l3.56-41.7a1.14 1.14 0 0 1 1.15-1l37.42-.1a5.79 5.79 0 0 1 5.18 3.11c10.47 19.92 12.66 38.1 12.66 48.6v11a2.86 2.86 0 0 1-2.88 2.88h-9.1a5.1 5.1 0 0 1-3.92-1.79l-15-17.85a8.62 8.62 0 0 0-6.75-3.15z" fill="url(#B)"/><path d="M215.14 24.64l37.18-.1a4.59 4.59 0 0 1 3.91 2.3c10.82 20.62 12.55 38.93 12.55 47.9V85.8a1.52 1.52 0 0 1-1.49 1.5h-9.1a3.74 3.74 0 0 1-2.88-1.29l-15-17.84a10.41 10.41 0 0 0-7.94-3.69H211.7zm-.23-1.38a1.13 1.13 0 0 0-1.15 1L210.2 66h22.33a9 9 0 0 1 6.79 3.11l15 17.85a5.09 5.09 0 0 0 3.91 1.84h9.1a2.85 2.85 0 0 0 2.87-2.88V74.85c0-10.48-2.18-28.67-12.66-48.6a5.78 5.78 0 0 0-5.18-3.11z" class="B"/><path d="M275.46 109.4v22l40.17-.12a69.4 69.4 0 0 0-3.22-16.46 5.76 5.76 0 0 0-4.61-3.92 291.23 291.23 0 0 0-32.34-1.5zm81.27 21.88h19.9c.34-4.83.7-12.67 1-21.53-4.84.23-9.33.7-13.36 1.26a5.78 5.78 0 0 0-4.6 3.92 73.66 73.66 0 0 0-2.95 16.35z" opacity=".4" class="D"/><path d="M275.57 153.5l93.13-.23a11.55 11.55 0 0 0 11.51-11.52v-2a3.22 3.22 0 0 0-3.23-3.22l-101.3.23z" fill="#ee4d47"/><path d="M258.42 153.5h17.15v-16.7H249.2l2.88 11.63a6.51 6.51 0 0 0 6.33 5.07zm-40.98-60.9c3.92.1 11.5.92 11.5 3.68s-6.67 3.73-12.08 3.73-6-3-6.45-4.26-.7-3.27 7.02-3.15z" class="D"/><path d="M217.8 95.58a7.24 7.24 0 0 1-4.72-1.49 7.17 7.17 0 0 1 3.34-.7c3 0 7.83.35 10.36 1.5a5.09 5.09 0 0 1-2.76.69zm7.7 2.2a1.87 1.87 0 0 1 1.15.23 23.52 23.52 0 0 1-7.71 1.27c-2.65 0-4.5 0-5.06-.58a4.7 4.7 0 0 1 2.53-.92c1.38.12 8.17 0 9.1 0z" fill="#9b1616"/><g class="B"><path d="M275.57 131.5v5.3l101.2-.23.34-5.3z"/><path d="M319.2 108.25v22l34-.12v-22c0-2.65-2.42-4.73-5.4-4.73h-23.3c-2.87.13-5.3 2.32-5.3 4.85z" opacity=".2"/></g><path d="M364.55 129.44h7.14a3.46 3.46 0 0 0 3.45-3.45v-3.57a3.46 3.46 0 0 0-3.45-3.46h-7.14a3.47 3.47 0 0 0-3.45 3.46V126a3.46 3.46 0 0 0 3.45 3.44zm-67.55.23h7.14a3.46 3.46 0 0 0 3.45-3.45v-3.57a3.46 3.46 0 0 0-3.45-3.46H297a3.47 3.47 0 0 0-3.45 3.46v3.57a3.46 3.46 0 0 0 3.45 3.45z" fill="#fff"/><path d="M250.94 68.52a1 1 0 0 0 .69.92 64.14 64.14 0 0 0 14-.11 1 1 0 0 0 .92-1c.35-9.2.35-18.2 0-26.72a1.1 1.1 0 0 0-.92-1 65.56 65.56 0 0 0-15.08 0 1.09 1.09 0 0 0-.8 1 178.61 178.61 0 0 0 1.19 26.91z" class="D"/><path d="M268.78 76.7a.87.87 0 0 0 .81-.58 1 1 0 0 0-.46-1.27l-7.83-3.8a3.6 3.6 0 0 1-2-3.11L259.23 39a.11.11 0 0 1 .11-.12h4.84a.92.92 0 1 0 0-1.84h-4.84a2.06 2.06 0 0 0-2.07 2.07l.12 28.9a5.38 5.38 0 0 0 3 4.84l7.83 3.8z" class="B"/><path d="M321.57 154.87l32.58-.07V145l-32.58.07z" fill="#fff"/><path d="M264.42 21.3a295.35 295.35 0 0 1 17.49 52.51l94.16-.23C370.66 53.78 357 32.7 351.32 25l-4.83-6.68-80.35.23a2 2 0 0 0-1.72 2.76z" fill="#8e6362" opacity=".8"/><path d="M33.6 154.9c0 14.28 8.18 25.8 18.3 25.68s18.2-11.52 18.2-25.8S61.93 129 51.8 129.1s-18.2 11.5-18.2 25.8z" fill="#4b2a2a"/><path d="M51.9 171.82c6.68 0 12-7.6 12-17s-5.4-16.92-12.1-16.92-12 7.6-12 17 5.42 16.92 12.1 16.92zm-.1-27.06c3.9 0 7.14 4.5 7.14 10S55.7 164.9 51.8 164.9s-7.14-4.5-7.14-10 3.23-10.14 7.14-10.14z" class="E F"/><path d="M51.9 186.33c12.32 0 22.22-14.17 22.22-31.44s-10-31.44-22.33-31.44-22.22 14.17-22.22 31.44 10.02 31.44 22.33 31.44zm-.1-57.23c10.13 0 18.3 11.5 18.3 25.67s-8.06 25.8-18.2 25.8-18.3-11.52-18.3-25.68 8.06-25.8 18.2-25.8z" class="G"/><path d="M48.8 154.9c0-2.42 1.38-4.26 3-4.26s3 2 3.1 4.26-1.38 4.26-3 4.26-3.1-1.96-3.1-4.26z" class="E F"/></svg>