<svg width="154" height="77" viewBox="0 0 154 77" fill="none" xmlns="http://www.w3.org/2000/svg">
<path d="M152.272 60.4831C150.702 53.2472 148.11 46.4045 144.655 40.1124C144.184 39.2472 143.634 38.3034 143.084 37.4382C139.079 30.7528 134.132 24.7753 128.399 19.5843C127.692 18.8764 126.907 18.2472 126.121 17.618C119.996 12.5056 113.007 8.33707 105.468 5.34831C104.525 4.95505 103.583 4.64045 102.64 4.32584C95.1015 1.65169 86.9342 0.157303 78.5313 0C78.0602 0 77.5105 0 77.0393 0C76.5681 0 76.0184 0 75.5472 0C67.0658 0.157303 58.977 1.65169 51.438 4.32584C50.4957 4.64045 49.5533 5.0337 48.6109 5.34831C41.0719 8.33707 34.0826 12.5056 27.9572 17.618C27.1719 18.2472 26.3865 18.9551 25.6798 19.5843C19.947 24.7753 14.921 30.7528 10.9944 37.4382C10.4447 38.3034 9.97348 39.2472 9.42376 40.1124C5.96838 46.4045 3.37686 53.2472 1.80624 60.4831C1.57064 61.5056 1.41356 62.5281 1.17797 63.5506C0.392657 67.9551 0 72.4382 0 77H154C154 72.4382 153.607 67.8764 152.822 63.5506C152.665 62.5281 152.508 61.5056 152.272 60.4831Z" fill="#F4F6D5"/>
</svg>
