<svg width="240" height="120" viewBox="0 0 240 120" fill="none" xmlns="http://www.w3.org/2000/svg">
<path d="M237.307 94.2595C234.86 82.9826 230.821 72.3187 225.436 62.5128C224.702 61.1645 223.845 59.6936 222.988 58.3453C216.747 47.9265 209.036 38.6108 200.102 30.5209C199 29.4178 197.777 28.4372 196.553 27.4566C187.007 19.4893 176.114 12.9928 164.365 8.33502C162.896 7.72215 161.428 7.23187 159.959 6.74157C148.21 2.57406 135.482 0.245148 122.387 0C121.652 0 120.796 0 120.061 0C119.327 0 118.47 0 117.736 0C104.518 0.245148 91.9123 2.57406 80.1632 6.74157C78.6945 7.23187 77.2259 7.84473 75.7573 8.33502C64.0082 12.9928 53.1158 19.4893 43.5696 27.4566C42.3457 28.4372 41.1219 29.5403 40.0204 30.5209C31.0862 38.6108 23.2534 47.9265 17.1341 58.3453C16.2774 59.6936 15.5431 61.1645 14.6864 62.5128C9.30138 72.3187 5.26264 82.9826 2.81491 94.2595C2.44775 95.8529 2.20296 97.4464 1.8358 99.0399C0.611933 105.904 0 112.891 0 120H240C240 112.891 239.388 105.781 238.164 99.0399C237.919 97.4464 237.675 95.8529 237.307 94.2595Z" fill="white"/>
</svg>
